<?xml version="1.0" encoding="UTF-8" standalone="no"?>
<!DOCTYPE svg PUBLIC "-//W3C//DTD SVG 1.1//EN" "http://www.w3.org/Graphics/SVG/1.1/DTD/svg11.dtd">
<svg width="100%" height="100%" viewBox="0 0 800 600" version="1.1" xmlns="http://www.w3.org/2000/svg" xmlns:xlink="http://www.w3.org/1999/xlink" xml:space="preserve" xmlns:serif="http://www.serif.com/" style="fill-rule:evenodd;clip-rule:evenodd;stroke-linecap:round;stroke-linejoin:round;stroke-miterlimit:1.5;">
    <path d="M394.776,262.37C392.055,259.755 385.459,257.629 373.158,267.804C360.263,278.47 353.444,285.057 348.743,288.905C344.913,292.041 342.163,293.567 339.198,294.213C334.826,295.164 329.729,293.883 318.085,291.896C307.318,290.059 298.815,289.74 292.379,288.617C286.486,287.59 282.098,285.818 278.94,282.491C275.837,279.221 273.788,274.318 273.172,266.439C272.71,260.541 271.445,255.291 269.305,251.321C267.577,248.115 265.317,245.781 262.296,245.108C257.679,244.08 252,246.637 244.894,253.086C223.775,272.253 192.46,318.077 192.46,318.077C192.088,318.62 191.595,319.07 191.02,319.392C191.02,319.392 179.7,325.669 170.008,326.592C164.81,327.087 160.067,326.024 156.882,322.879C154.313,320.342 150.749,317.325 149.114,312.539C147.466,307.715 147.524,300.909 153.33,290.746C159.983,279.101 174.746,262.135 204.397,236.86L204.397,236.859C225.018,219.281 232.185,206.196 233.972,195.966C235.124,189.371 234.009,184.08 233.193,179.715C232.381,175.369 231.937,171.709 232.857,168.541C233.834,165.175 236.142,162.088 241.467,159.492C247.473,156.565 258.208,154.026 276.941,151.589C321.562,145.782 346.91,149.644 363.109,162.726C379.276,175.783 386.599,198.39 394.352,231.425C397.802,246.122 400.433,253.916 402.021,257.651C402.19,257.861 402.347,258.067 402.492,258.267C404.14,260.544 404.304,262.633 404.252,263.126C404.039,265.166 402.831,266.13 401.74,266.624C400.834,267.034 399.042,267.629 397.066,265.909C396.734,265.62 395.844,264.632 394.776,262.37Z" style="fill:none;stroke:rgb(0,255,43);stroke-width:7.5px;"/>
    <g transform="matrix(1,0,0,1,-59.2161,7.23524)">
        <g transform="matrix(168,0,0,168,222.329,322.663)">
            <path d="M0.074,-0L0.074,-0.716L0.564,-0.716L0.564,-0.595L0.218,-0.595L0.218,-0.425L0.517,-0.425L0.517,-0.304L0.218,-0.304L0.218,-0L0.074,-0Z" style="fill:none;fill-rule:nonzero;stroke:rgb(255,0,255);stroke-width:0.04px;stroke-linecap:butt;stroke-miterlimit:2;"/>
        </g>
        <g transform="matrix(168,0,0,168,324.95,322.663)">
            <path d="M0.043,-0.354C0.043,-0.426 0.054,-0.488 0.076,-0.537C0.092,-0.574 0.115,-0.606 0.143,-0.635C0.171,-0.664 0.202,-0.686 0.235,-0.7C0.28,-0.719 0.331,-0.728 0.39,-0.728C0.495,-0.728 0.58,-0.695 0.643,-0.63C0.706,-0.564 0.738,-0.473 0.738,-0.357C0.738,-0.241 0.706,-0.151 0.644,-0.086C0.581,-0.02 0.497,0.012 0.392,0.012C0.285,0.012 0.201,-0.02 0.138,-0.085C0.075,-0.15 0.043,-0.24 0.043,-0.354ZM0.192,-0.358C0.192,-0.277 0.211,-0.216 0.249,-0.174C0.286,-0.132 0.333,-0.111 0.391,-0.111C0.449,-0.111 0.496,-0.132 0.533,-0.174C0.57,-0.215 0.588,-0.277 0.588,-0.36C0.588,-0.442 0.57,-0.504 0.534,-0.544C0.498,-0.584 0.451,-0.604 0.391,-0.604C0.332,-0.604 0.284,-0.584 0.247,-0.543C0.211,-0.502 0.192,-0.441 0.192,-0.358Z" style="fill:none;fill-rule:nonzero;stroke:rgb(255,0,255);stroke-width:0.04px;stroke-linecap:butt;stroke-miterlimit:2;"/>
        </g>
        <g transform="matrix(168,0,0,168,455.626,322.663)">
            <path d="M0.074,-0L0.074,-0.716L0.215,-0.716L0.508,-0.238L0.508,-0.716L0.642,-0.716L0.642,-0L0.497,-0L0.208,-0.467L0.208,-0L0.074,-0Z" style="fill:none;fill-rule:nonzero;stroke:rgb(255,0,255);stroke-width:1px;stroke-linecap:butt;stroke-miterlimit:2;"/>
        </g>
        <g transform="matrix(168,0,0,168,576.95,322.663)">
            <path d="M0.234,-0L0.234,-0.595L0.021,-0.595L0.021,-0.716L0.59,-0.716L0.59,-0.595L0.378,-0.595L0.378,-0L0.234,-0Z" style="fill:none;fill-rule:nonzero;stroke:rgb(255,0,255);stroke-width:0.04px;stroke-linecap:butt;stroke-miterlimit:2;"/>
        </g>
    </g>
</svg>
