<?xml version="1.0" encoding="UTF-8" standalone="no"?>
<!DOCTYPE svg PUBLIC "-//W3C//DTD SVG 1.1//EN" "http://www.w3.org/Graphics/SVG/1.1/DTD/svg11.dtd">
<svg width="100%" height="100%" viewBox="0 0 800 600" version="1.1" xmlns="http://www.w3.org/2000/svg" xmlns:xlink="http://www.w3.org/1999/xlink" xml:space="preserve" xmlns:serif="http://www.serif.com/" style="fill-rule:evenodd;clip-rule:evenodd;stroke-linejoin:round;stroke-miterlimit:2;">
    <g transform="matrix(8.45135,0,0,8.45135,-1641.13,-794.32)">
        <path d="M223.076,115.337L223.076,107.761L220.245,107.761L220.245,106.747L227.054,106.747L227.054,107.761L224.212,107.761L224.212,115.337L223.076,115.337Z" style="fill-rule:nonzero;stroke:rgb(255,0,206);stroke-width:0.12px;"/>
        <path d="M228.243,115.337L228.243,106.747L234.454,106.747L234.454,107.761L229.38,107.761L229.38,110.392L234.132,110.392L234.132,111.4L229.38,111.4L229.38,114.323L234.654,114.323L234.654,115.337L228.243,115.337Z" style="fill-rule:nonzero;stroke:rgb(255,0,206);stroke-width:0.12px;"/>
        <path d="M235.837,112.577L236.91,112.484C236.96,112.913 237.078,113.266 237.264,113.541C237.45,113.817 237.738,114.039 238.128,114.209C238.519,114.379 238.958,114.464 239.447,114.464C239.88,114.464 240.263,114.4 240.595,114.271C240.927,114.142 241.174,113.965 241.336,113.74C241.498,113.516 241.579,113.271 241.579,113.005C241.579,112.735 241.501,112.5 241.345,112.299C241.189,112.098 240.931,111.929 240.572,111.792C240.341,111.702 239.831,111.563 239.042,111.373C238.253,111.184 237.701,111.005 237.384,110.837C236.974,110.622 236.668,110.356 236.467,110.037C236.266,109.719 236.165,109.362 236.165,108.968C236.165,108.534 236.288,108.129 236.535,107.752C236.781,107.375 237.14,107.089 237.613,106.894C238.085,106.698 238.611,106.601 239.189,106.601C239.826,106.601 240.387,106.703 240.873,106.908C241.36,107.113 241.734,107.415 241.995,107.814C242.257,108.212 242.398,108.663 242.417,109.167L241.327,109.249C241.269,108.706 241.071,108.296 240.733,108.019C240.395,107.741 239.896,107.603 239.236,107.603C238.548,107.603 238.047,107.729 237.733,107.981C237.418,108.233 237.261,108.536 237.261,108.892C237.261,109.2 237.372,109.454 237.595,109.653C237.814,109.853 238.385,110.057 239.309,110.266C240.233,110.475 240.867,110.657 241.21,110.814C241.71,111.044 242.079,111.336 242.318,111.69C242.556,112.043 242.675,112.45 242.675,112.911C242.675,113.368 242.544,113.799 242.283,114.203C242.021,114.608 241.645,114.922 241.155,115.147C240.664,115.371 240.113,115.484 239.499,115.484C238.722,115.484 238.071,115.37 237.545,115.144C237.02,114.917 236.608,114.576 236.309,114.121C236.01,113.666 235.853,113.152 235.837,112.577Z" style="fill-rule:nonzero;stroke:rgb(255,0,206);stroke-width:0.12px;"/>
        <path d="M246.413,115.337L246.413,107.761L243.583,107.761L243.583,106.747L250.392,106.747L250.392,107.761L247.55,107.761L247.55,115.337L246.413,115.337Z" style="fill-rule:nonzero;stroke:rgb(255,0,206);stroke-width:0.12px;"/>
        <rect x="251.751" y="106.747" width="1.137" height="8.59" style="fill-rule:nonzero;stroke:rgb(255,0,206);stroke-width:0.12px;"/>
        <path d="M254.88,115.337L254.88,106.747L256.046,106.747L260.558,113.491L260.558,106.747L261.648,106.747L261.648,115.337L260.482,115.337L255.97,108.587L255.97,115.337L254.88,115.337Z" style="fill-rule:nonzero;stroke:rgb(255,0,206);stroke-width:0.12px;"/>
        <path d="M267.577,111.968L267.577,110.96L271.216,110.954L271.216,114.142C270.658,114.587 270.081,114.922 269.488,115.147C268.894,115.371 268.285,115.484 267.66,115.484C266.816,115.484 266.049,115.303 265.36,114.942C264.67,114.58 264.15,114.058 263.798,113.374C263.447,112.691 263.271,111.927 263.271,111.083C263.271,110.247 263.446,109.467 263.795,108.742C264.145,108.018 264.648,107.48 265.304,107.128C265.96,106.777 266.716,106.601 267.572,106.601C268.193,106.601 268.754,106.701 269.256,106.902C269.758,107.104 270.152,107.384 270.437,107.743C270.722,108.103 270.939,108.571 271.087,109.15L270.062,109.431C269.933,108.993 269.773,108.65 269.581,108.4C269.39,108.15 269.117,107.949 268.761,107.799C268.406,107.649 268.011,107.573 267.577,107.573C267.058,107.573 266.609,107.652 266.23,107.811C265.851,107.969 265.545,108.177 265.313,108.435C265.08,108.693 264.9,108.976 264.771,109.284C264.552,109.816 264.443,110.392 264.443,111.013C264.443,111.778 264.575,112.419 264.838,112.935C265.102,113.45 265.486,113.833 265.99,114.083C266.493,114.333 267.029,114.458 267.595,114.458C268.087,114.458 268.568,114.363 269.036,114.174C269.505,113.985 269.861,113.782 270.103,113.568L270.103,111.968L267.577,111.968Z" style="fill-rule:nonzero;stroke:rgb(255,0,206);stroke-width:0.12px;"/>
    </g>
    <path d="M290.745,80.963L375.882,83.84L422.112,146.478C422.112,146.478 394.811,206.454 388.142,208.225C381.473,209.997 292.427,214.755 283.543,212.569C274.659,210.384 247.844,181.622 247.844,181.622C247.844,181.622 220.412,133.606 281.666,105.887C342.919,78.168 386.98,76.422 422.915,92.158C458.85,107.894 453.238,161.115 443.926,206.554C434.613,251.993 403.507,330.121 375.237,238.729C346.966,147.338 327.385,68.139 327.385,68.139L544.561,248.225" style="fill:none;stroke:rgb(1,0,255);stroke-width:4px;stroke-linecap:round;stroke-miterlimit:1.5;"/>
    <path d="M495.458,206.085L526.596,225.445L511.027,243.784L536.219,250.789L524.325,282.115L499.133,275.11L499.133,297.778L460.644,297.778L460.644,275.11L435.452,282.115L423.558,250.789L448.75,243.784L433.18,225.445L464.319,206.085L479.888,224.423L495.458,206.085Z" style="fill:rgb(1,0,255);stroke:rgb(0,255,33);stroke-width:4px;stroke-linecap:round;stroke-miterlimit:1.5;"/>
</svg>
