<?xml version="1.0" encoding="utf-8"?>
<!-- Generator: Adobe Illustrator 22.1.0, SVG Export Plug-In . SVG Version: 6.00 Build 0)  -->
<svg version="1.2" baseProfile="tiny" id="Layer_1" xmlns="http://www.w3.org/2000/svg" xmlns:xlink="http://www.w3.org/1999/xlink"
	 x="0px" y="0px" width="595.3px" height="841.9px" viewBox="0 0 595.3 841.9" xml:space="preserve">
 <path d="M0,0L423,1L10,10" stroke="#f108ff" fill="none" stroke-width="5" stroke-linecap="butt" transform="translate(121.5,188.5)"/>
    <rect width="292" height="132" stroke="#f108ff" fill="none" stroke-width="7.5" stroke-dashoffset="849" stroke-dasharray="" fill-rule="evenodd" transform="translate(328,316) translate(-146,-66)"/>
<g id="Layer_1_2_">
	<g id="Layer_1_1_">
		<g id="Layer_2_1_" display="none">
			
				<path display="inline" fill="none" stroke="#B9529F" stroke-width="12.381" stroke-linecap="round" stroke-linejoin="round" stroke-miterlimit="10" d="
				M187.5,160.2c0-9.5-6.8-27.8-29.3-28.1c-1,0-6.9,0-8.3,0c-17.1,0-28.5,15.9-28.7,27.6c0,0.4,0,4.4,0.1,4.8
				c0.4,18.9,13.1,28.4,33.2,37.5c24.2,10.9,33.3,21.4,33.4,36.1c0,1.1,0,5.1,0,7.4c0,10.6-10.5,26.5-29.7,26.5c-0.2,0-8.2,0-8.4,0
				c-19.2,0-28.7-17.9-28.7-27.5"/>
			<g display="inline">
				
					<polyline fill="none" stroke="#B9529F" stroke-width="12.381" stroke-linecap="round" stroke-linejoin="round" stroke-miterlimit="10" points="
					321.1,132.4 254.2,132.4 254.2,271.5 321.1,271.5 				"/>
				
					<line fill="none" stroke="#B9529F" stroke-width="12.381" stroke-linecap="round" stroke-linejoin="round" stroke-miterlimit="10" x1="254.2" y1="200.3" x2="296.6" y2="200.3"/>
			</g>
			<g display="inline">
				
					<polyline fill="none" stroke="#B9529F" stroke-width="12.381" stroke-linecap="round" stroke-linejoin="round" stroke-miterlimit="10" points="
					320.1,342 253.2,342 253.2,481.1 320.1,481.1 				"/>
				
					<line fill="none" stroke="#B9529F" stroke-width="12.381" stroke-linecap="round" stroke-linejoin="round" stroke-miterlimit="10" x1="253.2" y1="409.9" x2="295.6" y2="409.9"/>
			</g>
			<g display="inline">
				
					<polyline fill="none" stroke="#B9529F" stroke-width="12.381" stroke-linecap="round" stroke-linejoin="round" stroke-miterlimit="10" points="
					453.1,342 386.2,342 386.2,481.1 453.1,481.1 				"/>
				
					<line fill="none" stroke="#B9529F" stroke-width="12.381" stroke-linecap="round" stroke-linejoin="round" stroke-miterlimit="10" x1="386.2" y1="409.9" x2="428.6" y2="409.9"/>
			</g>
			
				<polyline display="inline" fill="none" stroke="#B9529F" stroke-width="12.381" stroke-linecap="round" stroke-linejoin="round" stroke-miterlimit="10" points="
				130.2,342 130.2,481.1 197.1,481.1 			"/>
			<g display="inline">
				
					<path fill="none" stroke="#B9529F" stroke-width="12.381" stroke-linecap="round" stroke-linejoin="round" stroke-miterlimit="10" d="
					M423.6,200.3c1.9,0,2.6,0,4.6,0c15.7,0,25.8,10.4,25.8,30.9c0,11.9,0,5.3,0,16.8s-13.5,23.5-27.9,23.5h-38.9V132.4h37.9
					c13.3,0,20.5,15.3,20.5,22.1s0,11.8,0,18.9C445.7,185.2,439.5,200.3,423.6,200.3h-36.4"/>
			</g>
		</g>
	</g>
</g>
<g id="Save">
	<path fill="none" stroke="#00FFFF" stroke-width="1.4173" d="M92.64,167.83v50.21c0,1.23,0.99,2.22,2.22,2.22h15.19
		c1.23,0,2.22-0.99,2.22-2.22v-41.61h21.14c1.23,0,2.22-0.99,2.22-2.22v-12.31c0-1.23-0.99-2.22-2.22-2.22H102.3
		c-5.5,0-9.97-4.46-9.97-9.97v-30.04c0-1.23,0.99-2.22,2.22-2.22h43.11c1.23,0,2.22,0.99,2.22,2.22v13.89
		c0,1.23-0.99,2.22-2.22,2.22H114.8c-1.23,0-2.22,0.99-2.22,2.22v9.04"/>
	<path fill="none" stroke="#00FFFF" stroke-width="1.4173" d="M178.25,178.03l-19.6,39.2c-0.69,1.38,0.31,3,1.85,3l15.37,0.02
		c0.78,0,1.49-0.43,1.85-1.12l13.15-25.48c3.36-6.54,2.83-9.61-0.76-16.79c-3.09-6.28-23.46-45.74-29-56.39l0,0
		c-0.72-1.38,0.28-3.03,1.84-3.03h14.93c0.78,0,1.49,0.44,1.85,1.13l13.42,26.27c0.77,1.51,2.94,1.51,3.7-0.01l13.21-26.25
		c0.35-0.7,1.07-1.14,1.85-1.14h15.15c1.55,0,2.56,1.64,1.84,3.02l-23.53,45.6c-0.33,0.64-0.32,1.4,0.01,2.03l26.28,49.42
		c0.73,1.38-0.27,3.05-1.83,3.05h-16c-0.78,0-1.49-0.43-1.84-1.13l-11.41-22.18 M177.1,220.34
		C177.1,220.34,177.1,220.34,177.1,220.34L177.1,220.34z M204.8,167.18L204.8,167.18C204.8,167.18,204.8,167.18,204.8,167.18z
		 M204.73,166.87l0.02,0.03C204.75,166.89,204.74,166.88,204.73,166.87z"/>
	<path fill="none" stroke="#FF00FF" stroke-width="1.4173" d="M269.68,189.06l-0.1-69.1c0-1.22-0.99-2.21-2.21-2.21h-14.79
		c-1.22,0-2.21,0.99-2.21,2.21v72.4c0,8.22,4.16,8.91,8.06,8.91h33.35c1.22,0,2.21,0.99,2.21,2.21v14.87c0,1.22-0.99,2.21-2.21,2.21
		h-41.57"/>
	<path fill="none" stroke="#FF00FF" stroke-width="1.4173" d="M340.71,198.07h8.3c1.07,0,1.99,0.77,2.19,1.83l1.04,5.74
		c0,0,1.69,8.9,2.44,12.81c0.2,1.05,1.12,1.8,2.19,1.8l14.36-0.02c1.43,0,2.49-1.33,2.16-2.73c-2.1-8.79-8.56-35.86-8.56-35.86
		l-15.03-62.2c-0.24-1-1.13-1.7-2.16-1.7h-16.9c-1.03,0-1.92,0.71-2.16,1.71l-23.43,98.05c-0.33,1.4,0.72,2.74,2.16,2.74l14.6,0.01
		c1.07,0,1.99-0.77,2.19-1.82l5.3-28.9c0.91-5.23,2.58-7.96,9.01-8.09l1.41-0.01l4.93-0.05c1.38-0.01,2.41-1.27,2.16-2.63
		l-5.44-29.21c-0.45-2.42-3.92-2.42-4.37,0l-3.73,20.15 M339.1,136.85c0,0,0,0.01,0,0.01L339.1,136.85z M339.46,136.73l-0.01,0.07
		C339.46,136.78,339.46,136.76,339.46,136.73z"/>
	<path fill="none" stroke="#FF00FF" stroke-width="1.4173" d="M408.82,154.38c-4.7-3.3-6.25-8.8-3.87-13.7
		c2.23-4.45,6.96-6.4,11.28-4.64c3.74,1.49,5.6,5.21,6.65,8.62c0.37,1.2,1.72,1.78,2.85,1.25l10.81-5.07
		c0.93-0.44,1.42-1.5,1.11-2.47c-4.26-13.32-13.26-20.62-25.5-20.62c-8.14,0-15.99,3.59-21.02,9.6c-3.29,3.99-6.86,10.8-5.1,20.48
		c2.63,14.63,14.45,17.23,26.97,19.99c4.36,0.96,8.94,2.07,13.05,3.74c8.21,3.33,13.32,11.16,13.67,20.94
		c0.34,10.81-5.23,20.88-13.86,25.08c-4.04,1.9-9.53,2.98-15.09,2.98c-20.85,0-24.36-14.97-26.89-21.56
		c-0.02-0.05-0.04-0.1-0.05-0.15l-0.85-2.94c-0.29-1.02,0.23-2.1,1.22-2.5l12.14-4.9c1.18-0.47,2.5,0.21,2.79,1.44l0,0
		c1.12,4.67,3.1,10.23,8.59,11.82c3.17,0.91,6.08,0.44,8.39-1.35c2.51-1.89,4-5.05,4-8.5c0-6.52-3.88-9.3-7.69-11.15 M423.55,147.18
		c0,0.01,0,0.02,0.01,0.02C423.56,147.2,423.55,147.19,423.55,147.18z"/>
	<path fill="none" stroke="#FF00FF" stroke-width="1.4173" d="M476.73,189.16v10.85c0,1.23,0.99,2.22,2.22,2.22h25.85
		c1.23,0,2.22,0.99,2.22,2.22v13.89c0,1.23-0.99,2.22-2.22,2.22h-46c-1.23,0-2.22-0.99-2.22-2.22V186.6
		c0-5.66,4.57-10.18,10.18-10.18h30.58c1.23,0,2.22-0.99,2.22-2.22v-12.31c0-1.23-0.99-2.22-2.22-2.22h-18.7
		c-1.23,0-2.22-0.99-2.22-2.22v-19.76c0-1.23,0.99-2.22,2.22-2.22h25.85c1.23,0,2.22-0.99,2.22-2.22v-13.27
		c0-1.23-0.99-2.22-2.22-2.22h-45.38c-1.23,0-2.22,0.99-2.22,2.22v48.61"/>
	<path fill="none" stroke="#FF00FF" stroke-width="1.4173" d="M543.08,151.94v-16.06c0-1.23,0.99-2.22,2.22-2.22h2.73
		c9.21,0,10.39,8.01,10.39,14.98c0,13.4-3.65,15.94-10.39,15.94h-21.73c-1.23,0-2.22,0.99-2.22,2.22v51.24
		c0,1.23,0.99,2.22,2.22,2.22h14.55c1.23,0,2.22-0.99,2.22-2.22l0-33.42c0-1.23,0.99-2.22,2.22-2.22h3.26c1,0,1.88,0.67,2.15,1.64
		l9.3,34.57c0.26,0.97,1.14,1.64,2.15,1.64h15.74c1.51,0,2.58-1.48,2.11-2.92l-12.69-38.56l0.9-0.9c0.14-0.14,0.33-0.28,0.53-0.42
		c0,0-0.01,0.01-0.02,0.02l0.07-0.05c6.2-5.1,9.91-15.27,9.91-27.2c0-9.12-2-16.78-5.95-22.75c-6.2-9.74-16.04-9.74-24.72-9.74
		h-21.73c-1.23,0-2.22,0.99-2.22,2.22v34.53 M581.06,220.54c0.01,0.03,0.02,0.07,0.03,0.11L581.06,220.54z M560.49,220.4
		L560.49,220.4C560.49,220.4,560.49,220.4,560.49,220.4z"/>
	<path fill="none" stroke="#00FFFF" stroke-width="1.4173" d="M25.29,214.21c-1.28-1.54-1.97-2.8-2.29-3.3
		c-5.49-9.61-8.11-23.34-8.11-42.68c0-35.37,9.81-52.18,30.4-52.18c23.89,0,30.02,24.28,30.02,54.05c0,24.5-6.13,51.8-23.31,51.85
		h-0.21c-11.68-0.05-13.6-8.46-14.61-12.85l-0.16-0.77c-1.44-5.99-1.28-21.64-1.17-31.97c0-1.15,0.05-5.11,0.05-5.93
		c0-13.07,0.27-24.33,2.03-29.39c1.71-4.89,4.11-6.54,6.93-6.54c3.84,0,5.97,1.54,7.57,6.65c1.92,6.21,1.87,20.65,1.87,27.19
		c0,2.64,0,19.83-1.12,26.7c-0.64,4.01-1.71,7.09-4.37,8.46"/>
</g>
</svg>
