<?xml version="1.0" encoding="UTF-8" standalone="no"?>
<svg
   xmlns:dc="http://purl.org/dc/elements/1.1/"
   xmlns:cc="http://creativecommons.org/ns#"
   xmlns:rdf="http://www.w3.org/1999/02/22-rdf-syntax-ns#"
   xmlns:svg="http://www.w3.org/2000/svg"
   xmlns="http://www.w3.org/2000/svg"
   version="1.2"
   x="0px"
   y="0px"
   width="595.3px"
   height="841.9px"
   viewBox="0 0 595.3 841.9"
   xml:space="preserve"
   id="svg951"><metadata
   id="metadata957"><rdf:RDF><cc:Work
       rdf:about=""><dc:format>image/svg+xml</dc:format><dc:type
         rdf:resource="http://purl.org/dc/dcmitype/StillImage" /><dc:title></dc:title></cc:Work></rdf:RDF></metadata><defs
   id="defs955" />
<g
   id="Layer_1">
	<g
   id="Layer_2_1_"
   display="none">
		
			<path
   display="inline"
   fill="none"
   stroke="#FFFFFF"
   stroke-width="26"
   stroke-linecap="round"
   stroke-linejoin="round"
   stroke-miterlimit="10"
   d="    M187.5,160.2c0-9.5-6.8-27.8-29.3-28.1c-1,0-6.9,0-8.3,0c-17.1,0-28.5,15.9-28.7,27.6c0,0.4,0,4.4,0.1,4.8    c0.4,18.9,13.1,28.4,33.2,37.5c24.2,10.9,33.3,21.4,33.4,36.1c0,1.1,0,5.1,0,7.4c0,10.6-10.5,26.5-29.7,26.5c-0.2,0-8.2,0-8.4,0    c-19.2,0-28.7-17.9-28.7-27.5"
   id="path913" />
		<g
   display="inline"
   id="g919">
			
				<polyline
   fill="none"
   stroke="#FFFFFF"
   stroke-width="26"
   stroke-linecap="round"
   stroke-linejoin="round"
   stroke-miterlimit="10"
   points="     321.1,132.4 254.2,132.4 254.2,271.5 321.1,271.5    "
   id="polyline915" />
			
				<line
   fill="none"
   stroke="#FFFFFF"
   stroke-width="26"
   stroke-linecap="round"
   stroke-linejoin="round"
   stroke-miterlimit="10"
   x1="254.2"
   y1="200.3"
   x2="296.6"
   y2="200.3"
   id="line917" />
		</g>
		<g
   display="inline"
   id="g925">
			
				<polyline
   fill="none"
   stroke="#FFFFFF"
   stroke-width="26"
   stroke-linecap="round"
   stroke-linejoin="round"
   stroke-miterlimit="10"
   points="     320.1,342 253.2,342 253.2,481.1 320.1,481.1    "
   id="polyline921" />
			
				<line
   fill="none"
   stroke="#FFFFFF"
   stroke-width="26"
   stroke-linecap="round"
   stroke-linejoin="round"
   stroke-miterlimit="10"
   x1="253.2"
   y1="409.9"
   x2="295.6"
   y2="409.9"
   id="line923" />
		</g>
		<g
   display="inline"
   id="g931">
			
				<polyline
   fill="none"
   stroke="#FFFFFF"
   stroke-width="26"
   stroke-linecap="round"
   stroke-linejoin="round"
   stroke-miterlimit="10"
   points="     453.1,342 386.2,342 386.2,481.1 453.1,481.1    "
   id="polyline927" />
			
				<line
   fill="none"
   stroke="#FFFFFF"
   stroke-width="26"
   stroke-linecap="round"
   stroke-linejoin="round"
   stroke-miterlimit="10"
   x1="386.2"
   y1="409.9"
   x2="428.6"
   y2="409.9"
   id="line929" />
		</g>
		
			<polyline
   display="inline"
   fill="none"
   stroke="#FFFFFF"
   stroke-width="26"
   stroke-linecap="round"
   stroke-linejoin="round"
   stroke-miterlimit="10"
   points="    130.2,342 130.2,481.1 197.1,481.1   "
   id="polyline933" />
		<g
   display="inline"
   id="g937">
			
				<path
   fill="none"
   stroke="#FFFFFF"
   stroke-width="26"
   stroke-linecap="round"
   stroke-linejoin="round"
   stroke-miterlimit="10"
   d="     M423.6,200.3c1.9,0,2.6,0,4.6,0c15.7,0,25.8,10.4,25.8,30.9c0,11.9,0,5.3,0,16.8s-13.5,23.5-27.9,23.5h-38.9V132.4h37.9     c13.3,0,20.5,15.3,20.5,22.1s0,11.8,0,18.9C445.7,185.2,439.5,200.3,423.6,200.3h-36.4"
   id="path935" />
		</g>
	</g>
</g>
<g
   id="Layer_2">
	<g
   id="Airport_2">
		<g
   id="g947">
			<g
   id="g945">
				<path
   fill="none"
   stroke="#FF0000"
   stroke-width="5.6693"
   stroke-miterlimit="10"
   d="M507.3,453.2c0,34.8-28.3,63.1-63.1,63.1      H169.8c-34.8,0-63.1-28.3-63.1-63.1V179c0-34.9,28.3-63.3,63.1-63.3h274.4c34.8,0,63.1,28.3,63.1,63.3V453.2z"
   id="path941" />
				<path
   fill="none"
   stroke="#00FFFF"
   stroke-width="5.6693"
   stroke-miterlimit="10"
   d="M282,250.8c0,0-2.8-101.6,25.5-101.6      c28.4,0,26.7,103.1,26.7,103.1L461.4,360l5.4,33.7l-134.3-80.1l-10.2,115.1l37.5,42.3l1,12.9l-52.3-12.6l-54.4,12.6l1.2-12.9      l41-42.3l-13.6-115.1l-134.9,72l5.9-25.6L282,250.8z"
   id="path943" />
			</g>
		</g>
	</g>
</g>
</svg>
