<?xml version="1.0" encoding="UTF-8" standalone="no"?>
<!-- Created with Keyshape -->
<svg xmlns="http://www.w3.org/2000/svg" id="EdithAnim11" image-rendering="inherit" baseProfile="basic" width="800" height="600">
    <g id="19_Motorbikesf22r1" overflow="visible" transform="translate(171.905,348.896) translate(-164.375,-341.896)">
        <g id="MotorBikeBluef0r1" transform="translate(206.739,280.639) translate(-206.739,-280.639)">
            <path fill="#000" stroke="none" d="M272.6,274.55L271.95,273.7L265.2,278.9L275.35,286.9L276.9,289.3C279.85,287.462,282.317,285.912,284.3,284.65L283.25,283.1L272.6,274.55M246.5,239.5C245.6,241.967,240.35,241.85,230.75,239.15L231.75,243.95C236.317,247.883,242.733,248.8,251,246.7L252.1,238.85L248.1,234C247.833,233.967,247.583,233.933,247.35,233.9L246.5,239.5M272.8,224.1C261.633,215.233,253.667,210.067,248.9,208.6C245.2,207.467,242.733,207.483,241.5,208.65C241.2,208.95,240.733,209.617,240.1,210.65C239.5,211.683,238.883,212.483,238.25,213.05C238.417,215.783,239.133,217.983,240.4,219.65C241.333,220.85,243.6,223.233,247.2,226.8C247.689,227.303,249.039,228.92,251.25,231.65C251.285,231.673,251.302,231.69,251.3,231.7C254.423,235.493,259.19,241.393,265.6,249.4C275,261.167,280.433,267.25,281.9,267.65C284.367,268.35,287.833,268.483,292.3,268.05C297.4,267.583,300.333,266.417,301.1,264.55C301.9,262.617,301.8,260.333,300.8,257.7C300.067,255.733,298,251.733,294.6,245.7C291.667,240.5,284.4,233.3,272.8,224.1Z" test="BlueBikeContainer" transform="translate(266.192,248.531) translate(-266.192,-248.531)"/>
            <path id="Layer2_0_1_STROKES" stroke="#0FF" stroke-width="1" stroke-linejoin="round" stroke-linecap="round" fill="none" d="M238.25,213.05C238.883,212.483,239.5,211.683,240.1,210.65C240.733,209.617,241.2,208.95,241.5,208.65C242.733,207.483,245.2,207.467,248.9,208.6C253.667,210.067,261.633,215.233,272.8,224.1C284.4,233.3,291.667,240.5,294.6,245.7C298,251.733,300.067,255.733,300.8,257.7C301.8,260.333,301.9,262.617,301.1,264.55C300.333,266.417,297.4,267.583,292.3,268.05C287.833,268.483,284.367,268.35,281.9,267.65C280.433,267.25,275,261.167,265.6,249.4C259.19,241.393,254.432,235.501,251.325,231.725C251.31,231.698,251.294,231.673,251.275,231.65C249.047,228.92,247.689,227.303,247.2,226.8C243.6,223.233,241.333,220.85,240.4,219.65C239.133,217.983,238.417,215.783,238.25,213.05Z" test="BlueBikeContainer" transform="translate(269.942,238.03) translate(-269.942,-238.03)"/>
            <path id="Layer2_0_2_STROKES" stroke="#009EFF" stroke-width="1" stroke-linejoin="round" stroke-linecap="round" fill="none" d="M247.35,233.9C241.717,233.5,236,233.15,230.2,232.85C217.7,232.25,210.883,232.3,209.75,233C208.55,233.667,207.7,234.833,207.2,236.5C206.967,237.333,206.733,238.85,206.5,241.05C206.333,242.55,205.667,244.817,204.5,247.85C203.267,250.917,202.317,252.667,201.65,253.1C201.422,253.263,200.33,253.205,198.375,252.925C198.334,252.915,198.293,252.907,198.25,252.9L198.05,255.4C197.883,257.4,197.7,259.25,197.5,260.95C187.367,262.883,175.05,261.967,160.55,258.2C146.05,254.4,137.75,251.533,135.65,249.6C133.55,247.667,132.417,245.117,132.25,241.95C132.183,240.983,132.317,239.2,132.65,236.6C132.683,236.4,133.2,235.683,134.2,234.45C135.233,233.183,135.8,232.3,135.9,231.8C135.917,231.735,135.925,231.677,135.925,231.625C135.968,230.864,134.826,230.856,132.5,231.6C129.2,232.6,121.4,234.167,109.1,236.3C102.933,237.333,97.1,238.283,91.6,239.15C91.1667,246.95,90.8333,250.85,90.6,250.85C90.3667,250.85,95.75,252.9,106.75,257C117.017,261.233,122.233,263.383,122.4,263.45C131.533,267.55,137.183,270.9,139.35,273.5C141.15,275.667,142.783,277.717,144.25,279.65C144.417,279.883,144.6,280.117,144.8,280.35C146.067,282.05,147.2,283.65,148.2,285.15C150,287.85,151.517,290.45,152.75,292.95C153.117,293.65,153.45,294.35,153.75,295.05C154.45,296.617,155.033,298.133,155.5,299.6C157.567,306.233,159.167,315.5,160.3,327.4C160.3,327.833,173.3,327.733,199.3,327.1C212.267,326.8,225.25,326.45,238.25,326.05C238.017,324.617,237.95,322.8,238.05,320.6C238.217,316.2,239.083,312.067,240.65,308.2C242.317,304.1,245.4,299.367,249.9,294C253,290.333,256.217,286.933,259.55,283.8C259.65,283.667,259.767,283.55,259.9,283.45C261.167,282.283,262.933,280.767,265.2,278.9L271.95,273.7L275.35,271.1C269.782,263.303,265.257,256.978,261.775,252.125C261.759,252.1,261.742,252.075,261.725,252.05C257.056,245.565,254.265,241.732,253.35,240.55L252.35,239.2M248.1,234C248.233,234,248.383,234,248.55,234L252.1,238.85M248.1,234C247.833,233.967,247.583,233.933,247.35,233.9M135.9,231.8C141.3,234.9,146.567,237.667,151.7,240.1C160.233,244.233,167.05,246.85,172.15,247.95L198.4,252.4M152.75,280.15L154.6,282.45C156.367,284.817,157.983,287.3,159.45,289.9C164.217,298.267,166.667,306.317,166.8,314.05C166.933,321.783,167.1,325.367,167.3,324.8L167.5,321.6L202.55,321.95C203.117,319.883,203.5,317.467,203.7,314.7C204.1,309.167,203.317,304.35,201.35,300.25C199.35,296.117,195.683,292.65,190.35,289.85C184.983,287.05,179.533,285.4,174,284.9C168.433,284.367,163.017,283.367,157.75,281.9L152.75,280.15Z" test="BlueBikeContainer" transform="translate(182.971,279.356) translate(-182.971,-279.356)"/>
            <path id="Layer2_0_3_STROKES" stroke="#FFF" stroke-width="1" stroke-linejoin="round" stroke-linecap="round" fill="none" d="M252.35,239.2L252.1,238.85L251,246.7C242.733,248.8,236.317,247.883,231.75,243.95L230.75,239.15C240.35,241.85,245.6,241.967,246.5,239.5L247.35,233.9L247.55,233.3L248.1,234L252.1,238.85M283.25,283.1L272.6,274.55M265.2,278.9L275.35,286.9" test="BlueBikeContainer" transform="translate(257,260.1) translate(-257,-260.1)"/>
            <g transform="translate(301.514,314.833) translate(-0.0138617,-0.0332677)">
                <g id="Bike-Wheel-2" overflow="visible" transform="translate(0.0138617,0.0332677) translate(-0.0138617,-0.0332677)">
                    <path id="Layer4_0_1_STROKES-2" stroke="#FFF" stroke-width="1" stroke-linejoin="round" stroke-linecap="round" fill="none" d="M2.05,-34.85C-7.55,-34.85,-15.7833,-32.05,-22.65,-26.45C-30.2167,-20.2833,-34.2333,-11.9833,-34.7,-1.55C-35.1667,9.01667,-32.4667,17.7333,-26.6,24.6C-21.1333,31,-14.1333,34.4167,-5.6,34.85C2.9,35.2833,11.1667,33.6,19.2,29.8C27.2333,26,32.1833,18.4833,34.05,7.25C35.9167,-4.01667,34.2,-13.4833,28.9,-21.15C22.5667,-30.2833,13.6167,-34.85,2.05,-34.85Z" test="Bike Wheel" transform="translate(0.0138617,0.0332677) translate(-0.0138617,-0.0332677)"/>
                    <path id="Layer3_0_1_STROKES-2" stroke="#FFF" stroke-width="1" stroke-linejoin="round" stroke-linecap="round" fill="none" d="M0.55,-26.55C3.28333,-26.75,5.46667,-26.6167,7.1,-26.15C8.86667,-25.65,10.5,-24.65,12,-23.15C13.3,-21.8833,11.9667,-19.2833,8,-15.35C6.2,-13.5167,4.28333,-11.8,2.25,-10.2C2.05,-10.0667,1.86667,-9.93333,1.7,-9.8M24.45,-8.9C25.6167,-6.4,26.2833,-4.31667,26.45,-2.65C26.6167,-0.816667,26.2667,1.08333,25.4,3.05C24.7,4.68333,21.8,4.36667,16.7,2.1C14.3667,1.1,12.0833,-0.0666667,9.85,-1.4C9.61667,-1.53333,9.41667,-1.65,9.25,-1.75M18.45,20C16.65,22.0667,15.0167,23.5167,13.55,24.35C11.9833,25.2833,10.1333,25.75,8,25.75C6.2,25.75,5.28333,22.9667,5.25,17.4C5.21667,14.8333,5.35,12.2667,5.65,9.7C5.68333,9.46667,5.71667,9.23333,5.75,9M-25.15,-7.15C-24.55,-9.85,-23.7833,-11.9,-22.85,-13.3C-21.8833,-14.8333,-20.4667,-16.1,-18.6,-17.1C-17,-18,-14.8833,-15.9833,-12.25,-11.05C-11.0167,-8.78333,-9.93333,-6.46667,-9,-4.1C-8.93333,-3.83333,-8.85,-3.6,-8.75,-3.4M-12.85,23.8C-15.45,22.8667,-17.4,21.8667,-18.7,20.8C-20.1333,19.6333,-21.25,18.0667,-22.05,16.1C-22.75,14.4333,-20.5,12.5833,-15.3,10.55C-12.9333,9.55,-10.5,8.71667,-8,8.05C-7.76667,8.01667,-7.53333,7.98333,-7.3,7.95" test="Bike Wheel" transform="translate(0.670161,-0.445) translate(-0.670161,0.445)"/>
                </g>
            </g>
            <g transform="translate(111.964,318.633) translate(-0.0138617,-0.0332677)">
                <g id="Bike-Wheel-3" overflow="visible" transform="translate(0.0138617,0.0332677) translate(-0.0138617,-0.0332677)">
                    <path id="Layer4_0_1_STROKES-3" stroke="#FFF" stroke-width="1" stroke-linejoin="round" stroke-linecap="round" fill="none" d="M2.05,-34.85C-7.55,-34.85,-15.7833,-32.05,-22.65,-26.45C-30.2167,-20.2833,-34.2333,-11.9833,-34.7,-1.55C-35.1667,9.01667,-32.4667,17.7333,-26.6,24.6C-21.1333,31,-14.1333,34.4167,-5.6,34.85C2.9,35.2833,11.1667,33.6,19.2,29.8C27.2333,26,32.1833,18.4833,34.05,7.25C35.9167,-4.01667,34.2,-13.4833,28.9,-21.15C22.5667,-30.2833,13.6167,-34.85,2.05,-34.85Z" test="Bike Wheel" transform="translate(0.0138617,0.0332677) translate(-0.0138617,-0.0332677)"/>
                    <path id="Layer3_0_1_STROKES-3" stroke="#FFF" stroke-width="1" stroke-linejoin="round" stroke-linecap="round" fill="none" d="M0.55,-26.55C3.28333,-26.75,5.46667,-26.6167,7.1,-26.15C8.86667,-25.65,10.5,-24.65,12,-23.15C13.3,-21.8833,11.9667,-19.2833,8,-15.35C6.2,-13.5167,4.28333,-11.8,2.25,-10.2C2.05,-10.0667,1.86667,-9.93333,1.7,-9.8M24.45,-8.9C25.6167,-6.4,26.2833,-4.31667,26.45,-2.65C26.6167,-0.816667,26.2667,1.08333,25.4,3.05C24.7,4.68333,21.8,4.36667,16.7,2.1C14.3667,1.1,12.0833,-0.0666667,9.85,-1.4C9.61667,-1.53333,9.41667,-1.65,9.25,-1.75M18.45,20C16.65,22.0667,15.0167,23.5167,13.55,24.35C11.9833,25.2833,10.1333,25.75,8,25.75C6.2,25.75,5.28333,22.9667,5.25,17.4C5.21667,14.8333,5.35,12.2667,5.65,9.7C5.68333,9.46667,5.71667,9.23333,5.75,9M-25.15,-7.15C-24.55,-9.85,-23.7833,-11.9,-22.85,-13.3C-21.8833,-14.8333,-20.4667,-16.1,-18.6,-17.1C-17,-18,-14.8833,-15.9833,-12.25,-11.05C-11.0167,-8.78333,-9.93333,-6.46667,-9,-4.1C-8.93333,-3.83333,-8.85,-3.6,-8.75,-3.4M-12.85,23.8C-15.45,22.8667,-17.4,21.8667,-18.7,20.8C-20.1333,19.6333,-21.25,18.0667,-22.05,16.1C-22.75,14.4333,-20.5,12.5833,-15.3,10.55C-12.9333,9.55,-10.5,8.71667,-8,8.05C-7.76667,8.01667,-7.53333,7.98333,-7.3,7.95" test="Bike Wheel" transform="translate(0.670161,-0.445) translate(-0.670161,0.445)"/>
                </g>
            </g>
        </g>
        <g id="MotorBikePinkf0r1" transform="translate(148.967,387.995) translate(-148.967,-387.995)">
            <path fill="#000" stroke="none" d="M59.004,341.261C59.2053,344.42,60.5743,347.501,63.111,350.502C65.6477,352.837,75.674,356.3,93.19,360.891C110.706,365.441,125.585,366.548,137.826,364.213C138.067,362.159,138.289,359.924,138.49,357.508L138.732,354.488C138.783,354.496,138.824,354.496,138.853,354.488L138.913,353.884L107.203,348.509C101.042,347.18,92.808,344.019,82.5,339.026C76.2987,336.087,69.9363,332.745,63.413,329C63.2923,329.604,62.608,330.671,61.36,332.201C60.152,333.691,59.5277,334.557,59.487,334.798C59.0843,337.939,58.9233,340.093,59.004,341.261M228.547,380.642L227.762,379.615L219.608,385.896L231.869,395.56L233.741,398.46C237.305,396.239,240.285,394.367,242.68,392.842L241.412,390.97L228.547,380.642M197.018,338.301C195.931,341.281,189.589,341.14,177.992,337.878L179.2,343.677C184.717,348.428,192.468,349.203,202.454,346L203.783,337.516L198.951,331.657C198.629,331.617,198.327,331.577,198.045,331.536L197.018,338.301M177.992,337.878C189.589,341.14,195.931,341.281,197.018,338.301L198.045,331.536C191.24,331.053,184.334,330.631,177.328,330.268C162.228,329.543,153.993,329.604,152.624,330.449C151.175,331.254,150.148,332.664,149.544,334.677C149.262,335.684,148.98,337.516,148.698,340.174C148.497,341.986,147.691,344.724,146.282,348.388C144.792,352.093,143.644,354.207,142.839,354.73C142.564,354.927,141.235,354.847,138.853,354.488C138.824,354.496,138.783,354.496,138.732,354.488L138.49,357.508C138.289,359.924,138.067,362.159,137.826,364.213C125.585,366.548,110.706,365.441,93.19,360.891C75.674,356.3,65.6477,352.837,63.111,350.502C60.5743,347.501,59.2053,344.42,59.004,341.261C58.9233,340.093,59.0843,337.939,59.487,334.798C59.5277,334.557,60.152,333.691,61.36,332.201C62.608,330.671,63.2923,329.604,63.413,329C63.433,328.921,63.433,328.841,63.413,328.758C63.485,327.859,62.116,327.859,59.306,328.758C55.3193,329.966,45.897,331.859,31.039,334.436C23.5897,335.684,16.543,336.831,9.899,337.878C9.37567,347.301,8.973,352.012,8.691,352.012C8.409,352.012,14.912,354.488,28.2,359.441C40.602,364.555,46.9037,367.152,47.105,367.233C58.1383,372.186,64.9637,376.232,67.581,379.373C69.755,381.99,71.728,384.467,73.5,386.802C73.7013,387.084,73.9227,387.366,74.164,387.648C75.2533,389.108,76.26,390.497,77.184,391.816C77.2393,391.914,77.2797,391.994,77.305,392.057C77.6517,392.535,77.974,392.998,78.272,393.446C80.446,396.708,82.278,399.849,83.768,402.869C84.2107,403.714,84.6133,404.56,84.976,405.406C85.8213,407.298,86.526,409.13,87.09,410.902C89.5867,418.915,91.5193,430.109,92.888,444.484C92.888,444.703,95.6463,444.804,101.163,444.786C101.214,444.807,101.254,444.807,101.284,444.786C108.97,444.785,121.875,444.563,140,444.122C141.309,444.091,142.617,444.051,143.926,444.001C158.285,443.678,172.66,443.296,187.052,442.854C186.77,441.122,186.689,438.927,186.81,436.27C187.011,430.955,188.058,425.962,189.951,421.291C191.964,416.338,195.689,410.62,201.125,404.137C204.87,399.708,208.755,395.601,212.782,391.816C212.903,391.655,213.044,391.514,213.205,391.393C214.735,389.984,216.869,388.151,219.608,385.896L227.762,379.615L231.869,376.474C225.143,367.055,219.667,359.404,215.44,353.522C215.441,353.511,215.421,353.491,215.38,353.462C209.76,345.628,206.398,340.997,205.293,339.57L204.085,337.939L203.783,337.516L202.454,346C192.468,349.203,184.717,348.428,179.2,343.677L177.992,337.878M129.189,399.124C135.632,402.507,140.061,406.694,142.477,411.687C144.852,416.64,145.799,422.458,145.316,429.143C145.074,432.485,144.611,435.404,143.926,437.901L101.586,437.478L101.344,441.344C101.103,442.028,100.901,437.699,100.74,428.358C100.579,419.016,97.62,409.291,91.862,399.184C90.09,396.043,88.137,393.044,86.003,390.185L83.647,387.286L89.808,389.52C96.17,391.292,102.713,392.5,109.438,393.144C116.122,393.748,122.706,395.741,129.189,399.124M142.477,411.687C140.061,406.694,135.632,402.507,129.189,399.124C122.706,395.741,116.122,393.748,109.438,393.144C102.713,392.5,96.17,391.292,89.808,389.52L83.647,387.286L86.003,390.185C88.137,393.044,90.09,396.043,91.862,399.184C97.62,409.291,100.579,419.016,100.74,428.358C100.901,437.699,101.103,442.028,101.344,441.344L101.586,437.478L143.926,437.901C144.611,435.404,145.074,432.485,145.316,429.143C145.799,422.458,144.852,416.64,142.477,411.687M228.788,319.698C215.299,308.987,205.675,302.746,199.917,300.974C195.448,299.605,192.468,299.625,190.978,301.034C190.615,301.397,190.052,302.202,189.287,303.45C188.562,304.699,187.817,305.665,187.052,306.35C187.253,309.651,188.119,312.309,189.649,314.322C190.776,315.772,193.515,318.651,197.864,322.96C198.454,323.568,200.085,325.521,202.756,328.818C202.799,328.847,202.819,328.867,202.816,328.879C206.589,333.46,212.348,340.587,220.091,350.26C231.446,364.475,238.01,371.823,239.781,372.306C242.761,373.152,246.949,373.313,252.344,372.79C258.505,372.226,262.049,370.817,262.975,368.562C263.941,366.226,263.82,363.468,262.612,360.287C261.727,357.911,259.23,353.079,255.123,345.791C251.58,339.509,242.801,330.811,228.788,319.698Z" test="RedBike container" stroke-width="1.208" transform="translate(136.151,372.382) translate(-136.151,-372.382)"/>
            <path id="Layer1_0_1_STROKES" stroke="#0FF" stroke-width="1.208" stroke-linejoin="round" stroke-linecap="round" fill="none" d="M187.052,306.35C187.817,305.665,188.562,304.699,189.287,303.45C190.052,302.202,190.615,301.397,190.978,301.034C192.468,299.625,195.448,299.605,199.917,300.974C205.675,302.746,215.299,308.987,228.788,319.698C242.801,330.811,251.58,339.509,255.123,345.791C259.23,353.079,261.727,357.911,262.612,360.287C263.82,363.468,263.941,366.226,262.975,368.562C262.049,370.817,258.505,372.226,252.344,372.79C246.949,373.313,242.761,373.152,239.781,372.306C238.01,371.823,231.446,364.475,220.091,350.26C212.348,340.587,206.6,333.47,202.847,328.909C202.829,328.877,202.809,328.847,202.786,328.818C200.095,325.521,198.454,323.568,197.864,322.96C193.515,318.651,190.776,315.772,189.649,314.322C188.119,312.309,187.253,309.651,187.052,306.35Z" test="RedBike container" transform="translate(225.335,336.526) translate(-225.335,-336.526)"/>
            <path id="Layer1_0_2_STROKES" stroke="#FFF" stroke-width="1.208" stroke-linejoin="round" stroke-linecap="round" fill="none" d="M203.783,337.516L202.454,346C192.468,349.203,184.717,348.428,179.2,343.677L177.992,337.878C189.589,341.14,195.931,341.281,197.018,338.301L198.045,331.536M204.085,337.939L203.783,337.516L198.951,331.657M198.045,331.536L198.286,330.812L198.951,331.657M241.412,390.97L228.547,380.642M219.608,385.896L231.869,395.56" test="RedBike container" transform="translate(209.702,363.186) translate(-209.702,-363.186)"/>
            <path id="Layer1_0_3_STROKES" stroke="#FF0265" stroke-width="1.208" stroke-linejoin="round" stroke-linecap="round" fill="none" d="M198.045,331.536C191.24,331.053,184.334,330.631,177.328,330.268C162.228,329.543,153.993,329.604,152.624,330.449C151.175,331.254,150.148,332.664,149.544,334.677C149.262,335.684,148.98,337.516,148.698,340.174C148.497,341.986,147.691,344.724,146.282,348.388C144.792,352.093,143.644,354.207,142.839,354.73C142.564,354.927,141.245,354.857,138.883,354.519C138.834,354.506,138.783,354.496,138.732,354.488L138.49,357.508C138.289,359.924,138.067,362.159,137.826,364.213C125.585,366.548,110.706,365.441,93.19,360.891C75.674,356.3,65.6477,352.837,63.111,350.502C60.5743,347.501,59.2053,344.42,59.004,341.261C58.9233,340.093,59.0843,337.939,59.487,334.798C59.5277,334.557,60.152,333.691,61.36,332.201C62.608,330.671,63.2923,329.604,63.413,329C63.433,328.921,63.443,328.851,63.443,328.788C63.495,327.869,62.116,327.859,59.306,328.758C55.3193,329.966,45.897,331.859,31.039,334.436C23.5897,335.684,16.543,336.831,9.899,337.878C9.37567,347.301,8.973,352.012,8.691,352.012C8.409,352.012,14.912,354.488,28.2,359.441C40.602,364.555,46.9037,367.152,47.105,367.233C58.1383,372.186,64.9637,376.232,67.581,379.373C69.755,381.99,71.728,384.467,73.5,386.802C73.7013,387.084,73.9227,387.366,74.164,387.648C75.2533,389.108,76.26,390.507,77.184,391.846C77.2393,391.924,77.2897,392.004,77.335,392.087C77.6617,392.545,77.974,392.998,78.272,393.446C80.446,396.708,82.278,399.849,83.768,402.869C84.2107,403.714,84.6133,404.56,84.976,405.406C85.8213,407.298,86.526,409.13,87.09,410.902C89.5867,418.915,91.5193,430.109,92.888,444.484C92.888,444.703,95.6463,444.814,101.163,444.817C101.214,444.817,101.264,444.817,101.314,444.817C108.98,444.795,121.875,444.563,140,444.122C141.309,444.091,142.617,444.061,143.926,444.031C158.285,443.688,172.66,443.296,187.052,442.854C186.77,441.122,186.689,438.927,186.81,436.27C187.011,430.955,188.058,425.962,189.951,421.291C191.964,416.338,195.689,410.62,201.125,404.137C204.87,399.708,208.755,395.601,212.782,391.816C212.903,391.655,213.044,391.514,213.205,391.393C214.735,389.984,216.869,388.151,219.608,385.896L227.762,379.615L231.869,376.474C225.143,367.055,219.677,359.414,215.47,353.552C215.451,353.521,215.431,353.491,215.41,353.462C209.77,345.628,206.398,340.997,205.293,339.57L204.085,337.939M198.045,331.536C198.327,331.577,198.629,331.617,198.951,331.657C199.112,331.657,199.293,331.657,199.494,331.657L203.783,337.516M63.413,329C69.9363,332.745,76.2987,336.087,82.5,339.026C92.808,344.019,101.042,347.18,107.203,348.509L138.913,353.884M86.003,390.185C88.137,393.044,90.09,396.043,91.862,399.184C97.62,409.291,100.579,419.016,100.74,428.358C100.901,437.699,101.103,442.028,101.344,441.344L101.586,437.478L143.926,437.901C144.611,435.404,145.074,432.485,145.316,429.143C145.799,422.458,144.852,416.64,142.477,411.687C140.061,406.694,135.632,402.507,129.189,399.124C122.706,395.741,116.122,393.748,109.438,393.144C102.713,392.5,96.17,391.292,89.808,389.52L83.677,387.286L86.003,390.185Z" test="RedBike container" transform="translate(120.276,386.454) translate(-120.276,-386.454)"/>
            <g transform="translate(263.467,429.29) scale(1.208,1.208) translate(-0.0138617,-0.0332677)">
                <g id="Bike-Wheel-4" overflow="visible" transform="translate(0.0138617,0.0332677) translate(-0.0138617,-0.0332677)">
                    <path id="Layer4_0_1_STROKES-4" stroke="#FFF" stroke-width="1" stroke-linejoin="round" stroke-linecap="round" fill="none" d="M2.05,-34.85C-7.55,-34.85,-15.7833,-32.05,-22.65,-26.45C-30.2167,-20.2833,-34.2333,-11.9833,-34.7,-1.55C-35.1667,9.01667,-32.4667,17.7333,-26.6,24.6C-21.1333,31,-14.1333,34.4167,-5.6,34.85C2.9,35.2833,11.1667,33.6,19.2,29.8C27.2333,26,32.1833,18.4833,34.05,7.25C35.9167,-4.01667,34.2,-13.4833,28.9,-21.15C22.5667,-30.2833,13.6167,-34.85,2.05,-34.85Z" test="Bike Wheel" transform="translate(0.0138617,0.0332677) translate(-0.0138617,-0.0332677)"/>
                    <path id="Layer3_0_1_STROKES-4" stroke="#FFF" stroke-width="1" stroke-linejoin="round" stroke-linecap="round" fill="none" d="M0.55,-26.55C3.28333,-26.75,5.46667,-26.6167,7.1,-26.15C8.86667,-25.65,10.5,-24.65,12,-23.15C13.3,-21.8833,11.9667,-19.2833,8,-15.35C6.2,-13.5167,4.28333,-11.8,2.25,-10.2C2.05,-10.0667,1.86667,-9.93333,1.7,-9.8M24.45,-8.9C25.6167,-6.4,26.2833,-4.31667,26.45,-2.65C26.6167,-0.816667,26.2667,1.08333,25.4,3.05C24.7,4.68333,21.8,4.36667,16.7,2.1C14.3667,1.1,12.0833,-0.0666667,9.85,-1.4C9.61667,-1.53333,9.41667,-1.65,9.25,-1.75M18.45,20C16.65,22.0667,15.0167,23.5167,13.55,24.35C11.9833,25.2833,10.1333,25.75,8,25.75C6.2,25.75,5.28333,22.9667,5.25,17.4C5.21667,14.8333,5.35,12.2667,5.65,9.7C5.68333,9.46667,5.71667,9.23333,5.75,9M-25.15,-7.15C-24.55,-9.85,-23.7833,-11.9,-22.85,-13.3C-21.8833,-14.8333,-20.4667,-16.1,-18.6,-17.1C-17,-18,-14.8833,-15.9833,-12.25,-11.05C-11.0167,-8.78333,-9.93333,-6.46667,-9,-4.1C-8.93333,-3.83333,-8.85,-3.6,-8.75,-3.4M-12.85,23.8C-15.45,22.8667,-17.4,21.8667,-18.7,20.8C-20.1333,19.6333,-21.25,18.0667,-22.05,16.1C-22.75,14.4333,-20.5,12.5833,-15.3,10.55C-12.9333,9.55,-10.5,8.71667,-8,8.05C-7.76667,8.01667,-7.53333,7.98333,-7.3,7.95" test="Bike Wheel" transform="translate(0.670161,-0.445) translate(-0.670161,0.445)"/>
                </g>
            </g>
            <g transform="translate(34.4667,433.89) scale(1.208,1.208) translate(-0.0138617,-0.0332677)">
                <g id="Bike-Wheel-5" overflow="visible" transform="translate(0.0138617,0.0332677) translate(-0.0138617,-0.0332677)">
                    <path id="Layer4_0_1_STROKES-5" stroke="#FFF" stroke-width="1" stroke-linejoin="round" stroke-linecap="round" fill="none" d="M2.05,-34.85C-7.55,-34.85,-15.7833,-32.05,-22.65,-26.45C-30.2167,-20.2833,-34.2333,-11.9833,-34.7,-1.55C-35.1667,9.01667,-32.4667,17.7333,-26.6,24.6C-21.1333,31,-14.1333,34.4167,-5.6,34.85C2.9,35.2833,11.1667,33.6,19.2,29.8C27.2333,26,32.1833,18.4833,34.05,7.25C35.9167,-4.01667,34.2,-13.4833,28.9,-21.15C22.5667,-30.2833,13.6167,-34.85,2.05,-34.85Z" test="Bike Wheel" transform="translate(0.0138617,0.0332677) translate(-0.0138617,-0.0332677)"/>
                    <path id="Layer3_0_1_STROKES-5" stroke="#FFF" stroke-width="1" stroke-linejoin="round" stroke-linecap="round" fill="none" d="M0.55,-26.55C3.28333,-26.75,5.46667,-26.6167,7.1,-26.15C8.86667,-25.65,10.5,-24.65,12,-23.15C13.3,-21.8833,11.9667,-19.2833,8,-15.35C6.2,-13.5167,4.28333,-11.8,2.25,-10.2C2.05,-10.0667,1.86667,-9.93333,1.7,-9.8M24.45,-8.9C25.6167,-6.4,26.2833,-4.31667,26.45,-2.65C26.6167,-0.816667,26.2667,1.08333,25.4,3.05C24.7,4.68333,21.8,4.36667,16.7,2.1C14.3667,1.1,12.0833,-0.0666667,9.85,-1.4C9.61667,-1.53333,9.41667,-1.65,9.25,-1.75M18.45,20C16.65,22.0667,15.0167,23.5167,13.55,24.35C11.9833,25.2833,10.1333,25.75,8,25.75C6.2,25.75,5.28333,22.9667,5.25,17.4C5.21667,14.8333,5.35,12.2667,5.65,9.7C5.68333,9.46667,5.71667,9.23333,5.75,9M-25.15,-7.15C-24.55,-9.85,-23.7833,-11.9,-22.85,-13.3C-21.8833,-14.8333,-20.4667,-16.1,-18.6,-17.1C-17,-18,-14.8833,-15.9833,-12.25,-11.05C-11.0167,-8.78333,-9.93333,-6.46667,-9,-4.1C-8.93333,-3.83333,-8.85,-3.6,-8.75,-3.4M-12.85,23.8C-15.45,22.8667,-17.4,21.8667,-18.7,20.8C-20.1333,19.6333,-21.25,18.0667,-22.05,16.1C-22.75,14.4333,-20.5,12.5833,-15.3,10.55C-12.9333,9.55,-10.5,8.71667,-8,8.05C-7.76667,8.01667,-7.53333,7.98333,-7.3,7.95" test="Bike Wheel" transform="translate(0.670161,-0.445) translate(-0.670161,0.445)"/>
                </g>
            </g>
        </g>
    </g>
</svg>
