<?xml version="1.0" encoding="utf-8"?>
<svg id="EdithAnim11" image-rendering="inherit" baseProfile="basic" version="1.1" x="0px" y="0px" width="800" height="600" xmlns="http://www.w3.org/2000/svg" xmlns:xlink="http://www.w3.org/1999/xlink">
  <defs>
    <g id="Bike-Wheel" overflow="visible">
      <path id="Layer4_0_1_STROKES" stroke="#FFF" stroke-width="1" stroke-linejoin="round" stroke-linecap="round" fill="none" d="M2.05 -34.85Q-12.35 -34.85 -22.65 -26.45 -34 -17.2 -34.7 -1.55 -35.4 14.3 -26.6 24.6 -18.4 34.2 -5.6 34.85 7.15 35.5 19.2 29.8 31.25 24.1 34.05 7.25 36.85 -9.65 28.9 -21.15 19.4 -34.85 2.05 -34.85Z" test="Bike Wheel"/>
      <path id="Layer3_0_1_STROKES" stroke="#FFF" stroke-width="1" stroke-linejoin="round" stroke-linecap="round" fill="none" d="M.55 -26.55Q4.65 -26.85 7.1 -26.15 9.75 -25.4 12 -23.15 13.95 -21.25 8 -15.35 5.3 -12.6 2.25 -10.2 1.95 -10 1.7 -9.8M24.45 -8.9Q26.2 -5.15 26.45 -2.65 26.7 .1 25.4 3.05 24.35 5.5 16.7 2.1 13.2 .6 9.85 -1.4 9.5 -1.6 9.25 -1.75M18.45 20Q15.75 23.1 13.55 24.35 11.2 25.75 8 25.75 5.3 25.75 5.25 17.4 5.2 13.55 5.65 9.7 5.7 9.35 5.75 9M-25.15 -7.15Q-24.25 -11.2 -22.85 -13.3 -21.4 -15.6 -18.6 -17.1 -16.2 -18.45 -12.25 -11.05 -10.4 -7.65 -9 -4.1 -8.9 -3.7 -8.75 -3.4M-12.85 23.8Q-16.75 22.4 -18.7 20.8 -20.85 19.05 -22.05 16.1 -23.1 13.6 -15.3 10.55 -11.75 9.05 -8 8.05 -7.65 8 -7.3 7.95" test="Bike Wheel"/>
    </g>
  </defs>
  <g id="19_Motorbikesf0r1" overflow="visible">
    <g id="MotorBikeBluef0r1">
      <path fill="#000" stroke="none" d="M-65.75,274.55 L-66.4,273.7 -73.15,278.9 -63,286.9 -61.45,289.3 Q-57.025,286.543 -54.05,284.65 L-55.1,283.1 -65.75,274.55 M-91.85,239.5 Q-93.2,243.2 -107.6,239.15 L-106.6,243.95 Q-99.75,249.85 -87.35,246.7 L-86.25,238.85 -90.25,234 Q-90.65,233.95 -91,233.9 L-91.85,239.5 M-65.55,224.1 Q-82.3,210.8 -89.45,208.6 -95,206.9 -96.85,208.65 -97.3,209.1 -98.25,210.65 -99.15,212.2 -100.1,213.05 -99.85,217.15 -97.95,219.65 -96.55,221.45 -91.15,226.8 -90.417,227.555 -87.1,231.65 -87.047,231.685 -87.05,231.7 -82.365,237.389 -72.75,249.4 -58.65,267.05 -56.45,267.65 -52.75,268.7 -46.05,268.05 -38.4,267.35 -37.25,264.55 -36.05,261.65 -37.55,257.7 -38.65,254.75 -43.75,245.7 -48.15,237.9 -65.55,224.1Z" test="BlueBikeContainer"/>
      <path id="Layer2_0_1_STROKES" stroke="#0FF" stroke-width="1" stroke-linejoin="round" stroke-linecap="round" fill="none" d="M-100.1,213.05 Q-99.15,212.2 -98.25,210.65 -97.3,209.1 -96.85,208.65 -95,206.9 -89.45,208.6 -82.3,210.8 -65.55,224.1 -48.15,237.9 -43.75,245.7 -38.65,254.75 -37.55,257.7 -36.05,261.65 -37.25,264.55 -38.4,267.35 -46.05,268.05 -52.75,268.7 -56.45,267.65 -58.65,267.05 -72.75,249.4 -82.365,237.389 -87.025,231.725 -87.047,231.685 -87.075,231.65 -90.417,227.555 -91.15,226.8 -96.55,221.45 -97.95,219.65 -99.85,217.15 -100.1,213.05Z" test="BlueBikeContainer"/>
      <path id="Layer2_0_2_STROKES" stroke="#009EFF" stroke-width="1" stroke-linejoin="round" stroke-linecap="round" fill="none" d="M-91,233.9 Q-99.45,233.3 -108.15,232.85 -126.9,231.95 -128.6,233 -130.4,234 -131.15,236.5 -131.5,237.75 -131.85,241.05 -132.1,243.3 -133.85,247.85 -135.7,252.45 -136.7,253.1 -137.042,253.345 -139.975,252.925 -140.036,252.91 -140.1,252.9 L-140.3,255.4 Q-140.55,258.4 -140.85,260.95 -156.05,263.85 -177.8,258.2 -199.55,252.5 -202.7,249.6 -205.85,246.7 -206.1,241.95 -206.2,240.5 -205.7,236.6 -205.65,236.3 -204.15,234.45 -202.6,232.55 -202.45,231.8 -202.425,231.703 -202.425,231.625 -202.361,230.484 -205.85,231.6 -210.8,233.1 -229.25,236.3 -238.5,237.85 -246.75,239.15 -247.4,250.85 -247.75,250.85 -248.1,250.85 -231.6,257 -216.2,263.35 -215.95,263.45 -202.25,269.6 -199,273.5 -196.3,276.75 -194.1,279.65 -193.85,280 -193.55,280.35 -191.65,282.9 -190.15,285.15 -187.45,289.2 -185.6,292.95 -185.05,294 -184.6,295.05 -183.55,297.4 -182.85,299.6 -179.75,309.55 -178.05,327.4 -178.05,328.05 -139.05,327.1 -119.6,326.65 -100.1,326.05 -100.45,323.9 -100.3,320.6 -100.05,314 -97.7,308.2 -95.2,302.05 -88.45,294 -83.8,288.5 -78.8,283.8 -78.65,283.6 -78.45,283.45 -76.55,281.7 -73.15,278.9 L-66.4,273.7 -63,271.1 Q-71.352,259.404 -76.575,252.125 -76.599,252.087 -76.625,252.05 -83.628,242.323 -85,240.55 L-86,239.2 M-90.25,234 Q-90.05,234 -89.8,234 L-86.25,238.85 M-90.25,234 Q-90.65,233.95 -91,233.9 M-202.45,231.8 Q-194.35,236.45 -186.65,240.1 -173.85,246.3 -166.2,247.95 L-139.95,252.4 M-185.6,280.15 L-183.75,282.45 Q-181.1,286 -178.9,289.9 -171.75,302.45 -171.55,314.05 -171.35,325.65 -171.05,324.8 L-170.85,321.6 -135.8,321.95 Q-134.95,318.85 -134.65,314.7 -134.05,306.4 -137,300.25 -140,294.05 -148,289.85 -156.05,285.65 -164.35,284.9 -172.7,284.1 -180.6,281.9 L-185.6,280.15Z" test="BlueBikeContainer"/>
      <path id="Layer2_0_3_STROKES" stroke="#FFF" stroke-width="1" stroke-linejoin="round" stroke-linecap="round" fill="none" d="M-86,239.2 L-86.25,238.85 -87.35,246.7 Q-99.75,249.85 -106.6,243.95 L-107.6,239.15 Q-93.2,243.2 -91.85,239.5 L-91,233.9 -90.8,233.3 -90.25,234 -86.25,238.85 M-55.1,283.1 L-65.75,274.55 M-73.15,278.9 L-63,286.9" test="BlueBikeContainer"/>
      <use xlink:href="#Bike-Wheel" transform="translate(-36.85 314.8)"/>
      <use xlink:href="#Bike-Wheel" transform="translate(-226.4 318.6)"/>
    </g>
    <g id="MotorBikePinkf0r1">
      <path fill="#000" stroke="none" d="M-345.146,341.311 Q-344.844,347.049 -341.039,350.552 -337.234,354.055 -310.96,360.941 -284.686,367.766 -266.324,364.263 -265.962,361.182 -265.66,357.558 L-265.418,354.538 Q-265.341,354.55 -265.297,354.538 L-265.237,353.934 -296.947,348.559 Q-306.188,346.566 -321.65,339.076 -330.952,334.667 -340.737,329.05 -340.918,329.956 -342.79,332.251 -344.602,334.486 -344.663,334.848 -345.267,339.559 -345.146,341.311 M-175.603,380.692 L-176.388,379.665 -184.542,385.946 -172.281,395.61 -170.409,398.51 Q-165.063,395.179 -161.47,392.892 L-162.738,391.02 -175.603,380.692 M-207.132,338.351 Q-208.763,342.821 -226.158,337.928 L-224.95,343.727 Q-216.675,350.854 -201.696,347.049 L-200.367,337.566 -205.199,331.707 Q-205.682,331.647 -206.105,331.586 L-207.132,338.351 M-226.158,337.928 Q-208.763,342.821 -207.132,338.351 L-206.105,331.586 Q-216.313,330.862 -226.822,330.318 -249.472,329.231 -251.526,330.499 -253.7,331.707 -254.606,334.727 -255.029,336.237 -255.452,340.224 -255.754,342.942 -257.868,348.438 -260.103,353.995 -261.311,354.78 -261.724,355.076 -265.297,354.538 -265.341,354.55 -265.418,354.538 L-265.66,357.558 Q-265.962,361.182 -266.324,364.263 -284.686,367.766 -310.96,360.941 -337.234,354.055 -341.039,350.552 -344.844,347.049 -345.146,341.311 -345.267,339.559 -344.663,334.848 -344.602,334.486 -342.79,332.251 -340.918,329.956 -340.737,329.05 -340.707,328.932 -340.737,328.808 -340.629,327.46 -344.844,328.808 -350.824,330.62 -373.111,334.486 -384.285,336.358 -394.251,337.928 -395.036,352.062 -395.459,352.062 -395.882,352.062 -375.95,359.491 -357.347,367.162 -357.045,367.283 -340.495,374.712 -336.569,379.423 -333.308,383.349 -330.65,386.852 -330.348,387.275 -329.986,387.698 -328.352,389.888 -326.966,391.866 -326.883,392.013 -326.845,392.107 -326.325,392.824 -325.878,393.496 -322.617,398.389 -320.382,402.919 -319.718,404.187 -319.174,405.456 -317.906,408.294 -317.06,410.952 -313.315,422.972 -311.262,444.534 -311.262,444.863 -302.987,444.836 -302.911,444.867 -302.866,444.836 -291.337,444.834 -264.15,444.172 -262.187,444.126 -260.224,444.051 -238.686,443.567 -217.098,442.904 -217.521,440.306 -217.34,436.32 -217.038,428.347 -214.199,421.341 -211.179,413.912 -203.025,404.187 -197.408,397.543 -191.368,391.866 -191.186,391.624 -190.945,391.443 -188.65,389.329 -184.542,385.946 L-176.388,379.665 -172.281,376.524 Q-182.37,362.395 -188.71,353.572 -188.709,353.556 -188.77,353.512 -197.2,341.761 -198.857,339.62 L-200.065,337.989 -200.367,337.566 -201.696,347.049 Q-216.675,350.854 -224.95,343.727 L-226.158,337.928 M-274.961,399.174 Q-265.297,404.248 -261.673,411.737 -258.11,419.166 -258.834,429.193 -259.197,434.206 -260.224,437.951 L-302.564,437.528 -302.806,441.394 Q-303.168,442.42 -303.41,428.408 -303.651,414.395 -312.288,399.234 -314.946,394.523 -318.147,390.235 L-320.503,387.336 -314.342,389.57 Q-304.799,392.228 -294.712,393.194 -284.686,394.1 -274.961,399.174 M-261.673,411.737 Q-265.297,404.248 -274.961,399.174 -284.686,394.1 -294.712,393.194 -304.799,392.228 -314.342,389.57 L-320.503,387.336 -318.147,390.235 Q-314.946,394.523 -312.288,399.234 -303.651,414.395 -303.41,428.408 -303.168,442.42 -302.806,441.394 L-302.564,437.528 -260.224,437.951 Q-259.197,434.206 -258.834,429.193 -258.11,419.166 -261.673,411.737 M-175.362,319.748 Q-195.596,303.682 -204.233,301.024 -210.937,298.97 -213.172,301.084 -213.716,301.628 -214.863,303.5 -215.95,305.373 -217.098,306.4 -216.796,311.352 -214.501,314.372 -212.81,316.547 -206.286,323.01 -205.401,323.922 -201.394,328.868 -201.33,328.911 -201.334,328.929 -195.674,335.801 -184.059,350.31 -167.026,371.632 -164.369,372.356 -159.899,373.625 -151.806,372.84 -142.564,371.994 -141.175,368.612 -139.726,365.108 -141.538,360.337 -142.866,356.773 -149.027,345.841 -154.342,336.418 -175.362,319.748Z" test="RedBike container" stroke-width="1.208"/>
      <path id="Layer1_0_1_STROKES" stroke="#0FF" stroke-width="1.208" stroke-linejoin="round" stroke-linecap="round" fill="none" d="M-217.098,306.4 Q-215.95,305.373 -214.863,303.5 -213.716,301.628 -213.172,301.084 -210.937,298.97 -204.233,301.024 -195.596,303.682 -175.362,319.748 -154.342,336.418 -149.027,345.841 -142.866,356.773 -141.538,360.337 -139.726,365.108 -141.175,368.612 -142.564,371.994 -151.806,372.84 -159.899,373.625 -164.369,372.356 -167.026,371.632 -184.059,350.31 -195.674,335.801 -201.303,328.959 -201.33,328.911 -201.364,328.868 -205.401,323.922 -206.286,323.01 -212.81,316.547 -214.501,314.372 -216.796,311.352 -217.098,306.4Z" test="RedBike container"/>
      <path id="Layer1_0_2_STROKES" stroke="#FFF" stroke-width="1.208" stroke-linejoin="round" stroke-linecap="round" fill="none" d="M-200.367,337.566 L-201.696,347.049 Q-216.675,350.854 -224.95,343.727 L-226.158,337.928 Q-208.763,342.821 -207.132,338.351 L-206.105,331.586 M-200.065,337.989 L-200.367,337.566 -205.199,331.707 M-206.105,331.586 L-205.864,330.862 -205.199,331.707 M-162.738,391.02 L-175.603,380.692 M-184.542,385.946 L-172.281,395.61" test="RedBike container"/>
      <path id="Layer1_0_3_STROKES" stroke="#FF0265" stroke-width="1.208" stroke-linejoin="round" stroke-linecap="round" fill="none" d="M-206.105,331.586 Q-216.313,330.862 -226.822,330.318 -249.472,329.231 -251.526,330.499 -253.7,331.707 -254.606,334.727 -255.029,336.237 -255.452,340.224 -255.754,342.942 -257.868,348.438 -260.103,353.995 -261.311,354.78 -261.724,355.076 -265.267,354.569 -265.341,354.55 -265.418,354.538 L-265.66,357.558 Q-265.962,361.182 -266.324,364.263 -284.686,367.766 -310.96,360.941 -337.234,354.055 -341.039,350.552 -344.844,347.049 -345.146,341.311 -345.267,339.559 -344.663,334.848 -344.602,334.486 -342.79,332.251 -340.918,329.956 -340.737,329.05 -340.707,328.932 -340.707,328.838 -340.629,327.46 -344.844,328.808 -350.824,330.62 -373.111,334.486 -384.285,336.358 -394.251,337.928 -395.036,352.062 -395.459,352.062 -395.882,352.062 -375.95,359.491 -357.347,367.162 -357.045,367.283 -340.495,374.712 -336.569,379.423 -333.308,383.349 -330.65,386.852 -330.348,387.275 -329.986,387.698 -328.352,389.888 -326.966,391.896 -326.883,392.013 -326.815,392.137 -326.325,392.824 -325.878,393.496 -322.617,398.389 -320.382,402.919 -319.718,404.187 -319.174,405.456 -317.906,408.294 -317.06,410.952 -313.315,422.972 -311.262,444.534 -311.262,444.863 -302.987,444.867 -302.911,444.867 -302.836,444.867 -291.337,444.834 -264.15,444.172 -262.187,444.126 -260.224,444.081 -238.686,443.567 -217.098,442.904 -217.521,440.306 -217.34,436.32 -217.038,428.347 -214.199,421.341 -211.179,413.912 -203.025,404.187 -197.408,397.543 -191.368,391.866 -191.186,391.624 -190.945,391.443 -188.65,389.329 -184.542,385.946 L-176.388,379.665 -172.281,376.524 Q-182.37,362.395 -188.68,353.602 -188.709,353.556 -188.74,353.512 -197.2,341.761 -198.857,339.62 L-200.065,337.989 M-206.105,331.586 Q-205.682,331.647 -205.199,331.707 -204.958,331.707 -204.656,331.707 L-200.367,337.566 M-340.737,329.05 Q-330.952,334.667 -321.65,339.076 -306.188,346.566 -296.947,348.559 L-265.237,353.934 M-318.147,390.235 Q-314.946,394.523 -312.288,399.234 -303.651,414.395 -303.41,428.408 -303.168,442.42 -302.806,441.394 L-302.564,437.528 -260.224,437.951 Q-259.197,434.206 -258.834,429.193 -258.11,419.166 -261.673,411.737 -265.297,404.248 -274.961,399.174 -284.686,394.1 -294.712,393.194 -304.799,392.228 -314.342,389.57 L-320.473,387.336 -318.147,390.235Z" test="RedBike container"/>
      <use xlink:href="#Bike-Wheel" transform="matrix(1.208 0 0 1.208 -140.65 429.3)"/>
      <use xlink:href="#Bike-Wheel" transform="matrix(1.208 0 0 1.208 -369.65 433.9)"/>
    </g>
  </g>
</svg>