<?xml version="1.0" encoding="utf-8"?>
<svg id="EdithAnim11" image-rendering="inherit" baseProfile="basic" version="1.1" x="0px" y="0px" width="800" height="600" xmlns="http://www.w3.org/2000/svg" xmlns:xlink="http://www.w3.org/1999/xlink">
  <defs>
    <g id="Bike-Wheel" overflow="visible">
      <path id="Layer4_0_1_STROKES" stroke="#FFF" stroke-width="1" stroke-linejoin="round" stroke-linecap="round" fill="none" d="M2.05 -34.85Q-12.35 -34.85 -22.65 -26.45 -34 -17.2 -34.7 -1.55 -35.4 14.3 -26.6 24.6 -18.4 34.2 -5.6 34.85 7.15 35.5 19.2 29.8 31.25 24.1 34.05 7.25 36.85 -9.65 28.9 -21.15 19.4 -34.85 2.05 -34.85Z" test="Bike Wheel"/>
      <path id="Layer3_0_1_STROKES" stroke="#FFF" stroke-width="1" stroke-linejoin="round" stroke-linecap="round" fill="none" d="M.55 -26.55Q4.65 -26.85 7.1 -26.15 9.75 -25.4 12 -23.15 13.95 -21.25 8 -15.35 5.3 -12.6 2.25 -10.2 1.95 -10 1.7 -9.8M24.45 -8.9Q26.2 -5.15 26.45 -2.65 26.7 .1 25.4 3.05 24.35 5.5 16.7 2.1 13.2 .6 9.85 -1.4 9.5 -1.6 9.25 -1.75M18.45 20Q15.75 23.1 13.55 24.35 11.2 25.75 8 25.75 5.3 25.75 5.25 17.4 5.2 13.55 5.65 9.7 5.7 9.35 5.75 9M-25.15 -7.15Q-24.25 -11.2 -22.85 -13.3 -21.4 -15.6 -18.6 -17.1 -16.2 -18.45 -12.25 -11.05 -10.4 -7.65 -9 -4.1 -8.9 -3.7 -8.75 -3.4M-12.85 23.8Q-16.75 22.4 -18.7 20.8 -20.85 19.05 -22.05 16.1 -23.1 13.6 -15.3 10.55 -11.75 9.05 -8 8.05 -7.65 8 -7.3 7.95" test="Bike Wheel"/>
    </g>
  </defs>
  <g id="19_Motorbikesf1r1" overflow="visible">
    <g id="MotorBikeBluef0r1">
      <path fill="#000" stroke="none" d="M-41.45,274.55 L-42.1,273.7 -48.85,278.9 -38.7,286.9 -37.15,289.3 Q-32.725,286.543 -29.75,284.65 L-30.8,283.1 -41.45,274.55 M-67.55,239.5 Q-68.9,243.2 -83.3,239.15 L-82.3,243.95 Q-75.45,249.85 -63.05,246.7 L-61.95,238.85 -65.95,234 Q-66.35,233.95 -66.7,233.9 L-67.55,239.5 M-41.25,224.1 Q-58,210.8 -65.15,208.6 -70.7,206.9 -72.55,208.65 -73,209.1 -73.95,210.65 -74.85,212.2 -75.8,213.05 -75.55,217.15 -73.65,219.65 -72.25,221.45 -66.85,226.8 -66.117,227.555 -62.8,231.65 -62.747,231.685 -62.75,231.7 -58.065,237.389 -48.45,249.4 -34.35,267.05 -32.15,267.65 -28.45,268.7 -21.75,268.05 -14.1,267.35 -12.95,264.55 -11.75,261.65 -13.25,257.7 -14.35,254.75 -19.45,245.7 -23.85,237.9 -41.25,224.1Z" test="BlueBikeContainer"/>
      <path id="Layer2_0_1_STROKES" stroke="#0FF" stroke-width="1" stroke-linejoin="round" stroke-linecap="round" fill="none" d="M-75.8,213.05 Q-74.85,212.2 -73.95,210.65 -73,209.1 -72.55,208.65 -70.7,206.9 -65.15,208.6 -58,210.8 -41.25,224.1 -23.85,237.9 -19.45,245.7 -14.35,254.75 -13.25,257.7 -11.75,261.65 -12.95,264.55 -14.1,267.35 -21.75,268.05 -28.45,268.7 -32.15,267.65 -34.35,267.05 -48.45,249.4 -58.065,237.389 -62.725,231.725 -62.747,231.685 -62.775,231.65 -66.117,227.555 -66.85,226.8 -72.25,221.45 -73.65,219.65 -75.55,217.15 -75.8,213.05Z" test="BlueBikeContainer"/>
      <path id="Layer2_0_2_STROKES" stroke="#009EFF" stroke-width="1" stroke-linejoin="round" stroke-linecap="round" fill="none" d="M-66.7,233.9 Q-75.15,233.3 -83.85,232.85 -102.6,231.95 -104.3,233 -106.1,234 -106.85,236.5 -107.2,237.75 -107.55,241.05 -107.8,243.3 -109.55,247.85 -111.4,252.45 -112.4,253.1 -112.742,253.345 -115.675,252.925 -115.736,252.91 -115.8,252.9 L-116,255.4 Q-116.25,258.4 -116.55,260.95 -131.75,263.85 -153.5,258.2 -175.25,252.5 -178.4,249.6 -181.55,246.7 -181.8,241.95 -181.9,240.5 -181.4,236.6 -181.35,236.3 -179.85,234.45 -178.3,232.55 -178.15,231.8 -178.125,231.703 -178.125,231.625 -178.061,230.484 -181.55,231.6 -186.5,233.1 -204.95,236.3 -214.2,237.85 -222.45,239.15 -223.1,250.85 -223.45,250.85 -223.8,250.85 -207.3,257 -191.9,263.35 -191.65,263.45 -177.95,269.6 -174.7,273.5 -172,276.75 -169.8,279.65 -169.55,280 -169.25,280.35 -167.35,282.9 -165.85,285.15 -163.15,289.2 -161.3,292.95 -160.75,294 -160.3,295.05 -159.25,297.4 -158.55,299.6 -155.45,309.55 -153.75,327.4 -153.75,328.05 -114.75,327.1 -95.3,326.65 -75.8,326.05 -76.15,323.9 -76,320.6 -75.75,314 -73.4,308.2 -70.9,302.05 -64.15,294 -59.5,288.5 -54.5,283.8 -54.35,283.6 -54.15,283.45 -52.25,281.7 -48.85,278.9 L-42.1,273.7 -38.7,271.1 Q-47.052,259.404 -52.275,252.125 -52.299,252.087 -52.325,252.05 -59.328,242.323 -60.7,240.55 L-61.7,239.2 M-65.95,234 Q-65.75,234 -65.5,234 L-61.95,238.85 M-65.95,234 Q-66.35,233.95 -66.7,233.9 M-178.15,231.8 Q-170.05,236.45 -162.35,240.1 -149.55,246.3 -141.9,247.95 L-115.65,252.4 M-161.3,280.15 L-159.45,282.45 Q-156.8,286 -154.6,289.9 -147.45,302.45 -147.25,314.05 -147.05,325.65 -146.75,324.8 L-146.55,321.6 -111.5,321.95 Q-110.65,318.85 -110.35,314.7 -109.75,306.4 -112.7,300.25 -115.7,294.05 -123.7,289.85 -131.75,285.65 -140.05,284.9 -148.4,284.1 -156.3,281.9 L-161.3,280.15Z" test="BlueBikeContainer"/>
      <path id="Layer2_0_3_STROKES" stroke="#FFF" stroke-width="1" stroke-linejoin="round" stroke-linecap="round" fill="none" d="M-61.7,239.2 L-61.95,238.85 -63.05,246.7 Q-75.45,249.85 -82.3,243.95 L-83.3,239.15 Q-68.9,243.2 -67.55,239.5 L-66.7,233.9 -66.5,233.3 -65.95,234 -61.95,238.85 M-30.8,283.1 L-41.45,274.55 M-48.85,278.9 L-38.7,286.9" test="BlueBikeContainer"/>
      <use xlink:href="#Bike-Wheel" transform="translate(-12.55 314.8)"/>
      <use xlink:href="#Bike-Wheel" transform="translate(-202.1 318.6)"/>
    </g>
    <g id="MotorBikePinkf0r1">
      <path fill="#000" stroke="none" d="M-316.096,341.261 Q-315.794,346 -311.989,350.502 -308.184,354.005 -281.91,360.891 -255.636,367.716 -237.274,364.213 -236.912,361.132 -236.61,357.508 L-236.368,354.488 Q-236.291,354.5 -236.247,354.488 L-236.187,353.884 -267.897,348.509 Q-277.138,346.516 -292.6,339.026 -301.902,334.617 -311.687,329 -311.868,329.906 -313.74,332.201 -315.552,334.436 -315.613,334.798 -316.217,339.509 -316.096,341.261 M-146.553,380.642 L-147.338,379.615 -155.492,385.896 -143.231,395.56 -141.359,398.46 Q-136.013,395.129 -132.42,392.842 L-133.688,390.97 -146.553,380.642 M-178.082,338.301 Q-179.713,342.771 -197.108,337.878 L-195.9,343.677 Q-187.625,350.804 -172.646,346 L-171.317,337.516 -176.149,331.657 Q-176.632,331.597 -177.055,331.536 L-178.082,338.301 M-197.108,337.878 Q-179.713,342.771 -178.082,338.301 L-177.055,331.536 Q-187.263,330.812 -197.772,330.268 -220.422,329.181 -222.476,330.449 -224.65,331.657 -225.556,334.677 -225.979,336.187 -226.402,340.174 -226.704,342.892 -228.818,348.388 -231.053,353.945 -232.261,354.73 -232.674,355.026 -236.247,354.488 -236.291,354.5 -236.368,354.488 L-236.61,357.508 Q-236.912,361.132 -237.274,364.213 -255.636,367.716 -281.91,360.891 -308.184,354.005 -311.989,350.502 -315.794,346 -316.096,341.261 -316.217,339.509 -315.613,334.798 -315.552,334.436 -313.74,332.201 -311.868,329.906 -311.687,329 -311.657,328.882 -311.687,328.758 -311.579,327.41 -315.794,328.758 -321.774,330.57 -344.061,334.436 -355.235,336.308 -365.201,337.878 -365.986,352.012 -366.409,352.012 -366.832,352.012 -346.9,359.441 -328.297,367.112 -327.995,367.233 -311.445,374.662 -307.519,379.373 -304.258,383.299 -301.6,386.802 -301.298,387.225 -300.936,387.648 -299.302,389.838 -297.916,391.816 -297.833,391.963 -297.795,392.057 -297.275,392.774 -296.828,393.446 -293.567,398.339 -291.332,402.869 -290.668,404.137 -290.124,405.406 -288.856,408.244 -288.01,410.902 -284.265,422.922 -282.212,444.484 -282.212,444.813 -273.937,444.786 -273.861,444.817 -273.816,444.786 -262.287,444.784 -235.1,444.122 -233.137,444.076 -231.174,444.001 -209.636,443.517 -188.048,442.854 -188.471,440.256 -188.29,436.27 -187.988,428.297 -185.149,421.291 -182.129,413.862 -173.975,404.137 -168.358,397.493 -162.318,391.816 -162.136,391.574 -161.895,391.393 -159.6,389.279 -155.492,385.896 L-147.338,379.615 -143.231,376.474 Q-153.32,362.345 -159.66,353.522 -159.659,353.506 -159.72,353.462 -168.15,341.711 -169.807,339.57 L-171.015,337.939 -171.317,337.516 -172.646,346 Q-187.625,350.804 -195.9,343.677 L-197.108,337.878 M-245.911,399.124 Q-236.247,404.198 -232.623,411.687 -229.06,419.116 -229.784,429.143 -230.147,434.156 -231.174,437.901 L-273.514,437.478 -273.756,441.344 Q-274.118,442.37 -274.36,428.358 -274.601,414.345 -283.238,399.184 -285.896,394.473 -289.097,390.185 L-291.453,387.286 -285.292,389.52 Q-275.749,392.178 -265.662,393.144 -255.636,394.05 -245.911,399.124 M-232.623,411.687 Q-236.247,404.198 -245.911,399.124 -255.636,394.05 -265.662,393.144 -275.749,392.178 -285.292,389.52 L-291.453,387.286 -289.097,390.185 Q-285.896,394.473 -283.238,399.184 -274.601,414.345 -274.36,428.358 -274.118,442.37 -273.756,441.344 L-273.514,437.478 -231.174,437.901 Q-230.147,434.156 -229.784,429.143 -229.06,419.116 -232.623,411.687 M-146.312,319.698 Q-166.546,303.632 -175.183,300.974 -181.887,298.92 -184.122,301.034 -184.666,301.578 -185.813,303.45 -186.9,305.323 -188.048,306.35 -187.746,311.302 -185.451,314.322 -183.76,316.497 -177.236,322.96 -176.351,323.872 -172.344,328.818 -172.28,328.861 -172.284,328.879 -166.624,335.751 -155.009,350.26 -137.976,371.582 -135.319,372.306 -130.849,373.575 -122.756,372.79 -113.514,371.944 -112.125,368.562 -110.676,365.058 -112.488,360.287 -113.816,356.723 -119.977,345.791 -125.292,336.368 -146.312,319.698Z" test="RedBike container" stroke-width="1.208"/>
      <path id="Layer1_0_1_STROKES" stroke="#0FF" stroke-width="1.208" stroke-linejoin="round" stroke-linecap="round" fill="none" d="M-188.048,306.35 Q-186.9,305.323 -185.813,303.45 -184.666,301.578 -184.122,301.034 -181.887,298.92 -175.183,300.974 -166.546,303.632 -146.312,319.698 -125.292,336.368 -119.977,345.791 -113.816,356.723 -112.488,360.287 -110.676,365.058 -112.125,368.562 -113.514,371.944 -122.756,372.79 -130.849,373.575 -135.319,372.306 -137.976,371.582 -155.009,350.26 -166.624,335.751 -172.253,328.909 -172.28,328.861 -172.314,328.818 -176.351,323.872 -177.236,322.96 -183.76,316.497 -185.451,314.322 -187.746,311.302 -188.048,306.35Z" test="RedBike container"/>
      <path id="Layer1_0_2_STROKES" stroke="#FFF" stroke-width="1.208" stroke-linejoin="round" stroke-linecap="round" fill="none" d="M-171.317,337.516 L-172.646,346 Q-187.625,350.804 -195.9,343.677 L-197.108,337.878 Q-179.713,342.771 -178.082,338.301 L-177.055,331.536 M-171.015,337.939 L-171.317,337.516 -176.149,331.657 M-177.055,331.536 L-176.814,330.812 -176.149,331.657 M-133.688,390.97 L-146.553,380.642 M-155.492,385.896 L-143.231,395.56" test="RedBike container"/>
      <path id="Layer1_0_3_STROKES" stroke="#FF0265" stroke-width="1.208" stroke-linejoin="round" stroke-linecap="round" fill="none" d="M-177.055,331.536 Q-187.263,330.812 -197.772,330.268 -220.422,329.181 -222.476,330.449 -224.65,331.657 -225.556,334.677 -225.979,336.187 -226.402,340.174 -226.704,342.892 -228.818,348.388 -231.053,353.945 -232.261,354.73 -232.674,355.026 -236.217,354.519 -236.291,354.5 -236.368,354.488 L-236.61,357.508 Q-236.912,361.132 -237.274,364.213 -255.636,367.716 -281.91,360.891 -308.184,354.005 -311.989,350.502 -315.794,346 -316.096,341.261 -316.217,339.509 -315.613,334.798 -315.552,334.436 -313.74,332.201 -311.868,329.906 -311.687,329 -311.657,328.882 -311.657,328.788 -311.579,327.41 -315.794,328.758 -321.774,330.57 -344.061,334.436 -355.235,336.308 -365.201,337.878 -365.986,352.012 -366.409,352.012 -366.832,352.012 -346.9,359.441 -328.297,367.112 -327.995,367.233 -311.445,374.662 -307.519,379.373 -304.258,383.299 -301.6,386.802 -301.298,387.225 -300.936,387.648 -299.302,389.838 -297.916,391.846 -297.833,391.963 -297.765,392.087 -297.275,392.774 -296.828,393.446 -293.567,398.339 -291.332,402.869 -290.668,404.137 -290.124,405.406 -288.856,408.244 -288.01,410.902 -284.265,422.922 -282.212,444.484 -282.212,444.813 -273.937,444.817 -273.861,444.817 -273.786,444.817 -262.287,444.784 -235.1,444.122 -233.137,444.076 -231.174,444.031 -209.636,443.517 -188.048,442.854 -188.471,440.256 -188.29,436.27 -187.988,428.297 -185.149,421.291 -182.129,413.862 -173.975,404.137 -168.358,397.493 -162.318,391.816 -162.136,391.574 -161.895,391.393 -159.6,389.279 -155.492,385.896 L-147.338,379.615 -143.231,376.474 Q-153.32,362.345 -159.63,353.552 -159.659,353.506 -159.69,353.462 -168.15,341.711 -169.807,339.57 L-171.015,337.939 M-177.055,331.536 Q-176.632,331.597 -176.149,331.657 -175.908,331.657 -175.606,331.657 L-171.317,337.516 M-311.687,329 Q-301.902,334.617 -292.6,339.026 -277.138,346.516 -267.897,348.509 L-236.187,353.884 M-289.097,390.185 Q-285.896,394.473 -283.238,399.184 -274.601,414.345 -274.36,428.358 -274.118,442.37 -273.756,441.344 L-273.514,437.478 -231.174,437.901 Q-230.147,434.156 -229.784,429.143 -229.06,419.116 -232.623,411.687 -236.247,404.198 -245.911,399.124 -255.636,394.05 -265.662,393.144 -275.749,392.178 -285.292,389.52 L-291.423,387.286 -289.097,390.185Z" test="RedBike container"/>
      <use xlink:href="#Bike-Wheel" transform="matrix(1.208 0 0 1.208 -111.6 429.25)"/>
      <use xlink:href="#Bike-Wheel" transform="matrix(1.208 0 0 1.208 -340.6 433.85)"/>
    </g>
  </g>
</svg>