<?xml version="1.0" encoding="utf-8"?>
<svg id="EdithAnim11" image-rendering="inherit" baseProfile="basic" version="1.1" x="0px" y="0px" width="800" height="600" xmlns="http://www.w3.org/2000/svg" xmlns:xlink="http://www.w3.org/1999/xlink">
  <defs>
    <g id="Bike-Wheel" overflow="visible">
      <path id="Layer4_0_1_STROKES" stroke="#FFF" stroke-width="1" stroke-linejoin="round" stroke-linecap="round" fill="none" d="M2.05 -34.85Q-12.35 -34.85 -22.65 -26.45 -34 -17.2 -34.7 -1.55 -35.4 14.3 -26.6 24.6 -18.4 34.2 -5.6 34.85 7.15 35.5 19.2 29.8 31.25 24.1 34.05 7.25 36.85 -9.65 28.9 -21.15 19.4 -34.85 2.05 -34.85Z" test="Bike Wheel"/>
      <path id="Layer3_0_1_STROKES" stroke="#FFF" stroke-width="1" stroke-linejoin="round" stroke-linecap="round" fill="none" d="M.55 -26.55Q4.65 -26.85 7.1 -26.15 9.75 -25.4 12 -23.15 13.95 -21.25 8 -15.35 5.3 -12.6 2.25 -10.2 1.95 -10 1.7 -9.8M24.45 -8.9Q26.2 -5.15 26.45 -2.65 26.7 .1 25.4 3.05 24.35 5.5 16.7 2.1 13.2 .6 9.85 -1.4 9.5 -1.6 9.25 -1.75M18.45 20Q15.75 23.1 13.55 24.35 11.2 25.75 8 25.75 5.3 25.75 5.25 17.4 5.2 13.55 5.65 9.7 5.7 9.35 5.75 9M-25.15 -7.15Q-24.25 -11.2 -22.85 -13.3 -21.4 -15.6 -18.6 -17.1 -16.2 -18.45 -12.25 -11.05 -10.4 -7.65 -9 -4.1 -8.9 -3.7 -8.75 -3.4M-12.85 23.8Q-16.75 22.4 -18.7 20.8 -20.85 19.05 -22.05 16.1 -23.1 13.6 -15.3 10.55 -11.75 9.05 -8 8.05 -7.65 8 -7.3 7.95" test="Bike Wheel"/>
    </g>
  </defs>
  <g id="19_Motorbikesf10r1" overflow="visible">
    <g id="MotorBikeBluef0r1">
      <path fill="#000" stroke="none" d="M138.9,274.55 L138.25,273.7 131.5,278.9 141.65,286.9 143.2,289.3 Q147.625,286.543 150.6,284.65 L149.55,283.1 138.9,274.55 M112.8,239.5 Q111.45,243.2 97.05,239.15 L98.05,243.95 Q104.9,249.85 117.3,246.7 L118.4,238.85 114.4,234 Q114,233.95 113.65,233.9 L112.8,239.5 M139.1,224.1 Q122.35,210.8 115.2,208.6 109.65,206.9 107.8,208.65 107.35,209.1 106.4,210.65 105.5,212.2 104.55,213.05 104.8,217.15 106.7,219.65 108.1,221.45 113.5,226.8 114.233,227.555 117.55,231.65 117.603,231.685 117.6,231.7 122.285,237.389 131.9,249.4 146,267.05 148.2,267.65 151.9,268.7 158.6,268.05 166.25,267.35 167.4,264.55 168.6,261.65 167.1,257.7 166,254.75 160.9,245.7 156.5,237.9 139.1,224.1Z" test="BlueBikeContainer"/>
      <path id="Layer2_0_1_STROKES" stroke="#0FF" stroke-width="1" stroke-linejoin="round" stroke-linecap="round" fill="none" d="M104.55,213.05 Q105.5,212.2 106.4,210.65 107.35,209.1 107.8,208.65 109.65,206.9 115.2,208.6 122.35,210.8 139.1,224.1 156.5,237.9 160.9,245.7 166,254.75 167.1,257.7 168.6,261.65 167.4,264.55 166.25,267.35 158.6,268.05 151.9,268.7 148.2,267.65 146,267.05 131.9,249.4 122.285,237.389 117.625,231.725 117.603,231.685 117.575,231.65 114.233,227.555 113.5,226.8 108.1,221.45 106.7,219.65 104.8,217.15 104.55,213.05Z" test="BlueBikeContainer"/>
      <path id="Layer2_0_2_STROKES" stroke="#009EFF" stroke-width="1" stroke-linejoin="round" stroke-linecap="round" fill="none" d="M113.65,233.9 Q105.2,233.3 96.5,232.85 77.75,231.95 76.05,233 74.25,234 73.5,236.5 73.15,237.75 72.8,241.05 72.55,243.3 70.8,247.85 68.95,252.45 67.95,253.1 67.608,253.345 64.675,252.925 64.614,252.91 64.55,252.9 L64.35,255.4 Q64.1,258.4 63.8,260.95 48.6,263.85 26.85,258.2 5.1,252.5 1.95,249.6 -1.2,246.7 -1.45,241.95 -1.55,240.5 -1.05,236.6 -1,236.3 .5,234.45 2.05,232.55 2.2,231.8 2.225,231.703 2.225,231.625 2.289,230.484 -1.2,231.6 -6.15,233.1 -24.6,236.3 -33.85,237.85 -42.1,239.15 -42.75,250.85 -43.1,250.85 -43.45,250.85 -26.95,257 -11.55,263.35 -11.3,263.45 2.4,269.6 5.65,273.5 8.35,276.75 10.55,279.65 10.8,280 11.1,280.35 13,282.9 14.5,285.15 17.2,289.2 19.05,292.95 19.6,294 20.05,295.05 21.1,297.4 21.8,299.6 24.9,309.55 26.6,327.4 26.6,328.05 65.6,327.1 85.05,326.65 104.55,326.05 104.2,323.9 104.35,320.6 104.6,314 106.95,308.2 109.45,302.05 116.2,294 120.85,288.5 125.85,283.8 126,283.6 126.2,283.45 128.1,281.7 131.5,278.9 L138.25,273.7 141.65,271.1 Q133.298,259.404 128.075,252.125 128.051,252.087 128.025,252.05 121.022,242.323 119.65,240.55 L118.65,239.2 M114.4,234 Q114.6,234 114.85,234 L118.4,238.85 M114.4,234 Q114,233.95 113.65,233.9 M2.2,231.8 Q10.3,236.45 18,240.1 30.8,246.3 38.45,247.95 L64.7,252.4 M19.05,280.15 L20.9,282.45 Q23.55,286 25.75,289.9 32.9,302.45 33.1,314.05 33.3,325.65 33.6,324.8 L33.8,321.6 68.85,321.95 Q69.7,318.85 70,314.7 70.6,306.4 67.65,300.25 64.65,294.05 56.65,289.85 48.6,285.65 40.3,284.9 31.95,284.1 24.05,281.9 L19.05,280.15Z" test="BlueBikeContainer"/>
      <path id="Layer2_0_3_STROKES" stroke="#FFF" stroke-width="1" stroke-linejoin="round" stroke-linecap="round" fill="none" d="M118.65,239.2 L118.4,238.85 117.3,246.7 Q104.9,249.85 98.05,243.95 L97.05,239.15 Q111.45,243.2 112.8,239.5 L113.65,233.9 113.85,233.3 114.4,234 118.4,238.85 M149.55,283.1 L138.9,274.55 M131.5,278.9 L141.65,286.9" test="BlueBikeContainer"/>
      <use xlink:href="#Bike-Wheel" transform="translate(167.8 314.8)"/>
      <use xlink:href="#Bike-Wheel" transform="translate(-21.75 318.6)"/>
    </g>
    <g id="MotorBikePinkf0r1">
      <path fill="#000" stroke="none" d="M-100.646,341.261 Q-100.344,346 -96.539,350.502 -92.734,354.005 -66.46,360.891 -40.186,367.716 -21.824,364.213 -21.462,361.132 -21.16,357.508 L-20.918,354.488 Q-20.841,354.5 -20.797,354.488 L-20.737,353.884 -52.447,348.509 Q-61.688,346.516 -77.15,339.026 -86.452,334.617 -96.237,329 -96.418,329.906 -98.29,332.201 -100.102,334.436 -100.163,334.798 -100.767,339.509 -100.646,341.261 M68.897,380.642 L68.112,379.615 59.958,385.896 72.219,395.56 74.091,398.46 Q79.437,395.129 83.03,392.842 L81.762,390.97 68.897,380.642 M37.368,338.301 Q35.737,342.771 18.342,337.878 L19.55,343.677 Q27.825,350.804 42.804,346 L44.133,337.516 39.301,331.657 Q38.818,331.597 38.395,331.536 L37.368,338.301 M18.342,337.878 Q35.737,342.771 37.368,338.301 L38.395,331.536 Q28.187,330.812 17.678,330.268 -4.972,329.181 -7.026,330.449 -9.2,331.657 -10.106,334.677 -10.529,336.187 -10.952,340.174 -11.254,342.892 -13.368,348.388 -15.603,353.945 -16.811,354.73 -17.224,355.026 -20.797,354.488 -20.841,354.5 -20.918,354.488 L-21.16,357.508 Q-21.462,361.132 -21.824,364.213 -40.186,367.716 -66.46,360.891 -92.734,354.005 -96.539,350.502 -100.344,346 -100.646,341.261 -100.767,339.509 -100.163,334.798 -100.102,334.436 -98.29,332.201 -96.418,329.906 -96.237,329 -96.207,328.882 -96.237,328.758 -96.129,327.41 -100.344,328.758 -106.324,330.57 -128.611,334.436 -139.785,336.308 -149.751,337.878 -150.536,352.012 -150.959,352.012 -151.382,352.012 -131.45,359.441 -112.847,367.112 -112.545,367.233 -95.995,374.662 -92.069,379.373 -88.808,383.299 -86.15,386.802 -85.848,387.225 -85.486,387.648 -83.852,389.838 -82.466,391.816 -82.383,391.963 -82.345,392.057 -81.825,392.774 -81.378,393.446 -78.117,398.339 -75.882,402.869 -75.218,404.137 -74.674,405.406 -73.406,408.244 -72.56,410.902 -68.815,422.922 -66.762,444.484 -66.762,444.813 -58.487,444.786 -58.411,444.817 -58.366,444.786 -46.837,444.784 -19.65,444.122 -17.687,444.076 -15.724,444.001 5.814,443.517 27.402,442.854 26.979,440.256 27.16,436.27 27.462,428.297 30.301,421.291 33.321,413.862 41.475,404.137 47.092,397.493 53.132,391.816 53.314,391.574 53.555,391.393 55.85,389.279 59.958,385.896 L68.112,379.615 72.219,376.474 Q62.13,362.345 55.79,353.522 55.791,353.506 55.73,353.462 47.3,341.711 45.643,339.57 L44.435,337.939 44.133,337.516 42.804,346 Q27.825,350.804 19.55,343.677 L18.342,337.878 M-30.461,399.124 Q-20.797,404.198 -17.173,411.687 -13.61,419.116 -14.334,429.143 -14.697,434.156 -15.724,437.901 L-58.064,437.478 -58.306,441.344 Q-58.668,442.37 -58.91,428.358 -59.151,414.345 -67.788,399.184 -70.446,394.473 -73.647,390.185 L-76.003,387.286 -69.842,389.52 Q-60.299,392.178 -50.212,393.144 -40.186,394.05 -30.461,399.124 M-17.173,411.687 Q-20.797,404.198 -30.461,399.124 -40.186,394.05 -50.212,393.144 -60.299,392.178 -69.842,389.52 L-76.003,387.286 -73.647,390.185 Q-70.446,394.473 -67.788,399.184 -59.151,414.345 -58.91,428.358 -58.668,442.37 -58.306,441.344 L-58.064,437.478 -15.724,437.901 Q-14.697,434.156 -14.334,429.143 -13.61,419.116 -17.173,411.687 M69.138,319.698 Q48.904,303.632 40.267,300.974 33.563,298.92 31.328,301.034 30.784,301.578 29.637,303.45 28.55,305.323 27.402,306.35 27.704,311.302 29,314.322 31.69,316.497 38.214,322.96 39.099,323.872 43.106,328.818 43.17,328.861 43.166,328.879 48.826,335.751 60.441,350.26 77.474,371.582 80.131,372.306 84.601,373.575 92.694,372.79 101.936,371.944 103.325,368.562 104.774,365.058 102.962,360.287 101.634,356.723 95.473,345.791 90.158,336.368 69.138,319.698Z" test="RedBike container" stroke-width="1.208"/>
      <path id="Layer1_0_1_STROKES" stroke="#0FF" stroke-width="1.208" stroke-linejoin="round" stroke-linecap="round" fill="none" d="M27.402,306.35 Q28.55,305.323 29.637,303.45 30.784,301.578 31.328,301.034 33.563,298.92 40.267,300.974 48.904,303.632 69.138,319.698 90.158,336.368 95.473,345.791 101.634,356.723 102.962,360.287 104.774,365.058 103.325,368.562 101.936,371.944 92.694,372.79 84.601,373.575 80.131,372.306 77.474,371.582 60.441,350.26 48.826,335.751 43.197,328.909 43.17,328.861 43.136,328.818 39.099,323.872 38.214,322.96 31.69,316.497 29,314.322 27.704,311.302 27.402,306.35Z" test="RedBike container"/>
      <path id="Layer1_0_2_STROKES" stroke="#FFF" stroke-width="1.208" stroke-linejoin="round" stroke-linecap="round" fill="none" d="M44.133,337.516 L42.804,346 Q27.825,350.804 19.55,343.677 L18.342,337.878 Q35.737,342.771 37.368,338.301 L38.395,331.536 M44.435,337.939 L44.133,337.516 39.301,331.657 M38.395,331.536 L38.636,330.812 39.301,331.657 M81.762,390.97 L68.897,380.642 M59.958,385.896 L72.219,395.56" test="RedBike container"/>
      <path id="Layer1_0_3_STROKES" stroke="#FF0265" stroke-width="1.208" stroke-linejoin="round" stroke-linecap="round" fill="none" d="M38.395,331.536 Q28.187,330.812 17.678,330.268 -4.972,329.181 -7.026,330.449 -9.2,331.657 -10.106,334.677 -10.529,336.187 -10.952,340.174 -11.254,342.892 -13.368,348.388 -15.603,353.945 -16.811,354.73 -17.224,355.026 -20.767,354.519 -20.841,354.5 -20.918,354.488 L-21.16,357.508 Q-21.462,361.132 -21.824,364.213 -40.186,367.716 -66.46,360.891 -92.734,354.005 -96.539,350.502 -100.344,346 -100.646,341.261 -100.767,339.509 -100.163,334.798 -100.102,334.436 -98.29,332.201 -96.418,329.906 -96.237,329 -96.207,328.882 -96.207,328.788 -96.129,327.41 -100.344,328.758 -106.324,330.57 -128.611,334.436 -139.785,336.308 -149.751,337.878 -150.536,352.012 -150.959,352.012 -151.382,352.012 -131.45,359.441 -112.847,367.112 -112.545,367.233 -95.995,374.662 -92.069,379.373 -88.808,383.299 -86.15,386.802 -85.848,387.225 -85.486,387.648 -83.852,389.838 -82.466,391.846 -82.383,391.963 -82.315,392.087 -81.825,392.774 -81.378,393.446 -78.117,398.339 -75.882,402.869 -75.218,404.137 -74.674,405.406 -73.406,408.244 -72.56,410.902 -68.815,422.922 -66.762,444.484 -66.762,444.813 -58.487,444.817 -58.411,444.817 -58.336,444.817 -46.837,444.784 -19.65,444.122 -17.687,444.076 -15.724,444.031 5.814,443.517 27.402,442.854 26.979,440.256 27.16,436.27 27.462,428.297 30.301,421.291 33.321,413.862 41.475,404.137 47.092,397.493 53.132,391.816 53.314,391.574 53.555,391.393 55.85,389.279 59.958,385.896 L68.112,379.615 72.219,376.474 Q62.13,362.345 55.82,353.552 55.791,353.506 55.76,353.462 47.3,341.711 45.643,339.57 L44.435,337.939 M38.395,331.536 Q38.818,331.597 39.301,331.657 39.542,331.657 39.844,331.657 L44.133,337.516 M-96.237,329 Q-86.452,334.617 -77.15,339.026 -61.688,346.516 -52.447,348.509 L-20.737,353.884 M-73.647,390.185 Q-70.446,394.473 -67.788,399.184 -59.151,414.345 -58.91,428.358 -58.668,442.37 -58.306,441.344 L-58.064,437.478 -15.724,437.901 Q-14.697,434.156 -14.334,429.143 -13.61,419.116 -17.173,411.687 -20.797,404.198 -30.461,399.124 -40.186,394.05 -50.212,393.144 -60.299,392.178 -69.842,389.52 L-75.973,387.286 -73.647,390.185Z" test="RedBike container"/>
      <use xlink:href="#Bike-Wheel" transform="matrix(1.208 0 0 1.208 103.8 429.25)"/>
      <use xlink:href="#Bike-Wheel" transform="matrix(1.208 0 0 1.208 -125.15 433.85)"/>
    </g>
  </g>
</svg>