<?xml version="1.0" encoding="utf-8"?>
<svg id="EdithAnim11" image-rendering="inherit" baseProfile="basic" version="1.1" x="0px" y="0px" width="800" height="600" xmlns="http://www.w3.org/2000/svg" xmlns:xlink="http://www.w3.org/1999/xlink">
  <g id="19_Motorbikesf100r1" overflow="visible">
    <g id="Smokef9r1">
      <path fill="#000" stroke="none" d="M442.748,86.287 Q433.351,83.742 411.019,87.204 336.444,26.531 252.067,72.544 226.703,-12.764 92.408,6.069 28.039,-92.473 -136.268,-104.079 -136.268,288.157 -136.268,680.392 -87.461,753.892 -.76,697.8 116.054,704.621 129,632.343 231.958,660.643 297.742,604.246 349.176,618.6 376.662,563.933 391.011,581.646 423.347,569.532 450.327,566.376 466.394,549.579 477.004,570.143 502.469,551.921 517.727,544.896 532.986,537.974 539.756,553.04 560.067,541.13 565.423,539.196 570.779,537.261 610.693,570.448 672.233,529.728 722.96,531.052 751.456,515.374 778.335,501.122 785.207,471.6 872.009,493.08 929.102,445.234 973.059,456.127 997.412,410.52 1010.043,424.569 1037.428,414.287 1060.366,411.335 1074.412,397.083 1083.809,413.473 1105.434,398.203 1118.571,392.196 1131.606,386.19 1137.669,398.203 1154.949,388.226 1164.245,384.867 1173.441,381.507 1187.184,380.897 1200.825,380.286 1200.825,376.926 1201.735,369.393 1202.139,365.932 1202.543,362.471 1202.543,357.788 1202.543,353.105 1197.895,354.123 1193.146,355.039 1191.125,347.812 1189.609,347.201 1175.866,341.398 1169.298,345.47 1157.98,338.344 1142.823,339.159 1125.442,318.799 1091.489,328.673 1075.018,310.655 1049.958,304.75 1047.431,304.038 1045.006,303.427 1037.529,300.373 1019.441,302.409 966.086,252.12 906.972,275.432 898.383,278.384 889.692,282.761 866.047,210.789 754.488,225.55 702.851,152.356 589.776,140.241 576.538,131.181 558.451,131.894 538.342,106.546 497.821,118.049 476.802,93.108 442.748,86.287Z" test="Smoke_2323" stroke-width="2.028"/>
      <path id="Layer1_0_1_STROKES" stroke="#FFF" stroke-width="2.028" stroke-linejoin="round" stroke-linecap="round" fill="none" d="M1200.825,380.286 Q1187.184,380.897 1173.441,381.507 1164.245,384.867 1154.949,388.226 1137.669,398.203 1131.606,386.19 1118.571,392.196 1105.434,398.203 1083.809,413.473 1074.412,397.083 1060.366,411.335 1037.428,414.287 1010.043,424.569 997.412,410.52 973.059,456.127 929.102,445.234 872.009,493.08 785.207,471.6 778.335,501.122 751.456,515.374 722.96,531.052 672.233,529.728 610.693,570.448 570.779,537.261 565.423,539.196 560.067,541.13 539.756,553.04 532.986,537.974 517.727,544.896 502.469,551.921 477.004,570.143 466.394,549.579 450.327,566.376 423.347,569.532 391.011,581.646 376.662,563.933 349.176,618.6 297.742,604.246 231.958,660.643 129,632.343 116.054,704.621 -.76,697.8 -87.461,753.892 -136.268,680.392 -136.268,288.157 -136.268,-104.079 28.039,-92.473 92.408,6.069 226.703,-12.764 252.067,72.544 336.444,26.531 411.019,87.204 433.351,83.742 442.748,86.287 476.802,93.108 497.821,118.049 538.342,106.546 558.451,131.894 576.538,131.181 589.776,140.241 702.851,152.356 754.488,225.55 866.047,210.789 889.692,282.761 898.383,278.384 906.972,275.432 966.086,252.12 1019.441,302.409 1037.529,300.373 1045.006,303.427 1047.431,304.038 1049.958,304.75 1075.018,310.655 1091.489,328.673 1125.442,318.799 1142.823,339.159 1157.98,338.344 1169.298,345.47 1175.866,341.398 1189.609,347.201 1191.125,347.812 1193.146,355.039 1197.895,354.123 1202.543,353.105 1202.543,357.788 1202.543,362.471 1202.139,365.932 1201.735,369.393 1200.825,376.926 1200.825,380.286Z" test="Smoke_2323"/>
    </g>
  </g>
</svg>