<?xml version="1.0" encoding="utf-8"?>
<svg id="EdithAnim11" image-rendering="inherit" baseProfile="basic" version="1.1" x="0px" y="0px" width="800" height="600" xmlns="http://www.w3.org/2000/svg" xmlns:xlink="http://www.w3.org/1999/xlink">
  <g id="19_Motorbikesf101r1" overflow="visible">
    <g id="Smokef10r1">
      <path fill="#000" stroke="none" d="M466.402,80.976 Q446.386,57.099 414.002,50.539 405.094,47.958 383.925,51.292 312.975,-7 232.803,37.095 208.175,-44.965 80.948,-26.897 19.326,-121.649 -136.512,-132.834 -136.512,281.556 -136.512,695.946 -90.295,766.929 -8.237,713.37 102.222,720.36 115.637,651.313 212.053,678.954 274.409,625.071 323.036,639.053 349.131,586.783 362.755,603.884 393.357,592.376 418.823,589.472 434.124,573.447 444.185,593.236 468.289,575.813 482.751,569.145 497.214,562.477 503.606,577.104 522.785,565.703 527.92,563.875 533.055,562.047 578.329,601.302 648.65,553.765 706.604,555.486 738.987,537.203 769.484,520.532 777.03,485.794 876.17,511.068 941.042,455.034 991.136,467.833 1018.698,414.273 1032.951,430.836 1064.286,418.683 1090.382,415.241 1106.311,398.571 1117.001,417.822 1141.629,399.861 1156.51,392.871 1171.392,385.772 1178.309,399.969 1197.906,388.246 1208.491,384.267 1219.076,380.287 1234.691,379.642 1250.202,378.889 1250.202,375.34 1251.145,367.381 1251.564,363.725 1251.983,360.068 1251.983,355.121 1251.983,350.173 1246.638,351.356 1241.294,352.432 1239.093,343.935 1237.311,343.29 1221.591,336.299 1214.255,341.139 1201.365,332.643 1184.073,333.611 1164.37,309.734 1125.594,321.135 1107.045,299.947 1078.434,292.957 1075.605,292.096 1072.67,291.451 1064.182,288.009 1043.431,290.591 982.228,233.051 914.527,260.584 904.676,264.133 894.72,269.296 868.625,185.407 740.978,202.937 683.234,117.327 553.806,102.486 541.125,93.666 524.042,94.419 504.759,70.005 466.402,80.976Z" test="Smoke_2323" stroke-width="2.123"/>
      <path id="Layer1_0_1_STROKES" stroke="#FFF" stroke-width="2.123" stroke-linejoin="round" stroke-linecap="round" fill="none" d="M1250.202,378.889 Q1234.691,379.642 1219.076,380.287 1208.491,384.267 1197.906,388.246 1178.309,399.969 1171.392,385.772 1156.51,392.871 1141.629,399.861 1117.001,417.822 1106.311,398.571 1090.382,415.241 1064.286,418.683 1032.951,430.836 1018.698,414.273 991.136,467.833 941.042,455.034 876.17,511.068 777.03,485.794 769.484,520.532 738.987,537.203 706.604,555.486 648.65,553.765 578.329,601.302 533.055,562.047 527.92,563.875 522.785,565.703 503.606,577.104 497.214,562.477 482.751,569.145 468.289,575.813 444.185,593.236 434.124,573.447 418.823,589.472 393.357,592.376 362.755,603.884 349.131,586.783 323.036,639.053 274.409,625.071 212.053,678.954 115.637,651.313 102.222,720.36 -8.237,713.37 -90.295,766.929 -136.512,695.946 -136.512,281.556 -136.512,-132.834 19.326,-121.649 80.948,-26.897 208.175,-44.965 232.803,37.095 312.975,-7 383.925,51.292 405.094,47.958 414.002,50.539 446.386,57.099 466.402,80.976 504.759,70.005 524.042,94.419 541.125,93.666 553.806,102.486 683.234,117.327 740.978,202.937 868.625,185.407 894.72,269.296 904.676,264.133 914.527,260.584 982.228,233.051 1043.431,290.591 1064.182,288.009 1072.67,291.451 1075.605,292.096 1078.434,292.957 1107.045,299.947 1125.594,321.135 1164.37,309.734 1184.073,333.611 1201.365,332.643 1214.255,341.139 1221.591,336.299 1237.311,343.29 1239.093,343.935 1241.294,352.432 1246.638,351.356 1251.983,350.173 1251.983,355.121 1251.983,360.068 1251.564,363.725 1251.145,367.381 1250.202,375.34 1250.202,378.889Z" test="Smoke_2323"/>
    </g>
  </g>
</svg>