<?xml version="1.0" encoding="utf-8"?>
<svg id="EdithAnim11" image-rendering="inherit" baseProfile="basic" version="1.1" x="0px" y="0px" width="800" height="600" xmlns="http://www.w3.org/2000/svg" xmlns:xlink="http://www.w3.org/1999/xlink">
  <g id="19_Motorbikesf102r1" overflow="visible">
    <g id="Smokef11r1">
      <path fill="#000" stroke="none" d="M211.297,-.25 Q187.525,-78.087 68.228,-60.979 9.72,-150.939 -136.606,-161.589 -136.606,274.956 -136.606,711.501 -93.294,779.254 -16.549,728.836 86.79,735.974 99.599,670.826 189.913,697.565 248.313,646.806 293.795,660.402 318.436,611.004 331.136,627.319 359.793,616.555 383.674,613.949 398.112,598.881 407.555,617.688 430.134,601.26 443.703,595.142 457.271,588.797 463.242,602.733 481.152,592.083 486.037,590.383 490.813,588.57 541.832,634.343 621.29,579.506 686.855,581.659 723.327,560.585 757.738,541.324 765.988,501.103 878.011,530.447 951.065,465.526 1007.62,480.369 1038.557,418.394 1054.622,437.541 1090.009,423.492 1119.535,419.413 1137.446,400.266 1149.386,422.586 1177.283,401.739 1194,393.581 1210.825,385.31 1218.532,401.852 1240.677,388.256 1252.617,383.724 1264.558,379.078 1282.143,378.285 1299.728,377.492 1299.728,373.753 1300.705,365.369 1301.139,361.517 1301.573,357.665 1301.573,352.453 1301.573,347.241 1295.494,348.487 1289.416,349.847 1287.028,339.877 1284.965,339.197 1267.271,331.039 1259.022,336.704 1244.476,326.734 1224.937,327.867 1202.901,300.108 1159.047,313.251 1138.205,288.552 1105.858,280.508 1102.71,279.488 1099.345,278.695 1089.684,274.956 1066.128,278.128 996.765,212.867 919.911,244.818 908.839,249.123 897.55,255.128 868.893,158.37 724.304,178.877 660.043,79.967 513.5,62.178 501.451,53.794 485.386,54.587 467.149,31.361 431.219,41.671 412.223,19.011 381.829,12.78 373.362,10.287 353.497,13.459 286.631,-41.831 211.297,-.25Z" test="Smoke_2323" stroke-width="2.218"/>
      <path id="Layer1_0_1_STROKES" stroke="#FFF" stroke-width="2.218" stroke-linejoin="round" stroke-linecap="round" fill="none" d="M1299.728,377.492 Q1282.143,378.285 1264.558,379.078 1252.617,383.724 1240.677,388.256 1218.532,401.852 1210.825,385.31 1194,393.581 1177.283,401.739 1149.386,422.586 1137.446,400.266 1119.535,419.413 1090.009,423.492 1054.622,437.541 1038.557,418.394 1007.62,480.369 951.065,465.526 878.011,530.447 765.988,501.103 757.738,541.324 723.327,560.585 686.855,581.659 621.29,579.506 541.832,634.343 490.813,588.57 486.037,590.383 481.152,592.083 463.242,602.733 457.271,588.797 443.703,595.142 430.134,601.26 407.555,617.688 398.112,598.881 383.674,613.949 359.793,616.555 331.136,627.319 318.436,611.004 293.795,660.402 248.313,646.806 189.913,697.565 99.599,670.826 86.79,735.974 -16.549,728.836 -93.294,779.254 -136.606,711.501 -136.606,274.956 -136.606,-161.589 9.72,-150.939 68.228,-60.979 187.525,-78.087 211.297,-.25 286.631,-41.831 353.497,13.459 373.362,10.287 381.829,12.78 412.223,19.011 431.219,41.671 467.149,31.361 485.386,54.587 501.451,53.794 513.5,62.178 660.043,79.967 724.304,178.877 868.893,158.37 897.55,255.128 908.839,249.123 919.911,244.818 996.765,212.867 1066.128,278.128 1089.684,274.956 1099.345,278.695 1102.71,279.488 1105.858,280.508 1138.205,288.552 1159.047,313.251 1202.901,300.108 1224.937,327.867 1244.476,326.734 1259.022,336.704 1267.271,331.039 1284.965,339.197 1287.028,339.877 1289.416,349.847 1295.494,348.487 1301.573,347.241 1301.573,352.453 1301.573,357.665 1301.139,361.517 1300.705,365.369 1299.728,373.753 1299.728,377.492Z" test="Smoke_2323"/>
    </g>
  </g>
</svg>