<?xml version="1.0" encoding="utf-8"?>
<svg id="EdithAnim11" image-rendering="inherit" baseProfile="basic" version="1.1" x="0px" y="0px" width="800" height="600" xmlns="http://www.w3.org/2000/svg" xmlns:xlink="http://www.w3.org/1999/xlink">
  <g id="19_Motorbikesf103r1" overflow="visible">
    <g id="Smokef12r1">
      <path fill="#000" stroke="none" d="M187.807,-39.22 Q165.133,-111.959 54.567,-96.126 -.436,-180.175 -136.146,-190.294 -136.146,268.405 -136.146,727.105 -95.961,790.916 -25.131,744.367 70.169,751.391 82.292,691.152 165.694,716.629 219.799,669.723 261.892,682.699 284.791,636.865 296.578,652.223 323.069,642.222 345.182,639.96 358.427,626.032 367.295,643.77 388.174,628.532 400.746,622.817 413.205,617.103 418.818,630.079 435.431,620.198 439.921,618.65 444.299,616.984 501.322,669.723 590.336,607.103 663.972,609.722 704.719,585.793 743.22,563.649 752.2,517.577 877.696,551.268 959.189,476.862 1022.611,493.886 1056.959,422.813 1074.807,444.837 1114.543,428.766 1147.657,424.123 1167.638,402.098 1180.883,427.694 1212.089,403.884 1230.947,394.479 1249.692,385.074 1258.223,404.003 1283.143,388.408 1296.501,383.289 1309.746,377.931 1329.502,377.098 1349.146,376.146 1349.146,372.217 1350.156,363.407 1350.605,359.36 1351.054,355.312 1351.054,349.836 1351.054,344.359 1344.319,345.788 1337.472,347.335 1334.778,335.907 1332.533,335.073 1312.665,325.787 1303.46,332.097 1287.296,320.787 1265.407,321.978 1240.825,290.072 1191.771,305.073 1168.423,276.739 1132.279,267.453 1128.687,266.262 1124.983,265.429 1114.094,261.381 1087.491,265.191 1009.59,191.737 923.157,228.405 910.81,233.405 898.238,240.31 866.92,129.831 704.606,153.522 633.44,40.544 468.881,19.472 457.769,11.734 442.839,12.329 425.777,-9.338 392.327,.305 374.704,-21.005 346.417,-26.839 338.447,-29.101 320.038,-26.243 257.851,-78.03 187.807,-39.22Z" test="Smoke_2323" stroke-width="2.313"/>
      <path id="Layer1_0_1_STROKES" stroke="#FFF" stroke-width="2.313" stroke-linejoin="round" stroke-linecap="round" fill="none" d="M1349.146,376.146 Q1329.502,377.098 1309.746,377.931 1296.501,383.289 1283.143,388.408 1258.223,404.003 1249.692,385.074 1230.947,394.479 1212.089,403.884 1180.883,427.694 1167.638,402.098 1147.657,424.123 1114.543,428.766 1074.807,444.837 1056.959,422.813 1022.611,493.886 959.189,476.862 877.696,551.268 752.2,517.577 743.22,563.649 704.719,585.793 663.972,609.722 590.336,607.103 501.322,669.723 444.299,616.984 439.921,618.65 435.431,620.198 418.818,630.079 413.205,617.103 400.746,622.817 388.174,628.532 367.295,643.77 358.427,626.032 345.182,639.96 323.069,642.222 296.578,652.223 284.791,636.865 261.892,682.699 219.799,669.723 165.694,716.629 82.292,691.152 70.169,751.391 -25.131,744.367 -95.961,790.916 -136.146,727.105 -136.146,268.405 -136.146,-190.294 -.436,-180.175 54.567,-96.126 165.133,-111.959 187.807,-39.22 257.851,-78.03 320.038,-26.243 338.447,-29.101 346.417,-26.839 374.704,-21.005 392.327,.305 425.777,-9.338 442.839,12.329 457.769,11.734 468.881,19.472 633.44,40.544 704.606,153.522 866.92,129.831 898.238,240.31 910.81,233.405 923.157,228.405 1009.59,191.737 1087.491,265.191 1114.094,261.381 1124.983,265.429 1128.687,266.262 1132.279,267.453 1168.423,276.739 1191.771,305.073 1240.825,290.072 1265.407,321.978 1287.296,320.787 1303.46,332.097 1312.665,325.787 1332.533,335.073 1334.778,335.907 1337.472,347.335 1344.319,345.788 1351.054,344.359 1351.054,349.836 1351.054,355.312 1350.605,359.36 1350.156,363.407 1349.146,372.217 1349.146,376.146Z" test="Smoke_2323"/>
    </g>
  </g>
</svg>