<?xml version="1.0" encoding="utf-8"?>
<svg id="EdithAnim11" image-rendering="inherit" baseProfile="basic" version="1.1" x="0px" y="0px" width="800" height="600" xmlns="http://www.w3.org/2000/svg" xmlns:xlink="http://www.w3.org/1999/xlink">
  <g id="19_Motorbikesf104r1" overflow="visible">
    <g id="Smokef13r1">
      <path fill="#000" stroke="none" d="M161.482,-79.972 Q140.022,-146.74 38.87,-132.388 -12.17,-209.64 -136.29,-219 -136.29,261.855 -136.29,742.709 -99.518,801.864 -35.138,759.682 51.514,766.796 62.882,712.008 138.746,736.095 188.162,693.663 226.442,705.893 247.322,664.085 258.226,678.437 282.354,669.452 302.422,667.455 314.602,654.85 322.722,671.199 341.746,657.346 353.114,652.229 364.598,647.112 369.818,659.218 384.898,650.232 388.842,648.735 392.902,647.362 456.122,707.391 555.302,636.504 637.43,639.624 682.67,612.668 725.474,587.583 735.102,535.292 874.882,573.48 965.362,488.991 1035.774,508.335 1073.938,427.714 1093.658,452.674 1137.854,434.453 1174.742,429.212 1196.898,404.127 1211.514,433.205 1246.314,406.248 1267.194,395.64 1288.074,384.908 1297.47,406.373 1325.194,388.776 1340.042,382.786 1354.774,376.796 1376.698,375.797 1398.622,374.799 1398.622,370.68 1399.666,361.445 1400.13,357.202 1400.594,352.959 1400.594,347.218 1400.594,341.477 1393.054,343.1 1385.514,344.847 1382.498,331.868 1380.062,330.869 1357.906,320.261 1347.698,327.5 1329.718,314.52 1305.358,315.893 1278.214,279.576 1223.578,296.674 1197.826,264.351 1157.574,253.618 1153.514,252.495 1149.454,251.496 1137.274,247.004 1107.578,251.496 1020.694,169.378 924.066,211.186 910.262,216.802 896.342,224.789 862.238,99.864 681.278,126.821 602.978,-1.224 419.582,-25.56 409.374,-32.798 395.57,-32.174 379.91,-52.142 349.286,-43.281 332.93,-62.875 307.062,-68.366 299.754,-70.488 282.934,-67.867 225.746,-115.416 161.482,-79.972Z" test="Smoke_2323" stroke-width="2.408"/>
      <path id="Layer1_0_1_STROKES" stroke="#FFF" stroke-width="2.408" stroke-linejoin="round" stroke-linecap="round" fill="none" d="M1398.622,374.799 Q1376.698,375.797 1354.774,376.796 1340.042,382.786 1325.194,388.776 1297.47,406.373 1288.074,384.908 1267.194,395.64 1246.314,406.248 1211.514,433.205 1196.898,404.127 1174.742,429.212 1137.854,434.453 1093.658,452.674 1073.938,427.714 1035.774,508.335 965.362,488.991 874.882,573.48 735.102,535.292 725.474,587.583 682.67,612.668 637.43,639.624 555.302,636.504 456.122,707.391 392.902,647.362 388.842,648.735 384.898,650.232 369.818,659.218 364.598,647.112 353.114,652.229 341.746,657.346 322.722,671.199 314.602,654.85 302.422,667.455 282.354,669.452 258.226,678.437 247.322,664.085 226.442,705.893 188.162,693.663 138.746,736.095 62.882,712.008 51.514,766.796 -35.138,759.682 -99.518,801.864 -136.29,742.709 -136.29,261.855 -136.29,-219 -12.17,-209.64 38.87,-132.388 140.022,-146.74 161.482,-79.972 225.746,-115.416 282.934,-67.867 299.754,-70.488 307.062,-68.366 332.93,-62.875 349.286,-43.281 379.91,-52.142 395.57,-32.174 409.374,-32.798 419.582,-25.56 602.978,-1.224 681.278,126.821 862.238,99.864 896.342,224.789 910.262,216.802 924.066,211.186 1020.694,169.378 1107.578,251.496 1137.274,247.004 1149.454,251.496 1153.514,252.495 1157.574,253.618 1197.826,264.351 1223.578,296.674 1278.214,279.576 1305.358,315.893 1329.718,314.52 1347.698,327.5 1357.906,320.261 1380.062,330.869 1382.498,331.868 1385.514,344.847 1393.054,343.1 1400.594,341.477 1400.594,347.218 1400.594,352.959 1400.13,357.202 1399.666,361.445 1398.622,370.68 1398.622,374.799Z" test="Smoke_2323"/>
    </g>
  </g>
</svg>