<?xml version="1.0" encoding="utf-8"?>
<svg id="EdithAnim11" image-rendering="inherit" baseProfile="basic" version="1.1" x="0px" y="0px" width="800" height="600" xmlns="http://www.w3.org/2000/svg" xmlns:xlink="http://www.w3.org/1999/xlink">
  <g id="19_Motorbikesf105r1" overflow="visible">
    <g id="Smokef14r1">
      <path fill="#000" stroke="none" d="M242.285,-111.461 Q190.673,-154.281 132.714,-122.557 112.476,-182.61 21.826,-169.817 -24.997,-239.269 -136.484,-247.755 -136.484,255.254 -136.484,758.263 -103.553,812.05 -46.072,774.843 31.047,782.024 41.584,733.59 109.243,755.914 153.551,718.576 187.799,729.934 206.6,692.858 216.419,705.782 237.855,697.949 255.817,696.383 266.834,685.286 274.139,700.169 291.143,687.897 301.322,683.458 311.621,679.02 316.291,689.855 329.703,681.892 333.295,680.717 336.888,679.411 406.702,747.297 516.513,667.662 607.284,671.317 657.219,641.03 704.52,612.831 715.059,553.953 869.656,597.034 969.408,501.863 1047.365,523.665 1089.277,432.933 1110.952,461.001 1159.93,440.505 1200.765,434.63 1225.193,406.431 1241.24,439.199 1279.68,408.781 1302.792,396.771 1325.903,384.76 1336.202,408.912 1366.858,389.068 1383.264,382.41 1399.669,375.621 1423.859,374.577 1448.048,373.402 1448.048,369.094 1449.126,359.433 1449.605,354.995 1450.084,350.556 1450.084,344.551 1450.084,338.545 1441.821,340.373 1433.439,342.331 1430.086,327.71 1427.451,326.535 1402.903,314.655 1391.766,322.618 1371.887,308.127 1344.943,309.563 1315.006,268.57 1254.532,287.761 1226.152,251.338 1181.724,239.197 1177.294,237.891 1172.623,236.847 1159.211,232.016 1126.16,237.238 1029.881,145.853 922.705,193.113 907.497,199.509 892.169,208.517 855.046,68.176 654.705,98.855 568.844,-45.141 365.628,-73.21 356.407,-79.606 344.073,-79.215 329.703,-97.1 302.28,-89.267 287.431,-106.891 264.08,-111.722 257.374,-113.68 242.285,-111.461Z" test="Smoke_1" stroke-width="2.503"/>
      <path id="Layer1_0_1_STROKES" stroke="#FFF" stroke-width="2.503" stroke-linejoin="round" stroke-linecap="round" fill="none" d="M1448.048,373.402 Q1423.859,374.577 1399.669,375.621 1383.264,382.41 1366.858,389.068 1336.202,408.912 1325.903,384.76 1302.792,396.771 1279.68,408.781 1241.24,439.199 1225.193,406.431 1200.765,434.63 1159.93,440.505 1110.952,461.001 1089.277,432.933 1047.365,523.665 969.408,501.863 869.656,597.034 715.059,553.953 704.52,612.831 657.219,641.03 607.284,671.317 516.513,667.662 406.702,747.297 336.888,679.411 333.295,680.717 329.703,681.892 316.291,689.855 311.621,679.02 301.322,683.458 291.143,687.897 274.139,700.169 266.834,685.286 255.817,696.383 237.855,697.949 216.419,705.782 206.6,692.858 187.799,729.934 153.551,718.576 109.243,755.914 41.584,733.59 31.047,782.024 -46.072,774.843 -103.553,812.05 -136.484,758.263 -136.484,255.254 -136.484,-247.755 -24.997,-239.269 21.826,-169.817 112.476,-182.61 132.714,-122.557 190.673,-154.281 242.285,-111.461 257.374,-113.68 264.08,-111.722 287.431,-106.891 302.28,-89.267 329.703,-97.1 344.073,-79.215 356.407,-79.606 365.628,-73.21 568.844,-45.141 654.705,98.855 855.046,68.176 892.169,208.517 907.497,199.509 922.705,193.113 1029.881,145.853 1126.16,237.238 1159.211,232.016 1172.623,236.847 1177.294,237.891 1181.724,239.197 1226.152,251.338 1254.532,287.761 1315.006,268.57 1344.943,309.563 1371.887,308.127 1391.766,322.618 1402.903,314.655 1427.451,326.535 1430.086,327.71 1433.439,342.331 1441.821,340.373 1450.084,338.545 1450.084,344.551 1450.084,350.556 1449.605,354.995 1449.126,359.433 1448.048,369.094 1448.048,373.402Z" test="Smoke_1"/>
    </g>
  </g>
</svg>