<?xml version="1.0" encoding="utf-8"?>
<svg id="EdithAnim11" image-rendering="inherit" baseProfile="basic" version="1.1" x="0px" y="0px" width="800" height="600" xmlns="http://www.w3.org/2000/svg" xmlns:xlink="http://www.w3.org/1999/xlink">
  <g id="19_Motorbikesf106r1" overflow="visible">
    <g id="Smokef15r1">
      <path fill="#000" stroke="none" d="M251.856,-137.348 Q238.523,-152.75 218.03,-157.111 211.981,-158.883 198.772,-156.839 153.219,-194.321 102.111,-166.925 83.346,-219.264 3.968,-208.224 -38.128,-268.877 -136.024,-276.51 -136.024,248.654 -136.024,773.818 -107.137,821.523 -57.263,790.037 9.523,797.125 19.276,755.826 78.038,776.135 116.801,744.513 146.553,754.872 163.095,723.114 171.737,734.563 190.378,728.021 206.056,726.794 215.685,717.39 222.104,730.474 236.918,720.116 245.807,716.435 254.818,712.619 258.892,722.296 270.62,715.481 273.706,714.527 276.793,713.437 353.455,789.492 474.189,700.625 574.184,704.986 628.995,671.184 680.968,639.562 692.202,573.729 862.192,621.979 971.816,515.529 1057.49,540.063 1103.29,438.52 1127.116,469.869 1180.94,446.97 1225.876,440.428 1252.665,408.943 1270.195,445.607 1312.538,411.532 1337.969,398.175 1363.276,384.681 1374.51,411.805 1408.335,389.588 1426.359,382.092 1444.259,374.595 1470.924,373.232 1497.466,372.005 1497.466,367.507 1498.577,357.421 1499.071,352.787 1499.565,348.153 1499.565,341.883 1499.565,335.613 1490.43,337.658 1481.171,339.838 1477.591,323.482 1474.751,322.119 1447.839,308.762 1435.494,317.758 1413.644,301.402 1384.139,303.037 1351.425,257.104 1284.885,278.504 1253.652,237.75 1204.89,224.12 1199.952,222.62 1194.89,221.394 1179.953,216.214 1143.535,222.212 1037.491,121.35 919.35,174.234 902.684,181.458 885.771,191.68 845.774,34.935 625.045,69.419 531.47,-91.415 307.778,-123.173 299.631,-128.897 288.644,-128.488 275.928,-144.163 251.856,-137.348Z" test="Smoke_1" stroke-width="2.597"/>
      <path id="Layer1_0_1_STROKES" stroke="#FFF" stroke-width="2.597" stroke-linejoin="round" stroke-linecap="round" fill="none" d="M1497.466,372.005 Q1470.924,373.232 1444.259,374.595 1426.359,382.092 1408.335,389.588 1374.51,411.805 1363.276,384.681 1337.969,398.175 1312.538,411.532 1270.195,445.607 1252.665,408.943 1225.876,440.428 1180.94,446.97 1127.116,469.869 1103.29,438.52 1057.49,540.063 971.816,515.529 862.192,621.979 692.202,573.729 680.968,639.562 628.995,671.184 574.184,704.986 474.189,700.625 353.455,789.492 276.793,713.437 273.706,714.527 270.62,715.481 258.892,722.296 254.818,712.619 245.807,716.435 236.918,720.116 222.104,730.474 215.685,717.39 206.056,726.794 190.378,728.021 171.737,734.563 163.095,723.114 146.553,754.872 116.801,744.513 78.038,776.135 19.276,755.826 9.523,797.125 -57.263,790.037 -107.137,821.523 -136.024,773.818 -136.024,248.654 -136.024,-276.51 -38.128,-268.877 3.968,-208.224 83.346,-219.264 102.111,-166.925 153.219,-194.321 198.772,-156.839 211.981,-158.883 218.03,-157.111 238.523,-152.75 251.856,-137.348 275.928,-144.163 288.644,-128.488 299.631,-128.897 307.778,-123.173 531.47,-91.415 625.045,69.419 845.774,34.935 885.771,191.68 902.684,181.458 919.35,174.234 1037.491,121.35 1143.535,222.212 1179.953,216.214 1194.89,221.394 1199.952,222.62 1204.89,224.12 1253.652,237.75 1284.885,278.504 1351.425,257.104 1384.139,303.037 1413.644,301.402 1435.494,317.758 1447.839,308.762 1474.751,322.119 1477.591,323.482 1481.171,339.838 1490.43,337.658 1499.565,335.613 1499.565,341.883 1499.565,348.153 1499.071,352.787 1498.577,357.421 1497.466,367.507 1497.466,372.005Z" test="Smoke_1"/>
    </g>
  </g>
</svg>