<?xml version="1.0" encoding="utf-8"?>
<svg id="EdithAnim11" image-rendering="inherit" baseProfile="basic" version="1.1" x="0px" y="0px" width="800" height="600" xmlns="http://www.w3.org/2000/svg" xmlns:xlink="http://www.w3.org/1999/xlink">
  <g id="19_Motorbikesf107r1" overflow="visible">
    <g id="Smokef16r1">
      <path fill="#000" stroke="none" d="M68.624,-212.925 Q51.325,-256.818 -15.837,-247.727 -52.979,-298.581 -136.168,-305.115 -136.168,242.203 -136.168,789.522 -111.746,830.29 -69.897,805.147 -14.056,812.108 -5.406,778.726 43.947,796.909 76.638,771.624 101.696,780.857 115.815,754.862 123.193,764.805 138.711,759.549 151.94,758.839 160.081,751.311 165.678,762.532 178.016,754.009 185.648,751.168 193.153,748.185 196.714,756.424 206.509,751.026 209.18,750.174 211.724,749.322 295.549,834.126 427.71,735.543 537.229,740.515 597.14,703.156 653.998,668.069 666.082,594.771 852.303,648.466 971.998,530.139 1065.745,557.412 1115.862,444.482 1141.81,479.427 1200.704,454 1249.803,446.755 1279.059,411.669 1298.266,452.437 1344.694,414.51 1372.424,399.737 1400.154,384.821 1412.365,414.936 1449.38,390.219 1469.096,381.981 1488.685,373.6 1517.814,372.179 1546.942,370.759 1546.942,366.071 1548.087,355.559 1548.596,350.73 1549.105,345.9 1549.105,339.366 1549.105,332.831 1539.056,335.104 1529.007,337.377 1525.064,319.336 1522.011,317.774 1492.501,302.859 1479.018,312.944 1455.231,294.62 1422.795,296.466 1387.179,245.328 1314.294,269.051 1280.331,223.737 1226.907,208.537 1221.438,206.833 1215.841,205.554 1199.559,199.872 1159.618,206.691 1043.23,95.75 913.614,154.7 895.424,162.797 876.853,174.161 833.732,.434 591.798,38.788 490.165,-139.627 245.05,-175.566 237.927,-180.395 228.642,-179.969 217.448,-193.18 196.969,-187.64 185.521,-200.567 167.967,-204.26 162.752,-205.822 151.558,-204.118 112.381,-235.511 68.624,-212.925Z" test="Smoke_1" stroke-width="2.692"/>
      <path id="Layer1_0_1_STROKES" stroke="#FFF" stroke-width="2.692" stroke-linejoin="round" stroke-linecap="round" fill="none" d="M1546.942,370.759 Q1517.814,372.179 1488.685,373.6 1469.096,381.981 1449.38,390.219 1412.365,414.936 1400.154,384.821 1372.424,399.737 1344.694,414.51 1298.266,452.437 1279.059,411.669 1249.803,446.755 1200.704,454 1141.81,479.427 1115.862,444.482 1065.745,557.412 971.998,530.139 852.303,648.466 666.082,594.771 653.998,668.069 597.14,703.156 537.229,740.515 427.71,735.543 295.549,834.126 211.724,749.322 209.18,750.174 206.509,751.026 196.714,756.424 193.153,748.185 185.648,751.168 178.016,754.009 165.678,762.532 160.081,751.311 151.94,758.839 138.711,759.549 123.193,764.805 115.815,754.862 101.696,780.857 76.638,771.624 43.947,796.909 -5.406,778.726 -14.056,812.108 -69.897,805.147 -111.746,830.29 -136.168,789.522 -136.168,242.203 -136.168,-305.115 -52.979,-298.581 -15.837,-247.727 51.325,-256.818 68.624,-212.925 112.381,-235.511 151.558,-204.118 162.752,-205.822 167.967,-204.26 185.521,-200.567 196.969,-187.64 217.448,-193.18 228.642,-179.969 237.927,-180.395 245.05,-175.566 490.165,-139.627 591.798,38.788 833.732,.434 876.853,174.161 895.424,162.797 913.614,154.7 1043.23,95.75 1159.618,206.691 1199.559,199.872 1215.841,205.554 1221.438,206.833 1226.907,208.537 1280.331,223.737 1314.294,269.051 1387.179,245.328 1422.795,296.466 1455.231,294.62 1479.018,312.944 1492.501,302.859 1522.011,317.774 1525.064,319.336 1529.007,337.377 1539.056,335.104 1549.105,332.831 1549.105,339.366 1549.105,345.9 1548.596,350.73 1548.087,355.559 1546.942,366.071 1546.942,370.759Z" test="Smoke_1"/>
    </g>
  </g>
</svg>