<?xml version="1.0" encoding="utf-8"?>
<svg id="EdithAnim11" image-rendering="inherit" baseProfile="basic" version="1.1" x="0px" y="0px" width="800" height="600" xmlns="http://www.w3.org/2000/svg" xmlns:xlink="http://www.w3.org/1999/xlink">
  <g id="19_Motorbikesf108r1" overflow="visible">
    <g id="Smokef17r1">
      <path fill="#000" stroke="none" d="M32.695,-260.907 Q16.981,-295.493 -37.102,-288.546 -68.923,-328.6 -136.362,-333.921 -136.362,235.553 -136.362,805.026 -116.719,838.281 -83.458,819.954 -39.459,826.901 -31.733,802.218 7.29,817.885 33.742,799.558 53.516,807.539 65.17,788.029 71.063,796.158 83.503,792.463 93.979,792.315 100.658,786.699 105.241,795.715 115.062,789.507 121.217,787.586 127.241,785.517 130.121,792.168 137.848,788.029 140.074,787.586 142.038,786.995 233.31,880.995 377.355,772.215 496.912,777.683 562.126,736.595 623.934,697.723 637.029,616.729 840.001,676.145 970.297,545.489 1072.438,575.493 1126.782,450.75 1154.936,489.473 1219.364,461.243 1272.791,453.114 1304.612,414.539 1325.433,459.618 1375.98,417.642 1406.229,401.384 1436.479,384.831 1449.705,418.086 1490.037,390.891 1511.513,381.727 1532.858,372.416 1564.679,370.79 1596.369,369.312 1596.369,364.434 1597.547,353.497 1598.071,348.472 1598.595,343.447 1598.595,336.648 1598.595,329.849 1587.726,332.362 1576.726,334.874 1572.536,314.774 1569.131,313.296 1536.917,296.742 1522.251,307.679 1496.323,287.578 1461.097,289.5 1422.336,233.04 1342.849,259.053 1305.922,208.801 1247.649,192.1 1241.756,190.178 1235.601,188.848 1217.923,182.788 1174.186,190.474 1047.164,68.834 905.607,134.162 885.834,143.178 865.668,155.741 819.18,-35.956 555.316,6.611 445.187,-190.407 177.656,-230.461 171.764,-234.303 164.169,-234.156 154.74,-244.502 138.24,-240.363 128.55,-250.414 114.277,-253.517 109.824,-254.7 100.789,-253.517 68.444,-278.348 32.695,-260.907Z" test="Smoke_1" stroke-width="2.787"/>
      <path id="Layer1_0_1_STROKES" stroke="#FFF" stroke-width="2.787" stroke-linejoin="round" stroke-linecap="round" fill="none" d="M1596.369,369.312 Q1564.679,370.79 1532.858,372.416 1511.513,381.727 1490.037,390.891 1449.705,418.086 1436.479,384.831 1406.229,401.384 1375.98,417.642 1325.433,459.618 1304.612,414.539 1272.791,453.114 1219.364,461.243 1154.936,489.473 1126.782,450.75 1072.438,575.493 970.297,545.489 840.001,676.145 637.029,616.729 623.934,697.723 562.126,736.595 496.912,777.683 377.355,772.215 233.31,880.995 142.038,786.995 140.074,787.586 137.848,788.029 130.121,792.168 127.241,785.517 121.217,787.586 115.062,789.507 105.241,795.715 100.658,786.699 93.979,792.315 83.503,792.463 71.063,796.158 65.17,788.029 53.516,807.539 33.742,799.558 7.29,817.885 -31.733,802.218 -39.459,826.901 -83.458,819.954 -116.719,838.281 -136.362,805.026 -136.362,235.553 -136.362,-333.921 -68.923,-328.6 -37.102,-288.546 16.981,-295.493 32.695,-260.907 68.444,-278.348 100.789,-253.517 109.824,-254.7 114.277,-253.517 128.55,-250.414 138.24,-240.363 154.74,-244.502 164.169,-234.156 171.764,-234.303 177.656,-230.461 445.187,-190.407 555.316,6.611 819.18,-35.956 865.668,155.741 885.834,143.178 905.607,134.162 1047.164,68.834 1174.186,190.474 1217.923,182.788 1235.601,188.848 1241.756,190.178 1247.649,192.1 1305.922,208.801 1342.849,259.053 1422.336,233.04 1461.097,289.5 1496.323,287.578 1522.251,307.679 1536.917,296.742 1569.131,313.296 1572.536,314.774 1576.726,334.874 1587.726,332.362 1598.595,329.849 1598.595,336.648 1598.595,343.447 1598.071,348.472 1597.547,353.497 1596.369,364.434 1596.369,369.312Z" test="Smoke_1"/>
    </g>
  </g>
</svg>