<?xml version="1.0" encoding="utf-8"?>
<svg id="EdithAnim11" image-rendering="inherit" baseProfile="basic" version="1.1" x="0px" y="0px" width="800" height="600" xmlns="http://www.w3.org/2000/svg" xmlns:xlink="http://www.w3.org/1999/xlink">
  <g id="19_Motorbikesf109r1" overflow="visible">
    <g id="Smokef18r1">
      <path fill="#000" stroke="none" d="M95.633,-290.507 Q88.089,-297.878 75.697,-295.114 68.019,-302.331 57.108,-304.48 53.472,-305.555 46.737,-304.788 21.817,-322.292 -5.527,-310.622 -19.401,-334.883 -59.811,-330.43 -85.808,-358.684 -136.455,-362.676 -136.455,228.952 -136.455,820.58 -121.773,845.609 -97.797,834.707 -66.411,841.617 -59.811,826.415 -31.524,839.314 -11.993,828.565 2.42,835.168 11.176,822.73 15.756,828.719 24.78,826.722 32.324,827.183 37.442,823.805 40.944,830.561 48.084,826.722 52.529,825.648 57.108,824.573 59.398,829.486 64.921,827.03 66.403,826.722 68.019,826.415 166.754,930.062 323.41,810.6 453.261,816.742 523.979,771.598 591.059,728.911 604.933,640.006 825.437,705.264 966.603,561.542 1077.596,594.555 1136.325,457.435 1166.902,499.968 1236.811,468.951 1294.867,460.045 1329.35,417.512 1351.845,467.108 1406.802,421.043 1439.535,403.078 1472.401,384.959 1486.68,421.504 1530.457,391.562 1553.76,381.427 1577.063,371.293 1611.546,369.604 1645.895,367.915 1645.895,362.848 1647.107,351.485 1647.646,346.265 1648.185,341.044 1648.185,333.981 1648.185,326.917 1636.331,329.681 1624.478,332.445 1619.898,310.334 1616.261,308.645 1581.239,290.372 1565.479,302.503 1537.327,280.238 1499.072,282.388 1457.046,220.2 1370.703,248.914 1330.697,193.482 1267.523,174.903 1261.192,173.06 1254.457,171.525 1235.195,164.922 1187.511,173.521 1049.578,40.854 895.481,112.869 873.929,122.696 852.108,136.669 802.269,-73.848 515.493,-26.708 396.822,-243.214 106.005,-287.897 101.425,-290.661 95.633,-290.507Z" test="Smoke_1" stroke-width="2.882"/>
      <path id="Layer1_0_1_STROKES" stroke="#FFF" stroke-width="2.882" stroke-linejoin="round" stroke-linecap="round" fill="none" d="M1645.895,367.915 Q1611.546,369.604 1577.063,371.293 1553.76,381.427 1530.457,391.562 1486.68,421.504 1472.401,384.959 1439.535,403.078 1406.802,421.043 1351.845,467.108 1329.35,417.512 1294.867,460.045 1236.811,468.951 1166.902,499.968 1136.325,457.435 1077.596,594.555 966.603,561.542 825.437,705.264 604.933,640.006 591.059,728.911 523.979,771.598 453.261,816.742 323.41,810.6 166.754,930.062 68.019,826.415 66.403,826.722 64.921,827.03 59.398,829.486 57.108,824.573 52.529,825.648 48.084,826.722 40.944,830.561 37.442,823.805 32.324,827.183 24.78,826.722 15.756,828.719 11.176,822.73 2.42,835.168 -11.993,828.565 -31.524,839.314 -59.811,826.415 -66.411,841.617 -97.797,834.707 -121.773,845.609 -136.455,820.58 -136.455,228.952 -136.455,-362.676 -85.808,-358.684 -59.811,-330.43 -19.401,-334.883 -5.527,-310.622 21.817,-322.292 46.737,-304.788 53.472,-305.555 57.108,-304.48 68.019,-302.331 75.697,-295.114 88.089,-297.878 95.633,-290.507 101.425,-290.661 106.005,-287.897 396.822,-243.214 515.493,-26.708 802.269,-73.848 852.108,136.669 873.929,122.696 895.481,112.869 1049.578,40.854 1187.511,173.521 1235.195,164.922 1254.457,171.525 1261.192,173.06 1267.523,174.903 1330.697,193.482 1370.703,248.914 1457.046,220.2 1499.072,282.388 1537.327,280.238 1565.479,302.503 1581.239,290.372 1616.261,308.645 1619.898,310.334 1624.478,332.445 1636.331,329.681 1648.185,326.917 1648.185,333.981 1648.185,341.044 1647.646,346.265 1647.107,351.485 1645.895,362.848 1645.895,367.915Z" test="Smoke_1"/>
    </g>
  </g>
</svg>