<?xml version="1.0" encoding="utf-8"?>
<svg id="EdithAnim11" image-rendering="inherit" baseProfile="basic" version="1.1" x="0px" y="0px" width="800" height="600" xmlns="http://www.w3.org/2000/svg" xmlns:xlink="http://www.w3.org/1999/xlink">
  <defs>
    <g id="Bike-Wheel" overflow="visible">
      <path id="Layer4_0_1_STROKES" stroke="#FFF" stroke-width="1" stroke-linejoin="round" stroke-linecap="round" fill="none" d="M2.05 -34.85Q-12.35 -34.85 -22.65 -26.45 -34 -17.2 -34.7 -1.55 -35.4 14.3 -26.6 24.6 -18.4 34.2 -5.6 34.85 7.15 35.5 19.2 29.8 31.25 24.1 34.05 7.25 36.85 -9.65 28.9 -21.15 19.4 -34.85 2.05 -34.85Z" test="Bike Wheel"/>
      <path id="Layer3_0_1_STROKES" stroke="#FFF" stroke-width="1" stroke-linejoin="round" stroke-linecap="round" fill="none" d="M.55 -26.55Q4.65 -26.85 7.1 -26.15 9.75 -25.4 12 -23.15 13.95 -21.25 8 -15.35 5.3 -12.6 2.25 -10.2 1.95 -10 1.7 -9.8M24.45 -8.9Q26.2 -5.15 26.45 -2.65 26.7 .1 25.4 3.05 24.35 5.5 16.7 2.1 13.2 .6 9.85 -1.4 9.5 -1.6 9.25 -1.75M18.45 20Q15.75 23.1 13.55 24.35 11.2 25.75 8 25.75 5.3 25.75 5.25 17.4 5.2 13.55 5.65 9.7 5.7 9.35 5.75 9M-25.15 -7.15Q-24.25 -11.2 -22.85 -13.3 -21.4 -15.6 -18.6 -17.1 -16.2 -18.45 -12.25 -11.05 -10.4 -7.65 -9 -4.1 -8.9 -3.7 -8.75 -3.4M-12.85 23.8Q-16.75 22.4 -18.7 20.8 -20.85 19.05 -22.05 16.1 -23.1 13.6 -15.3 10.55 -11.75 9.05 -8 8.05 -7.65 8 -7.3 7.95" test="Bike Wheel"/>
    </g>
  </defs>
  <g id="19_Motorbikesf11r1" overflow="visible">
    <g id="MotorBikeBluef0r1">
      <path fill="#000" stroke="none" d="M154.7,274.55 L154.05,273.7 147.3,278.9 157.45,286.9 159,289.3 Q163.425,286.543 166.4,284.65 L165.35,283.1 154.7,274.55 M128.6,239.5 Q127.25,243.2 112.85,239.15 L113.85,243.95 Q120.7,249.85 133.1,246.7 L134.2,238.85 130.2,234 Q129.8,233.95 129.45,233.9 L128.6,239.5 M154.9,224.1 Q138.15,210.8 131,208.6 125.45,206.9 123.6,208.65 123.15,209.1 122.2,210.65 121.3,212.2 120.35,213.05 120.6,217.15 122.5,219.65 123.9,221.45 129.3,226.8 130.033,227.555 133.35,231.65 133.403,231.685 133.4,231.7 138.085,237.389 147.7,249.4 161.8,267.05 164,267.65 167.7,268.7 174.4,268.05 182.05,267.35 183.2,264.55 184.4,261.65 182.9,257.7 181.8,254.75 176.7,245.7 172.3,237.9 154.9,224.1Z" test="BlueBikeContainer"/>
      <path id="Layer2_0_1_STROKES" stroke="#0FF" stroke-width="1" stroke-linejoin="round" stroke-linecap="round" fill="none" d="M120.35,213.05 Q121.3,212.2 122.2,210.65 123.15,209.1 123.6,208.65 125.45,206.9 131,208.6 138.15,210.8 154.9,224.1 172.3,237.9 176.7,245.7 181.8,254.75 182.9,257.7 184.4,261.65 183.2,264.55 182.05,267.35 174.4,268.05 167.7,268.7 164,267.65 161.8,267.05 147.7,249.4 138.085,237.389 133.425,231.725 133.403,231.685 133.375,231.65 130.033,227.555 129.3,226.8 123.9,221.45 122.5,219.65 120.6,217.15 120.35,213.05Z" test="BlueBikeContainer"/>
      <path id="Layer2_0_2_STROKES" stroke="#009EFF" stroke-width="1" stroke-linejoin="round" stroke-linecap="round" fill="none" d="M129.45,233.9 Q121,233.3 112.3,232.85 93.55,231.95 91.85,233 90.05,234 89.3,236.5 88.95,237.75 88.6,241.05 88.35,243.3 86.6,247.85 84.75,252.45 83.75,253.1 83.408,253.345 80.475,252.925 80.414,252.91 80.35,252.9 L80.15,255.4 Q79.9,258.4 79.6,260.95 64.4,263.85 42.65,258.2 20.9,252.5 17.75,249.6 14.6,246.7 14.35,241.95 14.25,240.5 14.75,236.6 14.8,236.3 16.3,234.45 17.85,232.55 18,231.8 18.025,231.703 18.025,231.625 18.089,230.484 14.6,231.6 9.65,233.1 -8.8,236.3 -18.05,237.85 -26.3,239.15 -26.95,250.85 -27.3,250.85 -27.65,250.85 -11.15,257 4.25,263.35 4.5,263.45 18.2,269.6 21.45,273.5 24.15,276.75 26.35,279.65 26.6,280 26.9,280.35 28.8,282.9 30.3,285.15 33,289.2 34.85,292.95 35.4,294 35.85,295.05 36.9,297.4 37.6,299.6 40.7,309.55 42.4,327.4 42.4,328.05 81.4,327.1 100.85,326.65 120.35,326.05 120,323.9 120.15,320.6 120.4,314 122.75,308.2 125.25,302.05 132,294 136.65,288.5 141.65,283.8 141.8,283.6 142,283.45 143.9,281.7 147.3,278.9 L154.05,273.7 157.45,271.1 Q149.098,259.404 143.875,252.125 143.851,252.087 143.825,252.05 136.822,242.323 135.45,240.55 L134.45,239.2 M130.2,234 Q130.4,234 130.65,234 L134.2,238.85 M130.2,234 Q129.8,233.95 129.45,233.9 M18,231.8 Q26.1,236.45 33.8,240.1 46.6,246.3 54.25,247.95 L80.5,252.4 M34.85,280.15 L36.7,282.45 Q39.35,286 41.55,289.9 48.7,302.45 48.9,314.05 49.1,325.65 49.4,324.8 L49.6,321.6 84.65,321.95 Q85.5,318.85 85.8,314.7 86.4,306.4 83.45,300.25 80.45,294.05 72.45,289.85 64.4,285.65 56.1,284.9 47.75,284.1 39.85,281.9 L34.85,280.15Z" test="BlueBikeContainer"/>
      <path id="Layer2_0_3_STROKES" stroke="#FFF" stroke-width="1" stroke-linejoin="round" stroke-linecap="round" fill="none" d="M134.45,239.2 L134.2,238.85 133.1,246.7 Q120.7,249.85 113.85,243.95 L112.85,239.15 Q127.25,243.2 128.6,239.5 L129.45,233.9 129.65,233.3 130.2,234 134.2,238.85 M165.35,283.1 L154.7,274.55 M147.3,278.9 L157.45,286.9" test="BlueBikeContainer"/>
      <use xlink:href="#Bike-Wheel" transform="translate(183.6 314.8)"/>
      <use xlink:href="#Bike-Wheel" transform="translate(-5.95 318.6)"/>
    </g>
    <g id="MotorBikePinkf0r1">
      <path fill="#000" stroke="none" d="M-81.846,341.261 Q-81.544,346 -77.739,350.502 -73.934,354.005 -47.66,360.891 -21.386,367.716 -3.024,364.213 -2.662,361.132 -2.36,357.508 L-2.118,354.488 Q-2.041,354.5 -1.997,354.488 L-1.937,353.884 -33.647,348.509 Q-42.888,346.516 -58.35,339.026 -67.652,334.617 -77.437,329 -77.618,329.906 -79.49,332.201 -81.302,334.436 -81.363,334.798 -81.967,339.509 -81.846,341.261 M87.697,380.642 L86.912,379.615 78.758,385.896 91.019,395.56 92.891,398.46 Q98.237,395.129 101.83,392.842 L100.562,390.97 87.697,380.642 M56.168,338.301 Q54.537,342.771 37.142,337.878 L38.35,343.677 Q46.625,350.804 61.604,346 L62.933,337.516 58.101,331.657 Q57.618,331.597 57.195,331.536 L56.168,338.301 M37.142,337.878 Q54.537,342.771 56.168,338.301 L57.195,331.536 Q46.987,330.812 36.478,330.268 13.828,329.181 11.774,330.449 9.6,331.657 8.694,334.677 8.271,336.187 7.848,340.174 7.546,342.892 5.432,348.388 3.197,353.945 1.989,354.73 1.576,355.026 -1.997,354.488 -2.041,354.5 -2.118,354.488 L-2.36,357.508 Q-2.662,361.132 -3.024,364.213 -21.386,367.716 -47.66,360.891 -73.934,354.005 -77.739,350.502 -81.544,346 -81.846,341.261 -81.967,339.509 -81.363,334.798 -81.302,334.436 -79.49,332.201 -77.618,329.906 -77.437,329 -77.407,328.882 -77.437,328.758 -77.329,327.41 -81.544,328.758 -87.524,330.57 -109.811,334.436 -120.985,336.308 -130.951,337.878 -131.736,352.012 -132.159,352.012 -132.582,352.012 -112.65,359.441 -94.047,367.112 -93.745,367.233 -77.195,374.662 -73.269,379.373 -70.008,383.299 -67.35,386.802 -67.048,387.225 -66.686,387.648 -65.052,389.838 -63.666,391.816 -63.583,391.963 -63.545,392.057 -63.025,392.774 -62.578,393.446 -59.317,398.339 -57.082,402.869 -56.418,404.137 -55.874,405.406 -54.606,408.244 -53.76,410.902 -50.015,422.922 -47.962,444.484 -47.962,444.813 -39.687,444.786 -39.611,444.817 -39.566,444.786 -28.037,444.784 -.85,444.122 1.113,444.076 3.076,444.001 24.614,443.517 46.202,442.854 45.779,440.256 45.96,436.27 46.262,428.297 49.101,421.291 52.121,413.862 60.275,404.137 65.892,397.493 71.932,391.816 72.114,391.574 72.355,391.393 74.65,389.279 78.758,385.896 L86.912,379.615 91.019,376.474 Q80.93,362.345 74.59,353.522 74.591,353.506 74.53,353.462 66.1,341.711 64.443,339.57 L63.235,337.939 62.933,337.516 61.604,346 Q46.625,350.804 38.35,343.677 L37.142,337.878 M-11.661,399.124 Q-1.997,404.198 1.627,411.687 5.19,419.116 4.466,429.143 4.103,434.156 3.076,437.901 L-39.264,437.478 -39.506,441.344 Q-39.868,442.37 -40.11,428.358 -40.351,414.345 -48.988,399.184 -51.646,394.473 -54.847,390.185 L-57.203,387.286 -51.042,389.52 Q-41.499,392.178 -31.412,393.144 -21.386,394.05 -11.661,399.124 M1.627,411.687 Q-1.997,404.198 -11.661,399.124 -21.386,394.05 -31.412,393.144 -41.499,392.178 -51.042,389.52 L-57.203,387.286 -54.847,390.185 Q-51.646,394.473 -48.988,399.184 -40.351,414.345 -40.11,428.358 -39.868,442.37 -39.506,441.344 L-39.264,437.478 3.076,437.901 Q4.103,434.156 4.466,429.143 5.19,419.116 1.627,411.687 M87.938,319.698 Q67.704,303.632 59.067,300.974 52.363,298.92 50.128,301.034 49.584,301.578 48.437,303.45 47.35,305.323 46.202,306.35 46.504,311.302 48.799,314.322 50.49,316.497 57.014,322.96 57.899,323.872 61.906,328.818 61.97,328.861 61.966,328.879 67.626,335.751 79.241,350.26 96.274,371.582 98.931,372.306 103.401,373.575 111.494,372.79 120.736,371.944 122.125,368.562 123.574,365.058 121.762,360.287 120.434,356.723 114.273,345.791 108.958,336.368 87.938,319.698Z" test="RedBike container" stroke-width="1.208"/>
      <path id="Layer1_0_1_STROKES" stroke="#0FF" stroke-width="1.208" stroke-linejoin="round" stroke-linecap="round" fill="none" d="M46.202,306.35 Q47.35,305.323 48.437,303.45 49.584,301.578 50.128,301.034 52.363,298.92 59.067,300.974 67.704,303.632 87.938,319.698 108.958,336.368 114.273,345.791 120.434,356.723 121.762,360.287 123.574,365.058 122.125,368.562 120.736,371.944 111.494,372.79 103.401,373.575 98.931,372.306 96.274,371.582 79.241,350.26 67.626,335.751 61.997,328.909 61.97,328.861 61.936,328.818 57.899,323.872 57.014,322.96 50.49,316.497 48.799,314.322 46.504,311.302 46.202,306.35Z" test="RedBike container"/>
      <path id="Layer1_0_2_STROKES" stroke="#FFF" stroke-width="1.208" stroke-linejoin="round" stroke-linecap="round" fill="none" d="M62.933,337.516 L61.604,346 Q46.625,350.804 38.35,343.677 L37.142,337.878 Q54.537,342.771 56.168,338.301 L57.195,331.536 M63.235,337.939 L62.933,337.516 58.101,331.657 M57.195,331.536 L57.436,330.812 58.101,331.657 M100.562,390.97 L87.697,380.642 M78.758,385.896 L91.019,395.56" test="RedBike container"/>
      <path id="Layer1_0_3_STROKES" stroke="#FF0265" stroke-width="1.208" stroke-linejoin="round" stroke-linecap="round" fill="none" d="M57.195,331.536 Q46.987,330.812 36.478,330.268 13.828,329.181 11.774,330.449 9.6,331.657 8.694,334.677 8.271,336.187 7.848,340.174 7.546,342.892 5.432,348.388 3.197,353.945 1.989,354.73 1.576,355.026 -1.967,354.519 -2.041,354.5 -2.118,354.488 L-2.36,357.508 Q-2.662,361.132 -3.024,364.213 -21.386,367.716 -47.66,360.891 -73.934,354.005 -77.739,350.502 -81.544,346 -81.846,341.261 -81.967,339.509 -81.363,334.798 -81.302,334.436 -79.49,332.201 -77.618,329.906 -77.437,329 -77.407,328.882 -77.407,328.788 -77.329,327.41 -81.544,328.758 -87.524,330.57 -109.811,334.436 -120.985,336.308 -130.951,337.878 -131.736,352.012 -132.159,352.012 -132.582,352.012 -112.65,359.441 -94.047,367.112 -93.745,367.233 -77.195,374.662 -73.269,379.373 -70.008,383.299 -67.35,386.802 -67.048,387.225 -66.686,387.648 -65.052,389.838 -63.666,391.846 -63.583,391.963 -63.515,392.087 -63.025,392.774 -62.578,393.446 -59.317,398.339 -57.082,402.869 -56.418,404.137 -55.874,405.406 -54.606,408.244 -53.76,410.902 -50.015,422.922 -47.962,444.484 -47.962,444.813 -39.687,444.817 -39.611,444.817 -39.536,444.817 -28.037,444.784 -.85,444.122 1.113,444.076 3.076,444.031 24.614,443.517 46.202,442.854 45.779,440.256 45.96,436.27 46.262,428.297 49.101,421.291 52.121,413.862 60.275,404.137 65.892,397.493 71.932,391.816 72.114,391.574 72.355,391.393 74.65,389.279 78.758,385.896 L86.912,379.615 91.019,376.474 Q80.93,362.345 74.62,353.552 74.591,353.506 74.56,353.462 66.1,341.711 64.443,339.57 L63.235,337.939 M57.195,331.536 Q57.618,331.597 58.101,331.657 58.342,331.657 58.644,331.657 L62.933,337.516 M-77.437,329 Q-67.652,334.617 -58.35,339.026 -42.888,346.516 -33.647,348.509 L-1.937,353.884 M-54.847,390.185 Q-51.646,394.473 -48.988,399.184 -40.351,414.345 -40.11,428.358 -39.868,442.37 -39.506,441.344 L-39.264,437.478 3.076,437.901 Q4.103,434.156 4.466,429.143 5.19,419.116 1.627,411.687 -1.997,404.198 -11.661,399.124 -21.386,394.05 -31.412,393.144 -41.499,392.178 -51.042,389.52 L-57.173,387.286 -54.847,390.185Z" test="RedBike container"/>
      <use xlink:href="#Bike-Wheel" transform="matrix(1.208 0 0 1.208 122.6 429.25)"/>
      <use xlink:href="#Bike-Wheel" transform="matrix(1.208 0 0 1.208 -106.35 433.85)"/>
    </g>
  </g>
</svg>