<?xml version="1.0" encoding="utf-8"?>
<svg id="EdithAnim11" image-rendering="inherit" baseProfile="basic" version="1.1" x="0px" y="0px" width="800" height="600" xmlns="http://www.w3.org/2000/svg" xmlns:xlink="http://www.w3.org/1999/xlink">
  <g id="19_Motorbikesf110r1" overflow="visible">
    <g id="Smokef19r1">
      <path fill="#000" stroke="none" d="M-10.102,-357.878 Q-27.264,-367.595 -45.671,-362.02 -57.573,-375.082 -83.316,-373.33 -103.245,-388.623 -136.046,-391.331 -136.046,222.452 -136.046,836.235 -126.635,852.324 -112.518,849.616 -94.388,856.147 -88.99,851.209 -72.382,861.245 -59.926,858.696 -51.345,863.794 -45.532,858.855 -42.488,862.838 -37.228,862.679 -32.523,863.634 -29.34,862.679 -26.848,866.82 -22.558,865.546 -19.79,865.546 -17.022,865.705 -15.361,868.732 -12.04,867.776 -11.209,867.776 -10.24,867.935 96.466,981.516 265.868,850.89 406.344,857.9 482.74,808.517 555.4,761.842 570.209,664.35 808.534,735.876 961.189,578.487 1081.044,614.808 1144.569,464.429 1177.37,511.103 1253.075,477.173 1315.908,467.455 1353.138,420.78 1377.358,475.102 1436.732,424.763 1472.3,405.169 1507.731,385.256 1523.093,425.4 1570.564,392.584 1595.753,381.433 1620.804,370.282 1658.033,368.371 1695.263,366.618 1695.263,361.361 1696.508,349.573 1697.062,344.157 1697.616,338.741 1697.616,331.413 1697.616,324.085 1684.883,327.112 1671.873,330.139 1667.029,305.925 1663.154,304.013 1625.232,284.101 1608.209,297.164 1577.761,272.95 1536.38,275.18 1491.123,207 1397.841,238.382 1354.66,177.689 1286.291,157.298 1279.371,155.227 1272.174,153.475 1251.137,146.625 1199.652,156.183 1050.18,12.017 883.27,90.87 860.019,101.702 836.491,116.995 783.207,-113.034 472.776,-61.421 345.032,-298.3 30.172,-347.524 27.128,-349.117 23.114,-349.276 17.716,-353.258 9.551,-351.984 4.015,-355.966 -3.182,-357.4 -5.812,-358.037 -10.102,-357.878Z" test="Smoke_1" stroke-width="2.977"/>
      <path id="Layer1_0_1_STROKES" stroke="#FFF" stroke-width="2.977" stroke-linejoin="round" stroke-linecap="round" fill="none" d="M1695.263,366.618 Q1658.033,368.371 1620.804,370.282 1595.753,381.433 1570.564,392.584 1523.093,425.4 1507.731,385.256 1472.3,405.169 1436.732,424.763 1377.358,475.102 1353.138,420.78 1315.908,467.455 1253.075,477.173 1177.37,511.103 1144.569,464.429 1081.044,614.808 961.189,578.487 808.534,735.876 570.209,664.35 555.4,761.842 482.74,808.517 406.344,857.9 265.868,850.89 96.466,981.516 -10.24,867.935 -11.209,867.776 -12.04,867.776 -15.361,868.732 -17.022,865.705 -19.79,865.546 -22.558,865.546 -26.848,866.82 -29.34,862.679 -32.523,863.634 -37.228,862.679 -42.488,862.838 -45.532,858.855 -51.345,863.794 -59.926,858.696 -72.382,861.245 -88.99,851.209 -94.388,856.147 -112.518,849.616 -126.635,852.324 -136.046,836.235 -136.046,222.452 -136.046,-391.331 -103.245,-388.623 -83.316,-373.33 -57.573,-375.082 -45.671,-362.02 -27.264,-367.595 -10.102,-357.878 -5.812,-358.037 -3.182,-357.4 4.015,-355.966 9.551,-351.984 17.716,-353.258 23.114,-349.276 27.128,-349.117 30.172,-347.524 345.032,-298.3 472.776,-61.421 783.207,-113.034 836.491,116.995 860.019,101.702 883.27,90.87 1050.18,12.017 1199.652,156.183 1251.137,146.625 1272.174,153.475 1279.371,155.227 1286.291,157.298 1354.66,177.689 1397.841,238.382 1491.123,207 1536.38,275.18 1577.761,272.95 1608.209,297.164 1625.232,284.101 1663.154,304.013 1667.029,305.925 1671.873,330.139 1684.883,327.112 1697.616,324.085 1697.616,331.413 1697.616,338.741 1697.062,344.157 1696.508,349.573 1695.263,361.361 1695.263,366.618Z" test="Smoke_1"/>
    </g>
  </g>
</svg>