<?xml version="1.0" encoding="utf-8"?>
<svg id="EdithAnim11" image-rendering="inherit" baseProfile="basic" version="1.1" x="0px" y="0px" width="800" height="600" xmlns="http://www.w3.org/2000/svg" xmlns:xlink="http://www.w3.org/1999/xlink">
  <g id="19_Motorbikesf111r1" overflow="visible">
    <g id="Smokef20r1">
      <path fill="#000" stroke="none" d="M1747.156,336.388 L1747.156,321.203 1719.436,327.805 Q1714.177,301.397 1710.054,299.252 1669.115,277.465 1650.778,291.824 1618.083,265.251 1573.448,267.727 1524.691,193.289 1424.049,227.455 1372.875,154.503 1288.58,134.862 1265.978,127.434 1210.255,137.998 1026.583,-39.695 818.205,96.57 761.397,-154.022 426.298,-97.529 272.634,-386.861 -136.19,-420.036 L-136.19,851.839 Q-14.452,1063.288 204.117,892.936 499.789,908.015 532.057,689.76 789.207,767.842 953.532,596.177 1082.889,635.789 1151.121,471.894 1186.516,522.729 1268.11,485.758 1335.916,475.195 1376.002,424.359 1402.015,483.612 1466.125,428.651 L1542.602,385.573 Q1559.091,429.311 1610.265,393.495 L1664.424,369.233 1744.739,365.272 Q1744.739,359.825 1746.018,347.611 L1747.156,336.388Z" test="Smoke_1" stroke-width="3.072"/>
      <path id="Layer1_0_1_STROKES" stroke="#FFF" stroke-width="3.072" stroke-linejoin="round" stroke-linecap="round" fill="none" d="M1710.054,299.252 Q1669.115,277.465 1650.778,291.824 1618.083,265.251 1573.448,267.727 1524.691,193.289 1424.049,227.455 1372.875,154.503 1288.58,134.862 1265.978,127.434 1210.255,137.998 1026.583,-39.695 818.205,96.57 761.397,-154.022 426.298,-97.529 272.634,-386.861 -136.19,-420.036 L-136.19,851.839 Q-14.452,1063.288 204.117,892.936 499.789,908.015 532.057,689.76 789.207,767.842 953.532,596.177 1082.889,635.789 1151.121,471.894 1186.516,522.729 1268.11,485.758 1335.916,475.195 1376.002,424.359 1402.015,483.612 1466.125,428.651 L1542.602,385.573 Q1559.091,429.311 1610.265,393.495 L1664.424,369.233 1744.739,365.272 Q1744.739,359.825 1746.018,347.611 L1747.156,336.388 1747.156,321.203 1719.436,327.805 Q1714.177,301.397 1710.054,299.252Z" test="Smoke_1"/>
    </g>
  </g>
</svg>