<?xml version="1.0" encoding="utf-8"?>
<svg id="EdithAnim11" image-rendering="inherit" baseProfile="basic" version="1.1" x="0px" y="0px" width="800" height="600" xmlns="http://www.w3.org/2000/svg" xmlns:xlink="http://www.w3.org/1999/xlink">
  <g id="19_Motorbikesf112r1" overflow="visible">
    <g id="Smokef0r1">
      <path fill="#000" stroke="none" d="M1795.996,333.285 L1795.996,317.571 1767.545,324.403 Q1762.147,297.075 1757.916,294.855 1715.897,272.309 1697.075,287.169 1663.518,259.67 1617.706,262.232 1567.662,185.201 1464.365,220.557 1411.841,145.063 1325.322,124.738 1302.124,117.052 1244.931,127.983 1056.414,-55.9 842.539,85.112 784.232,-174.21 440.293,-115.748 282.575,-415.161 -137.033,-449.492 L-137.033,866.693 Q-12.085,1085.508 212.251,909.222 515.723,924.827 548.842,698.968 812.776,779.77 981.436,602.124 1114.205,643.116 1184.237,473.512 1220.566,526.118 1304.313,487.859 1373.907,476.928 1415.051,424.321 1441.75,485.638 1507.551,428.762 L1586.046,384.183 Q1602.97,429.445 1655.494,392.382 L1711.082,367.274 1793.515,363.175 Q1793.515,357.538 1794.828,344.899 L1795.996,333.285Z" test="Smoke_2324232523242325" stroke-width="3.167"/>
      <path id="Layer1_0_1_STROKES" stroke="#FFF" stroke-width="3.167" stroke-linejoin="round" stroke-linecap="round" fill="none" d="M1757.916,294.855 Q1715.897,272.309 1697.075,287.169 1663.518,259.67 1617.706,262.232 1567.662,185.201 1464.365,220.557 1411.841,145.063 1325.322,124.738 1302.124,117.052 1244.931,127.983 1056.414,-55.9 842.539,85.112 784.232,-174.21 440.293,-115.748 282.575,-415.161 -137.033,-449.492 L-137.033,866.693 Q-12.085,1085.508 212.251,909.222 515.723,924.827 548.842,698.968 812.776,779.77 981.436,602.124 1114.205,643.116 1184.237,473.512 1220.566,526.118 1304.313,487.859 1373.907,476.928 1415.051,424.321 1441.75,485.638 1507.551,428.762 L1586.046,384.183 Q1602.97,429.445 1655.494,392.382 L1711.082,367.274 1793.515,363.175 Q1793.515,357.538 1794.828,344.899 L1795.996,333.285 1795.996,317.571 1767.545,324.403 Q1762.147,297.075 1757.916,294.855Z" test="Smoke_2324232523242325"/>
    </g>
  </g>
</svg>