<?xml version="1.0" encoding="utf-8"?>
<svg id="EdithAnim11" image-rendering="inherit" baseProfile="basic" version="1.1" x="0px" y="0px" width="800" height="600" xmlns="http://www.w3.org/2000/svg" xmlns:xlink="http://www.w3.org/1999/xlink">
  <defs>
    <g id="Bike-Wheel" overflow="visible">
      <path id="Layer4_0_1_STROKES" stroke="#FFF" stroke-width="1" stroke-linejoin="round" stroke-linecap="round" fill="none" d="M2.05 -34.85Q-12.35 -34.85 -22.65 -26.45 -34 -17.2 -34.7 -1.55 -35.4 14.3 -26.6 24.6 -18.4 34.2 -5.6 34.85 7.15 35.5 19.2 29.8 31.25 24.1 34.05 7.25 36.85 -9.65 28.9 -21.15 19.4 -34.85 2.05 -34.85Z" test="Bike Wheel"/>
      <path id="Layer3_0_1_STROKES" stroke="#FFF" stroke-width="1" stroke-linejoin="round" stroke-linecap="round" fill="none" d="M.55 -26.55Q4.65 -26.85 7.1 -26.15 9.75 -25.4 12 -23.15 13.95 -21.25 8 -15.35 5.3 -12.6 2.25 -10.2 1.95 -10 1.7 -9.8M24.45 -8.9Q26.2 -5.15 26.45 -2.65 26.7 .1 25.4 3.05 24.35 5.5 16.7 2.1 13.2 .6 9.85 -1.4 9.5 -1.6 9.25 -1.75M18.45 20Q15.75 23.1 13.55 24.35 11.2 25.75 8 25.75 5.3 25.75 5.25 17.4 5.2 13.55 5.65 9.7 5.7 9.35 5.75 9M-25.15 -7.15Q-24.25 -11.2 -22.85 -13.3 -21.4 -15.6 -18.6 -17.1 -16.2 -18.45 -12.25 -11.05 -10.4 -7.65 -9 -4.1 -8.9 -3.7 -8.75 -3.4M-12.85 23.8Q-16.75 22.4 -18.7 20.8 -20.85 19.05 -22.05 16.1 -23.1 13.6 -15.3 10.55 -11.75 9.05 -8 8.05 -7.65 8 -7.3 7.95" test="Bike Wheel"/>
    </g>
  </defs>
  <g id="19_Motorbikesf12r1" overflow="visible">
    <g id="MotorBikeBluef0r1">
      <path fill="#000" stroke="none" d="M169.65,274.55 L169,273.7 162.25,278.9 172.4,286.9 173.95,289.3 Q178.375,286.543 181.35,284.65 L180.3,283.1 169.65,274.55 M143.55,239.5 Q142.2,243.2 127.8,239.15 L128.8,243.95 Q135.65,249.85 148.05,246.7 L149.15,238.85 145.15,234 Q144.75,233.95 144.4,233.9 L143.55,239.5 M169.85,224.1 Q153.1,210.8 145.95,208.6 140.4,206.9 138.55,208.65 138.1,209.1 137.15,210.65 136.25,212.2 135.3,213.05 135.55,217.15 137.45,219.65 138.85,221.45 144.25,226.8 144.983,227.555 148.3,231.65 148.353,231.685 148.35,231.7 153.035,237.389 162.65,249.4 176.75,267.05 178.95,267.65 182.65,268.7 189.35,268.05 197,267.35 198.15,264.55 199.35,261.65 197.85,257.7 196.75,254.75 191.65,245.7 187.25,237.9 169.85,224.1Z" test="BlueBikeContainer"/>
      <path id="Layer2_0_1_STROKES" stroke="#0FF" stroke-width="1" stroke-linejoin="round" stroke-linecap="round" fill="none" d="M135.3,213.05 Q136.25,212.2 137.15,210.65 138.1,209.1 138.55,208.65 140.4,206.9 145.95,208.6 153.1,210.8 169.85,224.1 187.25,237.9 191.65,245.7 196.75,254.75 197.85,257.7 199.35,261.65 198.15,264.55 197,267.35 189.35,268.05 182.65,268.7 178.95,267.65 176.75,267.05 162.65,249.4 153.035,237.389 148.375,231.725 148.353,231.685 148.325,231.65 144.983,227.555 144.25,226.8 138.85,221.45 137.45,219.65 135.55,217.15 135.3,213.05Z" test="BlueBikeContainer"/>
      <path id="Layer2_0_2_STROKES" stroke="#009EFF" stroke-width="1" stroke-linejoin="round" stroke-linecap="round" fill="none" d="M144.4,233.9 Q135.95,233.3 127.25,232.85 108.5,231.95 106.8,233 105,234 104.25,236.5 103.9,237.75 103.55,241.05 103.3,243.3 101.55,247.85 99.7,252.45 98.7,253.1 98.358,253.345 95.425,252.925 95.364,252.91 95.3,252.9 L95.1,255.4 Q94.85,258.4 94.55,260.95 79.35,263.85 57.6,258.2 35.85,252.5 32.7,249.6 29.55,246.7 29.3,241.95 29.2,240.5 29.7,236.6 29.75,236.3 31.25,234.45 32.8,232.55 32.95,231.8 32.975,231.703 32.975,231.625 33.039,230.484 29.55,231.6 24.6,233.1 6.15,236.3 -3.1,237.85 -11.35,239.15 -12,250.85 -12.35,250.85 -12.7,250.85 3.8,257 19.2,263.35 19.45,263.45 33.15,269.6 36.4,273.5 39.1,276.75 41.3,279.65 41.55,280 41.85,280.35 43.75,282.9 45.25,285.15 47.95,289.2 49.8,292.95 50.35,294 50.8,295.05 51.85,297.4 52.55,299.6 55.65,309.55 57.35,327.4 57.35,328.05 96.35,327.1 115.8,326.65 135.3,326.05 134.95,323.9 135.1,320.6 135.35,314 137.7,308.2 140.2,302.05 146.95,294 151.6,288.5 156.6,283.8 156.75,283.6 156.95,283.45 158.85,281.7 162.25,278.9 L169,273.7 172.4,271.1 Q164.048,259.404 158.825,252.125 158.801,252.087 158.775,252.05 151.772,242.323 150.4,240.55 L149.4,239.2 M145.15,234 Q145.35,234 145.6,234 L149.15,238.85 M145.15,234 Q144.75,233.95 144.4,233.9 M32.95,231.8 Q41.05,236.45 48.75,240.1 61.55,246.3 69.2,247.95 L95.45,252.4 M49.8,280.15 L51.65,282.45 Q54.3,286 56.5,289.9 63.65,302.45 63.85,314.05 64.05,325.65 64.35,324.8 L64.55,321.6 99.6,321.95 Q100.45,318.85 100.75,314.7 101.35,306.4 98.4,300.25 95.4,294.05 87.4,289.85 79.35,285.65 71.05,284.9 62.7,284.1 54.8,281.9 L49.8,280.15Z" test="BlueBikeContainer"/>
      <path id="Layer2_0_3_STROKES" stroke="#FFF" stroke-width="1" stroke-linejoin="round" stroke-linecap="round" fill="none" d="M149.4,239.2 L149.15,238.85 148.05,246.7 Q135.65,249.85 128.8,243.95 L127.8,239.15 Q142.2,243.2 143.55,239.5 L144.4,233.9 144.6,233.3 145.15,234 149.15,238.85 M180.3,283.1 L169.65,274.55 M162.25,278.9 L172.4,286.9" test="BlueBikeContainer"/>
      <use xlink:href="#Bike-Wheel" transform="translate(198.55 314.8)"/>
      <use xlink:href="#Bike-Wheel" transform="translate(9 318.6)"/>
    </g>
    <g id="MotorBikePinkf0r1">
      <path fill="#000" stroke="none" d="M-63.946,341.261 Q-63.644,346 -59.839,350.502 -56.034,354.005 -29.76,360.891 -3.486,367.716 14.876,364.213 15.238,361.132 15.54,357.508 L15.782,354.488 Q15.859,354.5 15.903,354.488 L15.963,353.884 -15.747,348.509 Q-24.988,346.516 -40.45,339.026 -49.752,334.617 -59.537,329 -59.718,329.906 -61.59,332.201 -63.402,334.436 -63.463,334.798 -64.067,339.509 -63.946,341.261 M105.597,380.642 L104.812,379.615 96.658,385.896 108.919,395.56 110.791,398.46 Q116.137,395.129 119.73,392.842 L118.462,390.97 105.597,380.642 M74.068,338.301 Q72.437,342.771 55.042,337.878 L56.25,343.677 Q64.525,350.804 79.504,346 L80.833,337.516 76.001,331.657 Q75.518,331.597 75.095,331.536 L74.068,338.301 M55.042,337.878 Q72.437,342.771 74.068,338.301 L75.095,331.536 Q64.887,330.812 54.378,330.268 31.728,329.181 29.674,330.449 27.5,331.657 26.594,334.677 26.171,336.187 25.748,340.174 25.446,342.892 23.332,348.388 21.097,353.945 19.889,354.73 19.476,355.026 15.903,354.488 15.859,354.5 15.782,354.488 L15.54,357.508 Q15.238,361.132 14.876,364.213 -3.486,367.716 -29.76,360.891 -56.034,354.005 -59.839,350.502 -63.644,346 -63.946,341.261 -64.067,339.509 -63.463,334.798 -63.402,334.436 -61.59,332.201 -59.718,329.906 -59.537,329 -59.507,328.882 -59.537,328.758 -59.429,327.41 -63.644,328.758 -69.624,330.57 -91.911,334.436 -103.085,336.308 -113.051,337.878 -113.836,352.012 -114.259,352.012 -114.682,352.012 -94.75,359.441 -76.147,367.112 -75.845,367.233 -59.295,374.662 -55.369,379.373 -52.108,383.299 -49.45,386.802 -49.148,387.225 -48.786,387.648 -47.152,389.838 -45.766,391.816 -45.683,391.963 -45.645,392.057 -45.125,392.774 -44.678,393.446 -41.417,398.339 -39.182,402.869 -38.518,404.137 -37.974,405.406 -36.706,408.244 -35.86,410.902 -32.115,422.922 -30.062,444.484 -30.062,444.813 -21.787,444.786 -21.711,444.817 -21.666,444.786 -10.137,444.784 17.05,444.122 19.013,444.076 20.976,444.001 42.514,443.517 64.102,442.854 63.679,440.256 63.86,436.27 64.162,428.297 67.001,421.291 70.021,413.862 78.175,404.137 83.792,397.493 89.832,391.816 90.014,391.574 90.255,391.393 92.55,389.279 96.658,385.896 L104.812,379.615 108.919,376.474 Q98.83,362.345 92.49,353.522 92.491,353.506 92.43,353.462 84,341.711 82.343,339.57 L81.135,337.939 80.833,337.516 79.504,346 Q64.525,350.804 56.25,343.677 L55.042,337.878 M6.239,399.124 Q15.903,404.198 19.527,411.687 23.09,419.116 22.366,429.143 22.003,434.156 20.976,437.901 L-21.364,437.478 -21.606,441.344 Q-21.968,442.37 -22.21,428.358 -22.451,414.345 -31.088,399.184 -33.746,394.473 -36.947,390.185 L-39.303,387.286 -33.142,389.52 Q-23.599,392.178 -13.512,393.144 -3.486,394.05 6.239,399.124 M19.527,411.687 Q15.903,404.198 6.239,399.124 -3.486,394.05 -13.512,393.144 -23.599,392.178 -33.142,389.52 L-39.303,387.286 -36.947,390.185 Q-33.746,394.473 -31.088,399.184 -22.451,414.345 -22.21,428.358 -21.968,442.37 -21.606,441.344 L-21.364,437.478 20.976,437.901 Q22.003,434.156 22.366,429.143 23.09,419.116 19.527,411.687 M105.838,319.698 Q85.604,303.632 76.967,300.974 70.263,298.92 68.028,301.034 67.484,301.578 66.337,303.45 65.25,305.323 64.102,306.35 64.404,311.302 66.699,314.322 68.39,316.497 74.914,322.96 75.799,323.872 79.806,328.818 79.87,328.861 79.866,328.879 85.526,335.751 97.141,350.26 114.174,371.582 116.831,372.306 121.301,373.575 129.394,372.79 138.636,371.944 140.025,368.562 141.474,365.058 139.662,360.287 138.334,356.723 132.173,345.791 126.858,336.368 105.838,319.698Z" test="RedBike container" stroke-width="1.208"/>
      <path id="Layer1_0_1_STROKES" stroke="#0FF" stroke-width="1.208" stroke-linejoin="round" stroke-linecap="round" fill="none" d="M64.102,306.35 Q65.25,305.323 66.337,303.45 67.484,301.578 68.028,301.034 70.263,298.92 76.967,300.974 85.604,303.632 105.838,319.698 126.858,336.368 132.173,345.791 138.334,356.723 139.662,360.287 141.474,365.058 140.025,368.562 138.636,371.944 129.394,372.79 121.301,373.575 116.831,372.306 114.174,371.582 97.141,350.26 85.526,335.751 79.897,328.909 79.87,328.861 79.836,328.818 75.799,323.872 74.914,322.96 68.39,316.497 66.699,314.322 64.404,311.302 64.102,306.35Z" test="RedBike container"/>
      <path id="Layer1_0_2_STROKES" stroke="#FFF" stroke-width="1.208" stroke-linejoin="round" stroke-linecap="round" fill="none" d="M80.833,337.516 L79.504,346 Q64.525,350.804 56.25,343.677 L55.042,337.878 Q72.437,342.771 74.068,338.301 L75.095,331.536 M81.135,337.939 L80.833,337.516 76.001,331.657 M75.095,331.536 L75.336,330.812 76.001,331.657 M118.462,390.97 L105.597,380.642 M96.658,385.896 L108.919,395.56" test="RedBike container"/>
      <path id="Layer1_0_3_STROKES" stroke="#FF0265" stroke-width="1.208" stroke-linejoin="round" stroke-linecap="round" fill="none" d="M75.095,331.536 Q64.887,330.812 54.378,330.268 31.728,329.181 29.674,330.449 27.5,331.657 26.594,334.677 26.171,336.187 25.748,340.174 25.446,342.892 23.332,348.388 21.097,353.945 19.889,354.73 19.476,355.026 15.933,354.519 15.859,354.5 15.782,354.488 L15.54,357.508 Q15.238,361.132 14.876,364.213 -3.486,367.716 -29.76,360.891 -56.034,354.005 -59.839,350.502 -63.644,346 -63.946,341.261 -64.067,339.509 -63.463,334.798 -63.402,334.436 -61.59,332.201 -59.718,329.906 -59.537,329 -59.507,328.882 -59.507,328.788 -59.429,327.41 -63.644,328.758 -69.624,330.57 -91.911,334.436 -103.085,336.308 -113.051,337.878 -113.836,352.012 -114.259,352.012 -114.682,352.012 -94.75,359.441 -76.147,367.112 -75.845,367.233 -59.295,374.662 -55.369,379.373 -52.108,383.299 -49.45,386.802 -49.148,387.225 -48.786,387.648 -47.152,389.838 -45.766,391.846 -45.683,391.963 -45.615,392.087 -45.125,392.774 -44.678,393.446 -41.417,398.339 -39.182,402.869 -38.518,404.137 -37.974,405.406 -36.706,408.244 -35.86,410.902 -32.115,422.922 -30.062,444.484 -30.062,444.813 -21.787,444.817 -21.711,444.817 -21.636,444.817 -10.137,444.784 17.05,444.122 19.013,444.076 20.976,444.031 42.514,443.517 64.102,442.854 63.679,440.256 63.86,436.27 64.162,428.297 67.001,421.291 70.021,413.862 78.175,404.137 83.792,397.493 89.832,391.816 90.014,391.574 90.255,391.393 92.55,389.279 96.658,385.896 L104.812,379.615 108.919,376.474 Q98.83,362.345 92.52,353.552 92.491,353.506 92.46,353.462 84,341.711 82.343,339.57 L81.135,337.939 M75.095,331.536 Q75.518,331.597 76.001,331.657 76.242,331.657 76.544,331.657 L80.833,337.516 M-59.537,329 Q-49.752,334.617 -40.45,339.026 -24.988,346.516 -15.747,348.509 L15.963,353.884 M-36.947,390.185 Q-33.746,394.473 -31.088,399.184 -22.451,414.345 -22.21,428.358 -21.968,442.37 -21.606,441.344 L-21.364,437.478 20.976,437.901 Q22.003,434.156 22.366,429.143 23.09,419.116 19.527,411.687 15.903,404.198 6.239,399.124 -3.486,394.05 -13.512,393.144 -23.599,392.178 -33.142,389.52 L-39.273,387.286 -36.947,390.185Z" test="RedBike container"/>
      <use xlink:href="#Bike-Wheel" transform="matrix(1.208 0 0 1.208 140.5 429.25)"/>
      <use xlink:href="#Bike-Wheel" transform="matrix(1.208 0 0 1.208 -88.45 433.85)"/>
    </g>
  </g>
</svg>