<?xml version="1.0" encoding="utf-8"?>
<svg id="EdithAnim11" image-rendering="inherit" baseProfile="basic" version="1.1" x="0px" y="0px" width="800" height="600" xmlns="http://www.w3.org/2000/svg" xmlns:xlink="http://www.w3.org/1999/xlink">
  <defs>
    <g id="Bike-Wheel" overflow="visible">
      <path id="Layer4_0_1_STROKES" stroke="#FFF" stroke-width="1" stroke-linejoin="round" stroke-linecap="round" fill="none" d="M2.05 -34.85Q-12.35 -34.85 -22.65 -26.45 -34 -17.2 -34.7 -1.55 -35.4 14.3 -26.6 24.6 -18.4 34.2 -5.6 34.85 7.15 35.5 19.2 29.8 31.25 24.1 34.05 7.25 36.85 -9.65 28.9 -21.15 19.4 -34.85 2.05 -34.85Z" test="Bike Wheel"/>
      <path id="Layer3_0_1_STROKES" stroke="#FFF" stroke-width="1" stroke-linejoin="round" stroke-linecap="round" fill="none" d="M.55 -26.55Q4.65 -26.85 7.1 -26.15 9.75 -25.4 12 -23.15 13.95 -21.25 8 -15.35 5.3 -12.6 2.25 -10.2 1.95 -10 1.7 -9.8M24.45 -8.9Q26.2 -5.15 26.45 -2.65 26.7 .1 25.4 3.05 24.35 5.5 16.7 2.1 13.2 .6 9.85 -1.4 9.5 -1.6 9.25 -1.75M18.45 20Q15.75 23.1 13.55 24.35 11.2 25.75 8 25.75 5.3 25.75 5.25 17.4 5.2 13.55 5.65 9.7 5.7 9.35 5.75 9M-25.15 -7.15Q-24.25 -11.2 -22.85 -13.3 -21.4 -15.6 -18.6 -17.1 -16.2 -18.45 -12.25 -11.05 -10.4 -7.65 -9 -4.1 -8.9 -3.7 -8.75 -3.4M-12.85 23.8Q-16.75 22.4 -18.7 20.8 -20.85 19.05 -22.05 16.1 -23.1 13.6 -15.3 10.55 -11.75 9.05 -8 8.05 -7.65 8 -7.3 7.95" test="Bike Wheel"/>
    </g>
  </defs>
  <g id="19_Motorbikesf13r1" overflow="visible">
    <g id="MotorBikeBluef0r1">
      <path fill="#000" stroke="none" d="M183.8,274.55 L183.15,273.7 176.4,278.9 186.55,286.9 188.1,289.3 Q192.525,286.543 195.5,284.65 L194.45,283.1 183.8,274.55 M157.7,239.5 Q156.35,243.2 141.95,239.15 L142.95,243.95 Q149.8,249.85 162.2,246.7 L163.3,238.85 159.3,234 Q158.9,233.95 158.55,233.9 L157.7,239.5 M184,224.1 Q167.25,210.8 160.1,208.6 154.55,206.9 152.7,208.65 152.25,209.1 151.3,210.65 150.4,212.2 149.45,213.05 149.7,217.15 151.6,219.65 153,221.45 158.4,226.8 159.133,227.555 162.45,231.65 162.503,231.685 162.5,231.7 167.185,237.389 176.8,249.4 190.9,267.05 193.1,267.65 196.8,268.7 203.5,268.05 211.15,267.35 212.3,264.55 213.5,261.65 212,257.7 210.9,254.75 205.8,245.7 201.4,237.9 184,224.1Z" test="BlueBikeContainer"/>
      <path id="Layer2_0_1_STROKES" stroke="#0FF" stroke-width="1" stroke-linejoin="round" stroke-linecap="round" fill="none" d="M149.45,213.05 Q150.4,212.2 151.3,210.65 152.25,209.1 152.7,208.65 154.55,206.9 160.1,208.6 167.25,210.8 184,224.1 201.4,237.9 205.8,245.7 210.9,254.75 212,257.7 213.5,261.65 212.3,264.55 211.15,267.35 203.5,268.05 196.8,268.7 193.1,267.65 190.9,267.05 176.8,249.4 167.185,237.389 162.525,231.725 162.503,231.685 162.475,231.65 159.133,227.555 158.4,226.8 153,221.45 151.6,219.65 149.7,217.15 149.45,213.05Z" test="BlueBikeContainer"/>
      <path id="Layer2_0_2_STROKES" stroke="#009EFF" stroke-width="1" stroke-linejoin="round" stroke-linecap="round" fill="none" d="M158.55,233.9 Q150.1,233.3 141.4,232.85 122.65,231.95 120.95,233 119.15,234 118.4,236.5 118.05,237.75 117.7,241.05 117.45,243.3 115.7,247.85 113.85,252.45 112.85,253.1 112.508,253.345 109.575,252.925 109.514,252.91 109.45,252.9 L109.25,255.4 Q109,258.4 108.7,260.95 93.5,263.85 71.75,258.2 50,252.5 46.85,249.6 43.7,246.7 43.45,241.95 43.35,240.5 43.85,236.6 43.9,236.3 45.4,234.45 46.95,232.55 47.1,231.8 47.125,231.703 47.125,231.625 47.189,230.484 43.7,231.6 38.75,233.1 20.3,236.3 11.05,237.85 2.8,239.15 2.15,250.85 1.8,250.85 1.45,250.85 17.95,257 33.35,263.35 33.6,263.45 47.3,269.6 50.55,273.5 53.25,276.75 55.45,279.65 55.7,280 56,280.35 57.9,282.9 59.4,285.15 62.1,289.2 63.95,292.95 64.5,294 64.95,295.05 66,297.4 66.7,299.6 69.8,309.55 71.5,327.4 71.5,328.05 110.5,327.1 129.95,326.65 149.45,326.05 149.1,323.9 149.25,320.6 149.5,314 151.85,308.2 154.35,302.05 161.1,294 165.75,288.5 170.75,283.8 170.9,283.6 171.1,283.45 173,281.7 176.4,278.9 L183.15,273.7 186.55,271.1 Q178.198,259.404 172.975,252.125 172.951,252.087 172.925,252.05 165.922,242.323 164.55,240.55 L163.55,239.2 M159.3,234 Q159.5,234 159.75,234 L163.3,238.85 M159.3,234 Q158.9,233.95 158.55,233.9 M47.1,231.8 Q55.2,236.45 62.9,240.1 75.7,246.3 83.35,247.95 L109.6,252.4 M63.95,280.15 L65.8,282.45 Q68.45,286 70.65,289.9 77.8,302.45 78,314.05 78.2,325.65 78.5,324.8 L78.7,321.6 113.75,321.95 Q114.6,318.85 114.9,314.7 115.5,306.4 112.55,300.25 109.55,294.05 101.55,289.85 93.5,285.65 85.2,284.9 76.85,284.1 68.95,281.9 L63.95,280.15Z" test="BlueBikeContainer"/>
      <path id="Layer2_0_3_STROKES" stroke="#FFF" stroke-width="1" stroke-linejoin="round" stroke-linecap="round" fill="none" d="M163.55,239.2 L163.3,238.85 162.2,246.7 Q149.8,249.85 142.95,243.95 L141.95,239.15 Q156.35,243.2 157.7,239.5 L158.55,233.9 158.75,233.3 159.3,234 163.3,238.85 M194.45,283.1 L183.8,274.55 M176.4,278.9 L186.55,286.9" test="BlueBikeContainer"/>
      <use xlink:href="#Bike-Wheel" transform="translate(212.7 314.8)"/>
      <use xlink:href="#Bike-Wheel" transform="translate(23.15 318.6)"/>
    </g>
    <g id="MotorBikePinkf0r1">
      <path fill="#000" stroke="none" d="M-47.096,341.261 Q-46.794,346 -42.989,350.502 -39.184,354.005 -12.91,360.891 13.364,367.716 31.726,364.213 32.088,361.132 32.39,357.508 L32.632,354.488 Q32.709,354.5 32.753,354.488 L32.813,353.884 1.103,348.509 Q-8.138,346.516 -23.6,339.026 -32.902,334.617 -42.687,329 -42.868,329.906 -44.74,332.201 -46.552,334.436 -46.613,334.798 -47.217,339.509 -47.096,341.261 M122.447,380.642 L121.662,379.615 113.508,385.896 125.769,395.56 127.641,398.46 Q132.987,395.129 136.58,392.842 L135.312,390.97 122.447,380.642 M90.918,338.301 Q89.287,342.771 71.892,337.878 L73.1,343.677 Q81.375,350.804 96.354,346 L97.683,337.516 92.851,331.657 Q92.368,331.597 91.945,331.536 L90.918,338.301 M71.892,337.878 Q89.287,342.771 90.918,338.301 L91.945,331.536 Q81.737,330.812 71.228,330.268 48.578,329.181 46.524,330.449 44.35,331.657 43.444,334.677 43.021,336.187 42.598,340.174 42.296,342.892 40.182,348.388 37.947,353.945 36.739,354.73 36.326,355.026 32.753,354.488 32.709,354.5 32.632,354.488 L32.39,357.508 Q32.088,361.132 31.726,364.213 13.364,367.716 -12.91,360.891 -39.184,354.005 -42.989,350.502 -46.794,346 -47.096,341.261 -47.217,339.509 -46.613,334.798 -46.552,334.436 -44.74,332.201 -42.868,329.906 -42.687,329 -42.657,328.882 -42.687,328.758 -42.579,327.41 -46.794,328.758 -52.774,330.57 -75.061,334.436 -86.235,336.308 -96.201,337.878 -96.986,352.012 -97.409,352.012 -97.832,352.012 -77.9,359.441 -59.297,367.112 -58.995,367.233 -42.445,374.662 -38.519,379.373 -35.258,383.299 -32.6,386.802 -32.298,387.225 -31.936,387.648 -30.302,389.838 -28.916,391.816 -28.833,391.963 -28.795,392.057 -28.275,392.774 -27.828,393.446 -24.567,398.339 -22.332,402.869 -21.668,404.137 -21.124,405.406 -19.856,408.244 -19.01,410.902 -15.265,422.922 -13.212,444.484 -13.212,444.813 -4.937,444.786 -4.861,444.817 -4.816,444.786 6.713,444.784 33.9,444.122 35.863,444.076 37.826,444.001 59.364,443.517 80.952,442.854 80.529,440.256 80.71,436.27 81.012,428.297 83.851,421.291 86.871,413.862 95.025,404.137 100.642,397.493 106.682,391.816 106.864,391.574 107.105,391.393 109.4,389.279 113.508,385.896 L121.662,379.615 125.769,376.474 Q115.68,362.345 109.34,353.522 109.341,353.506 109.28,353.462 100.85,341.711 99.193,339.57 L97.985,337.939 97.683,337.516 96.354,346 Q81.375,350.804 73.1,343.677 L71.892,337.878 M23.089,399.124 Q32.753,404.198 36.377,411.687 39.94,419.116 39.216,429.143 38.853,434.156 37.826,437.901 L-4.514,437.478 -4.756,441.344 Q-5.118,442.37 -5.36,428.358 -5.601,414.345 -14.238,399.184 -16.896,394.473 -20.097,390.185 L-22.453,387.286 -16.292,389.52 Q-6.749,392.178 3.338,393.144 13.364,394.05 23.089,399.124 M36.377,411.687 Q32.753,404.198 23.089,399.124 13.364,394.05 3.338,393.144 -6.749,392.178 -16.292,389.52 L-22.453,387.286 -20.097,390.185 Q-16.896,394.473 -14.238,399.184 -5.601,414.345 -5.36,428.358 -5.118,442.37 -4.756,441.344 L-4.514,437.478 37.826,437.901 Q38.853,434.156 39.216,429.143 39.94,419.116 36.377,411.687 M122.688,319.698 Q102.454,303.632 93.817,300.974 87.113,298.92 84.878,301.034 84.334,301.578 83.187,303.45 82.1,305.323 80.952,306.35 81.254,311.302 83.549,314.322 85.24,316.497 91.764,322.96 92.649,323.872 96.656,328.818 96.72,328.861 96.716,328.879 102.376,335.751 113.991,350.26 131.024,371.582 133.681,372.306 138.151,373.575 146.244,372.79 155.486,371.944 156.875,368.562 158.324,365.058 156.512,360.287 155.184,356.723 149.023,345.791 143.708,336.368 122.688,319.698Z" test="RedBike container" stroke-width="1.208"/>
      <path id="Layer1_0_1_STROKES" stroke="#0FF" stroke-width="1.208" stroke-linejoin="round" stroke-linecap="round" fill="none" d="M80.952,306.35 Q82.1,305.323 83.187,303.45 84.334,301.578 84.878,301.034 87.113,298.92 93.817,300.974 102.454,303.632 122.688,319.698 143.708,336.368 149.023,345.791 155.184,356.723 156.512,360.287 158.324,365.058 156.875,368.562 155.486,371.944 146.244,372.79 138.151,373.575 133.681,372.306 131.024,371.582 113.991,350.26 102.376,335.751 96.747,328.909 96.72,328.861 96.686,328.818 92.649,323.872 91.764,322.96 85.24,316.497 83.549,314.322 81.254,311.302 80.952,306.35Z" test="RedBike container"/>
      <path id="Layer1_0_2_STROKES" stroke="#FFF" stroke-width="1.208" stroke-linejoin="round" stroke-linecap="round" fill="none" d="M97.683,337.516 L96.354,346 Q81.375,350.804 73.1,343.677 L71.892,337.878 Q89.287,342.771 90.918,338.301 L91.945,331.536 M97.985,337.939 L97.683,337.516 92.851,331.657 M91.945,331.536 L92.186,330.812 92.851,331.657 M135.312,390.97 L122.447,380.642 M113.508,385.896 L125.769,395.56" test="RedBike container"/>
      <path id="Layer1_0_3_STROKES" stroke="#FF0265" stroke-width="1.208" stroke-linejoin="round" stroke-linecap="round" fill="none" d="M91.945,331.536 Q81.737,330.812 71.228,330.268 48.578,329.181 46.524,330.449 44.35,331.657 43.444,334.677 43.021,336.187 42.598,340.174 42.296,342.892 40.182,348.388 37.947,353.945 36.739,354.73 36.326,355.026 32.783,354.519 32.709,354.5 32.632,354.488 L32.39,357.508 Q32.088,361.132 31.726,364.213 13.364,367.716 -12.91,360.891 -39.184,354.005 -42.989,350.502 -46.794,346 -47.096,341.261 -47.217,339.509 -46.613,334.798 -46.552,334.436 -44.74,332.201 -42.868,329.906 -42.687,329 -42.657,328.882 -42.657,328.788 -42.579,327.41 -46.794,328.758 -52.774,330.57 -75.061,334.436 -86.235,336.308 -96.201,337.878 -96.986,352.012 -97.409,352.012 -97.832,352.012 -77.9,359.441 -59.297,367.112 -58.995,367.233 -42.445,374.662 -38.519,379.373 -35.258,383.299 -32.6,386.802 -32.298,387.225 -31.936,387.648 -30.302,389.838 -28.916,391.846 -28.833,391.963 -28.765,392.087 -28.275,392.774 -27.828,393.446 -24.567,398.339 -22.332,402.869 -21.668,404.137 -21.124,405.406 -19.856,408.244 -19.01,410.902 -15.265,422.922 -13.212,444.484 -13.212,444.813 -4.937,444.817 -4.861,444.817 -4.786,444.817 6.713,444.784 33.9,444.122 35.863,444.076 37.826,444.031 59.364,443.517 80.952,442.854 80.529,440.256 80.71,436.27 81.012,428.297 83.851,421.291 86.871,413.862 95.025,404.137 100.642,397.493 106.682,391.816 106.864,391.574 107.105,391.393 109.4,389.279 113.508,385.896 L121.662,379.615 125.769,376.474 Q115.68,362.345 109.37,353.552 109.341,353.506 109.31,353.462 100.85,341.711 99.193,339.57 L97.985,337.939 M91.945,331.536 Q92.368,331.597 92.851,331.657 93.092,331.657 93.394,331.657 L97.683,337.516 M-42.687,329 Q-32.902,334.617 -23.6,339.026 -8.138,346.516 1.103,348.509 L32.813,353.884 M-20.097,390.185 Q-16.896,394.473 -14.238,399.184 -5.601,414.345 -5.36,428.358 -5.118,442.37 -4.756,441.344 L-4.514,437.478 37.826,437.901 Q38.853,434.156 39.216,429.143 39.94,419.116 36.377,411.687 32.753,404.198 23.089,399.124 13.364,394.05 3.338,393.144 -6.749,392.178 -16.292,389.52 L-22.423,387.286 -20.097,390.185Z" test="RedBike container"/>
      <use xlink:href="#Bike-Wheel" transform="matrix(1.208 0 0 1.208 157.35 429.25)"/>
      <use xlink:href="#Bike-Wheel" transform="matrix(1.208 0 0 1.208 -71.6 433.85)"/>
    </g>
  </g>
</svg>