<?xml version="1.0" encoding="utf-8"?>
<svg id="EdithAnim11" image-rendering="inherit" baseProfile="basic" version="1.1" x="0px" y="0px" width="800" height="600" xmlns="http://www.w3.org/2000/svg" xmlns:xlink="http://www.w3.org/1999/xlink">
  <defs>
    <g id="Bike-Wheel" overflow="visible">
      <path id="Layer4_0_1_STROKES" stroke="#FFF" stroke-width="1" stroke-linejoin="round" stroke-linecap="round" fill="none" d="M2.05 -34.85Q-12.35 -34.85 -22.65 -26.45 -34 -17.2 -34.7 -1.55 -35.4 14.3 -26.6 24.6 -18.4 34.2 -5.6 34.85 7.15 35.5 19.2 29.8 31.25 24.1 34.05 7.25 36.85 -9.65 28.9 -21.15 19.4 -34.85 2.05 -34.85Z" test="Bike Wheel"/>
      <path id="Layer3_0_1_STROKES" stroke="#FFF" stroke-width="1" stroke-linejoin="round" stroke-linecap="round" fill="none" d="M.55 -26.55Q4.65 -26.85 7.1 -26.15 9.75 -25.4 12 -23.15 13.95 -21.25 8 -15.35 5.3 -12.6 2.25 -10.2 1.95 -10 1.7 -9.8M24.45 -8.9Q26.2 -5.15 26.45 -2.65 26.7 .1 25.4 3.05 24.35 5.5 16.7 2.1 13.2 .6 9.85 -1.4 9.5 -1.6 9.25 -1.75M18.45 20Q15.75 23.1 13.55 24.35 11.2 25.75 8 25.75 5.3 25.75 5.25 17.4 5.2 13.55 5.65 9.7 5.7 9.35 5.75 9M-25.15 -7.15Q-24.25 -11.2 -22.85 -13.3 -21.4 -15.6 -18.6 -17.1 -16.2 -18.45 -12.25 -11.05 -10.4 -7.65 -9 -4.1 -8.9 -3.7 -8.75 -3.4M-12.85 23.8Q-16.75 22.4 -18.7 20.8 -20.85 19.05 -22.05 16.1 -23.1 13.6 -15.3 10.55 -11.75 9.05 -8 8.05 -7.65 8 -7.3 7.95" test="Bike Wheel"/>
    </g>
  </defs>
  <g id="19_Motorbikesf14r1" overflow="visible">
    <g id="MotorBikeBluef0r1">
      <path fill="#000" stroke="none" d="M197.05,274.55 L196.4,273.7 189.65,278.9 199.8,286.9 201.35,289.3 Q205.775,286.543 208.75,284.65 L207.7,283.1 197.05,274.55 M170.95,239.5 Q169.6,243.2 155.2,239.15 L156.2,243.95 Q163.05,249.85 175.45,246.7 L176.55,238.85 172.55,234 Q172.15,233.95 171.8,233.9 L170.95,239.5 M197.25,224.1 Q180.5,210.8 173.35,208.6 167.8,206.9 165.95,208.65 165.5,209.1 164.55,210.65 163.65,212.2 162.7,213.05 162.95,217.15 164.85,219.65 166.25,221.45 171.65,226.8 172.383,227.555 175.7,231.65 175.753,231.685 175.75,231.7 180.435,237.389 190.05,249.4 204.15,267.05 206.35,267.65 210.05,268.7 216.75,268.05 224.4,267.35 225.55,264.55 226.75,261.65 225.25,257.7 224.15,254.75 219.05,245.7 214.65,237.9 197.25,224.1Z" test="BlueBikeContainer"/>
      <path id="Layer2_0_1_STROKES" stroke="#0FF" stroke-width="1" stroke-linejoin="round" stroke-linecap="round" fill="none" d="M162.7,213.05 Q163.65,212.2 164.55,210.65 165.5,209.1 165.95,208.65 167.8,206.9 173.35,208.6 180.5,210.8 197.25,224.1 214.65,237.9 219.05,245.7 224.15,254.75 225.25,257.7 226.75,261.65 225.55,264.55 224.4,267.35 216.75,268.05 210.05,268.7 206.35,267.65 204.15,267.05 190.05,249.4 180.435,237.389 175.775,231.725 175.753,231.685 175.725,231.65 172.383,227.555 171.65,226.8 166.25,221.45 164.85,219.65 162.95,217.15 162.7,213.05Z" test="BlueBikeContainer"/>
      <path id="Layer2_0_2_STROKES" stroke="#009EFF" stroke-width="1" stroke-linejoin="round" stroke-linecap="round" fill="none" d="M171.8,233.9 Q163.35,233.3 154.65,232.85 135.9,231.95 134.2,233 132.4,234 131.65,236.5 131.3,237.75 130.95,241.05 130.7,243.3 128.95,247.85 127.1,252.45 126.1,253.1 125.758,253.345 122.825,252.925 122.764,252.91 122.7,252.9 L122.5,255.4 Q122.25,258.4 121.95,260.95 106.75,263.85 85,258.2 63.25,252.5 60.1,249.6 56.95,246.7 56.7,241.95 56.6,240.5 57.1,236.6 57.15,236.3 58.65,234.45 60.2,232.55 60.35,231.8 60.375,231.703 60.375,231.625 60.439,230.484 56.95,231.6 52,233.1 33.55,236.3 24.3,237.85 16.05,239.15 15.4,250.85 15.05,250.85 14.7,250.85 31.2,257 46.6,263.35 46.85,263.45 60.55,269.6 63.8,273.5 66.5,276.75 68.7,279.65 68.95,280 69.25,280.35 71.15,282.9 72.65,285.15 75.35,289.2 77.2,292.95 77.75,294 78.2,295.05 79.25,297.4 79.95,299.6 83.05,309.55 84.75,327.4 84.75,328.05 123.75,327.1 143.2,326.65 162.7,326.05 162.35,323.9 162.5,320.6 162.75,314 165.1,308.2 167.6,302.05 174.35,294 179,288.5 184,283.8 184.15,283.6 184.35,283.45 186.25,281.7 189.65,278.9 L196.4,273.7 199.8,271.1 Q191.448,259.404 186.225,252.125 186.201,252.087 186.175,252.05 179.172,242.323 177.8,240.55 L176.8,239.2 M172.55,234 Q172.75,234 173,234 L176.55,238.85 M172.55,234 Q172.15,233.95 171.8,233.9 M60.35,231.8 Q68.45,236.45 76.15,240.1 88.95,246.3 96.6,247.95 L122.85,252.4 M77.2,280.15 L79.05,282.45 Q81.7,286 83.9,289.9 91.05,302.45 91.25,314.05 91.45,325.65 91.75,324.8 L91.95,321.6 127,321.95 Q127.85,318.85 128.15,314.7 128.75,306.4 125.8,300.25 122.8,294.05 114.8,289.85 106.75,285.65 98.45,284.9 90.1,284.1 82.2,281.9 L77.2,280.15Z" test="BlueBikeContainer"/>
      <path id="Layer2_0_3_STROKES" stroke="#FFF" stroke-width="1" stroke-linejoin="round" stroke-linecap="round" fill="none" d="M176.8,239.2 L176.55,238.85 175.45,246.7 Q163.05,249.85 156.2,243.95 L155.2,239.15 Q169.6,243.2 170.95,239.5 L171.8,233.9 172,233.3 172.55,234 176.55,238.85 M207.7,283.1 L197.05,274.55 M189.65,278.9 L199.8,286.9" test="BlueBikeContainer"/>
      <use xlink:href="#Bike-Wheel" transform="translate(225.95 314.8)"/>
      <use xlink:href="#Bike-Wheel" transform="translate(36.4 318.6)"/>
    </g>
    <g id="MotorBikePinkf0r1">
      <path fill="#000" stroke="none" d="M-31.246,341.261 Q-30.944,346 -27.139,350.502 -23.334,354.005 2.94,360.891 29.214,367.716 47.576,364.213 47.938,361.132 48.24,357.508 L48.482,354.488 Q48.559,354.5 48.603,354.488 L48.663,353.884 16.953,348.509 Q7.712,346.516 -7.75,339.026 -17.052,334.617 -26.837,329 -27.018,329.906 -28.89,332.201 -30.702,334.436 -30.763,334.798 -31.367,339.509 -31.246,341.261 M138.297,380.642 L137.512,379.615 129.358,385.896 141.619,395.56 143.491,398.46 Q148.837,395.129 152.43,392.842 L151.162,390.97 138.297,380.642 M106.768,338.301 Q105.137,342.771 87.742,337.878 L88.95,343.677 Q97.225,350.804 112.204,346 L113.533,337.516 108.701,331.657 Q108.218,331.597 107.795,331.536 L106.768,338.301 M87.742,337.878 Q105.137,342.771 106.768,338.301 L107.795,331.536 Q97.587,330.812 87.078,330.268 64.428,329.181 62.374,330.449 60.2,331.657 59.294,334.677 58.871,336.187 58.448,340.174 58.146,342.892 56.032,348.388 53.797,353.945 52.589,354.73 52.176,355.026 48.603,354.488 48.559,354.5 48.482,354.488 L48.24,357.508 Q47.938,361.132 47.576,364.213 29.214,367.716 2.94,360.891 -23.334,354.005 -27.139,350.502 -30.944,346 -31.246,341.261 -31.367,339.509 -30.763,334.798 -30.702,334.436 -28.89,332.201 -27.018,329.906 -26.837,329 -26.807,328.882 -26.837,328.758 -26.729,327.41 -30.944,328.758 -36.924,330.57 -59.211,334.436 -70.385,336.308 -80.351,337.878 -81.136,352.012 -81.559,352.012 -81.982,352.012 -62.05,359.441 -43.447,367.112 -43.145,367.233 -26.595,374.662 -22.669,379.373 -19.408,383.299 -16.75,386.802 -16.448,387.225 -16.086,387.648 -14.452,389.838 -13.066,391.816 -12.983,391.963 -12.945,392.057 -12.425,392.774 -11.978,393.446 -8.717,398.339 -6.482,402.869 -5.818,404.137 -5.274,405.406 -4.006,408.244 -3.16,410.902 .585,422.922 2.638,444.484 2.638,444.813 10.913,444.786 10.989,444.817 11.034,444.786 22.563,444.784 49.75,444.122 51.713,444.076 53.676,444.001 75.214,443.517 96.802,442.854 96.379,440.256 96.56,436.27 96.862,428.297 99.701,421.291 102.721,413.862 110.875,404.137 116.492,397.493 122.532,391.816 122.714,391.574 122.955,391.393 125.25,389.279 129.358,385.896 L137.512,379.615 141.619,376.474 Q131.53,362.345 125.19,353.522 125.191,353.506 125.13,353.462 116.7,341.711 115.043,339.57 L113.835,337.939 113.533,337.516 112.204,346 Q97.225,350.804 88.95,343.677 L87.742,337.878 M38.939,399.124 Q48.603,404.198 52.227,411.687 55.79,419.116 55.066,429.143 54.703,434.156 53.676,437.901 L11.336,437.478 11.094,441.344 Q10.732,442.37 10.49,428.358 10.249,414.345 1.612,399.184 -1.046,394.473 -4.247,390.185 L-6.603,387.286 -.442,389.52 Q9.101,392.178 19.188,393.144 29.214,394.05 38.939,399.124 M52.227,411.687 Q48.603,404.198 38.939,399.124 29.214,394.05 19.188,393.144 9.101,392.178 -.442,389.52 L-6.603,387.286 -4.247,390.185 Q-1.046,394.473 1.612,399.184 10.249,414.345 10.49,428.358 10.732,442.37 11.094,441.344 L11.336,437.478 53.676,437.901 Q54.703,434.156 55.066,429.143 55.79,419.116 52.227,411.687 M138.538,319.698 Q118.304,303.632 109.667,300.974 102.963,298.92 100.728,301.034 100.184,301.578 99.037,303.45 97.95,305.323 96.802,306.35 97.104,311.302 99.399,314.322 101.09,316.497 107.614,322.96 108.499,323.872 112.506,328.818 112.57,328.861 112.566,328.879 118.226,335.751 129.841,350.26 146.874,371.582 149.531,372.306 154.001,373.575 162.094,372.79 171.336,371.944 172.725,368.562 174.174,365.058 172.362,360.287 171.034,356.723 164.873,345.791 159.558,336.368 138.538,319.698Z" test="RedBike container" stroke-width="1.208"/>
      <path id="Layer1_0_1_STROKES" stroke="#0FF" stroke-width="1.208" stroke-linejoin="round" stroke-linecap="round" fill="none" d="M96.802,306.35 Q97.95,305.323 99.037,303.45 100.184,301.578 100.728,301.034 102.963,298.92 109.667,300.974 118.304,303.632 138.538,319.698 159.558,336.368 164.873,345.791 171.034,356.723 172.362,360.287 174.174,365.058 172.725,368.562 171.336,371.944 162.094,372.79 154.001,373.575 149.531,372.306 146.874,371.582 129.841,350.26 118.226,335.751 112.597,328.909 112.57,328.861 112.536,328.818 108.499,323.872 107.614,322.96 101.09,316.497 99.399,314.322 97.104,311.302 96.802,306.35Z" test="RedBike container"/>
      <path id="Layer1_0_2_STROKES" stroke="#FFF" stroke-width="1.208" stroke-linejoin="round" stroke-linecap="round" fill="none" d="M113.533,337.516 L112.204,346 Q97.225,350.804 88.95,343.677 L87.742,337.878 Q105.137,342.771 106.768,338.301 L107.795,331.536 M113.835,337.939 L113.533,337.516 108.701,331.657 M107.795,331.536 L108.036,330.812 108.701,331.657 M151.162,390.97 L138.297,380.642 M129.358,385.896 L141.619,395.56" test="RedBike container"/>
      <path id="Layer1_0_3_STROKES" stroke="#FF0265" stroke-width="1.208" stroke-linejoin="round" stroke-linecap="round" fill="none" d="M107.795,331.536 Q97.587,330.812 87.078,330.268 64.428,329.181 62.374,330.449 60.2,331.657 59.294,334.677 58.871,336.187 58.448,340.174 58.146,342.892 56.032,348.388 53.797,353.945 52.589,354.73 52.176,355.026 48.633,354.519 48.559,354.5 48.482,354.488 L48.24,357.508 Q47.938,361.132 47.576,364.213 29.214,367.716 2.94,360.891 -23.334,354.005 -27.139,350.502 -30.944,346 -31.246,341.261 -31.367,339.509 -30.763,334.798 -30.702,334.436 -28.89,332.201 -27.018,329.906 -26.837,329 -26.807,328.882 -26.807,328.788 -26.729,327.41 -30.944,328.758 -36.924,330.57 -59.211,334.436 -70.385,336.308 -80.351,337.878 -81.136,352.012 -81.559,352.012 -81.982,352.012 -62.05,359.441 -43.447,367.112 -43.145,367.233 -26.595,374.662 -22.669,379.373 -19.408,383.299 -16.75,386.802 -16.448,387.225 -16.086,387.648 -14.452,389.838 -13.066,391.846 -12.983,391.963 -12.915,392.087 -12.425,392.774 -11.978,393.446 -8.717,398.339 -6.482,402.869 -5.818,404.137 -5.274,405.406 -4.006,408.244 -3.16,410.902 .585,422.922 2.638,444.484 2.638,444.813 10.913,444.817 10.989,444.817 11.064,444.817 22.563,444.784 49.75,444.122 51.713,444.076 53.676,444.031 75.214,443.517 96.802,442.854 96.379,440.256 96.56,436.27 96.862,428.297 99.701,421.291 102.721,413.862 110.875,404.137 116.492,397.493 122.532,391.816 122.714,391.574 122.955,391.393 125.25,389.279 129.358,385.896 L137.512,379.615 141.619,376.474 Q131.53,362.345 125.22,353.552 125.191,353.506 125.16,353.462 116.7,341.711 115.043,339.57 L113.835,337.939 M107.795,331.536 Q108.218,331.597 108.701,331.657 108.942,331.657 109.244,331.657 L113.533,337.516 M-26.837,329 Q-17.052,334.617 -7.75,339.026 7.712,346.516 16.953,348.509 L48.663,353.884 M-4.247,390.185 Q-1.046,394.473 1.612,399.184 10.249,414.345 10.49,428.358 10.732,442.37 11.094,441.344 L11.336,437.478 53.676,437.901 Q54.703,434.156 55.066,429.143 55.79,419.116 52.227,411.687 48.603,404.198 38.939,399.124 29.214,394.05 19.188,393.144 9.101,392.178 -.442,389.52 L-6.573,387.286 -4.247,390.185Z" test="RedBike container"/>
      <use xlink:href="#Bike-Wheel" transform="matrix(1.208 0 0 1.208 173.2 429.25)"/>
      <use xlink:href="#Bike-Wheel" transform="matrix(1.208 0 0 1.208 -55.75 433.85)"/>
    </g>
  </g>
</svg>