<?xml version="1.0" encoding="utf-8"?>
<svg id="EdithAnim11" image-rendering="inherit" baseProfile="basic" version="1.1" x="0px" y="0px" width="800" height="600" xmlns="http://www.w3.org/2000/svg" xmlns:xlink="http://www.w3.org/1999/xlink">
  <defs>
    <g id="Bike-Wheel" overflow="visible">
      <path id="Layer4_0_1_STROKES" stroke="#FFF" stroke-width="1" stroke-linejoin="round" stroke-linecap="round" fill="none" d="M2.05 -34.85Q-12.35 -34.85 -22.65 -26.45 -34 -17.2 -34.7 -1.55 -35.4 14.3 -26.6 24.6 -18.4 34.2 -5.6 34.85 7.15 35.5 19.2 29.8 31.25 24.1 34.05 7.25 36.85 -9.65 28.9 -21.15 19.4 -34.85 2.05 -34.85Z" test="Bike Wheel"/>
      <path id="Layer3_0_1_STROKES" stroke="#FFF" stroke-width="1" stroke-linejoin="round" stroke-linecap="round" fill="none" d="M.55 -26.55Q4.65 -26.85 7.1 -26.15 9.75 -25.4 12 -23.15 13.95 -21.25 8 -15.35 5.3 -12.6 2.25 -10.2 1.95 -10 1.7 -9.8M24.45 -8.9Q26.2 -5.15 26.45 -2.65 26.7 .1 25.4 3.05 24.35 5.5 16.7 2.1 13.2 .6 9.85 -1.4 9.5 -1.6 9.25 -1.75M18.45 20Q15.75 23.1 13.55 24.35 11.2 25.75 8 25.75 5.3 25.75 5.25 17.4 5.2 13.55 5.65 9.7 5.7 9.35 5.75 9M-25.15 -7.15Q-24.25 -11.2 -22.85 -13.3 -21.4 -15.6 -18.6 -17.1 -16.2 -18.45 -12.25 -11.05 -10.4 -7.65 -9 -4.1 -8.9 -3.7 -8.75 -3.4M-12.85 23.8Q-16.75 22.4 -18.7 20.8 -20.85 19.05 -22.05 16.1 -23.1 13.6 -15.3 10.55 -11.75 9.05 -8 8.05 -7.65 8 -7.3 7.95" test="Bike Wheel"/>
    </g>
  </defs>
  <g id="19_Motorbikesf15r1" overflow="visible">
    <g id="MotorBikeBluef0r1">
      <path fill="#000" stroke="none" d="M209.45,274.55 L208.8,273.7 202.05,278.9 212.2,286.9 213.75,289.3 Q218.175,286.543 221.15,284.65 L220.1,283.1 209.45,274.55 M183.35,239.5 Q182,243.2 167.6,239.15 L168.6,243.95 Q175.45,249.85 187.85,246.7 L188.95,238.85 184.95,234 Q184.55,233.95 184.2,233.9 L183.35,239.5 M209.65,224.1 Q192.9,210.8 185.75,208.6 180.2,206.9 178.35,208.65 177.9,209.1 176.95,210.65 176.05,212.2 175.1,213.05 175.35,217.15 177.25,219.65 178.65,221.45 184.05,226.8 184.783,227.555 188.1,231.65 188.153,231.685 188.15,231.7 192.835,237.389 202.45,249.4 216.55,267.05 218.75,267.65 222.45,268.7 229.15,268.05 236.8,267.35 237.95,264.55 239.15,261.65 237.65,257.7 236.55,254.75 231.45,245.7 227.05,237.9 209.65,224.1Z" test="BlueBikeContainer"/>
      <path id="Layer2_0_1_STROKES" stroke="#0FF" stroke-width="1" stroke-linejoin="round" stroke-linecap="round" fill="none" d="M175.1,213.05 Q176.05,212.2 176.95,210.65 177.9,209.1 178.35,208.65 180.2,206.9 185.75,208.6 192.9,210.8 209.65,224.1 227.05,237.9 231.45,245.7 236.55,254.75 237.65,257.7 239.15,261.65 237.95,264.55 236.8,267.35 229.15,268.05 222.45,268.7 218.75,267.65 216.55,267.05 202.45,249.4 192.835,237.389 188.175,231.725 188.153,231.685 188.125,231.65 184.783,227.555 184.05,226.8 178.65,221.45 177.25,219.65 175.35,217.15 175.1,213.05Z" test="BlueBikeContainer"/>
      <path id="Layer2_0_2_STROKES" stroke="#009EFF" stroke-width="1" stroke-linejoin="round" stroke-linecap="round" fill="none" d="M184.2,233.9 Q175.75,233.3 167.05,232.85 148.3,231.95 146.6,233 144.8,234 144.05,236.5 143.7,237.75 143.35,241.05 143.1,243.3 141.35,247.85 139.5,252.45 138.5,253.1 138.158,253.345 135.225,252.925 135.164,252.91 135.1,252.9 L134.9,255.4 Q134.65,258.4 134.35,260.95 119.15,263.85 97.4,258.2 75.65,252.5 72.5,249.6 69.35,246.7 69.1,241.95 69,240.5 69.5,236.6 69.55,236.3 71.05,234.45 72.6,232.55 72.75,231.8 72.775,231.703 72.775,231.625 72.839,230.484 69.35,231.6 64.4,233.1 45.95,236.3 36.7,237.85 28.45,239.15 27.8,250.85 27.45,250.85 27.1,250.85 43.6,257 59,263.35 59.25,263.45 72.95,269.6 76.2,273.5 78.9,276.75 81.1,279.65 81.35,280 81.65,280.35 83.55,282.9 85.05,285.15 87.75,289.2 89.6,292.95 90.15,294 90.6,295.05 91.65,297.4 92.35,299.6 95.45,309.55 97.15,327.4 97.15,328.05 136.15,327.1 155.6,326.65 175.1,326.05 174.75,323.9 174.9,320.6 175.15,314 177.5,308.2 180,302.05 186.75,294 191.4,288.5 196.4,283.8 196.55,283.6 196.75,283.45 198.65,281.7 202.05,278.9 L208.8,273.7 212.2,271.1 Q203.848,259.404 198.625,252.125 198.601,252.087 198.575,252.05 191.572,242.323 190.2,240.55 L189.2,239.2 M184.95,234 Q185.15,234 185.4,234 L188.95,238.85 M184.95,234 Q184.55,233.95 184.2,233.9 M72.75,231.8 Q80.85,236.45 88.55,240.1 101.35,246.3 109,247.95 L135.25,252.4 M89.6,280.15 L91.45,282.45 Q94.1,286 96.3,289.9 103.45,302.45 103.65,314.05 103.85,325.65 104.15,324.8 L104.35,321.6 139.4,321.95 Q140.25,318.85 140.55,314.7 141.15,306.4 138.2,300.25 135.2,294.05 127.2,289.85 119.15,285.65 110.85,284.9 102.5,284.1 94.6,281.9 L89.6,280.15Z" test="BlueBikeContainer"/>
      <path id="Layer2_0_3_STROKES" stroke="#FFF" stroke-width="1" stroke-linejoin="round" stroke-linecap="round" fill="none" d="M189.2,239.2 L188.95,238.85 187.85,246.7 Q175.45,249.85 168.6,243.95 L167.6,239.15 Q182,243.2 183.35,239.5 L184.2,233.9 184.4,233.3 184.95,234 188.95,238.85 M220.1,283.1 L209.45,274.55 M202.05,278.9 L212.2,286.9" test="BlueBikeContainer"/>
      <use xlink:href="#Bike-Wheel" transform="translate(238.35 314.8)"/>
      <use xlink:href="#Bike-Wheel" transform="translate(48.8 318.6)"/>
    </g>
    <g id="MotorBikePinkf0r1">
      <path fill="#000" stroke="none" d="M-16.446,341.261 Q-16.144,346 -12.339,350.502 -8.534,354.005 17.74,360.891 44.014,367.716 62.376,364.213 62.738,361.132 63.04,357.508 L63.282,354.488 Q63.359,354.5 63.403,354.488 L63.463,353.884 31.753,348.509 Q22.512,346.516 7.05,339.026 -2.252,334.617 -12.037,329 -12.218,329.906 -14.09,332.201 -15.902,334.436 -15.963,334.798 -16.567,339.509 -16.446,341.261 M153.097,380.642 L152.312,379.615 144.158,385.896 156.419,395.56 158.291,398.46 Q163.637,395.129 167.23,392.842 L165.962,390.97 153.097,380.642 M121.568,338.301 Q119.937,342.771 102.542,337.878 L103.75,343.677 Q112.025,350.804 127.004,346 L128.333,337.516 123.501,331.657 Q123.018,331.597 122.595,331.536 L121.568,338.301 M102.542,337.878 Q119.937,342.771 121.568,338.301 L122.595,331.536 Q112.387,330.812 101.878,330.268 79.228,329.181 77.174,330.449 75,331.657 74.094,334.677 73.671,336.187 73.248,340.174 72.946,342.892 70.832,348.388 68.597,353.945 67.389,354.73 66.976,355.026 63.403,354.488 63.359,354.5 63.282,354.488 L63.04,357.508 Q62.738,361.132 62.376,364.213 44.014,367.716 17.74,360.891 -8.534,354.005 -12.339,350.502 -16.144,346 -16.446,341.261 -16.567,339.509 -15.963,334.798 -15.902,334.436 -14.09,332.201 -12.218,329.906 -12.037,329 -12.007,328.882 -12.037,328.758 -11.929,327.41 -16.144,328.758 -22.124,330.57 -44.411,334.436 -55.585,336.308 -65.551,337.878 -66.336,352.012 -66.759,352.012 -67.182,352.012 -47.25,359.441 -28.647,367.112 -28.345,367.233 -11.795,374.662 -7.869,379.373 -4.608,383.299 -1.95,386.802 -1.648,387.225 -1.286,387.648 .348,389.838 1.734,391.816 1.817,391.963 1.855,392.057 2.375,392.774 2.822,393.446 6.083,398.339 8.318,402.869 8.982,404.137 9.526,405.406 10.794,408.244 11.64,410.902 15.385,422.922 17.438,444.484 17.438,444.813 25.713,444.786 25.789,444.817 25.834,444.786 37.363,444.784 64.55,444.122 66.513,444.076 68.476,444.001 90.014,443.517 111.602,442.854 111.179,440.256 111.36,436.27 111.662,428.297 114.501,421.291 117.521,413.862 125.675,404.137 131.292,397.493 137.332,391.816 137.514,391.574 137.755,391.393 140.05,389.279 144.158,385.896 L152.312,379.615 156.419,376.474 Q146.33,362.345 139.99,353.522 139.991,353.506 139.93,353.462 131.5,341.711 129.843,339.57 L128.635,337.939 128.333,337.516 127.004,346 Q112.025,350.804 103.75,343.677 L102.542,337.878 M53.739,399.124 Q63.403,404.198 67.027,411.687 70.59,419.116 69.866,429.143 69.503,434.156 68.476,437.901 L26.136,437.478 25.894,441.344 Q25.532,442.37 25.29,428.358 25.049,414.345 16.412,399.184 13.754,394.473 10.553,390.185 L8.197,387.286 14.358,389.52 Q23.901,392.178 33.988,393.144 44.014,394.05 53.739,399.124 M67.027,411.687 Q63.403,404.198 53.739,399.124 44.014,394.05 33.988,393.144 23.901,392.178 14.358,389.52 L8.197,387.286 10.553,390.185 Q13.754,394.473 16.412,399.184 25.049,414.345 25.29,428.358 25.532,442.37 25.894,441.344 L26.136,437.478 68.476,437.901 Q69.503,434.156 69.866,429.143 70.59,419.116 67.027,411.687 M153.338,319.698 Q133.104,303.632 124.467,300.974 117.763,298.92 115.528,301.034 114.984,301.578 113.837,303.45 112.75,305.323 111.602,306.35 111.904,311.302 114.199,314.322 115.89,316.497 122.414,322.96 123.299,323.872 127.306,328.818 127.37,328.861 127.366,328.879 133.026,335.751 144.641,350.26 161.674,371.582 164.331,372.306 168.801,373.575 176.894,372.79 186.136,371.944 187.525,368.562 188.974,365.058 187.162,360.287 185.834,356.723 179.673,345.791 174.358,336.368 153.338,319.698Z" test="RedBike container" stroke-width="1.208"/>
      <path id="Layer1_0_1_STROKES" stroke="#0FF" stroke-width="1.208" stroke-linejoin="round" stroke-linecap="round" fill="none" d="M111.602,306.35 Q112.75,305.323 113.837,303.45 114.984,301.578 115.528,301.034 117.763,298.92 124.467,300.974 133.104,303.632 153.338,319.698 174.358,336.368 179.673,345.791 185.834,356.723 187.162,360.287 188.974,365.058 187.525,368.562 186.136,371.944 176.894,372.79 168.801,373.575 164.331,372.306 161.674,371.582 144.641,350.26 133.026,335.751 127.397,328.909 127.37,328.861 127.336,328.818 123.299,323.872 122.414,322.96 115.89,316.497 114.199,314.322 111.904,311.302 111.602,306.35Z" test="RedBike container"/>
      <path id="Layer1_0_2_STROKES" stroke="#FFF" stroke-width="1.208" stroke-linejoin="round" stroke-linecap="round" fill="none" d="M128.333,337.516 L127.004,346 Q112.025,350.804 103.75,343.677 L102.542,337.878 Q119.937,342.771 121.568,338.301 L122.595,331.536 M128.635,337.939 L128.333,337.516 123.501,331.657 M122.595,331.536 L122.836,330.812 123.501,331.657 M165.962,390.97 L153.097,380.642 M144.158,385.896 L156.419,395.56" test="RedBike container"/>
      <path id="Layer1_0_3_STROKES" stroke="#FF0265" stroke-width="1.208" stroke-linejoin="round" stroke-linecap="round" fill="none" d="M122.595,331.536 Q112.387,330.812 101.878,330.268 79.228,329.181 77.174,330.449 75,331.657 74.094,334.677 73.671,336.187 73.248,340.174 72.946,342.892 70.832,348.388 68.597,353.945 67.389,354.73 66.976,355.026 63.433,354.519 63.359,354.5 63.282,354.488 L63.04,357.508 Q62.738,361.132 62.376,364.213 44.014,367.716 17.74,360.891 -8.534,354.005 -12.339,350.502 -16.144,346 -16.446,341.261 -16.567,339.509 -15.963,334.798 -15.902,334.436 -14.09,332.201 -12.218,329.906 -12.037,329 -12.007,328.882 -12.007,328.788 -11.929,327.41 -16.144,328.758 -22.124,330.57 -44.411,334.436 -55.585,336.308 -65.551,337.878 -66.336,352.012 -66.759,352.012 -67.182,352.012 -47.25,359.441 -28.647,367.112 -28.345,367.233 -11.795,374.662 -7.869,379.373 -4.608,383.299 -1.95,386.802 -1.648,387.225 -1.286,387.648 .348,389.838 1.734,391.846 1.817,391.963 1.885,392.087 2.375,392.774 2.822,393.446 6.083,398.339 8.318,402.869 8.982,404.137 9.526,405.406 10.794,408.244 11.64,410.902 15.385,422.922 17.438,444.484 17.438,444.813 25.713,444.817 25.789,444.817 25.864,444.817 37.363,444.784 64.55,444.122 66.513,444.076 68.476,444.031 90.014,443.517 111.602,442.854 111.179,440.256 111.36,436.27 111.662,428.297 114.501,421.291 117.521,413.862 125.675,404.137 131.292,397.493 137.332,391.816 137.514,391.574 137.755,391.393 140.05,389.279 144.158,385.896 L152.312,379.615 156.419,376.474 Q146.33,362.345 140.02,353.552 139.991,353.506 139.96,353.462 131.5,341.711 129.843,339.57 L128.635,337.939 M122.595,331.536 Q123.018,331.597 123.501,331.657 123.742,331.657 124.044,331.657 L128.333,337.516 M-12.037,329 Q-2.252,334.617 7.05,339.026 22.512,346.516 31.753,348.509 L63.463,353.884 M10.553,390.185 Q13.754,394.473 16.412,399.184 25.049,414.345 25.29,428.358 25.532,442.37 25.894,441.344 L26.136,437.478 68.476,437.901 Q69.503,434.156 69.866,429.143 70.59,419.116 67.027,411.687 63.403,404.198 53.739,399.124 44.014,394.05 33.988,393.144 23.901,392.178 14.358,389.52 L8.227,387.286 10.553,390.185Z" test="RedBike container"/>
      <use xlink:href="#Bike-Wheel" transform="matrix(1.208 0 0 1.208 188 429.25)"/>
      <use xlink:href="#Bike-Wheel" transform="matrix(1.208 0 0 1.208 -40.95 433.85)"/>
    </g>
  </g>
</svg>