<?xml version="1.0" encoding="utf-8"?>
<svg id="EdithAnim11" image-rendering="inherit" baseProfile="basic" version="1.1" x="0px" y="0px" width="800" height="600" xmlns="http://www.w3.org/2000/svg" xmlns:xlink="http://www.w3.org/1999/xlink">
  <defs>
    <g id="Bike-Wheel" overflow="visible">
      <path id="Layer4_0_1_STROKES" stroke="#FFF" stroke-width="1" stroke-linejoin="round" stroke-linecap="round" fill="none" d="M2.05 -34.85Q-12.35 -34.85 -22.65 -26.45 -34 -17.2 -34.7 -1.55 -35.4 14.3 -26.6 24.6 -18.4 34.2 -5.6 34.85 7.15 35.5 19.2 29.8 31.25 24.1 34.05 7.25 36.85 -9.65 28.9 -21.15 19.4 -34.85 2.05 -34.85Z" test="Bike Wheel"/>
      <path id="Layer3_0_1_STROKES" stroke="#FFF" stroke-width="1" stroke-linejoin="round" stroke-linecap="round" fill="none" d="M.55 -26.55Q4.65 -26.85 7.1 -26.15 9.75 -25.4 12 -23.15 13.95 -21.25 8 -15.35 5.3 -12.6 2.25 -10.2 1.95 -10 1.7 -9.8M24.45 -8.9Q26.2 -5.15 26.45 -2.65 26.7 .1 25.4 3.05 24.35 5.5 16.7 2.1 13.2 .6 9.85 -1.4 9.5 -1.6 9.25 -1.75M18.45 20Q15.75 23.1 13.55 24.35 11.2 25.75 8 25.75 5.3 25.75 5.25 17.4 5.2 13.55 5.65 9.7 5.7 9.35 5.75 9M-25.15 -7.15Q-24.25 -11.2 -22.85 -13.3 -21.4 -15.6 -18.6 -17.1 -16.2 -18.45 -12.25 -11.05 -10.4 -7.65 -9 -4.1 -8.9 -3.7 -8.75 -3.4M-12.85 23.8Q-16.75 22.4 -18.7 20.8 -20.85 19.05 -22.05 16.1 -23.1 13.6 -15.3 10.55 -11.75 9.05 -8 8.05 -7.65 8 -7.3 7.95" test="Bike Wheel"/>
    </g>
  </defs>
  <g id="19_Motorbikesf16r1" overflow="visible">
    <g id="MotorBikeBluef0r1">
      <path fill="#000" stroke="none" d="M221,274.55 L220.35,273.7 213.6,278.9 223.75,286.9 225.3,289.3 Q229.725,286.543 232.7,284.65 L231.65,283.1 221,274.55 M194.9,239.5 Q193.55,243.2 179.15,239.15 L180.15,243.95 Q187,249.85 199.4,246.7 L200.5,238.85 196.5,234 Q196.1,233.95 195.75,233.9 L194.9,239.5 M221.2,224.1 Q204.45,210.8 197.3,208.6 191.75,206.9 189.9,208.65 189.45,209.1 188.5,210.65 187.6,212.2 186.65,213.05 186.9,217.15 188.8,219.65 190.2,221.45 195.6,226.8 196.333,227.555 199.65,231.65 199.703,231.685 199.7,231.7 204.385,237.389 214,249.4 228.1,267.05 230.3,267.65 234,268.7 240.7,268.05 248.35,267.35 249.5,264.55 250.7,261.65 249.2,257.7 248.1,254.75 243,245.7 238.6,237.9 221.2,224.1Z" test="BlueBikeContainer"/>
      <path id="Layer2_0_1_STROKES" stroke="#0FF" stroke-width="1" stroke-linejoin="round" stroke-linecap="round" fill="none" d="M186.65,213.05 Q187.6,212.2 188.5,210.65 189.45,209.1 189.9,208.65 191.75,206.9 197.3,208.6 204.45,210.8 221.2,224.1 238.6,237.9 243,245.7 248.1,254.75 249.2,257.7 250.7,261.65 249.5,264.55 248.35,267.35 240.7,268.05 234,268.7 230.3,267.65 228.1,267.05 214,249.4 204.385,237.389 199.725,231.725 199.703,231.685 199.675,231.65 196.333,227.555 195.6,226.8 190.2,221.45 188.8,219.65 186.9,217.15 186.65,213.05Z" test="BlueBikeContainer"/>
      <path id="Layer2_0_2_STROKES" stroke="#009EFF" stroke-width="1" stroke-linejoin="round" stroke-linecap="round" fill="none" d="M195.75,233.9 Q187.3,233.3 178.6,232.85 159.85,231.95 158.15,233 156.35,234 155.6,236.5 155.25,237.75 154.9,241.05 154.65,243.3 152.9,247.85 151.05,252.45 150.05,253.1 149.708,253.345 146.775,252.925 146.714,252.91 146.65,252.9 L146.45,255.4 Q146.2,258.4 145.9,260.95 130.7,263.85 108.95,258.2 87.2,252.5 84.05,249.6 80.9,246.7 80.65,241.95 80.55,240.5 81.05,236.6 81.1,236.3 82.6,234.45 84.15,232.55 84.3,231.8 84.325,231.703 84.325,231.625 84.389,230.484 80.9,231.6 75.95,233.1 57.5,236.3 48.25,237.85 40,239.15 39.35,250.85 39,250.85 38.65,250.85 55.15,257 70.55,263.35 70.8,263.45 84.5,269.6 87.75,273.5 90.45,276.75 92.65,279.65 92.9,280 93.2,280.35 95.1,282.9 96.6,285.15 99.3,289.2 101.15,292.95 101.7,294 102.15,295.05 103.2,297.4 103.9,299.6 107,309.55 108.7,327.4 108.7,328.05 147.7,327.1 167.15,326.65 186.65,326.05 186.3,323.9 186.45,320.6 186.7,314 189.05,308.2 191.55,302.05 198.3,294 202.95,288.5 207.95,283.8 208.1,283.6 208.3,283.45 210.2,281.7 213.6,278.9 L220.35,273.7 223.75,271.1 Q215.398,259.404 210.175,252.125 210.151,252.087 210.125,252.05 203.122,242.323 201.75,240.55 L200.75,239.2 M196.5,234 Q196.7,234 196.95,234 L200.5,238.85 M196.5,234 Q196.1,233.95 195.75,233.9 M84.3,231.8 Q92.4,236.45 100.1,240.1 112.9,246.3 120.55,247.95 L146.8,252.4 M101.15,280.15 L103,282.45 Q105.65,286 107.85,289.9 115,302.45 115.2,314.05 115.4,325.65 115.7,324.8 L115.9,321.6 150.95,321.95 Q151.8,318.85 152.1,314.7 152.7,306.4 149.75,300.25 146.75,294.05 138.75,289.85 130.7,285.65 122.4,284.9 114.05,284.1 106.15,281.9 L101.15,280.15Z" test="BlueBikeContainer"/>
      <path id="Layer2_0_3_STROKES" stroke="#FFF" stroke-width="1" stroke-linejoin="round" stroke-linecap="round" fill="none" d="M200.75,239.2 L200.5,238.85 199.4,246.7 Q187,249.85 180.15,243.95 L179.15,239.15 Q193.55,243.2 194.9,239.5 L195.75,233.9 195.95,233.3 196.5,234 200.5,238.85 M231.65,283.1 L221,274.55 M213.6,278.9 L223.75,286.9" test="BlueBikeContainer"/>
      <use xlink:href="#Bike-Wheel" transform="translate(249.9 314.8)"/>
      <use xlink:href="#Bike-Wheel" transform="translate(60.35 318.6)"/>
    </g>
    <g id="MotorBikePinkf0r1">
      <path fill="#000" stroke="none" d="M-2.596,341.261 Q-2.294,346 1.511,350.502 5.316,354.005 31.59,360.891 57.864,367.716 76.226,364.213 76.588,361.132 76.89,357.508 L77.132,354.488 Q77.209,354.5 77.253,354.488 L77.313,353.884 45.603,348.509 Q36.362,346.516 20.9,339.026 11.598,334.617 1.813,329 1.632,329.906 -.24,332.201 -2.052,334.436 -2.113,334.798 -2.717,339.509 -2.596,341.261 M166.947,380.642 L166.162,379.615 158.008,385.896 170.269,395.56 172.141,398.46 Q177.487,395.129 181.08,392.842 L179.812,390.97 166.947,380.642 M135.418,338.301 Q133.787,342.771 116.392,337.878 L117.6,343.677 Q125.875,350.804 140.854,346 L142.183,337.516 137.351,331.657 Q136.868,331.597 136.445,331.536 L135.418,338.301 M116.392,337.878 Q133.787,342.771 135.418,338.301 L136.445,331.536 Q126.237,330.812 115.728,330.268 93.078,329.181 91.024,330.449 88.85,331.657 87.944,334.677 87.521,336.187 87.098,340.174 86.796,342.892 84.682,348.388 82.447,353.945 81.239,354.73 80.826,355.026 77.253,354.488 77.209,354.5 77.132,354.488 L76.89,357.508 Q76.588,361.132 76.226,364.213 57.864,367.716 31.59,360.891 5.316,354.005 1.511,350.502 -2.294,346 -2.596,341.261 -2.717,339.509 -2.113,334.798 -2.052,334.436 -.24,332.201 1.632,329.906 1.813,329 1.843,328.882 1.813,328.758 1.921,327.41 -2.294,328.758 -8.274,330.57 -30.561,334.436 -41.735,336.308 -51.701,337.878 -52.486,352.012 -52.909,352.012 -53.332,352.012 -33.4,359.441 -14.797,367.112 -14.495,367.233 2.055,374.662 5.981,379.373 9.242,383.299 11.9,386.802 12.202,387.225 12.564,387.648 14.198,389.838 15.584,391.816 15.667,391.963 15.705,392.057 16.225,392.774 16.672,393.446 19.933,398.339 22.168,402.869 22.832,404.137 23.376,405.406 24.644,408.244 25.49,410.902 29.235,422.922 31.288,444.484 31.288,444.813 39.563,444.786 39.639,444.817 39.684,444.786 51.213,444.784 78.4,444.122 80.363,444.076 82.326,444.001 103.864,443.517 125.452,442.854 125.029,440.256 125.21,436.27 125.512,428.297 128.351,421.291 131.371,413.862 139.525,404.137 145.142,397.493 151.182,391.816 151.364,391.574 151.605,391.393 153.9,389.279 158.008,385.896 L166.162,379.615 170.269,376.474 Q160.18,362.345 153.84,353.522 153.841,353.506 153.78,353.462 145.35,341.711 143.693,339.57 L142.485,337.939 142.183,337.516 140.854,346 Q125.875,350.804 117.6,343.677 L116.392,337.878 M67.589,399.124 Q77.253,404.198 80.877,411.687 84.44,419.116 83.716,429.143 83.353,434.156 82.326,437.901 L39.986,437.478 39.744,441.344 Q39.382,442.37 39.14,428.358 38.899,414.345 30.262,399.184 27.604,394.473 24.403,390.185 L22.047,387.286 28.208,389.52 Q37.751,392.178 47.838,393.144 57.864,394.05 67.589,399.124 M80.877,411.687 Q77.253,404.198 67.589,399.124 57.864,394.05 47.838,393.144 37.751,392.178 28.208,389.52 L22.047,387.286 24.403,390.185 Q27.604,394.473 30.262,399.184 38.899,414.345 39.14,428.358 39.382,442.37 39.744,441.344 L39.986,437.478 82.326,437.901 Q83.353,434.156 83.716,429.143 84.44,419.116 80.877,411.687 M167.188,319.698 Q146.954,303.632 138.317,300.974 131.613,298.92 129.378,301.034 128.834,301.578 127.687,303.45 126.6,305.323 125.452,306.35 125.754,311.302 128.049,314.322 129.74,316.497 136.264,322.96 137.149,323.872 141.156,328.818 141.22,328.861 141.216,328.879 146.876,335.751 158.491,350.26 175.524,371.582 178.181,372.306 182.651,373.575 190.744,372.79 199.986,371.944 201.375,368.562 202.824,365.058 201.012,360.287 199.684,356.723 193.523,345.791 188.208,336.368 167.188,319.698Z" test="RedBike container" stroke-width="1.208"/>
      <path id="Layer1_0_1_STROKES" stroke="#0FF" stroke-width="1.208" stroke-linejoin="round" stroke-linecap="round" fill="none" d="M125.452,306.35 Q126.6,305.323 127.687,303.45 128.834,301.578 129.378,301.034 131.613,298.92 138.317,300.974 146.954,303.632 167.188,319.698 188.208,336.368 193.523,345.791 199.684,356.723 201.012,360.287 202.824,365.058 201.375,368.562 199.986,371.944 190.744,372.79 182.651,373.575 178.181,372.306 175.524,371.582 158.491,350.26 146.876,335.751 141.247,328.909 141.22,328.861 141.186,328.818 137.149,323.872 136.264,322.96 129.74,316.497 128.049,314.322 125.754,311.302 125.452,306.35Z" test="RedBike container"/>
      <path id="Layer1_0_2_STROKES" stroke="#FFF" stroke-width="1.208" stroke-linejoin="round" stroke-linecap="round" fill="none" d="M142.183,337.516 L140.854,346 Q125.875,350.804 117.6,343.677 L116.392,337.878 Q133.787,342.771 135.418,338.301 L136.445,331.536 M142.485,337.939 L142.183,337.516 137.351,331.657 M136.445,331.536 L136.686,330.812 137.351,331.657 M179.812,390.97 L166.947,380.642 M158.008,385.896 L170.269,395.56" test="RedBike container"/>
      <path id="Layer1_0_3_STROKES" stroke="#FF0265" stroke-width="1.208" stroke-linejoin="round" stroke-linecap="round" fill="none" d="M136.445,331.536 Q126.237,330.812 115.728,330.268 93.078,329.181 91.024,330.449 88.85,331.657 87.944,334.677 87.521,336.187 87.098,340.174 86.796,342.892 84.682,348.388 82.447,353.945 81.239,354.73 80.826,355.026 77.283,354.519 77.209,354.5 77.132,354.488 L76.89,357.508 Q76.588,361.132 76.226,364.213 57.864,367.716 31.59,360.891 5.316,354.005 1.511,350.502 -2.294,346 -2.596,341.261 -2.717,339.509 -2.113,334.798 -2.052,334.436 -.24,332.201 1.632,329.906 1.813,329 1.843,328.882 1.843,328.788 1.921,327.41 -2.294,328.758 -8.274,330.57 -30.561,334.436 -41.735,336.308 -51.701,337.878 -52.486,352.012 -52.909,352.012 -53.332,352.012 -33.4,359.441 -14.797,367.112 -14.495,367.233 2.055,374.662 5.981,379.373 9.242,383.299 11.9,386.802 12.202,387.225 12.564,387.648 14.198,389.838 15.584,391.846 15.667,391.963 15.735,392.087 16.225,392.774 16.672,393.446 19.933,398.339 22.168,402.869 22.832,404.137 23.376,405.406 24.644,408.244 25.49,410.902 29.235,422.922 31.288,444.484 31.288,444.813 39.563,444.817 39.639,444.817 39.714,444.817 51.213,444.784 78.4,444.122 80.363,444.076 82.326,444.031 103.864,443.517 125.452,442.854 125.029,440.256 125.21,436.27 125.512,428.297 128.351,421.291 131.371,413.862 139.525,404.137 145.142,397.493 151.182,391.816 151.364,391.574 151.605,391.393 153.9,389.279 158.008,385.896 L166.162,379.615 170.269,376.474 Q160.18,362.345 153.87,353.552 153.841,353.506 153.81,353.462 145.35,341.711 143.693,339.57 L142.485,337.939 M136.445,331.536 Q136.868,331.597 137.351,331.657 137.592,331.657 137.894,331.657 L142.183,337.516 M1.813,329 Q11.598,334.617 20.9,339.026 36.362,346.516 45.603,348.509 L77.313,353.884 M24.403,390.185 Q27.604,394.473 30.262,399.184 38.899,414.345 39.14,428.358 39.382,442.37 39.744,441.344 L39.986,437.478 82.326,437.901 Q83.353,434.156 83.716,429.143 84.44,419.116 80.877,411.687 77.253,404.198 67.589,399.124 57.864,394.05 47.838,393.144 37.751,392.178 28.208,389.52 L22.077,387.286 24.403,390.185Z" test="RedBike container"/>
      <use xlink:href="#Bike-Wheel" transform="matrix(1.208 0 0 1.208 201.85 429.25)"/>
      <use xlink:href="#Bike-Wheel" transform="matrix(1.208 0 0 1.208 -27.1 433.85)"/>
    </g>
  </g>
</svg>