<?xml version="1.0" encoding="utf-8"?>
<svg id="EdithAnim11" image-rendering="inherit" baseProfile="basic" version="1.1" x="0px" y="0px" width="800" height="600" xmlns="http://www.w3.org/2000/svg" xmlns:xlink="http://www.w3.org/1999/xlink">
  <defs>
    <g id="Bike-Wheel" overflow="visible">
      <path id="Layer4_0_1_STROKES" stroke="#FFF" stroke-width="1" stroke-linejoin="round" stroke-linecap="round" fill="none" d="M2.05 -34.85Q-12.35 -34.85 -22.65 -26.45 -34 -17.2 -34.7 -1.55 -35.4 14.3 -26.6 24.6 -18.4 34.2 -5.6 34.85 7.15 35.5 19.2 29.8 31.25 24.1 34.05 7.25 36.85 -9.65 28.9 -21.15 19.4 -34.85 2.05 -34.85Z" test="Bike Wheel"/>
      <path id="Layer3_0_1_STROKES" stroke="#FFF" stroke-width="1" stroke-linejoin="round" stroke-linecap="round" fill="none" d="M.55 -26.55Q4.65 -26.85 7.1 -26.15 9.75 -25.4 12 -23.15 13.95 -21.25 8 -15.35 5.3 -12.6 2.25 -10.2 1.95 -10 1.7 -9.8M24.45 -8.9Q26.2 -5.15 26.45 -2.65 26.7 .1 25.4 3.05 24.35 5.5 16.7 2.1 13.2 .6 9.85 -1.4 9.5 -1.6 9.25 -1.75M18.45 20Q15.75 23.1 13.55 24.35 11.2 25.75 8 25.75 5.3 25.75 5.25 17.4 5.2 13.55 5.65 9.7 5.7 9.35 5.75 9M-25.15 -7.15Q-24.25 -11.2 -22.85 -13.3 -21.4 -15.6 -18.6 -17.1 -16.2 -18.45 -12.25 -11.05 -10.4 -7.65 -9 -4.1 -8.9 -3.7 -8.75 -3.4M-12.85 23.8Q-16.75 22.4 -18.7 20.8 -20.85 19.05 -22.05 16.1 -23.1 13.6 -15.3 10.55 -11.75 9.05 -8 8.05 -7.65 8 -7.3 7.95" test="Bike Wheel"/>
    </g>
  </defs>
  <g id="19_Motorbikesf17r1" overflow="visible">
    <g id="MotorBikeBluef0r1">
      <path fill="#000" stroke="none" d="M231.75,274.55 L231.1,273.7 224.35,278.9 234.5,286.9 236.05,289.3 Q240.475,286.543 243.45,284.65 L242.4,283.1 231.75,274.55 M205.65,239.5 Q204.3,243.2 189.9,239.15 L190.9,243.95 Q197.75,249.85 210.15,246.7 L211.25,238.85 207.25,234 Q206.85,233.95 206.5,233.9 L205.65,239.5 M231.95,224.1 Q215.2,210.8 208.05,208.6 202.5,206.9 200.65,208.65 200.2,209.1 199.25,210.65 198.35,212.2 197.4,213.05 197.65,217.15 199.55,219.65 200.95,221.45 206.35,226.8 207.083,227.555 210.4,231.65 210.453,231.685 210.45,231.7 215.135,237.389 224.75,249.4 238.85,267.05 241.05,267.65 244.75,268.7 251.45,268.05 259.1,267.35 260.25,264.55 261.45,261.65 259.95,257.7 258.85,254.75 253.75,245.7 249.35,237.9 231.95,224.1Z" test="BlueBikeContainer"/>
      <path id="Layer2_0_1_STROKES" stroke="#0FF" stroke-width="1" stroke-linejoin="round" stroke-linecap="round" fill="none" d="M197.4,213.05 Q198.35,212.2 199.25,210.65 200.2,209.1 200.65,208.65 202.5,206.9 208.05,208.6 215.2,210.8 231.95,224.1 249.35,237.9 253.75,245.7 258.85,254.75 259.95,257.7 261.45,261.65 260.25,264.55 259.1,267.35 251.45,268.05 244.75,268.7 241.05,267.65 238.85,267.05 224.75,249.4 215.135,237.389 210.475,231.725 210.453,231.685 210.425,231.65 207.083,227.555 206.35,226.8 200.95,221.45 199.55,219.65 197.65,217.15 197.4,213.05Z" test="BlueBikeContainer"/>
      <path id="Layer2_0_2_STROKES" stroke="#009EFF" stroke-width="1" stroke-linejoin="round" stroke-linecap="round" fill="none" d="M206.5,233.9 Q198.05,233.3 189.35,232.85 170.6,231.95 168.9,233 167.1,234 166.35,236.5 166,237.75 165.65,241.05 165.4,243.3 163.65,247.85 161.8,252.45 160.8,253.1 160.458,253.345 157.525,252.925 157.464,252.91 157.4,252.9 L157.2,255.4 Q156.95,258.4 156.65,260.95 141.45,263.85 119.7,258.2 97.95,252.5 94.8,249.6 91.65,246.7 91.4,241.95 91.3,240.5 91.8,236.6 91.85,236.3 93.35,234.45 94.9,232.55 95.05,231.8 95.075,231.703 95.075,231.625 95.139,230.484 91.65,231.6 86.7,233.1 68.25,236.3 59,237.85 50.75,239.15 50.1,250.85 49.75,250.85 49.4,250.85 65.9,257 81.3,263.35 81.55,263.45 95.25,269.6 98.5,273.5 101.2,276.75 103.4,279.65 103.65,280 103.95,280.35 105.85,282.9 107.35,285.15 110.05,289.2 111.9,292.95 112.45,294 112.9,295.05 113.95,297.4 114.65,299.6 117.75,309.55 119.45,327.4 119.45,328.05 158.45,327.1 177.9,326.65 197.4,326.05 197.05,323.9 197.2,320.6 197.45,314 199.8,308.2 202.3,302.05 209.05,294 213.7,288.5 218.7,283.8 218.85,283.6 219.05,283.45 220.95,281.7 224.35,278.9 L231.1,273.7 234.5,271.1 Q226.148,259.404 220.925,252.125 220.901,252.087 220.875,252.05 213.872,242.323 212.5,240.55 L211.5,239.2 M207.25,234 Q207.45,234 207.7,234 L211.25,238.85 M207.25,234 Q206.85,233.95 206.5,233.9 M95.05,231.8 Q103.15,236.45 110.85,240.1 123.65,246.3 131.3,247.95 L157.55,252.4 M111.9,280.15 L113.75,282.45 Q116.4,286 118.6,289.9 125.75,302.45 125.95,314.05 126.15,325.65 126.45,324.8 L126.65,321.6 161.7,321.95 Q162.55,318.85 162.85,314.7 163.45,306.4 160.5,300.25 157.5,294.05 149.5,289.85 141.45,285.65 133.15,284.9 124.8,284.1 116.9,281.9 L111.9,280.15Z" test="BlueBikeContainer"/>
      <path id="Layer2_0_3_STROKES" stroke="#FFF" stroke-width="1" stroke-linejoin="round" stroke-linecap="round" fill="none" d="M211.5,239.2 L211.25,238.85 210.15,246.7 Q197.75,249.85 190.9,243.95 L189.9,239.15 Q204.3,243.2 205.65,239.5 L206.5,233.9 206.7,233.3 207.25,234 211.25,238.85 M242.4,283.1 L231.75,274.55 M224.35,278.9 L234.5,286.9" test="BlueBikeContainer"/>
      <use xlink:href="#Bike-Wheel" transform="translate(260.65 314.8)"/>
      <use xlink:href="#Bike-Wheel" transform="translate(71.1 318.6)"/>
    </g>
    <g id="MotorBikePinkf0r1">
      <path fill="#000" stroke="none" d="M10.204,341.261 Q10.506,346 14.311,350.502 18.116,354.005 44.39,360.891 70.664,367.716 89.026,364.213 89.388,361.132 89.69,357.508 L89.932,354.488 Q90.009,354.5 90.053,354.488 L90.113,353.884 58.403,348.509 Q49.162,346.516 33.7,339.026 24.398,334.617 14.613,329 14.432,329.906 12.56,332.201 10.748,334.436 10.687,334.798 10.083,339.509 10.204,341.261 M179.747,380.642 L178.962,379.615 170.808,385.896 183.069,395.56 184.941,398.46 Q190.287,395.129 193.88,392.842 L192.612,390.97 179.747,380.642 M148.218,338.301 Q146.587,342.771 129.192,337.878 L130.4,343.677 Q138.675,350.804 153.654,346 L154.983,337.516 150.151,331.657 Q149.668,331.597 149.245,331.536 L148.218,338.301 M129.192,337.878 Q146.587,342.771 148.218,338.301 L149.245,331.536 Q139.037,330.812 128.528,330.268 105.878,329.181 103.824,330.449 101.65,331.657 100.744,334.677 100.321,336.187 99.898,340.174 99.596,342.892 97.482,348.388 95.247,353.945 94.039,354.73 93.626,355.026 90.053,354.488 90.009,354.5 89.932,354.488 L89.69,357.508 Q89.388,361.132 89.026,364.213 70.664,367.716 44.39,360.891 18.116,354.005 14.311,350.502 10.506,346 10.204,341.261 10.083,339.509 10.687,334.798 10.748,334.436 12.56,332.201 14.432,329.906 14.613,329 14.643,328.882 14.613,328.758 14.721,327.41 10.506,328.758 4.526,330.57 -17.761,334.436 -28.935,336.308 -38.901,337.878 -39.686,352.012 -40.109,352.012 -40.532,352.012 -20.6,359.441 -1.997,367.112 -1.695,367.233 14.855,374.662 18.781,379.373 22.042,383.299 24.7,386.802 25.002,387.225 25.364,387.648 26.998,389.838 28.384,391.816 28.467,391.963 28.505,392.057 29.025,392.774 29.472,393.446 32.733,398.339 34.968,402.869 35.632,404.137 36.176,405.406 37.444,408.244 38.29,410.902 42.035,422.922 44.088,444.484 44.088,444.813 52.363,444.786 52.439,444.817 52.484,444.786 64.013,444.784 91.2,444.122 93.163,444.076 95.126,444.001 116.664,443.517 138.252,442.854 137.829,440.256 138.01,436.27 138.312,428.297 141.151,421.291 144.171,413.862 152.325,404.137 157.942,397.493 163.982,391.816 164.164,391.574 164.405,391.393 166.7,389.279 170.808,385.896 L178.962,379.615 183.069,376.474 Q172.98,362.345 166.64,353.522 166.641,353.506 166.58,353.462 158.15,341.711 156.493,339.57 L155.285,337.939 154.983,337.516 153.654,346 Q138.675,350.804 130.4,343.677 L129.192,337.878 M80.389,399.124 Q90.053,404.198 93.677,411.687 97.24,419.116 96.516,429.143 96.153,434.156 95.126,437.901 L52.786,437.478 52.544,441.344 Q52.182,442.37 51.94,428.358 51.699,414.345 43.062,399.184 40.404,394.473 37.203,390.185 L34.847,387.286 41.008,389.52 Q50.551,392.178 60.638,393.144 70.664,394.05 80.389,399.124 M93.677,411.687 Q90.053,404.198 80.389,399.124 70.664,394.05 60.638,393.144 50.551,392.178 41.008,389.52 L34.847,387.286 37.203,390.185 Q40.404,394.473 43.062,399.184 51.699,414.345 51.94,428.358 52.182,442.37 52.544,441.344 L52.786,437.478 95.126,437.901 Q96.153,434.156 96.516,429.143 97.24,419.116 93.677,411.687 M179.988,319.698 Q159.754,303.632 151.117,300.974 144.413,298.92 142.178,301.034 141.634,301.578 140.487,303.45 139.4,305.323 138.252,306.35 138.554,311.302 140.849,314.322 142.54,316.497 149.064,322.96 149.949,323.872 153.956,328.818 154.02,328.861 154.016,328.879 159.676,335.751 171.291,350.26 188.324,371.582 190.981,372.306 195.451,373.575 203.544,372.79 212.786,371.944 214.175,368.562 215.624,365.058 213.812,360.287 212.484,356.723 206.323,345.791 201.008,336.368 179.988,319.698Z" test="RedBike container" stroke-width="1.208"/>
      <path id="Layer1_0_1_STROKES" stroke="#0FF" stroke-width="1.208" stroke-linejoin="round" stroke-linecap="round" fill="none" d="M138.252,306.35 Q139.4,305.323 140.487,303.45 141.634,301.578 142.178,301.034 144.413,298.92 151.117,300.974 159.754,303.632 179.988,319.698 201.008,336.368 206.323,345.791 212.484,356.723 213.812,360.287 215.624,365.058 214.175,368.562 212.786,371.944 203.544,372.79 195.451,373.575 190.981,372.306 188.324,371.582 171.291,350.26 159.676,335.751 154.047,328.909 154.02,328.861 153.986,328.818 149.949,323.872 149.064,322.96 142.54,316.497 140.849,314.322 138.554,311.302 138.252,306.35Z" test="RedBike container"/>
      <path id="Layer1_0_2_STROKES" stroke="#FFF" stroke-width="1.208" stroke-linejoin="round" stroke-linecap="round" fill="none" d="M154.983,337.516 L153.654,346 Q138.675,350.804 130.4,343.677 L129.192,337.878 Q146.587,342.771 148.218,338.301 L149.245,331.536 M155.285,337.939 L154.983,337.516 150.151,331.657 M149.245,331.536 L149.486,330.812 150.151,331.657 M192.612,390.97 L179.747,380.642 M170.808,385.896 L183.069,395.56" test="RedBike container"/>
      <path id="Layer1_0_3_STROKES" stroke="#FF0265" stroke-width="1.208" stroke-linejoin="round" stroke-linecap="round" fill="none" d="M149.245,331.536 Q139.037,330.812 128.528,330.268 105.878,329.181 103.824,330.449 101.65,331.657 100.744,334.677 100.321,336.187 99.898,340.174 99.596,342.892 97.482,348.388 95.247,353.945 94.039,354.73 93.626,355.026 90.083,354.519 90.009,354.5 89.932,354.488 L89.69,357.508 Q89.388,361.132 89.026,364.213 70.664,367.716 44.39,360.891 18.116,354.005 14.311,350.502 10.506,346 10.204,341.261 10.083,339.509 10.687,334.798 10.748,334.436 12.56,332.201 14.432,329.906 14.613,329 14.643,328.882 14.643,328.788 14.721,327.41 10.506,328.758 4.526,330.57 -17.761,334.436 -28.935,336.308 -38.901,337.878 -39.686,352.012 -40.109,352.012 -40.532,352.012 -20.6,359.441 -1.997,367.112 -1.695,367.233 14.855,374.662 18.781,379.373 22.042,383.299 24.7,386.802 25.002,387.225 25.364,387.648 26.998,389.838 28.384,391.846 28.467,391.963 28.535,392.087 29.025,392.774 29.472,393.446 32.733,398.339 34.968,402.869 35.632,404.137 36.176,405.406 37.444,408.244 38.29,410.902 42.035,422.922 44.088,444.484 44.088,444.813 52.363,444.817 52.439,444.817 52.514,444.817 64.013,444.784 91.2,444.122 93.163,444.076 95.126,444.031 116.664,443.517 138.252,442.854 137.829,440.256 138.01,436.27 138.312,428.297 141.151,421.291 144.171,413.862 152.325,404.137 157.942,397.493 163.982,391.816 164.164,391.574 164.405,391.393 166.7,389.279 170.808,385.896 L178.962,379.615 183.069,376.474 Q172.98,362.345 166.67,353.552 166.641,353.506 166.61,353.462 158.15,341.711 156.493,339.57 L155.285,337.939 M149.245,331.536 Q149.668,331.597 150.151,331.657 150.392,331.657 150.694,331.657 L154.983,337.516 M14.613,329 Q24.398,334.617 33.7,339.026 49.162,346.516 58.403,348.509 L90.113,353.884 M37.203,390.185 Q40.404,394.473 43.062,399.184 51.699,414.345 51.94,428.358 52.182,442.37 52.544,441.344 L52.786,437.478 95.126,437.901 Q96.153,434.156 96.516,429.143 97.24,419.116 93.677,411.687 90.053,404.198 80.389,399.124 70.664,394.05 60.638,393.144 50.551,392.178 41.008,389.52 L34.877,387.286 37.203,390.185Z" test="RedBike container"/>
      <use xlink:href="#Bike-Wheel" transform="matrix(1.208 0 0 1.208 214.65 429.25)"/>
      <use xlink:href="#Bike-Wheel" transform="matrix(1.208 0 0 1.208 -14.3 433.85)"/>
    </g>
  </g>
</svg>