<?xml version="1.0" encoding="utf-8"?>
<svg id="EdithAnim11" image-rendering="inherit" baseProfile="basic" version="1.1" x="0px" y="0px" width="800" height="600" xmlns="http://www.w3.org/2000/svg" xmlns:xlink="http://www.w3.org/1999/xlink">
  <defs>
    <g id="Bike-Wheel" overflow="visible">
      <path id="Layer4_0_1_STROKES" stroke="#FFF" stroke-width="1" stroke-linejoin="round" stroke-linecap="round" fill="none" d="M2.05 -34.85Q-12.35 -34.85 -22.65 -26.45 -34 -17.2 -34.7 -1.55 -35.4 14.3 -26.6 24.6 -18.4 34.2 -5.6 34.85 7.15 35.5 19.2 29.8 31.25 24.1 34.05 7.25 36.85 -9.65 28.9 -21.15 19.4 -34.85 2.05 -34.85Z" test="Bike Wheel"/>
      <path id="Layer3_0_1_STROKES" stroke="#FFF" stroke-width="1" stroke-linejoin="round" stroke-linecap="round" fill="none" d="M.55 -26.55Q4.65 -26.85 7.1 -26.15 9.75 -25.4 12 -23.15 13.95 -21.25 8 -15.35 5.3 -12.6 2.25 -10.2 1.95 -10 1.7 -9.8M24.45 -8.9Q26.2 -5.15 26.45 -2.65 26.7 .1 25.4 3.05 24.35 5.5 16.7 2.1 13.2 .6 9.85 -1.4 9.5 -1.6 9.25 -1.75M18.45 20Q15.75 23.1 13.55 24.35 11.2 25.75 8 25.75 5.3 25.75 5.25 17.4 5.2 13.55 5.65 9.7 5.7 9.35 5.75 9M-25.15 -7.15Q-24.25 -11.2 -22.85 -13.3 -21.4 -15.6 -18.6 -17.1 -16.2 -18.45 -12.25 -11.05 -10.4 -7.65 -9 -4.1 -8.9 -3.7 -8.75 -3.4M-12.85 23.8Q-16.75 22.4 -18.7 20.8 -20.85 19.05 -22.05 16.1 -23.1 13.6 -15.3 10.55 -11.75 9.05 -8 8.05 -7.65 8 -7.3 7.95" test="Bike Wheel"/>
    </g>
  </defs>
  <g id="19_Motorbikesf18r1" overflow="visible">
    <g id="MotorBikeBluef0r1">
      <path fill="#000" stroke="none" d="M241.6,274.55 L240.95,273.7 234.2,278.9 244.35,286.9 245.9,289.3 Q250.325,286.543 253.3,284.65 L252.25,283.1 241.6,274.55 M215.5,239.5 Q214.15,243.2 199.75,239.15 L200.75,243.95 Q207.6,249.85 220,246.7 L221.1,238.85 217.1,234 Q216.7,233.95 216.35,233.9 L215.5,239.5 M241.8,224.1 Q225.05,210.8 217.9,208.6 212.35,206.9 210.5,208.65 210.05,209.1 209.1,210.65 208.2,212.2 207.25,213.05 207.5,217.15 209.4,219.65 210.8,221.45 216.2,226.8 216.933,227.555 220.25,231.65 220.303,231.685 220.3,231.7 224.985,237.389 234.6,249.4 248.7,267.05 250.9,267.65 254.6,268.7 261.3,268.05 268.95,267.35 270.1,264.55 271.3,261.65 269.8,257.7 268.7,254.75 263.6,245.7 259.2,237.9 241.8,224.1Z" test="BlueBikeContainer"/>
      <path id="Layer2_0_1_STROKES" stroke="#0FF" stroke-width="1" stroke-linejoin="round" stroke-linecap="round" fill="none" d="M207.25,213.05 Q208.2,212.2 209.1,210.65 210.05,209.1 210.5,208.65 212.35,206.9 217.9,208.6 225.05,210.8 241.8,224.1 259.2,237.9 263.6,245.7 268.7,254.75 269.8,257.7 271.3,261.65 270.1,264.55 268.95,267.35 261.3,268.05 254.6,268.7 250.9,267.65 248.7,267.05 234.6,249.4 224.985,237.389 220.325,231.725 220.303,231.685 220.275,231.65 216.933,227.555 216.2,226.8 210.8,221.45 209.4,219.65 207.5,217.15 207.25,213.05Z" test="BlueBikeContainer"/>
      <path id="Layer2_0_2_STROKES" stroke="#009EFF" stroke-width="1" stroke-linejoin="round" stroke-linecap="round" fill="none" d="M216.35,233.9 Q207.9,233.3 199.2,232.85 180.45,231.95 178.75,233 176.95,234 176.2,236.5 175.85,237.75 175.5,241.05 175.25,243.3 173.5,247.85 171.65,252.45 170.65,253.1 170.308,253.345 167.375,252.925 167.314,252.91 167.25,252.9 L167.05,255.4 Q166.8,258.4 166.5,260.95 151.3,263.85 129.55,258.2 107.8,252.5 104.65,249.6 101.5,246.7 101.25,241.95 101.15,240.5 101.65,236.6 101.7,236.3 103.2,234.45 104.75,232.55 104.9,231.8 104.925,231.703 104.925,231.625 104.989,230.484 101.5,231.6 96.55,233.1 78.1,236.3 68.85,237.85 60.6,239.15 59.95,250.85 59.6,250.85 59.25,250.85 75.75,257 91.15,263.35 91.4,263.45 105.1,269.6 108.35,273.5 111.05,276.75 113.25,279.65 113.5,280 113.8,280.35 115.7,282.9 117.2,285.15 119.9,289.2 121.75,292.95 122.3,294 122.75,295.05 123.8,297.4 124.5,299.6 127.6,309.55 129.3,327.4 129.3,328.05 168.3,327.1 187.75,326.65 207.25,326.05 206.9,323.9 207.05,320.6 207.3,314 209.65,308.2 212.15,302.05 218.9,294 223.55,288.5 228.55,283.8 228.7,283.6 228.9,283.45 230.8,281.7 234.2,278.9 L240.95,273.7 244.35,271.1 Q235.998,259.404 230.775,252.125 230.751,252.087 230.725,252.05 223.722,242.323 222.35,240.55 L221.35,239.2 M217.1,234 Q217.3,234 217.55,234 L221.1,238.85 M217.1,234 Q216.7,233.95 216.35,233.9 M104.9,231.8 Q113,236.45 120.7,240.1 133.5,246.3 141.15,247.95 L167.4,252.4 M121.75,280.15 L123.6,282.45 Q126.25,286 128.45,289.9 135.6,302.45 135.8,314.05 136,325.65 136.3,324.8 L136.5,321.6 171.55,321.95 Q172.4,318.85 172.7,314.7 173.3,306.4 170.35,300.25 167.35,294.05 159.35,289.85 151.3,285.65 143,284.9 134.65,284.1 126.75,281.9 L121.75,280.15Z" test="BlueBikeContainer"/>
      <path id="Layer2_0_3_STROKES" stroke="#FFF" stroke-width="1" stroke-linejoin="round" stroke-linecap="round" fill="none" d="M221.35,239.2 L221.1,238.85 220,246.7 Q207.6,249.85 200.75,243.95 L199.75,239.15 Q214.15,243.2 215.5,239.5 L216.35,233.9 216.55,233.3 217.1,234 221.1,238.85 M252.25,283.1 L241.6,274.55 M234.2,278.9 L244.35,286.9" test="BlueBikeContainer"/>
      <use xlink:href="#Bike-Wheel" transform="translate(270.5 314.8)"/>
      <use xlink:href="#Bike-Wheel" transform="translate(80.95 318.6)"/>
    </g>
    <g id="MotorBikePinkf0r1">
      <path fill="#000" stroke="none" d="M21.954,341.261 Q22.256,346 26.061,350.502 29.866,354.005 56.14,360.891 82.414,367.716 100.776,364.213 101.138,361.132 101.44,357.508 L101.682,354.488 Q101.759,354.5 101.803,354.488 L101.863,353.884 70.153,348.509 Q60.912,346.516 45.45,339.026 36.148,334.617 26.363,329 26.182,329.906 24.31,332.201 22.498,334.436 22.437,334.798 21.833,339.509 21.954,341.261 M191.497,380.642 L190.712,379.615 182.558,385.896 194.819,395.56 196.691,398.46 Q202.037,395.129 205.63,392.842 L204.362,390.97 191.497,380.642 M159.968,338.301 Q158.337,342.771 140.942,337.878 L142.15,343.677 Q150.425,350.804 165.404,346 L166.733,337.516 161.901,331.657 Q161.418,331.597 160.995,331.536 L159.968,338.301 M140.942,337.878 Q158.337,342.771 159.968,338.301 L160.995,331.536 Q150.787,330.812 140.278,330.268 117.628,329.181 115.574,330.449 113.4,331.657 112.494,334.677 112.071,336.187 111.648,340.174 111.346,342.892 109.232,348.388 106.997,353.945 105.789,354.73 105.376,355.026 101.803,354.488 101.759,354.5 101.682,354.488 L101.44,357.508 Q101.138,361.132 100.776,364.213 82.414,367.716 56.14,360.891 29.866,354.005 26.061,350.502 22.256,346 21.954,341.261 21.833,339.509 22.437,334.798 22.498,334.436 24.31,332.201 26.182,329.906 26.363,329 26.393,328.882 26.363,328.758 26.471,327.41 22.256,328.758 16.276,330.57 -6.011,334.436 -17.185,336.308 -27.151,337.878 -27.936,352.012 -28.359,352.012 -28.782,352.012 -8.85,359.441 9.753,367.112 10.055,367.233 26.605,374.662 30.531,379.373 33.792,383.299 36.45,386.802 36.752,387.225 37.114,387.648 38.748,389.838 40.134,391.816 40.217,391.963 40.255,392.057 40.775,392.774 41.222,393.446 44.483,398.339 46.718,402.869 47.382,404.137 47.926,405.406 49.194,408.244 50.04,410.902 53.785,422.922 55.838,444.484 55.838,444.813 64.113,444.786 64.189,444.817 64.234,444.786 75.763,444.784 102.95,444.122 104.913,444.076 106.876,444.001 128.414,443.517 150.002,442.854 149.579,440.256 149.76,436.27 150.062,428.297 152.901,421.291 155.921,413.862 164.075,404.137 169.692,397.493 175.732,391.816 175.914,391.574 176.155,391.393 178.45,389.279 182.558,385.896 L190.712,379.615 194.819,376.474 Q184.73,362.345 178.39,353.522 178.391,353.506 178.33,353.462 169.9,341.711 168.243,339.57 L167.035,337.939 166.733,337.516 165.404,346 Q150.425,350.804 142.15,343.677 L140.942,337.878 M92.139,399.124 Q101.803,404.198 105.427,411.687 108.99,419.116 108.266,429.143 107.903,434.156 106.876,437.901 L64.536,437.478 64.294,441.344 Q63.932,442.37 63.69,428.358 63.449,414.345 54.812,399.184 52.154,394.473 48.953,390.185 L46.597,387.286 52.758,389.52 Q62.301,392.178 72.388,393.144 82.414,394.05 92.139,399.124 M105.427,411.687 Q101.803,404.198 92.139,399.124 82.414,394.05 72.388,393.144 62.301,392.178 52.758,389.52 L46.597,387.286 48.953,390.185 Q52.154,394.473 54.812,399.184 63.449,414.345 63.69,428.358 63.932,442.37 64.294,441.344 L64.536,437.478 106.876,437.901 Q107.903,434.156 108.266,429.143 108.99,419.116 105.427,411.687 M191.738,319.698 Q171.504,303.632 162.867,300.974 156.163,298.92 153.928,301.034 153.384,301.578 152.237,303.45 151.15,305.323 150.002,306.35 150.304,311.302 152.599,314.322 154.29,316.497 160.814,322.96 161.699,323.872 165.706,328.818 165.77,328.861 165.766,328.879 171.426,335.751 183.041,350.26 200.074,371.582 202.731,372.306 207.201,373.575 215.294,372.79 224.536,371.944 225.925,368.562 227.374,365.058 225.562,360.287 224.234,356.723 218.073,345.791 212.758,336.368 191.738,319.698Z" test="RedBike container" stroke-width="1.208"/>
      <path id="Layer1_0_1_STROKES" stroke="#0FF" stroke-width="1.208" stroke-linejoin="round" stroke-linecap="round" fill="none" d="M150.002,306.35 Q151.15,305.323 152.237,303.45 153.384,301.578 153.928,301.034 156.163,298.92 162.867,300.974 171.504,303.632 191.738,319.698 212.758,336.368 218.073,345.791 224.234,356.723 225.562,360.287 227.374,365.058 225.925,368.562 224.536,371.944 215.294,372.79 207.201,373.575 202.731,372.306 200.074,371.582 183.041,350.26 171.426,335.751 165.797,328.909 165.77,328.861 165.736,328.818 161.699,323.872 160.814,322.96 154.29,316.497 152.599,314.322 150.304,311.302 150.002,306.35Z" test="RedBike container"/>
      <path id="Layer1_0_2_STROKES" stroke="#FFF" stroke-width="1.208" stroke-linejoin="round" stroke-linecap="round" fill="none" d="M166.733,337.516 L165.404,346 Q150.425,350.804 142.15,343.677 L140.942,337.878 Q158.337,342.771 159.968,338.301 L160.995,331.536 M167.035,337.939 L166.733,337.516 161.901,331.657 M160.995,331.536 L161.236,330.812 161.901,331.657 M204.362,390.97 L191.497,380.642 M182.558,385.896 L194.819,395.56" test="RedBike container"/>
      <path id="Layer1_0_3_STROKES" stroke="#FF0265" stroke-width="1.208" stroke-linejoin="round" stroke-linecap="round" fill="none" d="M160.995,331.536 Q150.787,330.812 140.278,330.268 117.628,329.181 115.574,330.449 113.4,331.657 112.494,334.677 112.071,336.187 111.648,340.174 111.346,342.892 109.232,348.388 106.997,353.945 105.789,354.73 105.376,355.026 101.833,354.519 101.759,354.5 101.682,354.488 L101.44,357.508 Q101.138,361.132 100.776,364.213 82.414,367.716 56.14,360.891 29.866,354.005 26.061,350.502 22.256,346 21.954,341.261 21.833,339.509 22.437,334.798 22.498,334.436 24.31,332.201 26.182,329.906 26.363,329 26.393,328.882 26.393,328.788 26.471,327.41 22.256,328.758 16.276,330.57 -6.011,334.436 -17.185,336.308 -27.151,337.878 -27.936,352.012 -28.359,352.012 -28.782,352.012 -8.85,359.441 9.753,367.112 10.055,367.233 26.605,374.662 30.531,379.373 33.792,383.299 36.45,386.802 36.752,387.225 37.114,387.648 38.748,389.838 40.134,391.846 40.217,391.963 40.285,392.087 40.775,392.774 41.222,393.446 44.483,398.339 46.718,402.869 47.382,404.137 47.926,405.406 49.194,408.244 50.04,410.902 53.785,422.922 55.838,444.484 55.838,444.813 64.113,444.817 64.189,444.817 64.264,444.817 75.763,444.784 102.95,444.122 104.913,444.076 106.876,444.031 128.414,443.517 150.002,442.854 149.579,440.256 149.76,436.27 150.062,428.297 152.901,421.291 155.921,413.862 164.075,404.137 169.692,397.493 175.732,391.816 175.914,391.574 176.155,391.393 178.45,389.279 182.558,385.896 L190.712,379.615 194.819,376.474 Q184.73,362.345 178.42,353.552 178.391,353.506 178.36,353.462 169.9,341.711 168.243,339.57 L167.035,337.939 M160.995,331.536 Q161.418,331.597 161.901,331.657 162.142,331.657 162.444,331.657 L166.733,337.516 M26.363,329 Q36.148,334.617 45.45,339.026 60.912,346.516 70.153,348.509 L101.863,353.884 M48.953,390.185 Q52.154,394.473 54.812,399.184 63.449,414.345 63.69,428.358 63.932,442.37 64.294,441.344 L64.536,437.478 106.876,437.901 Q107.903,434.156 108.266,429.143 108.99,419.116 105.427,411.687 101.803,404.198 92.139,399.124 82.414,394.05 72.388,393.144 62.301,392.178 52.758,389.52 L46.627,387.286 48.953,390.185Z" test="RedBike container"/>
      <use xlink:href="#Bike-Wheel" transform="matrix(1.208 0 0 1.208 226.4 429.25)"/>
      <use xlink:href="#Bike-Wheel" transform="matrix(1.208 0 0 1.208 -2.55 433.85)"/>
    </g>
  </g>
</svg>