<?xml version="1.0" encoding="utf-8"?>
<svg id="EdithAnim11" image-rendering="inherit" baseProfile="basic" version="1.1" x="0px" y="0px" width="800" height="600" xmlns="http://www.w3.org/2000/svg" xmlns:xlink="http://www.w3.org/1999/xlink">
  <defs>
    <g id="Bike-Wheel" overflow="visible">
      <path id="Layer4_0_1_STROKES" stroke="#FFF" stroke-width="1" stroke-linejoin="round" stroke-linecap="round" fill="none" d="M2.05 -34.85Q-12.35 -34.85 -22.65 -26.45 -34 -17.2 -34.7 -1.55 -35.4 14.3 -26.6 24.6 -18.4 34.2 -5.6 34.85 7.15 35.5 19.2 29.8 31.25 24.1 34.05 7.25 36.85 -9.65 28.9 -21.15 19.4 -34.85 2.05 -34.85Z" test="Bike Wheel"/>
      <path id="Layer3_0_1_STROKES" stroke="#FFF" stroke-width="1" stroke-linejoin="round" stroke-linecap="round" fill="none" d="M.55 -26.55Q4.65 -26.85 7.1 -26.15 9.75 -25.4 12 -23.15 13.95 -21.25 8 -15.35 5.3 -12.6 2.25 -10.2 1.95 -10 1.7 -9.8M24.45 -8.9Q26.2 -5.15 26.45 -2.65 26.7 .1 25.4 3.05 24.35 5.5 16.7 2.1 13.2 .6 9.85 -1.4 9.5 -1.6 9.25 -1.75M18.45 20Q15.75 23.1 13.55 24.35 11.2 25.75 8 25.75 5.3 25.75 5.25 17.4 5.2 13.55 5.65 9.7 5.7 9.35 5.75 9M-25.15 -7.15Q-24.25 -11.2 -22.85 -13.3 -21.4 -15.6 -18.6 -17.1 -16.2 -18.45 -12.25 -11.05 -10.4 -7.65 -9 -4.1 -8.9 -3.7 -8.75 -3.4M-12.85 23.8Q-16.75 22.4 -18.7 20.8 -20.85 19.05 -22.05 16.1 -23.1 13.6 -15.3 10.55 -11.75 9.05 -8 8.05 -7.65 8 -7.3 7.95" test="Bike Wheel"/>
    </g>
  </defs>
  <g id="19_Motorbikesf19r1" overflow="visible">
    <g id="MotorBikeBluef0r1">
      <path fill="#000" stroke="none" d="M250.65,274.55 L250,273.7 243.25,278.9 253.4,286.9 254.95,289.3 Q259.375,286.543 262.35,284.65 L261.3,283.1 250.65,274.55 M224.55,239.5 Q223.2,243.2 208.8,239.15 L209.8,243.95 Q216.65,249.85 229.05,246.7 L230.15,238.85 226.15,234 Q225.75,233.95 225.4,233.9 L224.55,239.5 M250.85,224.1 Q234.1,210.8 226.95,208.6 221.4,206.9 219.55,208.65 219.1,209.1 218.15,210.65 217.25,212.2 216.3,213.05 216.55,217.15 218.45,219.65 219.85,221.45 225.25,226.8 225.983,227.555 229.3,231.65 229.353,231.685 229.35,231.7 234.035,237.389 243.65,249.4 257.75,267.05 259.95,267.65 263.65,268.7 270.35,268.05 278,267.35 279.15,264.55 280.35,261.65 278.85,257.7 277.75,254.75 272.65,245.7 268.25,237.9 250.85,224.1Z" test="BlueBikeContainer"/>
      <path id="Layer2_0_1_STROKES" stroke="#0FF" stroke-width="1" stroke-linejoin="round" stroke-linecap="round" fill="none" d="M216.3,213.05 Q217.25,212.2 218.15,210.65 219.1,209.1 219.55,208.65 221.4,206.9 226.95,208.6 234.1,210.8 250.85,224.1 268.25,237.9 272.65,245.7 277.75,254.75 278.85,257.7 280.35,261.65 279.15,264.55 278,267.35 270.35,268.05 263.65,268.7 259.95,267.65 257.75,267.05 243.65,249.4 234.035,237.389 229.375,231.725 229.353,231.685 229.325,231.65 225.983,227.555 225.25,226.8 219.85,221.45 218.45,219.65 216.55,217.15 216.3,213.05Z" test="BlueBikeContainer"/>
      <path id="Layer2_0_2_STROKES" stroke="#009EFF" stroke-width="1" stroke-linejoin="round" stroke-linecap="round" fill="none" d="M225.4,233.9 Q216.95,233.3 208.25,232.85 189.5,231.95 187.8,233 186,234 185.25,236.5 184.9,237.75 184.55,241.05 184.3,243.3 182.55,247.85 180.7,252.45 179.7,253.1 179.358,253.345 176.425,252.925 176.364,252.91 176.3,252.9 L176.1,255.4 Q175.85,258.4 175.55,260.95 160.35,263.85 138.6,258.2 116.85,252.5 113.7,249.6 110.55,246.7 110.3,241.95 110.2,240.5 110.7,236.6 110.75,236.3 112.25,234.45 113.8,232.55 113.95,231.8 113.975,231.703 113.975,231.625 114.039,230.484 110.55,231.6 105.6,233.1 87.15,236.3 77.9,237.85 69.65,239.15 69,250.85 68.65,250.85 68.3,250.85 84.8,257 100.2,263.35 100.45,263.45 114.15,269.6 117.4,273.5 120.1,276.75 122.3,279.65 122.55,280 122.85,280.35 124.75,282.9 126.25,285.15 128.95,289.2 130.8,292.95 131.35,294 131.8,295.05 132.85,297.4 133.55,299.6 136.65,309.55 138.35,327.4 138.35,328.05 177.35,327.1 196.8,326.65 216.3,326.05 215.95,323.9 216.1,320.6 216.35,314 218.7,308.2 221.2,302.05 227.95,294 232.6,288.5 237.6,283.8 237.75,283.6 237.95,283.45 239.85,281.7 243.25,278.9 L250,273.7 253.4,271.1 Q245.048,259.404 239.825,252.125 239.801,252.087 239.775,252.05 232.772,242.323 231.4,240.55 L230.4,239.2 M226.15,234 Q226.35,234 226.6,234 L230.15,238.85 M226.15,234 Q225.75,233.95 225.4,233.9 M113.95,231.8 Q122.05,236.45 129.75,240.1 142.55,246.3 150.2,247.95 L176.45,252.4 M130.8,280.15 L132.65,282.45 Q135.3,286 137.5,289.9 144.65,302.45 144.85,314.05 145.05,325.65 145.35,324.8 L145.55,321.6 180.6,321.95 Q181.45,318.85 181.75,314.7 182.35,306.4 179.4,300.25 176.4,294.05 168.4,289.85 160.35,285.65 152.05,284.9 143.7,284.1 135.8,281.9 L130.8,280.15Z" test="BlueBikeContainer"/>
      <path id="Layer2_0_3_STROKES" stroke="#FFF" stroke-width="1" stroke-linejoin="round" stroke-linecap="round" fill="none" d="M230.4,239.2 L230.15,238.85 229.05,246.7 Q216.65,249.85 209.8,243.95 L208.8,239.15 Q223.2,243.2 224.55,239.5 L225.4,233.9 225.6,233.3 226.15,234 230.15,238.85 M261.3,283.1 L250.65,274.55 M243.25,278.9 L253.4,286.9" test="BlueBikeContainer"/>
      <use xlink:href="#Bike-Wheel" transform="translate(279.55 314.8)"/>
      <use xlink:href="#Bike-Wheel" transform="translate(90 318.6)"/>
    </g>
    <g id="MotorBikePinkf0r1">
      <path fill="#000" stroke="none" d="M32.754,341.261 Q33.056,346 36.861,350.502 40.666,354.005 66.94,360.891 93.214,367.716 111.576,364.213 111.938,361.132 112.24,357.508 L112.482,354.488 Q112.559,354.5 112.603,354.488 L112.663,353.884 80.953,348.509 Q71.712,346.516 56.25,339.026 46.948,334.617 37.163,329 36.982,329.906 35.11,332.201 33.298,334.436 33.237,334.798 32.633,339.509 32.754,341.261 M202.297,380.642 L201.512,379.615 193.358,385.896 205.619,395.56 207.491,398.46 Q212.837,395.129 216.43,392.842 L215.162,390.97 202.297,380.642 M170.768,338.301 Q169.137,342.771 151.742,337.878 L152.95,343.677 Q161.225,350.804 176.204,346 L177.533,337.516 172.701,331.657 Q172.218,331.597 171.795,331.536 L170.768,338.301 M151.742,337.878 Q169.137,342.771 170.768,338.301 L171.795,331.536 Q161.587,330.812 151.078,330.268 128.428,329.181 126.374,330.449 124.2,331.657 123.294,334.677 122.871,336.187 122.448,340.174 122.146,342.892 120.032,348.388 117.797,353.945 116.589,354.73 116.176,355.026 112.603,354.488 112.559,354.5 112.482,354.488 L112.24,357.508 Q111.938,361.132 111.576,364.213 93.214,367.716 66.94,360.891 40.666,354.005 36.861,350.502 33.056,346 32.754,341.261 32.633,339.509 33.237,334.798 33.298,334.436 35.11,332.201 36.982,329.906 37.163,329 37.193,328.882 37.163,328.758 37.271,327.41 33.056,328.758 27.076,330.57 4.789,334.436 -6.385,336.308 -16.351,337.878 -17.136,352.012 -17.559,352.012 -17.982,352.012 1.95,359.441 20.553,367.112 20.855,367.233 37.405,374.662 41.331,379.373 44.592,383.299 47.25,386.802 47.552,387.225 47.914,387.648 49.548,389.838 50.934,391.816 51.017,391.963 51.055,392.057 51.575,392.774 52.022,393.446 55.283,398.339 57.518,402.869 58.182,404.137 58.726,405.406 59.994,408.244 60.84,410.902 64.585,422.922 66.638,444.484 66.638,444.813 74.913,444.786 74.989,444.817 75.034,444.786 86.563,444.784 113.75,444.122 115.713,444.076 117.676,444.001 139.214,443.517 160.802,442.854 160.379,440.256 160.56,436.27 160.862,428.297 163.701,421.291 166.721,413.862 174.875,404.137 180.492,397.493 186.532,391.816 186.714,391.574 186.955,391.393 189.25,389.279 193.358,385.896 L201.512,379.615 205.619,376.474 Q195.53,362.345 189.19,353.522 189.191,353.506 189.13,353.462 180.7,341.711 179.043,339.57 L177.835,337.939 177.533,337.516 176.204,346 Q161.225,350.804 152.95,343.677 L151.742,337.878 M102.939,399.124 Q112.603,404.198 116.227,411.687 119.79,419.116 119.066,429.143 118.703,434.156 117.676,437.901 L75.336,437.478 75.094,441.344 Q74.732,442.37 74.49,428.358 74.249,414.345 65.612,399.184 62.954,394.473 59.753,390.185 L57.397,387.286 63.558,389.52 Q73.101,392.178 83.188,393.144 93.214,394.05 102.939,399.124 M116.227,411.687 Q112.603,404.198 102.939,399.124 93.214,394.05 83.188,393.144 73.101,392.178 63.558,389.52 L57.397,387.286 59.753,390.185 Q62.954,394.473 65.612,399.184 74.249,414.345 74.49,428.358 74.732,442.37 75.094,441.344 L75.336,437.478 117.676,437.901 Q118.703,434.156 119.066,429.143 119.79,419.116 116.227,411.687 M202.538,319.698 Q182.304,303.632 173.667,300.974 166.963,298.92 164.728,301.034 164.184,301.578 163.037,303.45 161.95,305.323 160.802,306.35 161.104,311.302 163.399,314.322 165.09,316.497 171.614,322.96 172.499,323.872 176.506,328.818 176.57,328.861 176.566,328.879 182.226,335.751 193.841,350.26 210.874,371.582 213.531,372.306 218.001,373.575 226.094,372.79 235.336,371.944 236.725,368.562 238.174,365.058 236.362,360.287 235.034,356.723 228.873,345.791 223.558,336.368 202.538,319.698Z" test="RedBike container" stroke-width="1.208"/>
      <path id="Layer1_0_1_STROKES" stroke="#0FF" stroke-width="1.208" stroke-linejoin="round" stroke-linecap="round" fill="none" d="M160.802,306.35 Q161.95,305.323 163.037,303.45 164.184,301.578 164.728,301.034 166.963,298.92 173.667,300.974 182.304,303.632 202.538,319.698 223.558,336.368 228.873,345.791 235.034,356.723 236.362,360.287 238.174,365.058 236.725,368.562 235.336,371.944 226.094,372.79 218.001,373.575 213.531,372.306 210.874,371.582 193.841,350.26 182.226,335.751 176.597,328.909 176.57,328.861 176.536,328.818 172.499,323.872 171.614,322.96 165.09,316.497 163.399,314.322 161.104,311.302 160.802,306.35Z" test="RedBike container"/>
      <path id="Layer1_0_2_STROKES" stroke="#FFF" stroke-width="1.208" stroke-linejoin="round" stroke-linecap="round" fill="none" d="M177.533,337.516 L176.204,346 Q161.225,350.804 152.95,343.677 L151.742,337.878 Q169.137,342.771 170.768,338.301 L171.795,331.536 M177.835,337.939 L177.533,337.516 172.701,331.657 M171.795,331.536 L172.036,330.812 172.701,331.657 M215.162,390.97 L202.297,380.642 M193.358,385.896 L205.619,395.56" test="RedBike container"/>
      <path id="Layer1_0_3_STROKES" stroke="#FF0265" stroke-width="1.208" stroke-linejoin="round" stroke-linecap="round" fill="none" d="M171.795,331.536 Q161.587,330.812 151.078,330.268 128.428,329.181 126.374,330.449 124.2,331.657 123.294,334.677 122.871,336.187 122.448,340.174 122.146,342.892 120.032,348.388 117.797,353.945 116.589,354.73 116.176,355.026 112.633,354.519 112.559,354.5 112.482,354.488 L112.24,357.508 Q111.938,361.132 111.576,364.213 93.214,367.716 66.94,360.891 40.666,354.005 36.861,350.502 33.056,346 32.754,341.261 32.633,339.509 33.237,334.798 33.298,334.436 35.11,332.201 36.982,329.906 37.163,329 37.193,328.882 37.193,328.788 37.271,327.41 33.056,328.758 27.076,330.57 4.789,334.436 -6.385,336.308 -16.351,337.878 -17.136,352.012 -17.559,352.012 -17.982,352.012 1.95,359.441 20.553,367.112 20.855,367.233 37.405,374.662 41.331,379.373 44.592,383.299 47.25,386.802 47.552,387.225 47.914,387.648 49.548,389.838 50.934,391.846 51.017,391.963 51.085,392.087 51.575,392.774 52.022,393.446 55.283,398.339 57.518,402.869 58.182,404.137 58.726,405.406 59.994,408.244 60.84,410.902 64.585,422.922 66.638,444.484 66.638,444.813 74.913,444.817 74.989,444.817 75.064,444.817 86.563,444.784 113.75,444.122 115.713,444.076 117.676,444.031 139.214,443.517 160.802,442.854 160.379,440.256 160.56,436.27 160.862,428.297 163.701,421.291 166.721,413.862 174.875,404.137 180.492,397.493 186.532,391.816 186.714,391.574 186.955,391.393 189.25,389.279 193.358,385.896 L201.512,379.615 205.619,376.474 Q195.53,362.345 189.22,353.552 189.191,353.506 189.16,353.462 180.7,341.711 179.043,339.57 L177.835,337.939 M171.795,331.536 Q172.218,331.597 172.701,331.657 172.942,331.657 173.244,331.657 L177.533,337.516 M37.163,329 Q46.948,334.617 56.25,339.026 71.712,346.516 80.953,348.509 L112.663,353.884 M59.753,390.185 Q62.954,394.473 65.612,399.184 74.249,414.345 74.49,428.358 74.732,442.37 75.094,441.344 L75.336,437.478 117.676,437.901 Q118.703,434.156 119.066,429.143 119.79,419.116 116.227,411.687 112.603,404.198 102.939,399.124 93.214,394.05 83.188,393.144 73.101,392.178 63.558,389.52 L57.427,387.286 59.753,390.185Z" test="RedBike container"/>
      <use xlink:href="#Bike-Wheel" transform="matrix(1.208 0 0 1.208 237.2 429.25)"/>
      <use xlink:href="#Bike-Wheel" transform="matrix(1.208 0 0 1.208 8.2 433.85)"/>
    </g>
  </g>
</svg>