<?xml version="1.0" encoding="utf-8"?>
<svg id="EdithAnim11" image-rendering="inherit" baseProfile="basic" version="1.1" x="0px" y="0px" width="800" height="600" xmlns="http://www.w3.org/2000/svg" xmlns:xlink="http://www.w3.org/1999/xlink">
  <defs>
    <g id="Bike-Wheel" overflow="visible">
      <path id="Layer4_0_1_STROKES" stroke="#FFF" stroke-width="1" stroke-linejoin="round" stroke-linecap="round" fill="none" d="M2.05 -34.85Q-12.35 -34.85 -22.65 -26.45 -34 -17.2 -34.7 -1.55 -35.4 14.3 -26.6 24.6 -18.4 34.2 -5.6 34.85 7.15 35.5 19.2 29.8 31.25 24.1 34.05 7.25 36.85 -9.65 28.9 -21.15 19.4 -34.85 2.05 -34.85Z" test="Bike Wheel"/>
      <path id="Layer3_0_1_STROKES" stroke="#FFF" stroke-width="1" stroke-linejoin="round" stroke-linecap="round" fill="none" d="M.55 -26.55Q4.65 -26.85 7.1 -26.15 9.75 -25.4 12 -23.15 13.95 -21.25 8 -15.35 5.3 -12.6 2.25 -10.2 1.95 -10 1.7 -9.8M24.45 -8.9Q26.2 -5.15 26.45 -2.65 26.7 .1 25.4 3.05 24.35 5.5 16.7 2.1 13.2 .6 9.85 -1.4 9.5 -1.6 9.25 -1.75M18.45 20Q15.75 23.1 13.55 24.35 11.2 25.75 8 25.75 5.3 25.75 5.25 17.4 5.2 13.55 5.65 9.7 5.7 9.35 5.75 9M-25.15 -7.15Q-24.25 -11.2 -22.85 -13.3 -21.4 -15.6 -18.6 -17.1 -16.2 -18.45 -12.25 -11.05 -10.4 -7.65 -9 -4.1 -8.9 -3.7 -8.75 -3.4M-12.85 23.8Q-16.75 22.4 -18.7 20.8 -20.85 19.05 -22.05 16.1 -23.1 13.6 -15.3 10.55 -11.75 9.05 -8 8.05 -7.65 8 -7.3 7.95" test="Bike Wheel"/>
    </g>
  </defs>
  <g id="19_Motorbikesf2r1" overflow="visible">
    <g id="MotorBikeBluef0r1">
      <path fill="#000" stroke="none" d="M-18.05,274.55 L-18.7,273.7 -25.45,278.9 -15.3,286.9 -13.75,289.3 Q-9.325,286.543 -6.35,284.65 L-7.4,283.1 -18.05,274.55 M-44.15,239.5 Q-45.5,243.2 -59.9,239.15 L-58.9,243.95 Q-52.05,249.85 -39.65,246.7 L-38.55,238.85 -42.55,234 Q-42.95,233.95 -43.3,233.9 L-44.15,239.5 M-17.85,224.1 Q-34.6,210.8 -41.75,208.6 -47.3,206.9 -49.15,208.65 -49.6,209.1 -50.55,210.65 -51.45,212.2 -52.4,213.05 -52.15,217.15 -50.25,219.65 -48.85,221.45 -43.45,226.8 -42.717,227.555 -39.4,231.65 -39.347,231.685 -39.35,231.7 -34.665,237.389 -25.05,249.4 -10.95,267.05 -8.75,267.65 -5.05,268.7 1.65,268.05 9.3,267.35 10.45,264.55 11.65,261.65 10.15,257.7 9.05,254.75 3.95,245.7 -.45,237.9 -17.85,224.1Z" test="BlueBikeContainer"/>
      <path id="Layer2_0_1_STROKES" stroke="#0FF" stroke-width="1" stroke-linejoin="round" stroke-linecap="round" fill="none" d="M-52.4,213.05 Q-51.45,212.2 -50.55,210.65 -49.6,209.1 -49.15,208.65 -47.3,206.9 -41.75,208.6 -34.6,210.8 -17.85,224.1 -.45,237.9 3.95,245.7 9.05,254.75 10.15,257.7 11.65,261.65 10.45,264.55 9.3,267.35 1.65,268.05 -5.05,268.7 -8.75,267.65 -10.95,267.05 -25.05,249.4 -34.665,237.389 -39.325,231.725 -39.347,231.685 -39.375,231.65 -42.717,227.555 -43.45,226.8 -48.85,221.45 -50.25,219.65 -52.15,217.15 -52.4,213.05Z" test="BlueBikeContainer"/>
      <path id="Layer2_0_2_STROKES" stroke="#009EFF" stroke-width="1" stroke-linejoin="round" stroke-linecap="round" fill="none" d="M-43.3,233.9 Q-51.75,233.3 -60.45,232.85 -79.2,231.95 -80.9,233 -82.7,234 -83.45,236.5 -83.8,237.75 -84.15,241.05 -84.4,243.3 -86.15,247.85 -88,252.45 -89,253.1 -89.342,253.345 -92.275,252.925 -92.336,252.91 -92.4,252.9 L-92.6,255.4 Q-92.85,258.4 -93.15,260.95 -108.35,263.85 -130.1,258.2 -151.85,252.5 -155,249.6 -158.15,246.7 -158.4,241.95 -158.5,240.5 -158,236.6 -157.95,236.3 -156.45,234.45 -154.9,232.55 -154.75,231.8 -154.725,231.703 -154.725,231.625 -154.661,230.484 -158.15,231.6 -163.1,233.1 -181.55,236.3 -190.8,237.85 -199.05,239.15 -199.7,250.85 -200.05,250.85 -200.4,250.85 -183.9,257 -168.5,263.35 -168.25,263.45 -154.55,269.6 -151.3,273.5 -148.6,276.75 -146.4,279.65 -146.15,280 -145.85,280.35 -143.95,282.9 -142.45,285.15 -139.75,289.2 -137.9,292.95 -137.35,294 -136.9,295.05 -135.85,297.4 -135.15,299.6 -132.05,309.55 -130.35,327.4 -130.35,328.05 -91.35,327.1 -71.9,326.65 -52.4,326.05 -52.75,323.9 -52.6,320.6 -52.35,314 -50,308.2 -47.5,302.05 -40.75,294 -36.1,288.5 -31.1,283.8 -30.95,283.6 -30.75,283.45 -28.85,281.7 -25.45,278.9 L-18.7,273.7 -15.3,271.1 Q-23.652,259.404 -28.875,252.125 -28.899,252.087 -28.925,252.05 -35.928,242.323 -37.3,240.55 L-38.3,239.2 M-42.55,234 Q-42.35,234 -42.1,234 L-38.55,238.85 M-42.55,234 Q-42.95,233.95 -43.3,233.9 M-154.75,231.8 Q-146.65,236.45 -138.95,240.1 -126.15,246.3 -118.5,247.95 L-92.25,252.4 M-137.9,280.15 L-136.05,282.45 Q-133.4,286 -131.2,289.9 -124.05,302.45 -123.85,314.05 -123.65,325.65 -123.35,324.8 L-123.15,321.6 -88.1,321.95 Q-87.25,318.85 -86.95,314.7 -86.35,306.4 -89.3,300.25 -92.3,294.05 -100.3,289.85 -108.35,285.65 -116.65,284.9 -125,284.1 -132.9,281.9 L-137.9,280.15Z" test="BlueBikeContainer"/>
      <path id="Layer2_0_3_STROKES" stroke="#FFF" stroke-width="1" stroke-linejoin="round" stroke-linecap="round" fill="none" d="M-38.3,239.2 L-38.55,238.85 -39.65,246.7 Q-52.05,249.85 -58.9,243.95 L-59.9,239.15 Q-45.5,243.2 -44.15,239.5 L-43.3,233.9 -43.1,233.3 -42.55,234 -38.55,238.85 M-7.4,283.1 L-18.05,274.55 M-25.45,278.9 L-15.3,286.9" test="BlueBikeContainer"/>
      <use xlink:href="#Bike-Wheel" transform="translate(10.85 314.8)"/>
      <use xlink:href="#Bike-Wheel" transform="translate(-178.7 318.6)"/>
    </g>
    <g id="MotorBikePinkf0r1">
      <path fill="#000" stroke="none" d="M-288.096,341.261 Q-287.794,346 -283.989,350.502 -280.184,354.005 -253.91,360.891 -227.636,367.716 -209.274,364.213 -208.912,361.132 -208.61,357.508 L-208.368,354.488 Q-208.291,354.5 -208.247,354.488 L-208.187,353.884 -239.897,348.509 Q-249.138,346.516 -264.6,339.026 -273.902,334.617 -283.687,329 -283.868,329.906 -285.74,332.201 -287.552,334.436 -287.613,334.798 -288.217,339.509 -288.096,341.261 M-118.553,380.642 L-119.338,379.615 -127.492,385.896 -115.231,395.56 -113.359,398.46 Q-108.013,395.129 -104.42,392.842 L-105.688,390.97 -118.553,380.642 M-150.082,338.301 Q-151.713,342.771 -169.108,337.878 L-167.9,343.677 Q-159.625,350.804 -144.646,346 L-143.317,337.516 -148.149,331.657 Q-148.632,331.597 -149.055,331.536 L-150.082,338.301 M-169.108,337.878 Q-151.713,342.771 -150.082,338.301 L-149.055,331.536 Q-159.263,330.812 -169.772,330.268 -192.422,329.181 -194.476,330.449 -196.65,331.657 -197.556,334.677 -197.979,336.187 -198.402,340.174 -198.704,342.892 -200.818,348.388 -203.053,353.945 -204.261,354.73 -204.674,355.026 -208.247,354.488 -208.291,354.5 -208.368,354.488 L-208.61,357.508 Q-208.912,361.132 -209.274,364.213 -227.636,367.716 -253.91,360.891 -280.184,354.005 -283.989,350.502 -287.794,346 -288.096,341.261 -288.217,339.509 -287.613,334.798 -287.552,334.436 -285.74,332.201 -283.868,329.906 -283.687,329 -283.657,328.882 -283.687,328.758 -283.579,327.41 -287.794,328.758 -293.774,330.57 -316.061,334.436 -327.235,336.308 -337.201,337.878 -337.986,352.012 -338.409,352.012 -338.832,352.012 -318.9,359.441 -300.297,367.112 -299.995,367.233 -283.445,374.662 -279.519,379.373 -276.258,383.299 -273.6,386.802 -273.298,387.225 -272.936,387.648 -271.302,389.838 -269.916,391.816 -269.833,391.963 -269.795,392.057 -269.275,392.774 -268.828,393.446 -265.567,398.339 -263.332,402.869 -262.668,404.137 -262.124,405.406 -260.856,408.244 -260.01,410.902 -256.265,422.922 -254.212,444.484 -254.212,444.813 -245.937,444.786 -245.861,444.817 -245.816,444.786 -234.287,444.784 -207.1,444.122 -205.137,444.076 -203.174,444.001 -181.636,443.517 -160.048,442.854 -160.471,440.256 -160.29,436.27 -159.988,428.297 -157.149,421.291 -154.129,413.862 -145.975,404.137 -140.358,397.493 -134.318,391.816 -134.136,391.574 -133.895,391.393 -131.6,389.279 -127.492,385.896 L-119.338,379.615 -115.231,376.474 Q-125.32,362.345 -131.66,353.522 -131.659,353.506 -131.72,353.462 -140.15,341.711 -141.807,339.57 L-143.015,337.939 -143.317,337.516 -144.646,346 Q-159.625,350.804 -167.9,343.677 L-169.108,337.878 M-217.911,399.124 Q-208.247,404.198 -204.623,411.687 -201.06,419.116 -201.784,429.143 -202.147,434.156 -203.174,437.901 L-245.514,437.478 -245.756,441.344 Q-246.118,442.37 -246.36,428.358 -246.601,414.345 -255.238,399.184 -257.896,394.473 -261.097,390.185 L-263.453,387.286 -257.292,389.52 Q-247.749,392.178 -237.662,393.144 -227.636,394.05 -217.911,399.124 M-204.623,411.687 Q-208.247,404.198 -217.911,399.124 -227.636,394.05 -237.662,393.144 -247.749,392.178 -257.292,389.52 L-263.453,387.286 -261.097,390.185 Q-257.896,394.473 -255.238,399.184 -246.601,414.345 -246.36,428.358 -246.118,442.37 -245.756,441.344 L-245.514,437.478 -203.174,437.901 Q-202.147,434.156 -201.784,429.143 -201.06,419.116 -204.623,411.687 M-118.312,319.698 Q-138.546,303.632 -147.183,300.974 -153.887,298.92 -156.122,301.034 -156.666,301.578 -157.813,303.45 -158.9,305.323 -160.048,306.35 -159.746,311.302 -157.451,314.322 -155.76,316.497 -149.236,322.96 -148.351,323.872 -144.344,328.818 -144.28,328.861 -144.284,328.879 -138.624,335.751 -127.009,350.26 -109.976,371.582 -107.319,372.306 -102.849,373.575 -94.756,372.79 -85.514,371.944 -84.125,368.562 -82.676,365.058 -84.488,360.287 -85.816,356.723 -91.977,345.791 -97.292,336.368 -118.312,319.698Z" test="RedBike container" stroke-width="1.208"/>
      <path id="Layer1_0_1_STROKES" stroke="#0FF" stroke-width="1.208" stroke-linejoin="round" stroke-linecap="round" fill="none" d="M-160.048,306.35 Q-158.9,305.323 -157.813,303.45 -156.666,301.578 -156.122,301.034 -153.887,298.92 -147.183,300.974 -138.546,303.632 -118.312,319.698 -97.292,336.368 -91.977,345.791 -85.816,356.723 -84.488,360.287 -82.676,365.058 -84.125,368.562 -85.514,371.944 -94.756,372.79 -102.849,373.575 -107.319,372.306 -109.976,371.582 -127.009,350.26 -138.624,335.751 -144.253,328.909 -144.28,328.861 -144.314,328.818 -148.351,323.872 -149.236,322.96 -155.76,316.497 -157.451,314.322 -159.746,311.302 -160.048,306.35Z" test="RedBike container"/>
      <path id="Layer1_0_2_STROKES" stroke="#FFF" stroke-width="1.208" stroke-linejoin="round" stroke-linecap="round" fill="none" d="M-143.317,337.516 L-144.646,346 Q-159.625,350.804 -167.9,343.677 L-169.108,337.878 Q-151.713,342.771 -150.082,338.301 L-149.055,331.536 M-143.015,337.939 L-143.317,337.516 -148.149,331.657 M-149.055,331.536 L-148.814,330.812 -148.149,331.657 M-105.688,390.97 L-118.553,380.642 M-127.492,385.896 L-115.231,395.56" test="RedBike container"/>
      <path id="Layer1_0_3_STROKES" stroke="#FF0265" stroke-width="1.208" stroke-linejoin="round" stroke-linecap="round" fill="none" d="M-149.055,331.536 Q-159.263,330.812 -169.772,330.268 -192.422,329.181 -194.476,330.449 -196.65,331.657 -197.556,334.677 -197.979,336.187 -198.402,340.174 -198.704,342.892 -200.818,348.388 -203.053,353.945 -204.261,354.73 -204.674,355.026 -208.217,354.519 -208.291,354.5 -208.368,354.488 L-208.61,357.508 Q-208.912,361.132 -209.274,364.213 -227.636,367.716 -253.91,360.891 -280.184,354.005 -283.989,350.502 -287.794,346 -288.096,341.261 -288.217,339.509 -287.613,334.798 -287.552,334.436 -285.74,332.201 -283.868,329.906 -283.687,329 -283.657,328.882 -283.657,328.788 -283.579,327.41 -287.794,328.758 -293.774,330.57 -316.061,334.436 -327.235,336.308 -337.201,337.878 -337.986,352.012 -338.409,352.012 -338.832,352.012 -318.9,359.441 -300.297,367.112 -299.995,367.233 -283.445,374.662 -279.519,379.373 -276.258,383.299 -273.6,386.802 -273.298,387.225 -272.936,387.648 -271.302,389.838 -269.916,391.846 -269.833,391.963 -269.765,392.087 -269.275,392.774 -268.828,393.446 -265.567,398.339 -263.332,402.869 -262.668,404.137 -262.124,405.406 -260.856,408.244 -260.01,410.902 -256.265,422.922 -254.212,444.484 -254.212,444.813 -245.937,444.817 -245.861,444.817 -245.786,444.817 -234.287,444.784 -207.1,444.122 -205.137,444.076 -203.174,444.031 -181.636,443.517 -160.048,442.854 -160.471,440.256 -160.29,436.27 -159.988,428.297 -157.149,421.291 -154.129,413.862 -145.975,404.137 -140.358,397.493 -134.318,391.816 -134.136,391.574 -133.895,391.393 -131.6,389.279 -127.492,385.896 L-119.338,379.615 -115.231,376.474 Q-125.32,362.345 -131.63,353.552 -131.659,353.506 -131.69,353.462 -140.15,341.711 -141.807,339.57 L-143.015,337.939 M-149.055,331.536 Q-148.632,331.597 -148.149,331.657 -147.908,331.657 -147.606,331.657 L-143.317,337.516 M-283.687,329 Q-273.902,334.617 -264.6,339.026 -249.138,346.516 -239.897,348.509 L-208.187,353.884 M-261.097,390.185 Q-257.896,394.473 -255.238,399.184 -246.601,414.345 -246.36,428.358 -246.118,442.37 -245.756,441.344 L-245.514,437.478 -203.174,437.901 Q-202.147,434.156 -201.784,429.143 -201.06,419.116 -204.623,411.687 -208.247,404.198 -217.911,399.124 -227.636,394.05 -237.662,393.144 -247.749,392.178 -257.292,389.52 L-263.423,387.286 -261.097,390.185Z" test="RedBike container"/>
      <use xlink:href="#Bike-Wheel" transform="matrix(1.208 0 0 1.208 -83.6 429.25)"/>
      <use xlink:href="#Bike-Wheel" transform="matrix(1.208 0 0 1.208 -312.6 433.85)"/>
    </g>
  </g>
</svg>