<?xml version="1.0" encoding="utf-8"?>
<svg id="EdithAnim11" image-rendering="inherit" baseProfile="basic" version="1.1" x="0px" y="0px" width="800" height="600" xmlns="http://www.w3.org/2000/svg" xmlns:xlink="http://www.w3.org/1999/xlink">
  <defs>
    <g id="Bike-Wheel" overflow="visible">
      <path id="Layer4_0_1_STROKES" stroke="#FFF" stroke-width="1" stroke-linejoin="round" stroke-linecap="round" fill="none" d="M2.05 -34.85Q-12.35 -34.85 -22.65 -26.45 -34 -17.2 -34.7 -1.55 -35.4 14.3 -26.6 24.6 -18.4 34.2 -5.6 34.85 7.15 35.5 19.2 29.8 31.25 24.1 34.05 7.25 36.85 -9.65 28.9 -21.15 19.4 -34.85 2.05 -34.85Z" test="Bike Wheel"/>
      <path id="Layer3_0_1_STROKES" stroke="#FFF" stroke-width="1" stroke-linejoin="round" stroke-linecap="round" fill="none" d="M.55 -26.55Q4.65 -26.85 7.1 -26.15 9.75 -25.4 12 -23.15 13.95 -21.25 8 -15.35 5.3 -12.6 2.25 -10.2 1.95 -10 1.7 -9.8M24.45 -8.9Q26.2 -5.15 26.45 -2.65 26.7 .1 25.4 3.05 24.35 5.5 16.7 2.1 13.2 .6 9.85 -1.4 9.5 -1.6 9.25 -1.75M18.45 20Q15.75 23.1 13.55 24.35 11.2 25.75 8 25.75 5.3 25.75 5.25 17.4 5.2 13.55 5.65 9.7 5.7 9.35 5.75 9M-25.15 -7.15Q-24.25 -11.2 -22.85 -13.3 -21.4 -15.6 -18.6 -17.1 -16.2 -18.45 -12.25 -11.05 -10.4 -7.65 -9 -4.1 -8.9 -3.7 -8.75 -3.4M-12.85 23.8Q-16.75 22.4 -18.7 20.8 -20.85 19.05 -22.05 16.1 -23.1 13.6 -15.3 10.55 -11.75 9.05 -8 8.05 -7.65 8 -7.3 7.95" test="Bike Wheel"/>
    </g>
  </defs>
  <g id="19_Motorbikesf20r1" overflow="visible">
    <g id="MotorBikeBluef0r1">
      <path fill="#000" stroke="none" d="M258.8,274.55 L258.15,273.7 251.4,278.9 261.55,286.9 263.1,289.3 Q267.525,286.543 270.5,284.65 L269.45,283.1 258.8,274.55 M232.7,239.5 Q231.35,243.2 216.95,239.15 L217.95,243.95 Q224.8,249.85 237.2,246.7 L238.3,238.85 234.3,234 Q233.9,233.95 233.55,233.9 L232.7,239.5 M259,224.1 Q242.25,210.8 235.1,208.6 229.55,206.9 227.7,208.65 227.25,209.1 226.3,210.65 225.4,212.2 224.45,213.05 224.7,217.15 226.6,219.65 228,221.45 233.4,226.8 234.133,227.555 237.45,231.65 237.503,231.685 237.5,231.7 242.185,237.389 251.8,249.4 265.9,267.05 268.1,267.65 271.8,268.7 278.5,268.05 286.15,267.35 287.3,264.55 288.5,261.65 287,257.7 285.9,254.75 280.8,245.7 276.4,237.9 259,224.1Z" test="BlueBikeContainer"/>
      <path id="Layer2_0_1_STROKES" stroke="#0FF" stroke-width="1" stroke-linejoin="round" stroke-linecap="round" fill="none" d="M224.45,213.05 Q225.4,212.2 226.3,210.65 227.25,209.1 227.7,208.65 229.55,206.9 235.1,208.6 242.25,210.8 259,224.1 276.4,237.9 280.8,245.7 285.9,254.75 287,257.7 288.5,261.65 287.3,264.55 286.15,267.35 278.5,268.05 271.8,268.7 268.1,267.65 265.9,267.05 251.8,249.4 242.185,237.389 237.525,231.725 237.503,231.685 237.475,231.65 234.133,227.555 233.4,226.8 228,221.45 226.6,219.65 224.7,217.15 224.45,213.05Z" test="BlueBikeContainer"/>
      <path id="Layer2_0_2_STROKES" stroke="#009EFF" stroke-width="1" stroke-linejoin="round" stroke-linecap="round" fill="none" d="M233.55,233.9 Q225.1,233.3 216.4,232.85 197.65,231.95 195.95,233 194.15,234 193.4,236.5 193.05,237.75 192.7,241.05 192.45,243.3 190.7,247.85 188.85,252.45 187.85,253.1 187.508,253.345 184.575,252.925 184.514,252.91 184.45,252.9 L184.25,255.4 Q184,258.4 183.7,260.95 168.5,263.85 146.75,258.2 125,252.5 121.85,249.6 118.7,246.7 118.45,241.95 118.35,240.5 118.85,236.6 118.9,236.3 120.4,234.45 121.95,232.55 122.1,231.8 122.125,231.703 122.125,231.625 122.189,230.484 118.7,231.6 113.75,233.1 95.3,236.3 86.05,237.85 77.8,239.15 77.15,250.85 76.8,250.85 76.45,250.85 92.95,257 108.35,263.35 108.6,263.45 122.3,269.6 125.55,273.5 128.25,276.75 130.45,279.65 130.7,280 131,280.35 132.9,282.9 134.4,285.15 137.1,289.2 138.95,292.95 139.5,294 139.95,295.05 141,297.4 141.7,299.6 144.8,309.55 146.5,327.4 146.5,328.05 185.5,327.1 204.95,326.65 224.45,326.05 224.1,323.9 224.25,320.6 224.5,314 226.85,308.2 229.35,302.05 236.1,294 240.75,288.5 245.75,283.8 245.9,283.6 246.1,283.45 248,281.7 251.4,278.9 L258.15,273.7 261.55,271.1 Q253.198,259.404 247.975,252.125 247.951,252.087 247.925,252.05 240.922,242.323 239.55,240.55 L238.55,239.2 M234.3,234 Q234.5,234 234.75,234 L238.3,238.85 M234.3,234 Q233.9,233.95 233.55,233.9 M122.1,231.8 Q130.2,236.45 137.9,240.1 150.7,246.3 158.35,247.95 L184.6,252.4 M138.95,280.15 L140.8,282.45 Q143.45,286 145.65,289.9 152.8,302.45 153,314.05 153.2,325.65 153.5,324.8 L153.7,321.6 188.75,321.95 Q189.6,318.85 189.9,314.7 190.5,306.4 187.55,300.25 184.55,294.05 176.55,289.85 168.5,285.65 160.2,284.9 151.85,284.1 143.95,281.9 L138.95,280.15Z" test="BlueBikeContainer"/>
      <path id="Layer2_0_3_STROKES" stroke="#FFF" stroke-width="1" stroke-linejoin="round" stroke-linecap="round" fill="none" d="M238.55,239.2 L238.3,238.85 237.2,246.7 Q224.8,249.85 217.95,243.95 L216.95,239.15 Q231.35,243.2 232.7,239.5 L233.55,233.9 233.75,233.3 234.3,234 238.3,238.85 M269.45,283.1 L258.8,274.55 M251.4,278.9 L261.55,286.9" test="BlueBikeContainer"/>
      <use xlink:href="#Bike-Wheel" transform="translate(287.7 314.8)"/>
      <use xlink:href="#Bike-Wheel" transform="translate(98.15 318.6)"/>
    </g>
    <g id="MotorBikePinkf0r1">
      <path fill="#000" stroke="none" d="M42.504,341.261 Q42.806,346 46.611,350.502 50.416,354.005 76.69,360.891 102.964,367.716 121.326,364.213 121.688,361.132 121.99,357.508 L122.232,354.488 Q122.309,354.5 122.353,354.488 L122.413,353.884 90.703,348.509 Q81.462,346.516 66,339.026 56.698,334.617 46.913,329 46.732,329.906 44.86,332.201 43.048,334.436 42.987,334.798 42.383,339.509 42.504,341.261 M212.047,380.642 L211.262,379.615 203.108,385.896 215.369,395.56 217.241,398.46 Q222.587,395.129 226.18,392.842 L224.912,390.97 212.047,380.642 M180.518,338.301 Q178.887,342.771 161.492,337.878 L162.7,343.677 Q170.975,350.804 185.954,346 L187.283,337.516 182.451,331.657 Q181.968,331.597 181.545,331.536 L180.518,338.301 M161.492,337.878 Q178.887,342.771 180.518,338.301 L181.545,331.536 Q171.337,330.812 160.828,330.268 138.178,329.181 136.124,330.449 133.95,331.657 133.044,334.677 132.621,336.187 132.198,340.174 131.896,342.892 129.782,348.388 127.547,353.945 126.339,354.73 125.926,355.026 122.353,354.488 122.309,354.5 122.232,354.488 L121.99,357.508 Q121.688,361.132 121.326,364.213 102.964,367.716 76.69,360.891 50.416,354.005 46.611,350.502 42.806,346 42.504,341.261 42.383,339.509 42.987,334.798 43.048,334.436 44.86,332.201 46.732,329.906 46.913,329 46.943,328.882 46.913,328.758 47.021,327.41 42.806,328.758 36.826,330.57 14.539,334.436 3.365,336.308 -6.601,337.878 -7.386,352.012 -7.809,352.012 -8.232,352.012 11.7,359.441 30.303,367.112 30.605,367.233 47.155,374.662 51.081,379.373 54.342,383.299 57,386.802 57.302,387.225 57.664,387.648 59.298,389.838 60.684,391.816 60.767,391.963 60.805,392.057 61.325,392.774 61.772,393.446 65.033,398.339 67.268,402.869 67.932,404.137 68.476,405.406 69.744,408.244 70.59,410.902 74.335,422.922 76.388,444.484 76.388,444.813 84.663,444.786 84.739,444.817 84.784,444.786 96.313,444.784 123.5,444.122 125.463,444.076 127.426,444.001 148.964,443.517 170.552,442.854 170.129,440.256 170.31,436.27 170.612,428.297 173.451,421.291 176.471,413.862 184.625,404.137 190.242,397.493 196.282,391.816 196.464,391.574 196.705,391.393 199,389.279 203.108,385.896 L211.262,379.615 215.369,376.474 Q205.28,362.345 198.94,353.522 198.941,353.506 198.88,353.462 190.45,341.711 188.793,339.57 L187.585,337.939 187.283,337.516 185.954,346 Q170.975,350.804 162.7,343.677 L161.492,337.878 M112.689,399.124 Q122.353,404.198 125.977,411.687 129.54,419.116 128.816,429.143 128.453,434.156 127.426,437.901 L85.086,437.478 84.844,441.344 Q84.482,442.37 84.24,428.358 83,414.345 75.362,399.184 72.704,394.473 69.503,390.185 L67.147,387.286 73.308,389.52 Q82.851,392.178 92.938,393.144 102.964,394.05 112.689,399.124 M125.977,411.687 Q122.353,404.198 112.689,399.124 102.964,394.05 92.938,393.144 82.851,392.178 73.308,389.52 L67.147,387.286 69.503,390.185 Q72.704,394.473 75.362,399.184 83,414.345 84.24,428.358 84.482,442.37 84.844,441.344 L85.086,437.478 127.426,437.901 Q128.453,434.156 128.816,429.143 129.54,419.116 125.977,411.687 M212.288,319.698 Q192.054,303.632 183.417,300.974 176.713,298.92 174.478,301.034 173.934,301.578 172.787,303.45 171.7,305.323 170.552,306.35 170.854,311.302 173.149,314.322 174.84,316.497 181.364,322.96 182.249,323.872 186.256,328.818 186.32,328.861 186.316,328.879 191.976,335.751 203.591,350.26 220.624,371.582 223.281,372.306 227.751,373.575 235.844,372.79 245.086,371.944 246.475,368.562 247.924,365.058 246.112,360.287 244.784,356.723 238.623,345.791 233.308,336.368 212.288,319.698Z" test="RedBike container" stroke-width="1.208"/>
      <path id="Layer1_0_1_STROKES" stroke="#0FF" stroke-width="1.208" stroke-linejoin="round" stroke-linecap="round" fill="none" d="M170.552,306.35 Q171.7,305.323 172.787,303.45 173.934,301.578 174.478,301.034 176.713,298.92 183.417,300.974 192.054,303.632 212.288,319.698 233.308,336.368 238.623,345.791 244.784,356.723 246.112,360.287 247.924,365.058 246.475,368.562 245.086,371.944 235.844,372.79 227.751,373.575 223.281,372.306 220.624,371.582 203.591,350.26 191.976,335.751 186.347,328.909 186.32,328.861 186.286,328.818 182.249,323.872 181.364,322.96 174.84,316.497 173.149,314.322 170.854,311.302 170.552,306.35Z" test="RedBike container"/>
      <path id="Layer1_0_2_STROKES" stroke="#FFF" stroke-width="1.208" stroke-linejoin="round" stroke-linecap="round" fill="none" d="M187.283,337.516 L185.954,346 Q170.975,350.804 162.7,343.677 L161.492,337.878 Q178.887,342.771 180.518,338.301 L181.545,331.536 M187.585,337.939 L187.283,337.516 182.451,331.657 M181.545,331.536 L181.786,330.812 182.451,331.657 M224.912,390.97 L212.047,380.642 M203.108,385.896 L215.369,395.56" test="RedBike container"/>
      <path id="Layer1_0_3_STROKES" stroke="#FF0265" stroke-width="1.208" stroke-linejoin="round" stroke-linecap="round" fill="none" d="M181.545,331.536 Q171.337,330.812 160.828,330.268 138.178,329.181 136.124,330.449 133.95,331.657 133.044,334.677 132.621,336.187 132.198,340.174 131.896,342.892 129.782,348.388 127.547,353.945 126.339,354.73 125.926,355.026 122.383,354.519 122.309,354.5 122.232,354.488 L121.99,357.508 Q121.688,361.132 121.326,364.213 102.964,367.716 76.69,360.891 50.416,354.005 46.611,350.502 42.806,346 42.504,341.261 42.383,339.509 42.987,334.798 43.048,334.436 44.86,332.201 46.732,329.906 46.913,329 46.943,328.882 46.943,328.788 47.021,327.41 42.806,328.758 36.826,330.57 14.539,334.436 3.365,336.308 -6.601,337.878 -7.386,352.012 -7.809,352.012 -8.232,352.012 11.7,359.441 30.303,367.112 30.605,367.233 47.155,374.662 51.081,379.373 54.342,383.299 57,386.802 57.302,387.225 57.664,387.648 59.298,389.838 60.684,391.846 60.767,391.963 60.835,392.087 61.325,392.774 61.772,393.446 65.033,398.339 67.268,402.869 67.932,404.137 68.476,405.406 69.744,408.244 70.59,410.902 74.335,422.922 76.388,444.484 76.388,444.813 84.663,444.817 84.739,444.817 84.814,444.817 96.313,444.784 123.5,444.122 125.463,444.076 127.426,444.031 148.964,443.517 170.552,442.854 170.129,440.256 170.31,436.27 170.612,428.297 173.451,421.291 176.471,413.862 184.625,404.137 190.242,397.493 196.282,391.816 196.464,391.574 196.705,391.393 199,389.279 203.108,385.896 L211.262,379.615 215.369,376.474 Q205.28,362.345 198.97,353.552 198.941,353.506 198.91,353.462 190.45,341.711 188.793,339.57 L187.585,337.939 M181.545,331.536 Q181.968,331.597 182.451,331.657 182.692,331.657 182.994,331.657 L187.283,337.516 M46.913,329 Q56.698,334.617 66,339.026 81.462,346.516 90.703,348.509 L122.413,353.884 M69.503,390.185 Q72.704,394.473 75.362,399.184 83,414.345 84.24,428.358 84.482,442.37 84.844,441.344 L85.086,437.478 127.426,437.901 Q128.453,434.156 128.816,429.143 129.54,419.116 125.977,411.687 122.353,404.198 112.689,399.124 102.964,394.05 92.938,393.144 82.851,392.178 73.308,389.52 L67.177,387.286 69.503,390.185Z" test="RedBike container"/>
      <use xlink:href="#Bike-Wheel" transform="matrix(1.208 0 0 1.208 246.95 429.25)"/>
      <use xlink:href="#Bike-Wheel" transform="matrix(1.208 0 0 1.208 17.95 433.85)"/>
    </g>
  </g>
</svg>