<?xml version="1.0" encoding="utf-8"?>
<svg id="EdithAnim11" image-rendering="inherit" baseProfile="basic" version="1.1" x="0px" y="0px" width="800" height="600" xmlns="http://www.w3.org/2000/svg" xmlns:xlink="http://www.w3.org/1999/xlink">
  <defs>
    <g id="Bike-Wheel" overflow="visible">
      <path id="Layer4_0_1_STROKES" stroke="#FFF" stroke-width="1" stroke-linejoin="round" stroke-linecap="round" fill="none" d="M2.05 -34.85Q-12.35 -34.85 -22.65 -26.45 -34 -17.2 -34.7 -1.55 -35.4 14.3 -26.6 24.6 -18.4 34.2 -5.6 34.85 7.15 35.5 19.2 29.8 31.25 24.1 34.05 7.25 36.85 -9.65 28.9 -21.15 19.4 -34.85 2.05 -34.85Z" test="Bike Wheel"/>
      <path id="Layer3_0_1_STROKES" stroke="#FFF" stroke-width="1" stroke-linejoin="round" stroke-linecap="round" fill="none" d="M.55 -26.55Q4.65 -26.85 7.1 -26.15 9.75 -25.4 12 -23.15 13.95 -21.25 8 -15.35 5.3 -12.6 2.25 -10.2 1.95 -10 1.7 -9.8M24.45 -8.9Q26.2 -5.15 26.45 -2.65 26.7 .1 25.4 3.05 24.35 5.5 16.7 2.1 13.2 .6 9.85 -1.4 9.5 -1.6 9.25 -1.75M18.45 20Q15.75 23.1 13.55 24.35 11.2 25.75 8 25.75 5.3 25.75 5.25 17.4 5.2 13.55 5.65 9.7 5.7 9.35 5.75 9M-25.15 -7.15Q-24.25 -11.2 -22.85 -13.3 -21.4 -15.6 -18.6 -17.1 -16.2 -18.45 -12.25 -11.05 -10.4 -7.65 -9 -4.1 -8.9 -3.7 -8.75 -3.4M-12.85 23.8Q-16.75 22.4 -18.7 20.8 -20.85 19.05 -22.05 16.1 -23.1 13.6 -15.3 10.55 -11.75 9.05 -8 8.05 -7.65 8 -7.3 7.95" test="Bike Wheel"/>
    </g>
  </defs>
  <g id="19_Motorbikesf21r1" overflow="visible">
    <g id="MotorBikeBluef0r1">
      <path fill="#000" stroke="none" d="M266.15,274.55 L265.5,273.7 258.75,278.9 268.9,286.9 270.45,289.3 Q274.875,286.543 277.85,284.65 L276.8,283.1 266.15,274.55 M240.05,239.5 Q238.7,243.2 224.3,239.15 L225.3,243.95 Q232.15,249.85 244.55,246.7 L245.65,238.85 241.65,234 Q241.25,233.95 240.9,233.9 L240.05,239.5 M266.35,224.1 Q249.6,210.8 242.45,208.6 236.9,206.9 235.05,208.65 234.6,209.1 233.65,210.65 232.75,212.2 231.8,213.05 232.05,217.15 233.95,219.65 235.35,221.45 240.75,226.8 241.483,227.555 244.8,231.65 244.853,231.685 244.85,231.7 249.535,237.389 259.15,249.4 273.25,267.05 275.45,267.65 279.15,268.7 285.85,268.05 293.5,267.35 294.65,264.55 295.85,261.65 294.35,257.7 293.25,254.75 288.15,245.7 283.75,237.9 266.35,224.1Z" test="BlueBikeContainer"/>
      <path id="Layer2_0_1_STROKES" stroke="#0FF" stroke-width="1" stroke-linejoin="round" stroke-linecap="round" fill="none" d="M231.8,213.05 Q232.75,212.2 233.65,210.65 234.6,209.1 235.05,208.65 236.9,206.9 242.45,208.6 249.6,210.8 266.35,224.1 283.75,237.9 288.15,245.7 293.25,254.75 294.35,257.7 295.85,261.65 294.65,264.55 293.5,267.35 285.85,268.05 279.15,268.7 275.45,267.65 273.25,267.05 259.15,249.4 249.535,237.389 244.875,231.725 244.853,231.685 244.825,231.65 241.483,227.555 240.75,226.8 235.35,221.45 233.95,219.65 232.05,217.15 231.8,213.05Z" test="BlueBikeContainer"/>
      <path id="Layer2_0_2_STROKES" stroke="#009EFF" stroke-width="1" stroke-linejoin="round" stroke-linecap="round" fill="none" d="M240.9,233.9 Q232.45,233.3 223.75,232.85 205,231.95 203.3,233 201.5,234 200.75,236.5 200.4,237.75 200.05,241.05 199.8,243.3 198.05,247.85 196.2,252.45 195.2,253.1 194.858,253.345 191.925,252.925 191.864,252.91 191.8,252.9 L191.6,255.4 Q191.35,258.4 191.05,260.95 175.85,263.85 154.1,258.2 132.35,252.5 129.2,249.6 126.05,246.7 125.8,241.95 125.7,240.5 126.2,236.6 126.25,236.3 127.75,234.45 129.3,232.55 129.45,231.8 129.475,231.703 129.475,231.625 129.539,230.484 126.05,231.6 121.1,233.1 102.65,236.3 93.4,237.85 85.15,239.15 84.5,250.85 84.15,250.85 83.8,250.85 100.3,257 115.7,263.35 115.95,263.45 129.65,269.6 132.9,273.5 135.6,276.75 137.8,279.65 138.05,280 138.35,280.35 140.25,282.9 141.75,285.15 144.45,289.2 146.3,292.95 146.85,294 147.3,295.05 148.35,297.4 149.05,299.6 152.15,309.55 153.85,327.4 153.85,328.05 192.85,327.1 212.3,326.65 231.8,326.05 231.45,323.9 231.6,320.6 231.85,314 234.2,308.2 236.7,302.05 243.45,294 248.1,288.5 253.1,283.8 253.25,283.6 253.45,283.45 255.35,281.7 258.75,278.9 L265.5,273.7 268.9,271.1 Q260.548,259.404 255.325,252.125 255.301,252.087 255.275,252.05 248.272,242.323 246.9,240.55 L245.9,239.2 M241.65,234 Q241.85,234 242.1,234 L245.65,238.85 M241.65,234 Q241.25,233.95 240.9,233.9 M129.45,231.8 Q137.55,236.45 145.25,240.1 158.05,246.3 165.7,247.95 L191.95,252.4 M146.3,280.15 L148.15,282.45 Q150.8,286 153,289.9 160.15,302.45 160.35,314.05 160.55,325.65 160.85,324.8 L161.05,321.6 196.1,321.95 Q196.95,318.85 197.25,314.7 197.85,306.4 194.9,300.25 191.9,294.05 183.9,289.85 175.85,285.65 167.55,284.9 159.2,284.1 151.3,281.9 L146.3,280.15Z" test="BlueBikeContainer"/>
      <path id="Layer2_0_3_STROKES" stroke="#FFF" stroke-width="1" stroke-linejoin="round" stroke-linecap="round" fill="none" d="M245.9,239.2 L245.65,238.85 244.55,246.7 Q232.15,249.85 225.3,243.95 L224.3,239.15 Q238.7,243.2 240.05,239.5 L240.9,233.9 241.1,233.3 241.65,234 245.65,238.85 M276.8,283.1 L266.15,274.55 M258.75,278.9 L268.9,286.9" test="BlueBikeContainer"/>
      <use xlink:href="#Bike-Wheel" transform="translate(295.05 314.8)"/>
      <use xlink:href="#Bike-Wheel" transform="translate(105.5 318.6)"/>
    </g>
    <g id="MotorBikePinkf0r1">
      <path fill="#000" stroke="none" d="M51.254,341.261 Q51.556,346 55.361,350.502 59.166,354.005 85.44,360.891 111.714,367.716 130.076,364.213 130.438,361.132 130.74,357.508 L130.982,354.488 Q131.059,354.5 131.103,354.488 L131.163,353.884 99.453,348.509 Q90.212,346.516 74.75,339.026 65.448,334.617 55.663,329 55.482,329.906 53.61,332.201 51.798,334.436 51.737,334.798 51.133,339.509 51.254,341.261 M220.797,380.642 L220.012,379.615 211.858,385.896 224.119,395.56 225.991,398.46 Q231.337,395.129 234.93,392.842 L233.662,390.97 220.797,380.642 M189.268,338.301 Q187.637,342.771 170.242,337.878 L171.45,343.677 Q179.725,350.804 194.704,346 L196.033,337.516 191.201,331.657 Q190.718,331.597 190.295,331.536 L189.268,338.301 M170.242,337.878 Q187.637,342.771 189.268,338.301 L190.295,331.536 Q180.087,330.812 169.578,330.268 146.928,329.181 144.874,330.449 142.7,331.657 141.794,334.677 141.371,336.187 140.948,340.174 140.646,342.892 138.532,348.388 136.297,353.945 135.089,354.73 134.676,355.026 131.103,354.488 131.059,354.5 130.982,354.488 L130.74,357.508 Q130.438,361.132 130.076,364.213 111.714,367.716 85.44,360.891 59.166,354.005 55.361,350.502 51.556,346 51.254,341.261 51.133,339.509 51.737,334.798 51.798,334.436 53.61,332.201 55.482,329.906 55.663,329 55.693,328.882 55.663,328.758 55.771,327.41 51.556,328.758 45.576,330.57 23.289,334.436 12.115,336.308 2.149,337.878 1.364,352.012 .941,352.012 .518,352.012 20.45,359.441 39.053,367.112 39.355,367.233 55.905,374.662 59.831,379.373 63.092,383.299 65.75,386.802 66.052,387.225 66.414,387.648 68.048,389.838 69.434,391.816 69.517,391.963 69.555,392.057 70.075,392.774 70.522,393.446 73.783,398.339 76.018,402.869 76.682,404.137 77.226,405.406 78.494,408.244 79.34,410.902 83.085,422.922 85.138,444.484 85.138,444.813 93.413,444.786 93.489,444.817 93.534,444.786 105.063,444.784 132.25,444.122 134.213,444.076 136.176,444.001 157.714,443.517 179.302,442.854 178.879,440.256 179.06,436.27 179.362,428.297 182.201,421.291 185.221,413.862 193.375,404.137 198.992,397.493 205.032,391.816 205.214,391.574 205.455,391.393 207.75,389.279 211.858,385.896 L220.012,379.615 224.119,376.474 Q214.03,362.345 207.69,353.522 207.691,353.506 207.63,353.462 199.2,341.711 197.543,339.57 L196.335,337.939 196.033,337.516 194.704,346 Q179.725,350.804 171.45,343.677 L170.242,337.878 M121.439,399.124 Q131.103,404.198 134.727,411.687 138.29,419.116 137.566,429.143 137.203,434.156 136.176,437.901 L93.836,437.478 93.594,441.344 Q93.232,442.37 92.99,428.358 92.749,414.345 84.112,399.184 81.454,394.473 78.253,390.185 L75.897,387.286 82.058,389.52 Q91.601,392.178 101.688,393.144 111.714,394.05 121.439,399.124 M134.727,411.687 Q131.103,404.198 121.439,399.124 111.714,394.05 101.688,393.144 91.601,392.178 82.058,389.52 L75.897,387.286 78.253,390.185 Q81.454,394.473 84.112,399.184 92.749,414.345 92.99,428.358 93.232,442.37 93.594,441.344 L93.836,437.478 136.176,437.901 Q137.203,434.156 137.566,429.143 138.29,419.116 134.727,411.687 M221.038,319.698 Q200.804,303.632 192.167,300.974 185.463,298.92 183.228,301.034 182.684,301.578 181.537,303.45 180.45,305.323 179.302,306.35 179.604,311.302 181.899,314.322 183.59,316.497 190.114,322.96 190,323.872 195.006,328.818 195.07,328.861 195.066,328.879 200.726,335.751 212.341,350.26 229.374,371.582 232.031,372.306 236.501,373.575 244.594,372.79 253.836,371.944 255.225,368.562 256.674,365.058 254.862,360.287 253.534,356.723 247.373,345.791 242.058,336.368 221.038,319.698Z" test="RedBike container" stroke-width="1.208"/>
      <path id="Layer1_0_1_STROKES" stroke="#0FF" stroke-width="1.208" stroke-linejoin="round" stroke-linecap="round" fill="none" d="M179.302,306.35 Q180.45,305.323 181.537,303.45 182.684,301.578 183.228,301.034 185.463,298.92 192.167,300.974 200.804,303.632 221.038,319.698 242.058,336.368 247.373,345.791 253.534,356.723 254.862,360.287 256.674,365.058 255.225,368.562 253.836,371.944 244.594,372.79 236.501,373.575 232.031,372.306 229.374,371.582 212.341,350.26 200.726,335.751 195.097,328.909 195.07,328.861 195.036,328.818 190,323.872 190.114,322.96 183.59,316.497 181.899,314.322 179.604,311.302 179.302,306.35Z" test="RedBike container"/>
      <path id="Layer1_0_2_STROKES" stroke="#FFF" stroke-width="1.208" stroke-linejoin="round" stroke-linecap="round" fill="none" d="M196.033,337.516 L194.704,346 Q179.725,350.804 171.45,343.677 L170.242,337.878 Q187.637,342.771 189.268,338.301 L190.295,331.536 M196.335,337.939 L196.033,337.516 191.201,331.657 M190.295,331.536 L190.536,330.812 191.201,331.657 M233.662,390.97 L220.797,380.642 M211.858,385.896 L224.119,395.56" test="RedBike container"/>
      <path id="Layer1_0_3_STROKES" stroke="#FF0265" stroke-width="1.208" stroke-linejoin="round" stroke-linecap="round" fill="none" d="M190.295,331.536 Q180.087,330.812 169.578,330.268 146.928,329.181 144.874,330.449 142.7,331.657 141.794,334.677 141.371,336.187 140.948,340.174 140.646,342.892 138.532,348.388 136.297,353.945 135.089,354.73 134.676,355.026 131.133,354.519 131.059,354.5 130.982,354.488 L130.74,357.508 Q130.438,361.132 130.076,364.213 111.714,367.716 85.44,360.891 59.166,354.005 55.361,350.502 51.556,346 51.254,341.261 51.133,339.509 51.737,334.798 51.798,334.436 53.61,332.201 55.482,329.906 55.663,329 55.693,328.882 55.693,328.788 55.771,327.41 51.556,328.758 45.576,330.57 23.289,334.436 12.115,336.308 2.149,337.878 1.364,352.012 .941,352.012 .518,352.012 20.45,359.441 39.053,367.112 39.355,367.233 55.905,374.662 59.831,379.373 63.092,383.299 65.75,386.802 66.052,387.225 66.414,387.648 68.048,389.838 69.434,391.846 69.517,391.963 69.585,392.087 70.075,392.774 70.522,393.446 73.783,398.339 76.018,402.869 76.682,404.137 77.226,405.406 78.494,408.244 79.34,410.902 83.085,422.922 85.138,444.484 85.138,444.813 93.413,444.817 93.489,444.817 93.564,444.817 105.063,444.784 132.25,444.122 134.213,444.076 136.176,444.031 157.714,443.517 179.302,442.854 178.879,440.256 179.06,436.27 179.362,428.297 182.201,421.291 185.221,413.862 193.375,404.137 198.992,397.493 205.032,391.816 205.214,391.574 205.455,391.393 207.75,389.279 211.858,385.896 L220.012,379.615 224.119,376.474 Q214.03,362.345 207.72,353.552 207.691,353.506 207.66,353.462 199.2,341.711 197.543,339.57 L196.335,337.939 M190.295,331.536 Q190.718,331.597 191.201,331.657 191.442,331.657 191.744,331.657 L196.033,337.516 M55.663,329 Q65.448,334.617 74.75,339.026 90.212,346.516 99.453,348.509 L131.163,353.884 M78.253,390.185 Q81.454,394.473 84.112,399.184 92.749,414.345 92.99,428.358 93.232,442.37 93.594,441.344 L93.836,437.478 136.176,437.901 Q137.203,434.156 137.566,429.143 138.29,419.116 134.727,411.687 131.103,404.198 121.439,399.124 111.714,394.05 101.688,393.144 91.601,392.178 82.058,389.52 L75.927,387.286 78.253,390.185Z" test="RedBike container"/>
      <use xlink:href="#Bike-Wheel" transform="matrix(1.208 0 0 1.208 255.7 429.25)"/>
      <use xlink:href="#Bike-Wheel" transform="matrix(1.208 0 0 1.208 26.7 433.85)"/>
    </g>
  </g>
</svg>