<?xml version="1.0" encoding="utf-8"?>
<svg id="EdithAnim11" image-rendering="inherit" baseProfile="basic" version="1.1" x="0px" y="0px" width="800" height="600" xmlns="http://www.w3.org/2000/svg" xmlns:xlink="http://www.w3.org/1999/xlink">
  <defs>
    <g id="Bike-Wheel" overflow="visible">
      <path id="Layer4_0_1_STROKES" stroke="#FFF" stroke-width="1" stroke-linejoin="round" stroke-linecap="round" fill="none" d="M2.05 -34.85Q-12.35 -34.85 -22.65 -26.45 -34 -17.2 -34.7 -1.55 -35.4 14.3 -26.6 24.6 -18.4 34.2 -5.6 34.85 7.15 35.5 19.2 29.8 31.25 24.1 34.05 7.25 36.85 -9.65 28.9 -21.15 19.4 -34.85 2.05 -34.85Z" test="Bike Wheel"/>
      <path id="Layer3_0_1_STROKES" stroke="#FFF" stroke-width="1" stroke-linejoin="round" stroke-linecap="round" fill="none" d="M.55 -26.55Q4.65 -26.85 7.1 -26.15 9.75 -25.4 12 -23.15 13.95 -21.25 8 -15.35 5.3 -12.6 2.25 -10.2 1.95 -10 1.7 -9.8M24.45 -8.9Q26.2 -5.15 26.45 -2.65 26.7 .1 25.4 3.05 24.35 5.5 16.7 2.1 13.2 .6 9.85 -1.4 9.5 -1.6 9.25 -1.75M18.45 20Q15.75 23.1 13.55 24.35 11.2 25.75 8 25.75 5.3 25.75 5.25 17.4 5.2 13.55 5.65 9.7 5.7 9.35 5.75 9M-25.15 -7.15Q-24.25 -11.2 -22.85 -13.3 -21.4 -15.6 -18.6 -17.1 -16.2 -18.45 -12.25 -11.05 -10.4 -7.65 -9 -4.1 -8.9 -3.7 -8.75 -3.4M-12.85 23.8Q-16.75 22.4 -18.7 20.8 -20.85 19.05 -22.05 16.1 -23.1 13.6 -15.3 10.55 -11.75 9.05 -8 8.05 -7.65 8 -7.3 7.95" test="Bike Wheel"/>
    </g>
  </defs>
  <g id="19_Motorbikesf22r1" overflow="visible">
    <g id="MotorBikeBluef0r1">
      <path fill="#000" stroke="none" d="M272.6,274.55 L271.95,273.7 265.2,278.9 275.35,286.9 276.9,289.3 Q281.325,286.543 284.3,284.65 L283.25,283.1 272.6,274.55 M246.5,239.5 Q245.15,243.2 230.75,239.15 L231.75,243.95 Q238.6,249.85 251,246.7 L252.1,238.85 248.1,234 Q247.7,233.95 247.35,233.9 L246.5,239.5 M272.8,224.1 Q256.05,210.8 248.9,208.6 243.35,206.9 241.5,208.65 241.05,209.1 240.1,210.65 239.2,212.2 238.25,213.05 238.5,217.15 240.4,219.65 241.8,221.45 247.2,226.8 247.933,227.555 251.25,231.65 251.303,231.685 251.3,231.7 255.985,237.389 265.6,249.4 279.7,267.05 281.9,267.65 285.6,268.7 292.3,268.05 299.95,267.35 301.1,264.55 302.3,261.65 300.8,257.7 299.7,254.75 294.6,245.7 290.2,237.9 272.8,224.1Z" test="BlueBikeContainer"/>
      <path id="Layer2_0_1_STROKES" stroke="#0FF" stroke-width="1" stroke-linejoin="round" stroke-linecap="round" fill="none" d="M238.25,213.05 Q239.2,212.2 240.1,210.65 241.05,209.1 241.5,208.65 243.35,206.9 248.9,208.6 256.05,210.8 272.8,224.1 290.2,237.9 294.6,245.7 299.7,254.75 300.8,257.7 302.3,261.65 301.1,264.55 299.95,267.35 292.3,268.05 285.6,268.7 281.9,267.65 279.7,267.05 265.6,249.4 255.985,237.389 251.325,231.725 251.303,231.685 251.275,231.65 247.933,227.555 247.2,226.8 241.8,221.45 240.4,219.65 238.5,217.15 238.25,213.05Z" test="BlueBikeContainer"/>
      <path id="Layer2_0_2_STROKES" stroke="#009EFF" stroke-width="1" stroke-linejoin="round" stroke-linecap="round" fill="none" d="M247.35,233.9 Q238.9,233.3 230.2,232.85 211.45,231.95 209.75,233 207.95,234 207.2,236.5 206.85,237.75 206.5,241.05 206.25,243.3 204.5,247.85 202.65,252.45 201.65,253.1 201.308,253.345 198.375,252.925 198.314,252.91 198.25,252.9 L198.05,255.4 Q197.8,258.4 197.5,260.95 182.3,263.85 160.55,258.2 138.8,252.5 135.65,249.6 132.5,246.7 132.25,241.95 132.15,240.5 132.65,236.6 132.7,236.3 134.2,234.45 135.75,232.55 135.9,231.8 135.925,231.703 135.925,231.625 135.989,230.484 132.5,231.6 127.55,233.1 109.1,236.3 99.85,237.85 91.6,239.15 90.95,250.85 90.6,250.85 90.25,250.85 106.75,257 122.15,263.35 122.4,263.45 136.1,269.6 139.35,273.5 142.05,276.75 144.25,279.65 144.5,280 144.8,280.35 146.7,282.9 148.2,285.15 150.9,289.2 152.75,292.95 153.3,294 153.75,295.05 154.8,297.4 155.5,299.6 158.6,309.55 160.3,327.4 160.3,328.05 199.3,327.1 218.75,326.65 238.25,326.05 237.9,323.9 238.05,320.6 238.3,314 240.65,308.2 243.15,302.05 249.9,294 254.55,288.5 259.55,283.8 259.7,283.6 259.9,283.45 261.8,281.7 265.2,278.9 L271.95,273.7 275.35,271.1 Q266.998,259.404 261.775,252.125 261.751,252.087 261.725,252.05 254.722,242.323 253.35,240.55 L252.35,239.2 M248.1,234 Q248.3,234 248.55,234 L252.1,238.85 M248.1,234 Q247.7,233.95 247.35,233.9 M135.9,231.8 Q144,236.45 151.7,240.1 164.5,246.3 172.15,247.95 L198.4,252.4 M152.75,280.15 L154.6,282.45 Q157.25,286 159.45,289.9 166.6,302.45 166.8,314.05 167,325.65 167.3,324.8 L167.5,321.6 202.55,321.95 Q203.4,318.85 203.7,314.7 204.3,306.4 201.35,300.25 198.35,294.05 190.35,289.85 182.3,285.65 174,284.9 165.65,284.1 157.75,281.9 L152.75,280.15Z" test="BlueBikeContainer"/>
      <path id="Layer2_0_3_STROKES" stroke="#FFF" stroke-width="1" stroke-linejoin="round" stroke-linecap="round" fill="none" d="M252.35,239.2 L252.1,238.85 251,246.7 Q238.6,249.85 231.75,243.95 L230.75,239.15 Q245.15,243.2 246.5,239.5 L247.35,233.9 247.55,233.3 248.1,234 252.1,238.85 M283.25,283.1 L272.6,274.55 M265.2,278.9 L275.35,286.9" test="BlueBikeContainer"/>
      <use xlink:href="#Bike-Wheel" transform="translate(301.5 314.8)"/>
      <use xlink:href="#Bike-Wheel" transform="translate(111.95 318.6)"/>
    </g>
    <g id="MotorBikePinkf0r1">
      <path fill="#000" stroke="none" d="M59.004,341.261 Q59.306,346 63.111,350.502 66.916,354.005 93.19,360.891 119.464,367.716 137.826,364.213 138.188,361.132 138.49,357.508 L138.732,354.488 Q138.809,354.5 138.853,354.488 L138.913,353.884 107.203,348.509 Q97.962,346.516 82.5,339.026 73.198,334.617 63.413,329 63.232,329.906 61.36,332.201 59.548,334.436 59.487,334.798 58.883,339.509 59.004,341.261 M228.547,380.642 L227.762,379.615 219.608,385.896 231.869,395.56 233.741,398.46 Q239.087,395.129 242.68,392.842 L241.412,390.97 228.547,380.642 M197.018,338.301 Q195.387,342.771 177.992,337.878 L179.2,343.677 Q187.475,350.804 202.454,346 L203.783,337.516 198.951,331.657 Q198.468,331.597 198.045,331.536 L197.018,338.301 M177.992,337.878 Q195.387,342.771 197.018,338.301 L198.045,331.536 Q187.837,330.812 177.328,330.268 154.678,329.181 152.624,330.449 150.45,331.657 149.544,334.677 149.121,336.187 148.698,340.174 148.396,342.892 146.282,348.388 144.047,353.945 142.839,354.73 142.426,355.026 138.853,354.488 138.809,354.5 138.732,354.488 L138.49,357.508 Q138.188,361.132 137.826,364.213 119.464,367.716 93.19,360.891 66.916,354.005 63.111,350.502 59.306,346 59.004,341.261 58.883,339.509 59.487,334.798 59.548,334.436 61.36,332.201 63.232,329.906 63.413,329 63.443,328.882 63.413,328.758 63.521,327.41 59.306,328.758 53.326,330.57 31.039,334.436 19.865,336.308 9.899,337.878 9.114,352.012 8.691,352.012 8.268,352.012 28.2,359.441 46.803,367.112 47.105,367.233 63.655,374.662 67.581,379.373 70.842,383.299 73.5,386.802 73.802,387.225 74.164,387.648 75.798,389.838 77.184,391.816 77.267,391.963 77.305,392.057 77.825,392.774 78.272,393.446 81.533,398.339 83.768,402.869 84.432,404.137 84.976,405.406 86.244,408.244 87.09,410.902 90.835,422.922 92.888,444.484 92.888,444.813 101.163,444.786 101.239,444.817 101.284,444.786 112.813,444.784 140,444.122 141.963,444.076 143.926,444.001 165.464,443.517 187.052,442.854 186.629,440.256 186.81,436.27 187.112,428.297 189.951,421.291 192.971,413.862 201.125,404.137 206.742,397.493 212.782,391.816 212.964,391.574 213.205,391.393 215.5,389.279 219.608,385.896 L227.762,379.615 231.869,376.474 Q221.78,362.345 215.44,353.522 215.441,353.506 215.38,353.462 206.95,341.711 205.293,339.57 L204.085,337.939 203.783,337.516 202.454,346 Q187.475,350.804 179.2,343.677 L177.992,337.878 M129.189,399.124 Q138.853,404.198 142.477,411.687 146.04,419.116 145.316,429.143 144.953,434.156 143.926,437.901 L101.586,437.478 101.344,441.344 Q100.982,442.37 100.74,428.358 100.499,414.345 91.862,399.184 89.204,394.473 86.003,390.185 L83.647,387.286 89.808,389.52 Q99.351,392.178 109.438,393.144 119.464,394.05 129.189,399.124 M142.477,411.687 Q138.853,404.198 129.189,399.124 119.464,394.05 109.438,393.144 99.351,392.178 89.808,389.52 L83.647,387.286 86.003,390.185 Q89.204,394.473 91.862,399.184 100.499,414.345 100.74,428.358 100.982,442.37 101.344,441.344 L101.586,437.478 143.926,437.901 Q144.953,434.156 145.316,429.143 146.04,419.116 142.477,411.687 M228.788,319.698 Q208.554,303.632 199.917,300.974 193.213,298.92 190.978,301.034 190.434,301.578 189.287,303.45 188.2,305.323 187.052,306.35 187.354,311.302 189.649,314.322 191.34,316.497 197.864,322.96 198.749,323.872 202.756,328.818 202.82,328.861 202.816,328.879 208.476,335.751 220.091,350.26 237.124,371.582 239.781,372.306 244.251,373.575 252.344,372.79 261.586,371.944 262.975,368.562 264.424,365.058 262.612,360.287 261.284,356.723 255.123,345.791 249.808,336.368 228.788,319.698Z" test="RedBike container" stroke-width="1.208"/>
      <path id="Layer1_0_1_STROKES" stroke="#0FF" stroke-width="1.208" stroke-linejoin="round" stroke-linecap="round" fill="none" d="M187.052,306.35 Q188.2,305.323 189.287,303.45 190.434,301.578 190.978,301.034 193.213,298.92 199.917,300.974 208.554,303.632 228.788,319.698 249.808,336.368 255.123,345.791 261.284,356.723 262.612,360.287 264.424,365.058 262.975,368.562 261.586,371.944 252.344,372.79 244.251,373.575 239.781,372.306 237.124,371.582 220.091,350.26 208.476,335.751 202.847,328.909 202.82,328.861 202.786,328.818 198.749,323.872 197.864,322.96 191.34,316.497 189.649,314.322 187.354,311.302 187.052,306.35Z" test="RedBike container"/>
      <path id="Layer1_0_2_STROKES" stroke="#FFF" stroke-width="1.208" stroke-linejoin="round" stroke-linecap="round" fill="none" d="M203.783,337.516 L202.454,346 Q187.475,350.804 179.2,343.677 L177.992,337.878 Q195.387,342.771 197.018,338.301 L198.045,331.536 M204.085,337.939 L203.783,337.516 198.951,331.657 M198.045,331.536 L198.286,330.812 198.951,331.657 M241.412,390.97 L228.547,380.642 M219.608,385.896 L231.869,395.56" test="RedBike container"/>
      <path id="Layer1_0_3_STROKES" stroke="#FF0265" stroke-width="1.208" stroke-linejoin="round" stroke-linecap="round" fill="none" d="M198.045,331.536 Q187.837,330.812 177.328,330.268 154.678,329.181 152.624,330.449 150.45,331.657 149.544,334.677 149.121,336.187 148.698,340.174 148.396,342.892 146.282,348.388 144.047,353.945 142.839,354.73 142.426,355.026 138.883,354.519 138.809,354.5 138.732,354.488 L138.49,357.508 Q138.188,361.132 137.826,364.213 119.464,367.716 93.19,360.891 66.916,354.005 63.111,350.502 59.306,346 59.004,341.261 58.883,339.509 59.487,334.798 59.548,334.436 61.36,332.201 63.232,329.906 63.413,329 63.443,328.882 63.443,328.788 63.521,327.41 59.306,328.758 53.326,330.57 31.039,334.436 19.865,336.308 9.899,337.878 9.114,352.012 8.691,352.012 8.268,352.012 28.2,359.441 46.803,367.112 47.105,367.233 63.655,374.662 67.581,379.373 70.842,383.299 73.5,386.802 73.802,387.225 74.164,387.648 75.798,389.838 77.184,391.846 77.267,391.963 77.335,392.087 77.825,392.774 78.272,393.446 81.533,398.339 83.768,402.869 84.432,404.137 84.976,405.406 86.244,408.244 87.09,410.902 90.835,422.922 92.888,444.484 92.888,444.813 101.163,444.817 101.239,444.817 101.314,444.817 112.813,444.784 140,444.122 141.963,444.076 143.926,444.031 165.464,443.517 187.052,442.854 186.629,440.256 186.81,436.27 187.112,428.297 189.951,421.291 192.971,413.862 201.125,404.137 206.742,397.493 212.782,391.816 212.964,391.574 213.205,391.393 215.5,389.279 219.608,385.896 L227.762,379.615 231.869,376.474 Q221.78,362.345 215.47,353.552 215.441,353.506 215.41,353.462 206.95,341.711 205.293,339.57 L204.085,337.939 M198.045,331.536 Q198.468,331.597 198.951,331.657 199.192,331.657 199.494,331.657 L203.783,337.516 M63.413,329 Q73.198,334.617 82.5,339.026 97.962,346.516 107.203,348.509 L138.913,353.884 M86.003,390.185 Q89.204,394.473 91.862,399.184 100.499,414.345 100.74,428.358 100.982,442.37 101.344,441.344 L101.586,437.478 143.926,437.901 Q144.953,434.156 145.316,429.143 146.04,419.116 142.477,411.687 138.853,404.198 129.189,399.124 119.464,394.05 109.438,393.144 99.351,392.178 89.808,389.52 L83.677,387.286 86.003,390.185Z" test="RedBike container"/>
      <use xlink:href="#Bike-Wheel" transform="matrix(1.208 0 0 1.208 263.45 429.25)"/>
      <use xlink:href="#Bike-Wheel" transform="matrix(1.208 0 0 1.208 34.45 433.85)"/>
    </g>
  </g>
</svg>