<?xml version="1.0" encoding="utf-8"?>
<svg id="EdithAnim11" image-rendering="inherit" baseProfile="basic" version="1.1" x="0px" y="0px" width="800" height="600" xmlns="http://www.w3.org/2000/svg" xmlns:xlink="http://www.w3.org/1999/xlink">
  <defs>
    <g id="Bike-Wheel" overflow="visible">
      <path id="Layer4_0_1_STROKES" stroke="#FFF" stroke-width="1" stroke-linejoin="round" stroke-linecap="round" fill="none" d="M2.05 -34.85Q-12.35 -34.85 -22.65 -26.45 -34 -17.2 -34.7 -1.55 -35.4 14.3 -26.6 24.6 -18.4 34.2 -5.6 34.85 7.15 35.5 19.2 29.8 31.25 24.1 34.05 7.25 36.85 -9.65 28.9 -21.15 19.4 -34.85 2.05 -34.85Z" test="Bike Wheel"/>
      <path id="Layer3_0_1_STROKES" stroke="#FFF" stroke-width="1" stroke-linejoin="round" stroke-linecap="round" fill="none" d="M.55 -26.55Q4.65 -26.85 7.1 -26.15 9.75 -25.4 12 -23.15 13.95 -21.25 8 -15.35 5.3 -12.6 2.25 -10.2 1.95 -10 1.7 -9.8M24.45 -8.9Q26.2 -5.15 26.45 -2.65 26.7 .1 25.4 3.05 24.35 5.5 16.7 2.1 13.2 .6 9.85 -1.4 9.5 -1.6 9.25 -1.75M18.45 20Q15.75 23.1 13.55 24.35 11.2 25.75 8 25.75 5.3 25.75 5.25 17.4 5.2 13.55 5.65 9.7 5.7 9.35 5.75 9M-25.15 -7.15Q-24.25 -11.2 -22.85 -13.3 -21.4 -15.6 -18.6 -17.1 -16.2 -18.45 -12.25 -11.05 -10.4 -7.65 -9 -4.1 -8.9 -3.7 -8.75 -3.4M-12.85 23.8Q-16.75 22.4 -18.7 20.8 -20.85 19.05 -22.05 16.1 -23.1 13.6 -15.3 10.55 -11.75 9.05 -8 8.05 -7.65 8 -7.3 7.95" test="Bike Wheel"/>
    </g>
  </defs>
  <g id="19_Motorbikesf23r1" overflow="visible">
    <g id="MotorBikeBluef0r1">
      <path fill="#000" stroke="none" d="M278.25,274.55 L277.6,273.7 270.85,278.9 281,286.9 282.55,289.3 Q286.975,286.543 289.95,284.65 L288.9,283.1 278.25,274.55 M252.15,239.5 Q250.8,243.2 236.4,239.15 L237.4,243.95 Q244.25,249.85 256.65,246.7 L257.75,238.85 253.75,234 Q253.35,233.95 253,233.9 L252.15,239.5 M278.45,224.1 Q261.7,210.8 254.55,208.6 249,206.9 247.15,208.65 246.7,209.1 245.75,210.65 244.85,212.2 243.9,213.05 244.15,217.15 246.05,219.65 247.45,221.45 252.85,226.8 253.583,227.555 256.9,231.65 256.953,231.685 256.95,231.7 261.635,237.389 271.25,249.4 285.35,267.05 287.55,267.65 291.25,268.7 297.95,268.05 305.6,267.35 306.75,264.55 307.95,261.65 306.45,257.7 305.35,254.75 300.25,245.7 295.85,237.9 278.45,224.1Z" test="BlueBikeContainer"/>
      <path id="Layer2_0_1_STROKES" stroke="#0FF" stroke-width="1" stroke-linejoin="round" stroke-linecap="round" fill="none" d="M243.9,213.05 Q244.85,212.2 245.75,210.65 246.7,209.1 247.15,208.65 249,206.9 254.55,208.6 261.7,210.8 278.45,224.1 295.85,237.9 300.25,245.7 305.35,254.75 306.45,257.7 307.95,261.65 306.75,264.55 305.6,267.35 297.95,268.05 291.25,268.7 287.55,267.65 285.35,267.05 271.25,249.4 261.635,237.389 256.975,231.725 256.953,231.685 256.925,231.65 253.583,227.555 252.85,226.8 247.45,221.45 246.05,219.65 244.15,217.15 243.9,213.05Z" test="BlueBikeContainer"/>
      <path id="Layer2_0_2_STROKES" stroke="#009EFF" stroke-width="1" stroke-linejoin="round" stroke-linecap="round" fill="none" d="M253,233.9 Q244.55,233.3 235.85,232.85 217.1,231.95 215.4,233 213.6,234 212.85,236.5 212.5,237.75 212.15,241.05 211.9,243.3 210.15,247.85 208.3,252.45 207.3,253.1 206.958,253.345 204.025,252.925 203.964,252.91 203.9,252.9 L203.7,255.4 Q203.45,258.4 203.15,260.95 187.95,263.85 166.2,258.2 144.45,252.5 141.3,249.6 138.15,246.7 137.9,241.95 137.8,240.5 138.3,236.6 138.35,236.3 139.85,234.45 141.4,232.55 141.55,231.8 141.575,231.703 141.575,231.625 141.639,230.484 138.15,231.6 133.2,233.1 114.75,236.3 105.5,237.85 97.25,239.15 96.6,250.85 96.25,250.85 95.9,250.85 112.4,257 127.8,263.35 128.05,263.45 141.75,269.6 145,273.5 147.7,276.75 149.9,279.65 150.15,280 150.45,280.35 152.35,282.9 153.85,285.15 156.55,289.2 158.4,292.95 158.95,294 159.4,295.05 160.45,297.4 161.15,299.6 164.25,309.55 165.95,327.4 165.95,328.05 204.95,327.1 224.4,326.65 243.9,326.05 243.55,323.9 243.7,320.6 243.95,314 246.3,308.2 248.8,302.05 255.55,294 260.2,288.5 265.2,283.8 265.35,283.6 265.55,283.45 267.45,281.7 270.85,278.9 L277.6,273.7 281,271.1 Q272.648,259.404 267.425,252.125 267.401,252.087 267.375,252.05 260.372,242.323 259,240.55 L258,239.2 M253.75,234 Q253.95,234 254.2,234 L257.75,238.85 M253.75,234 Q253.35,233.95 253,233.9 M141.55,231.8 Q149.65,236.45 157.35,240.1 170.15,246.3 177.8,247.95 L204.05,252.4 M158.4,280.15 L160.25,282.45 Q162.9,286 165.1,289.9 172.25,302.45 172.45,314.05 172.65,325.65 172.95,324.8 L173.15,321.6 208.2,321.95 Q209.05,318.85 209.35,314.7 209.95,306.4 207,300.25 204,294.05 196,289.85 187.95,285.65 179.65,284.9 171.3,284.1 163.4,281.9 L158.4,280.15Z" test="BlueBikeContainer"/>
      <path id="Layer2_0_3_STROKES" stroke="#FFF" stroke-width="1" stroke-linejoin="round" stroke-linecap="round" fill="none" d="M258,239.2 L257.75,238.85 256.65,246.7 Q244.25,249.85 237.4,243.95 L236.4,239.15 Q250.8,243.2 252.15,239.5 L253,233.9 253.2,233.3 253.75,234 257.75,238.85 M288.9,283.1 L278.25,274.55 M270.85,278.9 L281,286.9" test="BlueBikeContainer"/>
      <use xlink:href="#Bike-Wheel" transform="translate(307.15 314.8)"/>
      <use xlink:href="#Bike-Wheel" transform="translate(117.6 318.6)"/>
    </g>
    <g id="MotorBikePinkf0r1">
      <path fill="#000" stroke="none" d="M65.754,341.261 Q66.056,346 69.861,350.502 73.666,354.005 99.94,360.891 126.214,367.716 144.576,364.213 144.938,361.132 145.24,357.508 L145.482,354.488 Q145.559,354.5 145.603,354.488 L145.663,353.884 113.953,348.509 Q104.712,346.516 89.25,339.026 79.948,334.617 70.163,329 69.982,329.906 68.11,332.201 66.298,334.436 66.237,334.798 65.633,339.509 65.754,341.261 M235.297,380.642 L234.512,379.615 226.358,385.896 238.619,395.56 240.491,398.46 Q245.837,395.129 249.43,392.842 L248.162,390.97 235.297,380.642 M203.768,338.301 Q202.137,342.771 184.742,337.878 L185.95,343.677 Q194.225,350.804 209.204,346 L210.533,337.516 205.701,331.657 Q205.218,331.597 204.795,331.536 L203.768,338.301 M184.742,337.878 Q202.137,342.771 203.768,338.301 L204.795,331.536 Q194.587,330.812 184.078,330.268 161.428,329.181 159.374,330.449 157.2,331.657 156.294,334.677 155.871,336.187 155.448,340.174 155.146,342.892 153.032,348.388 150.797,353.945 149.589,354.73 149.176,355.026 145.603,354.488 145.559,354.5 145.482,354.488 L145.24,357.508 Q144.938,361.132 144.576,364.213 126.214,367.716 99.94,360.891 73.666,354.005 69.861,350.502 66.056,346 65.754,341.261 65.633,339.509 66.237,334.798 66.298,334.436 68.11,332.201 69.982,329.906 70.163,329 70.193,328.882 70.163,328.758 70.271,327.41 66.056,328.758 60.076,330.57 37.789,334.436 26.615,336.308 16.649,337.878 15.864,352.012 15.441,352.012 15.018,352.012 34.95,359.441 53.553,367.112 53.855,367.233 70.405,374.662 74.331,379.373 77.592,383.299 80.25,386.802 80.552,387.225 80.914,387.648 82.548,389.838 83.934,391.816 84.017,391.963 84.055,392.057 84.575,392.774 85.022,393.446 88.283,398.339 90.518,402.869 91.182,404.137 91.726,405.406 92.994,408.244 93.84,410.902 97.585,422.922 99.638,444.484 99.638,444.813 107.913,444.786 107.989,444.817 108.034,444.786 119.563,444.784 146.75,444.122 148.713,444.076 150.676,444.001 172.214,443.517 193.802,442.854 193.379,440.256 193.56,436.27 193.862,428.297 196.701,421.291 199.721,413.862 207.875,404.137 213.492,397.493 219.532,391.816 219.714,391.574 219.955,391.393 222.25,389.279 226.358,385.896 L234.512,379.615 238.619,376.474 Q228.53,362.345 222.19,353.522 222.191,353.506 222.13,353.462 213.7,341.711 212.043,339.57 L210.835,337.939 210.533,337.516 209.204,346 Q194.225,350.804 185.95,343.677 L184.742,337.878 M135.939,399.124 Q145.603,404.198 149.227,411.687 152.79,419.116 152.066,429.143 151.703,434.156 150.676,437.901 L108.336,437.478 108.094,441.344 Q107.732,442.37 107.49,428.358 107.249,414.345 98.612,399.184 95.954,394.473 92.753,390.185 L90.397,387.286 96.558,389.52 Q106.101,392.178 116.188,393.144 126.214,394.05 135.939,399.124 M149.227,411.687 Q145.603,404.198 135.939,399.124 126.214,394.05 116.188,393.144 106.101,392.178 96.558,389.52 L90.397,387.286 92.753,390.185 Q95.954,394.473 98.612,399.184 107.249,414.345 107.49,428.358 107.732,442.37 108.094,441.344 L108.336,437.478 150.676,437.901 Q151.703,434.156 152.066,429.143 152.79,419.116 149.227,411.687 M235.538,319.698 Q215.304,303.632 206.667,300.974 199.963,298.92 197.728,301.034 197.184,301.578 196.037,303.45 194.95,305.323 193.802,306.35 194.104,311.302 196.399,314.322 198.09,316.497 204.614,322.96 205.499,323.872 209.506,328.818 209.57,328.861 209.566,328.879 215.226,335.751 226.841,350.26 243.874,371.582 246.531,372.306 251.001,373.575 259.094,372.79 268.336,371.944 269.725,368.562 271.174,365.058 269.362,360.287 268.034,356.723 261.873,345.791 256.558,336.368 235.538,319.698Z" test="RedBike container" stroke-width="1.208"/>
      <path id="Layer1_0_1_STROKES" stroke="#0FF" stroke-width="1.208" stroke-linejoin="round" stroke-linecap="round" fill="none" d="M193.802,306.35 Q194.95,305.323 196.037,303.45 197.184,301.578 197.728,301.034 199.963,298.92 206.667,300.974 215.304,303.632 235.538,319.698 256.558,336.368 261.873,345.791 268.034,356.723 269.362,360.287 271.174,365.058 269.725,368.562 268.336,371.944 259.094,372.79 251.001,373.575 246.531,372.306 243.874,371.582 226.841,350.26 215.226,335.751 209.597,328.909 209.57,328.861 209.536,328.818 205.499,323.872 204.614,322.96 198.09,316.497 196.399,314.322 194.104,311.302 193.802,306.35Z" test="RedBike container"/>
      <path id="Layer1_0_2_STROKES" stroke="#FFF" stroke-width="1.208" stroke-linejoin="round" stroke-linecap="round" fill="none" d="M210.533,337.516 L209.204,346 Q194.225,350.804 185.95,343.677 L184.742,337.878 Q202.137,342.771 203.768,338.301 L204.795,331.536 M210.835,337.939 L210.533,337.516 205.701,331.657 M204.795,331.536 L205.036,330.812 205.701,331.657 M248.162,390.97 L235.297,380.642 M226.358,385.896 L238.619,395.56" test="RedBike container"/>
      <path id="Layer1_0_3_STROKES" stroke="#FF0265" stroke-width="1.208" stroke-linejoin="round" stroke-linecap="round" fill="none" d="M204.795,331.536 Q194.587,330.812 184.078,330.268 161.428,329.181 159.374,330.449 157.2,331.657 156.294,334.677 155.871,336.187 155.448,340.174 155.146,342.892 153.032,348.388 150.797,353.945 149.589,354.73 149.176,355.026 145.633,354.519 145.559,354.5 145.482,354.488 L145.24,357.508 Q144.938,361.132 144.576,364.213 126.214,367.716 99.94,360.891 73.666,354.005 69.861,350.502 66.056,346 65.754,341.261 65.633,339.509 66.237,334.798 66.298,334.436 68.11,332.201 69.982,329.906 70.163,329 70.193,328.882 70.193,328.788 70.271,327.41 66.056,328.758 60.076,330.57 37.789,334.436 26.615,336.308 16.649,337.878 15.864,352.012 15.441,352.012 15.018,352.012 34.95,359.441 53.553,367.112 53.855,367.233 70.405,374.662 74.331,379.373 77.592,383.299 80.25,386.802 80.552,387.225 80.914,387.648 82.548,389.838 83.934,391.846 84.017,391.963 84.085,392.087 84.575,392.774 85.022,393.446 88.283,398.339 90.518,402.869 91.182,404.137 91.726,405.406 92.994,408.244 93.84,410.902 97.585,422.922 99.638,444.484 99.638,444.813 107.913,444.817 107.989,444.817 108.064,444.817 119.563,444.784 146.75,444.122 148.713,444.076 150.676,444.031 172.214,443.517 193.802,442.854 193.379,440.256 193.56,436.27 193.862,428.297 196.701,421.291 199.721,413.862 207.875,404.137 213.492,397.493 219.532,391.816 219.714,391.574 219.955,391.393 222.25,389.279 226.358,385.896 L234.512,379.615 238.619,376.474 Q228.53,362.345 222.22,353.552 222.191,353.506 222.16,353.462 213.7,341.711 212.043,339.57 L210.835,337.939 M204.795,331.536 Q205.218,331.597 205.701,331.657 205.942,331.657 206.244,331.657 L210.533,337.516 M70.163,329 Q79.948,334.617 89.25,339.026 104.712,346.516 113.953,348.509 L145.663,353.884 M92.753,390.185 Q95.954,394.473 98.612,399.184 107.249,414.345 107.49,428.358 107.732,442.37 108.094,441.344 L108.336,437.478 150.676,437.901 Q151.703,434.156 152.066,429.143 152.79,419.116 149.227,411.687 145.603,404.198 135.939,399.124 126.214,394.05 116.188,393.144 106.101,392.178 96.558,389.52 L90.427,387.286 92.753,390.185Z" test="RedBike container"/>
      <use xlink:href="#Bike-Wheel" transform="matrix(1.208 0 0 1.208 270.2 429.25)"/>
      <use xlink:href="#Bike-Wheel" transform="matrix(1.208 0 0 1.208 41.2 433.85)"/>
    </g>
  </g>
</svg>