<?xml version="1.0" encoding="utf-8"?>
<svg id="EdithAnim11" image-rendering="inherit" baseProfile="basic" version="1.1" x="0px" y="0px" width="800" height="600" xmlns="http://www.w3.org/2000/svg" xmlns:xlink="http://www.w3.org/1999/xlink">
  <defs>
    <g id="Bike-Wheel" overflow="visible">
      <path id="Layer4_0_1_STROKES" stroke="#FFF" stroke-width="1" stroke-linejoin="round" stroke-linecap="round" fill="none" d="M2.05 -34.85Q-12.35 -34.85 -22.65 -26.45 -34 -17.2 -34.7 -1.55 -35.4 14.3 -26.6 24.6 -18.4 34.2 -5.6 34.85 7.15 35.5 19.2 29.8 31.25 24.1 34.05 7.25 36.85 -9.65 28.9 -21.15 19.4 -34.85 2.05 -34.85Z" test="Bike Wheel"/>
      <path id="Layer3_0_1_STROKES" stroke="#FFF" stroke-width="1" stroke-linejoin="round" stroke-linecap="round" fill="none" d="M.55 -26.55Q4.65 -26.85 7.1 -26.15 9.75 -25.4 12 -23.15 13.95 -21.25 8 -15.35 5.3 -12.6 2.25 -10.2 1.95 -10 1.7 -9.8M24.45 -8.9Q26.2 -5.15 26.45 -2.65 26.7 .1 25.4 3.05 24.35 5.5 16.7 2.1 13.2 .6 9.85 -1.4 9.5 -1.6 9.25 -1.75M18.45 20Q15.75 23.1 13.55 24.35 11.2 25.75 8 25.75 5.3 25.75 5.25 17.4 5.2 13.55 5.65 9.7 5.7 9.35 5.75 9M-25.15 -7.15Q-24.25 -11.2 -22.85 -13.3 -21.4 -15.6 -18.6 -17.1 -16.2 -18.45 -12.25 -11.05 -10.4 -7.65 -9 -4.1 -8.9 -3.7 -8.75 -3.4M-12.85 23.8Q-16.75 22.4 -18.7 20.8 -20.85 19.05 -22.05 16.1 -23.1 13.6 -15.3 10.55 -11.75 9.05 -8 8.05 -7.65 8 -7.3 7.95" test="Bike Wheel"/>
    </g>
  </defs>
  <g id="19_Motorbikesf24r1" overflow="visible">
    <g id="MotorBikeBluef0r1">
      <path fill="#000" stroke="none" d="M283.05,274.55 L282.4,273.7 275.65,278.9 285.8,286.9 287.35,289.3 Q291.775,286.543 294.75,284.65 L293.7,283.1 283.05,274.55 M256.95,239.5 Q255.6,243.2 241.2,239.15 L242.2,243.95 Q249.05,249.85 261.45,246.7 L262.55,238.85 258.55,234 Q258.15,233.95 257.8,233.9 L256.95,239.5 M283.25,224.1 Q266.5,210.8 259.35,208.6 253.8,206.9 251.95,208.65 251.5,209.1 250.55,210.65 249.65,212.2 248.7,213.05 248.95,217.15 250.85,219.65 252.25,221.45 257.65,226.8 258.383,227.555 261.7,231.65 261.753,231.685 261.75,231.7 266.435,237.389 276.05,249.4 290.15,267.05 292.35,267.65 296.05,268.7 302.75,268.05 310.4,267.35 311.55,264.55 312.75,261.65 311.25,257.7 310.15,254.75 305.05,245.7 300.65,237.9 283.25,224.1Z" test="BlueBikeContainer"/>
      <path id="Layer2_0_1_STROKES" stroke="#0FF" stroke-width="1" stroke-linejoin="round" stroke-linecap="round" fill="none" d="M248.7,213.05 Q249.65,212.2 250.55,210.65 251.5,209.1 251.95,208.65 253.8,206.9 259.35,208.6 266.5,210.8 283.25,224.1 300.65,237.9 305.05,245.7 310.15,254.75 311.25,257.7 312.75,261.65 311.55,264.55 310.4,267.35 302.75,268.05 296.05,268.7 292.35,267.65 290.15,267.05 276.05,249.4 266.435,237.389 261.775,231.725 261.753,231.685 261.725,231.65 258.383,227.555 257.65,226.8 252.25,221.45 250.85,219.65 248.95,217.15 248.7,213.05Z" test="BlueBikeContainer"/>
      <path id="Layer2_0_2_STROKES" stroke="#009EFF" stroke-width="1" stroke-linejoin="round" stroke-linecap="round" fill="none" d="M257.8,233.9 Q249.35,233.3 240.65,232.85 221.9,231.95 220.2,233 218.4,234 217.65,236.5 217.3,237.75 216.95,241.05 216.7,243.3 214.95,247.85 213.1,252.45 212.1,253.1 211.758,253.345 208.825,252.925 208.764,252.91 208.7,252.9 L208.5,255.4 Q208.25,258.4 207.95,260.95 192.75,263.85 171,258.2 149.25,252.5 146.1,249.6 142.95,246.7 142.7,241.95 142.6,240.5 143.1,236.6 143.15,236.3 144.65,234.45 146.2,232.55 146.35,231.8 146.375,231.703 146.375,231.625 146.439,230.484 142.95,231.6 138,233.1 119.55,236.3 110.3,237.85 102.05,239.15 101.4,250.85 101.05,250.85 100.7,250.85 117.2,257 132.6,263.35 132.85,263.45 146.55,269.6 149.8,273.5 152.5,276.75 154.7,279.65 154.95,280 155.25,280.35 157.15,282.9 158.65,285.15 161.35,289.2 163.2,292.95 163.75,294 164.2,295.05 165.25,297.4 165.95,299.6 169.05,309.55 170.75,327.4 170.75,328.05 209.75,327.1 229.2,326.65 248.7,326.05 248.35,323.9 248.5,320.6 248.75,314 251.1,308.2 253.6,302.05 260.35,294 265,288.5 270,283.8 270.15,283.6 270.35,283.45 272.25,281.7 275.65,278.9 L282.4,273.7 285.8,271.1 Q277.448,259.404 272.225,252.125 272.201,252.087 272.175,252.05 265.172,242.323 263.8,240.55 L262.8,239.2 M258.55,234 Q258.75,234 259,234 L262.55,238.85 M258.55,234 Q258.15,233.95 257.8,233.9 M146.35,231.8 Q154.45,236.45 162.15,240.1 174.95,246.3 182.6,247.95 L208.85,252.4 M163.2,280.15 L165.05,282.45 Q167.7,286 169.9,289.9 177.05,302.45 177.25,314.05 177.45,325.65 177.75,324.8 L177.95,321.6 213,321.95 Q213.85,318.85 214.15,314.7 214.75,306.4 211.8,300.25 208.8,294.05 200.8,289.85 192.75,285.65 184.45,284.9 176.1,284.1 168.2,281.9 L163.2,280.15Z" test="BlueBikeContainer"/>
      <path id="Layer2_0_3_STROKES" stroke="#FFF" stroke-width="1" stroke-linejoin="round" stroke-linecap="round" fill="none" d="M262.8,239.2 L262.55,238.85 261.45,246.7 Q249.05,249.85 242.2,243.95 L241.2,239.15 Q255.6,243.2 256.95,239.5 L257.8,233.9 258,233.3 258.55,234 262.55,238.85 M293.7,283.1 L283.05,274.55 M275.65,278.9 L285.8,286.9" test="BlueBikeContainer"/>
      <use xlink:href="#Bike-Wheel" transform="translate(311.95 314.8)"/>
      <use xlink:href="#Bike-Wheel" transform="translate(122.4 318.6)"/>
    </g>
    <g id="MotorBikePinkf0r1">
      <path fill="#000" stroke="none" d="M71.454,341.261 Q71.756,346 75.561,350.502 79.366,354.005 105.64,360.891 131.914,367.716 150.276,364.213 150.638,361.132 150.94,357.508 L151.182,354.488 Q151.259,354.5 151.303,354.488 L151.363,353.884 119.653,348.509 Q110.412,346.516 94.95,339.026 85.648,334.617 75.863,329 75.682,329.906 73.81,332.201 71.998,334.436 71.937,334.798 71.333,339.509 71.454,341.261 M240.997,380.642 L240.212,379.615 232.058,385.896 244.319,395.56 246.191,398.46 Q251.537,395.129 255.13,392.842 L253.862,390.97 240.997,380.642 M209.468,338.301 Q207.837,342.771 190.442,337.878 L191.65,343.677 Q199.925,350.804 214.904,346 L216.233,337.516 211.401,331.657 Q210.918,331.597 210.495,331.536 L209.468,338.301 M190.442,337.878 Q207.837,342.771 209.468,338.301 L210.495,331.536 Q200.287,330.812 189.778,330.268 167.128,329.181 165.074,330.449 162.9,331.657 161.994,334.677 161.571,336.187 161.148,340.174 160.846,342.892 158.732,348.388 156.497,353.945 155.289,354.73 154.876,355.026 151.303,354.488 151.259,354.5 151.182,354.488 L150.94,357.508 Q150.638,361.132 150.276,364.213 131.914,367.716 105.64,360.891 79.366,354.005 75.561,350.502 71.756,346 71.454,341.261 71.333,339.509 71.937,334.798 71.998,334.436 73.81,332.201 75.682,329.906 75.863,329 75.893,328.882 75.863,328.758 75.971,327.41 71.756,328.758 65.776,330.57 43.489,334.436 32.315,336.308 22.349,337.878 21.564,352.012 21.141,352.012 20.718,352.012 40.65,359.441 59.253,367.112 59.555,367.233 76.105,374.662 80.031,379.373 83.292,383.299 85.95,386.802 86.252,387.225 86.614,387.648 88.248,389.838 89.634,391.816 89.717,391.963 89.755,392.057 90.275,392.774 90.722,393.446 93.983,398.339 96.218,402.869 96.882,404.137 97.426,405.406 98.694,408.244 99.54,410.902 103.285,422.922 105.338,444.484 105.338,444.813 113.613,444.786 113.689,444.817 113.734,444.786 125.263,444.784 152.45,444.122 154.413,444.076 156.376,444.001 177.914,443.517 199.502,442.854 199.079,440.256 199.26,436.27 199.562,428.297 202.401,421.291 205.421,413.862 213.575,404.137 219.192,397.493 225.232,391.816 225.414,391.574 225.655,391.393 227.95,389.279 232.058,385.896 L240.212,379.615 244.319,376.474 Q234.23,362.345 227.89,353.522 227.891,353.506 227.83,353.462 219.4,341.711 217.743,339.57 L216.535,337.939 216.233,337.516 214.904,346 Q199.925,350.804 191.65,343.677 L190.442,337.878 M141.639,399.124 Q151.303,404.198 154.927,411.687 158.49,419.116 157.766,429.143 157.403,434.156 156.376,437.901 L114.036,437.478 113.794,441.344 Q113.432,442.37 113.19,428.358 112.949,414.345 104.312,399.184 101.654,394.473 98.453,390.185 L96.097,387.286 102.258,389.52 Q111.801,392.178 121.888,393.144 131.914,394.05 141.639,399.124 M154.927,411.687 Q151.303,404.198 141.639,399.124 131.914,394.05 121.888,393.144 111.801,392.178 102.258,389.52 L96.097,387.286 98.453,390.185 Q101.654,394.473 104.312,399.184 112.949,414.345 113.19,428.358 113.432,442.37 113.794,441.344 L114.036,437.478 156.376,437.901 Q157.403,434.156 157.766,429.143 158.49,419.116 154.927,411.687 M241.238,319.698 Q221.004,303.632 212.367,300.974 205.663,298.92 203.428,301.034 202.884,301.578 201.737,303.45 200.65,305.323 199.502,306.35 199.804,311.302 202.099,314.322 203.79,316.497 210.314,322.96 211.199,323.872 215.206,328.818 215.27,328.861 215.266,328.879 220.926,335.751 232.541,350.26 249.574,371.582 252.231,372.306 256.701,373.575 264.794,372.79 274.036,371.944 275.425,368.562 276.874,365.058 275.062,360.287 273.734,356.723 267.573,345.791 262.258,336.368 241.238,319.698Z" test="RedBike container" stroke-width="1.208"/>
      <path id="Layer1_0_1_STROKES" stroke="#0FF" stroke-width="1.208" stroke-linejoin="round" stroke-linecap="round" fill="none" d="M199.502,306.35 Q200.65,305.323 201.737,303.45 202.884,301.578 203.428,301.034 205.663,298.92 212.367,300.974 221.004,303.632 241.238,319.698 262.258,336.368 267.573,345.791 273.734,356.723 275.062,360.287 276.874,365.058 275.425,368.562 274.036,371.944 264.794,372.79 256.701,373.575 252.231,372.306 249.574,371.582 232.541,350.26 220.926,335.751 215.297,328.909 215.27,328.861 215.236,328.818 211.199,323.872 210.314,322.96 203.79,316.497 202.099,314.322 199.804,311.302 199.502,306.35Z" test="RedBike container"/>
      <path id="Layer1_0_2_STROKES" stroke="#FFF" stroke-width="1.208" stroke-linejoin="round" stroke-linecap="round" fill="none" d="M216.233,337.516 L214.904,346 Q199.925,350.804 191.65,343.677 L190.442,337.878 Q207.837,342.771 209.468,338.301 L210.495,331.536 M216.535,337.939 L216.233,337.516 211.401,331.657 M210.495,331.536 L210.736,330.812 211.401,331.657 M253.862,390.97 L240.997,380.642 M232.058,385.896 L244.319,395.56" test="RedBike container"/>
      <path id="Layer1_0_3_STROKES" stroke="#FF0265" stroke-width="1.208" stroke-linejoin="round" stroke-linecap="round" fill="none" d="M210.495,331.536 Q200.287,330.812 189.778,330.268 167.128,329.181 165.074,330.449 162.9,331.657 161.994,334.677 161.571,336.187 161.148,340.174 160.846,342.892 158.732,348.388 156.497,353.945 155.289,354.73 154.876,355.026 151.333,354.519 151.259,354.5 151.182,354.488 L150.94,357.508 Q150.638,361.132 150.276,364.213 131.914,367.716 105.64,360.891 79.366,354.005 75.561,350.502 71.756,346 71.454,341.261 71.333,339.509 71.937,334.798 71.998,334.436 73.81,332.201 75.682,329.906 75.863,329 75.893,328.882 75.893,328.788 75.971,327.41 71.756,328.758 65.776,330.57 43.489,334.436 32.315,336.308 22.349,337.878 21.564,352.012 21.141,352.012 20.718,352.012 40.65,359.441 59.253,367.112 59.555,367.233 76.105,374.662 80.031,379.373 83.292,383.299 85.95,386.802 86.252,387.225 86.614,387.648 88.248,389.838 89.634,391.846 89.717,391.963 89.785,392.087 90.275,392.774 90.722,393.446 93.983,398.339 96.218,402.869 96.882,404.137 97.426,405.406 98.694,408.244 99.54,410.902 103.285,422.922 105.338,444.484 105.338,444.813 113.613,444.817 113.689,444.817 113.764,444.817 125.263,444.784 152.45,444.122 154.413,444.076 156.376,444.031 177.914,443.517 199.502,442.854 199.079,440.256 199.26,436.27 199.562,428.297 202.401,421.291 205.421,413.862 213.575,404.137 219.192,397.493 225.232,391.816 225.414,391.574 225.655,391.393 227.95,389.279 232.058,385.896 L240.212,379.615 244.319,376.474 Q234.23,362.345 227.92,353.552 227.891,353.506 227.86,353.462 219.4,341.711 217.743,339.57 L216.535,337.939 M210.495,331.536 Q210.918,331.597 211.401,331.657 211.642,331.657 211.944,331.657 L216.233,337.516 M75.863,329 Q85.648,334.617 94.95,339.026 110.412,346.516 119.653,348.509 L151.363,353.884 M98.453,390.185 Q101.654,394.473 104.312,399.184 112.949,414.345 113.19,428.358 113.432,442.37 113.794,441.344 L114.036,437.478 156.376,437.901 Q157.403,434.156 157.766,429.143 158.49,419.116 154.927,411.687 151.303,404.198 141.639,399.124 131.914,394.05 121.888,393.144 111.801,392.178 102.258,389.52 L96.127,387.286 98.453,390.185Z" test="RedBike container"/>
      <use xlink:href="#Bike-Wheel" transform="matrix(1.208 0 0 1.208 275.9 429.25)"/>
      <use xlink:href="#Bike-Wheel" transform="matrix(1.208 0 0 1.208 46.9 433.85)"/>
    </g>
  </g>
</svg>