<?xml version="1.0" encoding="utf-8"?>
<svg id="EdithAnim11" image-rendering="inherit" baseProfile="basic" version="1.1" x="0px" y="0px" width="800" height="600" xmlns="http://www.w3.org/2000/svg" xmlns:xlink="http://www.w3.org/1999/xlink">
  <defs>
    <g id="Bike-Wheel" overflow="visible">
      <path id="Layer4_0_1_STROKES" stroke="#FFF" stroke-width="1" stroke-linejoin="round" stroke-linecap="round" fill="none" d="M2.05 -34.85Q-12.35 -34.85 -22.65 -26.45 -34 -17.2 -34.7 -1.55 -35.4 14.3 -26.6 24.6 -18.4 34.2 -5.6 34.85 7.15 35.5 19.2 29.8 31.25 24.1 34.05 7.25 36.85 -9.65 28.9 -21.15 19.4 -34.85 2.05 -34.85Z" test="Bike Wheel"/>
      <path id="Layer3_0_1_STROKES" stroke="#FFF" stroke-width="1" stroke-linejoin="round" stroke-linecap="round" fill="none" d="M.55 -26.55Q4.65 -26.85 7.1 -26.15 9.75 -25.4 12 -23.15 13.95 -21.25 8 -15.35 5.3 -12.6 2.25 -10.2 1.95 -10 1.7 -9.8M24.45 -8.9Q26.2 -5.15 26.45 -2.65 26.7 .1 25.4 3.05 24.35 5.5 16.7 2.1 13.2 .6 9.85 -1.4 9.5 -1.6 9.25 -1.75M18.45 20Q15.75 23.1 13.55 24.35 11.2 25.75 8 25.75 5.3 25.75 5.25 17.4 5.2 13.55 5.65 9.7 5.7 9.35 5.75 9M-25.15 -7.15Q-24.25 -11.2 -22.85 -13.3 -21.4 -15.6 -18.6 -17.1 -16.2 -18.45 -12.25 -11.05 -10.4 -7.65 -9 -4.1 -8.9 -3.7 -8.75 -3.4M-12.85 23.8Q-16.75 22.4 -18.7 20.8 -20.85 19.05 -22.05 16.1 -23.1 13.6 -15.3 10.55 -11.75 9.05 -8 8.05 -7.65 8 -7.3 7.95" test="Bike Wheel"/>
    </g>
  </defs>
  <g id="19_Motorbikesf25r1" overflow="visible">
    <g id="MotorBikeBluef0r1">
      <path fill="#000" stroke="none" d="M286.95,274.55 L286.3,273.7 279.55,278.9 289.7,286.9 291.25,289.3 Q295.675,286.543 298.65,284.65 L297.6,283.1 286.95,274.55 M260.85,239.5 Q259.5,243.2 245.1,239.15 L246.1,243.95 Q252.95,249.85 265.35,246.7 L266.45,238.85 262.45,234 Q262.05,233.95 261.7,233.9 L260.85,239.5 M287.15,224.1 Q270.4,210.8 263.25,208.6 257.7,206.9 255.85,208.65 255.4,209.1 254.45,210.65 253.55,212.2 252.6,213.05 252.85,217.15 254.75,219.65 256.15,221.45 261.55,226.8 262.283,227.555 265.6,231.65 265.653,231.685 265.65,231.7 270.335,237.389 279.95,249.4 294.05,267.05 296.25,267.65 299.95,268.7 306.65,268.05 314.3,267.35 315.45,264.55 316.65,261.65 315.15,257.7 314.05,254.75 308.95,245.7 304.55,237.9 287.15,224.1Z" test="BlueBikeContainer"/>
      <path id="Layer2_0_1_STROKES" stroke="#0FF" stroke-width="1" stroke-linejoin="round" stroke-linecap="round" fill="none" d="M252.6,213.05 Q253.55,212.2 254.45,210.65 255.4,209.1 255.85,208.65 257.7,206.9 263.25,208.6 270.4,210.8 287.15,224.1 304.55,237.9 308.95,245.7 314.05,254.75 315.15,257.7 316.65,261.65 315.45,264.55 314.3,267.35 306.65,268.05 299.95,268.7 296.25,267.65 294.05,267.05 279.95,249.4 270.335,237.389 265.675,231.725 265.653,231.685 265.625,231.65 262.283,227.555 261.55,226.8 256.15,221.45 254.75,219.65 252.85,217.15 252.6,213.05Z" test="BlueBikeContainer"/>
      <path id="Layer2_0_2_STROKES" stroke="#009EFF" stroke-width="1" stroke-linejoin="round" stroke-linecap="round" fill="none" d="M261.7,233.9 Q253.25,233.3 244.55,232.85 225.8,231.95 224.1,233 222.3,234 221.55,236.5 221.2,237.75 220.85,241.05 220.6,243.3 218.85,247.85 217,252.45 216,253.1 215.658,253.345 212.725,252.925 212.664,252.91 212.6,252.9 L212.4,255.4 Q212.15,258.4 211.85,260.95 196.65,263.85 174.9,258.2 153.15,252.5 150,249.6 146.85,246.7 146.6,241.95 146.5,240.5 147,236.6 147.05,236.3 148.55,234.45 150.1,232.55 150.25,231.8 150.275,231.703 150.275,231.625 150.339,230.484 146.85,231.6 141.9,233.1 123.45,236.3 114.2,237.85 105.95,239.15 105.3,250.85 104.95,250.85 104.6,250.85 121.1,257 136.5,263.35 136.75,263.45 150.45,269.6 153.7,273.5 156.4,276.75 158.6,279.65 158.85,280 159.15,280.35 161.05,282.9 162.55,285.15 165.25,289.2 167.1,292.95 167.65,294 168.1,295.05 169.15,297.4 169.85,299.6 172.95,309.55 174.65,327.4 174.65,328.05 213.65,327.1 233.1,326.65 252.6,326.05 252.25,323.9 252.4,320.6 252.65,314 255,308.2 257.5,302.05 264.25,294 268.9,288.5 273.9,283.8 274.05,283.6 274.25,283.45 276.15,281.7 279.55,278.9 L286.3,273.7 289.7,271.1 Q281.348,259.404 276.125,252.125 276.101,252.087 276.075,252.05 269.072,242.323 267.7,240.55 L266.7,239.2 M262.45,234 Q262.65,234 262.9,234 L266.45,238.85 M262.45,234 Q262.05,233.95 261.7,233.9 M150.25,231.8 Q158.35,236.45 166.05,240.1 178.85,246.3 186.5,247.95 L212.75,252.4 M167.1,280.15 L168.95,282.45 Q171.6,286 173.8,289.9 180.95,302.45 181.15,314.05 181.35,325.65 181.65,324.8 L181.85,321.6 216.9,321.95 Q217.75,318.85 218.05,314.7 218.65,306.4 215.7,300.25 212.7,294.05 204.7,289.85 196.65,285.65 188.35,284.9 180,284.1 172.1,281.9 L167.1,280.15Z" test="BlueBikeContainer"/>
      <path id="Layer2_0_3_STROKES" stroke="#FFF" stroke-width="1" stroke-linejoin="round" stroke-linecap="round" fill="none" d="M266.7,239.2 L266.45,238.85 265.35,246.7 Q252.95,249.85 246.1,243.95 L245.1,239.15 Q259.5,243.2 260.85,239.5 L261.7,233.9 261.9,233.3 262.45,234 266.45,238.85 M297.6,283.1 L286.95,274.55 M279.55,278.9 L289.7,286.9" test="BlueBikeContainer"/>
      <use xlink:href="#Bike-Wheel" transform="translate(315.85 314.8)"/>
      <use xlink:href="#Bike-Wheel" transform="translate(126.3 318.6)"/>
    </g>
    <g id="MotorBikePinkf0r1">
      <path fill="#000" stroke="none" d="M76.154,341.261 Q76.456,346 80.261,350.502 84.066,354.005 110.34,360.891 136.614,367.716 154.976,364.213 155.338,361.132 155.64,357.508 L155.882,354.488 Q155.959,354.5 156.003,354.488 L156.063,353.884 124.353,348.509 Q115.112,346.516 99.65,339.026 90.348,334.617 80.563,329 80.382,329.906 78.51,332.201 76.698,334.436 76.637,334.798 76.033,339.509 76.154,341.261 M245.697,380.642 L244.912,379.615 236.758,385.896 249.019,395.56 250.891,398.46 Q256.237,395.129 259.83,392.842 L258.562,390.97 245.697,380.642 M214.168,338.301 Q212.537,342.771 195.142,337.878 L196.35,343.677 Q204.625,350.804 219.604,346 L220.933,337.516 216.101,331.657 Q215.618,331.597 215.195,331.536 L214.168,338.301 M195.142,337.878 Q212.537,342.771 214.168,338.301 L215.195,331.536 Q204.987,330.812 194.478,330.268 171.828,329.181 169.774,330.449 167.6,331.657 166.694,334.677 166.271,336.187 165.848,340.174 165.546,342.892 163.432,348.388 161.197,353.945 159.989,354.73 159.576,355.026 156.003,354.488 155.959,354.5 155.882,354.488 L155.64,357.508 Q155.338,361.132 154.976,364.213 136.614,367.716 110.34,360.891 84.066,354.005 80.261,350.502 76.456,346 76.154,341.261 76.033,339.509 76.637,334.798 76.698,334.436 78.51,332.201 80.382,329.906 80.563,329 80.593,328.882 80.563,328.758 80.671,327.41 76.456,328.758 70.476,330.57 48.189,334.436 37.015,336.308 27.049,337.878 26.264,352.012 25.841,352.012 25.418,352.012 45.35,359.441 63.953,367.112 64.255,367.233 80.805,374.662 84.731,379.373 87.992,383.299 90.65,386.802 90.952,387.225 91.314,387.648 92.948,389.838 94.334,391.816 94.417,391.963 94.455,392.057 94.975,392.774 95.422,393.446 98.683,398.339 100.918,402.869 101.582,404.137 102.126,405.406 103.394,408.244 104.24,410.902 107.985,422.922 110.038,444.484 110.038,444.813 118.313,444.786 118.389,444.817 118.434,444.786 129.963,444.784 157.15,444.122 159.113,444.076 161.076,444.001 182.614,443.517 204.202,442.854 203.779,440.256 203.96,436.27 204.262,428.297 207.101,421.291 210.121,413.862 218.275,404.137 223.892,397.493 229.932,391.816 230.114,391.574 230.355,391.393 232.65,389.279 236.758,385.896 L244.912,379.615 249.019,376.474 Q238.93,362.345 232.59,353.522 232.591,353.506 232.53,353.462 224.1,341.711 222.443,339.57 L221.235,337.939 220.933,337.516 219.604,346 Q204.625,350.804 196.35,343.677 L195.142,337.878 M146.339,399.124 Q156.003,404.198 159.627,411.687 163.19,419.116 162.466,429.143 162.103,434.156 161.076,437.901 L118.736,437.478 118.494,441.344 Q118.132,442.37 117.89,428.358 117.649,414.345 109.012,399.184 106.354,394.473 103.153,390.185 L100.797,387.286 106.958,389.52 Q116.501,392.178 126.588,393.144 136.614,394.05 146.339,399.124 M159.627,411.687 Q156.003,404.198 146.339,399.124 136.614,394.05 126.588,393.144 116.501,392.178 106.958,389.52 L100.797,387.286 103.153,390.185 Q106.354,394.473 109.012,399.184 117.649,414.345 117.89,428.358 118.132,442.37 118.494,441.344 L118.736,437.478 161.076,437.901 Q162.103,434.156 162.466,429.143 163.19,419.116 159.627,411.687 M245.938,319.698 Q225.704,303.632 217.067,300.974 210.363,298.92 208.128,301.034 207.584,301.578 206.437,303.45 205.35,305.323 204.202,306.35 204.504,311.302 206.799,314.322 208.49,316.497 215.014,322.96 215.899,323.872 219.906,328.818 219.97,328.861 219.966,328.879 225.626,335.751 237.241,350.26 254.274,371.582 256.931,372.306 261.401,373.575 269.494,372.79 278.736,371.944 280.125,368.562 281.574,365.058 279.762,360.287 278.434,356.723 272.273,345.791 266.958,336.368 245.938,319.698Z" test="RedBike container" stroke-width="1.208"/>
      <path id="Layer1_0_1_STROKES" stroke="#0FF" stroke-width="1.208" stroke-linejoin="round" stroke-linecap="round" fill="none" d="M204.202,306.35 Q205.35,305.323 206.437,303.45 207.584,301.578 208.128,301.034 210.363,298.92 217.067,300.974 225.704,303.632 245.938,319.698 266.958,336.368 272.273,345.791 278.434,356.723 279.762,360.287 281.574,365.058 280.125,368.562 278.736,371.944 269.494,372.79 261.401,373.575 256.931,372.306 254.274,371.582 237.241,350.26 225.626,335.751 219.997,328.909 219.97,328.861 219.936,328.818 215.899,323.872 215.014,322.96 208.49,316.497 206.799,314.322 204.504,311.302 204.202,306.35Z" test="RedBike container"/>
      <path id="Layer1_0_2_STROKES" stroke="#FFF" stroke-width="1.208" stroke-linejoin="round" stroke-linecap="round" fill="none" d="M220.933,337.516 L219.604,346 Q204.625,350.804 196.35,343.677 L195.142,337.878 Q212.537,342.771 214.168,338.301 L215.195,331.536 M221.235,337.939 L220.933,337.516 216.101,331.657 M215.195,331.536 L215.436,330.812 216.101,331.657 M258.562,390.97 L245.697,380.642 M236.758,385.896 L249.019,395.56" test="RedBike container"/>
      <path id="Layer1_0_3_STROKES" stroke="#FF0265" stroke-width="1.208" stroke-linejoin="round" stroke-linecap="round" fill="none" d="M215.195,331.536 Q204.987,330.812 194.478,330.268 171.828,329.181 169.774,330.449 167.6,331.657 166.694,334.677 166.271,336.187 165.848,340.174 165.546,342.892 163.432,348.388 161.197,353.945 159.989,354.73 159.576,355.026 156.033,354.519 155.959,354.5 155.882,354.488 L155.64,357.508 Q155.338,361.132 154.976,364.213 136.614,367.716 110.34,360.891 84.066,354.005 80.261,350.502 76.456,346 76.154,341.261 76.033,339.509 76.637,334.798 76.698,334.436 78.51,332.201 80.382,329.906 80.563,329 80.593,328.882 80.593,328.788 80.671,327.41 76.456,328.758 70.476,330.57 48.189,334.436 37.015,336.308 27.049,337.878 26.264,352.012 25.841,352.012 25.418,352.012 45.35,359.441 63.953,367.112 64.255,367.233 80.805,374.662 84.731,379.373 87.992,383.299 90.65,386.802 90.952,387.225 91.314,387.648 92.948,389.838 94.334,391.846 94.417,391.963 94.485,392.087 94.975,392.774 95.422,393.446 98.683,398.339 100.918,402.869 101.582,404.137 102.126,405.406 103.394,408.244 104.24,410.902 107.985,422.922 110.038,444.484 110.038,444.813 118.313,444.817 118.389,444.817 118.464,444.817 129.963,444.784 157.15,444.122 159.113,444.076 161.076,444.031 182.614,443.517 204.202,442.854 203.779,440.256 203.96,436.27 204.262,428.297 207.101,421.291 210.121,413.862 218.275,404.137 223.892,397.493 229.932,391.816 230.114,391.574 230.355,391.393 232.65,389.279 236.758,385.896 L244.912,379.615 249.019,376.474 Q238.93,362.345 232.62,353.552 232.591,353.506 232.56,353.462 224.1,341.711 222.443,339.57 L221.235,337.939 M215.195,331.536 Q215.618,331.597 216.101,331.657 216.342,331.657 216.644,331.657 L220.933,337.516 M80.563,329 Q90.348,334.617 99.65,339.026 115.112,346.516 124.353,348.509 L156.063,353.884 M103.153,390.185 Q106.354,394.473 109.012,399.184 117.649,414.345 117.89,428.358 118.132,442.37 118.494,441.344 L118.736,437.478 161.076,437.901 Q162.103,434.156 162.466,429.143 163.19,419.116 159.627,411.687 156.003,404.198 146.339,399.124 136.614,394.05 126.588,393.144 116.501,392.178 106.958,389.52 L100.827,387.286 103.153,390.185Z" test="RedBike container"/>
      <use xlink:href="#Bike-Wheel" transform="matrix(1.208 0 0 1.208 280.6 429.25)"/>
      <use xlink:href="#Bike-Wheel" transform="matrix(1.208 0 0 1.208 51.6 433.85)"/>
    </g>
  </g>
</svg>