<?xml version="1.0" encoding="utf-8"?>
<svg id="EdithAnim11" image-rendering="inherit" baseProfile="basic" version="1.1" x="0px" y="0px" width="800" height="600" xmlns="http://www.w3.org/2000/svg" xmlns:xlink="http://www.w3.org/1999/xlink">
  <defs>
    <g id="Bike-Wheel" overflow="visible">
      <path id="Layer4_0_1_STROKES" stroke="#FFF" stroke-width="1" stroke-linejoin="round" stroke-linecap="round" fill="none" d="M2.05 -34.85Q-12.35 -34.85 -22.65 -26.45 -34 -17.2 -34.7 -1.55 -35.4 14.3 -26.6 24.6 -18.4 34.2 -5.6 34.85 7.15 35.5 19.2 29.8 31.25 24.1 34.05 7.25 36.85 -9.65 28.9 -21.15 19.4 -34.85 2.05 -34.85Z" test="Bike Wheel"/>
      <path id="Layer3_0_1_STROKES" stroke="#FFF" stroke-width="1" stroke-linejoin="round" stroke-linecap="round" fill="none" d="M.55 -26.55Q4.65 -26.85 7.1 -26.15 9.75 -25.4 12 -23.15 13.95 -21.25 8 -15.35 5.3 -12.6 2.25 -10.2 1.95 -10 1.7 -9.8M24.45 -8.9Q26.2 -5.15 26.45 -2.65 26.7 .1 25.4 3.05 24.35 5.5 16.7 2.1 13.2 .6 9.85 -1.4 9.5 -1.6 9.25 -1.75M18.45 20Q15.75 23.1 13.55 24.35 11.2 25.75 8 25.75 5.3 25.75 5.25 17.4 5.2 13.55 5.65 9.7 5.7 9.35 5.75 9M-25.15 -7.15Q-24.25 -11.2 -22.85 -13.3 -21.4 -15.6 -18.6 -17.1 -16.2 -18.45 -12.25 -11.05 -10.4 -7.65 -9 -4.1 -8.9 -3.7 -8.75 -3.4M-12.85 23.8Q-16.75 22.4 -18.7 20.8 -20.85 19.05 -22.05 16.1 -23.1 13.6 -15.3 10.55 -11.75 9.05 -8 8.05 -7.65 8 -7.3 7.95" test="Bike Wheel"/>
    </g>
  </defs>
  <g id="19_Motorbikesf26r1" overflow="visible">
    <g id="MotorBikeBluef0r1">
      <path fill="#000" stroke="none" d="M290.05,274.55 L289.4,273.7 282.65,278.9 292.8,286.9 294.35,289.3 Q298.775,286.543 301.75,284.65 L300.7,283.1 290.05,274.55 M263.95,239.5 Q262.6,243.2 248.2,239.15 L249.2,243.95 Q256.05,249.85 268.45,246.7 L269.55,238.85 265.55,234 Q265.15,233.95 264.8,233.9 L263.95,239.5 M290.25,224.1 Q273.5,210.8 266.35,208.6 260.8,206.9 258.95,208.65 258.5,209.1 257.55,210.65 256.65,212.2 255.7,213.05 255.95,217.15 257.85,219.65 259.25,221.45 264.65,226.8 265.383,227.555 268.7,231.65 268.753,231.685 268.75,231.7 273.435,237.389 283.05,249.4 297.15,267.05 299.35,267.65 303.05,268.7 309.75,268.05 317.4,267.35 318.55,264.55 319.75,261.65 318.25,257.7 317.15,254.75 312.05,245.7 307.65,237.9 290.25,224.1Z" test="BlueBikeContainer"/>
      <path id="Layer2_0_1_STROKES" stroke="#0FF" stroke-width="1" stroke-linejoin="round" stroke-linecap="round" fill="none" d="M255.7,213.05 Q256.65,212.2 257.55,210.65 258.5,209.1 258.95,208.65 260.8,206.9 266.35,208.6 273.5,210.8 290.25,224.1 307.65,237.9 312.05,245.7 317.15,254.75 318.25,257.7 319.75,261.65 318.55,264.55 317.4,267.35 309.75,268.05 303.05,268.7 299.35,267.65 297.15,267.05 283.05,249.4 273.435,237.389 268.775,231.725 268.753,231.685 268.725,231.65 265.383,227.555 264.65,226.8 259.25,221.45 257.85,219.65 255.95,217.15 255.7,213.05Z" test="BlueBikeContainer"/>
      <path id="Layer2_0_2_STROKES" stroke="#009EFF" stroke-width="1" stroke-linejoin="round" stroke-linecap="round" fill="none" d="M264.8,233.9 Q256.35,233.3 247.65,232.85 228.9,231.95 227.2,233 225.4,234 224.65,236.5 224.3,237.75 223.95,241.05 223.7,243.3 221.95,247.85 220.1,252.45 219.1,253.1 218.758,253.345 215.825,252.925 215.764,252.91 215.7,252.9 L215.5,255.4 Q215.25,258.4 214.95,260.95 199.75,263.85 178,258.2 156.25,252.5 153.1,249.6 149.95,246.7 149.7,241.95 149.6,240.5 150.1,236.6 150.15,236.3 151.65,234.45 153.2,232.55 153.35,231.8 153.375,231.703 153.375,231.625 153.439,230.484 149.95,231.6 145,233.1 126.55,236.3 117.3,237.85 109.05,239.15 108.4,250.85 108.05,250.85 107.7,250.85 124.2,257 139.6,263.35 139.85,263.45 153.55,269.6 156.8,273.5 159.5,276.75 161.7,279.65 161.95,280 162.25,280.35 164.15,282.9 165.65,285.15 168.35,289.2 170.2,292.95 170.75,294 171.2,295.05 172.25,297.4 172.95,299.6 176.05,309.55 177.75,327.4 177.75,328.05 216.75,327.1 236.2,326.65 255.7,326.05 255.35,323.9 255.5,320.6 255.75,314 258.1,308.2 260.6,302.05 267.35,294 272,288.5 277,283.8 277.15,283.6 277.35,283.45 279.25,281.7 282.65,278.9 L289.4,273.7 292.8,271.1 Q284.448,259.404 279.225,252.125 279.201,252.087 279.175,252.05 272.172,242.323 270.8,240.55 L269.8,239.2 M265.55,234 Q265.75,234 266,234 L269.55,238.85 M265.55,234 Q265.15,233.95 264.8,233.9 M153.35,231.8 Q161.45,236.45 169.15,240.1 181.95,246.3 189.6,247.95 L215.85,252.4 M170.2,280.15 L172.05,282.45 Q174.7,286 176.9,289.9 184.05,302.45 184.25,314.05 184.45,325.65 184.75,324.8 L184.95,321.6 220,321.95 Q220.85,318.85 221.15,314.7 221.75,306.4 218.8,300.25 215.8,294.05 207.8,289.85 199.75,285.65 191.45,284.9 183.1,284.1 175.2,281.9 L170.2,280.15Z" test="BlueBikeContainer"/>
      <path id="Layer2_0_3_STROKES" stroke="#FFF" stroke-width="1" stroke-linejoin="round" stroke-linecap="round" fill="none" d="M269.8,239.2 L269.55,238.85 268.45,246.7 Q256.05,249.85 249.2,243.95 L248.2,239.15 Q262.6,243.2 263.95,239.5 L264.8,233.9 265,233.3 265.55,234 269.55,238.85 M300.7,283.1 L290.05,274.55 M282.65,278.9 L292.8,286.9" test="BlueBikeContainer"/>
      <use xlink:href="#Bike-Wheel" transform="translate(318.95 314.8)"/>
      <use xlink:href="#Bike-Wheel" transform="translate(129.4 318.6)"/>
    </g>
    <g id="MotorBikePinkf0r1">
      <path fill="#000" stroke="none" d="M79.854,341.261 Q80.156,346 83.961,350.502 87.766,354.005 114.04,360.891 140.314,367.716 158.676,364.213 159.038,361.132 159.34,357.508 L159.582,354.488 Q159.659,354.5 159.703,354.488 L159.763,353.884 128.053,348.509 Q118.812,346.516 103.35,339.026 94.048,334.617 84.263,329 84.082,329.906 82.21,332.201 80.398,334.436 80.337,334.798 79.733,339.509 79.854,341.261 M249.397,380.642 L248.612,379.615 240.458,385.896 252.719,395.56 254.591,398.46 Q259.937,395.129 263.53,392.842 L262.262,390.97 249.397,380.642 M217.868,338.301 Q216.237,342.771 198.842,337.878 L200.05,343.677 Q208.325,350.804 223.304,346 L224.633,337.516 219.801,331.657 Q219.318,331.597 218.895,331.536 L217.868,338.301 M198.842,337.878 Q216.237,342.771 217.868,338.301 L218.895,331.536 Q208.687,330.812 198.178,330.268 175.528,329.181 173.474,330.449 171.3,331.657 170.394,334.677 169.971,336.187 169.548,340.174 169.246,342.892 167.132,348.388 164.897,353.945 163.689,354.73 163.276,355.026 159.703,354.488 159.659,354.5 159.582,354.488 L159.34,357.508 Q159.038,361.132 158.676,364.213 140.314,367.716 114.04,360.891 87.766,354.005 83.961,350.502 80.156,346 79.854,341.261 79.733,339.509 80.337,334.798 80.398,334.436 82.21,332.201 84.082,329.906 84.263,329 84.293,328.882 84.263,328.758 84.371,327.41 80.156,328.758 74.176,330.57 51.889,334.436 40.715,336.308 30.749,337.878 29.964,352.012 29.541,352.012 29.118,352.012 49.05,359.441 67.653,367.112 67.955,367.233 84.505,374.662 88.431,379.373 91.692,383.299 94.35,386.802 94.652,387.225 95.014,387.648 96.648,389.838 98.034,391.816 98.117,391.963 98.155,392.057 98.675,392.774 99.122,393.446 102.383,398.339 104.618,402.869 105.282,404.137 105.826,405.406 107.094,408.244 107.94,410.902 111.685,422.922 113.738,444.484 113.738,444.813 122.013,444.786 122.089,444.817 122.134,444.786 133.663,444.784 160.85,444.122 162.813,444.076 164.776,444.001 186.314,443.517 207.902,442.854 207.479,440.256 207.66,436.27 207.962,428.297 210.801,421.291 213.821,413.862 221.975,404.137 227.592,397.493 233.632,391.816 233.814,391.574 234.055,391.393 236.35,389.279 240.458,385.896 L248.612,379.615 252.719,376.474 Q242.63,362.345 236.29,353.522 236.291,353.506 236.23,353.462 227.8,341.711 226.143,339.57 L224.935,337.939 224.633,337.516 223.304,346 Q208.325,350.804 200.05,343.677 L198.842,337.878 M150.039,399.124 Q159.703,404.198 163.327,411.687 166.89,419.116 166.166,429.143 165.803,434.156 164.776,437.901 L122.436,437.478 122.194,441.344 Q121.832,442.37 121.59,428.358 121.349,414.345 112.712,399.184 110.054,394.473 106.853,390.185 L104.497,387.286 110.658,389.52 Q120.201,392.178 130.288,393.144 140.314,394.05 150.039,399.124 M163.327,411.687 Q159.703,404.198 150.039,399.124 140.314,394.05 130.288,393.144 120.201,392.178 110.658,389.52 L104.497,387.286 106.853,390.185 Q110.054,394.473 112.712,399.184 121.349,414.345 121.59,428.358 121.832,442.37 122.194,441.344 L122.436,437.478 164.776,437.901 Q165.803,434.156 166.166,429.143 166.89,419.116 163.327,411.687 M249.638,319.698 Q229.404,303.632 220.767,300.974 214.063,298.92 211.828,301.034 211.284,301.578 210.137,303.45 209.05,305.323 207.902,306.35 208.204,311.302 210.499,314.322 212.19,316.497 218.714,322.96 219.599,323.872 223.606,328.818 223.67,328.861 223.666,328.879 229.326,335.751 240.941,350.26 257.974,371.582 260.631,372.306 265.101,373.575 273.194,372.79 282.436,371.944 283.825,368.562 285.274,365.058 283.462,360.287 282.134,356.723 275.973,345.791 270.658,336.368 249.638,319.698Z" test="RedBike container" stroke-width="1.208"/>
      <path id="Layer1_0_1_STROKES" stroke="#0FF" stroke-width="1.208" stroke-linejoin="round" stroke-linecap="round" fill="none" d="M207.902,306.35 Q209.05,305.323 210.137,303.45 211.284,301.578 211.828,301.034 214.063,298.92 220.767,300.974 229.404,303.632 249.638,319.698 270.658,336.368 275.973,345.791 282.134,356.723 283.462,360.287 285.274,365.058 283.825,368.562 282.436,371.944 273.194,372.79 265.101,373.575 260.631,372.306 257.974,371.582 240.941,350.26 229.326,335.751 223.697,328.909 223.67,328.861 223.636,328.818 219.599,323.872 218.714,322.96 212.19,316.497 210.499,314.322 208.204,311.302 207.902,306.35Z" test="RedBike container"/>
      <path id="Layer1_0_2_STROKES" stroke="#FFF" stroke-width="1.208" stroke-linejoin="round" stroke-linecap="round" fill="none" d="M224.633,337.516 L223.304,346 Q208.325,350.804 200.05,343.677 L198.842,337.878 Q216.237,342.771 217.868,338.301 L218.895,331.536 M224.935,337.939 L224.633,337.516 219.801,331.657 M218.895,331.536 L219.136,330.812 219.801,331.657 M262.262,390.97 L249.397,380.642 M240.458,385.896 L252.719,395.56" test="RedBike container"/>
      <path id="Layer1_0_3_STROKES" stroke="#FF0265" stroke-width="1.208" stroke-linejoin="round" stroke-linecap="round" fill="none" d="M218.895,331.536 Q208.687,330.812 198.178,330.268 175.528,329.181 173.474,330.449 171.3,331.657 170.394,334.677 169.971,336.187 169.548,340.174 169.246,342.892 167.132,348.388 164.897,353.945 163.689,354.73 163.276,355.026 159.733,354.519 159.659,354.5 159.582,354.488 L159.34,357.508 Q159.038,361.132 158.676,364.213 140.314,367.716 114.04,360.891 87.766,354.005 83.961,350.502 80.156,346 79.854,341.261 79.733,339.509 80.337,334.798 80.398,334.436 82.21,332.201 84.082,329.906 84.263,329 84.293,328.882 84.293,328.788 84.371,327.41 80.156,328.758 74.176,330.57 51.889,334.436 40.715,336.308 30.749,337.878 29.964,352.012 29.541,352.012 29.118,352.012 49.05,359.441 67.653,367.112 67.955,367.233 84.505,374.662 88.431,379.373 91.692,383.299 94.35,386.802 94.652,387.225 95.014,387.648 96.648,389.838 98.034,391.846 98.117,391.963 98.185,392.087 98.675,392.774 99.122,393.446 102.383,398.339 104.618,402.869 105.282,404.137 105.826,405.406 107.094,408.244 107.94,410.902 111.685,422.922 113.738,444.484 113.738,444.813 122.013,444.817 122.089,444.817 122.164,444.817 133.663,444.784 160.85,444.122 162.813,444.076 164.776,444.031 186.314,443.517 207.902,442.854 207.479,440.256 207.66,436.27 207.962,428.297 210.801,421.291 213.821,413.862 221.975,404.137 227.592,397.493 233.632,391.816 233.814,391.574 234.055,391.393 236.35,389.279 240.458,385.896 L248.612,379.615 252.719,376.474 Q242.63,362.345 236.32,353.552 236.291,353.506 236.26,353.462 227.8,341.711 226.143,339.57 L224.935,337.939 M218.895,331.536 Q219.318,331.597 219.801,331.657 220.042,331.657 220.344,331.657 L224.633,337.516 M84.263,329 Q94.048,334.617 103.35,339.026 118.812,346.516 128.053,348.509 L159.763,353.884 M106.853,390.185 Q110.054,394.473 112.712,399.184 121.349,414.345 121.59,428.358 121.832,442.37 122.194,441.344 L122.436,437.478 164.776,437.901 Q165.803,434.156 166.166,429.143 166.89,419.116 163.327,411.687 159.703,404.198 150.039,399.124 140.314,394.05 130.288,393.144 120.201,392.178 110.658,389.52 L104.527,387.286 106.853,390.185Z" test="RedBike container"/>
      <use xlink:href="#Bike-Wheel" transform="matrix(1.208 0 0 1.208 284.3 429.25)"/>
      <use xlink:href="#Bike-Wheel" transform="matrix(1.208 0 0 1.208 55.3 433.85)"/>
    </g>
  </g>
</svg>