<?xml version="1.0" encoding="utf-8"?>
<svg id="EdithAnim11" image-rendering="inherit" baseProfile="basic" version="1.1" x="0px" y="0px" width="800" height="600" xmlns="http://www.w3.org/2000/svg" xmlns:xlink="http://www.w3.org/1999/xlink">
  <defs>
    <g id="Bike-Wheel" overflow="visible">
      <path id="Layer4_0_1_STROKES" stroke="#FFF" stroke-width="1" stroke-linejoin="round" stroke-linecap="round" fill="none" d="M2.05 -34.85Q-12.35 -34.85 -22.65 -26.45 -34 -17.2 -34.7 -1.55 -35.4 14.3 -26.6 24.6 -18.4 34.2 -5.6 34.85 7.15 35.5 19.2 29.8 31.25 24.1 34.05 7.25 36.85 -9.65 28.9 -21.15 19.4 -34.85 2.05 -34.85Z" test="Bike Wheel"/>
      <path id="Layer3_0_1_STROKES" stroke="#FFF" stroke-width="1" stroke-linejoin="round" stroke-linecap="round" fill="none" d="M.55 -26.55Q4.65 -26.85 7.1 -26.15 9.75 -25.4 12 -23.15 13.95 -21.25 8 -15.35 5.3 -12.6 2.25 -10.2 1.95 -10 1.7 -9.8M24.45 -8.9Q26.2 -5.15 26.45 -2.65 26.7 .1 25.4 3.05 24.35 5.5 16.7 2.1 13.2 .6 9.85 -1.4 9.5 -1.6 9.25 -1.75M18.45 20Q15.75 23.1 13.55 24.35 11.2 25.75 8 25.75 5.3 25.75 5.25 17.4 5.2 13.55 5.65 9.7 5.7 9.35 5.75 9M-25.15 -7.15Q-24.25 -11.2 -22.85 -13.3 -21.4 -15.6 -18.6 -17.1 -16.2 -18.45 -12.25 -11.05 -10.4 -7.65 -9 -4.1 -8.9 -3.7 -8.75 -3.4M-12.85 23.8Q-16.75 22.4 -18.7 20.8 -20.85 19.05 -22.05 16.1 -23.1 13.6 -15.3 10.55 -11.75 9.05 -8 8.05 -7.65 8 -7.3 7.95" test="Bike Wheel"/>
    </g>
  </defs>
  <g id="19_Motorbikesf27r1" overflow="visible">
    <g id="MotorBikeBluef0r1">
      <path fill="#000" stroke="none" d="M292.3,274.55 L291.65,273.7 284.9,278.9 295.05,286.9 296.6,289.3 Q301.025,286.543 304,284.65 L302.95,283.1 292.3,274.55 M266.2,239.5 Q264.85,243.2 250.45,239.15 L251.45,243.95 Q258.3,249.85 270.7,246.7 L271.8,238.85 267.8,234 Q267.4,233.95 267.05,233.9 L266.2,239.5 M292.5,224.1 Q275.75,210.8 268.6,208.6 263.05,206.9 261.2,208.65 260.75,209.1 259.8,210.65 258.9,212.2 257.95,213.05 258.2,217.15 260.1,219.65 261.5,221.45 266.9,226.8 267.633,227.555 270.95,231.65 271.003,231.685 271,231.7 275.685,237.389 285.3,249.4 299.4,267.05 301.6,267.65 305.3,268.7 312,268.05 319.65,267.35 320.8,264.55 322,261.65 320.5,257.7 319.4,254.75 314.3,245.7 309.9,237.9 292.5,224.1Z" test="BlueBikeContainer"/>
      <path id="Layer2_0_1_STROKES" stroke="#0FF" stroke-width="1" stroke-linejoin="round" stroke-linecap="round" fill="none" d="M257.95,213.05 Q258.9,212.2 259.8,210.65 260.75,209.1 261.2,208.65 263.05,206.9 268.6,208.6 275.75,210.8 292.5,224.1 309.9,237.9 314.3,245.7 319.4,254.75 320.5,257.7 322,261.65 320.8,264.55 319.65,267.35 312,268.05 305.3,268.7 301.6,267.65 299.4,267.05 285.3,249.4 275.685,237.389 271.025,231.725 271.003,231.685 270.975,231.65 267.633,227.555 266.9,226.8 261.5,221.45 260.1,219.65 258.2,217.15 257.95,213.05Z" test="BlueBikeContainer"/>
      <path id="Layer2_0_2_STROKES" stroke="#009EFF" stroke-width="1" stroke-linejoin="round" stroke-linecap="round" fill="none" d="M267.05,233.9 Q258.6,233.3 249.9,232.85 231.15,231.95 229.45,233 227.65,234 226.9,236.5 226.55,237.75 226.2,241.05 225.95,243.3 224.2,247.85 222.35,252.45 221.35,253.1 221.008,253.345 218.075,252.925 218.014,252.91 217.95,252.9 L217.75,255.4 Q217.5,258.4 217.2,260.95 202,263.85 180.25,258.2 158.5,252.5 155.35,249.6 152.2,246.7 151.95,241.95 151.85,240.5 152.35,236.6 152.4,236.3 153.9,234.45 155.45,232.55 155.6,231.8 155.625,231.703 155.625,231.625 155.689,230.484 152.2,231.6 147.25,233.1 128.8,236.3 119.55,237.85 111.3,239.15 110.65,250.85 110.3,250.85 109.95,250.85 126.45,257 141.85,263.35 142.1,263.45 155.8,269.6 159.05,273.5 161.75,276.75 163.95,279.65 164.2,280 164.5,280.35 166.4,282.9 167.9,285.15 170.6,289.2 172.45,292.95 173,294 173.45,295.05 174.5,297.4 175.2,299.6 178.3,309.55 180,327.4 180,328.05 219,327.1 238.45,326.65 257.95,326.05 257.6,323.9 257.75,320.6 258,314 260.35,308.2 262.85,302.05 269.6,294 274.25,288.5 279.25,283.8 279.4,283.6 279.6,283.45 281.5,281.7 284.9,278.9 L291.65,273.7 295.05,271.1 Q286.698,259.404 281.475,252.125 281.451,252.087 281.425,252.05 274.422,242.323 273.05,240.55 L272.05,239.2 M267.8,234 Q268,234 268.25,234 L271.8,238.85 M267.8,234 Q267.4,233.95 267.05,233.9 M155.6,231.8 Q163.7,236.45 171.4,240.1 184.2,246.3 191.85,247.95 L218.1,252.4 M172.45,280.15 L174.3,282.45 Q176.95,286 179.15,289.9 186.3,302.45 186.5,314.05 186.7,325.65 187,324.8 L187.2,321.6 222.25,321.95 Q223.1,318.85 223.4,314.7 224,306.4 221.05,300.25 218.05,294.05 210.05,289.85 202,285.65 193.7,284.9 185.35,284.1 177.45,281.9 L172.45,280.15Z" test="BlueBikeContainer"/>
      <path id="Layer2_0_3_STROKES" stroke="#FFF" stroke-width="1" stroke-linejoin="round" stroke-linecap="round" fill="none" d="M272.05,239.2 L271.8,238.85 270.7,246.7 Q258.3,249.85 251.45,243.95 L250.45,239.15 Q264.85,243.2 266.2,239.5 L267.05,233.9 267.25,233.3 267.8,234 271.8,238.85 M302.95,283.1 L292.3,274.55 M284.9,278.9 L295.05,286.9" test="BlueBikeContainer"/>
      <use xlink:href="#Bike-Wheel" transform="translate(321.2 314.8)"/>
      <use xlink:href="#Bike-Wheel" transform="translate(131.65 318.6)"/>
    </g>
    <g id="MotorBikePinkf0r1">
      <path fill="#000" stroke="none" d="M82.554,341.261 Q82.856,346 86.661,350.502 90.466,354.005 116.74,360.891 143.014,367.716 161.376,364.213 161.738,361.132 162.04,357.508 L162.282,354.488 Q162.359,354.5 162.403,354.488 L162.463,353.884 130.753,348.509 Q121.512,346.516 106.05,339.026 96.748,334.617 86.963,329 86.782,329.906 84.91,332.201 83.098,334.436 83.037,334.798 82.433,339.509 82.554,341.261 M252.097,380.642 L251.312,379.615 243.158,385.896 255.419,395.56 257.291,398.46 Q262.637,395.129 266.23,392.842 L264.962,390.97 252.097,380.642 M220.568,338.301 Q218.937,342.771 201.542,337.878 L202.75,343.677 Q211.025,350.804 226.004,346 L227.333,337.516 222.501,331.657 Q222.018,331.597 221.595,331.536 L220.568,338.301 M201.542,337.878 Q218.937,342.771 220.568,338.301 L221.595,331.536 Q211.387,330.812 200.878,330.268 178.228,329.181 176.174,330.449 174,331.657 173.094,334.677 172.671,336.187 172.248,340.174 171.946,342.892 169.832,348.388 167.597,353.945 166.389,354.73 165.976,355.026 162.403,354.488 162.359,354.5 162.282,354.488 L162.04,357.508 Q161.738,361.132 161.376,364.213 143.014,367.716 116.74,360.891 90.466,354.005 86.661,350.502 82.856,346 82.554,341.261 82.433,339.509 83.037,334.798 83.098,334.436 84.91,332.201 86.782,329.906 86.963,329 86.993,328.882 86.963,328.758 87.071,327.41 82.856,328.758 76.876,330.57 54.589,334.436 43.415,336.308 33.449,337.878 32.664,352.012 32.241,352.012 31.818,352.012 51.75,359.441 70.353,367.112 70.655,367.233 87.205,374.662 91.131,379.373 94.392,383.299 97.05,386.802 97.352,387.225 97.714,387.648 99.348,389.838 100.734,391.816 100.817,391.963 100.855,392.057 101.375,392.774 101.822,393.446 105.083,398.339 107.318,402.869 107.982,404.137 108.526,405.406 109.794,408.244 110.64,410.902 114.385,422.922 116.438,444.484 116.438,444.813 124.713,444.786 124.789,444.817 124.834,444.786 136.363,444.784 163.55,444.122 165.513,444.076 167.476,444.001 189.014,443.517 210.602,442.854 210.179,440.256 210.36,436.27 210.662,428.297 213.501,421.291 216.521,413.862 224.675,404.137 230.292,397.493 236.332,391.816 236.514,391.574 236.755,391.393 239.05,389.279 243.158,385.896 L251.312,379.615 255.419,376.474 Q245.33,362.345 238.99,353.522 238.991,353.506 238.93,353.462 230.5,341.711 228.843,339.57 L227.635,337.939 227.333,337.516 226.004,346 Q211.025,350.804 202.75,343.677 L201.542,337.878 M152.739,399.124 Q162.403,404.198 166.027,411.687 169.59,419.116 168.866,429.143 168.503,434.156 167.476,437.901 L125.136,437.478 124.894,441.344 Q124.532,442.37 124.29,428.358 124.049,414.345 115.412,399.184 112.754,394.473 109.553,390.185 L107.197,387.286 113.358,389.52 Q122.901,392.178 132.988,393.144 143.014,394.05 152.739,399.124 M166.027,411.687 Q162.403,404.198 152.739,399.124 143.014,394.05 132.988,393.144 122.901,392.178 113.358,389.52 L107.197,387.286 109.553,390.185 Q112.754,394.473 115.412,399.184 124.049,414.345 124.29,428.358 124.532,442.37 124.894,441.344 L125.136,437.478 167.476,437.901 Q168.503,434.156 168.866,429.143 169.59,419.116 166.027,411.687 M252.338,319.698 Q232.104,303.632 223.467,300.974 216.763,298.92 214.528,301.034 213.984,301.578 212.837,303.45 211.75,305.323 210.602,306.35 210.904,311.302 213.199,314.322 214.89,316.497 221.414,322.96 222.299,323.872 226.306,328.818 226.37,328.861 226.366,328.879 232.026,335.751 243.641,350.26 260.674,371.582 263.331,372.306 267.801,373.575 275.894,372.79 285.136,371.944 286.525,368.562 287.974,365.058 286.162,360.287 284.834,356.723 278.673,345.791 273.358,336.368 252.338,319.698Z" test="RedBike container" stroke-width="1.208"/>
      <path id="Layer1_0_1_STROKES" stroke="#0FF" stroke-width="1.208" stroke-linejoin="round" stroke-linecap="round" fill="none" d="M210.602,306.35 Q211.75,305.323 212.837,303.45 213.984,301.578 214.528,301.034 216.763,298.92 223.467,300.974 232.104,303.632 252.338,319.698 273.358,336.368 278.673,345.791 284.834,356.723 286.162,360.287 287.974,365.058 286.525,368.562 285.136,371.944 275.894,372.79 267.801,373.575 263.331,372.306 260.674,371.582 243.641,350.26 232.026,335.751 226.397,328.909 226.37,328.861 226.336,328.818 222.299,323.872 221.414,322.96 214.89,316.497 213.199,314.322 210.904,311.302 210.602,306.35Z" test="RedBike container"/>
      <path id="Layer1_0_2_STROKES" stroke="#FFF" stroke-width="1.208" stroke-linejoin="round" stroke-linecap="round" fill="none" d="M227.333,337.516 L226.004,346 Q211.025,350.804 202.75,343.677 L201.542,337.878 Q218.937,342.771 220.568,338.301 L221.595,331.536 M227.635,337.939 L227.333,337.516 222.501,331.657 M221.595,331.536 L221.836,330.812 222.501,331.657 M264.962,390.97 L252.097,380.642 M243.158,385.896 L255.419,395.56" test="RedBike container"/>
      <path id="Layer1_0_3_STROKES" stroke="#FF0265" stroke-width="1.208" stroke-linejoin="round" stroke-linecap="round" fill="none" d="M221.595,331.536 Q211.387,330.812 200.878,330.268 178.228,329.181 176.174,330.449 174,331.657 173.094,334.677 172.671,336.187 172.248,340.174 171.946,342.892 169.832,348.388 167.597,353.945 166.389,354.73 165.976,355.026 162.433,354.519 162.359,354.5 162.282,354.488 L162.04,357.508 Q161.738,361.132 161.376,364.213 143.014,367.716 116.74,360.891 90.466,354.005 86.661,350.502 82.856,346 82.554,341.261 82.433,339.509 83.037,334.798 83.098,334.436 84.91,332.201 86.782,329.906 86.963,329 86.993,328.882 86.993,328.788 87.071,327.41 82.856,328.758 76.876,330.57 54.589,334.436 43.415,336.308 33.449,337.878 32.664,352.012 32.241,352.012 31.818,352.012 51.75,359.441 70.353,367.112 70.655,367.233 87.205,374.662 91.131,379.373 94.392,383.299 97.05,386.802 97.352,387.225 97.714,387.648 99.348,389.838 100.734,391.846 100.817,391.963 100.885,392.087 101.375,392.774 101.822,393.446 105.083,398.339 107.318,402.869 107.982,404.137 108.526,405.406 109.794,408.244 110.64,410.902 114.385,422.922 116.438,444.484 116.438,444.813 124.713,444.817 124.789,444.817 124.864,444.817 136.363,444.784 163.55,444.122 165.513,444.076 167.476,444.031 189.014,443.517 210.602,442.854 210.179,440.256 210.36,436.27 210.662,428.297 213.501,421.291 216.521,413.862 224.675,404.137 230.292,397.493 236.332,391.816 236.514,391.574 236.755,391.393 239.05,389.279 243.158,385.896 L251.312,379.615 255.419,376.474 Q245.33,362.345 239.02,353.552 238.991,353.506 238.96,353.462 230.5,341.711 228.843,339.57 L227.635,337.939 M221.595,331.536 Q222.018,331.597 222.501,331.657 222.742,331.657 223.044,331.657 L227.333,337.516 M86.963,329 Q96.748,334.617 106.05,339.026 121.512,346.516 130.753,348.509 L162.463,353.884 M109.553,390.185 Q112.754,394.473 115.412,399.184 124.049,414.345 124.29,428.358 124.532,442.37 124.894,441.344 L125.136,437.478 167.476,437.901 Q168.503,434.156 168.866,429.143 169.59,419.116 166.027,411.687 162.403,404.198 152.739,399.124 143.014,394.05 132.988,393.144 122.901,392.178 113.358,389.52 L107.227,387.286 109.553,390.185Z" test="RedBike container"/>
      <use xlink:href="#Bike-Wheel" transform="matrix(1.208 0 0 1.208 287 429.25)"/>
      <use xlink:href="#Bike-Wheel" transform="matrix(1.208 0 0 1.208 58 433.85)"/>
    </g>
  </g>
</svg>