<?xml version="1.0" encoding="utf-8"?>
<svg id="EdithAnim11" image-rendering="inherit" baseProfile="basic" version="1.1" x="0px" y="0px" width="800" height="600" xmlns="http://www.w3.org/2000/svg" xmlns:xlink="http://www.w3.org/1999/xlink">
  <defs>
    <g id="Bike-Wheel" overflow="visible">
      <path id="Layer4_0_1_STROKES" stroke="#FFF" stroke-width="1" stroke-linejoin="round" stroke-linecap="round" fill="none" d="M2.05 -34.85Q-12.35 -34.85 -22.65 -26.45 -34 -17.2 -34.7 -1.55 -35.4 14.3 -26.6 24.6 -18.4 34.2 -5.6 34.85 7.15 35.5 19.2 29.8 31.25 24.1 34.05 7.25 36.85 -9.65 28.9 -21.15 19.4 -34.85 2.05 -34.85Z" test="Bike Wheel"/>
      <path id="Layer3_0_1_STROKES" stroke="#FFF" stroke-width="1" stroke-linejoin="round" stroke-linecap="round" fill="none" d="M.55 -26.55Q4.65 -26.85 7.1 -26.15 9.75 -25.4 12 -23.15 13.95 -21.25 8 -15.35 5.3 -12.6 2.25 -10.2 1.95 -10 1.7 -9.8M24.45 -8.9Q26.2 -5.15 26.45 -2.65 26.7 .1 25.4 3.05 24.35 5.5 16.7 2.1 13.2 .6 9.85 -1.4 9.5 -1.6 9.25 -1.75M18.45 20Q15.75 23.1 13.55 24.35 11.2 25.75 8 25.75 5.3 25.75 5.25 17.4 5.2 13.55 5.65 9.7 5.7 9.35 5.75 9M-25.15 -7.15Q-24.25 -11.2 -22.85 -13.3 -21.4 -15.6 -18.6 -17.1 -16.2 -18.45 -12.25 -11.05 -10.4 -7.65 -9 -4.1 -8.9 -3.7 -8.75 -3.4M-12.85 23.8Q-16.75 22.4 -18.7 20.8 -20.85 19.05 -22.05 16.1 -23.1 13.6 -15.3 10.55 -11.75 9.05 -8 8.05 -7.65 8 -7.3 7.95" test="Bike Wheel"/>
    </g>
  </defs>
  <g id="19_Motorbikesf28r1" overflow="visible">
    <g id="MotorBikeBluef0r1">
      <path fill="#000" stroke="none" d="M293.7,274.55 L293.05,273.7 286.3,278.9 296.45,286.9 298,289.3 Q302.425,286.543 305.4,284.65 L304.35,283.1 293.7,274.55 M267.6,239.5 Q266.25,243.2 251.85,239.15 L252.85,243.95 Q259.7,249.85 272.1,246.7 L273.2,238.85 269.2,234 Q268.8,233.95 268.45,233.9 L267.6,239.5 M293.9,224.1 Q277.15,210.8 270,208.6 264.45,206.9 262.6,208.65 262.15,209.1 261.2,210.65 260.3,212.2 259.35,213.05 259.6,217.15 261.5,219.65 262.9,221.45 268.3,226.8 269.033,227.555 272.35,231.65 272.403,231.685 272.4,231.7 277.085,237.389 286.7,249.4 300.8,267.05 303,267.65 306.7,268.7 313.4,268.05 321.05,267.35 322.2,264.55 323.4,261.65 321.9,257.7 320.8,254.75 315.7,245.7 311.3,237.9 293.9,224.1Z" test="BlueBikeContainer"/>
      <path id="Layer2_0_1_STROKES" stroke="#0FF" stroke-width="1" stroke-linejoin="round" stroke-linecap="round" fill="none" d="M259.35,213.05 Q260.3,212.2 261.2,210.65 262.15,209.1 262.6,208.65 264.45,206.9 270,208.6 277.15,210.8 293.9,224.1 311.3,237.9 315.7,245.7 320.8,254.75 321.9,257.7 323.4,261.65 322.2,264.55 321.05,267.35 313.4,268.05 306.7,268.7 303,267.65 300.8,267.05 286.7,249.4 277.085,237.389 272.425,231.725 272.403,231.685 272.375,231.65 269.033,227.555 268.3,226.8 262.9,221.45 261.5,219.65 259.6,217.15 259.35,213.05Z" test="BlueBikeContainer"/>
      <path id="Layer2_0_2_STROKES" stroke="#009EFF" stroke-width="1" stroke-linejoin="round" stroke-linecap="round" fill="none" d="M268.45,233.9 Q260,233.3 251.3,232.85 232.55,231.95 230.85,233 229.05,234 228.3,236.5 227.95,237.75 227.6,241.05 227.35,243.3 225.6,247.85 223.75,252.45 222.75,253.1 222.408,253.345 219.475,252.925 219.414,252.91 219.35,252.9 L219.15,255.4 Q218.9,258.4 218.6,260.95 203.4,263.85 181.65,258.2 159.9,252.5 156.75,249.6 153.6,246.7 153.35,241.95 153.25,240.5 153.75,236.6 153.8,236.3 155.3,234.45 156.85,232.55 157,231.8 157.025,231.703 157.025,231.625 157.089,230.484 153.6,231.6 148.65,233.1 130.2,236.3 120.95,237.85 112.7,239.15 112.05,250.85 111.7,250.85 111.35,250.85 127.85,257 143.25,263.35 143.5,263.45 157.2,269.6 160.45,273.5 163.15,276.75 165.35,279.65 165.6,280 165.9,280.35 167.8,282.9 169.3,285.15 172,289.2 173.85,292.95 174.4,294 174.85,295.05 175.9,297.4 176.6,299.6 179.7,309.55 181.4,327.4 181.4,328.05 220.4,327.1 239.85,326.65 259.35,326.05 259,323.9 259.15,320.6 259.4,314 261.75,308.2 264.25,302.05 271,294 275.65,288.5 280.65,283.8 280.8,283.6 281,283.45 282.9,281.7 286.3,278.9 L293.05,273.7 296.45,271.1 Q288.098,259.404 282.875,252.125 282.851,252.087 282.825,252.05 275.822,242.323 274.45,240.55 L273.45,239.2 M269.2,234 Q269.4,234 269.65,234 L273.2,238.85 M269.2,234 Q268.8,233.95 268.45,233.9 M157,231.8 Q165.1,236.45 172.8,240.1 185.6,246.3 193.25,247.95 L219.5,252.4 M173.85,280.15 L175.7,282.45 Q178.35,286 180.55,289.9 187.7,302.45 187.9,314.05 188.1,325.65 188.4,324.8 L188.6,321.6 223.65,321.95 Q224.5,318.85 224.8,314.7 225.4,306.4 222.45,300.25 219.45,294.05 211.45,289.85 203.4,285.65 195.1,284.9 186.75,284.1 178.85,281.9 L173.85,280.15Z" test="BlueBikeContainer"/>
      <path id="Layer2_0_3_STROKES" stroke="#FFF" stroke-width="1" stroke-linejoin="round" stroke-linecap="round" fill="none" d="M273.45,239.2 L273.2,238.85 272.1,246.7 Q259.7,249.85 252.85,243.95 L251.85,239.15 Q266.25,243.2 267.6,239.5 L268.45,233.9 268.65,233.3 269.2,234 273.2,238.85 M304.35,283.1 L293.7,274.55 M286.3,278.9 L296.45,286.9" test="BlueBikeContainer"/>
      <use xlink:href="#Bike-Wheel" transform="translate(322.6 314.8)"/>
      <use xlink:href="#Bike-Wheel" transform="translate(133.05 318.6)"/>
    </g>
    <g id="MotorBikePinkf0r1">
      <path fill="#000" stroke="none" d="M84.204,341.261 Q84.506,346 88.311,350.502 92.116,354.005 118.39,360.891 144.664,367.716 163.026,364.213 163.388,361.132 163.69,357.508 L163.932,354.488 Q164.009,354.5 164.053,354.488 L164.113,353.884 132.403,348.509 Q123.162,346.516 107.7,339.026 98.398,334.617 88.613,329 88.432,329.906 86.56,332.201 84.748,334.436 84.687,334.798 84.083,339.509 84.204,341.261 M253.747,380.642 L252.962,379.615 244.808,385.896 257.069,395.56 258.941,398.46 Q264.287,395.129 267.88,392.842 L266.612,390.97 253.747,380.642 M222.218,338.301 Q220.587,342.771 203.192,337.878 L204.4,343.677 Q212.675,350.804 227.654,346 L228.983,337.516 224.151,331.657 Q223.668,331.597 223.245,331.536 L222.218,338.301 M203.192,337.878 Q220.587,342.771 222.218,338.301 L223.245,331.536 Q213.037,330.812 202.528,330.268 179.878,329.181 177.824,330.449 175.65,331.657 174.744,334.677 174.321,336.187 173.898,340.174 173.596,342.892 171.482,348.388 169.247,353.945 168.039,354.73 167.626,355.026 164.053,354.488 164.009,354.5 163.932,354.488 L163.69,357.508 Q163.388,361.132 163.026,364.213 144.664,367.716 118.39,360.891 92.116,354.005 88.311,350.502 84.506,346 84.204,341.261 84.083,339.509 84.687,334.798 84.748,334.436 86.56,332.201 88.432,329.906 88.613,329 88.643,328.882 88.613,328.758 88.721,327.41 84.506,328.758 78.526,330.57 56.239,334.436 45.065,336.308 35.099,337.878 34.314,352.012 33.891,352.012 33.468,352.012 53.4,359.441 72.003,367.112 72.305,367.233 88.855,374.662 92.781,379.373 96.042,383.299 98.7,386.802 99.002,387.225 99.364,387.648 100.998,389.838 102.384,391.816 102.467,391.963 102.505,392.057 103.025,392.774 103.472,393.446 106.733,398.339 108.968,402.869 109.632,404.137 110.176,405.406 111.444,408.244 112.29,410.902 116.035,422.922 118.088,444.484 118.088,444.813 126.363,444.786 126.439,444.817 126.484,444.786 138.013,444.784 165.2,444.122 167.163,444.076 169.126,444.001 190.664,443.517 212.252,442.854 211.829,440.256 212.01,436.27 212.312,428.297 215.151,421.291 218.171,413.862 226.325,404.137 231.942,397.493 237.982,391.816 238.164,391.574 238.405,391.393 240.7,389.279 244.808,385.896 L252.962,379.615 257.069,376.474 Q246.98,362.345 240.64,353.522 240.641,353.506 240.58,353.462 232.15,341.711 230.493,339.57 L229.285,337.939 228.983,337.516 227.654,346 Q212.675,350.804 204.4,343.677 L203.192,337.878 M154.389,399.124 Q164.053,404.198 167.677,411.687 171.24,419.116 170.516,429.143 170.153,434.156 169.126,437.901 L126.786,437.478 126.544,441.344 Q126.182,442.37 125.94,428.358 125.699,414.345 117.062,399.184 114.404,394.473 111.203,390.185 L108.847,387.286 115.008,389.52 Q124.551,392.178 134.638,393.144 144.664,394.05 154.389,399.124 M167.677,411.687 Q164.053,404.198 154.389,399.124 144.664,394.05 134.638,393.144 124.551,392.178 115.008,389.52 L108.847,387.286 111.203,390.185 Q114.404,394.473 117.062,399.184 125.699,414.345 125.94,428.358 126.182,442.37 126.544,441.344 L126.786,437.478 169.126,437.901 Q170.153,434.156 170.516,429.143 171.24,419.116 167.677,411.687 M253.988,319.698 Q233.754,303.632 225.117,300.974 218.413,298.92 216.178,301.034 215.634,301.578 214.487,303.45 213.4,305.323 212.252,306.35 212.554,311.302 214.849,314.322 216.54,316.497 223.064,322.96 223.949,323.872 227.956,328.818 228.02,328.861 228.016,328.879 233.676,335.751 245.291,350.26 262.324,371.582 264.981,372.306 269.451,373.575 277.544,372.79 286.786,371.944 288.175,368.562 289.624,365.058 287.812,360.287 286.484,356.723 280.323,345.791 275.008,336.368 253.988,319.698Z" test="RedBike container" stroke-width="1.208"/>
      <path id="Layer1_0_1_STROKES" stroke="#0FF" stroke-width="1.208" stroke-linejoin="round" stroke-linecap="round" fill="none" d="M212.252,306.35 Q213.4,305.323 214.487,303.45 215.634,301.578 216.178,301.034 218.413,298.92 225.117,300.974 233.754,303.632 253.988,319.698 275.008,336.368 280.323,345.791 286.484,356.723 287.812,360.287 289.624,365.058 288.175,368.562 286.786,371.944 277.544,372.79 269.451,373.575 264.981,372.306 262.324,371.582 245.291,350.26 233.676,335.751 228.047,328.909 228.02,328.861 227.986,328.818 223.949,323.872 223.064,322.96 216.54,316.497 214.849,314.322 212.554,311.302 212.252,306.35Z" test="RedBike container"/>
      <path id="Layer1_0_2_STROKES" stroke="#FFF" stroke-width="1.208" stroke-linejoin="round" stroke-linecap="round" fill="none" d="M228.983,337.516 L227.654,346 Q212.675,350.804 204.4,343.677 L203.192,337.878 Q220.587,342.771 222.218,338.301 L223.245,331.536 M229.285,337.939 L228.983,337.516 224.151,331.657 M223.245,331.536 L223.486,330.812 224.151,331.657 M266.612,390.97 L253.747,380.642 M244.808,385.896 L257.069,395.56" test="RedBike container"/>
      <path id="Layer1_0_3_STROKES" stroke="#FF0265" stroke-width="1.208" stroke-linejoin="round" stroke-linecap="round" fill="none" d="M223.245,331.536 Q213.037,330.812 202.528,330.268 179.878,329.181 177.824,330.449 175.65,331.657 174.744,334.677 174.321,336.187 173.898,340.174 173.596,342.892 171.482,348.388 169.247,353.945 168.039,354.73 167.626,355.026 164.083,354.519 164.009,354.5 163.932,354.488 L163.69,357.508 Q163.388,361.132 163.026,364.213 144.664,367.716 118.39,360.891 92.116,354.005 88.311,350.502 84.506,346 84.204,341.261 84.083,339.509 84.687,334.798 84.748,334.436 86.56,332.201 88.432,329.906 88.613,329 88.643,328.882 88.643,328.788 88.721,327.41 84.506,328.758 78.526,330.57 56.239,334.436 45.065,336.308 35.099,337.878 34.314,352.012 33.891,352.012 33.468,352.012 53.4,359.441 72.003,367.112 72.305,367.233 88.855,374.662 92.781,379.373 96.042,383.299 98.7,386.802 99.002,387.225 99.364,387.648 100.998,389.838 102.384,391.846 102.467,391.963 102.535,392.087 103.025,392.774 103.472,393.446 106.733,398.339 108.968,402.869 109.632,404.137 110.176,405.406 111.444,408.244 112.29,410.902 116.035,422.922 118.088,444.484 118.088,444.813 126.363,444.817 126.439,444.817 126.514,444.817 138.013,444.784 165.2,444.122 167.163,444.076 169.126,444.031 190.664,443.517 212.252,442.854 211.829,440.256 212.01,436.27 212.312,428.297 215.151,421.291 218.171,413.862 226.325,404.137 231.942,397.493 237.982,391.816 238.164,391.574 238.405,391.393 240.7,389.279 244.808,385.896 L252.962,379.615 257.069,376.474 Q246.98,362.345 240.67,353.552 240.641,353.506 240.61,353.462 232.15,341.711 230.493,339.57 L229.285,337.939 M223.245,331.536 Q223.668,331.597 224.151,331.657 224.392,331.657 224.694,331.657 L228.983,337.516 M88.613,329 Q98.398,334.617 107.7,339.026 123.162,346.516 132.403,348.509 L164.113,353.884 M111.203,390.185 Q114.404,394.473 117.062,399.184 125.699,414.345 125.94,428.358 126.182,442.37 126.544,441.344 L126.786,437.478 169.126,437.901 Q170.153,434.156 170.516,429.143 171.24,419.116 167.677,411.687 164.053,404.198 154.389,399.124 144.664,394.05 134.638,393.144 124.551,392.178 115.008,389.52 L108.877,387.286 111.203,390.185Z" test="RedBike container"/>
      <use xlink:href="#Bike-Wheel" transform="matrix(1.208 0 0 1.208 288.65 429.25)"/>
      <use xlink:href="#Bike-Wheel" transform="matrix(1.208 0 0 1.208 59.65 433.85)"/>
    </g>
  </g>
</svg>