<?xml version="1.0" encoding="utf-8"?>
<svg id="EdithAnim11" image-rendering="inherit" baseProfile="basic" version="1.1" x="0px" y="0px" width="800" height="600" xmlns="http://www.w3.org/2000/svg" xmlns:xlink="http://www.w3.org/1999/xlink">
  <defs>
    <g id="Bike-Wheel" overflow="visible">
      <path id="Layer4_0_1_STROKES" stroke="#FFF" stroke-width="1" stroke-linejoin="round" stroke-linecap="round" fill="none" d="M2.05 -34.85Q-12.35 -34.85 -22.65 -26.45 -34 -17.2 -34.7 -1.55 -35.4 14.3 -26.6 24.6 -18.4 34.2 -5.6 34.85 7.15 35.5 19.2 29.8 31.25 24.1 34.05 7.25 36.85 -9.65 28.9 -21.15 19.4 -34.85 2.05 -34.85Z" test="Bike Wheel"/>
      <path id="Layer3_0_1_STROKES" stroke="#FFF" stroke-width="1" stroke-linejoin="round" stroke-linecap="round" fill="none" d="M.55 -26.55Q4.65 -26.85 7.1 -26.15 9.75 -25.4 12 -23.15 13.95 -21.25 8 -15.35 5.3 -12.6 2.25 -10.2 1.95 -10 1.7 -9.8M24.45 -8.9Q26.2 -5.15 26.45 -2.65 26.7 .1 25.4 3.05 24.35 5.5 16.7 2.1 13.2 .6 9.85 -1.4 9.5 -1.6 9.25 -1.75M18.45 20Q15.75 23.1 13.55 24.35 11.2 25.75 8 25.75 5.3 25.75 5.25 17.4 5.2 13.55 5.65 9.7 5.7 9.35 5.75 9M-25.15 -7.15Q-24.25 -11.2 -22.85 -13.3 -21.4 -15.6 -18.6 -17.1 -16.2 -18.45 -12.25 -11.05 -10.4 -7.65 -9 -4.1 -8.9 -3.7 -8.75 -3.4M-12.85 23.8Q-16.75 22.4 -18.7 20.8 -20.85 19.05 -22.05 16.1 -23.1 13.6 -15.3 10.55 -11.75 9.05 -8 8.05 -7.65 8 -7.3 7.95" test="Bike Wheel"/>
    </g>
  </defs>
  <g id="19_Motorbikesf29r1" overflow="visible">
    <g id="MotorBikeBluef0r1">
      <path fill="#000" stroke="none" d="M294.25,274.55 L293.6,273.7 286.85,278.9 297,286.9 298.55,289.3 Q302.975,286.543 305.95,284.65 L304.9,283.1 294.25,274.55 M268.15,239.5 Q266.8,243.2 252.4,239.15 L253.4,243.95 Q260.25,249.85 272.65,246.7 L273.75,238.85 269.75,234 Q269.35,233.95 269,233.9 L268.15,239.5 M294.45,224.1 Q277.7,210.8 270.55,208.6 265,206.9 263.15,208.65 262.7,209.1 261.75,210.65 260.85,212.2 259.9,213.05 260.15,217.15 262.05,219.65 263.45,221.45 268.85,226.8 269.583,227.555 272.9,231.65 272.953,231.685 272.95,231.7 277.635,237.389 287.25,249.4 301.35,267.05 303.55,267.65 307.25,268.7 313.95,268.05 321.6,267.35 322.75,264.55 323.95,261.65 322.45,257.7 321.35,254.75 316.25,245.7 311.85,237.9 294.45,224.1Z" test="BlueBikeContainer"/>
      <path id="Layer2_0_1_STROKES" stroke="#0FF" stroke-width="1" stroke-linejoin="round" stroke-linecap="round" fill="none" d="M259.9,213.05 Q260.85,212.2 261.75,210.65 262.7,209.1 263.15,208.65 265,206.9 270.55,208.6 277.7,210.8 294.45,224.1 311.85,237.9 316.25,245.7 321.35,254.75 322.45,257.7 323.95,261.65 322.75,264.55 321.6,267.35 313.95,268.05 307.25,268.7 303.55,267.65 301.35,267.05 287.25,249.4 277.635,237.389 272.975,231.725 272.953,231.685 272.925,231.65 269.583,227.555 268.85,226.8 263.45,221.45 262.05,219.65 260.15,217.15 259.9,213.05Z" test="BlueBikeContainer"/>
      <path id="Layer2_0_2_STROKES" stroke="#009EFF" stroke-width="1" stroke-linejoin="round" stroke-linecap="round" fill="none" d="M269,233.9 Q260.55,233.3 251.85,232.85 233.1,231.95 231.4,233 229.6,234 228.85,236.5 228.5,237.75 228.15,241.05 227.9,243.3 226.15,247.85 224.3,252.45 223.3,253.1 222.958,253.345 220.025,252.925 219.964,252.91 219.9,252.9 L219.7,255.4 Q219.45,258.4 219.15,260.95 203.95,263.85 182.2,258.2 160.45,252.5 157.3,249.6 154.15,246.7 153.9,241.95 153.8,240.5 154.3,236.6 154.35,236.3 155.85,234.45 157.4,232.55 157.55,231.8 157.575,231.703 157.575,231.625 157.639,230.484 154.15,231.6 149.2,233.1 130.75,236.3 121.5,237.85 113.25,239.15 112.6,250.85 112.25,250.85 111.9,250.85 128.4,257 143.8,263.35 144.05,263.45 157.75,269.6 161,273.5 163.7,276.75 165.9,279.65 166.15,280 166.45,280.35 168.35,282.9 169.85,285.15 172.55,289.2 174.4,292.95 174.95,294 175.4,295.05 176.45,297.4 177.15,299.6 180.25,309.55 181.95,327.4 181.95,328.05 220.95,327.1 240.4,326.65 259.9,326.05 259.55,323.9 259.7,320.6 259.95,314 262.3,308.2 264.8,302.05 271.55,294 276.2,288.5 281.2,283.8 281.35,283.6 281.55,283.45 283.45,281.7 286.85,278.9 L293.6,273.7 297,271.1 Q288.648,259.404 283.425,252.125 283.401,252.087 283.375,252.05 276.372,242.323 275,240.55 L274,239.2 M269.75,234 Q269.95,234 270.2,234 L273.75,238.85 M269.75,234 Q269.35,233.95 269,233.9 M157.55,231.8 Q165.65,236.45 173.35,240.1 186.15,246.3 193.8,247.95 L220.05,252.4 M174.4,280.15 L176.25,282.45 Q178.9,286 181.1,289.9 188.25,302.45 188.45,314.05 188.65,325.65 188.95,324.8 L189.15,321.6 224.2,321.95 Q225.05,318.85 225.35,314.7 225.95,306.4 223,300.25 220,294.05 212,289.85 203.95,285.65 195.65,284.9 187.3,284.1 179.4,281.9 L174.4,280.15Z" test="BlueBikeContainer"/>
      <path id="Layer2_0_3_STROKES" stroke="#FFF" stroke-width="1" stroke-linejoin="round" stroke-linecap="round" fill="none" d="M274,239.2 L273.75,238.85 272.65,246.7 Q260.25,249.85 253.4,243.95 L252.4,239.15 Q266.8,243.2 268.15,239.5 L269,233.9 269.2,233.3 269.75,234 273.75,238.85 M304.9,283.1 L294.25,274.55 M286.85,278.9 L297,286.9" test="BlueBikeContainer"/>
      <use xlink:href="#Bike-Wheel" transform="translate(323.15 314.8)"/>
      <use xlink:href="#Bike-Wheel" transform="translate(133.6 318.6)"/>
    </g>
    <g id="MotorBikePinkf0r1">
      <path fill="#000" stroke="none" d="M84.854,341.311 Q85.156,347.049 88.961,350.552 92.766,354.055 119.04,360.941 145.314,367.766 163.676,364.263 164.038,361.182 164.34,357.558 L164.582,354.538 Q164.659,354.55 164.703,354.538 L164.763,353.934 133.053,348.559 Q123.812,346.566 108.35,339.076 99.048,334.667 89.263,329.05 89.082,329.956 87.21,332.251 85.398,334.486 85.337,334.848 84.733,339.559 84.854,341.311 M254.397,380.692 L253.612,379.665 245.458,385.946 257.719,395.61 259.591,398.51 Q264.937,395.179 268.53,392.892 L267.262,391.02 254.397,380.692 M222.868,338.351 Q221.237,342.821 203.842,337.928 L205.05,343.727 Q213.325,350.854 228.304,347.049 L229.633,337.566 224.801,331.707 Q224.318,331.647 223.895,331.586 L222.868,338.351 M203.842,337.928 Q221.237,342.821 222.868,338.351 L223.895,331.586 Q213.687,330.862 203.178,330.318 180.528,329.231 178.474,330.499 176.3,331.707 175.394,334.727 174.971,336.237 174.548,340.224 174.246,342.942 172.132,348.438 169.897,353.995 168.689,354.78 168.276,355.076 164.703,354.538 164.659,354.55 164.582,354.538 L164.34,357.558 Q164.038,361.182 163.676,364.263 145.314,367.766 119.04,360.941 92.766,354.055 88.961,350.552 85.156,347.049 84.854,341.311 84.733,339.559 85.337,334.848 85.398,334.486 87.21,332.251 89.082,329.956 89.263,329.05 89.293,328.932 89.263,328.808 89.371,327.46 85.156,328.808 79.176,330.62 56.889,334.486 45.715,336.358 35.749,337.928 34.964,352.062 34.541,352.062 34.118,352.062 54.05,359.491 72.653,367.162 72.955,367.283 89.505,374.712 93.431,379.423 96.692,383.349 99.35,386.852 99.652,387.275 100.014,387.698 101.648,389.888 103.034,391.866 103.117,392.013 103.155,392.107 103.675,392.824 104.122,393.496 107.383,398.389 109.618,402.919 110.282,404.187 110.826,405.456 112.094,408.294 112.94,410.952 116.685,422.972 118.738,444.534 118.738,444.863 127.013,444.836 127.089,444.867 127.134,444.836 138.663,444.834 165.85,444.172 167.813,444.126 169.776,444.051 191.314,443.567 212.902,442.904 212.479,440.306 212.66,436.32 212.962,428.347 215.801,421.341 218.821,413.912 226.975,404.187 232.592,397.543 238.632,391.866 238.814,391.624 239.055,391.443 241.35,389.329 245.458,385.946 L253.612,379.665 257.719,376.524 Q247.63,362.395 241.29,353.572 241.291,353.556 241.23,353.512 232.8,341.761 231.143,339.62 L229.935,337.989 229.633,337.566 228.304,347.049 Q213.325,350.854 205.05,343.727 L203.842,337.928 M155.039,399.174 Q164.703,404.248 168.327,411.737 171.89,419.166 171.166,429.193 170.803,434.206 169.776,437.951 L127.436,437.528 127.194,441.394 Q126.832,442.42 126.59,428.408 126.349,414.395 117.712,399.234 115.054,394.523 111.853,390.235 L109.497,387.336 115.658,389.57 Q125.201,392.228 135.288,393.194 145.314,394.1 155.039,399.174 M168.327,411.737 Q164.703,404.248 155.039,399.174 145.314,394.1 135.288,393.194 125.201,392.228 115.658,389.57 L109.497,387.336 111.853,390.235 Q115.054,394.523 117.712,399.234 126.349,414.395 126.59,428.408 126.832,442.42 127.194,441.394 L127.436,437.528 169.776,437.951 Q170.803,434.206 171.166,429.193 171.89,419.166 168.327,411.737 M254.638,319.748 Q234.404,303.682 225.767,301.024 219.063,298.97 216.828,301.084 216.284,301.628 215.137,303.5 214.05,305.373 212.902,306.4 213.204,311.352 215.499,314.372 217.19,316.547 223.714,323.01 224.599,323.922 228.606,328.868 228.67,328.911 228.666,328.929 234.326,335.801 245.941,350.31 262.974,371.632 265.631,372.356 270.101,373.625 278.194,372.84 287.436,371.994 288.825,368.612 290.274,365.108 288.462,360.337 287.134,356.773 280.973,345.841 275.658,336.418 254.638,319.748Z" test="RedBike container" stroke-width="1.208"/>
      <path id="Layer1_0_1_STROKES" stroke="#0FF" stroke-width="1.208" stroke-linejoin="round" stroke-linecap="round" fill="none" d="M212.902,306.4 Q214.05,305.373 215.137,303.5 216.284,301.628 216.828,301.084 219.063,298.97 225.767,301.024 234.404,303.682 254.638,319.748 275.658,336.418 280.973,345.841 287.134,356.773 288.462,360.337 290.274,365.108 288.825,368.612 287.436,371.994 278.194,372.84 270.101,373.625 265.631,372.356 262.974,371.632 245.941,350.31 234.326,335.801 228.697,328.959 228.67,328.911 228.636,328.868 224.599,323.922 223.714,323.01 217.19,316.547 215.499,314.372 213.204,311.352 212.902,306.4Z" test="RedBike container"/>
      <path id="Layer1_0_2_STROKES" stroke="#FFF" stroke-width="1.208" stroke-linejoin="round" stroke-linecap="round" fill="none" d="M229.633,337.566 L228.304,347.049 Q213.325,350.854 205.05,343.727 L203.842,337.928 Q221.237,342.821 222.868,338.351 L223.895,331.586 M229.935,337.989 L229.633,337.566 224.801,331.707 M223.895,331.586 L224.136,330.862 224.801,331.707 M267.262,391.02 L254.397,380.692 M245.458,385.946 L257.719,395.61" test="RedBike container"/>
      <path id="Layer1_0_3_STROKES" stroke="#FF0265" stroke-width="1.208" stroke-linejoin="round" stroke-linecap="round" fill="none" d="M223.895,331.586 Q213.687,330.862 203.178,330.318 180.528,329.231 178.474,330.499 176.3,331.707 175.394,334.727 174.971,336.237 174.548,340.224 174.246,342.942 172.132,348.438 169.897,353.995 168.689,354.78 168.276,355.076 164.733,354.569 164.659,354.55 164.582,354.538 L164.34,357.558 Q164.038,361.182 163.676,364.263 145.314,367.766 119.04,360.941 92.766,354.055 88.961,350.552 85.156,347.049 84.854,341.311 84.733,339.559 85.337,334.848 85.398,334.486 87.21,332.251 89.082,329.956 89.263,329.05 89.293,328.932 89.293,328.838 89.371,327.46 85.156,328.808 79.176,330.62 56.889,334.486 45.715,336.358 35.749,337.928 34.964,352.062 34.541,352.062 34.118,352.062 54.05,359.491 72.653,367.162 72.955,367.283 89.505,374.712 93.431,379.423 96.692,383.349 99.35,386.852 99.652,387.275 100.014,387.698 101.648,389.888 103.034,391.896 103.117,392.013 103.185,392.137 103.675,392.824 104.122,393.496 107.383,398.389 109.618,402.919 110.282,404.187 110.826,405.456 112.094,408.294 112.94,410.952 116.685,422.972 118.738,444.534 118.738,444.863 127.013,444.867 127.089,444.867 127.164,444.867 138.663,444.834 165.85,444.172 167.813,444.126 169.776,444.081 191.314,443.567 212.902,442.904 212.479,440.306 212.66,436.32 212.962,428.347 215.801,421.341 218.821,413.912 226.975,404.187 232.592,397.543 238.632,391.866 238.814,391.624 239.055,391.443 241.35,389.329 245.458,385.946 L253.612,379.665 257.719,376.524 Q247.63,362.395 241.32,353.602 241.291,353.556 241.26,353.512 232.8,341.761 231.143,339.62 L229.935,337.989 M223.895,331.586 Q224.318,331.647 224.801,331.707 225.042,331.707 225.344,331.707 L229.633,337.566 M89.263,329.05 Q99.048,334.667 108.35,339.076 123.812,346.566 133.053,348.559 L164.763,353.934 M111.853,390.235 Q115.054,394.523 117.712,399.234 126.349,414.395 126.59,428.408 126.832,442.42 127.194,441.394 L127.436,437.528 169.776,437.951 Q170.803,434.206 171.166,429.193 171.89,419.166 168.327,411.737 164.703,404.248 155.039,399.174 145.314,394.1 135.288,393.194 125.201,392.228 115.658,389.57 L109.527,387.336 111.853,390.235Z" test="RedBike container"/>
      <use xlink:href="#Bike-Wheel" transform="matrix(1.208 0 0 1.208 289.3 429.3)"/>
      <use xlink:href="#Bike-Wheel" transform="matrix(1.208 0 0 1.208 60.3 433.9)"/>
    </g>
  </g>
</svg>