<?xml version="1.0" encoding="utf-8"?>
<svg id="EdithAnim11" image-rendering="inherit" baseProfile="basic" version="1.1" x="0px" y="0px" width="800" height="600" xmlns="http://www.w3.org/2000/svg" xmlns:xlink="http://www.w3.org/1999/xlink">
  <defs>
    <g id="Bike-Wheel" overflow="visible">
      <path id="Layer4_0_1_STROKES" stroke="#FFF" stroke-width="1" stroke-linejoin="round" stroke-linecap="round" fill="none" d="M2.05 -34.85Q-12.35 -34.85 -22.65 -26.45 -34 -17.2 -34.7 -1.55 -35.4 14.3 -26.6 24.6 -18.4 34.2 -5.6 34.85 7.15 35.5 19.2 29.8 31.25 24.1 34.05 7.25 36.85 -9.65 28.9 -21.15 19.4 -34.85 2.05 -34.85Z" test="Bike Wheel"/>
      <path id="Layer3_0_1_STROKES" stroke="#FFF" stroke-width="1" stroke-linejoin="round" stroke-linecap="round" fill="none" d="M.55 -26.55Q4.65 -26.85 7.1 -26.15 9.75 -25.4 12 -23.15 13.95 -21.25 8 -15.35 5.3 -12.6 2.25 -10.2 1.95 -10 1.7 -9.8M24.45 -8.9Q26.2 -5.15 26.45 -2.65 26.7 .1 25.4 3.05 24.35 5.5 16.7 2.1 13.2 .6 9.85 -1.4 9.5 -1.6 9.25 -1.75M18.45 20Q15.75 23.1 13.55 24.35 11.2 25.75 8 25.75 5.3 25.75 5.25 17.4 5.2 13.55 5.65 9.7 5.7 9.35 5.75 9M-25.15 -7.15Q-24.25 -11.2 -22.85 -13.3 -21.4 -15.6 -18.6 -17.1 -16.2 -18.45 -12.25 -11.05 -10.4 -7.65 -9 -4.1 -8.9 -3.7 -8.75 -3.4M-12.85 23.8Q-16.75 22.4 -18.7 20.8 -20.85 19.05 -22.05 16.1 -23.1 13.6 -15.3 10.55 -11.75 9.05 -8 8.05 -7.65 8 -7.3 7.95" test="Bike Wheel"/>
    </g>
  </defs>
  <g id="19_Motorbikesf3r1" overflow="visible">
    <g id="MotorBikeBluef0r1">
      <path fill="#000" stroke="none" d="M4.55,274.55 L3.9,273.7 -2.85,278.9 7.3,286.9 8.85,289.3 Q13.275,286.543 16.25,284.65 L15.2,283.1 4.55,274.55 M-21.55,239.5 Q-22.9,243.2 -37.3,239.15 L-36.3,243.95 Q-29.45,249.85 -17.05,246.7 L-15.95,238.85 -19.95,234 Q-20.35,233.95 -20.7,233.9 L-21.55,239.5 M4.75,224.1 Q-12,210.8 -19.15,208.6 -24.7,206.9 -26.55,208.65 -27,209.1 -27.95,210.65 -28.85,212.2 -29.8,213.05 -29.55,217.15 -27.65,219.65 -26.25,221.45 -20.85,226.8 -20.117,227.555 -16.8,231.65 -16.747,231.685 -16.75,231.7 -12.065,237.389 -2.45,249.4 11.65,267.05 13.85,267.65 17.55,268.7 24.25,268.05 31.9,267.35 33.05,264.55 34.25,261.65 32.75,257.7 31.65,254.75 26.55,245.7 22.15,237.9 4.75,224.1Z" test="BlueBikeContainer"/>
      <path id="Layer2_0_1_STROKES" stroke="#0FF" stroke-width="1" stroke-linejoin="round" stroke-linecap="round" fill="none" d="M-29.8,213.05 Q-28.85,212.2 -27.95,210.65 -27,209.1 -26.55,208.65 -24.7,206.9 -19.15,208.6 -12,210.8 4.75,224.1 22.15,237.9 26.55,245.7 31.65,254.75 32.75,257.7 34.25,261.65 33.05,264.55 31.9,267.35 24.25,268.05 17.55,268.7 13.85,267.65 11.65,267.05 -2.45,249.4 -12.065,237.389 -16.725,231.725 -16.747,231.685 -16.775,231.65 -20.117,227.555 -20.85,226.8 -26.25,221.45 -27.65,219.65 -29.55,217.15 -29.8,213.05Z" test="BlueBikeContainer"/>
      <path id="Layer2_0_2_STROKES" stroke="#009EFF" stroke-width="1" stroke-linejoin="round" stroke-linecap="round" fill="none" d="M-20.7,233.9 Q-29.15,233.3 -37.85,232.85 -56.6,231.95 -58.3,233 -60.1,234 -60.85,236.5 -61.2,237.75 -61.55,241.05 -61.8,243.3 -63.55,247.85 -65.4,252.45 -66.4,253.1 -66.742,253.345 -69.675,252.925 -69.736,252.91 -69.8,252.9 L-70,255.4 Q-70.25,258.4 -70.55,260.95 -85.75,263.85 -107.5,258.2 -129.25,252.5 -132.4,249.6 -135.55,246.7 -135.8,241.95 -135.9,240.5 -135.4,236.6 -135.35,236.3 -133.85,234.45 -132.3,232.55 -132.15,231.8 -132.125,231.703 -132.125,231.625 -132.061,230.484 -135.55,231.6 -140.5,233.1 -158.95,236.3 -168.2,237.85 -176.45,239.15 -177.1,250.85 -177.45,250.85 -177.8,250.85 -161.3,257 -145.9,263.35 -145.65,263.45 -131.95,269.6 -128.7,273.5 -126,276.75 -123.8,279.65 -123.55,280 -123.25,280.35 -121.35,282.9 -119.85,285.15 -117.15,289.2 -115.3,292.95 -114.75,294 -114.3,295.05 -113.25,297.4 -112.55,299.6 -109.45,309.55 -107.75,327.4 -107.75,328.05 -68.75,327.1 -49.3,326.65 -29.8,326.05 -30.15,323.9 -30,320.6 -29.75,314 -27.4,308.2 -24.9,302.05 -18.15,294 -13.5,288.5 -8.5,283.8 -8.35,283.6 -8.15,283.45 -6.25,281.7 -2.85,278.9 L3.9,273.7 7.3,271.1 Q-1.052,259.404 -6.275,252.125 -6.299,252.087 -6.325,252.05 -13.328,242.323 -14.7,240.55 L-15.7,239.2 M-19.95,234 Q-19.75,234 -19.5,234 L-15.95,238.85 M-19.95,234 Q-20.35,233.95 -20.7,233.9 M-132.15,231.8 Q-124.05,236.45 -116.35,240.1 -103.55,246.3 -95.9,247.95 L-69.65,252.4 M-115.3,280.15 L-113.45,282.45 Q-110.8,286 -108.6,289.9 -101.45,302.45 -101.25,314.05 -101.05,325.65 -100.75,324.8 L-100.55,321.6 -65.5,321.95 Q-64.65,318.85 -64.35,314.7 -63.75,306.4 -66.7,300.25 -69.7,294.05 -77.7,289.85 -85.75,285.65 -94.05,284.9 -102.4,284.1 -110.3,281.9 L-115.3,280.15Z" test="BlueBikeContainer"/>
      <path id="Layer2_0_3_STROKES" stroke="#FFF" stroke-width="1" stroke-linejoin="round" stroke-linecap="round" fill="none" d="M-15.7,239.2 L-15.95,238.85 -17.05,246.7 Q-29.45,249.85 -36.3,243.95 L-37.3,239.15 Q-22.9,243.2 -21.55,239.5 L-20.7,233.9 -20.5,233.3 -19.95,234 -15.95,238.85 M15.2,283.1 L4.55,274.55 M-2.85,278.9 L7.3,286.9" test="BlueBikeContainer"/>
      <use xlink:href="#Bike-Wheel" transform="translate(33.45 314.8)"/>
      <use xlink:href="#Bike-Wheel" transform="translate(-156.1 318.6)"/>
    </g>
    <g id="MotorBikePinkf0r1">
      <path fill="#000" stroke="none" d="M-261.146,341.261 Q-260.844,346 -257.039,350.502 -253.234,354.005 -226.96,360.891 -200.686,367.716 -182.324,364.213 -181.962,361.132 -181.66,357.508 L-181.418,354.488 Q-181.341,354.5 -181.297,354.488 L-181.237,353.884 -212.947,348.509 Q-222.188,346.516 -237.65,339.026 -246.952,334.617 -256.737,329 -256.918,329.906 -258.79,332.201 -260.602,334.436 -260.663,334.798 -261.267,339.509 -261.146,341.261 M-91.603,380.642 L-92.388,379.615 -100.542,385.896 -88.281,395.56 -86.409,398.46 Q-81.063,395.129 -77.47,392.842 L-78.738,390.97 -91.603,380.642 M-123.132,338.301 Q-124.763,342.771 -142.158,337.878 L-140.95,343.677 Q-132.675,350.804 -117.696,346 L-116.367,337.516 -121.199,331.657 Q-121.682,331.597 -122.105,331.536 L-123.132,338.301 M-142.158,337.878 Q-124.763,342.771 -123.132,338.301 L-122.105,331.536 Q-132.313,330.812 -142.822,330.268 -165.472,329.181 -167.526,330.449 -169.7,331.657 -170.606,334.677 -171.029,336.187 -171.452,340.174 -171.754,342.892 -173.868,348.388 -176.103,353.945 -177.311,354.73 -177.724,355.026 -181.297,354.488 -181.341,354.5 -181.418,354.488 L-181.66,357.508 Q-181.962,361.132 -182.324,364.213 -200.686,367.716 -226.96,360.891 -253.234,354.005 -257.039,350.502 -260.844,346 -261.146,341.261 -261.267,339.509 -260.663,334.798 -260.602,334.436 -258.79,332.201 -256.918,329.906 -256.737,329 -256.707,328.882 -256.737,328.758 -256.629,327.41 -260.844,328.758 -266.824,330.57 -289.111,334.436 -300.285,336.308 -310.251,337.878 -311.036,352.012 -311.459,352.012 -311.882,352.012 -291.95,359.441 -273.347,367.112 -273.045,367.233 -256.495,374.662 -252.569,379.373 -249.308,383.299 -246.65,386.802 -246.348,387.225 -245.986,387.648 -244.352,389.838 -242.966,391.816 -242.883,391.963 -242.845,392.057 -242.325,392.774 -241.878,393.446 -238.617,398.339 -236.382,402.869 -235.718,404.137 -235.174,405.406 -233.906,408.244 -233.06,410.902 -229.315,422.922 -227.262,444.484 -227.262,444.813 -218.987,444.786 -218.911,444.817 -218.866,444.786 -207.337,444.784 -180.15,444.122 -178.187,444.076 -176.224,444.001 -154.686,443.517 -133.098,442.854 -133.521,440.256 -133.34,436.27 -133.038,428.297 -130.199,421.291 -127.179,413.862 -119.025,404.137 -113.408,397.493 -107.368,391.816 -107.186,391.574 -106.945,391.393 -104.65,389.279 -100.542,385.896 L-92.388,379.615 -88.281,376.474 Q-98.37,362.345 -104.71,353.522 -104.709,353.506 -104.77,353.462 -113.2,341.711 -114.857,339.57 L-116.065,337.939 -116.367,337.516 -117.696,346 Q-132.675,350.804 -140.95,343.677 L-142.158,337.878 M-190.961,399.124 Q-181.297,404.198 -177.673,411.687 -174.11,419.116 -174.834,429.143 -175.197,434.156 -176.224,437.901 L-218.564,437.478 -218.806,441.344 Q-219.168,442.37 -219.41,428.358 -219.651,414.345 -228.288,399.184 -230.946,394.473 -234.147,390.185 L-236.503,387.286 -230.342,389.52 Q-220.799,392.178 -210.712,393.144 -200.686,394.05 -190.961,399.124 M-177.673,411.687 Q-181.297,404.198 -190.961,399.124 -200.686,394.05 -210.712,393.144 -220.799,392.178 -230.342,389.52 L-236.503,387.286 -234.147,390.185 Q-230.946,394.473 -228.288,399.184 -219.651,414.345 -219.41,428.358 -219.168,442.37 -218.806,441.344 L-218.564,437.478 -176.224,437.901 Q-175.197,434.156 -174.834,429.143 -174.11,419.116 -177.673,411.687 M-91.362,319.698 Q-111.596,303.632 -120.233,300.974 -126.937,298.92 -129.172,301.034 -129.716,301.578 -130.863,303.45 -131.95,305.323 -133.098,306.35 -132.796,311.302 -130.501,314.322 -128.81,316.497 -122.286,322.96 -121.401,323.872 -117.394,328.818 -117.33,328.861 -117.334,328.879 -111.674,335.751 -100.059,350.26 -83.026,371.582 -80.369,372.306 -75.899,373.575 -67.806,372.79 -58.564,371.944 -57.175,368.562 -55.726,365.058 -57.538,360.287 -58.866,356.723 -65.027,345.791 -70.342,336.368 -91.362,319.698Z" test="RedBike container" stroke-width="1.208"/>
      <path id="Layer1_0_1_STROKES" stroke="#0FF" stroke-width="1.208" stroke-linejoin="round" stroke-linecap="round" fill="none" d="M-133.098,306.35 Q-131.95,305.323 -130.863,303.45 -129.716,301.578 -129.172,301.034 -126.937,298.92 -120.233,300.974 -111.596,303.632 -91.362,319.698 -70.342,336.368 -65.027,345.791 -58.866,356.723 -57.538,360.287 -55.726,365.058 -57.175,368.562 -58.564,371.944 -67.806,372.79 -75.899,373.575 -80.369,372.306 -83.026,371.582 -100.059,350.26 -111.674,335.751 -117.303,328.909 -117.33,328.861 -117.364,328.818 -121.401,323.872 -122.286,322.96 -128.81,316.497 -130.501,314.322 -132.796,311.302 -133.098,306.35Z" test="RedBike container"/>
      <path id="Layer1_0_2_STROKES" stroke="#FFF" stroke-width="1.208" stroke-linejoin="round" stroke-linecap="round" fill="none" d="M-116.367,337.516 L-117.696,346 Q-132.675,350.804 -140.95,343.677 L-142.158,337.878 Q-124.763,342.771 -123.132,338.301 L-122.105,331.536 M-116.065,337.939 L-116.367,337.516 -121.199,331.657 M-122.105,331.536 L-121.864,330.812 -121.199,331.657 M-78.738,390.97 L-91.603,380.642 M-100.542,385.896 L-88.281,395.56" test="RedBike container"/>
      <path id="Layer1_0_3_STROKES" stroke="#FF0265" stroke-width="1.208" stroke-linejoin="round" stroke-linecap="round" fill="none" d="M-122.105,331.536 Q-132.313,330.812 -142.822,330.268 -165.472,329.181 -167.526,330.449 -169.7,331.657 -170.606,334.677 -171.029,336.187 -171.452,340.174 -171.754,342.892 -173.868,348.388 -176.103,353.945 -177.311,354.73 -177.724,355.026 -181.267,354.519 -181.341,354.5 -181.418,354.488 L-181.66,357.508 Q-181.962,361.132 -182.324,364.213 -200.686,367.716 -226.96,360.891 -253.234,354.005 -257.039,350.502 -260.844,346 -261.146,341.261 -261.267,339.509 -260.663,334.798 -260.602,334.436 -258.79,332.201 -256.918,329.906 -256.737,329 -256.707,328.882 -256.707,328.788 -256.629,327.41 -260.844,328.758 -266.824,330.57 -289.111,334.436 -300.285,336.308 -310.251,337.878 -311.036,352.012 -311.459,352.012 -311.882,352.012 -291.95,359.441 -273.347,367.112 -273.045,367.233 -256.495,374.662 -252.569,379.373 -249.308,383.299 -246.65,386.802 -246.348,387.225 -245.986,387.648 -244.352,389.838 -242.966,391.846 -242.883,391.963 -242.815,392.087 -242.325,392.774 -241.878,393.446 -238.617,398.339 -236.382,402.869 -235.718,404.137 -235.174,405.406 -233.906,408.244 -233.06,410.902 -229.315,422.922 -227.262,444.484 -227.262,444.813 -218.987,444.817 -218.911,444.817 -218.836,444.817 -207.337,444.784 -180.15,444.122 -178.187,444.076 -176.224,444.031 -154.686,443.517 -133.098,442.854 -133.521,440.256 -133.34,436.27 -133.038,428.297 -130.199,421.291 -127.179,413.862 -119.025,404.137 -113.408,397.493 -107.368,391.816 -107.186,391.574 -106.945,391.393 -104.65,389.279 -100.542,385.896 L-92.388,379.615 -88.281,376.474 Q-98.37,362.345 -104.68,353.552 -104.709,353.506 -104.74,353.462 -113.2,341.711 -114.857,339.57 L-116.065,337.939 M-122.105,331.536 Q-121.682,331.597 -121.199,331.657 -120.958,331.657 -120.656,331.657 L-116.367,337.516 M-256.737,329 Q-246.952,334.617 -237.65,339.026 -222.188,346.516 -212.947,348.509 L-181.237,353.884 M-234.147,390.185 Q-230.946,394.473 -228.288,399.184 -219.651,414.345 -219.41,428.358 -219.168,442.37 -218.806,441.344 L-218.564,437.478 -176.224,437.901 Q-175.197,434.156 -174.834,429.143 -174.11,419.116 -177.673,411.687 -181.297,404.198 -190.961,399.124 -200.686,394.05 -210.712,393.144 -220.799,392.178 -230.342,389.52 L-236.473,387.286 -234.147,390.185Z" test="RedBike container"/>
      <use xlink:href="#Bike-Wheel" transform="matrix(1.208 0 0 1.208 -56.65 429.25)"/>
      <use xlink:href="#Bike-Wheel" transform="matrix(1.208 0 0 1.208 -285.65 433.85)"/>
    </g>
  </g>
</svg>