<?xml version="1.0" encoding="utf-8"?>
<svg id="EdithAnim11" image-rendering="inherit" baseProfile="basic" version="1.1" x="0px" y="0px" width="800" height="600" xmlns="http://www.w3.org/2000/svg" xmlns:xlink="http://www.w3.org/1999/xlink">
  <defs>
    <g id="Bike-Wheel" overflow="visible">
      <path id="Layer4_0_1_STROKES" stroke="#FFF" stroke-width="1" stroke-linejoin="round" stroke-linecap="round" fill="none" d="M2.05 -34.85Q-12.35 -34.85 -22.65 -26.45 -34 -17.2 -34.7 -1.55 -35.4 14.3 -26.6 24.6 -18.4 34.2 -5.6 34.85 7.15 35.5 19.2 29.8 31.25 24.1 34.05 7.25 36.85 -9.65 28.9 -21.15 19.4 -34.85 2.05 -34.85Z" test="Bike Wheel"/>
      <path id="Layer3_0_1_STROKES" stroke="#FFF" stroke-width="1" stroke-linejoin="round" stroke-linecap="round" fill="none" d="M.55 -26.55Q4.65 -26.85 7.1 -26.15 9.75 -25.4 12 -23.15 13.95 -21.25 8 -15.35 5.3 -12.6 2.25 -10.2 1.95 -10 1.7 -9.8M24.45 -8.9Q26.2 -5.15 26.45 -2.65 26.7 .1 25.4 3.05 24.35 5.5 16.7 2.1 13.2 .6 9.85 -1.4 9.5 -1.6 9.25 -1.75M18.45 20Q15.75 23.1 13.55 24.35 11.2 25.75 8 25.75 5.3 25.75 5.25 17.4 5.2 13.55 5.65 9.7 5.7 9.35 5.75 9M-25.15 -7.15Q-24.25 -11.2 -22.85 -13.3 -21.4 -15.6 -18.6 -17.1 -16.2 -18.45 -12.25 -11.05 -10.4 -7.65 -9 -4.1 -8.9 -3.7 -8.75 -3.4M-12.85 23.8Q-16.75 22.4 -18.7 20.8 -20.85 19.05 -22.05 16.1 -23.1 13.6 -15.3 10.55 -11.75 9.05 -8 8.05 -7.65 8 -7.3 7.95" test="Bike Wheel"/>
    </g>
  </defs>
  <g id="19_Motorbikesf4r1" overflow="visible">
    <g id="MotorBikeBluef0r1">
      <path fill="#000" stroke="none" d="M26.3,274.55 L25.65,273.7 18.9,278.9 29.05,286.9 30.6,289.3 Q35.025,286.543 38,284.65 L36.95,283.1 26.3,274.55 M0.2,239.5 Q-1.15,243.2 -15.55,239.15 L-14.55,243.95 Q-7.7,249.85 4.7,246.7 L5.8,238.85 1.8,234 Q1.4,233.95 1.05,233.9 L0.2,239.5 M26.5,224.1 Q9.75,210.8 2.6,208.6 -2.95,206.9 -4.8,208.65 -5.25,209.1 -6.2,210.65 -7.1,212.2 -8.05,213.05 -7.8,217.15 -5.9,219.65 -4.5,221.45 .9,226.8 1.633,227.555 4.95,231.65 5.003,231.685 5,231.7 9.685,237.389 19.3,249.4 33.4,267.05 35.6,267.65 39.3,268.7 46,268.05 53.65,267.35 54.8,264.55 56,261.65 54.5,257.7 53.4,254.75 48.3,245.7 43.9,237.9 26.5,224.1Z" test="BlueBikeContainer"/>
      <path id="Layer2_0_1_STROKES" stroke="#0FF" stroke-width="1" stroke-linejoin="round" stroke-linecap="round" fill="none" d="M-8.05,213.05 Q-7.1,212.2 -6.2,210.65 -5.25,209.1 -4.8,208.65 -2.95,206.9 2.6,208.6 9.75,210.8 26.5,224.1 43.9,237.9 48.3,245.7 53.4,254.75 54.5,257.7 56,261.65 54.8,264.55 53.65,267.35 46,268.05 39.3,268.7 35.6,267.65 33.4,267.05 19.3,249.4 9.685,237.389 5.025,231.725 5.003,231.685 4.975,231.65 1.633,227.555 .9,226.8 -4.5,221.45 -5.9,219.65 -7.8,217.15 -8.05,213.05Z" test="BlueBikeContainer"/>
      <path id="Layer2_0_2_STROKES" stroke="#009EFF" stroke-width="1" stroke-linejoin="round" stroke-linecap="round" fill="none" d="M1.05,233.9 Q-7.4,233.3 -16.1,232.85 -34.85,231.95 -36.55,233 -38.35,234 -39.1,236.5 -39.45,237.75 -39.8,241.05 -40.05,243.3 -41.8,247.85 -43.65,252.45 -44.65,253.1 -44.992,253.345 -47.925,252.925 -47.986,252.91 -48.05,252.9 L-48.25,255.4 Q-48.5,258.4 -48.8,260.95 -64,263.85 -85.75,258.2 -107.5,252.5 -110.65,249.6 -113.8,246.7 -114.05,241.95 -114.15,240.5 -113.65,236.6 -113.6,236.3 -112.1,234.45 -110.55,232.55 -110.4,231.8 -110.375,231.703 -110.375,231.625 -110.311,230.484 -113.8,231.6 -118.75,233.1 -137.2,236.3 -146.45,237.85 -154.7,239.15 -155.35,250.85 -155.7,250.85 -156.05,250.85 -139.55,257 -124.15,263.35 -123.9,263.45 -110.2,269.6 -106.95,273.5 -104.25,276.75 -102.05,279.65 -101.8,280 -101.5,280.35 -99.6,282.9 -98.1,285.15 -95.4,289.2 -93.55,292.95 -93,294 -92.55,295.05 -91.5,297.4 -90.8,299.6 -87.7,309.55 -86,327.4 -86,328.05 -47,327.1 -27.55,326.65 -8.05,326.05 -8.4,323.9 -8.25,320.6 -8,314 -5.65,308.2 -3.15,302.05 3.6,294 8.25,288.5 13.25,283.8 13.4,283.6 13.6,283.45 15.5,281.7 18.9,278.9 L25.65,273.7 29.05,271.1 Q20.698,259.404 15.475,252.125 15.451,252.087 15.425,252.05 8.422,242.323 7.05,240.55 L6.05,239.2 M1.8,234 Q2,234 2.25,234 L5.8,238.85 M1.8,234 Q1.4,233.95 1.05,233.9 M-110.4,231.8 Q-102.3,236.45 -94.6,240.1 -81.8,246.3 -74.15,247.95 L-47.9,252.4 M-93.55,280.15 L-91.7,282.45 Q-89.05,286 -86.85,289.9 -79.7,302.45 -79.5,314.05 -79.3,325.65 -79,324.8 L-78.8,321.6 -43.75,321.95 Q-42.9,318.85 -42.6,314.7 -42,306.4 -44.95,300.25 -47.95,294.05 -55.95,289.85 -64,285.65 -72.3,284.9 -80.65,284.1 -88.55,281.9 L-93.55,280.15Z" test="BlueBikeContainer"/>
      <path id="Layer2_0_3_STROKES" stroke="#FFF" stroke-width="1" stroke-linejoin="round" stroke-linecap="round" fill="none" d="M6.05,239.2 L5.8,238.85 4.7,246.7 Q-7.7,249.85 -14.55,243.95 L-15.55,239.15 Q-1.15,243.2 .2,239.5 L1.05,233.9 1.25,233.3 1.8,234 5.8,238.85 M36.95,283.1 L26.3,274.55 M18.9,278.9 L29.05,286.9" test="BlueBikeContainer"/>
      <use xlink:href="#Bike-Wheel" transform="translate(55.2 314.8)"/>
      <use xlink:href="#Bike-Wheel" transform="translate(-134.35 318.6)"/>
    </g>
    <g id="MotorBikePinkf0r1">
      <path fill="#000" stroke="none" d="M-235.196,341.261 Q-234.894,346 -231.089,350.502 -227.284,354.005 -201.01,360.891 -174.736,367.716 -156.374,364.213 -156.012,361.132 -155.71,357.508 L-155.468,354.488 Q-155.391,354.5 -155.347,354.488 L-155.287,353.884 -186.997,348.509 Q-196.238,346.516 -211.7,339.026 -221.002,334.617 -230.787,329 -230.968,329.906 -232.84,332.201 -234.652,334.436 -234.713,334.798 -235.317,339.509 -235.196,341.261 M-65.653,380.642 L-66.438,379.615 -74.592,385.896 -62.331,395.56 -60.459,398.46 Q-55.113,395.129 -51.52,392.842 L-52.788,390.97 -65.653,380.642 M-97.182,338.301 Q-98.813,342.771 -116.208,337.878 L-115,343.677 Q-106.725,350.804 -91.746,346 L-90.417,337.516 -95.249,331.657 Q-95.732,331.597 -96.155,331.536 L-97.182,338.301 M-116.208,337.878 Q-98.813,342.771 -97.182,338.301 L-96.155,331.536 Q-106.363,330.812 -116.872,330.268 -139.522,329.181 -141.576,330.449 -143.75,331.657 -144.656,334.677 -145.079,336.187 -145.502,340.174 -145.804,342.892 -147.918,348.388 -150.153,353.945 -151.361,354.73 -151.774,355.026 -155.347,354.488 -155.391,354.5 -155.468,354.488 L-155.71,357.508 Q-156.012,361.132 -156.374,364.213 -174.736,367.716 -201.01,360.891 -227.284,354.005 -231.089,350.502 -234.894,346 -235.196,341.261 -235.317,339.509 -234.713,334.798 -234.652,334.436 -232.84,332.201 -230.968,329.906 -230.787,329 -230.757,328.882 -230.787,328.758 -230.679,327.41 -234.894,328.758 -240.874,330.57 -263.161,334.436 -274.335,336.308 -284.301,337.878 -285.086,352.012 -285.509,352.012 -285.932,352.012 -266,359.441 -247.397,367.112 -247.095,367.233 -230.545,374.662 -226.619,379.373 -223.358,383.299 -220.7,386.802 -220.398,387.225 -220.036,387.648 -218.402,389.838 -217.016,391.816 -216.933,391.963 -216.895,392.057 -216.375,392.774 -215.928,393.446 -212.667,398.339 -210.432,402.869 -209.768,404.137 -209.224,405.406 -207.956,408.244 -207.11,410.902 -203.365,422.922 -201.312,444.484 -201.312,444.813 -193.037,444.786 -192.961,444.817 -192.916,444.786 -181.387,444.784 -154.2,444.122 -152.237,444.076 -150.274,444.001 -128.736,443.517 -107.148,442.854 -107.571,440.256 -107.39,436.27 -107.088,428.297 -104.249,421.291 -101.229,413.862 -93.075,404.137 -87.458,397.493 -81.418,391.816 -81.236,391.574 -80.995,391.393 -78.7,389.279 -74.592,385.896 L-66.438,379.615 -62.331,376.474 Q-72.42,362.345 -78.76,353.522 -78.759,353.506 -78.82,353.462 -87.25,341.711 -88.907,339.57 L-90.115,337.939 -90.417,337.516 -91.746,346 Q-106.725,350.804 -115,343.677 L-116.208,337.878 M-165.011,399.124 Q-155.347,404.198 -151.723,411.687 -148.16,419.116 -148.884,429.143 -149.247,434.156 -150.274,437.901 L-192.614,437.478 -192.856,441.344 Q-193.218,442.37 -193.46,428.358 -193.701,414.345 -202.338,399.184 -204.996,394.473 -208.197,390.185 L-210.553,387.286 -204.392,389.52 Q-194.849,392.178 -184.762,393.144 -174.736,394.05 -165.011,399.124 M-151.723,411.687 Q-155.347,404.198 -165.011,399.124 -174.736,394.05 -184.762,393.144 -194.849,392.178 -204.392,389.52 L-210.553,387.286 -208.197,390.185 Q-204.996,394.473 -202.338,399.184 -193.701,414.345 -193.46,428.358 -193.218,442.37 -192.856,441.344 L-192.614,437.478 -150.274,437.901 Q-149.247,434.156 -148.884,429.143 -148.16,419.116 -151.723,411.687 M-65.412,319.698 Q-85.646,303.632 -94.283,300.974 -100.987,298.92 -103.222,301.034 -103.766,301.578 -104.913,303.45 -106,305.323 -107.148,306.35 -106.846,311.302 -104.551,314.322 -102.86,316.497 -96.336,322.96 -95.451,323.872 -91.444,328.818 -91.38,328.861 -91.384,328.879 -85.724,335.751 -74.109,350.26 -57.076,371.582 -54.419,372.306 -49.949,373.575 -41.856,372.79 -32.614,371.944 -31.225,368.562 -29.776,365.058 -31.588,360.287 -32.916,356.723 -39.077,345.791 -44.392,336.368 -65.412,319.698Z" test="RedBike container" stroke-width="1.208"/>
      <path id="Layer1_0_1_STROKES" stroke="#0FF" stroke-width="1.208" stroke-linejoin="round" stroke-linecap="round" fill="none" d="M-107.148,306.35 Q-106,305.323 -104.913,303.45 -103.766,301.578 -103.222,301.034 -100.987,298.92 -94.283,300.974 -85.646,303.632 -65.412,319.698 -44.392,336.368 -39.077,345.791 -32.916,356.723 -31.588,360.287 -29.776,365.058 -31.225,368.562 -32.614,371.944 -41.856,372.79 -49.949,373.575 -54.419,372.306 -57.076,371.582 -74.109,350.26 -85.724,335.751 -91.353,328.909 -91.38,328.861 -91.414,328.818 -95.451,323.872 -96.336,322.96 -102.86,316.497 -104.551,314.322 -106.846,311.302 -107.148,306.35Z" test="RedBike container"/>
      <path id="Layer1_0_2_STROKES" stroke="#FFF" stroke-width="1.208" stroke-linejoin="round" stroke-linecap="round" fill="none" d="M-90.417,337.516 L-91.746,346 Q-106.725,350.804 -115,343.677 L-116.208,337.878 Q-98.813,342.771 -97.182,338.301 L-96.155,331.536 M-90.115,337.939 L-90.417,337.516 -95.249,331.657 M-96.155,331.536 L-95.914,330.812 -95.249,331.657 M-52.788,390.97 L-65.653,380.642 M-74.592,385.896 L-62.331,395.56" test="RedBike container"/>
      <path id="Layer1_0_3_STROKES" stroke="#FF0265" stroke-width="1.208" stroke-linejoin="round" stroke-linecap="round" fill="none" d="M-96.155,331.536 Q-106.363,330.812 -116.872,330.268 -139.522,329.181 -141.576,330.449 -143.75,331.657 -144.656,334.677 -145.079,336.187 -145.502,340.174 -145.804,342.892 -147.918,348.388 -150.153,353.945 -151.361,354.73 -151.774,355.026 -155.317,354.519 -155.391,354.5 -155.468,354.488 L-155.71,357.508 Q-156.012,361.132 -156.374,364.213 -174.736,367.716 -201.01,360.891 -227.284,354.005 -231.089,350.502 -234.894,346 -235.196,341.261 -235.317,339.509 -234.713,334.798 -234.652,334.436 -232.84,332.201 -230.968,329.906 -230.787,329 -230.757,328.882 -230.757,328.788 -230.679,327.41 -234.894,328.758 -240.874,330.57 -263.161,334.436 -274.335,336.308 -284.301,337.878 -285.086,352.012 -285.509,352.012 -285.932,352.012 -266,359.441 -247.397,367.112 -247.095,367.233 -230.545,374.662 -226.619,379.373 -223.358,383.299 -220.7,386.802 -220.398,387.225 -220.036,387.648 -218.402,389.838 -217.016,391.846 -216.933,391.963 -216.865,392.087 -216.375,392.774 -215.928,393.446 -212.667,398.339 -210.432,402.869 -209.768,404.137 -209.224,405.406 -207.956,408.244 -207.11,410.902 -203.365,422.922 -201.312,444.484 -201.312,444.813 -193.037,444.817 -192.961,444.817 -192.886,444.817 -181.387,444.784 -154.2,444.122 -152.237,444.076 -150.274,444.031 -128.736,443.517 -107.148,442.854 -107.571,440.256 -107.39,436.27 -107.088,428.297 -104.249,421.291 -101.229,413.862 -93.075,404.137 -87.458,397.493 -81.418,391.816 -81.236,391.574 -80.995,391.393 -78.7,389.279 -74.592,385.896 L-66.438,379.615 -62.331,376.474 Q-72.42,362.345 -78.73,353.552 -78.759,353.506 -78.79,353.462 -87.25,341.711 -88.907,339.57 L-90.115,337.939 M-96.155,331.536 Q-95.732,331.597 -95.249,331.657 -95.008,331.657 -94.706,331.657 L-90.417,337.516 M-230.787,329 Q-221.002,334.617 -211.7,339.026 -196.238,346.516 -186.997,348.509 L-155.287,353.884 M-208.197,390.185 Q-204.996,394.473 -202.338,399.184 -193.701,414.345 -193.46,428.358 -193.218,442.37 -192.856,441.344 L-192.614,437.478 -150.274,437.901 Q-149.247,434.156 -148.884,429.143 -148.16,419.116 -151.723,411.687 -155.347,404.198 -165.011,399.124 -174.736,394.05 -184.762,393.144 -194.849,392.178 -204.392,389.52 L-210.523,387.286 -208.197,390.185Z" test="RedBike container"/>
      <use xlink:href="#Bike-Wheel" transform="matrix(1.208 0 0 1.208 -30.7 429.25)"/>
      <use xlink:href="#Bike-Wheel" transform="matrix(1.208 0 0 1.208 -259.7 433.85)"/>
    </g>
  </g>
</svg>