<?xml version="1.0" encoding="utf-8"?>
<svg id="EdithAnim11" image-rendering="inherit" baseProfile="basic" version="1.1" x="0px" y="0px" width="800" height="600" xmlns="http://www.w3.org/2000/svg" xmlns:xlink="http://www.w3.org/1999/xlink">
  <defs>
    <g id="Bike-Wheel" overflow="visible">
      <path id="Layer4_0_1_STROKES" stroke="#FFF" stroke-width="1" stroke-linejoin="round" stroke-linecap="round" fill="none" d="M2.05 -34.85Q-12.35 -34.85 -22.65 -26.45 -34 -17.2 -34.7 -1.55 -35.4 14.3 -26.6 24.6 -18.4 34.2 -5.6 34.85 7.15 35.5 19.2 29.8 31.25 24.1 34.05 7.25 36.85 -9.65 28.9 -21.15 19.4 -34.85 2.05 -34.85Z" test="Bike Wheel"/>
      <path id="Layer3_0_1_STROKES" stroke="#FFF" stroke-width="1" stroke-linejoin="round" stroke-linecap="round" fill="none" d="M.55 -26.55Q4.65 -26.85 7.1 -26.15 9.75 -25.4 12 -23.15 13.95 -21.25 8 -15.35 5.3 -12.6 2.25 -10.2 1.95 -10 1.7 -9.8M24.45 -8.9Q26.2 -5.15 26.45 -2.65 26.7 .1 25.4 3.05 24.35 5.5 16.7 2.1 13.2 .6 9.85 -1.4 9.5 -1.6 9.25 -1.75M18.45 20Q15.75 23.1 13.55 24.35 11.2 25.75 8 25.75 5.3 25.75 5.25 17.4 5.2 13.55 5.65 9.7 5.7 9.35 5.75 9M-25.15 -7.15Q-24.25 -11.2 -22.85 -13.3 -21.4 -15.6 -18.6 -17.1 -16.2 -18.45 -12.25 -11.05 -10.4 -7.65 -9 -4.1 -8.9 -3.7 -8.75 -3.4M-12.85 23.8Q-16.75 22.4 -18.7 20.8 -20.85 19.05 -22.05 16.1 -23.1 13.6 -15.3 10.55 -11.75 9.05 -8 8.05 -7.65 8 -7.3 7.95" test="Bike Wheel"/>
    </g>
  </defs>
  <g id="19_Motorbikesf5r1" overflow="visible">
    <g id="MotorBikeBluef0r1">
      <path fill="#000" stroke="none" d="M47.15,274.55 L46.5,273.7 39.75,278.9 49.9,286.9 51.45,289.3 Q55.875,286.543 58.85,284.65 L57.8,283.1 47.15,274.55 M21.05,239.5 Q19.7,243.2 5.3,239.15 L6.3,243.95 Q13.15,249.85 25.55,246.7 L26.65,238.85 22.65,234 Q22.25,233.95 21.9,233.9 L21.05,239.5 M47.35,224.1 Q30.6,210.8 23.45,208.6 17.9,206.9 16.05,208.65 15.6,209.1 14.65,210.65 13.75,212.2 12.8,213.05 13.05,217.15 14.95,219.65 16.35,221.45 21.75,226.8 22.483,227.555 25.8,231.65 25.853,231.685 25.85,231.7 30.535,237.389 40.15,249.4 54.25,267.05 56.45,267.65 60.15,268.7 66.85,268.05 74.5,267.35 75.65,264.55 76.85,261.65 75.35,257.7 74.25,254.75 69.15,245.7 64.75,237.9 47.35,224.1Z" test="BlueBikeContainer"/>
      <path id="Layer2_0_1_STROKES" stroke="#0FF" stroke-width="1" stroke-linejoin="round" stroke-linecap="round" fill="none" d="M12.8,213.05 Q13.75,212.2 14.65,210.65 15.6,209.1 16.05,208.65 17.9,206.9 23.45,208.6 30.6,210.8 47.35,224.1 64.75,237.9 69.15,245.7 74.25,254.75 75.35,257.7 76.85,261.65 75.65,264.55 74.5,267.35 66.85,268.05 60.15,268.7 56.45,267.65 54.25,267.05 40.15,249.4 30.535,237.389 25.875,231.725 25.853,231.685 25.825,231.65 22.483,227.555 21.75,226.8 16.35,221.45 14.95,219.65 13.05,217.15 12.8,213.05Z" test="BlueBikeContainer"/>
      <path id="Layer2_0_2_STROKES" stroke="#009EFF" stroke-width="1" stroke-linejoin="round" stroke-linecap="round" fill="none" d="M21.9,233.9 Q13.45,233.3 4.75,232.85 -14,231.95 -15.7,233 -17.5,234 -18.25,236.5 -18.6,237.75 -18.95,241.05 -19.2,243.3 -20.95,247.85 -22.8,252.45 -23.8,253.1 -24.142,253.345 -27.075,252.925 -27.136,252.91 -27.2,252.9 L-27.4,255.4 Q-27.65,258.4 -27.95,260.95 -43.15,263.85 -64.9,258.2 -86.65,252.5 -89.8,249.6 -92.95,246.7 -93.2,241.95 -93.3,240.5 -92.8,236.6 -92.75,236.3 -91.25,234.45 -89.7,232.55 -89.55,231.8 -89.525,231.703 -89.525,231.625 -89.461,230.484 -92.95,231.6 -97.9,233.1 -116.35,236.3 -125.6,237.85 -133.85,239.15 -134.5,250.85 -134.85,250.85 -135.2,250.85 -118.7,257 -103.3,263.35 -103.05,263.45 -89.35,269.6 -86.1,273.5 -83.4,276.75 -81.2,279.65 -80.95,280 -80.65,280.35 -78.75,282.9 -77.25,285.15 -74.55,289.2 -72.7,292.95 -72.15,294 -71.7,295.05 -70.65,297.4 -69.95,299.6 -66.85,309.55 -65.15,327.4 -65.15,328.05 -26.15,327.1 -6.7,326.65 12.8,326.05 12.45,323.9 12.6,320.6 12.85,314 15.2,308.2 17.7,302.05 24.45,294 29.1,288.5 34.1,283.8 34.25,283.6 34.45,283.45 36.35,281.7 39.75,278.9 L46.5,273.7 49.9,271.1 Q41.548,259.404 36.325,252.125 36.301,252.087 36.275,252.05 29.272,242.323 27.9,240.55 L26.9,239.2 M22.65,234 Q22.85,234 23.1,234 L26.65,238.85 M22.65,234 Q22.25,233.95 21.9,233.9 M-89.55,231.8 Q-81.45,236.45 -73.75,240.1 -60.95,246.3 -53.3,247.95 L-27.05,252.4 M-72.7,280.15 L-70.85,282.45 Q-68.2,286 -66,289.9 -58.85,302.45 -58.65,314.05 -58.45,325.65 -58.15,324.8 L-57.95,321.6 -22.9,321.95 Q-22.05,318.85 -21.75,314.7 -21.15,306.4 -24.1,300.25 -27.1,294.05 -35.1,289.85 -43.15,285.65 -51.45,284.9 -59.8,284.1 -67.7,281.9 L-72.7,280.15Z" test="BlueBikeContainer"/>
      <path id="Layer2_0_3_STROKES" stroke="#FFF" stroke-width="1" stroke-linejoin="round" stroke-linecap="round" fill="none" d="M26.9,239.2 L26.65,238.85 25.55,246.7 Q13.15,249.85 6.3,243.95 L5.3,239.15 Q19.7,243.2 21.05,239.5 L21.9,233.9 22.1,233.3 22.65,234 26.65,238.85 M57.8,283.1 L47.15,274.55 M39.75,278.9 L49.9,286.9" test="BlueBikeContainer"/>
      <use xlink:href="#Bike-Wheel" transform="translate(76.05 314.8)"/>
      <use xlink:href="#Bike-Wheel" transform="translate(-113.5 318.6)"/>
    </g>
    <g id="MotorBikePinkf0r1">
      <path fill="#000" stroke="none" d="M-210.196,341.261 Q-209.894,346 -206.089,350.502 -202.284,354.005 -176.01,360.891 -149.736,367.716 -131.374,364.213 -131.012,361.132 -130.71,357.508 L-130.468,354.488 Q-130.391,354.5 -130.347,354.488 L-130.287,353.884 -161.997,348.509 Q-171.238,346.516 -186.7,339.026 -196.002,334.617 -205.787,329 -205.968,329.906 -207.84,332.201 -209.652,334.436 -209.713,334.798 -210.317,339.509 -210.196,341.261 M-40.653,380.642 L-41.438,379.615 -49.592,385.896 -37.331,395.56 -35.459,398.46 Q-30.113,395.129 -26.52,392.842 L-27.788,390.97 -40.653,380.642 M-72.182,338.301 Q-73.813,342.771 -91.208,337.878 L-90,343.677 Q-81.725,350.804 -66.746,346 L-65.417,337.516 -70.249,331.657 Q-70.732,331.597 -71.155,331.536 L-72.182,338.301 M-91.208,337.878 Q-73.813,342.771 -72.182,338.301 L-71.155,331.536 Q-81.363,330.812 -91.872,330.268 -114.522,329.181 -116.576,330.449 -118.75,331.657 -119.656,334.677 -120.079,336.187 -120.502,340.174 -120.804,342.892 -122.918,348.388 -125.153,353.945 -126.361,354.73 -126.774,355.026 -130.347,354.488 -130.391,354.5 -130.468,354.488 L-130.71,357.508 Q-131.012,361.132 -131.374,364.213 -149.736,367.716 -176.01,360.891 -202.284,354.005 -206.089,350.502 -209.894,346 -210.196,341.261 -210.317,339.509 -209.713,334.798 -209.652,334.436 -207.84,332.201 -205.968,329.906 -205.787,329 -205.757,328.882 -205.787,328.758 -205.679,327.41 -209.894,328.758 -215.874,330.57 -238.161,334.436 -249.335,336.308 -259.301,337.878 -260.086,352.012 -260.509,352.012 -260.932,352.012 -241,359.441 -222.397,367.112 -222.095,367.233 -205.545,374.662 -201.619,379.373 -198.358,383.299 -195.7,386.802 -195.398,387.225 -195.036,387.648 -193.402,389.838 -192.016,391.816 -191.933,391.963 -191.895,392.057 -191.375,392.774 -190.928,393.446 -187.667,398.339 -185.432,402.869 -184.768,404.137 -184.224,405.406 -182.956,408.244 -182.11,410.902 -178.365,422.922 -176.312,444.484 -176.312,444.813 -168.037,444.786 -167.961,444.817 -167.916,444.786 -156.387,444.784 -129.2,444.122 -127.237,444.076 -125.274,444.001 -103.736,443.517 -82.148,442.854 -82.571,440.256 -82.39,436.27 -82.088,428.297 -79.249,421.291 -76.229,413.862 -68.075,404.137 -62.458,397.493 -56.418,391.816 -56.236,391.574 -55.995,391.393 -53.7,389.279 -49.592,385.896 L-41.438,379.615 -37.331,376.474 Q-47.42,362.345 -53.76,353.522 -53.759,353.506 -53.82,353.462 -62.25,341.711 -63.907,339.57 L-65.115,337.939 -65.417,337.516 -66.746,346 Q-81.725,350.804 -90,343.677 L-91.208,337.878 M-140.011,399.124 Q-130.347,404.198 -126.723,411.687 -123.16,419.116 -123.884,429.143 -124.247,434.156 -125.274,437.901 L-167.614,437.478 -167.856,441.344 Q-168.218,442.37 -168.46,428.358 -168.701,414.345 -177.338,399.184 -179.996,394.473 -183.197,390.185 L-185.553,387.286 -179.392,389.52 Q-169.849,392.178 -159.762,393.144 -149.736,394.05 -140.011,399.124 M-126.723,411.687 Q-130.347,404.198 -140.011,399.124 -149.736,394.05 -159.762,393.144 -169.849,392.178 -179.392,389.52 L-185.553,387.286 -183.197,390.185 Q-179.996,394.473 -177.338,399.184 -168.701,414.345 -168.46,428.358 -168.218,442.37 -167.856,441.344 L-167.614,437.478 -125.274,437.901 Q-124.247,434.156 -123.884,429.143 -123.16,419.116 -126.723,411.687 M-40.412,319.698 Q-60.646,303.632 -69.283,300.974 -75.987,298.92 -78.222,301.034 -78.766,301.578 -79.913,303.45 -81,305.323 -82.148,306.35 -81.846,311.302 -79.551,314.322 -77.86,316.497 -71.336,322.96 -70.451,323.872 -66.444,328.818 -66.38,328.861 -66.384,328.879 -60.724,335.751 -49.109,350.26 -32.076,371.582 -29.419,372.306 -24.949,373.575 -16.856,372.79 -7.614,371.944 -6.225,368.562 -4.776,365.058 -6.588,360.287 -7.916,356.723 -14.077,345.791 -19.392,336.368 -40.412,319.698Z" test="RedBike container" stroke-width="1.208"/>
      <path id="Layer1_0_1_STROKES" stroke="#0FF" stroke-width="1.208" stroke-linejoin="round" stroke-linecap="round" fill="none" d="M-82.148,306.35 Q-81,305.323 -79.913,303.45 -78.766,301.578 -78.222,301.034 -75.987,298.92 -69.283,300.974 -60.646,303.632 -40.412,319.698 -19.392,336.368 -14.077,345.791 -7.916,356.723 -6.588,360.287 -4.776,365.058 -6.225,368.562 -7.614,371.944 -16.856,372.79 -24.949,373.575 -29.419,372.306 -32.076,371.582 -49.109,350.26 -60.724,335.751 -66.353,328.909 -66.38,328.861 -66.414,328.818 -70.451,323.872 -71.336,322.96 -77.86,316.497 -79.551,314.322 -81.846,311.302 -82.148,306.35Z" test="RedBike container"/>
      <path id="Layer1_0_2_STROKES" stroke="#FFF" stroke-width="1.208" stroke-linejoin="round" stroke-linecap="round" fill="none" d="M-65.417,337.516 L-66.746,346 Q-81.725,350.804 -90,343.677 L-91.208,337.878 Q-73.813,342.771 -72.182,338.301 L-71.155,331.536 M-65.115,337.939 L-65.417,337.516 -70.249,331.657 M-71.155,331.536 L-70.914,330.812 -70.249,331.657 M-27.788,390.97 L-40.653,380.642 M-49.592,385.896 L-37.331,395.56" test="RedBike container"/>
      <path id="Layer1_0_3_STROKES" stroke="#FF0265" stroke-width="1.208" stroke-linejoin="round" stroke-linecap="round" fill="none" d="M-71.155,331.536 Q-81.363,330.812 -91.872,330.268 -114.522,329.181 -116.576,330.449 -118.75,331.657 -119.656,334.677 -120.079,336.187 -120.502,340.174 -120.804,342.892 -122.918,348.388 -125.153,353.945 -126.361,354.73 -126.774,355.026 -130.317,354.519 -130.391,354.5 -130.468,354.488 L-130.71,357.508 Q-131.012,361.132 -131.374,364.213 -149.736,367.716 -176.01,360.891 -202.284,354.005 -206.089,350.502 -209.894,346 -210.196,341.261 -210.317,339.509 -209.713,334.798 -209.652,334.436 -207.84,332.201 -205.968,329.906 -205.787,329 -205.757,328.882 -205.757,328.788 -205.679,327.41 -209.894,328.758 -215.874,330.57 -238.161,334.436 -249.335,336.308 -259.301,337.878 -260.086,352.012 -260.509,352.012 -260.932,352.012 -241,359.441 -222.397,367.112 -222.095,367.233 -205.545,374.662 -201.619,379.373 -198.358,383.299 -195.7,386.802 -195.398,387.225 -195.036,387.648 -193.402,389.838 -192.016,391.846 -191.933,391.963 -191.865,392.087 -191.375,392.774 -190.928,393.446 -187.667,398.339 -185.432,402.869 -184.768,404.137 -184.224,405.406 -182.956,408.244 -182.11,410.902 -178.365,422.922 -176.312,444.484 -176.312,444.813 -168.037,444.817 -167.961,444.817 -167.886,444.817 -156.387,444.784 -129.2,444.122 -127.237,444.076 -125.274,444.031 -103.736,443.517 -82.148,442.854 -82.571,440.256 -82.39,436.27 -82.088,428.297 -79.249,421.291 -76.229,413.862 -68.075,404.137 -62.458,397.493 -56.418,391.816 -56.236,391.574 -55.995,391.393 -53.7,389.279 -49.592,385.896 L-41.438,379.615 -37.331,376.474 Q-47.42,362.345 -53.73,353.552 -53.759,353.506 -53.79,353.462 -62.25,341.711 -63.907,339.57 L-65.115,337.939 M-71.155,331.536 Q-70.732,331.597 -70.249,331.657 -70.008,331.657 -69.706,331.657 L-65.417,337.516 M-205.787,329 Q-196.002,334.617 -186.7,339.026 -171.238,346.516 -161.997,348.509 L-130.287,353.884 M-183.197,390.185 Q-179.996,394.473 -177.338,399.184 -168.701,414.345 -168.46,428.358 -168.218,442.37 -167.856,441.344 L-167.614,437.478 -125.274,437.901 Q-124.247,434.156 -123.884,429.143 -123.16,419.116 -126.723,411.687 -130.347,404.198 -140.011,399.124 -149.736,394.05 -159.762,393.144 -169.849,392.178 -179.392,389.52 L-185.523,387.286 -183.197,390.185Z" test="RedBike container"/>
      <use xlink:href="#Bike-Wheel" transform="matrix(1.208 0 0 1.208 -5.7 429.25)"/>
      <use xlink:href="#Bike-Wheel" transform="matrix(1.208 0 0 1.208 -234.7 433.85)"/>
    </g>
  </g>
</svg>