<?xml version="1.0" encoding="utf-8"?>
<svg id="EdithAnim11" image-rendering="inherit" baseProfile="basic" version="1.1" x="0px" y="0px" width="800" height="600" xmlns="http://www.w3.org/2000/svg" xmlns:xlink="http://www.w3.org/1999/xlink">
  <defs>
    <g id="Bike-Wheel" overflow="visible">
      <path id="Layer4_0_1_STROKES" stroke="#FFF" stroke-width="1" stroke-linejoin="round" stroke-linecap="round" fill="none" d="M2.05 -34.85Q-12.35 -34.85 -22.65 -26.45 -34 -17.2 -34.7 -1.55 -35.4 14.3 -26.6 24.6 -18.4 34.2 -5.6 34.85 7.15 35.5 19.2 29.8 31.25 24.1 34.05 7.25 36.85 -9.65 28.9 -21.15 19.4 -34.85 2.05 -34.85Z" test="Bike Wheel"/>
      <path id="Layer3_0_1_STROKES" stroke="#FFF" stroke-width="1" stroke-linejoin="round" stroke-linecap="round" fill="none" d="M.55 -26.55Q4.65 -26.85 7.1 -26.15 9.75 -25.4 12 -23.15 13.95 -21.25 8 -15.35 5.3 -12.6 2.25 -10.2 1.95 -10 1.7 -9.8M24.45 -8.9Q26.2 -5.15 26.45 -2.65 26.7 .1 25.4 3.05 24.35 5.5 16.7 2.1 13.2 .6 9.85 -1.4 9.5 -1.6 9.25 -1.75M18.45 20Q15.75 23.1 13.55 24.35 11.2 25.75 8 25.75 5.3 25.75 5.25 17.4 5.2 13.55 5.65 9.7 5.7 9.35 5.75 9M-25.15 -7.15Q-24.25 -11.2 -22.85 -13.3 -21.4 -15.6 -18.6 -17.1 -16.2 -18.45 -12.25 -11.05 -10.4 -7.65 -9 -4.1 -8.9 -3.7 -8.75 -3.4M-12.85 23.8Q-16.75 22.4 -18.7 20.8 -20.85 19.05 -22.05 16.1 -23.1 13.6 -15.3 10.55 -11.75 9.05 -8 8.05 -7.65 8 -7.3 7.95" test="Bike Wheel"/>
    </g>
  </defs>
  <g id="19_Motorbikesf6r1" overflow="visible">
    <g id="MotorBikeBluef0r1">
      <path fill="#000" stroke="none" d="M67.2,274.55 L66.55,273.7 59.8,278.9 69.95,286.9 71.5,289.3 Q75.925,286.543 78.9,284.65 L77.85,283.1 67.2,274.55 M41.1,239.5 Q39.75,243.2 25.35,239.15 L26.35,243.95 Q33.2,249.85 45.6,246.7 L46.7,238.85 42.7,234 Q42.3,233.95 41.95,233.9 L41.1,239.5 M67.4,224.1 Q50.65,210.8 43.5,208.6 37.95,206.9 36.1,208.65 35.65,209.1 34.7,210.65 33.8,212.2 32.85,213.05 33.1,217.15 35,219.65 36.4,221.45 41.8,226.8 42.533,227.555 45.85,231.65 45.903,231.685 45.9,231.7 50.585,237.389 60.2,249.4 74.3,267.05 76.5,267.65 80.2,268.7 86.9,268.05 94.55,267.35 95.7,264.55 96.9,261.65 95.4,257.7 94.3,254.75 89.2,245.7 84.8,237.9 67.4,224.1Z" test="BlueBikeContainer"/>
      <path id="Layer2_0_1_STROKES" stroke="#0FF" stroke-width="1" stroke-linejoin="round" stroke-linecap="round" fill="none" d="M32.85,213.05 Q33.8,212.2 34.7,210.65 35.65,209.1 36.1,208.65 37.95,206.9 43.5,208.6 50.65,210.8 67.4,224.1 84.8,237.9 89.2,245.7 94.3,254.75 95.4,257.7 96.9,261.65 95.7,264.55 94.55,267.35 86.9,268.05 80.2,268.7 76.5,267.65 74.3,267.05 60.2,249.4 50.585,237.389 45.925,231.725 45.903,231.685 45.875,231.65 42.533,227.555 41.8,226.8 36.4,221.45 35,219.65 33.1,217.15 32.85,213.05Z" test="BlueBikeContainer"/>
      <path id="Layer2_0_2_STROKES" stroke="#009EFF" stroke-width="1" stroke-linejoin="round" stroke-linecap="round" fill="none" d="M41.95,233.9 Q33.5,233.3 24.8,232.85 6.05,231.95 4.35,233 2.55,234 1.8,236.5 1.45,237.75 1.1,241.05 .85,243.3 -.9,247.85 -2.75,252.45 -3.75,253.1 -4.092,253.345 -7.025,252.925 -7.086,252.91 -7.15,252.9 L-7.35,255.4 Q-7.6,258.4 -7.9,260.95 -23.1,263.85 -44.85,258.2 -66.6,252.5 -69.75,249.6 -72.9,246.7 -73.15,241.95 -73.25,240.5 -72.75,236.6 -72.7,236.3 -71.2,234.45 -69.65,232.55 -69.5,231.8 -69.475,231.703 -69.475,231.625 -69.411,230.484 -72.9,231.6 -77.85,233.1 -96.3,236.3 -105.55,237.85 -113.8,239.15 -114.45,250.85 -114.8,250.85 -115.15,250.85 -98.65,257 -83.25,263.35 -83,263.45 -69.3,269.6 -66.05,273.5 -63.35,276.75 -61.15,279.65 -60.9,280 -60.6,280.35 -58.7,282.9 -57.2,285.15 -54.5,289.2 -52.65,292.95 -52.1,294 -51.65,295.05 -50.6,297.4 -49.9,299.6 -46.8,309.55 -45.1,327.4 -45.1,328.05 -6.1,327.1 13.35,326.65 32.85,326.05 32.5,323.9 32.65,320.6 32.9,314 35.25,308.2 37.75,302.05 44.5,294 49.15,288.5 54.15,283.8 54.3,283.6 54.5,283.45 56.4,281.7 59.8,278.9 L66.55,273.7 69.95,271.1 Q61.598,259.404 56.375,252.125 56.351,252.087 56.325,252.05 49.322,242.323 47.95,240.55 L46.95,239.2 M42.7,234 Q42.9,234 43.15,234 L46.7,238.85 M42.7,234 Q42.3,233.95 41.95,233.9 M-69.5,231.8 Q-61.4,236.45 -53.7,240.1 -40.9,246.3 -33.25,247.95 L-7,252.4 M-52.65,280.15 L-50.8,282.45 Q-48.15,286 -45.95,289.9 -38.8,302.45 -38.6,314.05 -38.4,325.65 -38.1,324.8 L-37.9,321.6 -2.85,321.95 Q-2,318.85 -1.7,314.7 -1.1,306.4 -4.05,300.25 -7.05,294.05 -15.05,289.85 -23.1,285.65 -31.4,284.9 -39.75,284.1 -47.65,281.9 L-52.65,280.15Z" test="BlueBikeContainer"/>
      <path id="Layer2_0_3_STROKES" stroke="#FFF" stroke-width="1" stroke-linejoin="round" stroke-linecap="round" fill="none" d="M46.95,239.2 L46.7,238.85 45.6,246.7 Q33.2,249.85 26.35,243.95 L25.35,239.15 Q39.75,243.2 41.1,239.5 L41.95,233.9 42.15,233.3 42.7,234 46.7,238.85 M77.85,283.1 L67.2,274.55 M59.8,278.9 L69.95,286.9" test="BlueBikeContainer"/>
      <use xlink:href="#Bike-Wheel" transform="translate(96.1 314.8)"/>
      <use xlink:href="#Bike-Wheel" transform="translate(-93.45 318.6)"/>
    </g>
    <g id="MotorBikePinkf0r1">
      <path fill="#000" stroke="none" d="M-186.296,341.261 Q-185.994,346 -182.189,350.502 -178.384,354.005 -152.11,360.891 -125.836,367.716 -107.474,364.213 -107.112,361.132 -106.81,357.508 L-106.568,354.488 Q-106.491,354.5 -106.447,354.488 L-106.387,353.884 -138.097,348.509 Q-147.338,346.516 -162.8,339.026 -172.102,334.617 -181.887,329 -182.068,329.906 -183.94,332.201 -185.752,334.436 -185.813,334.798 -186.417,339.509 -186.296,341.261 M-16.753,380.642 L-17.538,379.615 -25.692,385.896 -13.431,395.56 -11.559,398.46 Q-6.213,395.129 -2.62,392.842 L-3.888,390.97 -16.753,380.642 M-48.282,338.301 Q-49.913,342.771 -67.308,337.878 L-66.1,343.677 Q-57.825,350.804 -42.846,346 L-41.517,337.516 -46.349,331.657 Q-46.832,331.597 -47.255,331.536 L-48.282,338.301 M-67.308,337.878 Q-49.913,342.771 -48.282,338.301 L-47.255,331.536 Q-57.463,330.812 -67.972,330.268 -90.622,329.181 -92.676,330.449 -94.85,331.657 -95.756,334.677 -96.179,336.187 -96.602,340.174 -96.904,342.892 -99.018,348.388 -101.253,353.945 -102.461,354.73 -102.874,355.026 -106.447,354.488 -106.491,354.5 -106.568,354.488 L-106.81,357.508 Q-107.112,361.132 -107.474,364.213 -125.836,367.716 -152.11,360.891 -178.384,354.005 -182.189,350.502 -185.994,346 -186.296,341.261 -186.417,339.509 -185.813,334.798 -185.752,334.436 -183.94,332.201 -182.068,329.906 -181.887,329 -181.857,328.882 -181.887,328.758 -181.779,327.41 -185.994,328.758 -191.974,330.57 -214.261,334.436 -225.435,336.308 -235.401,337.878 -236.186,352.012 -236.609,352.012 -237.032,352.012 -217.1,359.441 -198.497,367.112 -198.195,367.233 -181.645,374.662 -177.719,379.373 -174.458,383.299 -171.8,386.802 -171.498,387.225 -171.136,387.648 -169.502,389.838 -168.116,391.816 -168.033,391.963 -167.995,392.057 -167.475,392.774 -167.028,393.446 -163.767,398.339 -161.532,402.869 -160.868,404.137 -160.324,405.406 -159.056,408.244 -158.21,410.902 -154.465,422.922 -152.412,444.484 -152.412,444.813 -144.137,444.786 -144.061,444.817 -144.016,444.786 -132.487,444.784 -105.3,444.122 -103.337,444.076 -101.374,444.001 -79.836,443.517 -58.248,442.854 -58.671,440.256 -58.49,436.27 -58.188,428.297 -55.349,421.291 -52.329,413.862 -44.175,404.137 -38.558,397.493 -32.518,391.816 -32.336,391.574 -32.095,391.393 -29.8,389.279 -25.692,385.896 L-17.538,379.615 -13.431,376.474 Q-23.52,362.345 -29.86,353.522 -29.859,353.506 -29.92,353.462 -38.35,341.711 -40.007,339.57 L-41.215,337.939 -41.517,337.516 -42.846,346 Q-57.825,350.804 -66.1,343.677 L-67.308,337.878 M-116.111,399.124 Q-106.447,404.198 -102.823,411.687 -99.26,419.116 -99.984,429.143 -100.347,434.156 -101.374,437.901 L-143.714,437.478 -143.956,441.344 Q-144.318,442.37 -144.56,428.358 -144.801,414.345 -153.438,399.184 -156.096,394.473 -159.297,390.185 L-161.653,387.286 -155.492,389.52 Q-145.949,392.178 -135.862,393.144 -125.836,394.05 -116.111,399.124 M-102.823,411.687 Q-106.447,404.198 -116.111,399.124 -125.836,394.05 -135.862,393.144 -145.949,392.178 -155.492,389.52 L-161.653,387.286 -159.297,390.185 Q-156.096,394.473 -153.438,399.184 -144.801,414.345 -144.56,428.358 -144.318,442.37 -143.956,441.344 L-143.714,437.478 -101.374,437.901 Q-100.347,434.156 -99.984,429.143 -99.26,419.116 -102.823,411.687 M-16.512,319.698 Q-36.746,303.632 -45.383,300.974 -52.087,298.92 -54.322,301.034 -54.866,301.578 -56.013,303.45 -57.1,305.323 -58.248,306.35 -57.946,311.302 -55.651,314.322 -53.96,316.497 -47.436,322.96 -46.551,323.872 -42.544,328.818 -42.48,328.861 -42.484,328.879 -36.824,335.751 -25.209,350.26 -8.176,371.582 -5.519,372.306 -1.049,373.575 7.044,372.79 16.286,371.944 17.675,368.562 19.124,365.058 17.312,360.287 15.984,356.723 9.823,345.791 4.508,336.368 -16.512,319.698Z" test="RedBike container" stroke-width="1.208"/>
      <path id="Layer1_0_1_STROKES" stroke="#0FF" stroke-width="1.208" stroke-linejoin="round" stroke-linecap="round" fill="none" d="M-58.248,306.35 Q-57.1,305.323 -56.013,303.45 -54.866,301.578 -54.322,301.034 -52.087,298.92 -45.383,300.974 -36.746,303.632 -16.512,319.698 4.508,336.368 9.823,345.791 15.984,356.723 17.312,360.287 19.124,365.058 17.675,368.562 16.286,371.944 7.044,372.79 -1.049,373.575 -5.519,372.306 -8.176,371.582 -25.209,350.26 -36.824,335.751 -42.453,328.909 -42.48,328.861 -42.514,328.818 -46.551,323.872 -47.436,322.96 -53.96,316.497 -55.651,314.322 -57.946,311.302 -58.248,306.35Z" test="RedBike container"/>
      <path id="Layer1_0_2_STROKES" stroke="#FFF" stroke-width="1.208" stroke-linejoin="round" stroke-linecap="round" fill="none" d="M-41.517,337.516 L-42.846,346 Q-57.825,350.804 -66.1,343.677 L-67.308,337.878 Q-49.913,342.771 -48.282,338.301 L-47.255,331.536 M-41.215,337.939 L-41.517,337.516 -46.349,331.657 M-47.255,331.536 L-47.014,330.812 -46.349,331.657 M-3.888,390.97 L-16.753,380.642 M-25.692,385.896 L-13.431,395.56" test="RedBike container"/>
      <path id="Layer1_0_3_STROKES" stroke="#FF0265" stroke-width="1.208" stroke-linejoin="round" stroke-linecap="round" fill="none" d="M-47.255,331.536 Q-57.463,330.812 -67.972,330.268 -90.622,329.181 -92.676,330.449 -94.85,331.657 -95.756,334.677 -96.179,336.187 -96.602,340.174 -96.904,342.892 -99.018,348.388 -101.253,353.945 -102.461,354.73 -102.874,355.026 -106.417,354.519 -106.491,354.5 -106.568,354.488 L-106.81,357.508 Q-107.112,361.132 -107.474,364.213 -125.836,367.716 -152.11,360.891 -178.384,354.005 -182.189,350.502 -185.994,346 -186.296,341.261 -186.417,339.509 -185.813,334.798 -185.752,334.436 -183.94,332.201 -182.068,329.906 -181.887,329 -181.857,328.882 -181.857,328.788 -181.779,327.41 -185.994,328.758 -191.974,330.57 -214.261,334.436 -225.435,336.308 -235.401,337.878 -236.186,352.012 -236.609,352.012 -237.032,352.012 -217.1,359.441 -198.497,367.112 -198.195,367.233 -181.645,374.662 -177.719,379.373 -174.458,383.299 -171.8,386.802 -171.498,387.225 -171.136,387.648 -169.502,389.838 -168.116,391.846 -168.033,391.963 -167.965,392.087 -167.475,392.774 -167.028,393.446 -163.767,398.339 -161.532,402.869 -160.868,404.137 -160.324,405.406 -159.056,408.244 -158.21,410.902 -154.465,422.922 -152.412,444.484 -152.412,444.813 -144.137,444.817 -144.061,444.817 -143.986,444.817 -132.487,444.784 -105.3,444.122 -103.337,444.076 -101.374,444.031 -79.836,443.517 -58.248,442.854 -58.671,440.256 -58.49,436.27 -58.188,428.297 -55.349,421.291 -52.329,413.862 -44.175,404.137 -38.558,397.493 -32.518,391.816 -32.336,391.574 -32.095,391.393 -29.8,389.279 -25.692,385.896 L-17.538,379.615 -13.431,376.474 Q-23.52,362.345 -29.83,353.552 -29.859,353.506 -29.89,353.462 -38.35,341.711 -40.007,339.57 L-41.215,337.939 M-47.255,331.536 Q-46.832,331.597 -46.349,331.657 -46.108,331.657 -45.806,331.657 L-41.517,337.516 M-181.887,329 Q-172.102,334.617 -162.8,339.026 -147.338,346.516 -138.097,348.509 L-106.387,353.884 M-159.297,390.185 Q-156.096,394.473 -153.438,399.184 -144.801,414.345 -144.56,428.358 -144.318,442.37 -143.956,441.344 L-143.714,437.478 -101.374,437.901 Q-100.347,434.156 -99.984,429.143 -99.26,419.116 -102.823,411.687 -106.447,404.198 -116.111,399.124 -125.836,394.05 -135.862,393.144 -145.949,392.178 -155.492,389.52 L-161.623,387.286 -159.297,390.185Z" test="RedBike container"/>
      <use xlink:href="#Bike-Wheel" transform="matrix(1.208 0 0 1.208 18.15 429.25)"/>
      <use xlink:href="#Bike-Wheel" transform="matrix(1.208 0 0 1.208 -210.8 433.85)"/>
    </g>
  </g>
</svg>