<?xml version="1.0" encoding="utf-8"?>
<svg id="EdithAnim11" image-rendering="inherit" baseProfile="basic" version="1.1" x="0px" y="0px" width="800" height="600" xmlns="http://www.w3.org/2000/svg" xmlns:xlink="http://www.w3.org/1999/xlink">
  <defs>
    <g id="Bike-Wheel" overflow="visible">
      <path id="Layer5_0_1_STROKES" stroke="#FFF" stroke-width="1" stroke-linejoin="round" stroke-linecap="round" fill="none" d="M2.05 -34.85Q-12.35 -34.85 -22.65 -26.45 -34 -17.2 -34.7 -1.55 -35.4 14.3 -26.6 24.6 -18.4 34.2 -5.6 34.85 7.15 35.5 19.2 29.8 31.25 24.1 34.05 7.25 36.85 -9.65 28.9 -21.15 19.4 -34.85 2.05 -34.85Z" test="Bike Wheel"/>
      <path id="Layer4_0_1_STROKES" stroke="#FFF" stroke-width="1" stroke-linejoin="round" stroke-linecap="round" fill="none" d="M.55 -26.55Q4.65 -26.85 7.1 -26.15 9.75 -25.4 12 -23.15 13.95 -21.25 8 -15.35 5.3 -12.6 2.25 -10.2 1.95 -10 1.7 -9.8M24.45 -8.9Q26.2 -5.15 26.45 -2.65 26.7 .1 25.4 3.05 24.35 5.5 16.7 2.1 13.2 .6 9.85 -1.4 9.5 -1.6 9.25 -1.75M18.45 20Q15.75 23.1 13.55 24.35 11.2 25.75 8 25.75 5.3 25.75 5.25 17.4 5.2 13.55 5.65 9.7 5.7 9.35 5.75 9M-25.15 -7.15Q-24.25 -11.2 -22.85 -13.3 -21.4 -15.6 -18.6 -17.1 -16.2 -18.45 -12.25 -11.05 -10.4 -7.65 -9 -4.1 -8.9 -3.7 -8.75 -3.4M-12.85 23.8Q-16.75 22.4 -18.7 20.8 -20.85 19.05 -22.05 16.1 -23.1 13.6 -15.3 10.55 -11.75 9.05 -8 8.05 -7.65 8 -7.3 7.95" test="Bike Wheel"/>
    </g>
  </defs>
  <g id="19_Motorbikesf61r1" overflow="visible">
    <g id="Smokef1r1">
      <path fill="#000" stroke="none" d="M-50.717,236.781 Q-64.253,214.054 -143.284,219.173 -179.662,192.933 -276.141,189.925 -276.141,250.61 -276.141,311.294 -247.448,330.494 -195.877,315.074 -126.188,316.476 -118.538,296.726 -57.873,303.829 -19.133,288.299 11.393,291.906 27.502,277.07 35.857,281.684 55.103,278.33 71.071,277.385 80.554,272.786 86.687,278.172 101.809,273.195 110.833,271.258 119.857,269.289 123.735,273.258 135.79,270.029 139.033,269.494 142.206,268.927 145.519,269.195 149.644,268.187 152.851,267.998 155.178,267.525 157.222,267.257 158.527,266.738 164.484,267.068 169.243,266.202 172.415,266.36 174.777,265.556 176.046,265.777 177.808,265.588 179.395,265.525 180.628,265.273 181.615,265.541 183.096,265.257 184.048,265.131 185.035,265.021 185.74,265.21 186.868,265.021 187.573,264.974 188.278,264.911 189.3,264.895 190.287,264.863 190.287,264.344 190.604,263.178 190.745,262.643 190.886,262.107 190.886,261.383 190.886,260.658 190.534,260.69 190.216,260.721 189.97,260.611 189.758,260.611 188.877,260.548 188.242,260.674 187.326,260.579 186.233,260.642 184.541,260.375 182.215,260.627 180.699,260.406 178.866,260.39 178.725,260.343 178.619,260.312 178.231,259.997 177.385,259.808 174.319,257.209 171.252,257.461 170.582,257.445 169.877,257.445 165.894,255.602 159.091,255.634 152.746,253.98 145.907,254.5 138.152,252.09 127.648,252.326 116.086,245.57 92.362,248.657 80.272,242.042 60.355,240.262 54.997,239.585 41.849,240.545 -1.508,224.433 -50.717,236.781Z" test="Smoke" vector-effect="non-scaling-stroke" stroke-width="1"/>
      <path id="Layer1_0_1_STROKES" stroke="#FFF" stroke-width="1" stroke-linejoin="round" stroke-linecap="round" fill="none" d="M190.287,264.863 Q189.3,264.895 188.278,264.911 187.573,264.974 186.868,265.021 185.74,265.21 185.035,265.021 184.048,265.131 183.096,265.257 181.615,265.541 180.628,265.273 179.395,265.525 177.808,265.588 176.046,265.777 174.777,265.556 172.415,266.36 169.243,266.202 164.484,267.068 158.527,266.738 157.222,267.257 155.178,267.525 152.851,267.998 149.644,268.187 145.519,269.195 142.206,268.927 139.033,269.494 135.79,270.029 123.735,273.258 119.857,269.289 110.833,271.258 101.809,273.195 86.687,278.172 80.554,272.786 71.071,277.385 55.103,278.33 35.857,281.684 27.502,277.07 11.393,291.906 -19.133,288.299 -57.873,303.829 -118.538,296.726 -126.188,316.476 -195.877,315.074 -247.448,330.494 -276.141,311.294 -276.141,250.61 -276.141,189.925 -179.662,192.933 -143.284,219.173 -64.253,214.054 -50.717,236.781 -1.508,224.433 41.849,240.545 54.997,239.585 60.355,240.262 80.272,242.042 92.362,248.657 116.086,245.57 127.648,252.326 138.152,252.09 145.907,254.5 152.746,253.98 159.091,255.634 165.894,255.602 169.877,257.445 170.582,257.445 171.252,257.461 174.319,257.209 177.385,259.808 178.231,259.997 178.619,260.312 178.725,260.343 178.866,260.39 180.699,260.406 182.215,260.627 184.541,260.375 186.233,260.642 187.326,260.579 188.242,260.674 188.877,260.548 189.758,260.611 189.97,260.611 190.216,260.721 190.534,260.69 190.886,260.658 190.886,261.383 190.886,262.107 190.745,262.643 190.604,263.178 190.287,264.344 190.287,264.863Z" test="Smoke" vector-effect="non-scaling-stroke"/>
    </g>
    <g id="MotorBikeBluef1r1">
      <g id="BlueBikeContainer">
        <path fill="#000" stroke="none" d="M306.898,266.222 L306.204,265.408 299.743,270.956 310.297,278.402 311.971,280.715 Q316.241,277.729 319.11,275.682 L317.98,274.191 306.898,266.222 M278.992,232.625 Q277.841,236.39 263.255,233.111 L264.508,237.848 Q271.657,243.373 283.865,239.573 L284.547,231.68 280.298,227.052 Q279.896,227.023 279.544,226.992 L278.992,232.625 M304.423,215.862 Q287.002,203.477 279.75,201.66 274.121,200.258 272.367,202.102 271.942,202.575 271.076,204.172 270.26,205.767 269.357,206.666 269.824,210.744 271.852,213.138 273.345,214.861 279.018,219.914 279.789,220.628 283.317,224.539 283.371,224.572 283.369,224.587 288.346,230.016 298.579,241.493 313.586,258.361 315.813,258.843 319.562,259.695 326.214,258.691 333.811,257.587 334.811,254.732 335.855,251.774 334.148,247.911 332.894,245.025 327.325,236.264 322.52,228.713 304.423,215.862Z" test="BlueBikeContainer" vector-effect="non-scaling-stroke" stroke-width="1"/>
        <path id="Layer3_0_1_STROKES" stroke="#0FF" stroke-width="1" stroke-linejoin="round" stroke-linecap="round" fill="none" d="M269.357,206.666 Q270.26,205.767 271.076,204.172 271.942,202.575 272.367,202.102 274.121,200.258 279.75,201.66 287.002,203.477 304.423,215.862 322.52,228.713 327.325,236.264 332.894,245.025 334.148,247.911 335.855,251.774 334.811,254.732 333.811,257.587 326.214,258.691 319.562,259.695 315.813,258.843 313.586,258.361 298.579,241.493 288.346,230.016 283.395,224.61 283.371,224.572 283.342,224.538 279.789,220.628 279.018,219.914 273.345,214.861 271.852,213.138 269.824,210.744 269.357,206.666Z" test="BlueBikeContainer" vector-effect="non-scaling-stroke"/>
        <path id="Layer3_0_2_STROKES" stroke="#009EFF" stroke-width="1" stroke-linejoin="round" stroke-linecap="round" fill="none" d="M279.544,226.992 Q271.079,226.841 262.372,226.853 243.612,226.948 241.971,228.086 240.228,229.18 239.612,231.714 239.329,232.98 239.154,236.292 239.024,238.551 237.519,243.185 235.916,247.874 234.953,248.575 234.624,248.838 231.675,248.574 231.613,248.562 231.549,248.556 L231.482,251.062 Q231.391,254.069 231.227,256.63 216.211,260.329 194.205,255.843 172.197,251.308 168.899,248.58 165.602,245.853 165.101,241.126 164.924,239.684 165.216,235.765 165.25,235.463 166.649,233.537 168.095,231.559 168.205,230.803 168.225,230.705 168.221,230.627 168.224,229.485 164.802,230.783 159.941,232.543 141.697,236.714 132.548,238.751 124.383,240.486 124.355,252.197 124.006,252.215 123.656,252.234 140.449,257.497 156.155,263.018 156.41,263.105 170.408,268.516 173.859,272.236 176.725,275.337 179.075,278.114 179.343,278.45 179.661,278.784 181.692,281.228 183.308,283.394 186.218,287.293 188.263,290.937 188.867,291.956 189.372,292.98 190.544,295.27 191.36,297.428 194.981,307.194 197.623,324.918 197.658,325.567 236.529,322.552 255.917,321.072 275.346,319.44 274.883,317.312 274.857,314.011 274.757,307.411 276.795,301.498 278.964,295.228 285.274,286.836 289.623,281.101 294.364,276.145 294.503,275.938 294.695,275.777 296.498,273.93 299.743,270.956 L306.204,265.408 309.459,262.633 Q300.504,251.403 294.906,244.416 294.88,244.379 294.852,244.343 287.347,235.007 285.884,233.31 L284.815,232.016 M280.298,227.052 Q280.497,227.041 280.747,227.028 L284.547,231.68 M280.298,227.052 Q279.896,227.023 279.544,226.992 M168.205,230.803 Q176.536,235.014 184.414,238.249 197.517,243.758 205.239,244 L231.672,248.049 M187.584,278.163 L189.552,280.36 Q192.385,283.763 194.788,287.538 202.588,299.684 203.403,311.25 204.217,322.817 204.472,321.952 L204.502,318.748 239.5,317.24 Q240.184,314.101 240.263,309.943 240.422,301.628 237.152,295.647 233.83,289.618 225.623,285.851 217.367,282.086 209.043,281.777 200.668,281.421 192.667,279.644 L187.584,278.163Z" test="BlueBikeContainer" vector-effect="non-scaling-stroke"/>
        <path id="Layer3_0_3_STROKES" stroke="#FFF" stroke-width="1" stroke-linejoin="round" stroke-linecap="round" fill="none" d="M284.815,232.016 L284.547,231.68 283.865,239.573 Q271.657,243.373 264.508,237.848 L263.255,233.111 Q277.841,236.39 278.992,232.625 L279.544,226.992 279.712,226.382 280.298,227.052 284.547,231.68 M317.98,274.191 L306.898,266.222 M299.743,270.956 L310.297,278.402" test="BlueBikeContainer" vector-effect="non-scaling-stroke"/>
        <use xlink:href="#Bike-Wheel" transform="matrix(.998 -.053 .053 .998 337.85 304.85)"/>
        <use xlink:href="#Bike-Wheel" transform="matrix(.998 -.053 .053 .998 148.9 318.65)"/>
      </g>
    </g>
    <g id="MotorBikePinkf0r1">
      <path fill="#000" stroke="none" d="M84.804,341.261 Q85.106,346 88.911,350.502 92.716,354.005 118.99,360.891 145.264,367.716 163.626,364.213 163.988,361.132 164.29,357.508 L164.532,354.488 Q164.609,354.5 164.653,354.488 L164.713,353.884 133.003,348.509 Q123.762,346.516 108.3,339.026 98.998,334.617 89.213,329 89.032,329.906 87.16,332.201 85.348,334.436 85.287,334.798 84.683,339.509 84.804,341.261 M254.347,380.642 L253.562,379.615 245.408,385.896 257.669,395.56 259.541,398.46 Q264.887,395.129 268.48,392.842 L267.212,390.97 254.347,380.642 M222.818,338.301 Q221.187,342.771 203.792,337.878 L205,343.677 Q213.275,350.804 228.254,346 L229.583,337.516 224.751,331.657 Q224.268,331.597 223.845,331.536 L222.818,338.301 M203.792,337.878 Q221.187,342.771 222.818,338.301 L223.845,331.536 Q213.637,330.812 203.128,330.268 180.478,329.181 178.424,330.449 176.25,331.657 175.344,334.677 174.921,336.187 174.498,340.174 174.196,342.892 172.082,348.388 169.847,353.945 168.639,354.73 168.226,355.026 164.653,354.488 164.609,354.5 164.532,354.488 L164.29,357.508 Q163.988,361.132 163.626,364.213 145.264,367.716 118.99,360.891 92.716,354.005 88.911,350.502 85.106,346 84.804,341.261 84.683,339.509 85.287,334.798 85.348,334.436 87.16,332.201 89.032,329.906 89.213,329 89.243,328.882 89.213,328.758 89.321,327.41 85.106,328.758 79.126,330.57 56.839,334.436 45.665,336.308 35.699,337.878 34.914,352.012 34.491,352.012 34.068,352.012 54,359.441 72.603,367.112 72.905,367.233 89.455,374.662 93.381,379.373 96.642,383.299 99.3,386.802 99.602,387.225 99.964,387.648 101.598,389.838 102.984,391.816 103.067,391.963 103.105,392.057 103.625,392.774 104.072,393.446 107.333,398.339 109.568,402.869 110.232,404.137 110.776,405.406 112.044,408.244 112.89,410.902 116.635,422.922 118.688,444.484 118.688,444.813 126.963,444.786 127.039,444.817 127.084,444.786 138.613,444.784 165.8,444.122 167.763,444.076 169.726,444.001 191.264,443.517 212.852,442.854 212.429,440.256 212.61,436.27 212.912,428.297 215.751,421.291 218.771,413.862 226.925,404.137 232.542,397.493 238.582,391.816 238.764,391.574 239.005,391.393 241.3,389.279 245.408,385.896 L253.562,379.615 257.669,376.474 Q247.58,362.345 241.24,353.522 241.241,353.506 241.18,353.462 232.75,341.711 231.093,339.57 L229.885,337.939 229.583,337.516 228.254,346 Q213.275,350.804 205,343.677 L203.792,337.878 M154.989,399.124 Q164.653,404.198 168.277,411.687 171.84,419.116 171.116,429.143 170.753,434.156 169.726,437.901 L127.386,437.478 127.144,441.344 Q126.782,442.37 126.54,428.358 126.299,414.345 117.662,399.184 115.004,394.473 111.803,390.185 L109.447,387.286 115.608,389.52 Q125.151,392.178 135.238,393.144 145.264,394.05 154.989,399.124 M168.277,411.687 Q164.653,404.198 154.989,399.124 145.264,394.05 135.238,393.144 125.151,392.178 115.608,389.52 L109.447,387.286 111.803,390.185 Q115.004,394.473 117.662,399.184 126.299,414.345 126.54,428.358 126.782,442.37 127.144,441.344 L127.386,437.478 169.726,437.901 Q170.753,434.156 171.116,429.143 171.84,419.116 168.277,411.687 M254.588,319.698 Q234.354,303.632 225.717,300.974 219.013,298.92 216.778,301.034 216.234,301.578 215.087,303.45 214,305.323 212.852,306.35 213.154,311.302 215.449,314.322 217.14,316.497 223.664,322.96 224.549,323.872 228.556,328.818 228.62,328.861 228.616,328.879 234.276,335.751 245.891,350.26 262.924,371.582 265.581,372.306 270.051,373.575 278.144,372.79 287.386,371.944 288.775,368.562 290.224,365.058 288.412,360.287 287.084,356.723 280.923,345.791 275.608,336.368 254.588,319.698Z" test="RedBike container" stroke-width="1.208"/>
      <path id="Layer2_0_1_STROKES" stroke="#0FF" stroke-width="1.208" stroke-linejoin="round" stroke-linecap="round" fill="none" d="M212.852,306.35 Q214,305.323 215.087,303.45 216.234,301.578 216.778,301.034 219.013,298.92 225.717,300.974 234.354,303.632 254.588,319.698 275.608,336.368 280.923,345.791 287.084,356.723 288.412,360.287 290.224,365.058 288.775,368.562 287.386,371.944 278.144,372.79 270.051,373.575 265.581,372.306 262.924,371.582 245.891,350.26 234.276,335.751 228.647,328.909 228.62,328.861 228.586,328.818 224.549,323.872 223.664,322.96 217.14,316.497 215.449,314.322 213.154,311.302 212.852,306.35Z" test="RedBike container"/>
      <path id="Layer2_0_2_STROKES" stroke="#FFF" stroke-width="1.208" stroke-linejoin="round" stroke-linecap="round" fill="none" d="M229.583,337.516 L228.254,346 Q213.275,350.804 205,343.677 L203.792,337.878 Q221.187,342.771 222.818,338.301 L223.845,331.536 M229.885,337.939 L229.583,337.516 224.751,331.657 M223.845,331.536 L224.086,330.812 224.751,331.657 M267.212,390.97 L254.347,380.642 M245.408,385.896 L257.669,395.56" test="RedBike container"/>
      <path id="Layer2_0_3_STROKES" stroke="#FF0265" stroke-width="1.208" stroke-linejoin="round" stroke-linecap="round" fill="none" d="M223.845,331.536 Q213.637,330.812 203.128,330.268 180.478,329.181 178.424,330.449 176.25,331.657 175.344,334.677 174.921,336.187 174.498,340.174 174.196,342.892 172.082,348.388 169.847,353.945 168.639,354.73 168.226,355.026 164.683,354.519 164.609,354.5 164.532,354.488 L164.29,357.508 Q163.988,361.132 163.626,364.213 145.264,367.716 118.99,360.891 92.716,354.005 88.911,350.502 85.106,346 84.804,341.261 84.683,339.509 85.287,334.798 85.348,334.436 87.16,332.201 89.032,329.906 89.213,329 89.243,328.882 89.243,328.788 89.321,327.41 85.106,328.758 79.126,330.57 56.839,334.436 45.665,336.308 35.699,337.878 34.914,352.012 34.491,352.012 34.068,352.012 54,359.441 72.603,367.112 72.905,367.233 89.455,374.662 93.381,379.373 96.642,383.299 99.3,386.802 99.602,387.225 99.964,387.648 101.598,389.838 102.984,391.846 103.067,391.963 103.135,392.087 103.625,392.774 104.072,393.446 107.333,398.339 109.568,402.869 110.232,404.137 110.776,405.406 112.044,408.244 112.89,410.902 116.635,422.922 118.688,444.484 118.688,444.813 126.963,444.817 127.039,444.817 127.114,444.817 138.613,444.784 165.8,444.122 167.763,444.076 169.726,444.031 191.264,443.517 212.852,442.854 212.429,440.256 212.61,436.27 212.912,428.297 215.751,421.291 218.771,413.862 226.925,404.137 232.542,397.493 238.582,391.816 238.764,391.574 239.005,391.393 241.3,389.279 245.408,385.896 L253.562,379.615 257.669,376.474 Q247.58,362.345 241.27,353.552 241.241,353.506 241.21,353.462 232.75,341.711 231.093,339.57 L229.885,337.939 M223.845,331.536 Q224.268,331.597 224.751,331.657 224.992,331.657 225.294,331.657 L229.583,337.516 M89.213,329 Q98.998,334.617 108.3,339.026 123.762,346.516 133.003,348.509 L164.713,353.884 M111.803,390.185 Q115.004,394.473 117.662,399.184 126.299,414.345 126.54,428.358 126.782,442.37 127.144,441.344 L127.386,437.478 169.726,437.901 Q170.753,434.156 171.116,429.143 171.84,419.116 168.277,411.687 164.653,404.198 154.989,399.124 145.264,394.05 135.238,393.144 125.151,392.178 115.608,389.52 L109.477,387.286 111.803,390.185Z" test="RedBike container"/>
      <use xlink:href="#Bike-Wheel" transform="matrix(1.208 0 0 1.208 289.25 429.25)"/>
      <use xlink:href="#Bike-Wheel" transform="matrix(1.208 0 0 1.208 60.25 433.85)"/>
    </g>
  </g>
</svg>