<?xml version="1.0" encoding="utf-8"?>
<svg id="EdithAnim11" image-rendering="inherit" baseProfile="basic" version="1.1" x="0px" y="0px" width="800" height="600" xmlns="http://www.w3.org/2000/svg" xmlns:xlink="http://www.w3.org/1999/xlink">
  <defs>
    <g id="Bike-Wheel" overflow="visible">
      <path id="Layer5_0_1_STROKES" stroke="#FFF" stroke-width="1" stroke-linejoin="round" stroke-linecap="round" fill="none" d="M2.05 -34.85Q-12.35 -34.85 -22.65 -26.45 -34 -17.2 -34.7 -1.55 -35.4 14.3 -26.6 24.6 -18.4 34.2 -5.6 34.85 7.15 35.5 19.2 29.8 31.25 24.1 34.05 7.25 36.85 -9.65 28.9 -21.15 19.4 -34.85 2.05 -34.85Z" test="Bike Wheel"/>
      <path id="Layer4_0_1_STROKES" stroke="#FFF" stroke-width="1" stroke-linejoin="round" stroke-linecap="round" fill="none" d="M.55 -26.55Q4.65 -26.85 7.1 -26.15 9.75 -25.4 12 -23.15 13.95 -21.25 8 -15.35 5.3 -12.6 2.25 -10.2 1.95 -10 1.7 -9.8M24.45 -8.9Q26.2 -5.15 26.45 -2.65 26.7 .1 25.4 3.05 24.35 5.5 16.7 2.1 13.2 .6 9.85 -1.4 9.5 -1.6 9.25 -1.75M18.45 20Q15.75 23.1 13.55 24.35 11.2 25.75 8 25.75 5.3 25.75 5.25 17.4 5.2 13.55 5.65 9.7 5.7 9.35 5.75 9M-25.15 -7.15Q-24.25 -11.2 -22.85 -13.3 -21.4 -15.6 -18.6 -17.1 -16.2 -18.45 -12.25 -11.05 -10.4 -7.65 -9 -4.1 -8.9 -3.7 -8.75 -3.4M-12.85 23.8Q-16.75 22.4 -18.7 20.8 -20.85 19.05 -22.05 16.1 -23.1 13.6 -15.3 10.55 -11.75 9.05 -8 8.05 -7.65 8 -7.3 7.95" test="Bike Wheel"/>
    </g>
  </defs>
  <g id="19_Motorbikesf62r1" overflow="visible">
    <g id="Smokef2r1">
      <path fill="#000" stroke="none" d="M-48.902,232.842 Q-62.187,209.877 -139.221,215.034 -174.805,188.524 -268.853,185.466 -268.853,250.197 -268.853,314.927 -240.87,334.365 -190.661,318.825 -122.786,320.253 -115.293,300.328 -56.25,307.552 -18.458,291.894 11.263,295.557 26.973,280.571 35.118,285.258 53.834,281.882 69.436,280.924 78.631,276.287 84.64,281.73 99.373,276.707 108.17,274.758 116.93,272.793 120.731,276.808 132.496,273.532 135.646,272.994 138.723,272.44 143.501,273.364 149.945,271.583 155.085,271.449 158.452,270.676 161.529,270.138 163.013,269.03 172.208,269.786 179.086,267.988 183.864,268.374 187.122,266.661 188.787,267.165 191.611,266.778 194.073,266.661 195.81,266.123 197.113,266.711 199.394,266.14 200.878,265.905 202.326,265.67 203.231,266.106 205.041,265.72 206.091,265.602 207.105,265.468 208.625,265.434 210.145,265.401 210.145,264.846 210.471,263.603 210.616,263.032 210.761,262.461 210.761,261.688 210.761,260.915 210.254,260.966 209.711,261.016 209.421,260.764 209.168,260.747 207.756,260.579 206.887,260.764 205.548,260.546 203.883,260.613 201.602,259.941 198.018,260.378 195.919,259.806 193.131,259.672 192.878,259.605 192.697,259.554 191.973,259.218 190.453,259.084 185.276,255.623 179.882,256.329 178.905,256.379 177.891,256.463 173.258,253.271 162.144,253.59 154.108,250.533 142.886,250.785 135.356,248.349 125.075,248.567 113.817,241.746 90.649,244.871 78.848,238.185 59.445,236.37 54.232,235.698 41.417,236.656 -.901,220.36 -48.902,232.842Z" test="Smoke" vector-effect="non-scaling-stroke" stroke-width="1"/>
      <path id="Layer1_0_1_STROKES" stroke="#FFF" stroke-width="1" stroke-linejoin="round" stroke-linecap="round" fill="none" d="M210.145,265.401 Q208.625,265.434 207.105,265.468 206.091,265.602 205.041,265.72 203.231,266.106 202.326,265.67 200.878,265.905 199.394,266.14 197.113,266.711 195.81,266.123 194.073,266.661 191.611,266.778 188.787,267.165 187.122,266.661 183.864,268.374 179.086,267.988 172.208,269.786 163.013,269.03 161.529,270.138 158.452,270.676 155.085,271.449 149.945,271.583 143.501,273.364 138.723,272.44 135.646,272.994 132.496,273.532 120.731,276.808 116.93,272.793 108.17,274.758 99.373,276.707 84.64,281.73 78.631,276.287 69.436,280.924 53.834,281.882 35.118,285.258 26.973,280.571 11.263,295.557 -18.458,291.894 -56.25,307.552 -115.293,300.328 -122.786,320.253 -190.661,318.825 -240.87,334.365 -268.853,314.927 -268.853,250.197 -268.853,185.466 -174.805,188.524 -139.221,215.034 -62.187,209.877 -48.902,232.842 -.901,220.36 41.417,236.656 54.232,235.698 59.445,236.37 78.848,238.185 90.649,244.871 113.817,241.746 125.075,248.567 135.356,248.349 142.886,250.785 154.108,250.533 162.144,253.59 173.258,253.271 177.891,256.463 178.905,256.379 179.882,256.329 185.276,255.623 190.453,259.084 191.973,259.218 192.697,259.554 192.878,259.605 193.131,259.672 195.919,259.806 198.018,260.378 201.602,259.941 203.883,260.613 205.548,260.546 206.887,260.764 207.756,260.579 209.168,260.747 209.421,260.764 209.711,261.016 210.254,260.966 210.761,260.915 210.761,261.688 210.761,262.461 210.616,263.032 210.471,263.603 210.145,264.846 210.145,265.401Z" test="Smoke" vector-effect="non-scaling-stroke"/>
    </g>
    <g id="MotorBikeBluef2r1">
      <g id="BlueBikeContainer">
        <path fill="#000" stroke="none" d="M324.87,258.022 L324.134,257.245 317.971,263.123 328.9,270.009 330.693,272.232 Q334.802,269.027 337.56,266.833 L336.354,265.403 324.87,258.022 M295.246,225.923 Q294.293,229.742 279.554,227.229 L281.052,231.895 Q288.48,237.04 300.475,232.607 L300.744,224.689 296.259,220.288 Q295.856,220.28 295.503,220.267 L295.246,225.923 M319.771,207.854 Q301.725,196.392 294.387,194.956 288.692,193.849 287.037,195.783 286.637,196.277 285.855,197.918 285.123,199.553 284.268,200.498 284.947,204.547 287.098,206.832 288.679,208.475 294.608,213.226 295.416,213.899 299.143,217.621 299.2,217.65 299.198,217.666 304.452,222.829 315.271,233.758 331.14,249.822 333.389,250.187 337.177,250.842 343.769,249.493 351.3,247.993 352.149,245.09 353.037,242.081 351.131,238.312 349.728,235.495 343.708,227.035 338.516,219.744 319.771,207.854Z" test="BlueBikeContainer" vector-effect="non-scaling-stroke" stroke-width="1"/>
        <path id="Layer3_0_1_STROKES" stroke="#0FF" stroke-width="1" stroke-linejoin="round" stroke-linecap="round" fill="none" d="M284.268,200.498 Q285.123,199.553 285.855,197.918 286.637,196.277 287.037,195.783 288.692,193.849 294.387,194.956 301.725,196.392 319.771,207.854 338.516,219.744 343.708,227.035 349.728,235.495 351.131,238.312 353.037,242.081 352.149,245.09 351.3,247.993 343.769,249.493 337.177,250.842 333.389,250.187 331.14,249.822 315.271,233.758 304.452,222.829 299.226,217.688 299.2,217.65 299.168,217.619 295.416,213.899 294.608,213.226 288.679,208.475 287.098,206.832 284.947,204.547 284.268,200.498Z" test="BlueBikeContainer" vector-effect="non-scaling-stroke"/>
        <path id="Layer3_0_2_STROKES" stroke="#009EFF" stroke-width="1" stroke-linejoin="round" stroke-linecap="round" fill="none" d="M295.503,220.267 Q287.041,220.558 278.346,221.024 259.614,222.098 258.034,223.321 256.35,224.504 255.867,227.067 255.65,228.347 255.649,231.664 255.637,233.926 254.375,238.633 253.019,243.399 252.093,244.151 251.779,244.43 248.819,244.32 248.757,244.312 248.693,244.309 L248.756,246.815 Q248.823,249.823 248.792,252.389 233.988,256.868 211.775,253.535 189.557,250.153 186.122,247.602 182.686,245.05 181.939,240.354 181.687,238.924 181.775,234.995 181.793,234.691 183.09,232.695 184.431,230.643 184.501,229.882 184.516,229.783 184.508,229.705 184.451,228.565 181.101,230.04 176.338,232.051 158.334,237.169 149.303,239.681 141.239,241.839 141.821,253.538 141.473,253.574 141.125,253.611 158.172,257.992 174.146,262.686 174.405,262.76 188.669,267.434 192.309,270.97 195.334,273.917 197.825,276.568 198.111,276.89 198.445,277.206 200.602,279.541 202.329,281.62 205.438,285.363 207.671,288.896 208.328,289.882 208.885,290.878 210.176,293.104 211.103,295.217 215.229,304.782 218.793,322.346 218.861,322.993 257.527,317.953 276.813,315.464 296.133,312.82 295.56,310.719 295.362,307.424 294.918,300.837 296.645,294.825 298.484,288.449 304.348,279.739 308.393,273.784 312.869,268.587 312.997,268.372 313.18,268.202 314.885,266.263 317.971,263.123 L324.134,257.245 327.241,254.304 Q317.711,243.555 311.755,236.868 311.727,236.833 311.697,236.799 303.715,227.866 302.165,226.247 L301.029,225.01 M296.259,220.288 Q296.458,220.267 296.706,220.241 L300.744,224.689 M296.259,220.288 Q295.856,220.28 295.503,220.267 M184.501,229.882 Q193.041,233.654 201.078,236.473 214.452,241.292 222.229,242.129 L248.789,243.796 M206.327,276.173 L208.407,278.265 Q211.414,281.515 214.01,285.161 222.435,296.885 223.852,308.394 225.269,319.903 225.478,319.027 L225.341,315.825 260.217,312.493 Q260.736,309.322 260.599,305.166 260.324,296.852 256.746,291.049 253.113,285.201 244.72,281.867 236.277,278.537 227.948,278.663 219.564,278.745 211.481,277.387 L206.327,276.173Z" test="BlueBikeContainer" vector-effect="non-scaling-stroke"/>
        <path id="Layer3_0_3_STROKES" stroke="#FFF" stroke-width="1" stroke-linejoin="round" stroke-linecap="round" fill="none" d="M301.029,225.01 L300.744,224.689 300.475,232.607 Q288.48,237.04 281.052,231.895 L279.554,227.229 Q294.293,229.742 295.246,225.923 L295.503,220.267 295.639,219.65 296.259,220.288 300.744,224.689 M336.354,265.403 L324.87,258.022 M317.971,263.123 L328.9,270.009" test="BlueBikeContainer" vector-effect="non-scaling-stroke"/>
        <use xlink:href="#Bike-Wheel" transform="matrix(.994 -.105 .105 .994 357.8 294.95)"/>
        <use xlink:href="#Bike-Wheel" transform="matrix(.994 -.105 .105 .994 169.8 318.65)"/>
      </g>
    </g>
    <g id="MotorBikePinkf0r1">
      <path fill="#000" stroke="none" d="M84.804,341.261 Q85.106,346 88.911,350.502 92.716,354.005 118.99,360.891 145.264,367.716 163.626,364.213 163.988,361.132 164.29,357.508 L164.532,354.488 Q164.609,354.5 164.653,354.488 L164.713,353.884 133.003,348.509 Q123.762,346.516 108.3,339.026 98.998,334.617 89.213,329 89.032,329.906 87.16,332.201 85.348,334.436 85.287,334.798 84.683,339.509 84.804,341.261 M254.347,380.642 L253.562,379.615 245.408,385.896 257.669,395.56 259.541,398.46 Q264.887,395.129 268.48,392.842 L267.212,390.97 254.347,380.642 M222.818,338.301 Q221.187,342.771 203.792,337.878 L205,343.677 Q213.275,350.804 228.254,346 L229.583,337.516 224.751,331.657 Q224.268,331.597 223.845,331.536 L222.818,338.301 M203.792,337.878 Q221.187,342.771 222.818,338.301 L223.845,331.536 Q213.637,330.812 203.128,330.268 180.478,329.181 178.424,330.449 176.25,331.657 175.344,334.677 174.921,336.187 174.498,340.174 174.196,342.892 172.082,348.388 169.847,353.945 168.639,354.73 168.226,355.026 164.653,354.488 164.609,354.5 164.532,354.488 L164.29,357.508 Q163.988,361.132 163.626,364.213 145.264,367.716 118.99,360.891 92.716,354.005 88.911,350.502 85.106,346 84.804,341.261 84.683,339.509 85.287,334.798 85.348,334.436 87.16,332.201 89.032,329.906 89.213,329 89.243,328.882 89.213,328.758 89.321,327.41 85.106,328.758 79.126,330.57 56.839,334.436 45.665,336.308 35.699,337.878 34.914,352.012 34.491,352.012 34.068,352.012 54,359.441 72.603,367.112 72.905,367.233 89.455,374.662 93.381,379.373 96.642,383.299 99.3,386.802 99.602,387.225 99.964,387.648 101.598,389.838 102.984,391.816 103.067,391.963 103.105,392.057 103.625,392.774 104.072,393.446 107.333,398.339 109.568,402.869 110.232,404.137 110.776,405.406 112.044,408.244 112.89,410.902 116.635,422.922 118.688,444.484 118.688,444.813 126.963,444.786 127.039,444.817 127.084,444.786 138.613,444.784 165.8,444.122 167.763,444.076 169.726,444.001 191.264,443.517 212.852,442.854 212.429,440.256 212.61,436.27 212.912,428.297 215.751,421.291 218.771,413.862 226.925,404.137 232.542,397.493 238.582,391.816 238.764,391.574 239.005,391.393 241.3,389.279 245.408,385.896 L253.562,379.615 257.669,376.474 Q247.58,362.345 241.24,353.522 241.241,353.506 241.18,353.462 232.75,341.711 231.093,339.57 L229.885,337.939 229.583,337.516 228.254,346 Q213.275,350.804 205,343.677 L203.792,337.878 M154.989,399.124 Q164.653,404.198 168.277,411.687 171.84,419.116 171.116,429.143 170.753,434.156 169.726,437.901 L127.386,437.478 127.144,441.344 Q126.782,442.37 126.54,428.358 126.299,414.345 117.662,399.184 115.004,394.473 111.803,390.185 L109.447,387.286 115.608,389.52 Q125.151,392.178 135.238,393.144 145.264,394.05 154.989,399.124 M168.277,411.687 Q164.653,404.198 154.989,399.124 145.264,394.05 135.238,393.144 125.151,392.178 115.608,389.52 L109.447,387.286 111.803,390.185 Q115.004,394.473 117.662,399.184 126.299,414.345 126.54,428.358 126.782,442.37 127.144,441.344 L127.386,437.478 169.726,437.901 Q170.753,434.156 171.116,429.143 171.84,419.116 168.277,411.687 M254.588,319.698 Q234.354,303.632 225.717,300.974 219.013,298.92 216.778,301.034 216.234,301.578 215.087,303.45 214,305.323 212.852,306.35 213.154,311.302 215.449,314.322 217.14,316.497 223.664,322.96 224.549,323.872 228.556,328.818 228.62,328.861 228.616,328.879 234.276,335.751 245.891,350.26 262.924,371.582 265.581,372.306 270.051,373.575 278.144,372.79 287.386,371.944 288.775,368.562 290.224,365.058 288.412,360.287 287.084,356.723 280.923,345.791 275.608,336.368 254.588,319.698Z" test="RedBike container" stroke-width="1.208"/>
      <path id="Layer2_0_1_STROKES" stroke="#0FF" stroke-width="1.208" stroke-linejoin="round" stroke-linecap="round" fill="none" d="M212.852,306.35 Q214,305.323 215.087,303.45 216.234,301.578 216.778,301.034 219.013,298.92 225.717,300.974 234.354,303.632 254.588,319.698 275.608,336.368 280.923,345.791 287.084,356.723 288.412,360.287 290.224,365.058 288.775,368.562 287.386,371.944 278.144,372.79 270.051,373.575 265.581,372.306 262.924,371.582 245.891,350.26 234.276,335.751 228.647,328.909 228.62,328.861 228.586,328.818 224.549,323.872 223.664,322.96 217.14,316.497 215.449,314.322 213.154,311.302 212.852,306.35Z" test="RedBike container"/>
      <path id="Layer2_0_2_STROKES" stroke="#FFF" stroke-width="1.208" stroke-linejoin="round" stroke-linecap="round" fill="none" d="M229.583,337.516 L228.254,346 Q213.275,350.804 205,343.677 L203.792,337.878 Q221.187,342.771 222.818,338.301 L223.845,331.536 M229.885,337.939 L229.583,337.516 224.751,331.657 M223.845,331.536 L224.086,330.812 224.751,331.657 M267.212,390.97 L254.347,380.642 M245.408,385.896 L257.669,395.56" test="RedBike container"/>
      <path id="Layer2_0_3_STROKES" stroke="#FF0265" stroke-width="1.208" stroke-linejoin="round" stroke-linecap="round" fill="none" d="M223.845,331.536 Q213.637,330.812 203.128,330.268 180.478,329.181 178.424,330.449 176.25,331.657 175.344,334.677 174.921,336.187 174.498,340.174 174.196,342.892 172.082,348.388 169.847,353.945 168.639,354.73 168.226,355.026 164.683,354.519 164.609,354.5 164.532,354.488 L164.29,357.508 Q163.988,361.132 163.626,364.213 145.264,367.716 118.99,360.891 92.716,354.005 88.911,350.502 85.106,346 84.804,341.261 84.683,339.509 85.287,334.798 85.348,334.436 87.16,332.201 89.032,329.906 89.213,329 89.243,328.882 89.243,328.788 89.321,327.41 85.106,328.758 79.126,330.57 56.839,334.436 45.665,336.308 35.699,337.878 34.914,352.012 34.491,352.012 34.068,352.012 54,359.441 72.603,367.112 72.905,367.233 89.455,374.662 93.381,379.373 96.642,383.299 99.3,386.802 99.602,387.225 99.964,387.648 101.598,389.838 102.984,391.846 103.067,391.963 103.135,392.087 103.625,392.774 104.072,393.446 107.333,398.339 109.568,402.869 110.232,404.137 110.776,405.406 112.044,408.244 112.89,410.902 116.635,422.922 118.688,444.484 118.688,444.813 126.963,444.817 127.039,444.817 127.114,444.817 138.613,444.784 165.8,444.122 167.763,444.076 169.726,444.031 191.264,443.517 212.852,442.854 212.429,440.256 212.61,436.27 212.912,428.297 215.751,421.291 218.771,413.862 226.925,404.137 232.542,397.493 238.582,391.816 238.764,391.574 239.005,391.393 241.3,389.279 245.408,385.896 L253.562,379.615 257.669,376.474 Q247.58,362.345 241.27,353.552 241.241,353.506 241.21,353.462 232.75,341.711 231.093,339.57 L229.885,337.939 M223.845,331.536 Q224.268,331.597 224.751,331.657 224.992,331.657 225.294,331.657 L229.583,337.516 M89.213,329 Q98.998,334.617 108.3,339.026 123.762,346.516 133.003,348.509 L164.713,353.884 M111.803,390.185 Q115.004,394.473 117.662,399.184 126.299,414.345 126.54,428.358 126.782,442.37 127.144,441.344 L127.386,437.478 169.726,437.901 Q170.753,434.156 171.116,429.143 171.84,419.116 168.277,411.687 164.653,404.198 154.989,399.124 145.264,394.05 135.238,393.144 125.151,392.178 115.608,389.52 L109.477,387.286 111.803,390.185Z" test="RedBike container"/>
      <use xlink:href="#Bike-Wheel" transform="matrix(1.208 0 0 1.208 289.25 429.25)"/>
      <use xlink:href="#Bike-Wheel" transform="matrix(1.208 0 0 1.208 60.25 433.85)"/>
    </g>
  </g>
</svg>