<?xml version="1.0" encoding="utf-8"?>
<svg id="EdithAnim11" image-rendering="inherit" baseProfile="basic" version="1.1" x="0px" y="0px" width="800" height="600" xmlns="http://www.w3.org/2000/svg" xmlns:xlink="http://www.w3.org/1999/xlink">
  <defs>
    <g id="Bike-Wheel" overflow="visible">
      <path id="Layer5_0_1_STROKES" stroke="#FFF" stroke-width="1" stroke-linejoin="round" stroke-linecap="round" fill="none" d="M2.05 -34.85Q-12.35 -34.85 -22.65 -26.45 -34 -17.2 -34.7 -1.55 -35.4 14.3 -26.6 24.6 -18.4 34.2 -5.6 34.85 7.15 35.5 19.2 29.8 31.25 24.1 34.05 7.25 36.85 -9.65 28.9 -21.15 19.4 -34.85 2.05 -34.85Z" test="Bike Wheel"/>
      <path id="Layer4_0_1_STROKES" stroke="#FFF" stroke-width="1" stroke-linejoin="round" stroke-linecap="round" fill="none" d="M.55 -26.55Q4.65 -26.85 7.1 -26.15 9.75 -25.4 12 -23.15 13.95 -21.25 8 -15.35 5.3 -12.6 2.25 -10.2 1.95 -10 1.7 -9.8M24.45 -8.9Q26.2 -5.15 26.45 -2.65 26.7 .1 25.4 3.05 24.35 5.5 16.7 2.1 13.2 .6 9.85 -1.4 9.5 -1.6 9.25 -1.75M18.45 20Q15.75 23.1 13.55 24.35 11.2 25.75 8 25.75 5.3 25.75 5.25 17.4 5.2 13.55 5.65 9.7 5.7 9.35 5.75 9M-25.15 -7.15Q-24.25 -11.2 -22.85 -13.3 -21.4 -15.6 -18.6 -17.1 -16.2 -18.45 -12.25 -11.05 -10.4 -7.65 -9 -4.1 -8.9 -3.7 -8.75 -3.4M-12.85 23.8Q-16.75 22.4 -18.7 20.8 -20.85 19.05 -22.05 16.1 -23.1 13.6 -15.3 10.55 -11.75 9.05 -8 8.05 -7.65 8 -7.3 7.95" test="Bike Wheel"/>
    </g>
  </defs>
  <g id="19_Motorbikesf63r1" overflow="visible">
    <g id="Smokef3r1">
      <path fill="#000" stroke="none" d="M-44.469,228.238 Q-57.559,204.871 -132.92,210.102 -167.814,183.115 -259.781,180.001 -259.781,249.741 -259.781,319.48 -232.404,339.299 -183.373,323.516 -117.1,325.019 -109.732,304.783 -52.024,312.168 -15.11,296.276 13.95,300.022 29.284,284.8 37.287,289.561 55.576,286.14 70.798,285.18 79.811,280.474 85.683,286.031 100.082,280.927 108.646,278.936 117.248,276.945 120.988,281.036 132.47,277.723 135.5,277.162 138.566,276.601 144.85,278.302 153.863,275.624 161.081,275.533 165.569,274.411 169.721,273.56 171.366,271.805 184.12,273.035 193.208,270.157 199.79,270.791 203.942,268.058 206.111,268.872 210.038,268.257 213.441,268.076 215.723,267.207 217.368,268.166 220.547,267.261 222.529,266.881 224.512,266.519 225.634,267.225 228.139,266.61 229.561,266.411 230.982,266.212 233.039,266.175 235.096,266.121 235.096,265.524 235.432,264.184 235.582,263.569 235.732,262.954 235.732,262.121 235.732,261.288 235.021,261.361 234.31,261.433 233.936,261.017 233.637,260.981 231.655,260.673 230.57,260.963 228.775,260.564 226.494,260.655 223.539,259.515 218.565,260.184 215.835,259.189 212.057,258.899 211.721,258.845 211.422,258.772 210.374,258.374 208.056,258.302 200.688,253.831 192.759,255.08 191.413,255.189 190.066,255.388 184.718,250.609 168.973,251.297 159.174,246.609 143.241,246.519 135.874,244.039 125.813,244.274 114.78,237.324 92.116,240.51 80.559,233.686 61.56,231.858 56.436,231.152 43.907,232.129 2.505,215.55 -44.469,228.238Z" test="Smoke" vector-effect="non-scaling-stroke" stroke-width="1"/>
      <path id="Layer1_0_1_STROKES" stroke="#FFF" stroke-width="1" stroke-linejoin="round" stroke-linecap="round" fill="none" d="M235.096,266.121 Q233.039,266.175 230.982,266.212 229.561,266.411 228.139,266.61 225.634,267.225 224.512,266.519 222.529,266.881 220.547,267.261 217.368,268.166 215.723,267.207 213.441,268.076 210.038,268.257 206.111,268.872 203.942,268.058 199.79,270.791 193.208,270.157 184.12,273.035 171.366,271.805 169.721,273.56 165.569,274.411 161.081,275.533 153.863,275.624 144.85,278.302 138.566,276.601 135.5,277.162 132.47,277.723 120.988,281.036 117.248,276.945 108.646,278.936 100.082,280.927 85.683,286.031 79.811,280.474 70.798,285.18 55.576,286.14 37.287,289.561 29.284,284.8 13.95,300.022 -15.11,296.276 -52.024,312.168 -109.732,304.783 -117.1,325.019 -183.373,323.516 -232.404,339.299 -259.781,319.48 -259.781,249.741 -259.781,180.001 -167.814,183.115 -132.92,210.102 -57.559,204.871 -44.469,228.238 2.505,215.55 43.907,232.129 56.436,231.152 61.56,231.858 80.559,233.686 92.116,240.51 114.78,237.324 125.813,244.274 135.874,244.039 143.241,246.519 159.174,246.609 168.973,251.297 184.718,250.609 190.066,255.388 191.413,255.189 192.759,255.08 200.688,253.831 208.056,258.302 210.374,258.374 211.422,258.772 211.721,258.845 212.057,258.899 215.835,259.189 218.565,260.184 223.539,259.515 226.494,260.655 228.775,260.564 230.57,260.963 231.655,260.673 233.637,260.981 233.936,261.017 234.31,261.433 235.021,261.361 235.732,261.288 235.732,262.121 235.732,262.954 235.582,263.569 235.432,264.184 235.096,265.524 235.096,266.121Z" test="Smoke" vector-effect="non-scaling-stroke"/>
    </g>
    <g id="MotorBikeBluef3r1">
      <g id="BlueBikeContainer">
        <path fill="#000" stroke="none" d="M348.044,250.04 L347.269,249.303 341.423,255.495 352.697,261.798 354.604,263.923 Q358.539,260.507 361.178,258.172 L359.898,256.807 348.044,250.04 M316.781,219.544 Q316.029,223.407 301.18,221.671 L302.921,226.251 Q310.608,230 322.352,225.943 L322.206,218.023 317.496,213.864 Q317.094,213.877 316.74,213.883 L316.781,219.544 M340.321,200.215 Q321.701,189.717 314.298,188.668 308.553,187.862 307.002,189.88 306.629,190.394 305.934,192.073 305.289,193.745 304.485,194.733 305.376,198.74 307.643,200.909 309.308,202.466 315.478,206.899 316.32,207.529 320.236,211.05 320.294,211.076 320.294,211.091 325.811,215.971 337.187,226.316 353.874,241.523 356.14,241.77 359.957,242.225 366.468,240.532 373.908,238.64 374.604,235.696 375.333,232.645 373.232,228.982 371.683,226.243 365.229,218.111 359.661,211.103 340.321,200.215Z" test="BlueBikeContainer" vector-effect="non-scaling-stroke" stroke-width="1"/>
        <path id="Layer3_0_1_STROKES" stroke="#0FF" stroke-width="1" stroke-linejoin="round" stroke-linecap="round" fill="none" d="M304.485,194.733 Q305.289,193.745 305.934,192.073 306.629,190.394 307.002,189.88 308.553,187.862 314.298,188.668 321.701,189.717 340.321,200.215 359.661,211.103 365.229,218.111 371.683,226.243 373.232,228.982 375.333,232.645 374.604,235.696 373.908,238.64 366.468,240.532 359.957,242.225 356.14,241.77 353.874,241.523 337.187,226.316 325.811,215.971 320.322,211.112 320.294,211.076 320.261,211.046 316.32,207.529 315.478,206.899 309.308,202.466 307.643,200.909 305.376,198.74 304.485,194.733Z" test="BlueBikeContainer" vector-effect="non-scaling-stroke"/>
        <path id="Layer3_0_2_STROKES" stroke="#009EFF" stroke-width="1" stroke-linejoin="round" stroke-linecap="round" fill="none" d="M316.74,213.883 Q308.306,214.617 299.648,215.539 281.001,217.595 279.488,218.898 277.868,220.167 277.52,222.753 277.371,224.041 277.544,227.353 277.65,229.613 276.638,234.379 275.534,239.21 274.649,240.008 274.35,240.304 271.389,240.35 271.326,240.344 271.262,240.345 L271.457,242.844 Q271.681,245.844 271.785,248.408 257.238,253.656 234.884,251.495 212.522,249.283 208.957,246.916 205.393,244.548 204.4,239.899 204.074,238.484 203.955,234.556 203.958,234.252 205.148,232.19 206.379,230.072 206.409,229.308 206.419,229.208 206.407,229.131 206.291,227.995 203.022,229.644 198.372,231.902 180.664,237.957 171.778,240.939 163.839,243.517 165.035,255.167 164.689,255.222 164.344,255.277 181.595,258.757 197.792,262.606 198.054,262.666 212.541,266.585 216.361,269.924 219.537,272.708 222.163,275.225 222.465,275.531 222.816,275.829 225.092,278.048 226.926,280.033 230.226,283.607 232.641,287.017 233.349,287.967 233.958,288.933 235.363,291.088 236.399,293.149 241.021,302.483 245.501,319.834 245.604,320.476 283.947,313.415 303.074,309.917 322.226,306.264 321.543,304.197 321.173,300.916 320.384,294.362 321.793,288.269 323.294,281.806 328.693,272.801 332.419,266.643 336.616,261.219 336.733,260.998 336.907,260.818 338.507,258.793 341.423,255.495 L347.269,249.303 350.217,246.203 Q340.137,235.971 333.839,229.606 333.809,229.573 333.778,229.54 325.339,221.039 323.706,219.504 L322.507,218.329 M317.496,213.864 Q317.694,213.832 317.94,213.793 L322.206,218.023 M317.496,213.864 Q317.094,213.877 316.74,213.883 M206.409,229.308 Q215.134,232.626 223.307,235.019 236.914,239.129 244.724,239.557 L271.331,239.828 M230.631,274.384 L232.818,276.364 Q235.991,279.451 238.775,282.955 247.802,294.22 249.821,305.637 251.84,317.055 252.002,316.169 L251.697,312.979 286.347,307.822 Q286.699,304.629 286.343,300.486 285.632,292.199 281.755,286.592 277.821,280.944 269.265,278.055 260.661,275.173 252.351,275.736 243.984,276.257 235.841,275.326 L230.631,274.384Z" test="BlueBikeContainer" vector-effect="non-scaling-stroke"/>
        <path id="Layer3_0_3_STROKES" stroke="#FFF" stroke-width="1" stroke-linejoin="round" stroke-linecap="round" fill="none" d="M322.507,218.329 L322.206,218.023 322.352,225.943 Q310.608,230 302.921,226.251 L301.18,221.671 Q316.029,223.407 316.781,219.544 L316.74,213.883 316.844,213.259 317.496,213.864 322.206,218.023 M359.898,256.807 L348.044,250.04 M341.423,255.495 L352.697,261.798" test="BlueBikeContainer" vector-effect="non-scaling-stroke"/>
        <use xlink:href="#Bike-Wheel" transform="matrix(.987 -.157 .157 .987 382.85 285.2)"/>
        <use xlink:href="#Bike-Wheel" transform="matrix(.987 -.157 .157 .987 196.35 318.7)"/>
      </g>
    </g>
    <g id="MotorBikePinkf0r1">
      <path fill="#000" stroke="none" d="M84.804,341.261 Q85.106,346 88.911,350.502 92.716,354.005 118.99,360.891 145.264,367.716 163.626,364.213 163.988,361.132 164.29,357.508 L164.532,354.488 Q164.609,354.5 164.653,354.488 L164.713,353.884 133.003,348.509 Q123.762,346.516 108.3,339.026 98.998,334.617 89.213,329 89.032,329.906 87.16,332.201 85.348,334.436 85.287,334.798 84.683,339.509 84.804,341.261 M254.347,380.642 L253.562,379.615 245.408,385.896 257.669,395.56 259.541,398.46 Q264.887,395.129 268.48,392.842 L267.212,390.97 254.347,380.642 M222.818,338.301 Q221.187,342.771 203.792,337.878 L205,343.677 Q213.275,350.804 228.254,346 L229.583,337.516 224.751,331.657 Q224.268,331.597 223.845,331.536 L222.818,338.301 M203.792,337.878 Q221.187,342.771 222.818,338.301 L223.845,331.536 Q213.637,330.812 203.128,330.268 180.478,329.181 178.424,330.449 176.25,331.657 175.344,334.677 174.921,336.187 174.498,340.174 174.196,342.892 172.082,348.388 169.847,353.945 168.639,354.73 168.226,355.026 164.653,354.488 164.609,354.5 164.532,354.488 L164.29,357.508 Q163.988,361.132 163.626,364.213 145.264,367.716 118.99,360.891 92.716,354.005 88.911,350.502 85.106,346 84.804,341.261 84.683,339.509 85.287,334.798 85.348,334.436 87.16,332.201 89.032,329.906 89.213,329 89.243,328.882 89.213,328.758 89.321,327.41 85.106,328.758 79.126,330.57 56.839,334.436 45.665,336.308 35.699,337.878 34.914,352.012 34.491,352.012 34.068,352.012 54,359.441 72.603,367.112 72.905,367.233 89.455,374.662 93.381,379.373 96.642,383.299 99.3,386.802 99.602,387.225 99.964,387.648 101.598,389.838 102.984,391.816 103.067,391.963 103.105,392.057 103.625,392.774 104.072,393.446 107.333,398.339 109.568,402.869 110.232,404.137 110.776,405.406 112.044,408.244 112.89,410.902 116.635,422.922 118.688,444.484 118.688,444.813 126.963,444.786 127.039,444.817 127.084,444.786 138.613,444.784 165.8,444.122 167.763,444.076 169.726,444.001 191.264,443.517 212.852,442.854 212.429,440.256 212.61,436.27 212.912,428.297 215.751,421.291 218.771,413.862 226.925,404.137 232.542,397.493 238.582,391.816 238.764,391.574 239.005,391.393 241.3,389.279 245.408,385.896 L253.562,379.615 257.669,376.474 Q247.58,362.345 241.24,353.522 241.241,353.506 241.18,353.462 232.75,341.711 231.093,339.57 L229.885,337.939 229.583,337.516 228.254,346 Q213.275,350.804 205,343.677 L203.792,337.878 M154.989,399.124 Q164.653,404.198 168.277,411.687 171.84,419.116 171.116,429.143 170.753,434.156 169.726,437.901 L127.386,437.478 127.144,441.344 Q126.782,442.37 126.54,428.358 126.299,414.345 117.662,399.184 115.004,394.473 111.803,390.185 L109.447,387.286 115.608,389.52 Q125.151,392.178 135.238,393.144 145.264,394.05 154.989,399.124 M168.277,411.687 Q164.653,404.198 154.989,399.124 145.264,394.05 135.238,393.144 125.151,392.178 115.608,389.52 L109.447,387.286 111.803,390.185 Q115.004,394.473 117.662,399.184 126.299,414.345 126.54,428.358 126.782,442.37 127.144,441.344 L127.386,437.478 169.726,437.901 Q170.753,434.156 171.116,429.143 171.84,419.116 168.277,411.687 M254.588,319.698 Q234.354,303.632 225.717,300.974 219.013,298.92 216.778,301.034 216.234,301.578 215.087,303.45 214,305.323 212.852,306.35 213.154,311.302 215.449,314.322 217.14,316.497 223.664,322.96 224.549,323.872 228.556,328.818 228.62,328.861 228.616,328.879 234.276,335.751 245.891,350.26 262.924,371.582 265.581,372.306 270.051,373.575 278.144,372.79 287.386,371.944 288.775,368.562 290.224,365.058 288.412,360.287 287.084,356.723 280.923,345.791 275.608,336.368 254.588,319.698Z" test="RedBike container" stroke-width="1.208"/>
      <path id="Layer2_0_1_STROKES" stroke="#0FF" stroke-width="1.208" stroke-linejoin="round" stroke-linecap="round" fill="none" d="M212.852,306.35 Q214,305.323 215.087,303.45 216.234,301.578 216.778,301.034 219.013,298.92 225.717,300.974 234.354,303.632 254.588,319.698 275.608,336.368 280.923,345.791 287.084,356.723 288.412,360.287 290.224,365.058 288.775,368.562 287.386,371.944 278.144,372.79 270.051,373.575 265.581,372.306 262.924,371.582 245.891,350.26 234.276,335.751 228.647,328.909 228.62,328.861 228.586,328.818 224.549,323.872 223.664,322.96 217.14,316.497 215.449,314.322 213.154,311.302 212.852,306.35Z" test="RedBike container"/>
      <path id="Layer2_0_2_STROKES" stroke="#FFF" stroke-width="1.208" stroke-linejoin="round" stroke-linecap="round" fill="none" d="M229.583,337.516 L228.254,346 Q213.275,350.804 205,343.677 L203.792,337.878 Q221.187,342.771 222.818,338.301 L223.845,331.536 M229.885,337.939 L229.583,337.516 224.751,331.657 M223.845,331.536 L224.086,330.812 224.751,331.657 M267.212,390.97 L254.347,380.642 M245.408,385.896 L257.669,395.56" test="RedBike container"/>
      <path id="Layer2_0_3_STROKES" stroke="#FF0265" stroke-width="1.208" stroke-linejoin="round" stroke-linecap="round" fill="none" d="M223.845,331.536 Q213.637,330.812 203.128,330.268 180.478,329.181 178.424,330.449 176.25,331.657 175.344,334.677 174.921,336.187 174.498,340.174 174.196,342.892 172.082,348.388 169.847,353.945 168.639,354.73 168.226,355.026 164.683,354.519 164.609,354.5 164.532,354.488 L164.29,357.508 Q163.988,361.132 163.626,364.213 145.264,367.716 118.99,360.891 92.716,354.005 88.911,350.502 85.106,346 84.804,341.261 84.683,339.509 85.287,334.798 85.348,334.436 87.16,332.201 89.032,329.906 89.213,329 89.243,328.882 89.243,328.788 89.321,327.41 85.106,328.758 79.126,330.57 56.839,334.436 45.665,336.308 35.699,337.878 34.914,352.012 34.491,352.012 34.068,352.012 54,359.441 72.603,367.112 72.905,367.233 89.455,374.662 93.381,379.373 96.642,383.299 99.3,386.802 99.602,387.225 99.964,387.648 101.598,389.838 102.984,391.846 103.067,391.963 103.135,392.087 103.625,392.774 104.072,393.446 107.333,398.339 109.568,402.869 110.232,404.137 110.776,405.406 112.044,408.244 112.89,410.902 116.635,422.922 118.688,444.484 118.688,444.813 126.963,444.817 127.039,444.817 127.114,444.817 138.613,444.784 165.8,444.122 167.763,444.076 169.726,444.031 191.264,443.517 212.852,442.854 212.429,440.256 212.61,436.27 212.912,428.297 215.751,421.291 218.771,413.862 226.925,404.137 232.542,397.493 238.582,391.816 238.764,391.574 239.005,391.393 241.3,389.279 245.408,385.896 L253.562,379.615 257.669,376.474 Q247.58,362.345 241.27,353.552 241.241,353.506 241.21,353.462 232.75,341.711 231.093,339.57 L229.885,337.939 M223.845,331.536 Q224.268,331.597 224.751,331.657 224.992,331.657 225.294,331.657 L229.583,337.516 M89.213,329 Q98.998,334.617 108.3,339.026 123.762,346.516 133.003,348.509 L164.713,353.884 M111.803,390.185 Q115.004,394.473 117.662,399.184 126.299,414.345 126.54,428.358 126.782,442.37 127.144,441.344 L127.386,437.478 169.726,437.901 Q170.753,434.156 171.116,429.143 171.84,419.116 168.277,411.687 164.653,404.198 154.989,399.124 145.264,394.05 135.238,393.144 125.151,392.178 115.608,389.52 L109.477,387.286 111.803,390.185Z" test="RedBike container"/>
      <use xlink:href="#Bike-Wheel" transform="matrix(1.208 0 0 1.208 289.25 429.25)"/>
      <use xlink:href="#Bike-Wheel" transform="matrix(1.208 0 0 1.208 60.25 433.85)"/>
    </g>
  </g>
</svg>