<?xml version="1.0" encoding="utf-8"?>
<svg id="EdithAnim11" image-rendering="inherit" baseProfile="basic" version="1.1" x="0px" y="0px" width="800" height="600" xmlns="http://www.w3.org/2000/svg" xmlns:xlink="http://www.w3.org/1999/xlink">
  <defs>
    <g id="Bike-Wheel" overflow="visible">
      <path id="Layer5_0_1_STROKES" stroke="#FFF" stroke-width="1" stroke-linejoin="round" stroke-linecap="round" fill="none" d="M2.05 -34.85Q-12.35 -34.85 -22.65 -26.45 -34 -17.2 -34.7 -1.55 -35.4 14.3 -26.6 24.6 -18.4 34.2 -5.6 34.85 7.15 35.5 19.2 29.8 31.25 24.1 34.05 7.25 36.85 -9.65 28.9 -21.15 19.4 -34.85 2.05 -34.85Z" test="Bike Wheel"/>
      <path id="Layer4_0_1_STROKES" stroke="#FFF" stroke-width="1" stroke-linejoin="round" stroke-linecap="round" fill="none" d="M.55 -26.55Q4.65 -26.85 7.1 -26.15 9.75 -25.4 12 -23.15 13.95 -21.25 8 -15.35 5.3 -12.6 2.25 -10.2 1.95 -10 1.7 -9.8M24.45 -8.9Q26.2 -5.15 26.45 -2.65 26.7 .1 25.4 3.05 24.35 5.5 16.7 2.1 13.2 .6 9.85 -1.4 9.5 -1.6 9.25 -1.75M18.45 20Q15.75 23.1 13.55 24.35 11.2 25.75 8 25.75 5.3 25.75 5.25 17.4 5.2 13.55 5.65 9.7 5.7 9.35 5.75 9M-25.15 -7.15Q-24.25 -11.2 -22.85 -13.3 -21.4 -15.6 -18.6 -17.1 -16.2 -18.45 -12.25 -11.05 -10.4 -7.65 -9 -4.1 -8.9 -3.7 -8.75 -3.4M-12.85 23.8Q-16.75 22.4 -18.7 20.8 -20.85 19.05 -22.05 16.1 -23.1 13.6 -15.3 10.55 -11.75 9.05 -8 8.05 -7.65 8 -7.3 7.95" test="Bike Wheel"/>
    </g>
  </defs>
  <g id="19_Motorbikesf64r1" overflow="visible">
    <g id="Smokef4r1">
      <path fill="#000" stroke="none" d="M-38.04,222.801 Q-51.033,198.907 -124.943,204.251 -159.331,176.663 -249.579,173.479 -249.579,249.191 -249.579,324.902 -222.737,345.201 -174.657,329.107 -109.733,330.699 -102.42,310.067 -45.898,317.652 -9.643,301.46 18.793,305.311 33.886,289.788 41.705,294.661 59.676,291.183 74.575,290.22 83.444,285.406 89.202,291.085 103.322,285.897 111.725,283.873 120.166,281.849 123.823,286.035 135.065,282.635 138.06,282.085 141.055,281.515 149.069,284.129 160.816,280.395 170.347,280.336 176.065,278.823 181.356,277.585 183.262,275.05 199.872,276.858 211.425,272.732 219.944,273.636 225.079,269.706 227.763,270.904 232.976,270 237.372,269.725 240.25,268.507 242.273,269.902 246.396,268.585 248.964,268.055 251.531,267.524 252.893,268.546 256.16,267.682 257.989,267.387 259.817,267.092 262.501,267.033 265.146,266.974 265.146,266.326 265.496,264.872 265.652,264.203 265.808,263.535 265.808,262.631 265.808,261.728 264.913,261.826 263.979,261.924 263.551,261.295 263.162,261.276 260.556,260.804 259.195,261.177 256.9,260.608 253.982,260.706 250.287,259.036 243.79,259.939 240.367,258.446 235.466,258.014 235.038,257.935 234.61,257.857 233.248,257.405 230.058,257.405 220.256,251.726 209.597,253.612 207.885,253.809 206.174,254.123 199.989,247.481 179.216,248.582 167.391,241.979 146.307,241.527 139.071,238.993 129.191,239.209 118.338,232.115 96.126,235.357 84.728,228.401 66.095,226.515 61.038,225.807 48.746,226.79 8.056,209.832 -38.04,222.801Z" test="Smoke" vector-effect="non-scaling-stroke" stroke-width="1"/>
      <path id="Layer1_0_1_STROKES" stroke="#FFF" stroke-width="1" stroke-linejoin="round" stroke-linecap="round" fill="none" d="M265.146,266.974 Q262.501,267.033 259.817,267.092 257.989,267.387 256.16,267.682 252.893,268.546 251.531,267.524 248.964,268.055 246.396,268.585 242.273,269.902 240.25,268.507 237.372,269.725 232.976,270 227.763,270.904 225.079,269.706 219.944,273.636 211.425,272.732 199.872,276.858 183.262,275.05 181.356,277.585 176.065,278.823 170.347,280.336 160.816,280.395 149.069,284.129 141.055,281.515 138.06,282.085 135.065,282.635 123.823,286.035 120.166,281.849 111.725,283.873 103.322,285.897 89.202,291.085 83.444,285.406 74.575,290.22 59.676,291.183 41.705,294.661 33.886,289.788 18.793,305.311 -9.643,301.46 -45.898,317.652 -102.42,310.067 -109.733,330.699 -174.657,329.107 -222.737,345.201 -249.579,324.902 -249.579,249.191 -249.579,173.479 -159.331,176.663 -124.943,204.251 -51.033,198.907 -38.04,222.801 8.056,209.832 48.746,226.79 61.038,225.807 66.095,226.515 84.728,228.401 96.126,235.357 118.338,232.115 129.191,239.209 139.071,238.993 146.307,241.527 167.391,241.979 179.216,248.582 199.989,247.481 206.174,254.123 207.885,253.809 209.597,253.612 220.256,251.726 230.058,257.405 233.248,257.405 234.61,257.857 235.038,257.935 235.466,258.014 240.367,258.446 243.79,259.939 250.287,259.036 253.982,260.706 256.9,260.608 259.195,261.177 260.556,260.804 263.162,261.276 263.551,261.295 263.979,261.924 264.913,261.826 265.808,261.728 265.808,262.631 265.808,263.535 265.652,264.203 265.496,264.872 265.146,266.326 265.146,266.974Z" test="Smoke" vector-effect="non-scaling-stroke"/>
    </g>
    <g id="MotorBikeBluef4r1">
      <g id="BlueBikeContainer">
        <path fill="#000" stroke="none" d="M376.303,241.779 L375.488,241.086 369.995,247.598 381.608,253.262 383.631,255.278 Q387.37,251.646 389.875,249.166 L388.52,247.874 376.303,241.779 M343.373,213.068 Q342.838,216.969 327.911,216.065 L329.905,220.543 Q337.848,224.855 349.295,219.149 L348.706,211.246 343.77,207.356 Q343.368,207.392 343.016,207.417 L343.373,213.068 M365.803,192.447 Q346.619,183.004 339.167,182.37 333.384,181.886 331.947,183.988 331.603,184.523 331.004,186.239 330.453,187.944 329.705,188.976 330.818,192.928 333.205,194.968 334.954,196.43 341.364,200.512 342.24,201.094 346.349,204.392 346.408,204.415 346.409,204.43 352.192,208.995 364.132,218.691 381.65,232.946 383.926,233.066 387.764,233.307 394.172,231.252 401.497,228.946 402.027,225.967 402.585,222.879 400.282,219.338 398.582,216.689 391.681,208.929 385.728,202.241 365.803,192.447Z" test="BlueBikeContainer" vector-effect="non-scaling-stroke" stroke-width="1"/>
        <path id="Layer3_0_1_STROKES" stroke="#0FF" stroke-width="1" stroke-linejoin="round" stroke-linecap="round" fill="none" d="M329.705,188.976 Q330.453,187.944 331.004,186.239 331.603,184.523 331.947,183.988 333.384,181.886 339.167,182.37 346.619,183.004 365.803,192.447 385.728,202.241 391.681,208.929 398.582,216.689 400.282,219.338 402.585,222.879 402.027,225.967 401.497,228.946 394.172,231.252 387.764,233.307 383.926,233.066 381.65,232.946 364.132,218.691 352.192,208.995 346.438,204.449 346.408,204.415 346.374,204.387 342.24,201.094 341.364,200.512 334.954,196.43 333.205,194.968 330.818,192.928 329.705,188.976Z" test="BlueBikeContainer" vector-effect="non-scaling-stroke"/>
        <path id="Layer3_0_2_STROKES" stroke="#009EFF" stroke-width="1" stroke-linejoin="round" stroke-linecap="round" fill="none" d="M343.016,207.417 Q334.633,208.622 326.038,210.027 307.528,213.123 306.09,214.509 304.543,215.867 304.34,218.469 304.264,219.764 304.621,223.063 304.854,225.314 304.109,230.13 303.277,235.017 302.437,235.864 302.155,236.176 299.201,236.387 299.138,236.385 299.073,236.389 L299.408,238.874 Q299.799,241.858 300.047,244.413 285.811,250.469 263.364,249.56 240.906,248.602 237.213,246.436 233.521,244.271 232.27,239.683 231.865,238.287 231.526,234.371 231.512,234.068 232.585,231.942 233.696,229.757 233.684,228.993 233.688,228.893 233.671,228.816 233.492,227.688 230.32,229.518 225.802,232.033 208.454,239.071 199.746,242.546 191.961,245.565 193.806,257.134 193.464,257.208 193.123,257.282 210.547,259.793 226.939,262.732 227.204,262.777 241.893,265.881 245.895,269.002 249.222,271.605 251.986,273.972 252.305,274.261 252.672,274.539 255.069,276.628 257.011,278.508 260.508,281.892 263.11,285.164 263.87,286.073 264.532,287.004 266.056,289.077 267.207,291.078 272.345,300.142 277.79,317.221 277.928,317.856 315.829,308.66 334.737,304.097 353.661,299.377 352.863,297.35 352.31,294.094 351.155,287.593 352.222,281.428 353.36,274.89 358.248,265.594 361.625,259.235 365.514,253.583 365.618,253.356 365.782,253.167 367.267,251.054 369.995,247.598 L375.488,241.086 378.258,237.825 Q367.619,228.169 360.973,222.165 360.941,222.133 360.908,222.102 352.004,214.083 350.288,212.642 L349.024,211.535 M343.77,207.356 Q343.965,207.313 344.209,207.26 L348.706,211.246 M343.77,207.356 Q343.368,207.392 343.016,207.417 M233.684,228.993 Q242.583,231.818 250.88,233.752 264.7,237.096 272.524,237.086 L299.114,235.869 M260.397,272.658 L262.692,274.513 Q266.033,277.42 269.01,280.764 278.656,291.509 281.31,302.8 283.965,314.091 284.078,313.197 L283.595,310.028 317.913,302.939 Q318.086,299.73 317.499,295.612 316.326,287.376 312.14,281.993 307.895,276.571 299.188,274.164 290.433,271.767 282.165,272.794 273.837,273.783 265.653,273.308 L260.397,272.658Z" test="BlueBikeContainer" vector-effect="non-scaling-stroke"/>
        <path id="Layer3_0_3_STROKES" stroke="#FFF" stroke-width="1" stroke-linejoin="round" stroke-linecap="round" fill="none" d="M349.024,211.535 L348.706,211.246 349.295,219.149 Q337.848,224.855 329.905,220.543 L327.911,216.065 Q342.838,216.969 343.373,213.068 L343.016,207.417 343.084,206.788 343.77,207.356 348.706,211.246 M388.52,247.874 L376.303,241.779 M369.995,247.598 L381.608,253.262" test="BlueBikeContainer" vector-effect="non-scaling-stroke"/>
        <use xlink:href="#Bike-Wheel" transform="matrix(.977 -.212 .212 .977 413.05 274.95)"/>
        <use xlink:href="#Bike-Wheel" transform="matrix(.977 -.212 .212 .977 228.65 318.85)"/>
      </g>
    </g>
    <g id="MotorBikePinkf0r1">
      <path fill="#000" stroke="none" d="M84.804,341.261 Q85.106,346 88.911,350.502 92.716,354.005 118.99,360.891 145.264,367.716 163.626,364.213 163.988,361.132 164.29,357.508 L164.532,354.488 Q164.609,354.5 164.653,354.488 L164.713,353.884 133.003,348.509 Q123.762,346.516 108.3,339.026 98.998,334.617 89.213,329 89.032,329.906 87.16,332.201 85.348,334.436 85.287,334.798 84.683,339.509 84.804,341.261 M254.347,380.642 L253.562,379.615 245.408,385.896 257.669,395.56 259.541,398.46 Q264.887,395.129 268.48,392.842 L267.212,390.97 254.347,380.642 M222.818,338.301 Q221.187,342.771 203.792,337.878 L205,343.677 Q213.275,350.804 228.254,346 L229.583,337.516 224.751,331.657 Q224.268,331.597 223.845,331.536 L222.818,338.301 M203.792,337.878 Q221.187,342.771 222.818,338.301 L223.845,331.536 Q213.637,330.812 203.128,330.268 180.478,329.181 178.424,330.449 176.25,331.657 175.344,334.677 174.921,336.187 174.498,340.174 174.196,342.892 172.082,348.388 169.847,353.945 168.639,354.73 168.226,355.026 164.653,354.488 164.609,354.5 164.532,354.488 L164.29,357.508 Q163.988,361.132 163.626,364.213 145.264,367.716 118.99,360.891 92.716,354.005 88.911,350.502 85.106,346 84.804,341.261 84.683,339.509 85.287,334.798 85.348,334.436 87.16,332.201 89.032,329.906 89.213,329 89.243,328.882 89.213,328.758 89.321,327.41 85.106,328.758 79.126,330.57 56.839,334.436 45.665,336.308 35.699,337.878 34.914,352.012 34.491,352.012 34.068,352.012 54,359.441 72.603,367.112 72.905,367.233 89.455,374.662 93.381,379.373 96.642,383.299 99.3,386.802 99.602,387.225 99.964,387.648 101.598,389.838 102.984,391.816 103.067,391.963 103.105,392.057 103.625,392.774 104.072,393.446 107.333,398.339 109.568,402.869 110.232,404.137 110.776,405.406 112.044,408.244 112.89,410.902 116.635,422.922 118.688,444.484 118.688,444.813 126.963,444.786 127.039,444.817 127.084,444.786 138.613,444.784 165.8,444.122 167.763,444.076 169.726,444.001 191.264,443.517 212.852,442.854 212.429,440.256 212.61,436.27 212.912,428.297 215.751,421.291 218.771,413.862 226.925,404.137 232.542,397.493 238.582,391.816 238.764,391.574 239.005,391.393 241.3,389.279 245.408,385.896 L253.562,379.615 257.669,376.474 Q247.58,362.345 241.24,353.522 241.241,353.506 241.18,353.462 232.75,341.711 231.093,339.57 L229.885,337.939 229.583,337.516 228.254,346 Q213.275,350.804 205,343.677 L203.792,337.878 M154.989,399.124 Q164.653,404.198 168.277,411.687 171.84,419.116 171.116,429.143 170.753,434.156 169.726,437.901 L127.386,437.478 127.144,441.344 Q126.782,442.37 126.54,428.358 126.299,414.345 117.662,399.184 115.004,394.473 111.803,390.185 L109.447,387.286 115.608,389.52 Q125.151,392.178 135.238,393.144 145.264,394.05 154.989,399.124 M168.277,411.687 Q164.653,404.198 154.989,399.124 145.264,394.05 135.238,393.144 125.151,392.178 115.608,389.52 L109.447,387.286 111.803,390.185 Q115.004,394.473 117.662,399.184 126.299,414.345 126.54,428.358 126.782,442.37 127.144,441.344 L127.386,437.478 169.726,437.901 Q170.753,434.156 171.116,429.143 171.84,419.116 168.277,411.687 M254.588,319.698 Q234.354,303.632 225.717,300.974 219.013,298.92 216.778,301.034 216.234,301.578 215.087,303.45 214,305.323 212.852,306.35 213.154,311.302 215.449,314.322 217.14,316.497 223.664,322.96 224.549,323.872 228.556,328.818 228.62,328.861 228.616,328.879 234.276,335.751 245.891,350.26 262.924,371.582 265.581,372.306 270.051,373.575 278.144,372.79 287.386,371.944 288.775,368.562 290.224,365.058 288.412,360.287 287.084,356.723 280.923,345.791 275.608,336.368 254.588,319.698Z" test="RedBike container" stroke-width="1.208"/>
      <path id="Layer2_0_1_STROKES" stroke="#0FF" stroke-width="1.208" stroke-linejoin="round" stroke-linecap="round" fill="none" d="M212.852,306.35 Q214,305.323 215.087,303.45 216.234,301.578 216.778,301.034 219.013,298.92 225.717,300.974 234.354,303.632 254.588,319.698 275.608,336.368 280.923,345.791 287.084,356.723 288.412,360.287 290.224,365.058 288.775,368.562 287.386,371.944 278.144,372.79 270.051,373.575 265.581,372.306 262.924,371.582 245.891,350.26 234.276,335.751 228.647,328.909 228.62,328.861 228.586,328.818 224.549,323.872 223.664,322.96 217.14,316.497 215.449,314.322 213.154,311.302 212.852,306.35Z" test="RedBike container"/>
      <path id="Layer2_0_2_STROKES" stroke="#FFF" stroke-width="1.208" stroke-linejoin="round" stroke-linecap="round" fill="none" d="M229.583,337.516 L228.254,346 Q213.275,350.804 205,343.677 L203.792,337.878 Q221.187,342.771 222.818,338.301 L223.845,331.536 M229.885,337.939 L229.583,337.516 224.751,331.657 M223.845,331.536 L224.086,330.812 224.751,331.657 M267.212,390.97 L254.347,380.642 M245.408,385.896 L257.669,395.56" test="RedBike container"/>
      <path id="Layer2_0_3_STROKES" stroke="#FF0265" stroke-width="1.208" stroke-linejoin="round" stroke-linecap="round" fill="none" d="M223.845,331.536 Q213.637,330.812 203.128,330.268 180.478,329.181 178.424,330.449 176.25,331.657 175.344,334.677 174.921,336.187 174.498,340.174 174.196,342.892 172.082,348.388 169.847,353.945 168.639,354.73 168.226,355.026 164.683,354.519 164.609,354.5 164.532,354.488 L164.29,357.508 Q163.988,361.132 163.626,364.213 145.264,367.716 118.99,360.891 92.716,354.005 88.911,350.502 85.106,346 84.804,341.261 84.683,339.509 85.287,334.798 85.348,334.436 87.16,332.201 89.032,329.906 89.213,329 89.243,328.882 89.243,328.788 89.321,327.41 85.106,328.758 79.126,330.57 56.839,334.436 45.665,336.308 35.699,337.878 34.914,352.012 34.491,352.012 34.068,352.012 54,359.441 72.603,367.112 72.905,367.233 89.455,374.662 93.381,379.373 96.642,383.299 99.3,386.802 99.602,387.225 99.964,387.648 101.598,389.838 102.984,391.846 103.067,391.963 103.135,392.087 103.625,392.774 104.072,393.446 107.333,398.339 109.568,402.869 110.232,404.137 110.776,405.406 112.044,408.244 112.89,410.902 116.635,422.922 118.688,444.484 118.688,444.813 126.963,444.817 127.039,444.817 127.114,444.817 138.613,444.784 165.8,444.122 167.763,444.076 169.726,444.031 191.264,443.517 212.852,442.854 212.429,440.256 212.61,436.27 212.912,428.297 215.751,421.291 218.771,413.862 226.925,404.137 232.542,397.493 238.582,391.816 238.764,391.574 239.005,391.393 241.3,389.279 245.408,385.896 L253.562,379.615 257.669,376.474 Q247.58,362.345 241.27,353.552 241.241,353.506 241.21,353.462 232.75,341.711 231.093,339.57 L229.885,337.939 M223.845,331.536 Q224.268,331.597 224.751,331.657 224.992,331.657 225.294,331.657 L229.583,337.516 M89.213,329 Q98.998,334.617 108.3,339.026 123.762,346.516 133.003,348.509 L164.713,353.884 M111.803,390.185 Q115.004,394.473 117.662,399.184 126.299,414.345 126.54,428.358 126.782,442.37 127.144,441.344 L127.386,437.478 169.726,437.901 Q170.753,434.156 171.116,429.143 171.84,419.116 168.277,411.687 164.653,404.198 154.989,399.124 145.264,394.05 135.238,393.144 125.151,392.178 115.608,389.52 L109.477,387.286 111.803,390.185Z" test="RedBike container"/>
      <use xlink:href="#Bike-Wheel" transform="matrix(1.208 0 0 1.208 289.25 429.25)"/>
      <use xlink:href="#Bike-Wheel" transform="matrix(1.208 0 0 1.208 60.25 433.85)"/>
    </g>
  </g>
</svg>