<?xml version="1.0" encoding="utf-8"?>
<svg id="EdithAnim11" image-rendering="inherit" baseProfile="basic" version="1.1" x="0px" y="0px" width="800" height="600" xmlns="http://www.w3.org/2000/svg" xmlns:xlink="http://www.w3.org/1999/xlink">
  <defs>
    <g id="Bike-Wheel" overflow="visible">
      <path id="Layer5_0_1_STROKES" stroke="#FFF" stroke-width="1" stroke-linejoin="round" stroke-linecap="round" fill="none" d="M2.05 -34.85Q-12.35 -34.85 -22.65 -26.45 -34 -17.2 -34.7 -1.55 -35.4 14.3 -26.6 24.6 -18.4 34.2 -5.6 34.85 7.15 35.5 19.2 29.8 31.25 24.1 34.05 7.25 36.85 -9.65 28.9 -21.15 19.4 -34.85 2.05 -34.85Z" test="Bike Wheel"/>
      <path id="Layer4_0_1_STROKES" stroke="#FFF" stroke-width="1" stroke-linejoin="round" stroke-linecap="round" fill="none" d="M.55 -26.55Q4.65 -26.85 7.1 -26.15 9.75 -25.4 12 -23.15 13.95 -21.25 8 -15.35 5.3 -12.6 2.25 -10.2 1.95 -10 1.7 -9.8M24.45 -8.9Q26.2 -5.15 26.45 -2.65 26.7 .1 25.4 3.05 24.35 5.5 16.7 2.1 13.2 .6 9.85 -1.4 9.5 -1.6 9.25 -1.75M18.45 20Q15.75 23.1 13.55 24.35 11.2 25.75 8 25.75 5.3 25.75 5.25 17.4 5.2 13.55 5.65 9.7 5.7 9.35 5.75 9M-25.15 -7.15Q-24.25 -11.2 -22.85 -13.3 -21.4 -15.6 -18.6 -17.1 -16.2 -18.45 -12.25 -11.05 -10.4 -7.65 -9 -4.1 -8.9 -3.7 -8.75 -3.4M-12.85 23.8Q-16.75 22.4 -18.7 20.8 -20.85 19.05 -22.05 16.1 -23.1 13.6 -15.3 10.55 -11.75 9.05 -8 8.05 -7.65 8 -7.3 7.95" test="Bike Wheel"/>
    </g>
  </defs>
  <g id="19_Motorbikesf65r1" overflow="visible">
    <g id="Smokef5r1">
      <path fill="#000" stroke="none" d="M-28.858,216.302 Q-41.728,191.792 -114.239,197.275 -148.1,168.959 -236.689,165.669 -236.689,248.509 -236.689,331.348 -210.34,352.225 -163.244,335.778 -99.623,337.455 -92.437,316.32 -37.018,324.167 -1.493,307.612 26.399,311.59 41.218,295.68 48.891,300.711 66.471,297.142 81.128,296.174 89.816,291.251 95.46,297.099 109.304,291.767 117.546,289.725 125.828,287.639 129.401,291.939 140.444,288.477 143.368,287.919 146.291,287.316 156.197,291.015 170.935,286.027 182.953,286.027 190.017,284.049 196.635,282.371 198.746,278.888 219.614,281.383 233.824,275.749 244.462,276.996 250.755,271.643 254.003,273.277 260.539,272.052 266.061,271.686 269.593,270.03 272.029,271.944 277.226,270.138 280.433,269.407 283.6,268.698 285.224,270.095 289.365,268.912 291.639,268.525 293.872,268.138 297.201,268.052 300.53,267.967 300.53,267.257 300.896,265.666 301.058,264.935 301.22,264.204 301.22,263.215 301.22,262.226 300.084,262.355 298.947,262.484 298.419,261.624 297.972,261.581 294.724,260.914 293.019,261.431 290.218,260.614 286.523,260.742 282.098,258.421 273.937,259.624 269.755,257.561 263.625,256.937 263.056,256.83 262.529,256.743 260.783,256.206 256.682,256.292 244.177,249.218 230.536,251.841 228.425,252.142 226.273,252.615 219.249,243.758 192.9,245.327 178.893,236.469 152.218,235.544 145.113,232.943 135.41,233.18 124.732,225.891 102.93,229.223 91.724,222.064 73.414,220.129 68.461,219.398 56.402,220.43 16.411,203.015 -28.858,216.302Z" test="Smoke" vector-effect="non-scaling-stroke" stroke-width="1"/>
      <path id="Layer1_0_1_STROKES" stroke="#FFF" stroke-width="1" stroke-linejoin="round" stroke-linecap="round" fill="none" d="M300.53,267.967 Q297.201,268.052 293.872,268.138 291.639,268.525 289.365,268.912 285.224,270.095 283.6,268.698 280.433,269.407 277.226,270.138 272.029,271.944 269.593,270.03 266.061,271.686 260.539,272.052 254.003,273.277 250.755,271.643 244.462,276.996 233.824,275.749 219.614,281.383 198.746,278.888 196.635,282.371 190.017,284.049 182.953,286.027 170.935,286.027 156.197,291.015 146.291,287.316 143.368,287.919 140.444,288.477 129.401,291.939 125.828,287.639 117.546,289.725 109.304,291.767 95.46,297.099 89.816,291.251 81.128,296.174 66.471,297.142 48.891,300.711 41.218,295.68 26.399,311.59 -1.493,307.612 -37.018,324.167 -92.437,316.32 -99.623,337.455 -163.244,335.778 -210.34,352.225 -236.689,331.348 -236.689,248.509 -236.689,165.669 -148.1,168.959 -114.239,197.275 -41.728,191.792 -28.858,216.302 16.411,203.015 56.402,220.43 68.461,219.398 73.414,220.129 91.724,222.064 102.93,229.223 124.732,225.891 135.41,233.18 145.113,232.943 152.218,235.544 178.893,236.469 192.9,245.327 219.249,243.758 226.273,252.615 228.425,252.142 230.536,251.841 244.177,249.218 256.682,256.292 260.783,256.206 262.529,256.743 263.056,256.83 263.625,256.937 269.755,257.561 273.937,259.624 282.098,258.421 286.523,260.742 290.218,260.614 293.019,261.431 294.724,260.914 297.972,261.581 298.419,261.624 298.947,262.484 300.084,262.355 301.22,262.226 301.22,263.215 301.22,264.204 301.058,264.935 300.896,265.666 300.53,267.257 300.53,267.967Z" test="Smoke" vector-effect="non-scaling-stroke"/>
    </g>
    <g id="MotorBikeBluef5r1">
      <g id="BlueBikeContainer">
        <path fill="#000" stroke="none" d="M409.938,234.149 L409.088,233.501 403.949,240.289 415.837,245.331 417.963,247.237 Q421.503,243.416 423.873,240.809 L422.454,239.591 409.938,234.149 M375.56,207.225 Q375.231,211.147 360.285,211.03 L362.511,215.394 Q370.666,219.28 381.791,212.983 L380.787,205.126 375.656,201.503 Q375.257,201.56 374.906,201.603 L375.56,207.225 M396.863,185.463 Q377.218,177.047 369.747,176.807 363.949,176.627 362.626,178.801 362.311,179.353 361.803,181.097 361.343,182.828 360.65,183.897 361.97,187.784 364.459,189.694 366.282,191.061 372.894,194.798 373.8,195.333 378.074,198.409 378.134,198.429 378.136,198.444 384.148,202.696 396.576,211.746 414.81,225.052 417.089,225.052 420.932,225.091 427.22,222.702 434.41,220.015 434.782,217.014 435.176,213.903 432.692,210.489 430.855,207.935 423.559,200.552 417.266,194.19 396.863,185.463Z" test="BlueBikeContainer" vector-effect="non-scaling-stroke" stroke-width="1"/>
        <path id="Layer3_0_1_STROKES" stroke="#0FF" stroke-width="1" stroke-linejoin="round" stroke-linecap="round" fill="none" d="M360.65,183.897 Q361.343,182.828 361.803,181.097 362.311,179.353 362.626,178.801 363.949,176.627 369.747,176.807 377.218,177.047 396.863,185.463 417.266,194.19 423.559,200.552 430.855,207.935 432.692,210.489 435.176,213.903 434.782,217.014 434.41,220.015 427.22,222.702 420.932,225.091 417.089,225.052 414.81,225.052 396.576,211.746 384.148,202.696 378.166,198.461 378.134,198.429 378.098,198.402 373.8,195.333 372.894,194.798 366.282,191.061 364.459,189.694 361.97,187.784 360.65,183.897Z" test="BlueBikeContainer" vector-effect="non-scaling-stroke"/>
        <path id="Layer3_0_2_STROKES" stroke="#009EFF" stroke-width="1" stroke-linejoin="round" stroke-linecap="round" fill="none" d="M374.906,201.603 Q366.603,203.247 358.098,205.102 339.786,209.165 338.423,210.625 336.951,212.062 336.886,214.669 336.877,215.966 337.407,219.24 337.758,221.474 337.268,226.321 336.694,231.242 335.901,232.131 335.636,232.457 332.698,232.824 332.635,232.826 332.571,232.833 L333.036,235.295 Q333.584,238.253 333.965,240.79 320.075,247.583 297.622,247.857 275.156,248.082 271.357,246.115 267.557,244.148 266.067,239.635 265.589,238.263 265.046,234.372 265.015,234.07 265.974,231.892 266.969,229.653 266.916,228.89 266.915,228.79 266.894,228.715 266.656,227.598 263.586,229.592 259.209,232.34 242.265,240.277 233.755,244.204 226.144,247.627 228.595,259.076 228.257,259.168 227.92,259.261 245.443,260.85 261.959,262.921 262.226,262.951 277.05,265.277 281.209,268.182 284.667,270.605 287.55,272.822 287.883,273.093 288.264,273.352 290.767,275.31 292.804,277.085 296.472,280.279 299.242,283.407 300.048,284.275 300.758,285.169 302.389,287.158 303.642,289.095 309.247,297.871 315.581,314.632 315.752,315.258 353.098,304.085 371.729,298.536 390.369,292.829 389.467,290.849 388.743,287.628 387.248,281.2 387.988,274.991 388.781,268.405 393.171,258.869 396.207,252.344 399.791,246.498 399.883,246.266 400.036,246.069 401.408,243.882 403.949,240.289 L409.088,233.501 411.682,230.1 Q400.555,221.022 393.605,215.379 393.572,215.348 393.537,215.319 384.228,207.784 382.439,206.436 L381.12,205.398 M375.656,201.503 Q375.848,201.45 376.089,201.384 L380.787,205.126 M375.656,201.503 Q375.257,201.56 374.906,201.603 M266.916,228.89 Q275.948,231.243 284.33,232.736 298.3,235.347 306.109,234.925 L332.584,232.311 M295.876,271.068 L298.264,272.799 Q301.752,275.524 304.899,278.705 315.092,288.923 318.336,300.053 321.579,311.182 321.645,310.284 L320.996,307.147 354.876,298.266 Q354.88,295.054 354.078,290.975 352.474,282.816 348.012,277.663 343.49,272.475 334.673,270.53 325.808,268.599 317.61,270.058 309.35,271.483 301.156,271.44 L295.876,271.068Z" test="BlueBikeContainer" vector-effect="non-scaling-stroke"/>
        <path id="Layer3_0_3_STROKES" stroke="#FFF" stroke-width="1" stroke-linejoin="round" stroke-linecap="round" fill="none" d="M381.12,205.398 L380.787,205.126 381.791,212.983 Q370.666,219.28 362.511,215.394 L360.285,211.03 Q375.231,211.147 375.56,207.225 L374.906,201.603 374.941,200.972 375.656,201.503 380.787,205.126 M422.454,239.591 L409.938,234.149 M403.949,240.289 L415.837,245.331" test="BlueBikeContainer" vector-effect="non-scaling-stroke"/>
        <use xlink:href="#Bike-Wheel" transform="matrix(.964 -.263 .263 .964 448.35 265.35)"/>
        <use xlink:href="#Bike-Wheel" transform="matrix(.964 -.263 .263 .964 266.65 318.85)"/>
      </g>
    </g>
    <g id="MotorBikePinkf0r1">
      <path fill="#000" stroke="none" d="M84.804,341.261 Q85.106,346 88.911,350.502 92.716,354.005 118.99,360.891 145.264,367.716 163.626,364.213 163.988,361.132 164.29,357.508 L164.532,354.488 Q164.609,354.5 164.653,354.488 L164.713,353.884 133.003,348.509 Q123.762,346.516 108.3,339.026 98.998,334.617 89.213,329 89.032,329.906 87.16,332.201 85.348,334.436 85.287,334.798 84.683,339.509 84.804,341.261 M254.347,380.642 L253.562,379.615 245.408,385.896 257.669,395.56 259.541,398.46 Q264.887,395.129 268.48,392.842 L267.212,390.97 254.347,380.642 M222.818,338.301 Q221.187,342.771 203.792,337.878 L205,343.677 Q213.275,350.804 228.254,346 L229.583,337.516 224.751,331.657 Q224.268,331.597 223.845,331.536 L222.818,338.301 M203.792,337.878 Q221.187,342.771 222.818,338.301 L223.845,331.536 Q213.637,330.812 203.128,330.268 180.478,329.181 178.424,330.449 176.25,331.657 175.344,334.677 174.921,336.187 174.498,340.174 174.196,342.892 172.082,348.388 169.847,353.945 168.639,354.73 168.226,355.026 164.653,354.488 164.609,354.5 164.532,354.488 L164.29,357.508 Q163.988,361.132 163.626,364.213 145.264,367.716 118.99,360.891 92.716,354.005 88.911,350.502 85.106,346 84.804,341.261 84.683,339.509 85.287,334.798 85.348,334.436 87.16,332.201 89.032,329.906 89.213,329 89.243,328.882 89.213,328.758 89.321,327.41 85.106,328.758 79.126,330.57 56.839,334.436 45.665,336.308 35.699,337.878 34.914,352.012 34.491,352.012 34.068,352.012 54,359.441 72.603,367.112 72.905,367.233 89.455,374.662 93.381,379.373 96.642,383.299 99.3,386.802 99.602,387.225 99.964,387.648 101.598,389.838 102.984,391.816 103.067,391.963 103.105,392.057 103.625,392.774 104.072,393.446 107.333,398.339 109.568,402.869 110.232,404.137 110.776,405.406 112.044,408.244 112.89,410.902 116.635,422.922 118.688,444.484 118.688,444.813 126.963,444.786 127.039,444.817 127.084,444.786 138.613,444.784 165.8,444.122 167.763,444.076 169.726,444.001 191.264,443.517 212.852,442.854 212.429,440.256 212.61,436.27 212.912,428.297 215.751,421.291 218.771,413.862 226.925,404.137 232.542,397.493 238.582,391.816 238.764,391.574 239.005,391.393 241.3,389.279 245.408,385.896 L253.562,379.615 257.669,376.474 Q247.58,362.345 241.24,353.522 241.241,353.506 241.18,353.462 232.75,341.711 231.093,339.57 L229.885,337.939 229.583,337.516 228.254,346 Q213.275,350.804 205,343.677 L203.792,337.878 M154.989,399.124 Q164.653,404.198 168.277,411.687 171.84,419.116 171.116,429.143 170.753,434.156 169.726,437.901 L127.386,437.478 127.144,441.344 Q126.782,442.37 126.54,428.358 126.299,414.345 117.662,399.184 115.004,394.473 111.803,390.185 L109.447,387.286 115.608,389.52 Q125.151,392.178 135.238,393.144 145.264,394.05 154.989,399.124 M168.277,411.687 Q164.653,404.198 154.989,399.124 145.264,394.05 135.238,393.144 125.151,392.178 115.608,389.52 L109.447,387.286 111.803,390.185 Q115.004,394.473 117.662,399.184 126.299,414.345 126.54,428.358 126.782,442.37 127.144,441.344 L127.386,437.478 169.726,437.901 Q170.753,434.156 171.116,429.143 171.84,419.116 168.277,411.687 M254.588,319.698 Q234.354,303.632 225.717,300.974 219.013,298.92 216.778,301.034 216.234,301.578 215.087,303.45 214,305.323 212.852,306.35 213.154,311.302 215.449,314.322 217.14,316.497 223.664,322.96 224.549,323.872 228.556,328.818 228.62,328.861 228.616,328.879 234.276,335.751 245.891,350.26 262.924,371.582 265.581,372.306 270.051,373.575 278.144,372.79 287.386,371.944 288.775,368.562 290.224,365.058 288.412,360.287 287.084,356.723 280.923,345.791 275.608,336.368 254.588,319.698Z" test="RedBike container" stroke-width="1.208"/>
      <path id="Layer2_0_1_STROKES" stroke="#0FF" stroke-width="1.208" stroke-linejoin="round" stroke-linecap="round" fill="none" d="M212.852,306.35 Q214,305.323 215.087,303.45 216.234,301.578 216.778,301.034 219.013,298.92 225.717,300.974 234.354,303.632 254.588,319.698 275.608,336.368 280.923,345.791 287.084,356.723 288.412,360.287 290.224,365.058 288.775,368.562 287.386,371.944 278.144,372.79 270.051,373.575 265.581,372.306 262.924,371.582 245.891,350.26 234.276,335.751 228.647,328.909 228.62,328.861 228.586,328.818 224.549,323.872 223.664,322.96 217.14,316.497 215.449,314.322 213.154,311.302 212.852,306.35Z" test="RedBike container"/>
      <path id="Layer2_0_2_STROKES" stroke="#FFF" stroke-width="1.208" stroke-linejoin="round" stroke-linecap="round" fill="none" d="M229.583,337.516 L228.254,346 Q213.275,350.804 205,343.677 L203.792,337.878 Q221.187,342.771 222.818,338.301 L223.845,331.536 M229.885,337.939 L229.583,337.516 224.751,331.657 M223.845,331.536 L224.086,330.812 224.751,331.657 M267.212,390.97 L254.347,380.642 M245.408,385.896 L257.669,395.56" test="RedBike container"/>
      <path id="Layer2_0_3_STROKES" stroke="#FF0265" stroke-width="1.208" stroke-linejoin="round" stroke-linecap="round" fill="none" d="M223.845,331.536 Q213.637,330.812 203.128,330.268 180.478,329.181 178.424,330.449 176.25,331.657 175.344,334.677 174.921,336.187 174.498,340.174 174.196,342.892 172.082,348.388 169.847,353.945 168.639,354.73 168.226,355.026 164.683,354.519 164.609,354.5 164.532,354.488 L164.29,357.508 Q163.988,361.132 163.626,364.213 145.264,367.716 118.99,360.891 92.716,354.005 88.911,350.502 85.106,346 84.804,341.261 84.683,339.509 85.287,334.798 85.348,334.436 87.16,332.201 89.032,329.906 89.213,329 89.243,328.882 89.243,328.788 89.321,327.41 85.106,328.758 79.126,330.57 56.839,334.436 45.665,336.308 35.699,337.878 34.914,352.012 34.491,352.012 34.068,352.012 54,359.441 72.603,367.112 72.905,367.233 89.455,374.662 93.381,379.373 96.642,383.299 99.3,386.802 99.602,387.225 99.964,387.648 101.598,389.838 102.984,391.846 103.067,391.963 103.135,392.087 103.625,392.774 104.072,393.446 107.333,398.339 109.568,402.869 110.232,404.137 110.776,405.406 112.044,408.244 112.89,410.902 116.635,422.922 118.688,444.484 118.688,444.813 126.963,444.817 127.039,444.817 127.114,444.817 138.613,444.784 165.8,444.122 167.763,444.076 169.726,444.031 191.264,443.517 212.852,442.854 212.429,440.256 212.61,436.27 212.912,428.297 215.751,421.291 218.771,413.862 226.925,404.137 232.542,397.493 238.582,391.816 238.764,391.574 239.005,391.393 241.3,389.279 245.408,385.896 L253.562,379.615 257.669,376.474 Q247.58,362.345 241.27,353.552 241.241,353.506 241.21,353.462 232.75,341.711 231.093,339.57 L229.885,337.939 M223.845,331.536 Q224.268,331.597 224.751,331.657 224.992,331.657 225.294,331.657 L229.583,337.516 M89.213,329 Q98.998,334.617 108.3,339.026 123.762,346.516 133.003,348.509 L164.713,353.884 M111.803,390.185 Q115.004,394.473 117.662,399.184 126.299,414.345 126.54,428.358 126.782,442.37 127.144,441.344 L127.386,437.478 169.726,437.901 Q170.753,434.156 171.116,429.143 171.84,419.116 168.277,411.687 164.653,404.198 154.989,399.124 145.264,394.05 135.238,393.144 125.151,392.178 115.608,389.52 L109.477,387.286 111.803,390.185Z" test="RedBike container"/>
      <use xlink:href="#Bike-Wheel" transform="matrix(1.208 0 0 1.208 289.25 429.25)"/>
      <use xlink:href="#Bike-Wheel" transform="matrix(1.208 0 0 1.208 60.25 433.85)"/>
    </g>
  </g>
</svg>