<?xml version="1.0" encoding="utf-8"?>
<svg id="EdithAnim11" image-rendering="inherit" baseProfile="basic" version="1.1" x="0px" y="0px" width="800" height="600" xmlns="http://www.w3.org/2000/svg" xmlns:xlink="http://www.w3.org/1999/xlink">
  <defs>
    <g id="Bike-Wheel" overflow="visible">
      <path id="Layer5_0_1_STROKES" stroke="#FFF" stroke-width="1" stroke-linejoin="round" stroke-linecap="round" fill="none" d="M2.05 -34.85Q-12.35 -34.85 -22.65 -26.45 -34 -17.2 -34.7 -1.55 -35.4 14.3 -26.6 24.6 -18.4 34.2 -5.6 34.85 7.15 35.5 19.2 29.8 31.25 24.1 34.05 7.25 36.85 -9.65 28.9 -21.15 19.4 -34.85 2.05 -34.85Z" test="Bike Wheel"/>
      <path id="Layer4_0_1_STROKES" stroke="#FFF" stroke-width="1" stroke-linejoin="round" stroke-linecap="round" fill="none" d="M.55 -26.55Q4.65 -26.85 7.1 -26.15 9.75 -25.4 12 -23.15 13.95 -21.25 8 -15.35 5.3 -12.6 2.25 -10.2 1.95 -10 1.7 -9.8M24.45 -8.9Q26.2 -5.15 26.45 -2.65 26.7 .1 25.4 3.05 24.35 5.5 16.7 2.1 13.2 .6 9.85 -1.4 9.5 -1.6 9.25 -1.75M18.45 20Q15.75 23.1 13.55 24.35 11.2 25.75 8 25.75 5.3 25.75 5.25 17.4 5.2 13.55 5.65 9.7 5.7 9.35 5.75 9M-25.15 -7.15Q-24.25 -11.2 -22.85 -13.3 -21.4 -15.6 -18.6 -17.1 -16.2 -18.45 -12.25 -11.05 -10.4 -7.65 -9 -4.1 -8.9 -3.7 -8.75 -3.4M-12.85 23.8Q-16.75 22.4 -18.7 20.8 -20.85 19.05 -22.05 16.1 -23.1 13.6 -15.3 10.55 -11.75 9.05 -8 8.05 -7.65 8 -7.3 7.95" test="Bike Wheel"/>
    </g>
  </defs>
  <g id="19_Motorbikesf66r1" overflow="visible">
    <g id="Smokef6r1">
      <path fill="#000" stroke="none" d="M-18.289,208.773 Q-31.112,183.639 -102.296,189.256 -135.737,160.228 -222.769,156.853 -222.769,247.784 -222.769,338.714 -196.911,360.143 -150.69,343.364 -88.323,345.134 -81.167,323.563 -26.809,331.658 8.08,314.76 35.43,318.867 49,302.606 57.539,307.775 74.792,304.14 89.148,303.149 97.668,298.122 103.249,304.117 116.796,298.689 124.932,296.588 133.026,294.464 136.562,298.901 147.382,295.361 150.279,294.771 153.133,294.181 165.147,299.137 183.209,292.671 198.034,292.765 206.596,290.216 214.605,287.998 216.991,283.42 242.551,286.724 259.804,279.313 272.797,280.989 280.294,273.909 284.214,276.08 292.222,274.475 298.953,274.003 303.213,271.808 306.153,274.334 312.543,271.95 316.419,271.03 320.296,270.086 322.213,271.95 327.282,270.392 330.051,269.873 332.778,269.354 336.867,269.236 340.914,269.142 340.914,268.363 341.298,266.616 341.468,265.814 341.638,265.012 341.638,263.926 341.638,262.84 340.233,263.006 338.827,263.147 338.23,262.038 337.719,261.967 333.715,261.07 331.67,261.755 328.262,260.646 323.789,260.811 318.464,257.719 308.453,259.277 303.426,256.539 295.971,255.69 295.247,255.548 294.565,255.43 292.393,254.816 287.281,255.005 271.817,246.273 254.862,249.79 252.306,250.214 249.665,250.852 241.656,239.382 209.152,241.53 192.709,229.989 159.822,228.55 152.793,225.859 143.25,226.119 132.728,218.638 111.3,222.036 100.267,214.72 82.29,212.714 77.391,211.959 65.548,213.021 26.228,195.179 -18.289,208.773Z" test="Smoke" vector-effect="non-scaling-stroke" stroke-width="1"/>
      <path id="Layer1_0_1_STROKES" stroke="#FFF" stroke-width="1" stroke-linejoin="round" stroke-linecap="round" fill="none" d="M340.914,269.142 Q336.867,269.236 332.778,269.354 330.051,269.873 327.282,270.392 322.213,271.95 320.296,270.086 316.419,271.03 312.543,271.95 306.153,274.334 303.213,271.808 298.953,274.003 292.222,274.475 284.214,276.08 280.294,273.909 272.797,280.989 259.804,279.313 242.551,286.724 216.991,283.42 214.605,287.998 206.596,290.216 198.034,292.765 183.209,292.671 165.147,299.137 153.133,294.181 150.279,294.771 147.382,295.361 136.562,298.901 133.026,294.464 124.932,296.588 116.796,298.689 103.249,304.117 97.668,298.122 89.148,303.149 74.792,304.14 57.539,307.775 49,302.606 35.43,318.867 8.08,314.76 -26.809,331.658 -81.167,323.563 -88.323,345.134 -150.69,343.364 -196.911,360.143 -222.769,338.714 -222.769,247.784 -222.769,156.853 -135.737,160.228 -102.296,189.256 -31.112,183.639 -18.289,208.773 26.228,195.179 65.548,213.021 77.391,211.959 82.29,212.714 100.267,214.72 111.3,222.036 132.728,218.638 143.25,226.119 152.793,225.859 159.822,228.55 192.709,229.989 209.152,241.53 241.656,239.382 249.665,250.852 252.306,250.214 254.862,249.79 271.817,246.273 287.281,255.005 292.393,254.816 294.565,255.43 295.247,255.548 295.971,255.69 303.426,256.539 308.453,259.277 318.464,257.719 323.789,260.811 328.262,260.646 331.67,261.755 333.715,261.07 337.719,261.967 338.23,262.038 338.827,263.147 340.233,263.006 341.638,262.84 341.638,263.926 341.638,265.012 341.468,265.814 341.298,266.616 340.914,268.363 340.914,269.142Z" test="Smoke" vector-effect="non-scaling-stroke"/>
    </g>
    <g id="MotorBikeBluef6r1">
      <g id="BlueBikeContainer">
        <path fill="#000" stroke="none" d="M448.826,226.788 L447.943,226.186 443.177,233.235 455.311,237.632 457.534,239.42 Q460.863,235.417 463.089,232.689 L461.607,231.549 448.826,226.788 M413.078,201.756 Q412.96,205.687 398.037,206.369 L400.492,210.606 Q408.838,214.048 419.604,207.168 L418.182,199.381 412.867,196.039 Q412.473,196.118 412.125,196.18 L413.078,201.756 M433.174,178.898 Q413.119,171.549 405.65,171.709 399.855,171.84 398.651,174.08 398.365,174.648 397.952,176.415 397.585,178.168 396.951,179.272 398.476,183.08 401.062,184.853 402.954,186.12 409.753,189.496 410.685,189.982 415.116,192.822 415.177,192.839 415.179,192.854 421.407,196.776 434.293,205.144 453.202,217.448 455.476,217.326 459.313,217.16 465.461,214.44 472.493,211.374 472.704,208.359 472.931,205.233 470.269,201.959 468.3,199.508 460.623,192.53 454.003,186.517 433.174,178.898Z" test="BlueBikeContainer" vector-effect="non-scaling-stroke" stroke-width="1"/>
        <path id="Layer3_0_1_STROKES" stroke="#0FF" stroke-width="1" stroke-linejoin="round" stroke-linecap="round" fill="none" d="M396.951,179.272 Q397.585,178.168 397.952,176.415 398.365,174.648 398.651,174.08 399.855,171.84 405.65,171.709 413.119,171.549 433.174,178.898 454.003,186.517 460.623,192.53 468.3,199.508 470.269,201.959 472.931,205.233 472.704,208.359 472.493,211.374 465.461,214.44 459.313,217.16 455.476,217.326 453.202,217.448 434.293,205.144 421.407,196.776 415.21,192.87 415.177,192.839 415.139,192.815 410.685,189.982 409.753,189.496 402.954,186.12 401.062,184.853 398.476,183.08 396.951,179.272Z" test="BlueBikeContainer" vector-effect="non-scaling-stroke"/>
        <path id="Layer3_0_2_STROKES" stroke="#009EFF" stroke-width="1" stroke-linejoin="round" stroke-linecap="round" fill="none" d="M412.125,196.18 Q403.926,198.265 395.537,200.57 377.48,205.604 376.198,207.133 374.805,208.646 374.879,211.252 374.94,212.547 375.644,215.785 376.114,217.997 375.884,222.86 375.574,227.801 374.83,228.731 374.583,229.071 371.671,229.594 371.608,229.599 371.544,229.609 L372.14,232.042 Q372.845,234.965 373.361,237.476 359.862,244.998 337.469,246.472 315.06,247.897 311.163,246.137 307.266,244.377 305.538,239.953 304.988,238.61 304.237,234.755 304.19,234.455 305.032,232.23 305.904,229.943 305.811,229.185 305.804,229.085 305.78,229.011 305.482,227.909 302.525,230.063 298.303,233.039 281.818,241.866 273.535,246.24 266.123,250.063 269.18,261.358 268.848,261.468 268.517,261.578 286.09,262.227 302.683,263.411 302.951,263.428 317.87,264.956 322.175,267.633 325.756,269.866 328.752,271.924 329.099,272.178 329.493,272.415 332.095,274.236 334.223,275.898 338.055,278.89 340.986,281.864 341.837,282.686 342.593,283.541 344.327,285.439 345.681,287.304 351.744,295.764 358.961,312.152 359.165,312.768 395.838,299.621 414.136,293.087 432.433,286.396 431.426,284.467 430.532,281.292 428.697,274.957 429.104,268.72 429.543,262.105 433.414,252.354 436.095,245.68 439.359,239.654 439.439,239.418 439.581,239.213 440.833,236.957 443.177,233.235 L447.943,226.186 450.35,222.654 Q438.76,214.188 431.523,208.928 431.488,208.899 431.452,208.872 421.758,201.85 419.901,200.6 L418.529,199.634 M412.867,196.039 Q413.057,195.977 413.294,195.898 L418.182,199.381 M412.867,196.039 Q412.473,196.118 412.125,196.18 M305.811,229.185 Q314.95,231.049 323.396,232.092 337.477,233.95 345.247,233.112 L371.529,229.088 M336.967,269.729 L339.443,271.329 Q343.07,273.862 346.38,276.869 357.099,286.521 360.931,297.455 364.763,308.389 364.78,307.489 L363.965,304.393 397.302,293.719 Q397.135,290.513 396.116,286.484 394.079,278.428 389.351,273.524 384.56,268.588 375.657,267.119 366.707,265.665 358.603,267.56 350.436,269.423 342.256,269.818 L336.967,269.729Z" test="BlueBikeContainer" vector-effect="non-scaling-stroke"/>
        <path id="Layer3_0_3_STROKES" stroke="#FFF" stroke-width="1" stroke-linejoin="round" stroke-linecap="round" fill="none" d="M418.529,199.634 L418.182,199.381 419.604,207.168 Q408.838,214.048 400.492,210.606 L398.037,206.369 Q412.96,205.687 413.078,201.756 L412.125,196.18 412.126,195.548 412.867,196.039 418.182,199.381 M461.607,231.549 L448.826,226.788 M443.177,233.235 L455.311,237.632" test="BlueBikeContainer" vector-effect="non-scaling-stroke"/>
        <use xlink:href="#Bike-Wheel" transform="matrix(.948 -.314 .314 .948 488.85 255.85)"/>
        <use xlink:href="#Bike-Wheel" transform="matrix(.948 -.314 .314 .948 310.35 318.95)"/>
      </g>
    </g>
    <g id="MotorBikePinkf0r1">
      <path fill="#000" stroke="none" d="M84.804,341.261 Q85.106,346 88.911,350.502 92.716,354.005 118.99,360.891 145.264,367.716 163.626,364.213 163.988,361.132 164.29,357.508 L164.532,354.488 Q164.609,354.5 164.653,354.488 L164.713,353.884 133.003,348.509 Q123.762,346.516 108.3,339.026 98.998,334.617 89.213,329 89.032,329.906 87.16,332.201 85.348,334.436 85.287,334.798 84.683,339.509 84.804,341.261 M254.347,380.642 L253.562,379.615 245.408,385.896 257.669,395.56 259.541,398.46 Q264.887,395.129 268.48,392.842 L267.212,390.97 254.347,380.642 M222.818,338.301 Q221.187,342.771 203.792,337.878 L205,343.677 Q213.275,350.804 228.254,346 L229.583,337.516 224.751,331.657 Q224.268,331.597 223.845,331.536 L222.818,338.301 M203.792,337.878 Q221.187,342.771 222.818,338.301 L223.845,331.536 Q213.637,330.812 203.128,330.268 180.478,329.181 178.424,330.449 176.25,331.657 175.344,334.677 174.921,336.187 174.498,340.174 174.196,342.892 172.082,348.388 169.847,353.945 168.639,354.73 168.226,355.026 164.653,354.488 164.609,354.5 164.532,354.488 L164.29,357.508 Q163.988,361.132 163.626,364.213 145.264,367.716 118.99,360.891 92.716,354.005 88.911,350.502 85.106,346 84.804,341.261 84.683,339.509 85.287,334.798 85.348,334.436 87.16,332.201 89.032,329.906 89.213,329 89.243,328.882 89.213,328.758 89.321,327.41 85.106,328.758 79.126,330.57 56.839,334.436 45.665,336.308 35.699,337.878 34.914,352.012 34.491,352.012 34.068,352.012 54,359.441 72.603,367.112 72.905,367.233 89.455,374.662 93.381,379.373 96.642,383.299 99.3,386.802 99.602,387.225 99.964,387.648 101.598,389.838 102.984,391.816 103.067,391.963 103.105,392.057 103.625,392.774 104.072,393.446 107.333,398.339 109.568,402.869 110.232,404.137 110.776,405.406 112.044,408.244 112.89,410.902 116.635,422.922 118.688,444.484 118.688,444.813 126.963,444.786 127.039,444.817 127.084,444.786 138.613,444.784 165.8,444.122 167.763,444.076 169.726,444.001 191.264,443.517 212.852,442.854 212.429,440.256 212.61,436.27 212.912,428.297 215.751,421.291 218.771,413.862 226.925,404.137 232.542,397.493 238.582,391.816 238.764,391.574 239.005,391.393 241.3,389.279 245.408,385.896 L253.562,379.615 257.669,376.474 Q247.58,362.345 241.24,353.522 241.241,353.506 241.18,353.462 232.75,341.711 231.093,339.57 L229.885,337.939 229.583,337.516 228.254,346 Q213.275,350.804 205,343.677 L203.792,337.878 M154.989,399.124 Q164.653,404.198 168.277,411.687 171.84,419.116 171.116,429.143 170.753,434.156 169.726,437.901 L127.386,437.478 127.144,441.344 Q126.782,442.37 126.54,428.358 126.299,414.345 117.662,399.184 115.004,394.473 111.803,390.185 L109.447,387.286 115.608,389.52 Q125.151,392.178 135.238,393.144 145.264,394.05 154.989,399.124 M168.277,411.687 Q164.653,404.198 154.989,399.124 145.264,394.05 135.238,393.144 125.151,392.178 115.608,389.52 L109.447,387.286 111.803,390.185 Q115.004,394.473 117.662,399.184 126.299,414.345 126.54,428.358 126.782,442.37 127.144,441.344 L127.386,437.478 169.726,437.901 Q170.753,434.156 171.116,429.143 171.84,419.116 168.277,411.687 M254.588,319.698 Q234.354,303.632 225.717,300.974 219.013,298.92 216.778,301.034 216.234,301.578 215.087,303.45 214,305.323 212.852,306.35 213.154,311.302 215.449,314.322 217.14,316.497 223.664,322.96 224.549,323.872 228.556,328.818 228.62,328.861 228.616,328.879 234.276,335.751 245.891,350.26 262.924,371.582 265.581,372.306 270.051,373.575 278.144,372.79 287.386,371.944 288.775,368.562 290.224,365.058 288.412,360.287 287.084,356.723 280.923,345.791 275.608,336.368 254.588,319.698Z" test="RedBike container" stroke-width="1.208"/>
      <path id="Layer2_0_1_STROKES" stroke="#0FF" stroke-width="1.208" stroke-linejoin="round" stroke-linecap="round" fill="none" d="M212.852,306.35 Q214,305.323 215.087,303.45 216.234,301.578 216.778,301.034 219.013,298.92 225.717,300.974 234.354,303.632 254.588,319.698 275.608,336.368 280.923,345.791 287.084,356.723 288.412,360.287 290.224,365.058 288.775,368.562 287.386,371.944 278.144,372.79 270.051,373.575 265.581,372.306 262.924,371.582 245.891,350.26 234.276,335.751 228.647,328.909 228.62,328.861 228.586,328.818 224.549,323.872 223.664,322.96 217.14,316.497 215.449,314.322 213.154,311.302 212.852,306.35Z" test="RedBike container"/>
      <path id="Layer2_0_2_STROKES" stroke="#FFF" stroke-width="1.208" stroke-linejoin="round" stroke-linecap="round" fill="none" d="M229.583,337.516 L228.254,346 Q213.275,350.804 205,343.677 L203.792,337.878 Q221.187,342.771 222.818,338.301 L223.845,331.536 M229.885,337.939 L229.583,337.516 224.751,331.657 M223.845,331.536 L224.086,330.812 224.751,331.657 M267.212,390.97 L254.347,380.642 M245.408,385.896 L257.669,395.56" test="RedBike container"/>
      <path id="Layer2_0_3_STROKES" stroke="#FF0265" stroke-width="1.208" stroke-linejoin="round" stroke-linecap="round" fill="none" d="M223.845,331.536 Q213.637,330.812 203.128,330.268 180.478,329.181 178.424,330.449 176.25,331.657 175.344,334.677 174.921,336.187 174.498,340.174 174.196,342.892 172.082,348.388 169.847,353.945 168.639,354.73 168.226,355.026 164.683,354.519 164.609,354.5 164.532,354.488 L164.29,357.508 Q163.988,361.132 163.626,364.213 145.264,367.716 118.99,360.891 92.716,354.005 88.911,350.502 85.106,346 84.804,341.261 84.683,339.509 85.287,334.798 85.348,334.436 87.16,332.201 89.032,329.906 89.213,329 89.243,328.882 89.243,328.788 89.321,327.41 85.106,328.758 79.126,330.57 56.839,334.436 45.665,336.308 35.699,337.878 34.914,352.012 34.491,352.012 34.068,352.012 54,359.441 72.603,367.112 72.905,367.233 89.455,374.662 93.381,379.373 96.642,383.299 99.3,386.802 99.602,387.225 99.964,387.648 101.598,389.838 102.984,391.846 103.067,391.963 103.135,392.087 103.625,392.774 104.072,393.446 107.333,398.339 109.568,402.869 110.232,404.137 110.776,405.406 112.044,408.244 112.89,410.902 116.635,422.922 118.688,444.484 118.688,444.813 126.963,444.817 127.039,444.817 127.114,444.817 138.613,444.784 165.8,444.122 167.763,444.076 169.726,444.031 191.264,443.517 212.852,442.854 212.429,440.256 212.61,436.27 212.912,428.297 215.751,421.291 218.771,413.862 226.925,404.137 232.542,397.493 238.582,391.816 238.764,391.574 239.005,391.393 241.3,389.279 245.408,385.896 L253.562,379.615 257.669,376.474 Q247.58,362.345 241.27,353.552 241.241,353.506 241.21,353.462 232.75,341.711 231.093,339.57 L229.885,337.939 M223.845,331.536 Q224.268,331.597 224.751,331.657 224.992,331.657 225.294,331.657 L229.583,337.516 M89.213,329 Q98.998,334.617 108.3,339.026 123.762,346.516 133.003,348.509 L164.713,353.884 M111.803,390.185 Q115.004,394.473 117.662,399.184 126.299,414.345 126.54,428.358 126.782,442.37 127.144,441.344 L127.386,437.478 169.726,437.901 Q170.753,434.156 171.116,429.143 171.84,419.116 168.277,411.687 164.653,404.198 154.989,399.124 145.264,394.05 135.238,393.144 125.151,392.178 115.608,389.52 L109.477,387.286 111.803,390.185Z" test="RedBike container"/>
      <use xlink:href="#Bike-Wheel" transform="matrix(1.208 0 0 1.208 289.25 429.25)"/>
      <use xlink:href="#Bike-Wheel" transform="matrix(1.208 0 0 1.208 60.25 433.85)"/>
    </g>
  </g>
</svg>