<?xml version="1.0" encoding="utf-8"?>
<svg id="EdithAnim11" image-rendering="inherit" baseProfile="basic" version="1.1" x="0px" y="0px" width="800" height="600" xmlns="http://www.w3.org/2000/svg" xmlns:xlink="http://www.w3.org/1999/xlink">
  <defs>
    <g id="Bike-Wheel" overflow="visible">
      <path id="Layer5_0_1_STROKES" stroke="#FFF" stroke-width="1" stroke-linejoin="round" stroke-linecap="round" fill="none" d="M2.05 -34.85Q-12.35 -34.85 -22.65 -26.45 -34 -17.2 -34.7 -1.55 -35.4 14.3 -26.6 24.6 -18.4 34.2 -5.6 34.85 7.15 35.5 19.2 29.8 31.25 24.1 34.05 7.25 36.85 -9.65 28.9 -21.15 19.4 -34.85 2.05 -34.85Z" test="Bike Wheel"/>
      <path id="Layer4_0_1_STROKES" stroke="#FFF" stroke-width="1" stroke-linejoin="round" stroke-linecap="round" fill="none" d="M.55 -26.55Q4.65 -26.85 7.1 -26.15 9.75 -25.4 12 -23.15 13.95 -21.25 8 -15.35 5.3 -12.6 2.25 -10.2 1.95 -10 1.7 -9.8M24.45 -8.9Q26.2 -5.15 26.45 -2.65 26.7 .1 25.4 3.05 24.35 5.5 16.7 2.1 13.2 .6 9.85 -1.4 9.5 -1.6 9.25 -1.75M18.45 20Q15.75 23.1 13.55 24.35 11.2 25.75 8 25.75 5.3 25.75 5.25 17.4 5.2 13.55 5.65 9.7 5.7 9.35 5.75 9M-25.15 -7.15Q-24.25 -11.2 -22.85 -13.3 -21.4 -15.6 -18.6 -17.1 -16.2 -18.45 -12.25 -11.05 -10.4 -7.65 -9 -4.1 -8.9 -3.7 -8.75 -3.4M-12.85 23.8Q-16.75 22.4 -18.7 20.8 -20.85 19.05 -22.05 16.1 -23.1 13.6 -15.3 10.55 -11.75 9.05 -8 8.05 -7.65 8 -7.3 7.95" test="Bike Wheel"/>
    </g>
  </defs>
  <g id="19_Motorbikesf67r1" overflow="visible">
    <g id="Smokef7r1">
      <path fill="#000" stroke="none" d="M76.74,204.407 Q38.167,186.164 -5.513,200.047 -18.281,174.357 -87.99,180.092 -120.963,150.431 -206.262,146.979 -206.262,246.965 -206.262,346.95 -180.95,368.904 -135.702,351.829 -74.729,353.723 -67.651,331.769 -14.473,340.099 19.709,322.92 46.5,327.15 60.791,310.594 68.183,315.862 85.028,312.177 99.095,311.191 107.472,306.079 112.938,312.229 126.199,306.702 134.173,304.574 142.103,302.42 145.552,306.935 156.125,303.328 158.992,302.757 161.77,302.134 176.106,308.596 197.879,300.396 215.709,300.577 225.924,297.36 235.511,294.531 238.244,288.666 268.976,292.922 289.495,283.424 305.13,285.578 313.956,276.522 318.57,279.298 328.247,277.248 336.356,276.652 341.418,273.849 344.868,277.093 352.528,274.031 357.188,272.837 361.847,271.643 364.087,274.031 370.18,272.032 373.495,271.384 376.81,270.709 381.693,270.579 386.532,270.449 386.532,269.593 386.935,267.673 387.114,266.791 387.293,265.908 387.293,264.715 387.293,263.521 385.636,263.728 383.933,263.91 383.216,262.483 382.634,262.379 377.796,261.237 375.421,262.068 371.344,260.666 365.968,260.848 359.652,256.852 347.6,258.824 341.642,255.295 332.727,254.179 331.876,253.997 330.98,253.867 328.381,253.167 322.109,253.478 303.383,242.787 282.775,247.354 279.728,247.925 276.592,248.755 267.453,234.223 228.208,237.078 209.034,222.39 169.252,220.288 162.352,217.563 153.034,217.797 142.64,210.168 121.674,213.619 110.832,206.145 93.181,204.121 88.343,203.343 76.74,204.407Z" test="Smoke" vector-effect="non-scaling-stroke" stroke-width="1"/>
      <path id="Layer1_0_1_STROKES" stroke="#FFF" stroke-width="1" stroke-linejoin="round" stroke-linecap="round" fill="none" d="M386.532,270.449 Q381.693,270.579 376.81,270.709 373.495,271.384 370.18,272.032 364.087,274.031 361.847,271.643 357.188,272.837 352.528,274.031 344.868,277.093 341.418,273.849 336.356,276.652 328.247,277.248 318.57,279.298 313.956,276.522 305.13,285.578 289.495,283.424 268.976,292.922 238.244,288.666 235.511,294.531 225.924,297.36 215.709,300.577 197.879,300.396 176.106,308.596 161.77,302.134 158.992,302.757 156.125,303.328 145.552,306.935 142.103,302.42 134.173,304.574 126.199,306.702 112.938,312.229 107.472,306.079 99.095,311.191 85.028,312.177 68.183,315.862 60.791,310.594 46.5,327.15 19.709,322.92 -14.473,340.099 -67.651,331.769 -74.729,353.723 -135.702,351.829 -180.95,368.904 -206.262,346.95 -206.262,246.965 -206.262,146.979 -120.963,150.431 -87.99,180.092 -18.281,174.357 -5.513,200.047 38.167,186.164 76.74,204.407 88.343,203.343 93.181,204.121 110.832,206.145 121.674,213.619 142.64,210.168 153.034,217.797 162.352,217.563 169.252,220.288 209.034,222.39 228.208,237.078 267.453,234.223 276.592,248.755 279.728,247.925 282.775,247.354 303.383,242.787 322.109,253.478 328.381,253.167 330.98,253.867 331.876,253.997 332.727,254.179 341.642,255.295 347.6,258.824 359.652,256.852 365.968,260.848 371.344,260.666 375.421,262.068 377.796,261.237 382.634,262.379 383.216,262.483 383.933,263.91 385.636,263.728 387.293,263.521 387.293,264.715 387.293,265.908 387.114,266.791 386.935,267.673 386.532,269.593 386.532,270.449Z" test="Smoke" vector-effect="non-scaling-stroke"/>
    </g>
    <g id="MotorBikeBluef7r1">
      <g id="BlueBikeContainer">
        <path fill="#000" stroke="none" d="M492.876,219.172 L491.961,218.62 487.586,225.926 499.954,229.651 502.274,231.316 Q505.38,227.133 507.454,224.283 L505.91,223.226 492.876,219.172 M455.775,196.129 Q455.874,200.064 440,201.568 L443.686,205.666 Q452.216,208.645 462.595,201.178 L460.745,193.474 455.25,190.428 Q454.86,190.528 454.516,190.609 L455.775,196.129 M474.598,172.181 Q454.152,165.942 446.698,166.513 440.914,166.963 439.834,169.268 439.58,169.851 439.264,171.64 438.994,173.411 438.422,174.55 440.155,178.271 442.837,179.901 444.798,181.062 451.778,184.061 452.736,184.495 457.319,187.09 457.381,187.103 457.384,187.118 463.823,190.694 477.161,198.345 496.734,209.599 499,209.352 502.825,208.974 508.818,205.917 515.677,202.466 515.721,199.441 515.776,196.305 512.935,193.181 510.832,190.84 502.777,184.29 495.83,178.646 474.598,172.181Z" test="BlueBikeContainer" vector-effect="non-scaling-stroke" stroke-width="1"/>
        <path id="Layer3_0_1_STROKES" stroke="#0FF" stroke-width="1" stroke-linejoin="round" stroke-linecap="round" fill="none" d="M438.422,174.55 Q438.994,173.411 439.264,171.64 439.58,169.851 439.834,169.268 440.914,166.963 446.698,166.513 454.152,165.942 474.598,172.181 495.83,178.646 502.777,184.29 510.832,190.84 512.935,193.181 515.776,196.305 515.721,199.441 515.677,202.466 508.818,205.917 502.825,208.974 499,209.352 496.734,209.599 477.161,198.345 463.823,190.694 457.417,187.132 457.381,187.103 457.343,187.08 452.736,184.495 451.778,184.061 444.798,181.062 442.837,179.901 440.155,178.271 438.422,174.55Z" test="BlueBikeContainer" vector-effect="non-scaling-stroke"/>
        <path id="Layer3_0_2_STROKES" stroke="#009EFF" stroke-width="1" stroke-linejoin="round" stroke-linecap="round" fill="none" d="M454.516,190.609 Q446.438,193.144 438.182,195.91 420.415,201.935 419.218,203.534 417.91,205.123 418.128,207.722 418.26,209.013 419.142,212.21 419.733,214.394 419.771,219.266 419.734,224.221 419.042,225.192 418.814,225.545 415.932,226.228 415.87,226.236 415.807,226.25 L416.536,228.648 Q417.401,231.53 418.056,234.011 404.981,242.271 382.686,244.977 360.372,247.637 356.381,246.093 352.39,244.549 350.419,240.223 349.795,238.911 348.833,235.101 348.77,234.803 349.488,232.534 350.234,230.2 350.099,229.447 350.086,229.348 350.058,229.275 349.7,228.191 346.864,230.506 342.809,233.712 326.822,243.441 318.787,248.268 311.59,252.496 315.268,263.615 314.942,263.743 314.617,263.872 332.212,263.552 348.859,263.821 349.128,263.823 364.12,264.528 368.569,266.965 372.27,269 375.377,270.892 375.738,271.126 376.145,271.341 378.845,273.017 381.064,274.561 385.057,277.339 388.15,280.15 389.046,280.925 389.849,281.737 391.685,283.538 393.142,285.328 399.666,293.446 407.78,309.425 408.018,310.029 443.941,294.872 461.864,287.335 479.78,279.64 478.667,277.768 477.599,274.644 475.416,268.415 475.479,262.161 475.553,255.526 478.884,245.569 481.195,238.752 484.125,232.551 484.192,232.31 484.323,232.098 485.449,229.775 487.586,225.926 L491.961,218.62 494.171,214.957 Q482.123,207.137 474.601,202.279 474.565,202.253 474.527,202.228 464.455,195.745 462.53,194.598 L461.106,193.708 M455.25,190.428 Q455.436,190.355 455.668,190.263 L460.745,193.474 M455.25,190.428 Q454.86,190.528 454.516,190.609 M350.099,229.447 Q359.334,230.807 367.831,231.383 382.004,232.465 389.722,231.199 L415.763,225.73 M383.465,268.246 L386.028,269.707 Q389.791,272.039 393.265,274.861 404.508,283.915 408.939,294.63 413.371,305.345 413.339,304.445 L412.354,301.396 445.078,288.893 Q444.734,285.699 443.494,281.729 441.014,273.791 436.02,269.151 430.961,264.483 421.984,263.505 412.96,262.545 404.966,264.886 396.908,267.198 388.756,268.043 L383.465,268.246Z" test="BlueBikeContainer" vector-effect="non-scaling-stroke"/>
        <path id="Layer3_0_3_STROKES" stroke="#FFF" stroke-width="1" stroke-linejoin="round" stroke-linecap="round" fill="none" d="M461.106,193.708 L460.745,193.474 462.595,201.178 Q452.216,208.645 443.686,205.666 L440,201.568 Q455.874,200.064 455.775,196.129 L454.516,190.609 454.482,189.978 455.25,190.428 460.745,193.474 M505.91,223.226 L492.876,219.172 M487.586,225.926 L499.954,229.651" test="BlueBikeContainer" vector-effect="non-scaling-stroke"/>
        <use xlink:href="#Bike-Wheel" transform="matrix(.93 -.366 .366 .93 534.45 246)"/>
        <use xlink:href="#Bike-Wheel" transform="matrix(.93 -.366 .366 .93 359.55 318.9)"/>
      </g>
    </g>
    <g id="MotorBikePinkf0r1">
      <path fill="#000" stroke="none" d="M84.804,341.261 Q85.106,346 88.911,350.502 92.716,354.005 118.99,360.891 145.264,367.716 163.626,364.213 163.988,361.132 164.29,357.508 L164.532,354.488 Q164.609,354.5 164.653,354.488 L164.713,353.884 133.003,348.509 Q123.762,346.516 108.3,339.026 98.998,334.617 89.213,329 89.032,329.906 87.16,332.201 85.348,334.436 85.287,334.798 84.683,339.509 84.804,341.261 M254.347,380.642 L253.562,379.615 245.408,385.896 257.669,395.56 259.541,398.46 Q264.887,395.129 268.48,392.842 L267.212,390.97 254.347,380.642 M222.818,338.301 Q221.187,342.771 203.792,337.878 L205,343.677 Q213.275,350.804 228.254,346 L229.583,337.516 224.751,331.657 Q224.268,331.597 223.845,331.536 L222.818,338.301 M203.792,337.878 Q221.187,342.771 222.818,338.301 L223.845,331.536 Q213.637,330.812 203.128,330.268 180.478,329.181 178.424,330.449 176.25,331.657 175.344,334.677 174.921,336.187 174.498,340.174 174.196,342.892 172.082,348.388 169.847,353.945 168.639,354.73 168.226,355.026 164.653,354.488 164.609,354.5 164.532,354.488 L164.29,357.508 Q163.988,361.132 163.626,364.213 145.264,367.716 118.99,360.891 92.716,354.005 88.911,350.502 85.106,346 84.804,341.261 84.683,339.509 85.287,334.798 85.348,334.436 87.16,332.201 89.032,329.906 89.213,329 89.243,328.882 89.213,328.758 89.321,327.41 85.106,328.758 79.126,330.57 56.839,334.436 45.665,336.308 35.699,337.878 34.914,352.012 34.491,352.012 34.068,352.012 54,359.441 72.603,367.112 72.905,367.233 89.455,374.662 93.381,379.373 96.642,383.299 99.3,386.802 99.602,387.225 99.964,387.648 101.598,389.838 102.984,391.816 103.067,391.963 103.105,392.057 103.625,392.774 104.072,393.446 107.333,398.339 109.568,402.869 110.232,404.137 110.776,405.406 112.044,408.244 112.89,410.902 116.635,422.922 118.688,444.484 118.688,444.813 126.963,444.786 127.039,444.817 127.084,444.786 138.613,444.784 165.8,444.122 167.763,444.076 169.726,444.001 191.264,443.517 212.852,442.854 212.429,440.256 212.61,436.27 212.912,428.297 215.751,421.291 218.771,413.862 226.925,404.137 232.542,397.493 238.582,391.816 238.764,391.574 239.005,391.393 241.3,389.279 245.408,385.896 L253.562,379.615 257.669,376.474 Q247.58,362.345 241.24,353.522 241.241,353.506 241.18,353.462 232.75,341.711 231.093,339.57 L229.885,337.939 229.583,337.516 228.254,346 Q213.275,350.804 205,343.677 L203.792,337.878 M154.989,399.124 Q164.653,404.198 168.277,411.687 171.84,419.116 171.116,429.143 170.753,434.156 169.726,437.901 L127.386,437.478 127.144,441.344 Q126.782,442.37 126.54,428.358 126.299,414.345 117.662,399.184 115.004,394.473 111.803,390.185 L109.447,387.286 115.608,389.52 Q125.151,392.178 135.238,393.144 145.264,394.05 154.989,399.124 M168.277,411.687 Q164.653,404.198 154.989,399.124 145.264,394.05 135.238,393.144 125.151,392.178 115.608,389.52 L109.447,387.286 111.803,390.185 Q115.004,394.473 117.662,399.184 126.299,414.345 126.54,428.358 126.782,442.37 127.144,441.344 L127.386,437.478 169.726,437.901 Q170.753,434.156 171.116,429.143 171.84,419.116 168.277,411.687 M254.588,319.698 Q234.354,303.632 225.717,300.974 219.013,298.92 216.778,301.034 216.234,301.578 215.087,303.45 214,305.323 212.852,306.35 213.154,311.302 215.449,314.322 217.14,316.497 223.664,322.96 224.549,323.872 228.556,328.818 228.62,328.861 228.616,328.879 234.276,335.751 245.891,350.26 262.924,371.582 265.581,372.306 270.051,373.575 278.144,372.79 287.386,371.944 288.775,368.562 290.224,365.058 288.412,360.287 287.084,356.723 280.923,345.791 275.608,336.368 254.588,319.698Z" test="RedBike container" stroke-width="1.208"/>
      <path id="Layer2_0_1_STROKES" stroke="#0FF" stroke-width="1.208" stroke-linejoin="round" stroke-linecap="round" fill="none" d="M212.852,306.35 Q214,305.323 215.087,303.45 216.234,301.578 216.778,301.034 219.013,298.92 225.717,300.974 234.354,303.632 254.588,319.698 275.608,336.368 280.923,345.791 287.084,356.723 288.412,360.287 290.224,365.058 288.775,368.562 287.386,371.944 278.144,372.79 270.051,373.575 265.581,372.306 262.924,371.582 245.891,350.26 234.276,335.751 228.647,328.909 228.62,328.861 228.586,328.818 224.549,323.872 223.664,322.96 217.14,316.497 215.449,314.322 213.154,311.302 212.852,306.35Z" test="RedBike container"/>
      <path id="Layer2_0_2_STROKES" stroke="#FFF" stroke-width="1.208" stroke-linejoin="round" stroke-linecap="round" fill="none" d="M229.583,337.516 L228.254,346 Q213.275,350.804 205,343.677 L203.792,337.878 Q221.187,342.771 222.818,338.301 L223.845,331.536 M229.885,337.939 L229.583,337.516 224.751,331.657 M223.845,331.536 L224.086,330.812 224.751,331.657 M267.212,390.97 L254.347,380.642 M245.408,385.896 L257.669,395.56" test="RedBike container"/>
      <path id="Layer2_0_3_STROKES" stroke="#FF0265" stroke-width="1.208" stroke-linejoin="round" stroke-linecap="round" fill="none" d="M223.845,331.536 Q213.637,330.812 203.128,330.268 180.478,329.181 178.424,330.449 176.25,331.657 175.344,334.677 174.921,336.187 174.498,340.174 174.196,342.892 172.082,348.388 169.847,353.945 168.639,354.73 168.226,355.026 164.683,354.519 164.609,354.5 164.532,354.488 L164.29,357.508 Q163.988,361.132 163.626,364.213 145.264,367.716 118.99,360.891 92.716,354.005 88.911,350.502 85.106,346 84.804,341.261 84.683,339.509 85.287,334.798 85.348,334.436 87.16,332.201 89.032,329.906 89.213,329 89.243,328.882 89.243,328.788 89.321,327.41 85.106,328.758 79.126,330.57 56.839,334.436 45.665,336.308 35.699,337.878 34.914,352.012 34.491,352.012 34.068,352.012 54,359.441 72.603,367.112 72.905,367.233 89.455,374.662 93.381,379.373 96.642,383.299 99.3,386.802 99.602,387.225 99.964,387.648 101.598,389.838 102.984,391.846 103.067,391.963 103.135,392.087 103.625,392.774 104.072,393.446 107.333,398.339 109.568,402.869 110.232,404.137 110.776,405.406 112.044,408.244 112.89,410.902 116.635,422.922 118.688,444.484 118.688,444.813 126.963,444.817 127.039,444.817 127.114,444.817 138.613,444.784 165.8,444.122 167.763,444.076 169.726,444.031 191.264,443.517 212.852,442.854 212.429,440.256 212.61,436.27 212.912,428.297 215.751,421.291 218.771,413.862 226.925,404.137 232.542,397.493 238.582,391.816 238.764,391.574 239.005,391.393 241.3,389.279 245.408,385.896 L253.562,379.615 257.669,376.474 Q247.58,362.345 241.27,353.552 241.241,353.506 241.21,353.462 232.75,341.711 231.093,339.57 L229.885,337.939 M223.845,331.536 Q224.268,331.597 224.751,331.657 224.992,331.657 225.294,331.657 L229.583,337.516 M89.213,329 Q98.998,334.617 108.3,339.026 123.762,346.516 133.003,348.509 L164.713,353.884 M111.803,390.185 Q115.004,394.473 117.662,399.184 126.299,414.345 126.54,428.358 126.782,442.37 127.144,441.344 L127.386,437.478 169.726,437.901 Q170.753,434.156 171.116,429.143 171.84,419.116 168.277,411.687 164.653,404.198 154.989,399.124 145.264,394.05 135.238,393.144 125.151,392.178 115.608,389.52 L109.477,387.286 111.803,390.185Z" test="RedBike container"/>
      <use xlink:href="#Bike-Wheel" transform="matrix(1.208 0 0 1.208 289.25 429.25)"/>
      <use xlink:href="#Bike-Wheel" transform="matrix(1.208 0 0 1.208 60.25 433.85)"/>
    </g>
  </g>
</svg>