<?xml version="1.0" encoding="utf-8"?>
<svg id="EdithAnim11" image-rendering="inherit" baseProfile="basic" version="1.1" x="0px" y="0px" width="800" height="600" xmlns="http://www.w3.org/2000/svg" xmlns:xlink="http://www.w3.org/1999/xlink">
  <defs>
    <g id="Bike-Wheel" overflow="visible">
      <path id="Layer5_0_1_STROKES" stroke="#FFF" stroke-width="1" stroke-linejoin="round" stroke-linecap="round" fill="none" d="M2.05 -34.85Q-12.35 -34.85 -22.65 -26.45 -34 -17.2 -34.7 -1.55 -35.4 14.3 -26.6 24.6 -18.4 34.2 -5.6 34.85 7.15 35.5 19.2 29.8 31.25 24.1 34.05 7.25 36.85 -9.65 28.9 -21.15 19.4 -34.85 2.05 -34.85Z" test="Bike Wheel"/>
      <path id="Layer4_0_1_STROKES" stroke="#FFF" stroke-width="1" stroke-linejoin="round" stroke-linecap="round" fill="none" d="M.55 -26.55Q4.65 -26.85 7.1 -26.15 9.75 -25.4 12 -23.15 13.95 -21.25 8 -15.35 5.3 -12.6 2.25 -10.2 1.95 -10 1.7 -9.8M24.45 -8.9Q26.2 -5.15 26.45 -2.65 26.7 .1 25.4 3.05 24.35 5.5 16.7 2.1 13.2 .6 9.85 -1.4 9.5 -1.6 9.25 -1.75M18.45 20Q15.75 23.1 13.55 24.35 11.2 25.75 8 25.75 5.3 25.75 5.25 17.4 5.2 13.55 5.65 9.7 5.7 9.35 5.75 9M-25.15 -7.15Q-24.25 -11.2 -22.85 -13.3 -21.4 -15.6 -18.6 -17.1 -16.2 -18.45 -12.25 -11.05 -10.4 -7.65 -9 -4.1 -8.9 -3.7 -8.75 -3.4M-12.85 23.8Q-16.75 22.4 -18.7 20.8 -20.85 19.05 -22.05 16.1 -23.1 13.6 -15.3 10.55 -11.75 9.05 -8 8.05 -7.65 8 -7.3 7.95" test="Bike Wheel"/>
    </g>
  </defs>
  <g id="19_Motorbikesf68r1" overflow="visible">
    <g id="Smokef8r1">
      <path fill="#000" stroke="none" d="M105.017,194.047 Q100.287,193.247 88.935,194.333 51.095,175.772 8.288,189.872 -4.388,163.731 -72.642,169.537 -105.09,139.336 -188.574,135.818 -188.574,246.014 -188.574,356.209 -163.789,378.632 -119.611,361.329 -60.06,363.359 -53.06,341.08 -1.125,349.66 32.317,332.271 58.473,336.618 72.427,319.802 79.711,325.207 96.171,321.489 109.889,320.488 118.119,315.311 123.464,321.575 136.424,315.969 144.181,313.824 151.986,311.651 155.391,316.284 165.703,312.623 168.446,312.022 171.189,311.422 188.075,319.63 213.996,309.391 235.281,309.677 247.342,305.702 258.694,302.155 261.722,294.777 298.284,300.125 322.502,288.17 340.996,290.887 351.402,279.504 356.795,282.993 368.288,280.419 377.938,279.676 383.897,276.129 387.918,280.219 397.047,276.387 402.534,274.9 408.068,273.384 410.669,276.387 417.906,273.899 421.832,273.041 425.758,272.211 431.528,272.04 437.299,271.897 437.299,270.953 437.725,268.836 437.914,267.864 438.103,266.892 438.103,265.576 438.103,264.26 436.117,264.518 434.13,264.747 433.279,262.945 432.616,262.802 426.846,261.343 424.055,262.401 419.231,260.6 412.845,260.828 405.466,255.766 391.134,258.254 384.181,253.764 373.586,252.306 372.545,252.134 371.505,251.962 368.383,251.133 360.862,251.591 338.489,238.635 313.751,244.441 310.109,245.156 306.42,246.242 296.061,228.139 249.234,231.771 227.051,213.381 179.609,210.55 172.845,207.747 163.669,208.004 153.499,200.225 132.971,203.743 122.281,196.135 105.017,194.047Z" test="Smoke" vector-effect="non-scaling-stroke" stroke-width="1"/>
      <path id="Layer1_0_1_STROKES" stroke="#FFF" stroke-width="1" stroke-linejoin="round" stroke-linecap="round" fill="none" d="M437.299,271.897 Q431.528,272.04 425.758,272.211 421.832,273.041 417.906,273.899 410.669,276.387 408.068,273.384 402.534,274.9 397.047,276.387 387.918,280.219 383.897,276.129 377.938,279.676 368.288,280.419 356.795,282.993 351.402,279.504 340.996,290.887 322.502,288.17 298.284,300.125 261.722,294.777 258.694,302.155 247.342,305.702 235.281,309.677 213.996,309.391 188.075,319.63 171.189,311.422 168.446,312.022 165.703,312.623 155.391,316.284 151.986,311.651 144.181,313.824 136.424,315.969 123.464,321.575 118.119,315.311 109.889,320.488 96.171,321.489 79.711,325.207 72.427,319.802 58.473,336.618 32.317,332.271 -1.125,349.66 -53.06,341.08 -60.06,363.359 -119.611,361.329 -163.789,378.632 -188.574,356.209 -188.574,246.014 -188.574,135.818 -105.09,139.336 -72.642,169.537 -4.388,163.731 8.288,189.872 51.095,175.772 88.935,194.333 100.287,193.247 105.017,194.047 122.281,196.135 132.971,203.743 153.499,200.225 163.669,208.004 172.845,207.747 179.609,210.55 227.051,213.381 249.234,231.771 296.061,228.139 306.42,246.242 310.109,245.156 313.751,244.441 338.489,238.635 360.862,251.591 368.383,251.133 371.505,251.962 372.545,252.134 373.586,252.306 384.181,253.764 391.134,258.254 405.466,255.766 412.845,260.828 419.231,260.6 424.055,262.401 426.846,261.343 432.616,262.802 433.279,262.945 434.13,264.747 436.117,264.518 438.103,264.26 438.103,265.576 438.103,266.892 437.914,267.864 437.725,268.836 437.299,270.953 437.299,271.897Z" test="Smoke" vector-effect="non-scaling-stroke"/>
    </g>
    <g id="MotorBikeBluef8r1">
      <g id="BlueBikeContainer">
        <path fill="#000" stroke="none" d="M547.826,219.172 L546.911,218.62 542.536,225.926 554.904,229.651 557.224,231.316 Q560.33,227.133 562.404,224.283 L560.86,223.226 547.826,219.172 M510.725,196.129 Q510.824,200.064 495.949,201.568 L498.636,205.666 Q507.166,208.645 517.545,201.178 L515.695,193.474 510.2,190.428 Q509.81,190.528 509.466,190.609 L510.725,196.129 M529.548,172.181 Q509.102,165.942 501.648,166.513 495.864,166.963 494.784,169.268 494.53,169.851 494.214,171.64 493.944,173.411 493.372,174.55 495.105,178.271 497.787,179.901 499.748,181.062 506.728,184.061 507.686,184.495 512.269,187.09 512.331,187.103 512.334,187.118 518.773,190.694 532.111,198.345 551.684,209.599 553.95,209.352 557.775,208.974 563.768,205.917 570.627,202.466 570.671,199.441 570.726,196.305 567.885,193.181 565.782,190.84 557.727,184.29 550.78,178.646 529.548,172.181Z" test="BlueBikeContainer" vector-effect="non-scaling-stroke" stroke-width="1"/>
        <path id="Layer3_0_1_STROKES" stroke="#0FF" stroke-width="1" stroke-linejoin="round" stroke-linecap="round" fill="none" d="M493.372,174.55 Q493.944,173.411 494.214,171.64 494.53,169.851 494.784,169.268 495.864,166.963 501.648,166.513 509.102,165.942 529.548,172.181 550.78,178.646 557.727,184.29 565.782,190.84 567.885,193.181 570.726,196.305 570.671,199.441 570.627,202.466 563.768,205.917 557.775,208.974 553.95,209.352 551.684,209.599 532.111,198.345 518.773,190.694 512.367,187.132 512.331,187.103 512.293,187.08 507.686,184.495 506.728,184.061 499.748,181.062 497.787,179.901 495.105,178.271 493.372,174.55Z" test="BlueBikeContainer" vector-effect="non-scaling-stroke"/>
        <path id="Layer3_0_2_STROKES" stroke="#009EFF" stroke-width="1" stroke-linejoin="round" stroke-linecap="round" fill="none" d="M509.466,190.609 Q501.388,193.144 493.132,195.91 475.365,201.935 474.168,203.534 472.86,205.123 473.078,207.722 473.21,209.013 474.092,212.21 474.683,214.394 474.721,219.266 474.684,224.221 473.992,225.192 473.764,225.545 470.882,226.228 470.82,226.236 470.757,226.25 L471.486,228.648 Q472.351,231.53 473.006,234.011 459.931,242.271 437.636,244.977 415.322,247.637 411.331,246.093 407.34,244.549 405.369,240.223 404.745,238.911 403.783,235.101 403.72,234.803 404.438,232.534 405.184,230.2 405.049,229.447 405.036,229.348 405.008,229.275 404.65,228.191 401.814,230.506 397.759,233.712 381.772,243.441 373.737,248.268 366.54,252.496 370.218,263.615 369.892,263.743 369.567,263.872 387.162,263.552 403.809,263.821 404.078,263.823 419.07,264.528 423.519,266.965 427.22,269 430.327,270.892 430.688,271.126 431.095,271.341 433.795,273.017 436.014,274.561 440.007,277.339 443.1,280.15 443.996,280.925 444.799,281.737 446.635,283.538 448.092,285.328 454.616,293.446 462.73,309.425 462.968,310.029 498.891,294.872 516.814,287.335 534.73,279.64 533.617,277.768 532.549,274.644 530.366,268.415 530.429,262.161 530.503,255.526 533.834,245.569 536.145,238.752 539.075,232.551 539.142,232.31 539.273,232.098 540.399,229.775 542.536,225.926 L546.911,218.62 549.121,214.957 Q537.073,207.137 529.551,202.279 529.515,202.253 529.477,202.228 519.405,195.745 517.48,194.598 L516.056,193.708 M510.2,190.428 Q510.386,190.355 510.618,190.263 L515.695,193.474 M510.2,190.428 Q509.81,190.528 509.466,190.609 M405.049,229.447 Q414.284,230.807 422.781,231.383 436.954,232.465 444.672,231.199 L470.713,225.73 M438.415,268.246 L440.978,269.707 Q444.741,272.039 448.215,274.861 459.458,283.915 463.889,294.63 468.321,305.345 468.289,304.445 L467.304,301.396 500.028,288.893 Q499.684,285.699 498.444,281.729 495.964,273.791 490.97,269.151 485.911,264.483 476.934,263.505 467.91,262.545 459.916,264.886 451.858,267.198 443.706,268.043 L438.415,268.246Z" test="BlueBikeContainer" vector-effect="non-scaling-stroke"/>
        <path id="Layer3_0_3_STROKES" stroke="#FFF" stroke-width="1" stroke-linejoin="round" stroke-linecap="round" fill="none" d="M516.056,193.708 L515.695,193.474 517.545,201.178 Q507.166,208.645 498.636,205.666 L495.949,201.568 Q510.824,200.064 510.725,196.129 L509.466,190.609 509.432,189.978 510.2,190.428 515.695,193.474 M560.86,223.226 L547.826,219.172 M542.536,225.926 L554.904,229.651" test="BlueBikeContainer" vector-effect="non-scaling-stroke"/>
        <use xlink:href="#Bike-Wheel" transform="matrix(.93 -.366 .366 .93 589.4 246)"/>
        <use xlink:href="#Bike-Wheel" transform="matrix(.93 -.366 .366 .93 414.5 318.9)"/>
      </g>
    </g>
    <g id="MotorBikePinkf0r1">
      <path fill="#000" stroke="none" d="M84.804,341.261 Q85.106,346 88.911,350.502 92.716,354.005 118.99,360.891 145.264,367.716 163.626,364.213 163.988,361.132 164.29,357.508 L164.532,354.488 Q164.609,354.5 164.653,354.488 L164.713,353.884 133.003,348.509 Q123.762,346.516 108.3,339.026 98.998,334.617 89.213,329 89.032,329.906 87.16,332.201 85.348,334.436 85.287,334.798 84.683,339.509 84.804,341.261 M254.347,380.642 L253.562,379.615 245.408,385.896 257.669,395.56 259.541,398.46 Q264.887,395.129 268.48,392.842 L267.212,390.97 254.347,380.642 M222.818,338.301 Q221.187,342.771 203.792,337.878 L205,343.677 Q213.275,350.804 228.254,346 L229.583,337.516 224.751,331.657 Q224.268,331.597 223.845,331.536 L222.818,338.301 M203.792,337.878 Q221.187,342.771 222.818,338.301 L223.845,331.536 Q213.637,330.812 203.128,330.268 180.478,329.181 178.424,330.449 176.25,331.657 175.344,334.677 174.921,336.187 174.498,340.174 174.196,342.892 172.082,348.388 169.847,353.945 168.639,354.73 168.226,355.026 164.653,354.488 164.609,354.5 164.532,354.488 L164.29,357.508 Q163.988,361.132 163.626,364.213 145.264,367.716 118.99,360.891 92.716,354.005 88.911,350.502 85.106,346 84.804,341.261 84.683,339.509 85.287,334.798 85.348,334.436 87.16,332.201 89.032,329.906 89.213,329 89.243,328.882 89.213,328.758 89.321,327.41 85.106,328.758 79.126,330.57 56.839,334.436 45.665,336.308 35.699,337.878 34.914,352.012 34.491,352.012 34.068,352.012 54,359.441 72.603,367.112 72.905,367.233 89.455,374.662 93.381,379.373 96.642,383.299 99.3,386.802 99.602,387.225 99.964,387.648 101.598,389.838 102.984,391.816 103.067,391.963 103.105,392.057 103.625,392.774 104.072,393.446 107.333,398.339 109.568,402.869 110.232,404.137 110.776,405.406 112.044,408.244 112.89,410.902 116.635,422.922 118.688,444.484 118.688,444.813 126.963,444.786 127.039,444.817 127.084,444.786 138.613,444.784 165.8,444.122 167.763,444.076 169.726,444.001 191.264,443.517 212.852,442.854 212.429,440.256 212.61,436.27 212.912,428.297 215.751,421.291 218.771,413.862 226.925,404.137 232.542,397.493 238.582,391.816 238.764,391.574 239.005,391.393 241.3,389.279 245.408,385.896 L253.562,379.615 257.669,376.474 Q247.58,362.345 241.24,353.522 241.241,353.506 241.18,353.462 232.75,341.711 231.093,339.57 L229.885,337.939 229.583,337.516 228.254,346 Q213.275,350.804 205,343.677 L203.792,337.878 M154.989,399.124 Q164.653,404.198 168.277,411.687 171.84,419.116 171.116,429.143 170.753,434.156 169.726,437.901 L127.386,437.478 127.144,441.344 Q126.782,442.37 126.54,428.358 126.299,414.345 117.662,399.184 115.004,394.473 111.803,390.185 L109.447,387.286 115.608,389.52 Q125.151,392.178 135.238,393.144 145.264,394.05 154.989,399.124 M168.277,411.687 Q164.653,404.198 154.989,399.124 145.264,394.05 135.238,393.144 125.151,392.178 115.608,389.52 L109.447,387.286 111.803,390.185 Q115.004,394.473 117.662,399.184 126.299,414.345 126.54,428.358 126.782,442.37 127.144,441.344 L127.386,437.478 169.726,437.901 Q170.753,434.156 171.116,429.143 171.84,419.116 168.277,411.687 M254.588,319.698 Q234.354,303.632 225.717,300.974 219.013,298.92 216.778,301.034 216.234,301.578 215.087,303.45 214,305.323 212.852,306.35 213.154,311.302 215.449,314.322 217.14,316.497 223.664,322.96 224.549,323.872 228.556,328.818 228.62,328.861 228.616,328.879 234.276,335.751 245.891,350.26 262.924,371.582 265.581,372.306 270.051,373.575 278.144,372.79 287.386,371.944 288.775,368.562 290.224,365.058 288.412,360.287 287.084,356.723 280.923,345.791 275.608,336.368 254.588,319.698Z" test="RedBike container" stroke-width="1.208"/>
      <path id="Layer2_0_1_STROKES" stroke="#0FF" stroke-width="1.208" stroke-linejoin="round" stroke-linecap="round" fill="none" d="M212.852,306.35 Q214,305.323 215.087,303.45 216.234,301.578 216.778,301.034 219.013,298.92 225.717,300.974 234.354,303.632 254.588,319.698 275.608,336.368 280.923,345.791 287.084,356.723 288.412,360.287 290.224,365.058 288.775,368.562 287.386,371.944 278.144,372.79 270.051,373.575 265.581,372.306 262.924,371.582 245.891,350.26 234.276,335.751 228.647,328.909 228.62,328.861 228.586,328.818 224.549,323.872 223.664,322.96 217.14,316.497 215.449,314.322 213.154,311.302 212.852,306.35Z" test="RedBike container"/>
      <path id="Layer2_0_2_STROKES" stroke="#FFF" stroke-width="1.208" stroke-linejoin="round" stroke-linecap="round" fill="none" d="M229.583,337.516 L228.254,346 Q213.275,350.804 205,343.677 L203.792,337.878 Q221.187,342.771 222.818,338.301 L223.845,331.536 M229.885,337.939 L229.583,337.516 224.751,331.657 M223.845,331.536 L224.086,330.812 224.751,331.657 M267.212,390.97 L254.347,380.642 M245.408,385.896 L257.669,395.56" test="RedBike container"/>
      <path id="Layer2_0_3_STROKES" stroke="#FF0265" stroke-width="1.208" stroke-linejoin="round" stroke-linecap="round" fill="none" d="M223.845,331.536 Q213.637,330.812 203.128,330.268 180.478,329.181 178.424,330.449 176.25,331.657 175.344,334.677 174.921,336.187 174.498,340.174 174.196,342.892 172.082,348.388 169.847,353.945 168.639,354.73 168.226,355.026 164.683,354.519 164.609,354.5 164.532,354.488 L164.29,357.508 Q163.988,361.132 163.626,364.213 145.264,367.716 118.99,360.891 92.716,354.005 88.911,350.502 85.106,346 84.804,341.261 84.683,339.509 85.287,334.798 85.348,334.436 87.16,332.201 89.032,329.906 89.213,329 89.243,328.882 89.243,328.788 89.321,327.41 85.106,328.758 79.126,330.57 56.839,334.436 45.665,336.308 35.699,337.878 34.914,352.012 34.491,352.012 34.068,352.012 54,359.441 72.603,367.112 72.905,367.233 89.455,374.662 93.381,379.373 96.642,383.299 99.3,386.802 99.602,387.225 99.964,387.648 101.598,389.838 102.984,391.846 103.067,391.963 103.135,392.087 103.625,392.774 104.072,393.446 107.333,398.339 109.568,402.869 110.232,404.137 110.776,405.406 112.044,408.244 112.89,410.902 116.635,422.922 118.688,444.484 118.688,444.813 126.963,444.817 127.039,444.817 127.114,444.817 138.613,444.784 165.8,444.122 167.763,444.076 169.726,444.031 191.264,443.517 212.852,442.854 212.429,440.256 212.61,436.27 212.912,428.297 215.751,421.291 218.771,413.862 226.925,404.137 232.542,397.493 238.582,391.816 238.764,391.574 239.005,391.393 241.3,389.279 245.408,385.896 L253.562,379.615 257.669,376.474 Q247.58,362.345 241.27,353.552 241.241,353.506 241.21,353.462 232.75,341.711 231.093,339.57 L229.885,337.939 M223.845,331.536 Q224.268,331.597 224.751,331.657 224.992,331.657 225.294,331.657 L229.583,337.516 M89.213,329 Q98.998,334.617 108.3,339.026 123.762,346.516 133.003,348.509 L164.713,353.884 M111.803,390.185 Q115.004,394.473 117.662,399.184 126.299,414.345 126.54,428.358 126.782,442.37 127.144,441.344 L127.386,437.478 169.726,437.901 Q170.753,434.156 171.116,429.143 171.84,419.116 168.277,411.687 164.653,404.198 154.989,399.124 145.264,394.05 135.238,393.144 125.151,392.178 115.608,389.52 L109.477,387.286 111.803,390.185Z" test="RedBike container"/>
      <use xlink:href="#Bike-Wheel" transform="matrix(1.208 0 0 1.208 289.25 429.25)"/>
      <use xlink:href="#Bike-Wheel" transform="matrix(1.208 0 0 1.208 60.25 433.85)"/>
    </g>
  </g>
</svg>