<?xml version="1.0" encoding="utf-8"?>
<svg id="EdithAnim11" image-rendering="inherit" baseProfile="basic" version="1.1" x="0px" y="0px" width="800" height="600" xmlns="http://www.w3.org/2000/svg" xmlns:xlink="http://www.w3.org/1999/xlink">
  <defs>
    <g id="Bike-Wheel" overflow="visible">
      <path id="Layer5_0_1_STROKES" stroke="#FFF" stroke-width="1" stroke-linejoin="round" stroke-linecap="round" fill="none" d="M2.05 -34.85Q-12.35 -34.85 -22.65 -26.45 -34 -17.2 -34.7 -1.55 -35.4 14.3 -26.6 24.6 -18.4 34.2 -5.6 34.85 7.15 35.5 19.2 29.8 31.25 24.1 34.05 7.25 36.85 -9.65 28.9 -21.15 19.4 -34.85 2.05 -34.85Z" test="Bike Wheel"/>
      <path id="Layer4_0_1_STROKES" stroke="#FFF" stroke-width="1" stroke-linejoin="round" stroke-linecap="round" fill="none" d="M.55 -26.55Q4.65 -26.85 7.1 -26.15 9.75 -25.4 12 -23.15 13.95 -21.25 8 -15.35 5.3 -12.6 2.25 -10.2 1.95 -10 1.7 -9.8M24.45 -8.9Q26.2 -5.15 26.45 -2.65 26.7 .1 25.4 3.05 24.35 5.5 16.7 2.1 13.2 .6 9.85 -1.4 9.5 -1.6 9.25 -1.75M18.45 20Q15.75 23.1 13.55 24.35 11.2 25.75 8 25.75 5.3 25.75 5.25 17.4 5.2 13.55 5.65 9.7 5.7 9.35 5.75 9M-25.15 -7.15Q-24.25 -11.2 -22.85 -13.3 -21.4 -15.6 -18.6 -17.1 -16.2 -18.45 -12.25 -11.05 -10.4 -7.65 -9 -4.1 -8.9 -3.7 -8.75 -3.4M-12.85 23.8Q-16.75 22.4 -18.7 20.8 -20.85 19.05 -22.05 16.1 -23.1 13.6 -15.3 10.55 -11.75 9.05 -8 8.05 -7.65 8 -7.3 7.95" test="Bike Wheel"/>
    </g>
  </defs>
  <g id="19_Motorbikesf69r1" overflow="visible">
    <g id="Smokef9r1">
      <path fill="#000" stroke="none" d="M118.2,182.505 Q113.55,181.717 102.5,182.788 65.6,164.014 23.85,178.252 11.3,151.855 -55.15,157.683 -87,127.191 -168.3,123.6 -168.3,244.969 -168.3,366.339 -144.15,389.082 -101.25,371.725 -43.45,373.836 -36.55,351.471 13.9,360.228 46.45,342.777 71.9,347.218 85.5,330.303 92.6,335.784 108.6,332.035 121.95,331.059 129.9,325.861 135.15,332.224 147.75,326.586 155.3,324.412 162.85,322.27 166.2,326.932 176.25,323.247 178.9,322.648 181.55,322.05 201.3,332.319 231.75,319.719 256.85,320.128 270.95,315.277 284.25,310.867 287.65,301.732 330.6,308.379 358.85,293.574 380.6,296.944 392.65,282.832 398.9,287.179 412.45,283.998 423.8,283.084 430.75,278.674 435.4,283.746 446.1,279.021 452.6,277.162 459.05,275.304 462.05,279.021 470.6,275.934 475.2,274.894 479.75,273.855 486.55,273.666 493.3,273.477 493.3,272.437 493.75,270.106 493.95,269.035 494.15,267.964 494.15,266.515 494.15,265.066 491.85,265.381 489.5,265.665 488.5,263.428 487.75,263.239 480.95,261.444 477.7,262.704 472.1,260.499 464.6,260.751 456,254.451 439.2,257.506 431.05,251.931 418.65,250.104 417.4,249.883 416.2,249.694 412.5,248.749 403.55,249.379 377.15,233.818 347.9,241.032 343.65,241.945 339.35,243.3 327.65,221.029 272.45,225.597 246.9,202.948 190.95,199.2 184.4,196.396 175.45,196.617 165.5,188.773 145.45,192.333 135.05,184.615 118.2,182.505Z" test="Smoke" vector-effect="non-scaling-stroke" stroke-width="1"/>
      <path id="Layer1_0_1_STROKES" stroke="#FFF" stroke-width="1" stroke-linejoin="round" stroke-linecap="round" fill="none" d="M493.3,273.477 Q486.55,273.666 479.75,273.855 475.2,274.894 470.6,275.934 462.05,279.021 459.05,275.304 452.6,277.162 446.1,279.021 435.4,283.746 430.75,278.674 423.8,283.084 412.45,283.998 398.9,287.179 392.65,282.832 380.6,296.944 358.85,293.574 330.6,308.379 287.65,301.732 284.25,310.867 270.95,315.277 256.85,320.128 231.75,319.719 201.3,332.319 181.55,322.05 178.9,322.648 176.25,323.247 166.2,326.932 162.85,322.27 155.3,324.412 147.75,326.586 135.15,332.224 129.9,325.861 121.95,331.059 108.6,332.035 92.6,335.784 85.5,330.303 71.9,347.218 46.45,342.777 13.9,360.228 -36.55,351.471 -43.45,373.836 -101.25,371.725 -144.15,389.082 -168.3,366.339 -168.3,244.969 -168.3,123.6 -87,127.191 -55.15,157.683 11.3,151.855 23.85,178.252 65.6,164.014 102.5,182.788 113.55,181.717 118.2,182.505 135.05,184.615 145.45,192.333 165.5,188.773 175.45,196.617 184.4,196.396 190.95,199.2 246.9,202.948 272.45,225.597 327.65,221.029 339.35,243.3 343.65,241.945 347.9,241.032 377.15,233.818 403.55,249.379 412.5,248.749 416.2,249.694 417.4,249.883 418.65,250.104 431.05,251.931 439.2,257.506 456,254.451 464.6,260.751 472.1,260.499 477.7,262.704 480.95,261.444 487.75,263.239 488.5,263.428 489.5,265.665 491.85,265.381 494.15,265.066 494.15,266.515 494.15,267.964 493.95,269.035 493.75,270.106 493.3,272.437 493.3,273.477Z" test="Smoke" vector-effect="non-scaling-stroke"/>
    </g>
    <g id="MotorBikeBluef9r1">
      <g id="BlueBikeContainer">
        <path fill="#000" stroke="none" d="M608.476,219.172 L607.561,218.62 603.186,225.926 615.554,229.651 617.874,231.316 Q620.98,227.133 623.054,224.283 L621.51,223.226 608.476,219.172 M571.375,196.129 Q571.474,200.064 556.599,201.568 L559.286,205.666 Q567.816,208.645 578.195,201.178 L576.345,193.474 570.85,190.428 Q570.46,190.528 570.116,190.609 L571.375,196.129 M590.198,172.181 Q569.752,165.942 562.298,166.513 556.514,166.963 555.434,169.268 555.18,169.851 554.864,171.64 554.594,173.411 554.022,174.55 555.755,178.271 558.437,179.901 560.398,181.062 567.378,184.061 568.336,184.495 572.919,187.09 572.981,187.103 572.984,187.118 579.423,190.694 592.761,198.345 612.334,209.599 614.6,209.352 618.425,208.974 624.418,205.917 631.277,202.466 631.321,199.441 631.376,196.305 628.535,193.181 626.432,190.84 618.377,184.29 611.43,178.646 590.198,172.181Z" test="BlueBikeContainer" vector-effect="non-scaling-stroke" stroke-width="1"/>
        <path id="Layer3_0_1_STROKES" stroke="#0FF" stroke-width="1" stroke-linejoin="round" stroke-linecap="round" fill="none" d="M554.022,174.55 Q554.594,173.411 554.864,171.64 555.18,169.851 555.434,169.268 556.514,166.963 562.298,166.513 569.752,165.942 590.198,172.181 611.43,178.646 618.377,184.29 626.432,190.84 628.535,193.181 631.376,196.305 631.321,199.441 631.277,202.466 624.418,205.917 618.425,208.974 614.6,209.352 612.334,209.599 592.761,198.345 579.423,190.694 573.017,187.132 572.981,187.103 572.943,187.08 568.336,184.495 567.378,184.061 560.398,181.062 558.437,179.901 555.755,178.271 554.022,174.55Z" test="BlueBikeContainer" vector-effect="non-scaling-stroke"/>
        <path id="Layer3_0_2_STROKES" stroke="#009EFF" stroke-width="1" stroke-linejoin="round" stroke-linecap="round" fill="none" d="M570.116,190.609 Q562.038,193.144 553.782,195.91 536.015,201.935 534.818,203.534 533.51,205.123 533.728,207.722 533.86,209.013 534.742,212.21 535.333,214.394 535.371,219.266 535.334,224.221 534.642,225.192 534.414,225.545 531.532,226.228 531.47,226.236 531.407,226.25 L532.136,228.648 Q533.001,231.53 533.656,234.011 520.581,242.271 498.286,244.977 475.972,247.637 471.981,246.093 467.99,244.549 466.019,240.223 465.395,238.911 464.433,235.101 464.37,234.803 465.088,232.534 465.834,230.2 465.699,229.447 465.686,229.348 465.658,229.275 465.3,228.191 462.464,230.506 458.409,233.712 442.422,243.441 434.387,248.268 427.19,252.496 430.868,263.615 430.542,263.743 430.217,263.872 447.812,263.552 464.459,263.821 464.728,263.823 479.72,264.528 484.169,266.965 487.87,269 490.977,270.892 491.338,271.126 491.745,271.341 494.445,273.017 496.664,274.561 500.657,277.339 503.75,280.15 504.646,280.925 505.449,281.737 507.285,283.538 508.742,285.328 515.266,293.446 523.38,309.425 523.618,310.029 559.541,294.872 577.464,287.335 595.38,279.64 594.267,277.768 593.199,274.644 591.016,268.415 591.079,262.161 591.153,255.526 594.484,245.569 596.795,238.752 599.725,232.551 599.792,232.31 599.923,232.098 601.049,229.775 603.186,225.926 L607.561,218.62 609.771,214.957 Q597.723,207.137 590.201,202.279 590.165,202.253 590.127,202.228 580.055,195.745 578.13,194.598 L576.706,193.708 M570.85,190.428 Q571.036,190.355 571.268,190.263 L576.345,193.474 M570.85,190.428 Q570.46,190.528 570.116,190.609 M465.699,229.447 Q474.934,230.807 483.431,231.383 497.604,232.465 505.322,231.199 L531.363,225.73 M499.065,268.246 L501.628,269.707 Q505.391,272.039 508.865,274.861 520.108,283.915 524.539,294.63 528.971,305.345 528.939,304.445 L527.954,301.396 560.678,288.893 Q560.334,285.699 559.094,281.729 556.614,273.791 551.62,269.151 546.561,264.483 537.584,263.505 528.56,262.545 520.566,264.886 512.508,267.198 504.356,268.043 L499.065,268.246Z" test="BlueBikeContainer" vector-effect="non-scaling-stroke"/>
        <path id="Layer3_0_3_STROKES" stroke="#FFF" stroke-width="1" stroke-linejoin="round" stroke-linecap="round" fill="none" d="M576.706,193.708 L576.345,193.474 578.195,201.178 Q567.816,208.645 559.286,205.666 L556.599,201.568 Q571.474,200.064 571.375,196.129 L570.116,190.609 570.082,189.978 570.85,190.428 576.345,193.474 M621.51,223.226 L608.476,219.172 M603.186,225.926 L615.554,229.651" test="BlueBikeContainer" vector-effect="non-scaling-stroke"/>
        <use xlink:href="#Bike-Wheel" transform="matrix(.93 -.366 .366 .93 650.05 246)"/>
        <use xlink:href="#Bike-Wheel" transform="matrix(.93 -.366 .366 .93 475.15 318.9)"/>
      </g>
    </g>
    <g id="MotorBikePinkf0r1">
      <path fill="#000" stroke="none" d="M84.804,341.261 Q85.106,346 88.911,350.502 92.716,354.005 118.99,360.891 145.264,367.716 163.626,364.213 163.988,361.132 164.29,357.508 L164.532,354.488 Q164.609,354.5 164.653,354.488 L164.713,353.884 133.003,348.509 Q123.762,346.516 108.3,339.026 98.998,334.617 89.213,329 89.032,329.906 87.16,332.201 85.348,334.436 85.287,334.798 84.683,339.509 84.804,341.261 M254.347,380.642 L253.562,379.615 245.408,385.896 257.669,395.56 259.541,398.46 Q264.887,395.129 268.48,392.842 L267.212,390.97 254.347,380.642 M222.818,338.301 Q221.187,342.771 203.792,337.878 L205,343.677 Q213.275,350.804 228.254,346 L229.583,337.516 224.751,331.657 Q224.268,331.597 223.845,331.536 L222.818,338.301 M203.792,337.878 Q221.187,342.771 222.818,338.301 L223.845,331.536 Q213.637,330.812 203.128,330.268 180.478,329.181 178.424,330.449 176.25,331.657 175.344,334.677 174.921,336.187 174.498,340.174 174.196,342.892 172.082,348.388 169.847,353.945 168.639,354.73 168.226,355.026 164.653,354.488 164.609,354.5 164.532,354.488 L164.29,357.508 Q163.988,361.132 163.626,364.213 145.264,367.716 118.99,360.891 92.716,354.005 88.911,350.502 85.106,346 84.804,341.261 84.683,339.509 85.287,334.798 85.348,334.436 87.16,332.201 89.032,329.906 89.213,329 89.243,328.882 89.213,328.758 89.321,327.41 85.106,328.758 79.126,330.57 56.839,334.436 45.665,336.308 35.699,337.878 34.914,352.012 34.491,352.012 34.068,352.012 54,359.441 72.603,367.112 72.905,367.233 89.455,374.662 93.381,379.373 96.642,383.299 99.3,386.802 99.602,387.225 99.964,387.648 101.598,389.838 102.984,391.816 103.067,391.963 103.105,392.057 103.625,392.774 104.072,393.446 107.333,398.339 109.568,402.869 110.232,404.137 110.776,405.406 112.044,408.244 112.89,410.902 116.635,422.922 118.688,444.484 118.688,444.813 126.963,444.786 127.039,444.817 127.084,444.786 138.613,444.784 165.8,444.122 167.763,444.076 169.726,444.001 191.264,443.517 212.852,442.854 212.429,440.256 212.61,436.27 212.912,428.297 215.751,421.291 218.771,413.862 226.925,404.137 232.542,397.493 238.582,391.816 238.764,391.574 239.005,391.393 241.3,389.279 245.408,385.896 L253.562,379.615 257.669,376.474 Q247.58,362.345 241.24,353.522 241.241,353.506 241.18,353.462 232.75,341.711 231.093,339.57 L229.885,337.939 229.583,337.516 228.254,346 Q213.275,350.804 205,343.677 L203.792,337.878 M154.989,399.124 Q164.653,404.198 168.277,411.687 171.84,419.116 171.116,429.143 170.753,434.156 169.726,437.901 L127.386,437.478 127.144,441.344 Q126.782,442.37 126.54,428.358 126.299,414.345 117.662,399.184 115.004,394.473 111.803,390.185 L109.447,387.286 115.608,389.52 Q125.151,392.178 135.238,393.144 145.264,394.05 154.989,399.124 M168.277,411.687 Q164.653,404.198 154.989,399.124 145.264,394.05 135.238,393.144 125.151,392.178 115.608,389.52 L109.447,387.286 111.803,390.185 Q115.004,394.473 117.662,399.184 126.299,414.345 126.54,428.358 126.782,442.37 127.144,441.344 L127.386,437.478 169.726,437.901 Q170.753,434.156 171.116,429.143 171.84,419.116 168.277,411.687 M254.588,319.698 Q234.354,303.632 225.717,300.974 219.013,298.92 216.778,301.034 216.234,301.578 215.087,303.45 214,305.323 212.852,306.35 213.154,311.302 215.449,314.322 217.14,316.497 223.664,322.96 224.549,323.872 228.556,328.818 228.62,328.861 228.616,328.879 234.276,335.751 245.891,350.26 262.924,371.582 265.581,372.306 270.051,373.575 278.144,372.79 287.386,371.944 288.775,368.562 290.224,365.058 288.412,360.287 287.084,356.723 280.923,345.791 275.608,336.368 254.588,319.698Z" test="RedBike container" stroke-width="1.208"/>
      <path id="Layer2_0_1_STROKES" stroke="#0FF" stroke-width="1.208" stroke-linejoin="round" stroke-linecap="round" fill="none" d="M212.852,306.35 Q214,305.323 215.087,303.45 216.234,301.578 216.778,301.034 219.013,298.92 225.717,300.974 234.354,303.632 254.588,319.698 275.608,336.368 280.923,345.791 287.084,356.723 288.412,360.287 290.224,365.058 288.775,368.562 287.386,371.944 278.144,372.79 270.051,373.575 265.581,372.306 262.924,371.582 245.891,350.26 234.276,335.751 228.647,328.909 228.62,328.861 228.586,328.818 224.549,323.872 223.664,322.96 217.14,316.497 215.449,314.322 213.154,311.302 212.852,306.35Z" test="RedBike container"/>
      <path id="Layer2_0_2_STROKES" stroke="#FFF" stroke-width="1.208" stroke-linejoin="round" stroke-linecap="round" fill="none" d="M229.583,337.516 L228.254,346 Q213.275,350.804 205,343.677 L203.792,337.878 Q221.187,342.771 222.818,338.301 L223.845,331.536 M229.885,337.939 L229.583,337.516 224.751,331.657 M223.845,331.536 L224.086,330.812 224.751,331.657 M267.212,390.97 L254.347,380.642 M245.408,385.896 L257.669,395.56" test="RedBike container"/>
      <path id="Layer2_0_3_STROKES" stroke="#FF0265" stroke-width="1.208" stroke-linejoin="round" stroke-linecap="round" fill="none" d="M223.845,331.536 Q213.637,330.812 203.128,330.268 180.478,329.181 178.424,330.449 176.25,331.657 175.344,334.677 174.921,336.187 174.498,340.174 174.196,342.892 172.082,348.388 169.847,353.945 168.639,354.73 168.226,355.026 164.683,354.519 164.609,354.5 164.532,354.488 L164.29,357.508 Q163.988,361.132 163.626,364.213 145.264,367.716 118.99,360.891 92.716,354.005 88.911,350.502 85.106,346 84.804,341.261 84.683,339.509 85.287,334.798 85.348,334.436 87.16,332.201 89.032,329.906 89.213,329 89.243,328.882 89.243,328.788 89.321,327.41 85.106,328.758 79.126,330.57 56.839,334.436 45.665,336.308 35.699,337.878 34.914,352.012 34.491,352.012 34.068,352.012 54,359.441 72.603,367.112 72.905,367.233 89.455,374.662 93.381,379.373 96.642,383.299 99.3,386.802 99.602,387.225 99.964,387.648 101.598,389.838 102.984,391.846 103.067,391.963 103.135,392.087 103.625,392.774 104.072,393.446 107.333,398.339 109.568,402.869 110.232,404.137 110.776,405.406 112.044,408.244 112.89,410.902 116.635,422.922 118.688,444.484 118.688,444.813 126.963,444.817 127.039,444.817 127.114,444.817 138.613,444.784 165.8,444.122 167.763,444.076 169.726,444.031 191.264,443.517 212.852,442.854 212.429,440.256 212.61,436.27 212.912,428.297 215.751,421.291 218.771,413.862 226.925,404.137 232.542,397.493 238.582,391.816 238.764,391.574 239.005,391.393 241.3,389.279 245.408,385.896 L253.562,379.615 257.669,376.474 Q247.58,362.345 241.27,353.552 241.241,353.506 241.21,353.462 232.75,341.711 231.093,339.57 L229.885,337.939 M223.845,331.536 Q224.268,331.597 224.751,331.657 224.992,331.657 225.294,331.657 L229.583,337.516 M89.213,329 Q98.998,334.617 108.3,339.026 123.762,346.516 133.003,348.509 L164.713,353.884 M111.803,390.185 Q115.004,394.473 117.662,399.184 126.299,414.345 126.54,428.358 126.782,442.37 127.144,441.344 L127.386,437.478 169.726,437.901 Q170.753,434.156 171.116,429.143 171.84,419.116 168.277,411.687 164.653,404.198 154.989,399.124 145.264,394.05 135.238,393.144 125.151,392.178 115.608,389.52 L109.477,387.286 111.803,390.185Z" test="RedBike container"/>
      <use xlink:href="#Bike-Wheel" transform="matrix(1.208 0 0 1.208 289.25 429.25)"/>
      <use xlink:href="#Bike-Wheel" transform="matrix(1.208 0 0 1.208 60.25 433.85)"/>
    </g>
  </g>
</svg>