<?xml version="1.0" encoding="utf-8"?>
<svg id="EdithAnim11" image-rendering="inherit" baseProfile="basic" version="1.1" x="0px" y="0px" width="800" height="600" xmlns="http://www.w3.org/2000/svg" xmlns:xlink="http://www.w3.org/1999/xlink">
  <defs>
    <g id="Bike-Wheel" overflow="visible">
      <path id="Layer4_0_1_STROKES" stroke="#FFF" stroke-width="1" stroke-linejoin="round" stroke-linecap="round" fill="none" d="M2.05 -34.85Q-12.35 -34.85 -22.65 -26.45 -34 -17.2 -34.7 -1.55 -35.4 14.3 -26.6 24.6 -18.4 34.2 -5.6 34.85 7.15 35.5 19.2 29.8 31.25 24.1 34.05 7.25 36.85 -9.65 28.9 -21.15 19.4 -34.85 2.05 -34.85Z" test="Bike Wheel"/>
      <path id="Layer3_0_1_STROKES" stroke="#FFF" stroke-width="1" stroke-linejoin="round" stroke-linecap="round" fill="none" d="M.55 -26.55Q4.65 -26.85 7.1 -26.15 9.75 -25.4 12 -23.15 13.95 -21.25 8 -15.35 5.3 -12.6 2.25 -10.2 1.95 -10 1.7 -9.8M24.45 -8.9Q26.2 -5.15 26.45 -2.65 26.7 .1 25.4 3.05 24.35 5.5 16.7 2.1 13.2 .6 9.85 -1.4 9.5 -1.6 9.25 -1.75M18.45 20Q15.75 23.1 13.55 24.35 11.2 25.75 8 25.75 5.3 25.75 5.25 17.4 5.2 13.55 5.65 9.7 5.7 9.35 5.75 9M-25.15 -7.15Q-24.25 -11.2 -22.85 -13.3 -21.4 -15.6 -18.6 -17.1 -16.2 -18.45 -12.25 -11.05 -10.4 -7.65 -9 -4.1 -8.9 -3.7 -8.75 -3.4M-12.85 23.8Q-16.75 22.4 -18.7 20.8 -20.85 19.05 -22.05 16.1 -23.1 13.6 -15.3 10.55 -11.75 9.05 -8 8.05 -7.65 8 -7.3 7.95" test="Bike Wheel"/>
    </g>
  </defs>
  <g id="19_Motorbikesf7r1" overflow="visible">
    <g id="MotorBikeBluef0r1">
      <path fill="#000" stroke="none" d="M86.4,274.55 L85.75,273.7 79,278.9 89.15,286.9 90.7,289.3 Q95.125,286.543 98.1,284.65 L97.05,283.1 86.4,274.55 M60.3,239.5 Q58.95,243.2 44.55,239.15 L45.55,243.95 Q52.4,249.85 64.8,246.7 L65.9,238.85 61.9,234 Q61.5,233.95 61.15,233.9 L60.3,239.5 M86.6,224.1 Q69.85,210.8 62.7,208.6 57.15,206.9 55.3,208.65 54.85,209.1 53.9,210.65 53,212.2 52.05,213.05 52.3,217.15 54.2,219.65 55.6,221.45 61,226.8 61.733,227.555 65.05,231.65 65.103,231.685 65.1,231.7 69.785,237.389 79.4,249.4 93.5,267.05 95.7,267.65 99.4,268.7 106.1,268.05 113.75,267.35 114.9,264.55 116.1,261.65 114.6,257.7 113.5,254.75 108.4,245.7 104,237.9 86.6,224.1Z" test="BlueBikeContainer"/>
      <path id="Layer2_0_1_STROKES" stroke="#0FF" stroke-width="1" stroke-linejoin="round" stroke-linecap="round" fill="none" d="M52.05,213.05 Q53,212.2 53.9,210.65 54.85,209.1 55.3,208.65 57.15,206.9 62.7,208.6 69.85,210.8 86.6,224.1 104,237.9 108.4,245.7 113.5,254.75 114.6,257.7 116.1,261.65 114.9,264.55 113.75,267.35 106.1,268.05 99.4,268.7 95.7,267.65 93.5,267.05 79.4,249.4 69.785,237.389 65.125,231.725 65.103,231.685 65.075,231.65 61.733,227.555 61,226.8 55.6,221.45 54.2,219.65 52.3,217.15 52.05,213.05Z" test="BlueBikeContainer"/>
      <path id="Layer2_0_2_STROKES" stroke="#009EFF" stroke-width="1" stroke-linejoin="round" stroke-linecap="round" fill="none" d="M61.15,233.9 Q52.7,233.3 44,232.85 25.25,231.95 23.55,233 21.75,234 21,236.5 20.65,237.75 20.3,241.05 20.05,243.3 18.3,247.85 16.45,252.45 15.45,253.1 15.108,253.345 12.175,252.925 12.114,252.91 12.05,252.9 L11.85,255.4 Q11.6,258.4 11.3,260.95 -3.9,263.85 -25.65,258.2 -47.4,252.5 -50.55,249.6 -53.7,246.7 -53.95,241.95 -54.05,240.5 -53.55,236.6 -53.5,236.3 -52,234.45 -50.45,232.55 -50.3,231.8 -50.275,231.703 -50.275,231.625 -50.211,230.484 -53.7,231.6 -58.65,233.1 -77.1,236.3 -86.35,237.85 -94.6,239.15 -95.25,250.85 -95.6,250.85 -95.95,250.85 -79.45,257 -64.05,263.35 -63.8,263.45 -50.1,269.6 -46.85,273.5 -44.15,276.75 -41.95,279.65 -41.7,280 -41.4,280.35 -39.5,282.9 -38,285.15 -35.3,289.2 -33.45,292.95 -32.9,294 -32.45,295.05 -31.4,297.4 -30.7,299.6 -27.6,309.55 -25.9,327.4 -25.9,328.05 13.1,327.1 32.55,326.65 52.05,326.05 51.7,323.9 51.85,320.6 52.1,314 54.45,308.2 56.95,302.05 63.7,294 68.35,288.5 73.35,283.8 73.5,283.6 73.7,283.45 75.6,281.7 79,278.9 L85.75,273.7 89.15,271.1 Q80.798,259.404 75.575,252.125 75.551,252.087 75.525,252.05 68.522,242.323 67.15,240.55 L66.15,239.2 M61.9,234 Q62.1,234 62.35,234 L65.9,238.85 M61.9,234 Q61.5,233.95 61.15,233.9 M-50.3,231.8 Q-42.2,236.45 -34.5,240.1 -21.7,246.3 -14.05,247.95 L12.2,252.4 M-33.45,280.15 L-31.6,282.45 Q-28.95,286 -26.75,289.9 -19.6,302.45 -19.4,314.05 -19.2,325.65 -18.9,324.8 L-18.7,321.6 16.35,321.95 Q17.2,318.85 17.5,314.7 18.1,306.4 15.15,300.25 12.15,294.05 4.15,289.85 -3.9,285.65 -12.2,284.9 -20.55,284.1 -28.45,281.9 L-33.45,280.15Z" test="BlueBikeContainer"/>
      <path id="Layer2_0_3_STROKES" stroke="#FFF" stroke-width="1" stroke-linejoin="round" stroke-linecap="round" fill="none" d="M66.15,239.2 L65.9,238.85 64.8,246.7 Q52.4,249.85 45.55,243.95 L44.55,239.15 Q58.95,243.2 60.3,239.5 L61.15,233.9 61.35,233.3 61.9,234 65.9,238.85 M97.05,283.1 L86.4,274.55 M79,278.9 L89.15,286.9" test="BlueBikeContainer"/>
      <use xlink:href="#Bike-Wheel" transform="translate(115.3 314.8)"/>
      <use xlink:href="#Bike-Wheel" transform="translate(-74.25 318.6)"/>
    </g>
    <g id="MotorBikePinkf0r1">
      <path fill="#000" stroke="none" d="M-163.346,341.261 Q-163.044,346 -159.239,350.502 -155.434,354.005 -129.16,360.891 -102.886,367.716 -84.524,364.213 -84.162,361.132 -83.86,357.508 L-83.618,354.488 Q-83.541,354.5 -83.497,354.488 L-83.437,353.884 -115.147,348.509 Q-124.388,346.516 -139.85,339.026 -149.152,334.617 -158.937,329 -159.118,329.906 -160.99,332.201 -162.802,334.436 -162.863,334.798 -163.467,339.509 -163.346,341.261 M6.197,380.642 L5.412,379.615 -2.742,385.896 9.519,395.56 11.391,398.46 Q16.737,395.129 20.33,392.842 L19.062,390.97 6.197,380.642 M-25.332,338.301 Q-26.963,342.771 -44.358,337.878 L-43.15,343.677 Q-34.875,350.804 -19.896,346 L-18.567,337.516 -23.399,331.657 Q-23.882,331.597 -24.305,331.536 L-25.332,338.301 M-44.358,337.878 Q-26.963,342.771 -25.332,338.301 L-24.305,331.536 Q-34.513,330.812 -45.022,330.268 -67.672,329.181 -69.726,330.449 -71.9,331.657 -72.806,334.677 -73.229,336.187 -73.652,340.174 -73.954,342.892 -76.068,348.388 -78.303,353.945 -79.511,354.73 -79.924,355.026 -83.497,354.488 -83.541,354.5 -83.618,354.488 L-83.86,357.508 Q-84.162,361.132 -84.524,364.213 -102.886,367.716 -129.16,360.891 -155.434,354.005 -159.239,350.502 -163.044,346 -163.346,341.261 -163.467,339.509 -162.863,334.798 -162.802,334.436 -160.99,332.201 -159.118,329.906 -158.937,329 -158.907,328.882 -158.937,328.758 -158.829,327.41 -163.044,328.758 -169.024,330.57 -191.311,334.436 -202.485,336.308 -212.451,337.878 -213.236,352.012 -213.659,352.012 -214.082,352.012 -194.15,359.441 -175.547,367.112 -175.245,367.233 -158.695,374.662 -154.769,379.373 -151.508,383.299 -148.85,386.802 -148.548,387.225 -148.186,387.648 -146.552,389.838 -145.166,391.816 -145.083,391.963 -145.045,392.057 -144.525,392.774 -144.078,393.446 -140.817,398.339 -138.582,402.869 -137.918,404.137 -137.374,405.406 -136.106,408.244 -135.26,410.902 -131.515,422.922 -129.462,444.484 -129.462,444.813 -121.187,444.786 -121.111,444.817 -121.066,444.786 -109.537,444.784 -82.35,444.122 -80.387,444.076 -78.424,444.001 -56.886,443.517 -35.298,442.854 -35.721,440.256 -35.54,436.27 -35.238,428.297 -32.399,421.291 -29.379,413.862 -21.225,404.137 -15.608,397.493 -9.568,391.816 -9.386,391.574 -9.145,391.393 -6.85,389.279 -2.742,385.896 L5.412,379.615 9.519,376.474 Q-.57,362.345 -6.91,353.522 -6.909,353.506 -6.97,353.462 -15.4,341.711 -17.057,339.57 L-18.265,337.939 -18.567,337.516 -19.896,346 Q-34.875,350.804 -43.15,343.677 L-44.358,337.878 M-93.161,399.124 Q-83.497,404.198 -79.873,411.687 -76.31,419.116 -77.034,429.143 -77.397,434.156 -78.424,437.901 L-120.764,437.478 -121.006,441.344 Q-121.368,442.37 -121.61,428.358 -121.851,414.345 -130.488,399.184 -133.146,394.473 -136.347,390.185 L-138.703,387.286 -132.542,389.52 Q-122,392.178 -112.912,393.144 -102.886,394.05 -93.161,399.124 M-79.873,411.687 Q-83.497,404.198 -93.161,399.124 -102.886,394.05 -112.912,393.144 -122,392.178 -132.542,389.52 L-138.703,387.286 -136.347,390.185 Q-133.146,394.473 -130.488,399.184 -121.851,414.345 -121.61,428.358 -121.368,442.37 -121.006,441.344 L-120.764,437.478 -78.424,437.901 Q-77.397,434.156 -77.034,429.143 -76.31,419.116 -79.873,411.687 M6.438,319.698 Q-13.796,303.632 -22.433,300.974 -29.137,298.92 -31.372,301.034 -31.916,301.578 -33.063,303.45 -34.15,305.323 -35.298,306.35 -34.996,311.302 -32.701,314.322 -31.01,316.497 -24.486,322.96 -23.601,323.872 -19.594,328.818 -19.53,328.861 -19.534,328.879 -13.874,335.751 -2.259,350.26 14.774,371.582 17.431,372.306 21.901,373.575 29.994,372.79 39.236,371.944 40.625,368.562 42.074,365.058 40.262,360.287 38.934,356.723 32.773,345.791 27.458,336.368 6.438,319.698Z" test="RedBike container" stroke-width="1.208"/>
      <path id="Layer1_0_1_STROKES" stroke="#0FF" stroke-width="1.208" stroke-linejoin="round" stroke-linecap="round" fill="none" d="M-35.298,306.35 Q-34.15,305.323 -33.063,303.45 -31.916,301.578 -31.372,301.034 -29.137,298.92 -22.433,300.974 -13.796,303.632 6.438,319.698 27.458,336.368 32.773,345.791 38.934,356.723 40.262,360.287 42.074,365.058 40.625,368.562 39.236,371.944 29.994,372.79 21.901,373.575 17.431,372.306 14.774,371.582 -2.259,350.26 -13.874,335.751 -19.503,328.909 -19.53,328.861 -19.564,328.818 -23.601,323.872 -24.486,322.96 -31.01,316.497 -32.701,314.322 -34.996,311.302 -35.298,306.35Z" test="RedBike container"/>
      <path id="Layer1_0_2_STROKES" stroke="#FFF" stroke-width="1.208" stroke-linejoin="round" stroke-linecap="round" fill="none" d="M-18.567,337.516 L-19.896,346 Q-34.875,350.804 -43.15,343.677 L-44.358,337.878 Q-26.963,342.771 -25.332,338.301 L-24.305,331.536 M-18.265,337.939 L-18.567,337.516 -23.399,331.657 M-24.305,331.536 L-24.064,330.812 -23.399,331.657 M19.062,390.97 L6.197,380.642 M-2.742,385.896 L9.519,395.56" test="RedBike container"/>
      <path id="Layer1_0_3_STROKES" stroke="#FF0265" stroke-width="1.208" stroke-linejoin="round" stroke-linecap="round" fill="none" d="M-24.305,331.536 Q-34.513,330.812 -45.022,330.268 -67.672,329.181 -69.726,330.449 -71.9,331.657 -72.806,334.677 -73.229,336.187 -73.652,340.174 -73.954,342.892 -76.068,348.388 -78.303,353.945 -79.511,354.73 -79.924,355.026 -83.467,354.519 -83.541,354.5 -83.618,354.488 L-83.86,357.508 Q-84.162,361.132 -84.524,364.213 -102.886,367.716 -129.16,360.891 -155.434,354.005 -159.239,350.502 -163.044,346 -163.346,341.261 -163.467,339.509 -162.863,334.798 -162.802,334.436 -160.99,332.201 -159.118,329.906 -158.937,329 -158.907,328.882 -158.907,328.788 -158.829,327.41 -163.044,328.758 -169.024,330.57 -191.311,334.436 -202.485,336.308 -212.451,337.878 -213.236,352.012 -213.659,352.012 -214.082,352.012 -194.15,359.441 -175.547,367.112 -175.245,367.233 -158.695,374.662 -154.769,379.373 -151.508,383.299 -148.85,386.802 -148.548,387.225 -148.186,387.648 -146.552,389.838 -145.166,391.846 -145.083,391.963 -145.015,392.087 -144.525,392.774 -144.078,393.446 -140.817,398.339 -138.582,402.869 -137.918,404.137 -137.374,405.406 -136.106,408.244 -135.26,410.902 -131.515,422.922 -129.462,444.484 -129.462,444.813 -121.187,444.817 -121.111,444.817 -121.036,444.817 -109.537,444.784 -82.35,444.122 -80.387,444.076 -78.424,444.031 -56.886,443.517 -35.298,442.854 -35.721,440.256 -35.54,436.27 -35.238,428.297 -32.399,421.291 -29.379,413.862 -21.225,404.137 -15.608,397.493 -9.568,391.816 -9.386,391.574 -9.145,391.393 -6.85,389.279 -2.742,385.896 L5.412,379.615 9.519,376.474 Q-.57,362.345 -6.88,353.552 -6.909,353.506 -6.94,353.462 -15.4,341.711 -17.057,339.57 L-18.265,337.939 M-24.305,331.536 Q-23.882,331.597 -23.399,331.657 -23.158,331.657 -22.856,331.657 L-18.567,337.516 M-158.937,329 Q-149.152,334.617 -139.85,339.026 -124.388,346.516 -115.147,348.509 L-83.437,353.884 M-136.347,390.185 Q-133.146,394.473 -130.488,399.184 -121.851,414.345 -121.61,428.358 -121.368,442.37 -121.006,441.344 L-120.764,437.478 -78.424,437.901 Q-77.397,434.156 -77.034,429.143 -76.31,419.116 -79.873,411.687 -83.497,404.198 -93.161,399.124 -102.886,394.05 -112.912,393.144 -122,392.178 -132.542,389.52 L-138.673,387.286 -136.347,390.185Z" test="RedBike container"/>
      <use xlink:href="#Bike-Wheel" transform="matrix(1.208 0 0 1.208 41.1 429.25)"/>
      <use xlink:href="#Bike-Wheel" transform="matrix(1.208 0 0 1.208 -187.85 433.85)"/>
    </g>
  </g>
</svg>