<?xml version="1.0" encoding="utf-8"?>
<svg id="EdithAnim11" image-rendering="inherit" baseProfile="basic" version="1.1" x="0px" y="0px" width="800" height="600" xmlns="http://www.w3.org/2000/svg" xmlns:xlink="http://www.w3.org/1999/xlink">
  <defs>
    <g id="Bike-Wheel" overflow="visible">
      <path id="Layer5_0_1_STROKES" stroke="#FFF" stroke-width="1" stroke-linejoin="round" stroke-linecap="round" fill="none" d="M2.05 -34.85Q-12.35 -34.85 -22.65 -26.45 -34 -17.2 -34.7 -1.55 -35.4 14.3 -26.6 24.6 -18.4 34.2 -5.6 34.85 7.15 35.5 19.2 29.8 31.25 24.1 34.05 7.25 36.85 -9.65 28.9 -21.15 19.4 -34.85 2.05 -34.85Z" test="Bike Wheel"/>
      <path id="Layer4_0_1_STROKES" stroke="#FFF" stroke-width="1" stroke-linejoin="round" stroke-linecap="round" fill="none" d="M.55 -26.55Q4.65 -26.85 7.1 -26.15 9.75 -25.4 12 -23.15 13.95 -21.25 8 -15.35 5.3 -12.6 2.25 -10.2 1.95 -10 1.7 -9.8M24.45 -8.9Q26.2 -5.15 26.45 -2.65 26.7 .1 25.4 3.05 24.35 5.5 16.7 2.1 13.2 .6 9.85 -1.4 9.5 -1.6 9.25 -1.75M18.45 20Q15.75 23.1 13.55 24.35 11.2 25.75 8 25.75 5.3 25.75 5.25 17.4 5.2 13.55 5.65 9.7 5.7 9.35 5.75 9M-25.15 -7.15Q-24.25 -11.2 -22.85 -13.3 -21.4 -15.6 -18.6 -17.1 -16.2 -18.45 -12.25 -11.05 -10.4 -7.65 -9 -4.1 -8.9 -3.7 -8.75 -3.4M-12.85 23.8Q-16.75 22.4 -18.7 20.8 -20.85 19.05 -22.05 16.1 -23.1 13.6 -15.3 10.55 -11.75 9.05 -8 8.05 -7.65 8 -7.3 7.95" test="Bike Wheel"/>
    </g>
  </defs>
  <g id="19_Motorbikesf70r1" overflow="visible">
    <g id="Smokef10r1">
      <path fill="#000" stroke="none" d="M158.014,179.259 Q147.891,171.566 131.514,169.453 127.009,168.621 116.303,169.695 80.422,150.915 39.877,165.121 27.422,138.684 -36.92,144.505 -68.084,113.978 -146.895,110.374 -146.895,243.881 -146.895,377.387 -123.522,400.256 -82.023,383.001 -26.161,385.253 -19.377,363.008 29.383,371.913 60.918,354.553 85.51,359.058 98.707,342.218 105.597,347.727 121.073,344.019 133.952,343.084 141.69,337.921 146.778,344.297 158.968,338.683 166.282,336.535 173.596,334.387 176.829,339.099 186.528,335.426 189.125,334.837 191.722,334.248 214.618,346.895 250.181,331.58 279.49,332.134 295.867,326.244 311.29,320.873 315.106,309.681 365.244,317.824 398.051,299.771 423.385,303.895 437.324,286.639 444.532,291.975 460.379,288.06 473.576,286.951 481.632,281.58 487.038,287.782 499.493,281.996 507.019,279.744 514.545,277.457 518.043,282.031 527.954,278.254 533.307,276.972 538.66,275.69 546.557,275.482 554.401,275.239 554.401,274.096 554.878,271.532 555.09,270.354 555.302,269.175 555.302,267.582 555.302,265.988 552.599,266.369 549.896,266.715 548.783,263.978 547.882,263.77 539.932,261.518 536.222,263.077 529.703,260.34 520.958,260.652 510.994,252.959 491.384,256.632 482.003,249.806 467.534,247.554 466.103,247.277 464.619,247.069 460.326,245.96 449.832,246.791 418.88,228.254 384.642,237.124 379.66,238.268 374.625,239.931 361.428,212.904 296.874,218.552 267.671,190.97 202.216,186.189 195.803,183.347 187.164,183.59 177.412,175.724 158.014,179.259Z" test="Smoke" vector-effect="non-scaling-stroke" stroke-width="1"/>
      <path id="Layer1_0_1_STROKES" stroke="#FFF" stroke-width="1" stroke-linejoin="round" stroke-linecap="round" fill="none" d="M554.401,275.239 Q546.557,275.482 538.66,275.69 533.307,276.972 527.954,278.254 518.043,282.031 514.545,277.457 507.019,279.744 499.493,281.996 487.038,287.782 481.632,281.58 473.576,286.951 460.379,288.06 444.532,291.975 437.324,286.639 423.385,303.895 398.051,299.771 365.244,317.824 315.106,309.681 311.29,320.873 295.867,326.244 279.49,332.134 250.181,331.58 214.618,346.895 191.722,334.248 189.125,334.837 186.528,335.426 176.829,339.099 173.596,334.387 166.282,336.535 158.968,338.683 146.778,344.297 141.69,337.921 133.952,343.084 121.073,344.019 105.597,347.727 98.707,342.218 85.51,359.058 60.918,354.553 29.383,371.913 -19.377,363.008 -26.161,385.253 -82.023,383.001 -123.522,400.256 -146.895,377.387 -146.895,243.881 -146.895,110.374 -68.084,113.978 -36.92,144.505 27.422,138.684 39.877,165.121 80.422,150.915 116.303,169.695 127.009,168.621 131.514,169.453 147.891,171.566 158.014,179.259 177.412,175.724 187.164,183.59 195.803,183.347 202.216,186.189 267.671,190.97 296.874,218.552 361.428,212.904 374.625,239.931 379.66,238.268 384.642,237.124 418.88,228.254 449.832,246.791 460.326,245.96 464.619,247.069 466.103,247.277 467.534,247.554 482.003,249.806 491.384,256.632 510.994,252.959 520.958,260.652 529.703,260.34 536.222,263.077 539.932,261.518 547.882,263.77 548.783,263.978 549.896,266.715 552.599,266.369 555.302,265.988 555.302,267.582 555.302,269.175 555.09,270.354 554.878,271.532 554.401,274.096 554.401,275.239Z" test="Smoke" vector-effect="non-scaling-stroke"/>
    </g>
    <g id="MotorBikeBluef10r1">
      <g id="BlueBikeContainer">
        <path fill="#000" stroke="none" d="M674.776,219.172 L673.861,218.62 669.486,225.926 681.854,229.651 684.174,231.316 Q687.28,227.133 689.354,224.283 L687.81,223.226 674.776,219.172 M637.675,196.129 Q637.774,200.064 622.899,201.568 L625.586,205.666 Q634.116,208.645 644.495,201.178 L642.645,193.474 637.15,190.428 Q636.76,190.528 636.416,190.609 L637.675,196.129 M656.498,172.181 Q636.052,165.942 628.598,166.513 622.814,166.963 621.734,169.268 621.48,169.851 621.164,171.64 620.894,173.411 620.322,174.55 622.055,178.271 624.737,179.901 626.698,181.062 633.678,184.061 634.636,184.495 639.219,187.09 639.281,187.103 639.284,187.118 645.723,190.694 659.061,198.345 678.634,209.599 680.9,209.352 684.725,208.974 690.718,205.917 697.577,202.466 697.621,199.441 697.676,196.305 694.835,193.181 692.732,190.84 684.677,184.29 677.73,178.646 656.498,172.181Z" test="BlueBikeContainer" vector-effect="non-scaling-stroke" stroke-width="1"/>
        <path id="Layer3_0_1_STROKES" stroke="#0FF" stroke-width="1" stroke-linejoin="round" stroke-linecap="round" fill="none" d="M620.322,174.55 Q620.894,173.411 621.164,171.64 621.48,169.851 621.734,169.268 622.814,166.963 628.598,166.513 636.052,165.942 656.498,172.181 677.73,178.646 684.677,184.29 692.732,190.84 694.835,193.181 697.676,196.305 697.621,199.441 697.577,202.466 690.718,205.917 684.725,208.974 680.9,209.352 678.634,209.599 659.061,198.345 645.723,190.694 639.317,187.132 639.281,187.103 639.243,187.08 634.636,184.495 633.678,184.061 626.698,181.062 624.737,179.901 622.055,178.271 620.322,174.55Z" test="BlueBikeContainer" vector-effect="non-scaling-stroke"/>
        <path id="Layer3_0_2_STROKES" stroke="#009EFF" stroke-width="1" stroke-linejoin="round" stroke-linecap="round" fill="none" d="M636.416,190.609 Q628.338,193.144 620.082,195.91 602.315,201.935 601.118,203.534 599.81,205.123 600.028,207.722 600.16,209.013 601.042,212.21 601.633,214.394 601.671,219.266 601.634,224.221 600.942,225.192 600.714,225.545 597.832,226.228 597.77,226.236 597.707,226.25 L598.436,228.648 Q599.301,231.53 599.956,234.011 586.881,242.271 564.586,244.977 542.272,247.637 538.281,246.093 534.29,244.549 532.319,240.223 531.695,238.911 530.733,235.101 530.67,234.803 531.388,232.534 532.134,230.2 531,229.447 531.986,229.348 531.958,229.275 531.6,228.191 528.764,230.506 524.709,233.712 508.722,243.441 500.686,248.268 493.49,252.496 497.168,263.615 496.842,263.743 496.517,263.872 514.112,263.552 530.759,263.821 531.028,263.823 546.02,264.528 550.469,266.965 554.17,269 557.277,270.892 557.638,271.126 558.045,271.341 560.745,273.017 562.964,274.561 566.957,277.339 570.05,280.15 570.946,280.925 571.749,281.737 573.585,283.538 575.042,285.328 581.566,293.446 589.68,309.425 589.918,310.029 625.841,294.872 643.764,287.335 661.68,279.64 660.567,277.768 659.499,274.644 657.316,268.415 657.379,262.161 657.453,255.526 660.784,245.569 663.095,238.752 666.025,232.551 666.092,232.31 666.223,232.098 667.349,229.775 669.486,225.926 L673.861,218.62 676.071,214.957 Q664.023,207.137 656.501,202.279 656.465,202.253 656.427,202.228 646.355,195.745 644.43,194.598 L643.006,193.708 M637.15,190.428 Q637.336,190.355 637.568,190.263 L642.645,193.474 M637.15,190.428 Q636.76,190.528 636.416,190.609 M531,229.447 Q541.234,230.807 549.731,231.383 563.904,232.465 571.622,231.199 L597.663,225.73 M565.365,268.246 L567.928,269.707 Q571.691,272.039 575.165,274.861 586.408,283.915 590.839,294.63 595.271,305.345 595.239,304.445 L594.254,301.396 626.978,288.893 Q626.634,285.699 625.394,281.729 622.914,273.791 617.92,269.151 612.861,264.483 603.884,263.505 594.86,262.545 586.866,264.886 578.808,267.198 570.656,268.043 L565.365,268.246Z" test="BlueBikeContainer" vector-effect="non-scaling-stroke"/>
        <path id="Layer3_0_3_STROKES" stroke="#FFF" stroke-width="1" stroke-linejoin="round" stroke-linecap="round" fill="none" d="M643.006,193.708 L642.645,193.474 644.495,201.178 Q634.116,208.645 625.586,205.666 L622.899,201.568 Q637.774,200.064 637.675,196.129 L636.416,190.609 636.382,189.978 637.15,190.428 642.645,193.474 M687.81,223.226 L674.776,219.172 M669.486,225.926 L681.854,229.651" test="BlueBikeContainer" vector-effect="non-scaling-stroke"/>
        <use xlink:href="#Bike-Wheel" transform="matrix(.93 -.366 .366 .93 716.35 246)"/>
        <use xlink:href="#Bike-Wheel" transform="matrix(.93 -.366 .366 .93 541.45 318.9)"/>
      </g>
    </g>
    <g id="MotorBikePinkf0r1">
      <path fill="#000" stroke="none" d="M84.804,341.261 Q85.106,346 88.911,350.502 92.716,354.005 118.99,360.891 145.264,367.716 163.626,364.213 163.988,361.132 164.29,357.508 L164.532,354.488 Q164.609,354.5 164.653,354.488 L164.713,353.884 133.003,348.509 Q123.762,346.516 108.3,339.026 98.998,334.617 89.213,329 89.032,329.906 87.16,332.201 85.348,334.436 85.287,334.798 84.683,339.509 84.804,341.261 M254.347,380.642 L253.562,379.615 245.408,385.896 257.669,395.56 259.541,398.46 Q264.887,395.129 268.48,392.842 L267.212,390.97 254.347,380.642 M222.818,338.301 Q221.187,342.771 203.792,337.878 L205,343.677 Q213.275,350.804 228.254,346 L229.583,337.516 224.751,331.657 Q224.268,331.597 223.845,331.536 L222.818,338.301 M203.792,337.878 Q221.187,342.771 222.818,338.301 L223.845,331.536 Q213.637,330.812 203.128,330.268 180.478,329.181 178.424,330.449 176.25,331.657 175.344,334.677 174.921,336.187 174.498,340.174 174.196,342.892 172.082,348.388 169.847,353.945 168.639,354.73 168.226,355.026 164.653,354.488 164.609,354.5 164.532,354.488 L164.29,357.508 Q163.988,361.132 163.626,364.213 145.264,367.716 118.99,360.891 92.716,354.005 88.911,350.502 85.106,346 84.804,341.261 84.683,339.509 85.287,334.798 85.348,334.436 87.16,332.201 89.032,329.906 89.213,329 89.243,328.882 89.213,328.758 89.321,327.41 85.106,328.758 79.126,330.57 56.839,334.436 45.665,336.308 35.699,337.878 34.914,352.012 34.491,352.012 34.068,352.012 54,359.441 72.603,367.112 72.905,367.233 89.455,374.662 93.381,379.373 96.642,383.299 99.3,386.802 99.602,387.225 99.964,387.648 101.598,389.838 102.984,391.816 103.067,391.963 103.105,392.057 103.625,392.774 104.072,393.446 107.333,398.339 109.568,402.869 110.232,404.137 110.776,405.406 112.044,408.244 112.89,410.902 116.635,422.922 118.688,444.484 118.688,444.813 126.963,444.786 127.039,444.817 127.084,444.786 138.613,444.784 165.8,444.122 167.763,444.076 169.726,444.001 191.264,443.517 212.852,442.854 212.429,440.256 212.61,436.27 212.912,428.297 215.751,421.291 218.771,413.862 226.925,404.137 232.542,397.493 238.582,391.816 238.764,391.574 239.005,391.393 241.3,389.279 245.408,385.896 L253.562,379.615 257.669,376.474 Q247.58,362.345 241.24,353.522 241.241,353.506 241.18,353.462 232.75,341.711 231.093,339.57 L229.885,337.939 229.583,337.516 228.254,346 Q213.275,350.804 205,343.677 L203.792,337.878 M154.989,399.124 Q164.653,404.198 168.277,411.687 171.84,419.116 171.116,429.143 170.753,434.156 169.726,437.901 L127.386,437.478 127.144,441.344 Q126.782,442.37 126.54,428.358 126.299,414.345 117.662,399.184 115.004,394.473 111.803,390.185 L109.447,387.286 115.608,389.52 Q125.151,392.178 135.238,393.144 145.264,394.05 154.989,399.124 M168.277,411.687 Q164.653,404.198 154.989,399.124 145.264,394.05 135.238,393.144 125.151,392.178 115.608,389.52 L109.447,387.286 111.803,390.185 Q115.004,394.473 117.662,399.184 126.299,414.345 126.54,428.358 126.782,442.37 127.144,441.344 L127.386,437.478 169.726,437.901 Q170.753,434.156 171.116,429.143 171.84,419.116 168.277,411.687 M254.588,319.698 Q234.354,303.632 225.717,300.974 219.013,298.92 216.778,301.034 216.234,301.578 215.087,303.45 214,305.323 212.852,306.35 213.154,311.302 215.449,314.322 217.14,316.497 223.664,322.96 224.549,323.872 228.556,328.818 228.62,328.861 228.616,328.879 234.276,335.751 245.891,350.26 262.924,371.582 265.581,372.306 270.051,373.575 278.144,372.79 287.386,371.944 288.775,368.562 290.224,365.058 288.412,360.287 287.084,356.723 280.923,345.791 275.608,336.368 254.588,319.698Z" test="RedBike container" stroke-width="1.208"/>
      <path id="Layer2_0_1_STROKES" stroke="#0FF" stroke-width="1.208" stroke-linejoin="round" stroke-linecap="round" fill="none" d="M212.852,306.35 Q214,305.323 215.087,303.45 216.234,301.578 216.778,301.034 219.013,298.92 225.717,300.974 234.354,303.632 254.588,319.698 275.608,336.368 280.923,345.791 287.084,356.723 288.412,360.287 290.224,365.058 288.775,368.562 287.386,371.944 278.144,372.79 270.051,373.575 265.581,372.306 262.924,371.582 245.891,350.26 234.276,335.751 228.647,328.909 228.62,328.861 228.586,328.818 224.549,323.872 223.664,322.96 217.14,316.497 215.449,314.322 213.154,311.302 212.852,306.35Z" test="RedBike container"/>
      <path id="Layer2_0_2_STROKES" stroke="#FFF" stroke-width="1.208" stroke-linejoin="round" stroke-linecap="round" fill="none" d="M229.583,337.516 L228.254,346 Q213.275,350.804 205,343.677 L203.792,337.878 Q221.187,342.771 222.818,338.301 L223.845,331.536 M229.885,337.939 L229.583,337.516 224.751,331.657 M223.845,331.536 L224.086,330.812 224.751,331.657 M267.212,390.97 L254.347,380.642 M245.408,385.896 L257.669,395.56" test="RedBike container"/>
      <path id="Layer2_0_3_STROKES" stroke="#FF0265" stroke-width="1.208" stroke-linejoin="round" stroke-linecap="round" fill="none" d="M223.845,331.536 Q213.637,330.812 203.128,330.268 180.478,329.181 178.424,330.449 176.25,331.657 175.344,334.677 174.921,336.187 174.498,340.174 174.196,342.892 172.082,348.388 169.847,353.945 168.639,354.73 168.226,355.026 164.683,354.519 164.609,354.5 164.532,354.488 L164.29,357.508 Q163.988,361.132 163.626,364.213 145.264,367.716 118.99,360.891 92.716,354.005 88.911,350.502 85.106,346 84.804,341.261 84.683,339.509 85.287,334.798 85.348,334.436 87.16,332.201 89.032,329.906 89.213,329 89.243,328.882 89.243,328.788 89.321,327.41 85.106,328.758 79.126,330.57 56.839,334.436 45.665,336.308 35.699,337.878 34.914,352.012 34.491,352.012 34.068,352.012 54,359.441 72.603,367.112 72.905,367.233 89.455,374.662 93.381,379.373 96.642,383.299 99.3,386.802 99.602,387.225 99.964,387.648 101.598,389.838 102.984,391.846 103.067,391.963 103.135,392.087 103.625,392.774 104.072,393.446 107.333,398.339 109.568,402.869 110.232,404.137 110.776,405.406 112.044,408.244 112.89,410.902 116.635,422.922 118.688,444.484 118.688,444.813 126.963,444.817 127.039,444.817 127.114,444.817 138.613,444.784 165.8,444.122 167.763,444.076 169.726,444.031 191.264,443.517 212.852,442.854 212.429,440.256 212.61,436.27 212.912,428.297 215.751,421.291 218.771,413.862 226.925,404.137 232.542,397.493 238.582,391.816 238.764,391.574 239.005,391.393 241.3,389.279 245.408,385.896 L253.562,379.615 257.669,376.474 Q247.58,362.345 241.27,353.552 241.241,353.506 241.21,353.462 232.75,341.711 231.093,339.57 L229.885,337.939 M223.845,331.536 Q224.268,331.597 224.751,331.657 224.992,331.657 225.294,331.657 L229.583,337.516 M89.213,329 Q98.998,334.617 108.3,339.026 123.762,346.516 133.003,348.509 L164.713,353.884 M111.803,390.185 Q115.004,394.473 117.662,399.184 126.299,414.345 126.54,428.358 126.782,442.37 127.144,441.344 L127.386,437.478 169.726,437.901 Q170.753,434.156 171.116,429.143 171.84,419.116 168.277,411.687 164.653,404.198 154.989,399.124 145.264,394.05 135.238,393.144 125.151,392.178 115.608,389.52 L109.477,387.286 111.803,390.185Z" test="RedBike container"/>
      <use xlink:href="#Bike-Wheel" transform="matrix(1.208 0 0 1.208 289.25 429.25)"/>
      <use xlink:href="#Bike-Wheel" transform="matrix(1.208 0 0 1.208 60.25 433.85)"/>
    </g>
  </g>
</svg>