<?xml version="1.0" encoding="utf-8"?>
<svg id="EdithAnim11" image-rendering="inherit" baseProfile="basic" version="1.1" x="0px" y="0px" width="800" height="600" xmlns="http://www.w3.org/2000/svg" xmlns:xlink="http://www.w3.org/1999/xlink">
  <defs>
    <g id="Bike-Wheel" overflow="visible">
      <path id="Layer5_0_1_STROKES" stroke="#FFF" stroke-width="1" stroke-linejoin="round" stroke-linecap="round" fill="none" d="M2.05 -34.85Q-12.35 -34.85 -22.65 -26.45 -34 -17.2 -34.7 -1.55 -35.4 14.3 -26.6 24.6 -18.4 34.2 -5.6 34.85 7.15 35.5 19.2 29.8 31.25 24.1 34.05 7.25 36.85 -9.65 28.9 -21.15 19.4 -34.85 2.05 -34.85Z" test="Bike Wheel"/>
      <path id="Layer4_0_1_STROKES" stroke="#FFF" stroke-width="1" stroke-linejoin="round" stroke-linecap="round" fill="none" d="M.55 -26.55Q4.65 -26.85 7.1 -26.15 9.75 -25.4 12 -23.15 13.95 -21.25 8 -15.35 5.3 -12.6 2.25 -10.2 1.95 -10 1.7 -9.8M24.45 -8.9Q26.2 -5.15 26.45 -2.65 26.7 .1 25.4 3.05 24.35 5.5 16.7 2.1 13.2 .6 9.85 -1.4 9.5 -1.6 9.25 -1.75M18.45 20Q15.75 23.1 13.55 24.35 11.2 25.75 8 25.75 5.3 25.75 5.25 17.4 5.2 13.55 5.65 9.7 5.7 9.35 5.75 9M-25.15 -7.15Q-24.25 -11.2 -22.85 -13.3 -21.4 -15.6 -18.6 -17.1 -16.2 -18.45 -12.25 -11.05 -10.4 -7.65 -9 -4.1 -8.9 -3.7 -8.75 -3.4M-12.85 23.8Q-16.75 22.4 -18.7 20.8 -20.85 19.05 -22.05 16.1 -23.1 13.6 -15.3 10.55 -11.75 9.05 -8 8.05 -7.65 8 -7.3 7.95" test="Bike Wheel"/>
    </g>
  </defs>
  <g id="19_Motorbikesf71r1" overflow="visible">
    <g id="Smokef11r1">
      <path fill="#000" stroke="none" d="M56.625,150.116 Q44.306,123.941 -17.512,129.694 -47.831,99.443 -123.656,95.861 -123.656,242.661 -123.656,389.46 -101.212,412.244 -61.444,395.289 -7.894,397.689 -1.256,375.782 45.544,384.774 75.806,367.705 99.375,372.277 112.144,355.665 118.725,361.152 133.575,357.532 145.95,356.656 153.431,351.588 158.325,357.913 170.025,352.389 177.056,350.331 184.088,348.198 187.181,352.884 196.463,349.303 198.994,348.731 201.469,348.121 227.906,363.514 269.081,345.073 303.056,345.797 321.956,338.711 339.787,332.234 344.063,318.708 402.112,328.576 439.969,306.745 469.275,311.736 485.306,290.895 493.631,297.334 511.969,292.61 527.269,291.238 536.55,284.799 542.738,292.305 557.194,285.295 565.856,282.551 574.575,279.77 578.569,285.333 590.044,280.761 596.231,279.237 602.419,277.674 611.531,277.408 620.644,277.141 620.644,275.884 621.15,273.064 621.375,271.769 621.6,270.474 621.6,268.721 621.6,266.968 618.45,267.388 615.3,267.845 614.063,264.492 612.994,264.263 603.825,261.52 599.55,263.425 592.013,260.072 581.888,260.453 570.469,251.119 547.744,255.538 536.944,247.233 520.181,244.527 518.55,244.185 516.806,243.918 511.8,242.661 499.594,243.727 463.65,221.782 423.825,232.526 418.088,233.974 412.237,235.993 397.388,203.456 322.463,210.352 289.162,177.09 213.225,171.109 206.981,168.289 198.656,168.556 189.206,160.746 170.588,164.213 160.744,156.593 144.994,154.497 140.606,153.659 130.313,154.726 95.663,136.133 56.625,150.116Z" test="Smoke" vector-effect="non-scaling-stroke" stroke-width="1"/>
      <path id="Layer1_0_1_STROKES" stroke="#FFF" stroke-width="1" stroke-linejoin="round" stroke-linecap="round" fill="none" d="M620.644,277.141 Q611.531,277.408 602.419,277.674 596.231,279.237 590.044,280.761 578.569,285.333 574.575,279.77 565.856,282.551 557.194,285.295 542.738,292.305 536.55,284.799 527.269,291.238 511.969,292.61 493.631,297.334 485.306,290.895 469.275,311.736 439.969,306.745 402.112,328.576 344.063,318.708 339.787,332.234 321.956,338.711 303.056,345.797 269.081,345.073 227.906,363.514 201.469,348.121 198.994,348.731 196.463,349.303 187.181,352.884 184.088,348.198 177.056,350.331 170.025,352.389 158.325,357.913 153.431,351.588 145.95,356.656 133.575,357.532 118.725,361.152 112.144,355.665 99.375,372.277 75.806,367.705 45.544,384.774 -1.256,375.782 -7.894,397.689 -61.444,395.289 -101.212,412.244 -123.656,389.46 -123.656,242.661 -123.656,95.861 -47.831,99.443 -17.512,129.694 44.306,123.941 56.625,150.116 95.663,136.133 130.313,154.726 140.606,153.659 144.994,154.497 160.744,156.593 170.588,164.213 189.206,160.746 198.656,168.556 206.981,168.289 213.225,171.109 289.162,177.09 322.463,210.352 397.388,203.456 412.237,235.993 418.088,233.974 423.825,232.526 463.65,221.782 499.594,243.727 511.8,242.661 516.806,243.918 518.55,244.185 520.181,244.527 536.944,247.233 547.744,255.538 570.469,251.119 581.888,260.453 592.013,260.072 599.55,263.425 603.825,261.52 612.994,264.263 614.063,264.492 615.3,267.845 618.45,267.388 621.6,266.968 621.6,268.721 621.6,270.474 621.375,271.769 621.15,273.064 620.644,275.884 620.644,277.141Z" test="Smoke" vector-effect="non-scaling-stroke"/>
    </g>
    <g id="MotorBikeBluef11r1">
      <g id="BlueBikeContainer">
        <path fill="#000" stroke="none" d="M746.776,219.172 L745.861,218.62 741.486,225.926 753.854,229.651 756.174,231.316 Q759.28,227.133 761.354,224.283 L759.81,223.226 746.776,219.172 M709.675,196.129 Q709.774,200.064 694.899,201.568 L697.586,205.666 Q706.116,208.645 716.495,201.178 L714.645,193.474 709.15,190.428 Q708.76,190.528 708.416,190.609 L709.675,196.129 M728.498,172.181 Q708.052,165.942 700.598,166.513 694.814,166.963 693.734,169.268 693.48,169.851 693.164,171.64 692.894,173.411 692.322,174.55 694.055,178.271 696.737,179.901 698.698,181.062 705.678,184.061 706.636,184.495 711.219,187.09 711.281,187.103 711.284,187.118 717.723,190.694 731.061,198.345 750.634,209.599 752.9,209.352 756.725,208.974 762.718,205.917 769.577,202.466 769.621,199.441 769.676,196.305 766.835,193.181 764.732,190.84 756.677,184.29 749.73,178.646 728.498,172.181Z" test="BlueBikeContainer" vector-effect="non-scaling-stroke" stroke-width="1"/>
        <path id="Layer3_0_1_STROKES" stroke="#0FF" stroke-width="1" stroke-linejoin="round" stroke-linecap="round" fill="none" d="M692.322,174.55 Q692.894,173.411 693.164,171.64 693.48,169.851 693.734,169.268 694.814,166.963 700.598,166.513 708.052,165.942 728.498,172.181 749.73,178.646 756.677,184.29 764.732,190.84 766.835,193.181 769.676,196.305 769.621,199.441 769.577,202.466 762.718,205.917 756.725,208.974 752.9,209.352 750.634,209.599 731.061,198.345 717.723,190.694 711.317,187.132 711.281,187.103 711.243,187.08 706.636,184.495 705.678,184.061 698.698,181.062 696.737,179.901 694.055,178.271 692.322,174.55Z" test="BlueBikeContainer" vector-effect="non-scaling-stroke"/>
        <path id="Layer3_0_2_STROKES" stroke="#009EFF" stroke-width="1" stroke-linejoin="round" stroke-linecap="round" fill="none" d="M708.416,190.609 Q700.338,193.144 692.082,195.91 674.315,201.935 673.118,203.534 671.81,205.123 672.028,207.722 672.16,209.013 673.042,212.21 673.633,214.394 673.671,219.266 673.634,224.221 672.942,225.192 672.714,225.545 669.832,226.228 669.77,226.236 669.707,226.25 L670.436,228.648 Q671.301,231.53 671.956,234.011 658.881,242.271 636.586,244.977 614.272,247.637 610.281,246.093 606.29,244.549 604.319,240.223 603.695,238.911 602.733,235.101 602.67,234.803 603.388,232.534 604.134,230.2 603,229.447 603.986,229.348 603.958,229.275 603.6,228.191 600.764,230.506 596.709,233.712 580.722,243.441 572.687,248.268 565.49,252.496 569.168,263.615 568.842,263.743 568.517,263.872 586.112,263.552 602.759,263.821 603.028,263.823 618.02,264.528 622.469,266.965 626.17,269 629.277,270.892 629.638,271.126 630.045,271.341 632.745,273.017 634.964,274.561 638.957,277.339 642.05,280.15 642.946,280.925 643.749,281.737 645.585,283.538 647.042,285.328 653.566,293.446 661.68,309.425 661.918,310.029 697.841,294.872 715.764,287.335 733.68,279.64 732.567,277.768 731.499,274.644 729.316,268.415 729.379,262.161 729.453,255.526 732.784,245.569 735.095,238.752 738.025,232.551 738.092,232.31 738.223,232.098 739.349,229.775 741.486,225.926 L745.861,218.62 748.071,214.957 Q736.023,207.137 728.501,202.279 728.465,202.253 728.427,202.228 718.355,195.745 716.43,194.598 L715.006,193.708 M709.15,190.428 Q709.336,190.355 709.568,190.263 L714.645,193.474 M709.15,190.428 Q708.76,190.528 708.416,190.609 M603,229.447 Q613.234,230.807 621.731,231.383 635.904,232.465 643.622,231.199 L669.663,225.73 M637.365,268.246 L639.928,269.707 Q643.691,272.039 647.165,274.861 658.408,283.915 662.839,294.63 667.271,305.345 667.239,304.445 L666.254,301.396 698.978,288.893 Q698.634,285.699 697.394,281.729 694.914,273.791 689.92,269.151 684.861,264.483 675.884,263.505 666.86,262.545 658.866,264.886 650.808,267.198 642.656,268.043 L637.365,268.246Z" test="BlueBikeContainer" vector-effect="non-scaling-stroke"/>
        <path id="Layer3_0_3_STROKES" stroke="#FFF" stroke-width="1" stroke-linejoin="round" stroke-linecap="round" fill="none" d="M715.006,193.708 L714.645,193.474 716.495,201.178 Q706.116,208.645 697.586,205.666 L694.899,201.568 Q709.774,200.064 709.675,196.129 L708.416,190.609 708.382,189.978 709.15,190.428 714.645,193.474 M759.81,223.226 L746.776,219.172 M741.486,225.926 L753.854,229.651" test="BlueBikeContainer" vector-effect="non-scaling-stroke"/>
        <use xlink:href="#Bike-Wheel" transform="matrix(.93 -.366 .366 .93 788.35 246)"/>
        <use xlink:href="#Bike-Wheel" transform="matrix(.93 -.366 .366 .93 613.45 318.9)"/>
      </g>
    </g>
    <g id="MotorBikePinkf0r1">
      <path fill="#000" stroke="none" d="M84.804,341.261 Q85.106,346 88.911,350.502 92.716,354.005 118.99,360.891 145.264,367.716 163.626,364.213 163.988,361.132 164.29,357.508 L164.532,354.488 Q164.609,354.5 164.653,354.488 L164.713,353.884 133.003,348.509 Q123.762,346.516 108.3,339.026 98.998,334.617 89.213,329 89.032,329.906 87.16,332.201 85.348,334.436 85.287,334.798 84.683,339.509 84.804,341.261 M254.347,380.642 L253.562,379.615 245.408,385.896 257.669,395.56 259.541,398.46 Q264.887,395.129 268.48,392.842 L267.212,390.97 254.347,380.642 M222.818,338.301 Q221.187,342.771 203.792,337.878 L205,343.677 Q213.275,350.804 228.254,346 L229.583,337.516 224.751,331.657 Q224.268,331.597 223.845,331.536 L222.818,338.301 M203.792,337.878 Q221.187,342.771 222.818,338.301 L223.845,331.536 Q213.637,330.812 203.128,330.268 180.478,329.181 178.424,330.449 176.25,331.657 175.344,334.677 174.921,336.187 174.498,340.174 174.196,342.892 172.082,348.388 169.847,353.945 168.639,354.73 168.226,355.026 164.653,354.488 164.609,354.5 164.532,354.488 L164.29,357.508 Q163.988,361.132 163.626,364.213 145.264,367.716 118.99,360.891 92.716,354.005 88.911,350.502 85.106,346 84.804,341.261 84.683,339.509 85.287,334.798 85.348,334.436 87.16,332.201 89.032,329.906 89.213,329 89.243,328.882 89.213,328.758 89.321,327.41 85.106,328.758 79.126,330.57 56.839,334.436 45.665,336.308 35.699,337.878 34.914,352.012 34.491,352.012 34.068,352.012 54,359.441 72.603,367.112 72.905,367.233 89.455,374.662 93.381,379.373 96.642,383.299 99.3,386.802 99.602,387.225 99.964,387.648 101.598,389.838 102.984,391.816 103.067,391.963 103.105,392.057 103.625,392.774 104.072,393.446 107.333,398.339 109.568,402.869 110.232,404.137 110.776,405.406 112.044,408.244 112.89,410.902 116.635,422.922 118.688,444.484 118.688,444.813 126.963,444.786 127.039,444.817 127.084,444.786 138.613,444.784 165.8,444.122 167.763,444.076 169.726,444.001 191.264,443.517 212.852,442.854 212.429,440.256 212.61,436.27 212.912,428.297 215.751,421.291 218.771,413.862 226.925,404.137 232.542,397.493 238.582,391.816 238.764,391.574 239.005,391.393 241.3,389.279 245.408,385.896 L253.562,379.615 257.669,376.474 Q247.58,362.345 241.24,353.522 241.241,353.506 241.18,353.462 232.75,341.711 231.093,339.57 L229.885,337.939 229.583,337.516 228.254,346 Q213.275,350.804 205,343.677 L203.792,337.878 M154.989,399.124 Q164.653,404.198 168.277,411.687 171.84,419.116 171.116,429.143 170.753,434.156 169.726,437.901 L127.386,437.478 127.144,441.344 Q126.782,442.37 126.54,428.358 126.299,414.345 117.662,399.184 115.004,394.473 111.803,390.185 L109.447,387.286 115.608,389.52 Q125.151,392.178 135.238,393.144 145.264,394.05 154.989,399.124 M168.277,411.687 Q164.653,404.198 154.989,399.124 145.264,394.05 135.238,393.144 125.151,392.178 115.608,389.52 L109.447,387.286 111.803,390.185 Q115.004,394.473 117.662,399.184 126.299,414.345 126.54,428.358 126.782,442.37 127.144,441.344 L127.386,437.478 169.726,437.901 Q170.753,434.156 171.116,429.143 171.84,419.116 168.277,411.687 M254.588,319.698 Q234.354,303.632 225.717,300.974 219.013,298.92 216.778,301.034 216.234,301.578 215.087,303.45 214,305.323 212.852,306.35 213.154,311.302 215.449,314.322 217.14,316.497 223.664,322.96 224.549,323.872 228.556,328.818 228.62,328.861 228.616,328.879 234.276,335.751 245.891,350.26 262.924,371.582 265.581,372.306 270.051,373.575 278.144,372.79 287.386,371.944 288.775,368.562 290.224,365.058 288.412,360.287 287.084,356.723 280.923,345.791 275.608,336.368 254.588,319.698Z" test="RedBike container" stroke-width="1.208"/>
      <path id="Layer2_0_1_STROKES" stroke="#0FF" stroke-width="1.208" stroke-linejoin="round" stroke-linecap="round" fill="none" d="M212.852,306.35 Q214,305.323 215.087,303.45 216.234,301.578 216.778,301.034 219.013,298.92 225.717,300.974 234.354,303.632 254.588,319.698 275.608,336.368 280.923,345.791 287.084,356.723 288.412,360.287 290.224,365.058 288.775,368.562 287.386,371.944 278.144,372.79 270.051,373.575 265.581,372.306 262.924,371.582 245.891,350.26 234.276,335.751 228.647,328.909 228.62,328.861 228.586,328.818 224.549,323.872 223.664,322.96 217.14,316.497 215.449,314.322 213.154,311.302 212.852,306.35Z" test="RedBike container"/>
      <path id="Layer2_0_2_STROKES" stroke="#FFF" stroke-width="1.208" stroke-linejoin="round" stroke-linecap="round" fill="none" d="M229.583,337.516 L228.254,346 Q213.275,350.804 205,343.677 L203.792,337.878 Q221.187,342.771 222.818,338.301 L223.845,331.536 M229.885,337.939 L229.583,337.516 224.751,331.657 M223.845,331.536 L224.086,330.812 224.751,331.657 M267.212,390.97 L254.347,380.642 M245.408,385.896 L257.669,395.56" test="RedBike container"/>
      <path id="Layer2_0_3_STROKES" stroke="#FF0265" stroke-width="1.208" stroke-linejoin="round" stroke-linecap="round" fill="none" d="M223.845,331.536 Q213.637,330.812 203.128,330.268 180.478,329.181 178.424,330.449 176.25,331.657 175.344,334.677 174.921,336.187 174.498,340.174 174.196,342.892 172.082,348.388 169.847,353.945 168.639,354.73 168.226,355.026 164.683,354.519 164.609,354.5 164.532,354.488 L164.29,357.508 Q163.988,361.132 163.626,364.213 145.264,367.716 118.99,360.891 92.716,354.005 88.911,350.502 85.106,346 84.804,341.261 84.683,339.509 85.287,334.798 85.348,334.436 87.16,332.201 89.032,329.906 89.213,329 89.243,328.882 89.243,328.788 89.321,327.41 85.106,328.758 79.126,330.57 56.839,334.436 45.665,336.308 35.699,337.878 34.914,352.012 34.491,352.012 34.068,352.012 54,359.441 72.603,367.112 72.905,367.233 89.455,374.662 93.381,379.373 96.642,383.299 99.3,386.802 99.602,387.225 99.964,387.648 101.598,389.838 102.984,391.846 103.067,391.963 103.135,392.087 103.625,392.774 104.072,393.446 107.333,398.339 109.568,402.869 110.232,404.137 110.776,405.406 112.044,408.244 112.89,410.902 116.635,422.922 118.688,444.484 118.688,444.813 126.963,444.817 127.039,444.817 127.114,444.817 138.613,444.784 165.8,444.122 167.763,444.076 169.726,444.031 191.264,443.517 212.852,442.854 212.429,440.256 212.61,436.27 212.912,428.297 215.751,421.291 218.771,413.862 226.925,404.137 232.542,397.493 238.582,391.816 238.764,391.574 239.005,391.393 241.3,389.279 245.408,385.896 L253.562,379.615 257.669,376.474 Q247.58,362.345 241.27,353.552 241.241,353.506 241.21,353.462 232.75,341.711 231.093,339.57 L229.885,337.939 M223.845,331.536 Q224.268,331.597 224.751,331.657 224.992,331.657 225.294,331.657 L229.583,337.516 M89.213,329 Q98.998,334.617 108.3,339.026 123.762,346.516 133.003,348.509 L164.713,353.884 M111.803,390.185 Q115.004,394.473 117.662,399.184 126.299,414.345 126.54,428.358 126.782,442.37 127.144,441.344 L127.386,437.478 169.726,437.901 Q170.753,434.156 171.116,429.143 171.84,419.116 168.277,411.687 164.653,404.198 154.989,399.124 145.264,394.05 135.238,393.144 125.151,392.178 115.608,389.52 L109.477,387.286 111.803,390.185Z" test="RedBike container"/>
      <use xlink:href="#Bike-Wheel" transform="matrix(1.208 0 0 1.208 289.25 429.25)"/>
      <use xlink:href="#Bike-Wheel" transform="matrix(1.208 0 0 1.208 60.25 433.85)"/>
    </g>
  </g>
</svg>