<?xml version="1.0" encoding="utf-8"?>
<svg id="EdithAnim11" image-rendering="inherit" baseProfile="basic" version="1.1" x="0px" y="0px" width="800" height="600" xmlns="http://www.w3.org/2000/svg" xmlns:xlink="http://www.w3.org/1999/xlink">
  <defs>
    <g id="Bike-Wheel" overflow="visible">
      <path id="Layer5_0_1_STROKES" stroke="#FFF" stroke-width="1" stroke-linejoin="round" stroke-linecap="round" fill="none" d="M2.05 -34.85Q-12.35 -34.85 -22.65 -26.45 -34 -17.2 -34.7 -1.55 -35.4 14.3 -26.6 24.6 -18.4 34.2 -5.6 34.85 7.15 35.5 19.2 29.8 31.25 24.1 34.05 7.25 36.85 -9.65 28.9 -21.15 19.4 -34.85 2.05 -34.85Z" test="Bike Wheel"/>
      <path id="Layer4_0_1_STROKES" stroke="#FFF" stroke-width="1" stroke-linejoin="round" stroke-linecap="round" fill="none" d="M.55 -26.55Q4.65 -26.85 7.1 -26.15 9.75 -25.4 12 -23.15 13.95 -21.25 8 -15.35 5.3 -12.6 2.25 -10.2 1.95 -10 1.7 -9.8M24.45 -8.9Q26.2 -5.15 26.45 -2.65 26.7 .1 25.4 3.05 24.35 5.5 16.7 2.1 13.2 .6 9.85 -1.4 9.5 -1.6 9.25 -1.75M18.45 20Q15.75 23.1 13.55 24.35 11.2 25.75 8 25.75 5.3 25.75 5.25 17.4 5.2 13.55 5.65 9.7 5.7 9.35 5.75 9M-25.15 -7.15Q-24.25 -11.2 -22.85 -13.3 -21.4 -15.6 -18.6 -17.1 -16.2 -18.45 -12.25 -11.05 -10.4 -7.65 -9 -4.1 -8.9 -3.7 -8.75 -3.4M-12.85 23.8Q-16.75 22.4 -18.7 20.8 -20.85 19.05 -22.05 16.1 -23.1 13.6 -15.3 10.55 -11.75 9.05 -8 8.05 -7.65 8 -7.3 7.95" test="Bike Wheel"/>
    </g>
  </defs>
  <g id="19_Motorbikesf72r1" overflow="visible">
    <g id="Smokef12r1">
      <path fill="#000" stroke="none" d="M74.464,133.336 Q62.404,107.796 3.6,113.355 -25.653,83.844 -97.831,80.291 -97.831,241.347 -97.831,402.402 -76.458,424.807 -38.787,408.463 11.898,410.929 18.346,389.779 62.703,398.724 91.478,382.255 113.866,386.811 126.044,370.718 132.313,376.11 146.402,372.599 158.163,371.805 165.208,366.914 169.924,373.142 181.028,367.792 187.715,365.785 194.341,363.779 197.326,368.335 206.162,364.866 208.55,364.322 210.878,363.737 241.206,382.255 288.548,360.268 327.711,361.187 349.382,352.786 369.859,345.011 374.635,328.834 441.38,340.664 484.722,314.539 518.453,320.516 536.721,295.561 546.213,303.294 567.347,297.651 584.958,296.021 595.585,288.288 602.63,297.275 619.226,288.915 629.256,285.613 639.226,282.311 643.763,288.957 657.016,283.481 664.121,281.684 671.165,279.803 681.672,279.51 692.12,279.176 692.12,277.796 692.657,274.703 692.896,273.282 693.135,271.861 693.135,269.938 693.135,268.015 689.553,268.517 685.911,269.06 684.478,265.047 683.284,264.755 672.717,261.494 667.822,263.71 659.225,259.739 647.584,260.157 634.509,248.954 608.421,254.221 596.003,244.273 576.78,241.012 574.869,240.594 572.899,240.302 567.108,238.881 552.959,240.218 511.527,214.428 465.558,227.302 458.991,229.058 452.305,231.482 435.649,192.692 349.323,201.01 311.473,161.342 223.953,153.943 218.042,151.226 210.102,151.435 201.028,143.827 183.237,147.213 173.864,139.731 158.82,137.683 154.581,136.889 144.79,137.892 111.717,119.709 74.464,133.336Z" test="Smoke" stroke-width="1.015"/>
      <path id="Layer1_0_1_STROKES" stroke="#FFF" stroke-width="1.015" stroke-linejoin="round" stroke-linecap="round" fill="none" d="M692.12,279.176 Q681.672,279.51 671.165,279.803 664.121,281.684 657.016,283.481 643.763,288.957 639.226,282.311 629.256,285.613 619.226,288.915 602.63,297.275 595.585,288.288 584.958,296.021 567.347,297.651 546.213,303.294 536.721,295.561 518.453,320.516 484.722,314.539 441.38,340.664 374.635,328.834 369.859,345.011 349.382,352.786 327.711,361.187 288.548,360.268 241.206,382.255 210.878,363.737 208.55,364.322 206.162,364.866 197.326,368.335 194.341,363.779 187.715,365.785 181.028,367.792 169.924,373.142 165.208,366.914 158.163,371.805 146.402,372.599 132.313,376.11 126.044,370.718 113.866,386.811 91.478,382.255 62.703,398.724 18.346,389.779 11.898,410.929 -38.787,408.463 -76.458,424.807 -97.831,402.402 -97.831,241.347 -97.831,80.291 -25.653,83.844 3.6,113.355 62.404,107.796 74.464,133.336 111.717,119.709 144.79,137.892 154.581,136.889 158.82,137.683 173.864,139.731 183.237,147.213 201.028,143.827 210.102,151.435 218.042,151.226 223.953,153.943 311.473,161.342 349.323,201.01 435.649,192.692 452.305,231.482 458.991,229.058 465.558,227.302 511.527,214.428 552.959,240.218 567.108,238.881 572.899,240.302 574.869,240.594 576.78,241.012 596.003,244.273 608.421,254.221 634.509,248.954 647.584,260.157 659.225,259.739 667.822,263.71 672.717,261.494 683.284,264.755 684.478,265.047 685.911,269.06 689.553,268.517 693.135,268.015 693.135,269.938 693.135,271.861 692.896,273.282 692.657,274.703 692.12,277.796 692.12,279.176Z" test="Smoke"/>
    </g>
    <g id="MotorBikeBluef12r1">
      <g id="BlueBikeContainer">
        <path fill="#000" stroke="none" d="M824.376,219.172 L823.461,218.62 819.086,225.926 831.454,229.651 833.774,231.316 Q836.88,227.133 838.954,224.283 L837.41,223.226 824.376,219.172 M787.275,196.129 Q787.374,200.064 772.499,201.568 L775.186,205.666 Q783.716,208.645 794.095,201.178 L792.245,193.474 786.75,190.428 Q786.36,190.528 786.016,190.609 L787.275,196.129 M806.098,172.181 Q785.652,165.942 778.198,166.513 772.414,166.963 771.334,169.268 771.08,169.851 770.764,171.64 770.494,173.411 769.922,174.55 771.655,178.271 774.337,179.901 776.298,181.062 783.278,184.061 784.236,184.495 788.819,187.09 788.881,187.103 788.884,187.118 795.323,190.694 808.661,198.345 828.234,209.599 830.5,209.352 834.325,208.974 840.318,205.917 847.177,202.466 847.221,199.441 847.276,196.305 844.435,193.181 842.332,190.84 834.277,184.29 827.33,178.646 806.098,172.181Z" test="BlueBikeContainer" vector-effect="non-scaling-stroke" stroke-width="1"/>
        <path id="Layer3_0_1_STROKES" stroke="#0FF" stroke-width="1" stroke-linejoin="round" stroke-linecap="round" fill="none" d="M769.922,174.55 Q770.494,173.411 770.764,171.64 771.08,169.851 771.334,169.268 772.414,166.963 778.198,166.513 785.652,165.942 806.098,172.181 827.33,178.646 834.277,184.29 842.332,190.84 844.435,193.181 847.276,196.305 847.221,199.441 847.177,202.466 840.318,205.917 834.325,208.974 830.5,209.352 828.234,209.599 808.661,198.345 795.323,190.694 788.917,187.132 788.881,187.103 788.843,187.08 784.236,184.495 783.278,184.061 776.298,181.062 774.337,179.901 771.655,178.271 769.922,174.55Z" test="BlueBikeContainer" vector-effect="non-scaling-stroke"/>
        <path id="Layer3_0_2_STROKES" stroke="#009EFF" stroke-width="1" stroke-linejoin="round" stroke-linecap="round" fill="none" d="M786.016,190.609 Q777.938,193.144 769.682,195.91 751.915,201.935 750.718,203.534 749.41,205.123 749.628,207.722 749.76,209.013 750.642,212.21 751.233,214.394 751.271,219.266 751.234,224.221 750.542,225.192 750.314,225.545 747.432,226.228 747.37,226.236 747.307,226.25 L748.036,228.648 Q748.901,231.53 749.556,234.011 736.481,242.271 714.186,244.977 691.872,247.637 687.881,246.093 683.89,244.549 681.919,240.223 681.295,238.911 680.333,235.101 680.27,234.803 680.988,232.534 681.734,230.2 681.599,229.447 681.586,229.348 681.558,229.275 681.2,228.191 678.364,230.506 674.309,233.712 658.322,243.441 650.287,248.268 643.09,252.496 646.768,263.615 646.442,263.743 646.117,263.872 663.712,263.552 680.359,263.821 680.628,263.823 695.62,264.528 700.069,266.965 703.77,269 706.877,270.892 707.238,271.126 707.645,271.341 710.345,273.017 712.564,274.561 716.557,277.339 719.65,280.15 720.546,280.925 721.349,281.737 723.185,283.538 724.642,285.328 731.166,293.446 739.28,309.425 739.518,310.029 775.441,294.872 793.364,287.335 811.28,279.64 810.167,277.768 809.099,274.644 806.916,268.415 806.979,262.161 807.053,255.526 810.384,245.569 812.695,238.752 815.625,232.551 815.692,232.31 815.823,232.098 816.949,229.775 819.086,225.926 L823.461,218.62 825.671,214.957 Q813.623,207.137 806.101,202.279 806.065,202.253 806.027,202.228 795.955,195.745 794.03,194.598 L792.606,193.708 M786.75,190.428 Q786.936,190.355 787.168,190.263 L792.245,193.474 M786.75,190.428 Q786.36,190.528 786.016,190.609 M681.599,229.447 Q690.834,230.807 699.331,231.383 713.504,232.465 721.222,231.199 L747.263,225.73 M714.965,268.246 L717.528,269.707 Q721.291,272.039 724.765,274.861 736.008,283.915 740.439,294.63 744.871,305.345 744.839,304.445 L743.854,301.396 776.578,288.893 Q776.234,285.699 774.994,281.729 772.514,273.791 767.52,269.151 762.461,264.483 753.484,263.505 744.46,262.545 736.466,264.886 728.408,267.198 720.256,268.043 L714.965,268.246Z" test="BlueBikeContainer" vector-effect="non-scaling-stroke"/>
        <path id="Layer3_0_3_STROKES" stroke="#FFF" stroke-width="1" stroke-linejoin="round" stroke-linecap="round" fill="none" d="M792.606,193.708 L792.245,193.474 794.095,201.178 Q783.716,208.645 775.186,205.666 L772.499,201.568 Q787.374,200.064 787.275,196.129 L786.016,190.609 785.982,189.978 786.75,190.428 792.245,193.474 M837.41,223.226 L824.376,219.172 M819.086,225.926 L831.454,229.651" test="BlueBikeContainer" vector-effect="non-scaling-stroke"/>
        <use xlink:href="#Bike-Wheel" transform="matrix(.93 -.366 .366 .93 865.95 246)"/>
        <use xlink:href="#Bike-Wheel" transform="matrix(.93 -.366 .366 .93 691.05 318.9)"/>
      </g>
    </g>
    <g id="MotorBikePinkf0r1">
      <path fill="#000" stroke="none" d="M84.804,341.261 Q85.106,346 88.911,350.502 92.716,354.005 118.99,360.891 145.264,367.716 163.626,364.213 163.988,361.132 164.29,357.508 L164.532,354.488 Q164.609,354.5 164.653,354.488 L164.713,353.884 133.003,348.509 Q123.762,346.516 108.3,339.026 98.998,334.617 89.213,329 89.032,329.906 87.16,332.201 85.348,334.436 85.287,334.798 84.683,339.509 84.804,341.261 M254.347,380.642 L253.562,379.615 245.408,385.896 257.669,395.56 259.541,398.46 Q264.887,395.129 268.48,392.842 L267.212,390.97 254.347,380.642 M222.818,338.301 Q221.187,342.771 203.792,337.878 L205,343.677 Q213.275,350.804 228.254,346 L229.583,337.516 224.751,331.657 Q224.268,331.597 223.845,331.536 L222.818,338.301 M203.792,337.878 Q221.187,342.771 222.818,338.301 L223.845,331.536 Q213.637,330.812 203.128,330.268 180.478,329.181 178.424,330.449 176.25,331.657 175.344,334.677 174.921,336.187 174.498,340.174 174.196,342.892 172.082,348.388 169.847,353.945 168.639,354.73 168.226,355.026 164.653,354.488 164.609,354.5 164.532,354.488 L164.29,357.508 Q163.988,361.132 163.626,364.213 145.264,367.716 118.99,360.891 92.716,354.005 88.911,350.502 85.106,346 84.804,341.261 84.683,339.509 85.287,334.798 85.348,334.436 87.16,332.201 89.032,329.906 89.213,329 89.243,328.882 89.213,328.758 89.321,327.41 85.106,328.758 79.126,330.57 56.839,334.436 45.665,336.308 35.699,337.878 34.914,352.012 34.491,352.012 34.068,352.012 54,359.441 72.603,367.112 72.905,367.233 89.455,374.662 93.381,379.373 96.642,383.299 99.3,386.802 99.602,387.225 99.964,387.648 101.598,389.838 102.984,391.816 103.067,391.963 103.105,392.057 103.625,392.774 104.072,393.446 107.333,398.339 109.568,402.869 110.232,404.137 110.776,405.406 112.044,408.244 112.89,410.902 116.635,422.922 118.688,444.484 118.688,444.813 126.963,444.786 127.039,444.817 127.084,444.786 138.613,444.784 165.8,444.122 167.763,444.076 169.726,444.001 191.264,443.517 212.852,442.854 212.429,440.256 212.61,436.27 212.912,428.297 215.751,421.291 218.771,413.862 226.925,404.137 232.542,397.493 238.582,391.816 238.764,391.574 239.005,391.393 241.3,389.279 245.408,385.896 L253.562,379.615 257.669,376.474 Q247.58,362.345 241.24,353.522 241.241,353.506 241.18,353.462 232.75,341.711 231.093,339.57 L229.885,337.939 229.583,337.516 228.254,346 Q213.275,350.804 205,343.677 L203.792,337.878 M154.989,399.124 Q164.653,404.198 168.277,411.687 171.84,419.116 171.116,429.143 170.753,434.156 169.726,437.901 L127.386,437.478 127.144,441.344 Q126.782,442.37 126.54,428.358 126.299,414.345 117.662,399.184 115.004,394.473 111.803,390.185 L109.447,387.286 115.608,389.52 Q125.151,392.178 135.238,393.144 145.264,394.05 154.989,399.124 M168.277,411.687 Q164.653,404.198 154.989,399.124 145.264,394.05 135.238,393.144 125.151,392.178 115.608,389.52 L109.447,387.286 111.803,390.185 Q115.004,394.473 117.662,399.184 126.299,414.345 126.54,428.358 126.782,442.37 127.144,441.344 L127.386,437.478 169.726,437.901 Q170.753,434.156 171.116,429.143 171.84,419.116 168.277,411.687 M254.588,319.698 Q234.354,303.632 225.717,300.974 219.013,298.92 216.778,301.034 216.234,301.578 215.087,303.45 214,305.323 212.852,306.35 213.154,311.302 215.449,314.322 217.14,316.497 223.664,322.96 224.549,323.872 228.556,328.818 228.62,328.861 228.616,328.879 234.276,335.751 245.891,350.26 262.924,371.582 265.581,372.306 270.051,373.575 278.144,372.79 287.386,371.944 288.775,368.562 290.224,365.058 288.412,360.287 287.084,356.723 280.923,345.791 275.608,336.368 254.588,319.698Z" test="RedBike container" stroke-width="1.208"/>
      <path id="Layer2_0_1_STROKES" stroke="#0FF" stroke-width="1.208" stroke-linejoin="round" stroke-linecap="round" fill="none" d="M212.852,306.35 Q214,305.323 215.087,303.45 216.234,301.578 216.778,301.034 219.013,298.92 225.717,300.974 234.354,303.632 254.588,319.698 275.608,336.368 280.923,345.791 287.084,356.723 288.412,360.287 290.224,365.058 288.775,368.562 287.386,371.944 278.144,372.79 270.051,373.575 265.581,372.306 262.924,371.582 245.891,350.26 234.276,335.751 228.647,328.909 228.62,328.861 228.586,328.818 224.549,323.872 223.664,322.96 217.14,316.497 215.449,314.322 213.154,311.302 212.852,306.35Z" test="RedBike container"/>
      <path id="Layer2_0_2_STROKES" stroke="#FFF" stroke-width="1.208" stroke-linejoin="round" stroke-linecap="round" fill="none" d="M229.583,337.516 L228.254,346 Q213.275,350.804 205,343.677 L203.792,337.878 Q221.187,342.771 222.818,338.301 L223.845,331.536 M229.885,337.939 L229.583,337.516 224.751,331.657 M223.845,331.536 L224.086,330.812 224.751,331.657 M267.212,390.97 L254.347,380.642 M245.408,385.896 L257.669,395.56" test="RedBike container"/>
      <path id="Layer2_0_3_STROKES" stroke="#FF0265" stroke-width="1.208" stroke-linejoin="round" stroke-linecap="round" fill="none" d="M223.845,331.536 Q213.637,330.812 203.128,330.268 180.478,329.181 178.424,330.449 176.25,331.657 175.344,334.677 174.921,336.187 174.498,340.174 174.196,342.892 172.082,348.388 169.847,353.945 168.639,354.73 168.226,355.026 164.683,354.519 164.609,354.5 164.532,354.488 L164.29,357.508 Q163.988,361.132 163.626,364.213 145.264,367.716 118.99,360.891 92.716,354.005 88.911,350.502 85.106,346 84.804,341.261 84.683,339.509 85.287,334.798 85.348,334.436 87.16,332.201 89.032,329.906 89.213,329 89.243,328.882 89.243,328.788 89.321,327.41 85.106,328.758 79.126,330.57 56.839,334.436 45.665,336.308 35.699,337.878 34.914,352.012 34.491,352.012 34.068,352.012 54,359.441 72.603,367.112 72.905,367.233 89.455,374.662 93.381,379.373 96.642,383.299 99.3,386.802 99.602,387.225 99.964,387.648 101.598,389.838 102.984,391.846 103.067,391.963 103.135,392.087 103.625,392.774 104.072,393.446 107.333,398.339 109.568,402.869 110.232,404.137 110.776,405.406 112.044,408.244 112.89,410.902 116.635,422.922 118.688,444.484 118.688,444.813 126.963,444.817 127.039,444.817 127.114,444.817 138.613,444.784 165.8,444.122 167.763,444.076 169.726,444.031 191.264,443.517 212.852,442.854 212.429,440.256 212.61,436.27 212.912,428.297 215.751,421.291 218.771,413.862 226.925,404.137 232.542,397.493 238.582,391.816 238.764,391.574 239.005,391.393 241.3,389.279 245.408,385.896 L253.562,379.615 257.669,376.474 Q247.58,362.345 241.27,353.552 241.241,353.506 241.21,353.462 232.75,341.711 231.093,339.57 L229.885,337.939 M223.845,331.536 Q224.268,331.597 224.751,331.657 224.992,331.657 225.294,331.657 L229.583,337.516 M89.213,329 Q98.998,334.617 108.3,339.026 123.762,346.516 133.003,348.509 L164.713,353.884 M111.803,390.185 Q115.004,394.473 117.662,399.184 126.299,414.345 126.54,428.358 126.782,442.37 127.144,441.344 L127.386,437.478 169.726,437.901 Q170.753,434.156 171.116,429.143 171.84,419.116 168.277,411.687 164.653,404.198 154.989,399.124 145.264,394.05 135.238,393.144 125.151,392.178 115.608,389.52 L109.477,387.286 111.803,390.185Z" test="RedBike container"/>
      <use xlink:href="#Bike-Wheel" transform="matrix(1.208 0 0 1.208 289.25 429.25)"/>
      <use xlink:href="#Bike-Wheel" transform="matrix(1.208 0 0 1.208 60.25 433.85)"/>
    </g>
  </g>
</svg>