<?xml version="1.0" encoding="utf-8"?>
<svg id="EdithAnim11" image-rendering="inherit" baseProfile="basic" version="1.1" x="0px" y="0px" width="800" height="600" xmlns="http://www.w3.org/2000/svg" xmlns:xlink="http://www.w3.org/1999/xlink">
  <defs>
    <g id="Bike-Wheel" overflow="visible">
      <path id="Layer5_0_1_STROKES" stroke="#FFF" stroke-width="1" stroke-linejoin="round" stroke-linecap="round" fill="none" d="M2.05 -34.85Q-12.35 -34.85 -22.65 -26.45 -34 -17.2 -34.7 -1.55 -35.4 14.3 -26.6 24.6 -18.4 34.2 -5.6 34.85 7.15 35.5 19.2 29.8 31.25 24.1 34.05 7.25 36.85 -9.65 28.9 -21.15 19.4 -34.85 2.05 -34.85Z" test="Bike Wheel"/>
      <path id="Layer4_0_1_STROKES" stroke="#FFF" stroke-width="1" stroke-linejoin="round" stroke-linecap="round" fill="none" d="M.55 -26.55Q4.65 -26.85 7.1 -26.15 9.75 -25.4 12 -23.15 13.95 -21.25 8 -15.35 5.3 -12.6 2.25 -10.2 1.95 -10 1.7 -9.8M24.45 -8.9Q26.2 -5.15 26.45 -2.65 26.7 .1 25.4 3.05 24.35 5.5 16.7 2.1 13.2 .6 9.85 -1.4 9.5 -1.6 9.25 -1.75M18.45 20Q15.75 23.1 13.55 24.35 11.2 25.75 8 25.75 5.3 25.75 5.25 17.4 5.2 13.55 5.65 9.7 5.7 9.35 5.75 9M-25.15 -7.15Q-24.25 -11.2 -22.85 -13.3 -21.4 -15.6 -18.6 -17.1 -16.2 -18.45 -12.25 -11.05 -10.4 -7.65 -9 -4.1 -8.9 -3.7 -8.75 -3.4M-12.85 23.8Q-16.75 22.4 -18.7 20.8 -20.85 19.05 -22.05 16.1 -23.1 13.6 -15.3 10.55 -11.75 9.05 -8 8.05 -7.65 8 -7.3 7.95" test="Bike Wheel"/>
    </g>
  </defs>
  <g id="19_Motorbikesf73r1" overflow="visible">
    <g id="Smokef13r1">
      <path fill="#000" stroke="none" d="M92.002,114.63 Q80.264,90.154 24.935,95.415 -2.983,67.096 -70.874,63.665 -70.874,239.94 -70.874,416.214 -50.761,437.9 -15.546,422.436 31.851,425.044 38.069,404.96 79.566,413.79 106.595,398.235 127.534,402.718 138.955,387.392 144.919,392.653 158.117,389.359 169.094,388.627 175.756,384.006 180.197,390 190.603,384.921 196.821,383.046 203.103,381.17 205.958,385.608 214.207,382.314 216.364,381.765 218.585,381.261 253.165,403.267 307.415,377.281 352.337,378.425 377.083,368.543 400.496,359.347 405.762,340.178 482.219,354.177 531.71,323.205 570.225,330.296 591.1,300.741 601.886,309.891 626.061,303.212 646.238,301.29 658.357,292.095 666.351,302.754 685.386,292.872 696.807,288.984 708.228,285.049 713.368,292.918 728.532,286.467 736.654,284.271 744.712,282.075 756.704,281.709 768.696,281.343 768.696,279.834 769.267,276.448 769.521,274.893 769.775,273.337 769.775,271.233 769.775,269.128 765.651,269.723 761.526,270.363 759.877,265.605 758.544,265.239 746.425,261.351 740.842,264.004 731.007,259.246 717.682,259.749 702.835,246.436 672.95,252.704 658.864,240.855 636.847,236.92 634.626,236.508 632.406,236.142 625.743,234.495 609.5,236.142 561.976,206.039 509.122,221.365 501.572,223.424 493.958,226.352 475.303,180.556 376.321,190.438 333.493,143.499 233.178,134.577 227.595,131.924 220.044,132.153 211.478,124.833 194.727,128.081 185.781,120.898 171.632,118.885 167.634,118.107 158.434,119.068 127.153,101.637 92.002,114.63Z" test="Smoke" stroke-width="1.092"/>
      <path id="Layer1_0_1_STROKES" stroke="#FFF" stroke-width="1.092" stroke-linejoin="round" stroke-linecap="round" fill="none" d="M768.696,281.343 Q756.704,281.709 744.712,282.075 736.654,284.271 728.532,286.467 713.368,292.918 708.228,285.049 696.807,288.984 685.386,292.872 666.351,302.754 658.357,292.095 646.238,301.29 626.061,303.212 601.886,309.891 591.1,300.741 570.225,330.296 531.71,323.205 482.219,354.177 405.762,340.178 400.496,359.347 377.083,368.543 352.337,378.425 307.415,377.281 253.165,403.267 218.585,381.261 216.364,381.765 214.207,382.314 205.958,385.608 203.103,381.17 196.821,383.046 190.603,384.921 180.197,390 175.756,384.006 169.094,388.627 158.117,389.359 144.919,392.653 138.955,387.392 127.534,402.718 106.595,398.235 79.566,413.79 38.069,404.96 31.851,425.044 -15.546,422.436 -50.761,437.9 -70.874,416.214 -70.874,239.94 -70.874,63.665 -2.983,67.096 24.935,95.415 80.264,90.154 92.002,114.63 127.153,101.637 158.434,119.068 167.634,118.107 171.632,118.885 185.781,120.898 194.727,128.081 211.478,124.833 220.044,132.153 227.595,131.924 233.178,134.577 333.493,143.499 376.321,190.438 475.303,180.556 493.958,226.352 501.572,223.424 509.122,221.365 561.976,206.039 609.5,236.142 625.743,234.495 632.406,236.142 634.626,236.508 636.847,236.92 658.864,240.855 672.95,252.704 702.835,246.436 717.682,259.749 731.007,259.246 740.842,264.004 746.425,261.351 758.544,265.239 759.877,265.605 761.526,270.363 765.651,269.723 769.775,269.128 769.775,271.233 769.775,273.337 769.521,274.893 769.267,276.448 768.696,279.834 768.696,281.343Z" test="Smoke"/>
    </g>
    <g id="MotorBikeBluef13r1">
      <g id="BlueBikeContainer">
        <path fill="#000" stroke="none" d="M907.626,219.172 L906.711,218.62 902.336,225.926 914.704,229.651 917.024,231.316 Q920.13,227.133 922.204,224.283 L920.66,223.226 907.626,219.172 M870.525,196.129 Q870.624,200.064 855.749,201.568 L858.436,205.666 Q866.966,208.645 877.345,201.178 L875.495,193.474 870,190.428 Q869.61,190.528 869.266,190.609 L870.525,196.129 M889.348,172.181 Q868.902,165.942 861.448,166.513 855.664,166.963 854.584,169.268 854.33,169.851 854.014,171.64 853.744,173.411 853.172,174.55 854.905,178.271 857.587,179.901 859.548,181.062 866.528,184.061 867.486,184.495 872.069,187.09 872.131,187.103 872.134,187.118 878.573,190.694 891.911,198.345 911.484,209.599 913.75,209.352 917.575,208.974 923.568,205.917 930.427,202.466 930.471,199.441 930.526,196.305 927.685,193.181 925.582,190.84 917.527,184.29 910.58,178.646 889.348,172.181Z" test="BlueBikeContainer" vector-effect="non-scaling-stroke" stroke-width="1"/>
        <path id="Layer3_0_1_STROKES" stroke="#0FF" stroke-width="1" stroke-linejoin="round" stroke-linecap="round" fill="none" d="M853.172,174.55 Q853.744,173.411 854.014,171.64 854.33,169.851 854.584,169.268 855.664,166.963 861.448,166.513 868.902,165.942 889.348,172.181 910.58,178.646 917.527,184.29 925.582,190.84 927.685,193.181 930.526,196.305 930.471,199.441 930.427,202.466 923.568,205.917 917.575,208.974 913.75,209.352 911.484,209.599 891.911,198.345 878.573,190.694 872.167,187.132 872.131,187.103 872.093,187.08 867.486,184.495 866.528,184.061 859.548,181.062 857.587,179.901 854.905,178.271 853.172,174.55Z" test="BlueBikeContainer" vector-effect="non-scaling-stroke"/>
        <path id="Layer3_0_2_STROKES" stroke="#009EFF" stroke-width="1" stroke-linejoin="round" stroke-linecap="round" fill="none" d="M869.266,190.609 Q861.188,193.144 852.932,195.91 835.165,201.935 833.968,203.534 832.66,205.123 832.878,207.722 833.01,209.013 833.892,212.21 834.483,214.394 834.521,219.266 834.484,224.221 833.792,225.192 833.564,225.545 830.682,226.228 830.62,226.236 830.557,226.25 L831.286,228.648 Q832.151,231.53 832.806,234.011 819.731,242.271 797.436,244.977 775.122,247.637 771.131,246.093 767.14,244.549 765.169,240.223 764.545,238.911 763.583,235.101 763.52,234.803 764.238,232.534 764.984,230.2 764.849,229.447 764.836,229.348 764.808,229.275 764.45,228.191 761.614,230.506 757.559,233.712 741.572,243.441 733.537,248.268 726.34,252.496 730.018,263.615 729.692,263.743 729.367,263.872 746.962,263.552 763.609,263.821 763.878,263.823 778.87,264.528 783.319,266.965 787.02,269 790.127,270.892 790.488,271.126 790.895,271.341 793.595,273.017 795.814,274.561 799.807,277.339 802.9,280.15 803.796,280.925 804.599,281.737 806.435,283.538 807.892,285.328 814.416,293.446 822.53,309.425 822.768,310.029 858.691,294.872 876.614,287.335 894.53,279.64 893.417,277.768 892.349,274.644 890.166,268.415 890.229,262.161 890.303,255.526 893.634,245.569 895.945,238.752 898.875,232.551 898.942,232.31 899.073,232.098 900.199,229.775 902.336,225.926 L906.711,218.62 908.921,214.957 Q896.873,207.137 889.351,202.279 889.315,202.253 889.277,202.228 879.205,195.745 877.28,194.598 L875.856,193.708 M870,190.428 Q870.186,190.355 870.418,190.263 L875.495,193.474 M870,190.428 Q869.61,190.528 869.266,190.609 M764.849,229.447 Q774.084,230.807 782.581,231.383 796.754,232.465 804.472,231.199 L830.513,225.73 M798.215,268.246 L800.778,269.707 Q804.541,272.039 808.015,274.861 819.258,283.915 823.689,294.63 828.121,305.345 828.089,304.445 L827.104,301.396 859.828,288.893 Q859.484,285.699 858.244,281.729 855.764,273.791 850.77,269.151 845.711,264.483 836.734,263.505 827.71,262.545 819.716,264.886 811.658,267.198 803.506,268.043 L798.215,268.246Z" test="BlueBikeContainer" vector-effect="non-scaling-stroke"/>
        <path id="Layer3_0_3_STROKES" stroke="#FFF" stroke-width="1" stroke-linejoin="round" stroke-linecap="round" fill="none" d="M875.856,193.708 L875.495,193.474 877.345,201.178 Q866.966,208.645 858.436,205.666 L855.749,201.568 Q870.624,200.064 870.525,196.129 L869.266,190.609 869.232,189.978 870,190.428 875.495,193.474 M920.66,223.226 L907.626,219.172 M902.336,225.926 L914.704,229.651" test="BlueBikeContainer" vector-effect="non-scaling-stroke"/>
        <use xlink:href="#Bike-Wheel" transform="matrix(.93 -.366 .366 .93 949.2 246)"/>
        <use xlink:href="#Bike-Wheel" transform="matrix(.93 -.366 .366 .93 774.3 318.9)"/>
      </g>
    </g>
    <g id="MotorBikePinkf0r1">
      <path fill="#000" stroke="none" d="M84.804,341.261 Q85.106,346 88.911,350.502 92.716,354.005 118.99,360.891 145.264,367.716 163.626,364.213 163.988,361.132 164.29,357.508 L164.532,354.488 Q164.609,354.5 164.653,354.488 L164.713,353.884 133.003,348.509 Q123.762,346.516 108.3,339.026 98.998,334.617 89.213,329 89.032,329.906 87.16,332.201 85.348,334.436 85.287,334.798 84.683,339.509 84.804,341.261 M254.347,380.642 L253.562,379.615 245.408,385.896 257.669,395.56 259.541,398.46 Q264.887,395.129 268.48,392.842 L267.212,390.97 254.347,380.642 M222.818,338.301 Q221.187,342.771 203.792,337.878 L205,343.677 Q213.275,350.804 228.254,346 L229.583,337.516 224.751,331.657 Q224.268,331.597 223.845,331.536 L222.818,338.301 M203.792,337.878 Q221.187,342.771 222.818,338.301 L223.845,331.536 Q213.637,330.812 203.128,330.268 180.478,329.181 178.424,330.449 176.25,331.657 175.344,334.677 174.921,336.187 174.498,340.174 174.196,342.892 172.082,348.388 169.847,353.945 168.639,354.73 168.226,355.026 164.653,354.488 164.609,354.5 164.532,354.488 L164.29,357.508 Q163.988,361.132 163.626,364.213 145.264,367.716 118.99,360.891 92.716,354.005 88.911,350.502 85.106,346 84.804,341.261 84.683,339.509 85.287,334.798 85.348,334.436 87.16,332.201 89.032,329.906 89.213,329 89.243,328.882 89.213,328.758 89.321,327.41 85.106,328.758 79.126,330.57 56.839,334.436 45.665,336.308 35.699,337.878 34.914,352.012 34.491,352.012 34.068,352.012 54,359.441 72.603,367.112 72.905,367.233 89.455,374.662 93.381,379.373 96.642,383.299 99.3,386.802 99.602,387.225 99.964,387.648 101.598,389.838 102.984,391.816 103.067,391.963 103.105,392.057 103.625,392.774 104.072,393.446 107.333,398.339 109.568,402.869 110.232,404.137 110.776,405.406 112.044,408.244 112.89,410.902 116.635,422.922 118.688,444.484 118.688,444.813 126.963,444.786 127.039,444.817 127.084,444.786 138.613,444.784 165.8,444.122 167.763,444.076 169.726,444.001 191.264,443.517 212.852,442.854 212.429,440.256 212.61,436.27 212.912,428.297 215.751,421.291 218.771,413.862 226.925,404.137 232.542,397.493 238.582,391.816 238.764,391.574 239.005,391.393 241.3,389.279 245.408,385.896 L253.562,379.615 257.669,376.474 Q247.58,362.345 241.24,353.522 241.241,353.506 241.18,353.462 232.75,341.711 231.093,339.57 L229.885,337.939 229.583,337.516 228.254,346 Q213.275,350.804 205,343.677 L203.792,337.878 M154.989,399.124 Q164.653,404.198 168.277,411.687 171.84,419.116 171.116,429.143 170.753,434.156 169.726,437.901 L127.386,437.478 127.144,441.344 Q126.782,442.37 126.54,428.358 126.299,414.345 117.662,399.184 115.004,394.473 111.803,390.185 L109.447,387.286 115.608,389.52 Q125.151,392.178 135.238,393.144 145.264,394.05 154.989,399.124 M168.277,411.687 Q164.653,404.198 154.989,399.124 145.264,394.05 135.238,393.144 125.151,392.178 115.608,389.52 L109.447,387.286 111.803,390.185 Q115.004,394.473 117.662,399.184 126.299,414.345 126.54,428.358 126.782,442.37 127.144,441.344 L127.386,437.478 169.726,437.901 Q170.753,434.156 171.116,429.143 171.84,419.116 168.277,411.687 M254.588,319.698 Q234.354,303.632 225.717,300.974 219.013,298.92 216.778,301.034 216.234,301.578 215.087,303.45 214,305.323 212.852,306.35 213.154,311.302 215.449,314.322 217.14,316.497 223.664,322.96 224.549,323.872 228.556,328.818 228.62,328.861 228.616,328.879 234.276,335.751 245.891,350.26 262.924,371.582 265.581,372.306 270.051,373.575 278.144,372.79 287.386,371.944 288.775,368.562 290.224,365.058 288.412,360.287 287.084,356.723 280.923,345.791 275.608,336.368 254.588,319.698Z" test="RedBike container" stroke-width="1.208"/>
      <path id="Layer2_0_1_STROKES" stroke="#0FF" stroke-width="1.208" stroke-linejoin="round" stroke-linecap="round" fill="none" d="M212.852,306.35 Q214,305.323 215.087,303.45 216.234,301.578 216.778,301.034 219.013,298.92 225.717,300.974 234.354,303.632 254.588,319.698 275.608,336.368 280.923,345.791 287.084,356.723 288.412,360.287 290.224,365.058 288.775,368.562 287.386,371.944 278.144,372.79 270.051,373.575 265.581,372.306 262.924,371.582 245.891,350.26 234.276,335.751 228.647,328.909 228.62,328.861 228.586,328.818 224.549,323.872 223.664,322.96 217.14,316.497 215.449,314.322 213.154,311.302 212.852,306.35Z" test="RedBike container"/>
      <path id="Layer2_0_2_STROKES" stroke="#FFF" stroke-width="1.208" stroke-linejoin="round" stroke-linecap="round" fill="none" d="M229.583,337.516 L228.254,346 Q213.275,350.804 205,343.677 L203.792,337.878 Q221.187,342.771 222.818,338.301 L223.845,331.536 M229.885,337.939 L229.583,337.516 224.751,331.657 M223.845,331.536 L224.086,330.812 224.751,331.657 M267.212,390.97 L254.347,380.642 M245.408,385.896 L257.669,395.56" test="RedBike container"/>
      <path id="Layer2_0_3_STROKES" stroke="#FF0265" stroke-width="1.208" stroke-linejoin="round" stroke-linecap="round" fill="none" d="M223.845,331.536 Q213.637,330.812 203.128,330.268 180.478,329.181 178.424,330.449 176.25,331.657 175.344,334.677 174.921,336.187 174.498,340.174 174.196,342.892 172.082,348.388 169.847,353.945 168.639,354.73 168.226,355.026 164.683,354.519 164.609,354.5 164.532,354.488 L164.29,357.508 Q163.988,361.132 163.626,364.213 145.264,367.716 118.99,360.891 92.716,354.005 88.911,350.502 85.106,346 84.804,341.261 84.683,339.509 85.287,334.798 85.348,334.436 87.16,332.201 89.032,329.906 89.213,329 89.243,328.882 89.243,328.788 89.321,327.41 85.106,328.758 79.126,330.57 56.839,334.436 45.665,336.308 35.699,337.878 34.914,352.012 34.491,352.012 34.068,352.012 54,359.441 72.603,367.112 72.905,367.233 89.455,374.662 93.381,379.373 96.642,383.299 99.3,386.802 99.602,387.225 99.964,387.648 101.598,389.838 102.984,391.846 103.067,391.963 103.135,392.087 103.625,392.774 104.072,393.446 107.333,398.339 109.568,402.869 110.232,404.137 110.776,405.406 112.044,408.244 112.89,410.902 116.635,422.922 118.688,444.484 118.688,444.813 126.963,444.817 127.039,444.817 127.114,444.817 138.613,444.784 165.8,444.122 167.763,444.076 169.726,444.031 191.264,443.517 212.852,442.854 212.429,440.256 212.61,436.27 212.912,428.297 215.751,421.291 218.771,413.862 226.925,404.137 232.542,397.493 238.582,391.816 238.764,391.574 239.005,391.393 241.3,389.279 245.408,385.896 L253.562,379.615 257.669,376.474 Q247.58,362.345 241.27,353.552 241.241,353.506 241.21,353.462 232.75,341.711 231.093,339.57 L229.885,337.939 M223.845,331.536 Q224.268,331.597 224.751,331.657 224.992,331.657 225.294,331.657 L229.583,337.516 M89.213,329 Q98.998,334.617 108.3,339.026 123.762,346.516 133.003,348.509 L164.713,353.884 M111.803,390.185 Q115.004,394.473 117.662,399.184 126.299,414.345 126.54,428.358 126.782,442.37 127.144,441.344 L127.386,437.478 169.726,437.901 Q170.753,434.156 171.116,429.143 171.84,419.116 168.277,411.687 164.653,404.198 154.989,399.124 145.264,394.05 135.238,393.144 125.151,392.178 115.608,389.52 L109.477,387.286 111.803,390.185Z" test="RedBike container"/>
      <use xlink:href="#Bike-Wheel" transform="matrix(1.208 0 0 1.208 289.25 429.25)"/>
      <use xlink:href="#Bike-Wheel" transform="matrix(1.208 0 0 1.208 60.25 433.85)"/>
    </g>
  </g>
</svg>