<?xml version="1.0" encoding="utf-8"?>
<svg id="EdithAnim11" image-rendering="inherit" baseProfile="basic" version="1.1" x="0px" y="0px" width="800" height="600" xmlns="http://www.w3.org/2000/svg" xmlns:xlink="http://www.w3.org/1999/xlink">
  <defs>
    <g id="Bike-Wheel" overflow="visible">
      <path id="Layer4_0_1_STROKES" stroke="#FFF" stroke-width="1" stroke-linejoin="round" stroke-linecap="round" fill="none" d="M2.05 -34.85Q-12.35 -34.85 -22.65 -26.45 -34 -17.2 -34.7 -1.55 -35.4 14.3 -26.6 24.6 -18.4 34.2 -5.6 34.85 7.15 35.5 19.2 29.8 31.25 24.1 34.05 7.25 36.85 -9.65 28.9 -21.15 19.4 -34.85 2.05 -34.85Z" test="Bike Wheel"/>
      <path id="Layer3_0_1_STROKES" stroke="#FFF" stroke-width="1" stroke-linejoin="round" stroke-linecap="round" fill="none" d="M.55 -26.55Q4.65 -26.85 7.1 -26.15 9.75 -25.4 12 -23.15 13.95 -21.25 8 -15.35 5.3 -12.6 2.25 -10.2 1.95 -10 1.7 -9.8M24.45 -8.9Q26.2 -5.15 26.45 -2.65 26.7 .1 25.4 3.05 24.35 5.5 16.7 2.1 13.2 .6 9.85 -1.4 9.5 -1.6 9.25 -1.75M18.45 20Q15.75 23.1 13.55 24.35 11.2 25.75 8 25.75 5.3 25.75 5.25 17.4 5.2 13.55 5.65 9.7 5.7 9.35 5.75 9M-25.15 -7.15Q-24.25 -11.2 -22.85 -13.3 -21.4 -15.6 -18.6 -17.1 -16.2 -18.45 -12.25 -11.05 -10.4 -7.65 -9 -4.1 -8.9 -3.7 -8.75 -3.4M-12.85 23.8Q-16.75 22.4 -18.7 20.8 -20.85 19.05 -22.05 16.1 -23.1 13.6 -15.3 10.55 -11.75 9.05 -8 8.05 -7.65 8 -7.3 7.95" test="Bike Wheel"/>
    </g>
  </defs>
  <g id="19_Motorbikesf76r1" overflow="visible">
    <g id="Smokef2r1">
      <path fill="#000" stroke="none" d="M407.363,174.626 Q380.242,93.699 222.982,111.874 150.339,18.456 -41.654,7.682 -41.654,235.779 -41.654,463.877 15.471,532.371 117.971,477.611 256.533,482.643 271.83,412.432 392.361,437.888 469.513,382.714 530.185,395.619 562.257,342.813 578.885,359.33 617.091,347.43 648.942,344.056 667.713,327.717 679.98,346.898 710.057,329.197 728.015,322.33 745.899,315.403 753.658,329.552 777.676,318.008 784.105,316.114 790.387,314.16 800.141,317.416 813.296,311.141 823.789,310.667 830.662,307.944 836.944,306.05 839.974,302.142 858.744,304.806 872.785,298.472 882.54,299.834 889.191,293.795 892.59,295.571 898.355,294.21 903.38,293.795 906.927,291.901 909.587,293.973 914.243,291.96 917.273,291.131 920.229,290.302 922.076,291.842 925.771,290.48 927.915,290.066 929.984,289.592 933.088,289.474 936.191,289.355 936.191,287.402 936.856,283.021 937.152,281.008 937.448,278.995 937.448,276.272 937.448,273.549 936.413,273.726 935.305,273.904 934.713,273.016 934.196,272.957 931.314,272.365 929.54,273.016 926.806,272.246 923.407,272.483 918.751,270.115 911.435,271.654 907.149,269.642 901.458,269.168 900.941,268.931 900.572,268.754 899.094,267.57 895.99,267.096 885.422,254.901 874.411,257.387 872.416,257.565 870.346,257.861 860.887,246.613 838.2,247.738 821.794,236.963 798.885,237.851 783.514,229.267 762.526,230.037 739.543,206.002 692.247,217.013 668.156,193.451 628.546,187.058 617.904,184.69 591.743,188.064 505.354,130.64 407.363,174.626Z" test="Smoke_1" stroke-width="1.331"/>
      <path id="Layer1_0_1_STROKES" stroke="#FFF" stroke-width="1.331" stroke-linejoin="round" stroke-linecap="round" fill="none" d="M936.191,289.355 Q933.088,289.474 929.984,289.592 927.915,290.066 925.771,290.48 922.076,291.842 920.229,290.302 917.273,291.131 914.243,291.96 909.587,293.973 906.927,291.901 903.38,293.795 898.355,294.21 892.59,295.571 889.191,293.795 882.54,299.834 872.785,298.472 858.744,304.806 839.974,302.142 836.944,306.05 830.662,307.944 823.789,310.667 813.296,311.141 800.141,317.416 790.387,314.16 784.105,316.114 777.676,318.008 753.658,329.552 745.899,315.403 728.015,322.33 710.057,329.197 679.98,346.898 667.713,327.717 648.942,344.056 617.091,347.43 578.885,359.33 562.257,342.813 530.185,395.619 469.513,382.714 392.361,437.888 271.83,412.432 256.533,482.643 117.971,477.611 15.471,532.371 -41.654,463.877 -41.654,235.779 -41.654,7.682 150.339,18.456 222.982,111.874 380.242,93.699 407.363,174.626 505.354,130.64 591.743,188.064 617.904,184.69 628.546,187.058 668.156,193.451 692.247,217.013 739.543,206.002 762.526,230.037 783.514,229.267 798.885,237.851 821.794,236.963 838.2,247.738 860.887,246.613 870.346,257.861 872.416,257.565 874.411,257.387 885.422,254.901 895.99,267.096 899.094,267.57 900.572,268.754 900.941,268.931 901.458,269.168 907.149,269.642 911.435,271.654 918.751,270.115 923.407,272.483 926.806,272.246 929.54,273.016 931.314,272.365 934.196,272.957 934.713,273.016 935.305,273.904 936.413,273.726 937.448,273.549 937.448,276.272 937.448,278.995 937.152,281.008 936.856,283.021 936.191,287.402 936.191,289.355Z" test="Smoke_1"/>
    </g>
    <g id="MotorBikePinkf0r1">
      <path fill="#000" stroke="none" d="M84.804,341.261 Q85.106,346 88.911,350.502 92.716,354.005 118.99,360.891 145.264,367.716 163.626,364.213 163.988,361.132 164.29,357.508 L164.532,354.488 Q164.609,354.5 164.653,354.488 L164.713,353.884 133.003,348.509 Q123.762,346.516 108.3,339.026 98.998,334.617 89.213,329 89.032,329.906 87.16,332.201 85.348,334.436 85.287,334.798 84.683,339.509 84.804,341.261 M254.347,380.642 L253.562,379.615 245.408,385.896 257.669,395.56 259.541,398.46 Q264.887,395.129 268.48,392.842 L267.212,390.97 254.347,380.642 M222.818,338.301 Q221.187,342.771 203.792,337.878 L205,343.677 Q213.275,350.804 228.254,346 L229.583,337.516 224.751,331.657 Q224.268,331.597 223.845,331.536 L222.818,338.301 M203.792,337.878 Q221.187,342.771 222.818,338.301 L223.845,331.536 Q213.637,330.812 203.128,330.268 180.478,329.181 178.424,330.449 176.25,331.657 175.344,334.677 174.921,336.187 174.498,340.174 174.196,342.892 172.082,348.388 169.847,353.945 168.639,354.73 168.226,355.026 164.653,354.488 164.609,354.5 164.532,354.488 L164.29,357.508 Q163.988,361.132 163.626,364.213 145.264,367.716 118.99,360.891 92.716,354.005 88.911,350.502 85.106,346 84.804,341.261 84.683,339.509 85.287,334.798 85.348,334.436 87.16,332.201 89.032,329.906 89.213,329 89.243,328.882 89.213,328.758 89.321,327.41 85.106,328.758 79.126,330.57 56.839,334.436 45.665,336.308 35.699,337.878 34.914,352.012 34.491,352.012 34.068,352.012 54,359.441 72.603,367.112 72.905,367.233 89.455,374.662 93.381,379.373 96.642,383.299 99.3,386.802 99.602,387.225 99.964,387.648 101.598,389.838 102.984,391.816 103.067,391.963 103.105,392.057 103.625,392.774 104.072,393.446 107.333,398.339 109.568,402.869 110.232,404.137 110.776,405.406 112.044,408.244 112.89,410.902 116.635,422.922 118.688,444.484 118.688,444.813 126.963,444.786 127.039,444.817 127.084,444.786 138.613,444.784 165.8,444.122 167.763,444.076 169.726,444.001 191.264,443.517 212.852,442.854 212.429,440.256 212.61,436.27 212.912,428.297 215.751,421.291 218.771,413.862 226.925,404.137 232.542,397.493 238.582,391.816 238.764,391.574 239.005,391.393 241.3,389.279 245.408,385.896 L253.562,379.615 257.669,376.474 Q247.58,362.345 241.24,353.522 241.241,353.506 241.18,353.462 232.75,341.711 231.093,339.57 L229.885,337.939 229.583,337.516 228.254,346 Q213.275,350.804 205,343.677 L203.792,337.878 M154.989,399.124 Q164.653,404.198 168.277,411.687 171.84,419.116 171.116,429.143 170.753,434.156 169.726,437.901 L127.386,437.478 127.144,441.344 Q126.782,442.37 126.54,428.358 126.299,414.345 117.662,399.184 115.004,394.473 111.803,390.185 L109.447,387.286 115.608,389.52 Q125.151,392.178 135.238,393.144 145.264,394.05 154.989,399.124 M168.277,411.687 Q164.653,404.198 154.989,399.124 145.264,394.05 135.238,393.144 125.151,392.178 115.608,389.52 L109.447,387.286 111.803,390.185 Q115.004,394.473 117.662,399.184 126.299,414.345 126.54,428.358 126.782,442.37 127.144,441.344 L127.386,437.478 169.726,437.901 Q170.753,434.156 171.116,429.143 171.84,419.116 168.277,411.687 M254.588,319.698 Q234.354,303.632 225.717,300.974 219.013,298.92 216.778,301.034 216.234,301.578 215.087,303.45 214,305.323 212.852,306.35 213.154,311.302 215.449,314.322 217.14,316.497 223.664,322.96 224.549,323.872 228.556,328.818 228.62,328.861 228.616,328.879 234.276,335.751 245.891,350.26 262.924,371.582 265.581,372.306 270.051,373.575 278.144,372.79 287.386,371.944 288.775,368.562 290.224,365.058 288.412,360.287 287.084,356.723 280.923,345.791 275.608,336.368 254.588,319.698Z" test="RedBike container" stroke-width="1.208"/>
      <path id="Layer2_0_1_STROKES" stroke="#0FF" stroke-width="1.208" stroke-linejoin="round" stroke-linecap="round" fill="none" d="M212.852,306.35 Q214,305.323 215.087,303.45 216.234,301.578 216.778,301.034 219.013,298.92 225.717,300.974 234.354,303.632 254.588,319.698 275.608,336.368 280.923,345.791 287.084,356.723 288.412,360.287 290.224,365.058 288.775,368.562 287.386,371.944 278.144,372.79 270.051,373.575 265.581,372.306 262.924,371.582 245.891,350.26 234.276,335.751 228.647,328.909 228.62,328.861 228.586,328.818 224.549,323.872 223.664,322.96 217.14,316.497 215.449,314.322 213.154,311.302 212.852,306.35Z" test="RedBike container"/>
      <path id="Layer2_0_2_STROKES" stroke="#FFF" stroke-width="1.208" stroke-linejoin="round" stroke-linecap="round" fill="none" d="M229.583,337.516 L228.254,346 Q213.275,350.804 205,343.677 L203.792,337.878 Q221.187,342.771 222.818,338.301 L223.845,331.536 M229.885,337.939 L229.583,337.516 224.751,331.657 M223.845,331.536 L224.086,330.812 224.751,331.657 M267.212,390.97 L254.347,380.642 M245.408,385.896 L257.669,395.56" test="RedBike container"/>
      <path id="Layer2_0_3_STROKES" stroke="#FF0265" stroke-width="1.208" stroke-linejoin="round" stroke-linecap="round" fill="none" d="M223.845,331.536 Q213.637,330.812 203.128,330.268 180.478,329.181 178.424,330.449 176.25,331.657 175.344,334.677 174.921,336.187 174.498,340.174 174.196,342.892 172.082,348.388 169.847,353.945 168.639,354.73 168.226,355.026 164.683,354.519 164.609,354.5 164.532,354.488 L164.29,357.508 Q163.988,361.132 163.626,364.213 145.264,367.716 118.99,360.891 92.716,354.005 88.911,350.502 85.106,346 84.804,341.261 84.683,339.509 85.287,334.798 85.348,334.436 87.16,332.201 89.032,329.906 89.213,329 89.243,328.882 89.243,328.788 89.321,327.41 85.106,328.758 79.126,330.57 56.839,334.436 45.665,336.308 35.699,337.878 34.914,352.012 34.491,352.012 34.068,352.012 54,359.441 72.603,367.112 72.905,367.233 89.455,374.662 93.381,379.373 96.642,383.299 99.3,386.802 99.602,387.225 99.964,387.648 101.598,389.838 102.984,391.846 103.067,391.963 103.135,392.087 103.625,392.774 104.072,393.446 107.333,398.339 109.568,402.869 110.232,404.137 110.776,405.406 112.044,408.244 112.89,410.902 116.635,422.922 118.688,444.484 118.688,444.813 126.963,444.817 127.039,444.817 127.114,444.817 138.613,444.784 165.8,444.122 167.763,444.076 169.726,444.031 191.264,443.517 212.852,442.854 212.429,440.256 212.61,436.27 212.912,428.297 215.751,421.291 218.771,413.862 226.925,404.137 232.542,397.493 238.582,391.816 238.764,391.574 239.005,391.393 241.3,389.279 245.408,385.896 L253.562,379.615 257.669,376.474 Q247.58,362.345 241.27,353.552 241.241,353.506 241.21,353.462 232.75,341.711 231.093,339.57 L229.885,337.939 M223.845,331.536 Q224.268,331.597 224.751,331.657 224.992,331.657 225.294,331.657 L229.583,337.516 M89.213,329 Q98.998,334.617 108.3,339.026 123.762,346.516 133.003,348.509 L164.713,353.884 M111.803,390.185 Q115.004,394.473 117.662,399.184 126.299,414.345 126.54,428.358 126.782,442.37 127.144,441.344 L127.386,437.478 169.726,437.901 Q170.753,434.156 171.116,429.143 171.84,419.116 168.277,411.687 164.653,404.198 154.989,399.124 145.264,394.05 135.238,393.144 125.151,392.178 115.608,389.52 L109.477,387.286 111.803,390.185Z" test="RedBike container"/>
      <use xlink:href="#Bike-Wheel" transform="matrix(1.208 0 0 1.208 289.25 429.25)"/>
      <use xlink:href="#Bike-Wheel" transform="matrix(1.208 0 0 1.208 60.25 433.85)"/>
    </g>
  </g>
</svg>