<?xml version="1.0" encoding="utf-8"?>
<svg id="EdithAnim11" image-rendering="inherit" baseProfile="basic" version="1.1" x="0px" y="0px" width="800" height="600" xmlns="http://www.w3.org/2000/svg" xmlns:xlink="http://www.w3.org/1999/xlink">
  <defs>
    <g id="Bike-Wheel" overflow="visible">
      <path id="Layer5_0_1_STROKES" stroke="#FFF" stroke-width="1" stroke-linejoin="round" stroke-linecap="round" fill="none" d="M2.05 -34.85Q-12.35 -34.85 -22.65 -26.45 -34 -17.2 -34.7 -1.55 -35.4 14.3 -26.6 24.6 -18.4 34.2 -5.6 34.85 7.15 35.5 19.2 29.8 31.25 24.1 34.05 7.25 36.85 -9.65 28.9 -21.15 19.4 -34.85 2.05 -34.85Z" test="Bike Wheel"/>
      <path id="Layer4_0_1_STROKES" stroke="#FFF" stroke-width="1" stroke-linejoin="round" stroke-linecap="round" fill="none" d="M.55 -26.55Q4.65 -26.85 7.1 -26.15 9.75 -25.4 12 -23.15 13.95 -21.25 8 -15.35 5.3 -12.6 2.25 -10.2 1.95 -10 1.7 -9.8M24.45 -8.9Q26.2 -5.15 26.45 -2.65 26.7 .1 25.4 3.05 24.35 5.5 16.7 2.1 13.2 .6 9.85 -1.4 9.5 -1.6 9.25 -1.75M18.45 20Q15.75 23.1 13.55 24.35 11.2 25.75 8 25.75 5.3 25.75 5.25 17.4 5.2 13.55 5.65 9.7 5.7 9.35 5.75 9M-25.15 -7.15Q-24.25 -11.2 -22.85 -13.3 -21.4 -15.6 -18.6 -17.1 -16.2 -18.45 -12.25 -11.05 -10.4 -7.65 -9 -4.1 -8.9 -3.7 -8.75 -3.4M-12.85 23.8Q-16.75 22.4 -18.7 20.8 -20.85 19.05 -22.05 16.1 -23.1 13.6 -15.3 10.55 -11.75 9.05 -8 8.05 -7.65 8 -7.3 7.95" test="Bike Wheel"/>
    </g>
  </defs>
  <g id="19_Motorbikesf77r1" overflow="visible">
    <g id="Smokef3r1">
      <path fill="#000" stroke="none" d="M402.338,158.674 Q375.335,76.309 219.878,94.747 147.897,-.379 -41.815,-11.353 -41.815,234.469 -41.815,480.29 14.659,550.151 115.803,494.518 252.513,499.813 267.711,428.485 386.754,454.515 462.901,398.499 522.846,411.705 554.478,358.049 570.988,374.829 608.714,362.771 640.114,359.389 658.707,342.801 670.82,362.388 700.523,344.396 718.19,337.378 735.934,330.36 743.649,344.779 767.334,333.104 773.584,331.126 779.91,329.148 792.871,335.145 811.464,325.703 826.354,325.384 835.612,321.428 844.176,318.43 847.57,312.241 873.879,316.579 892.626,306.435 906.204,308.668 914.768,299.034 919.243,301.905 927.344,299.736 934.364,299.098 939.07,296.036 942.465,299.417 949.023,296.227 953.112,294.887 957.201,293.611 959.515,296.1 964.684,293.93 967.616,293.229 970.548,292.527 974.791,292.399 979.034,292.208 979.034,290.102 979.728,285.381 980.037,283.212 980.346,281.043 980.346,278.108 980.346,275.173 978.88,275.428 977.414,275.684 976.642,274.216 976.025,274.089 971.936,273.004 969.699,274.025 965.996,272.621 961.29,272.94 955.195,268.921 944.934,271.281 939.302,267.772 931.51,266.752 930.815,266.56 930.198,266.305 928.038,264.901 923.255,264.646 908.056,248.888 891.7,253.29 888.923,253.673 886.145,254.374 875.113,237.531 842.633,239.956 822.42,223.431 789.554,223.112 774.355,214.372 753.602,215.201 730.843,190.702 684.09,201.931 660.25,177.878 621.058,171.434 610.488,168.946 584.643,172.391 499.238,113.951 402.338,158.674Z" test="Smoke_1" stroke-width="1.409"/>
      <path id="Layer2_0_1_STROKES" stroke="#FFF" stroke-width="1.409" stroke-linejoin="round" stroke-linecap="round" fill="none" d="M979.034,292.208 Q974.791,292.399 970.548,292.527 967.616,293.229 964.684,293.93 959.515,296.1 957.201,293.611 953.112,294.887 949.023,296.227 942.465,299.417 939.07,296.036 934.364,299.098 927.344,299.736 919.243,301.905 914.768,299.034 906.204,308.668 892.626,306.435 873.879,316.579 847.57,312.241 844.176,318.43 835.612,321.428 826.354,325.384 811.464,325.703 792.871,335.145 779.91,329.148 773.584,331.126 767.334,333.104 743.649,344.779 735.934,330.36 718.19,337.378 700.523,344.396 670.82,362.388 658.707,342.801 640.114,359.389 608.714,362.771 570.988,374.829 554.478,358.049 522.846,411.705 462.901,398.499 386.754,454.515 267.711,428.485 252.513,499.813 115.803,494.518 14.659,550.151 -41.815,480.29 -41.815,234.469 -41.815,-11.353 147.897,-.379 219.878,94.747 375.335,76.309 402.338,158.674 499.238,113.951 584.643,172.391 610.488,168.946 621.058,171.434 660.25,177.878 684.09,201.931 730.843,190.702 753.602,215.201 774.355,214.372 789.554,223.112 822.42,223.431 842.633,239.956 875.113,237.531 886.145,254.374 888.923,253.673 891.7,253.29 908.056,248.888 923.255,264.646 928.038,264.901 930.198,266.305 930.815,266.56 931.51,266.752 939.302,267.772 944.934,271.281 955.195,268.921 961.29,272.94 965.996,272.621 969.699,274.025 971.936,273.004 976.025,274.089 976.642,274.216 977.414,275.684 978.88,275.428 980.346,275.173 980.346,278.108 980.346,281.043 980.037,283.212 979.728,285.381 979.034,290.102 979.034,292.208Z" test="Smoke_1"/>
    </g>
    <g id="Smokef0r1">
      <path fill="#000" stroke="none" d="M81.557,370.64 L81.557,369.26 74.82,369.86 Q73.542,367.46 72.54,367.265 62.589,365.285 58.132,366.59 50.186,364.175 39.337,364.4 27.486,357.635 3.025,360.74 -9.413,354.11 -29.901,352.325 -35.395,351.65 -48.938,352.61 -93.58,336.461 -144.227,348.845 -158.035,326.071 -239.481,331.205 -276.83,304.91 -376.196,301.895 L-376.196,417.485 Q-346.607,436.702 -293.483,421.22 -221.619,422.59 -213.776,402.755 -151.275,409.851 -111.335,394.25 -79.895,397.85 -63.311,382.955 -54.708,387.575 -34.876,384.215 -18.396,383.255 -8.653,378.635 -2.33,384.02 13.252,379.025 L31.84,375.11 Q35.848,379.085 48.286,375.83 L61.449,373.625 80.97,373.265 Q80.97,372.77 81.281,371.66 L81.557,370.64Z" test="Smoke_22" vector-effect="non-scaling-stroke" stroke-width="1"/>
      <path id="Layer1_0_1_STROKES" stroke="#FFF" stroke-width="1" stroke-linejoin="round" stroke-linecap="round" fill="none" d="M72.54,367.265 Q62.589,365.285 58.132,366.59 50.186,364.175 39.337,364.4 27.486,357.635 3.025,360.74 -9.413,354.11 -29.901,352.325 -35.395,351.65 -48.938,352.61 -93.58,336.461 -144.227,348.845 -158.035,326.071 -239.481,331.205 -276.83,304.91 -376.196,301.895 L-376.196,417.485 Q-346.607,436.702 -293.483,421.22 -221.619,422.59 -213.776,402.755 -151.275,409.851 -111.335,394.25 -79.895,397.85 -63.311,382.955 -54.708,387.575 -34.876,384.215 -18.396,383.255 -8.653,378.635 -2.33,384.02 13.252,379.025 L31.84,375.11 Q35.848,379.085 48.286,375.83 L61.449,373.625 80.97,373.265 Q80.97,372.77 81.281,371.66 L81.557,370.64 81.557,369.26 74.82,369.86 Q73.542,367.46 72.54,367.265Z" test="Smoke_22" vector-effect="non-scaling-stroke"/>
    </g>
    <g id="MotorBikePinkf0r1">
      <path fill="#000" stroke="none" d="M84.854,341.311 Q85.156,347.049 88.961,350.552 92.766,354.055 119.04,360.941 145.314,367.766 163.676,364.263 164.038,361.182 164.34,357.558 L164.582,354.538 Q164.659,354.55 164.703,354.538 L164.763,353.934 133.053,348.559 Q123.812,346.566 108.35,339.076 99.048,334.667 89.263,329.05 89.082,329.956 87.21,332.251 85.398,334.486 85.337,334.848 84.733,339.559 84.854,341.311 M254.397,380.692 L253.612,379.665 245.458,385.946 257.719,395.61 259.591,398.51 Q264.937,395.179 268.53,392.892 L267.262,391.02 254.397,380.692 M222.868,338.351 Q221.237,342.821 203.842,337.928 L205.05,343.727 Q213.325,350.854 228.304,347.049 L229.633,337.566 224.801,331.707 Q224.318,331.647 223.895,331.586 L222.868,338.351 M203.842,337.928 Q221.237,342.821 222.868,338.351 L223.895,331.586 Q213.687,330.862 203.178,330.318 180.528,329.231 178.474,330.499 176.3,331.707 175.394,334.727 174.971,336.237 174.548,340.224 174.246,342.942 172.132,348.438 169.897,353.995 168.689,354.78 168.276,355.076 164.703,354.538 164.659,354.55 164.582,354.538 L164.34,357.558 Q164.038,361.182 163.676,364.263 145.314,367.766 119.04,360.941 92.766,354.055 88.961,350.552 85.156,347.049 84.854,341.311 84.733,339.559 85.337,334.848 85.398,334.486 87.21,332.251 89.082,329.956 89.263,329.05 89.293,328.932 89.263,328.808 89.371,327.46 85.156,328.808 79.176,330.62 56.889,334.486 45.715,336.358 35.749,337.928 34.964,352.062 34.541,352.062 34.118,352.062 54.05,359.491 72.653,367.162 72.955,367.283 89.505,374.712 93.431,379.423 96.692,383.349 99.35,386.852 99.652,387.275 100.014,387.698 101.648,389.888 103.034,391.866 103.117,392.013 103.155,392.107 103.675,392.824 104.122,393.496 107.383,398.389 109.618,402.919 110.282,404.187 110.826,405.456 112.094,408.294 112.94,410.952 116.685,422.972 118.738,444.534 118.738,444.863 127.013,444.836 127.089,444.867 127.134,444.836 138.663,444.834 165.85,444.172 167.813,444.126 169.776,444.051 191.314,443.567 212.902,442.904 212.479,440.306 212.66,436.32 212.962,428.347 215.801,421.341 218.821,413.912 226.975,404.187 232.592,397.543 238.632,391.866 238.814,391.624 239.055,391.443 241.35,389.329 245.458,385.946 L253.612,379.665 257.719,376.524 Q247.63,362.395 241.29,353.572 241.291,353.556 241.23,353.512 232.8,341.761 231.143,339.62 L229.935,337.989 229.633,337.566 228.304,347.049 Q213.325,350.854 205.05,343.727 L203.842,337.928 M155.039,399.174 Q164.703,404.248 168.327,411.737 171.89,419.166 171.166,429.193 170.803,434.206 169.776,437.951 L127.436,437.528 127.194,441.394 Q126.832,442.42 126.59,428.408 126.349,414.395 117.712,399.234 115.054,394.523 111.853,390.235 L109.497,387.336 115.658,389.57 Q125.201,392.228 135.288,393.194 145.314,394.1 155.039,399.174 M168.327,411.737 Q164.703,404.248 155.039,399.174 145.314,394.1 135.288,393.194 125.201,392.228 115.658,389.57 L109.497,387.336 111.853,390.235 Q115.054,394.523 117.712,399.234 126.349,414.395 126.59,428.408 126.832,442.42 127.194,441.394 L127.436,437.528 169.776,437.951 Q170.803,434.206 171.166,429.193 171.89,419.166 168.327,411.737 M254.638,319.748 Q234.404,303.682 225.767,301.024 219.063,298.97 216.828,301.084 216.284,301.628 215.137,303.5 214.05,305.373 212.902,306.4 213.204,311.352 215.499,314.372 217.19,316.547 223.714,323.01 224.599,323.922 228.606,328.868 228.67,328.911 228.666,328.929 234.326,335.801 245.941,350.31 262.974,371.632 265.631,372.356 270.101,373.625 278.194,372.84 287.436,371.994 288.825,368.612 290.274,365.108 288.462,360.337 287.134,356.773 280.973,345.841 275.658,336.418 254.638,319.748Z" test="RedBike container" stroke-width="1.208"/>
      <path id="Layer3_0_1_STROKES" stroke="#0FF" stroke-width="1.208" stroke-linejoin="round" stroke-linecap="round" fill="none" d="M212.902,306.4 Q214.05,305.373 215.137,303.5 216.284,301.628 216.828,301.084 219.063,298.97 225.767,301.024 234.404,303.682 254.638,319.748 275.658,336.418 280.973,345.841 287.134,356.773 288.462,360.337 290.274,365.108 288.825,368.612 287.436,371.994 278.194,372.84 270.101,373.625 265.631,372.356 262.974,371.632 245.941,350.31 234.326,335.801 228.697,328.959 228.67,328.911 228.636,328.868 224.599,323.922 223.714,323.01 217.19,316.547 215.499,314.372 213.204,311.352 212.902,306.4Z" test="RedBike container"/>
      <path id="Layer3_0_2_STROKES" stroke="#FFF" stroke-width="1.208" stroke-linejoin="round" stroke-linecap="round" fill="none" d="M229.633,337.566 L228.304,347.049 Q213.325,350.854 205.05,343.727 L203.842,337.928 Q221.237,342.821 222.868,338.351 L223.895,331.586 M229.935,337.989 L229.633,337.566 224.801,331.707 M223.895,331.586 L224.136,330.862 224.801,331.707 M267.262,391.02 L254.397,380.692 M245.458,385.946 L257.719,395.61" test="RedBike container"/>
      <path id="Layer3_0_3_STROKES" stroke="#FF0265" stroke-width="1.208" stroke-linejoin="round" stroke-linecap="round" fill="none" d="M223.895,331.586 Q213.687,330.862 203.178,330.318 180.528,329.231 178.474,330.499 176.3,331.707 175.394,334.727 174.971,336.237 174.548,340.224 174.246,342.942 172.132,348.438 169.897,353.995 168.689,354.78 168.276,355.076 164.733,354.569 164.659,354.55 164.582,354.538 L164.34,357.558 Q164.038,361.182 163.676,364.263 145.314,367.766 119.04,360.941 92.766,354.055 88.961,350.552 85.156,347.049 84.854,341.311 84.733,339.559 85.337,334.848 85.398,334.486 87.21,332.251 89.082,329.956 89.263,329.05 89.293,328.932 89.293,328.838 89.371,327.46 85.156,328.808 79.176,330.62 56.889,334.486 45.715,336.358 35.749,337.928 34.964,352.062 34.541,352.062 34.118,352.062 54.05,359.491 72.653,367.162 72.955,367.283 89.505,374.712 93.431,379.423 96.692,383.349 99.35,386.852 99.652,387.275 100.014,387.698 101.648,389.888 103.034,391.896 103.117,392.013 103.185,392.137 103.675,392.824 104.122,393.496 107.383,398.389 109.618,402.919 110.282,404.187 110.826,405.456 112.094,408.294 112.94,410.952 116.685,422.972 118.738,444.534 118.738,444.863 127.013,444.867 127.089,444.867 127.164,444.867 138.663,444.834 165.85,444.172 167.813,444.126 169.776,444.081 191.314,443.567 212.902,442.904 212.479,440.306 212.66,436.32 212.962,428.347 215.801,421.341 218.821,413.912 226.975,404.187 232.592,397.543 238.632,391.866 238.814,391.624 239.055,391.443 241.35,389.329 245.458,385.946 L253.612,379.665 257.719,376.524 Q247.63,362.395 241.32,353.602 241.291,353.556 241.26,353.512 232.8,341.761 231.143,339.62 L229.935,337.989 M223.895,331.586 Q224.318,331.647 224.801,331.707 225.042,331.707 225.344,331.707 L229.633,337.566 M89.263,329.05 Q99.048,334.667 108.35,339.076 123.812,346.566 133.053,348.559 L164.763,353.934 M111.853,390.235 Q115.054,394.523 117.712,399.234 126.349,414.395 126.59,428.408 126.832,442.42 127.194,441.394 L127.436,437.528 169.776,437.951 Q170.803,434.206 171.166,429.193 171.89,419.166 168.327,411.737 164.703,404.248 155.039,399.174 145.314,394.1 135.288,393.194 125.201,392.228 115.658,389.57 L109.527,387.336 111.853,390.235Z" test="RedBike container"/>
      <use xlink:href="#Bike-Wheel" transform="matrix(1.208 0 0 1.208 289.3 429.3)"/>
      <use xlink:href="#Bike-Wheel" transform="matrix(1.208 0 0 1.208 60.3 433.9)"/>
    </g>
  </g>
</svg>