<?xml version="1.0" encoding="utf-8"?>
<svg id="EdithAnim11" image-rendering="inherit" baseProfile="basic" version="1.1" x="0px" y="0px" width="800" height="600" xmlns="http://www.w3.org/2000/svg" xmlns:xlink="http://www.w3.org/1999/xlink">
  <defs>
    <g id="Bike-Wheel" overflow="visible">
      <path id="Layer5_0_1_STROKES" stroke="#FFF" stroke-width="1" stroke-linejoin="round" stroke-linecap="round" fill="none" d="M2.05 -34.85Q-12.35 -34.85 -22.65 -26.45 -34 -17.2 -34.7 -1.55 -35.4 14.3 -26.6 24.6 -18.4 34.2 -5.6 34.85 7.15 35.5 19.2 29.8 31.25 24.1 34.05 7.25 36.85 -9.65 28.9 -21.15 19.4 -34.85 2.05 -34.85Z" test="Bike Wheel"/>
      <path id="Layer4_0_1_STROKES" stroke="#FFF" stroke-width="1" stroke-linejoin="round" stroke-linecap="round" fill="none" d="M.55 -26.55Q4.65 -26.85 7.1 -26.15 9.75 -25.4 12 -23.15 13.95 -21.25 8 -15.35 5.3 -12.6 2.25 -10.2 1.95 -10 1.7 -9.8M24.45 -8.9Q26.2 -5.15 26.45 -2.65 26.7 .1 25.4 3.05 24.35 5.5 16.7 2.1 13.2 .6 9.85 -1.4 9.5 -1.6 9.25 -1.75M18.45 20Q15.75 23.1 13.55 24.35 11.2 25.75 8 25.75 5.3 25.75 5.25 17.4 5.2 13.55 5.65 9.7 5.7 9.35 5.75 9M-25.15 -7.15Q-24.25 -11.2 -22.85 -13.3 -21.4 -15.6 -18.6 -17.1 -16.2 -18.45 -12.25 -11.05 -10.4 -7.65 -9 -4.1 -8.9 -3.7 -8.75 -3.4M-12.85 23.8Q-16.75 22.4 -18.7 20.8 -20.85 19.05 -22.05 16.1 -23.1 13.6 -15.3 10.55 -11.75 9.05 -8 8.05 -7.65 8 -7.3 7.95" test="Bike Wheel"/>
    </g>
  </defs>
  <g id="19_Motorbikesf78r1" overflow="visible">
    <g id="Smokef4r1">
      <path fill="#000" stroke="none" d="M395.189,141.247 Q368.336,58.073 215.576,76.678 144.502,-19.356 -42.026,-30.437 -42.026,233.108 -42.026,496.654 13.45,567.311 112.824,511.291 247.012,516.832 262.127,445.012 378.948,471.414 453.881,415.052 512.654,428.459 543.849,374.423 560.009,391.386 597.154,379.279 627.947,375.928 646.278,359.17 658.178,378.937 687.363,360.88 704.729,353.834 722.176,346.789 729.734,361.358 752.969,349.525 759.16,347.61 765.351,345.626 781.913,354.724 806.194,341.728 825.892,341.522 837.711,336.256 848.645,331.946 852.585,323.123 886.916,329.416 910.794,315.052 928.402,318.198 939.015,304.518 944.562,308.69 955.336,305.544 964.421,304.586 970.371,300.346 974.552,305.202 983.074,300.619 988.38,298.772 993.687,296.926 996.501,300.482 1003.254,297.473 1007.033,296.447 1010.812,295.421 1016.36,295.216 1021.827,295.01 1021.827,292.753 1022.55,287.692 1022.872,285.366 1023.194,283.04 1023.194,279.894 1023.194,276.748 1021.344,277.09 1019.415,277.432 1018.53,275.243 1017.726,275.174 1012.34,273.533 1009.526,274.832 1004.782,272.849 998.752,273.191 991.114,267.377 977.687,270.523 970.612,265.325 960.482,263.82 959.597,263.546 958.713,263.273 955.899,261.7 949.306,261.7 929.045,241.932 907.016,248.498 903.478,249.182 899.94,250.277 887.157,227.158 844.223,230.988 819.782,208.006 776.205,206.432 761.25,197.609 740.829,198.361 718.397,173.669 672.489,184.955 648.932,160.741 610.42,154.175 599.968,151.712 574.562,155.132 490.463,96.103 395.189,141.247Z" test="Smoke_1" stroke-width="1.488"/>
      <path id="Layer2_0_1_STROKES" stroke="#FFF" stroke-width="1.488" stroke-linejoin="round" stroke-linecap="round" fill="none" d="M1021.827,295.01 Q1016.36,295.216 1010.812,295.421 1007.033,296.447 1003.254,297.473 996.501,300.482 993.687,296.926 988.38,298.772 983.074,300.619 974.552,305.202 970.371,300.346 964.421,304.586 955.336,305.544 944.562,308.69 939.015,304.518 928.402,318.198 910.794,315.052 886.916,329.416 852.585,323.123 848.645,331.946 837.711,336.256 825.892,341.522 806.194,341.728 781.913,354.724 765.351,345.626 759.16,347.61 752.969,349.525 729.734,361.358 722.176,346.789 704.729,353.834 687.363,360.88 658.178,378.937 646.278,359.17 627.947,375.928 597.154,379.279 560.009,391.386 543.849,374.423 512.654,428.459 453.881,415.052 378.948,471.414 262.127,445.012 247.012,516.832 112.824,511.291 13.45,567.311 -42.026,496.654 -42.026,233.108 -42.026,-30.437 144.502,-19.356 215.576,76.678 368.336,58.073 395.189,141.247 490.463,96.103 574.562,155.132 599.968,151.712 610.42,154.175 648.932,160.741 672.489,184.955 718.397,173.669 740.829,198.361 761.25,197.609 776.205,206.432 819.782,208.006 844.223,230.988 887.157,227.158 899.94,250.277 903.478,249.182 907.016,248.498 929.045,241.932 949.306,261.7 955.899,261.7 958.713,263.273 959.597,263.546 960.482,263.82 970.612,265.325 977.687,270.523 991.114,267.377 998.752,273.191 1004.782,272.849 1009.526,274.832 1012.34,273.533 1017.726,275.174 1018.53,275.243 1019.415,277.432 1021.344,277.09 1023.194,276.748 1023.194,279.894 1023.194,283.04 1022.872,285.366 1022.55,287.692 1021.827,292.753 1021.827,295.01Z" test="Smoke_1"/>
    </g>
    <g id="Smokef1r1">
      <path fill="#000" stroke="none" d="M-145.467,345.631 Q-159.003,322.904 -238.034,328.023 -274.412,301.783 -370.891,298.775 -370.891,359.46 -370.891,420.144 -342.198,439.343 -290.627,423.924 -220.938,425.326 -213.288,405.576 -152.623,412.679 -113.883,397.149 -83.357,400.756 -67.248,385.92 -58.893,390.534 -39.647,387.179 -23.679,386.234 -14.196,381.636 -8.063,387.022 7.059,382.045 16.083,380.108 25.107,378.139 28.985,382.108 41.04,378.879 44.283,378.344 47.456,377.777 50.769,378.045 54.894,377.037 58.101,376.847 60.428,376.375 62.472,376.107 63.777,375.588 69.734,375.918 74.493,375.052 77.665,375.21 80.027,374.406 81.296,374.627 83.058,374.438 84.645,374.375 85.878,374.123 86.865,374.391 88.346,374.107 89.298,373.981 90.285,373.871 90.99,374.06 92.118,373.871 92.823,373.823 93.528,373.761 94.55,373.745 95.537,373.713 95.537,373.194 95.854,372.028 95.995,371.492 96.136,370.957 96.136,370.232 96.136,369.508 95.784,369.54 95.466,369.571 95.22,369.461 95.008,369.461 94.127,369.398 93.492,369.524 92.576,369.429 91.483,369.492 89.791,369.225 87.465,369.477 85.949,369.256 84.116,369.24 83.975,369.193 83.869,369.162 83.481,368.847 82.635,368.657 79.569,366.059 76.502,366.311 75.832,366.295 75.127,366.295 71.144,364.452 64.341,364.484 57.996,362.83 51.157,363.35 43.402,360.94 32.898,361.176 21.336,354.42 -2.388,357.506 -14.478,350.891 -34.395,349.112 -39.753,348.434 -52.901,349.395 -96.258,333.283 -145.467,345.631Z" test="Smoke_22" vector-effect="non-scaling-stroke" stroke-width="1"/>
      <path id="Layer1_0_1_STROKES" stroke="#FFF" stroke-width="1" stroke-linejoin="round" stroke-linecap="round" fill="none" d="M95.537,373.713 Q94.55,373.745 93.528,373.761 92.823,373.823 92.118,373.871 90.99,374.06 90.285,373.871 89.298,373.981 88.346,374.107 86.865,374.391 85.878,374.123 84.645,374.375 83.058,374.438 81.296,374.627 80.027,374.406 77.665,375.21 74.493,375.052 69.734,375.918 63.777,375.588 62.472,376.107 60.428,376.375 58.101,376.847 54.894,377.037 50.769,378.045 47.456,377.777 44.283,378.344 41.04,378.879 28.985,382.108 25.107,378.139 16.083,380.108 7.059,382.045 -8.063,387.022 -14.196,381.636 -23.679,386.234 -39.647,387.179 -58.893,390.534 -67.248,385.92 -83.357,400.756 -113.883,397.149 -152.623,412.679 -213.288,405.576 -220.938,425.326 -290.627,423.924 -342.198,439.343 -370.891,420.144 -370.891,359.46 -370.891,298.775 -274.412,301.783 -238.034,328.023 -159.003,322.904 -145.467,345.631 -96.258,333.283 -52.901,349.395 -39.753,348.434 -34.395,349.112 -14.478,350.891 -2.388,357.506 21.336,354.42 32.898,361.176 43.402,360.94 51.157,363.35 57.996,362.83 64.341,364.484 71.144,364.452 75.127,366.295 75.832,366.295 76.502,366.311 79.569,366.059 82.635,368.657 83.481,368.847 83.869,369.162 83.975,369.193 84.116,369.24 85.949,369.256 87.465,369.477 89.791,369.225 91.483,369.492 92.576,369.429 93.492,369.524 94.127,369.398 95.008,369.461 95.22,369.461 95.466,369.571 95.784,369.54 96.136,369.508 96.136,370.232 96.136,370.957 95.995,371.492 95.854,372.028 95.537,373.194 95.537,373.713Z" test="Smoke_22" vector-effect="non-scaling-stroke"/>
    </g>
    <g id="MotorBikePinkf1r1">
      <g id="RedBike-container">
        <path fill="#000" stroke="none" d="M91.068,339.327 Q91.868,345.015 95.962,348.173 100.056,351.33 126.819,355.904 153.578,360.417 171.559,355.332 171.652,352.233 171.638,348.598 L171.616,345.569 Q171.694,345.575 171.736,345.559 L171.744,344.952 139.698,342.355 Q130.322,341.173 114.272,335.059 104.626,331.476 94.393,326.733 94.292,327.651 92.627,330.099 91.016,332.482 90.988,332.849 90.796,337.593 91.068,339.327 M263.332,363.808 L262.461,362.853 254.887,369.818 267.937,378.376 270.054,381.1 Q275.088,377.319 278.468,374.729 L277.042,372.975 263.332,363.808 M228.254,324.383 Q227.018,328.976 209.27,325.616 L210.977,331.285 Q219.837,337.664 234.423,332.572 L234.922,323.013 229.601,317.598 Q229.115,317.58 228.688,317.557 L228.254,324.383 M209.27,325.616 Q227.018,328.976 228.254,324.383 L228.688,317.557 Q218.46,317.722 207.947,318.095 185.296,318.981 183.361,320.422 181.301,321.814 180.661,324.9 180.371,326.441 180.297,330.448 180.232,333.181 178.605,338.838 176.862,344.566 175.727,345.453 175.341,345.784 171.736,345.559 171.694,345.575 171.616,345.569 L171.638,348.598 Q171.652,352.233 171.559,355.332 153.578,360.417 126.819,355.904 100.056,351.33 95.962,348.173 91.868,345.015 91.068,339.327 90.796,337.593 90.988,332.849 91.016,332.482 92.627,330.099 94.292,327.651 94.393,326.733 94.413,326.614 94.372,326.492 94.362,325.14 90.282,326.849 84.485,329.174 62.626,334.96 51.661,337.796 41.872,340.226 42.319,354.37 41.898,354.407 41.477,354.443 61.972,360.109 81.165,366.131 81.476,366.225 98.603,372.185 102.922,376.536 106.512,380.162 109.463,383.42 109.8,383.814 110.198,384.204 112.015,386.243 113.568,388.092 113.662,388.231 113.709,388.322 114.289,388.99 114.792,389.621 118.465,394.21 121.085,398.527 121.857,399.732 122.508,400.948 124.018,403.665 125.091,406.238 129.865,417.883 133.785,439.178 133.813,439.505 142.051,438.759 142.13,438.783 142.172,438.749 153.653,437.744 180.67,434.722 182.621,434.505 184.569,434.26 205.976,431.906 227.417,429.369 226.77,426.819 226.604,422.834 226.212,414.867 228.43,407.643 230.791,399.982 238.066,389.589 243.083,382.485 248.604,376.306 248.764,376.049 248.989,375.848 251.091,373.543 254.887,369.818 L262.461,362.853 266.278,359.369 Q255.003,346.175 247.923,337.94 247.922,337.924 247.857,337.885 238.441,326.916 236.605,324.927 L235.26,323.408 234.922,323.013 234.423,332.572 Q219.837,337.664 210.977,331.285 L209.27,325.616 M165.992,390.85 Q176.057,395.062 180.317,402.206 184.512,409.295 184.661,419.343 184.736,424.367 184.039,428.185 L141.837,431.444 141.933,435.315 Q141.661,436.369 140.202,422.435 138.744,408.501 128.825,394.154 125.768,389.694 122.208,385.701 L119.61,383.019 125.94,384.709 Q135.674,386.526 145.803,386.612 155.867,386.642 165.992,390.85 M180.317,402.206 Q176.057,395.062 165.992,390.85 155.867,386.642 145.803,386.612 135.674,386.526 125.94,384.709 L119.61,383.019 122.208,385.701 Q125.768,389.694 128.825,394.154 138.744,408.501 140.202,422.435 141.661,436.369 141.933,435.315 L141.837,431.444 184.039,428.185 Q184.736,424.367 184.661,419.343 184.512,409.295 180.317,402.206 M258.276,303.095 Q236.729,288.854 227.896,286.958 221.041,285.496 219,287.795 218.505,288.384 217.525,290.348 216.605,292.308 215.552,293.43 216.283,298.336 218.831,301.144 220.704,303.162 227.762,309.031 228.723,309.863 233.144,314.441 233.211,314.477 233.209,314.496 239.443,320.847 252.271,334.287 271.086,354.04 273.796,354.53 278.357,355.405 286.349,353.92 295.478,352.274 296.568,348.785 297.707,345.17 295.488,340.576 293.855,337.143 286.769,326.791 280.657,317.87 258.276,303.095Z" test="RedBike container" stroke-width="1.208"/>
        <path id="Layer3_0_1_STROKES" stroke="#0FF" stroke-width="1.208" stroke-linejoin="round" stroke-linecap="round" fill="none" d="M215.552,293.43 Q216.605,292.308 217.525,290.348 218.505,288.384 219,287.795 221.041,285.496 227.896,286.958 236.729,288.854 258.276,303.095 280.657,317.87 286.769,326.791 293.855,337.143 295.488,340.576 297.707,345.17 296.568,348.785 295.478,352.274 286.349,353.92 278.357,355.405 273.796,354.53 271.086,354.04 252.271,334.287 239.443,320.847 233.242,314.523 233.211,314.477 233.174,314.438 228.723,309.863 227.762,309.031 220.704,303.162 218.831,301.144 216.283,298.336 215.552,293.43Z" test="RedBike container"/>
        <path id="Layer3_0_2_STROKES" stroke="#FFF" stroke-width="1.208" stroke-linejoin="round" stroke-linecap="round" fill="none" d="M234.922,323.013 L234.423,332.572 Q219.837,337.664 210.977,331.285 L209.27,325.616 Q227.018,328.976 228.254,324.383 L228.688,317.557 M235.26,323.408 L234.922,323.013 229.601,317.598 M228.688,317.557 L228.866,316.814 229.601,317.598 M277.042,372.975 L263.332,363.808 M254.887,369.818 L267.937,378.376" test="RedBike container"/>
        <path id="Layer3_0_3_STROKES" stroke="#FF0265" stroke-width="1.208" stroke-linejoin="round" stroke-linecap="round" fill="none" d="M228.688,317.557 Q218.46,317.722 207.947,318.095 185.296,318.981 183.361,320.422 181.301,321.814 180.661,324.9 180.371,326.441 180.297,330.448 180.232,333.181 178.605,338.838 176.862,344.566 175.727,345.453 175.341,345.784 171.769,345.586 171.694,345.575 171.616,345.569 L171.638,348.598 Q171.652,352.233 171.559,355.332 153.578,360.417 126.819,355.904 100.056,351.33 95.962,348.173 91.868,345.015 91.068,339.327 90.796,337.593 90.988,332.849 91.016,332.482 92.627,330.099 94.292,327.651 94.393,326.733 94.413,326.614 94.405,326.52 94.362,325.14 90.282,326.849 84.485,329.174 62.626,334.96 51.661,337.796 41.872,340.226 42.319,354.37 41.898,354.407 41.477,354.443 61.972,360.109 81.165,366.131 81.476,366.225 98.603,372.185 102.922,376.536 106.512,380.162 109.463,383.42 109.8,383.814 110.198,384.204 112.015,386.243 113.57,388.122 113.662,388.231 113.742,388.349 114.289,388.99 114.792,389.621 118.465,394.21 121.085,398.527 121.857,399.732 122.508,400.948 124.018,403.665 125.091,406.238 129.865,417.883 133.785,439.178 133.813,439.505 142.054,438.789 142.13,438.783 142.204,438.776 153.653,437.744 180.67,434.722 182.621,434.505 184.572,434.29 205.976,431.906 227.417,429.369 226.77,426.819 226.604,422.834 226.212,414.867 228.43,407.643 230.791,399.982 238.066,389.589 243.083,382.485 248.604,376.306 248.764,376.049 248.989,375.848 251.091,373.543 254.887,369.818 L262.461,362.853 266.278,359.369 Q255.003,346.175 247.955,337.967 247.922,337.924 247.887,337.882 238.441,326.916 236.605,324.927 L235.26,323.408 M228.688,317.557 Q229.115,317.58 229.601,317.598 229.842,317.577 230.142,317.551 L234.922,323.013 M94.393,326.733 Q104.626,331.476 114.272,335.059 130.322,341.173 139.698,342.355 L171.744,344.952 M122.208,385.701 Q125.768,389.694 128.825,394.154 138.744,408.501 140.202,422.435 141.661,436.369 141.933,435.315 L141.837,431.444 184.039,428.185 Q184.736,424.367 184.661,419.343 184.512,409.295 180.317,402.206 176.057,395.062 165.992,390.85 155.867,386.642 145.803,386.612 135.674,386.526 125.94,384.709 L119.64,383.016 122.208,385.701Z" test="RedBike container"/>
        <use xlink:href="#Bike-Wheel" transform="matrix(1.203 -.105 .105 1.203 302.3 409.15)"/>
        <use xlink:href="#Bike-Wheel" transform="matrix(1.203 -.105 .105 1.203 74.65 433.65)"/>
      </g>
    </g>
  </g>
</svg>