<?xml version="1.0" encoding="utf-8"?>
<svg id="EdithAnim11" image-rendering="inherit" baseProfile="basic" version="1.1" x="0px" y="0px" width="800" height="600" xmlns="http://www.w3.org/2000/svg" xmlns:xlink="http://www.w3.org/1999/xlink">
  <defs>
    <g id="Bike-Wheel" overflow="visible">
      <path id="Layer5_0_1_STROKES" stroke="#FFF" stroke-width="1" stroke-linejoin="round" stroke-linecap="round" fill="none" d="M2.05 -34.85Q-12.35 -34.85 -22.65 -26.45 -34 -17.2 -34.7 -1.55 -35.4 14.3 -26.6 24.6 -18.4 34.2 -5.6 34.85 7.15 35.5 19.2 29.8 31.25 24.1 34.05 7.25 36.85 -9.65 28.9 -21.15 19.4 -34.85 2.05 -34.85Z" test="Bike Wheel"/>
      <path id="Layer4_0_1_STROKES" stroke="#FFF" stroke-width="1" stroke-linejoin="round" stroke-linecap="round" fill="none" d="M.55 -26.55Q4.65 -26.85 7.1 -26.15 9.75 -25.4 12 -23.15 13.95 -21.25 8 -15.35 5.3 -12.6 2.25 -10.2 1.95 -10 1.7 -9.8M24.45 -8.9Q26.2 -5.15 26.45 -2.65 26.7 .1 25.4 3.05 24.35 5.5 16.7 2.1 13.2 .6 9.85 -1.4 9.5 -1.6 9.25 -1.75M18.45 20Q15.75 23.1 13.55 24.35 11.2 25.75 8 25.75 5.3 25.75 5.25 17.4 5.2 13.55 5.65 9.7 5.7 9.35 5.75 9M-25.15 -7.15Q-24.25 -11.2 -22.85 -13.3 -21.4 -15.6 -18.6 -17.1 -16.2 -18.45 -12.25 -11.05 -10.4 -7.65 -9 -4.1 -8.9 -3.7 -8.75 -3.4M-12.85 23.8Q-16.75 22.4 -18.7 20.8 -20.85 19.05 -22.05 16.1 -23.1 13.6 -15.3 10.55 -11.75 9.05 -8 8.05 -7.65 8 -7.3 7.95" test="Bike Wheel"/>
    </g>
  </defs>
  <g id="19_Motorbikesf79r1" overflow="visible">
    <g id="Smokef5r1">
      <path fill="#000" stroke="none" d="M386.067,122.444 Q359.55,39.224 210.151,57.839 140.387,-38.302 -42.137,-49.471 -42.137,231.798 -42.137,513.067 12.152,583.95 109.186,528.105 240.265,533.799 255.071,462.04 369.253,488.685 442.447,432.475 499.915,445.98 530.447,391.96 546.257,409.042 582.477,396.924 612.675,393.639 630.576,376.922 642.203,396.778 670.728,378.674 687.709,371.739 704.774,364.658 712.135,379.258 734.888,367.505 740.91,365.607 746.933,363.563 767.344,376.119 797.709,359.183 822.469,359.183 837.024,352.467 850.659,346.773 855.009,334.947 898.005,343.415 927.283,324.289 949.199,328.523 962.165,310.346 968.857,315.894 982.324,311.733 993.701,310.492 1000.978,304.871 1005.997,311.368 1016.704,305.236 1023.313,302.754 1029.838,300.345 1033.184,305.09 1041.716,301.075 1046.4,299.761 1051.001,298.447 1057.86,298.155 1064.72,297.863 1064.72,295.454 1065.472,290.052 1065.807,287.57 1066.142,285.088 1066.142,281.73 1066.142,278.372 1063.799,278.81 1061.457,279.248 1060.37,276.328 1059.45,276.182 1052.758,273.919 1049.244,275.671 1043.472,272.897 1035.86,273.335 1026.742,265.451 1009.929,269.539 1001.313,262.531 988.682,260.414 987.511,260.049 986.423,259.757 982.826,257.932 974.378,258.224 948.613,234.207 920.507,243.113 916.157,244.135 911.724,245.741 897.252,215.665 842.963,220.994 814.104,190.918 759.146,187.779 744.507,178.946 724.515,179.749 702.515,155.002 657.595,166.317 634.508,142.008 596.781,135.438 586.576,132.956 561.732,136.46 479.337,77.33 386.067,122.444Z" test="Smoke_1" stroke-width="1.566"/>
      <path id="Layer2_0_1_STROKES" stroke="#FFF" stroke-width="1.566" stroke-linejoin="round" stroke-linecap="round" fill="none" d="M1064.72,297.863 Q1057.86,298.155 1051.001,298.447 1046.4,299.761 1041.716,301.075 1033.184,305.09 1029.838,300.345 1023.313,302.754 1016.704,305.236 1005.997,311.368 1000.978,304.871 993.701,310.492 982.324,311.733 968.857,315.894 962.165,310.346 949.199,328.523 927.283,324.289 898.005,343.415 855.009,334.947 850.659,346.773 837.024,352.467 822.469,359.183 797.709,359.183 767.344,376.119 746.933,363.563 740.91,365.607 734.888,367.505 712.135,379.258 704.774,364.658 687.709,371.739 670.728,378.674 642.203,396.778 630.576,376.922 612.675,393.639 582.477,396.924 546.257,409.042 530.447,391.96 499.915,445.98 442.447,432.475 369.253,488.685 255.071,462.04 240.265,533.799 109.186,528.105 12.152,583.95 -42.137,513.067 -42.137,231.798 -42.137,-49.471 140.387,-38.302 210.151,57.839 359.55,39.224 386.067,122.444 479.337,77.33 561.732,136.46 586.576,132.956 596.781,135.438 634.508,142.008 657.595,166.317 702.515,155.002 724.515,179.749 744.507,178.946 759.146,187.779 814.104,190.918 842.963,220.994 897.252,215.665 911.724,245.741 916.157,244.135 920.507,243.113 948.613,234.207 974.378,258.224 982.826,257.932 986.423,259.757 987.511,260.049 988.682,260.414 1001.313,262.531 1009.929,269.539 1026.742,265.451 1035.86,273.335 1043.472,272.897 1049.244,275.671 1052.758,273.919 1059.45,276.182 1060.37,276.328 1061.457,279.248 1063.799,278.81 1066.142,278.372 1066.142,281.73 1066.142,285.088 1065.807,287.57 1065.472,290.052 1064.72,295.454 1064.72,297.863Z" test="Smoke_1"/>
    </g>
    <g id="Smokef2r1">
      <path fill="#000" stroke="none" d="M-143.652,341.692 Q-156.937,318.727 -233.971,323.884 -269.555,297.374 -363.603,294.316 -363.603,359.047 -363.603,423.777 -335.62,443.215 -285.411,427.675 -217.536,429.103 -210.043,409.178 -151,416.402 -113.208,400.744 -83.487,404.407 -67.777,389.421 -59.632,394.108 -40.916,390.732 -25.314,389.774 -16.119,385.137 -10.11,390.58 4.623,385.557 13.42,383.608 22.18,381.643 25.981,385.658 37.746,382.382 40.896,381.844 43.973,381.29 48.751,382.214 55.195,380.433 60.335,380.299 63.702,379.526 66.779,378.988 68.263,377.88 77.458,378.636 84.336,376.838 89.114,377.224 92.372,375.511 94.037,376.015 96.861,375.628 99.323,375.511 101.06,374.973 102.363,375.561 104.644,374.99 106.128,374.755 107.576,374.52 108.481,374.956 110.291,374.57 111.341,374.452 112.355,374.318 113.875,374.284 115.395,374.251 115.395,373.696 115.721,372.453 115.866,371.882 116.011,371.311 116.011,370.538 116.011,369.765 115.504,369.816 114.961,369.866 114.671,369.614 114.418,369.597 113.006,369.429 112.137,369.614 110.798,369.396 109.133,369.463 106.852,368.791 103.268,369.228 101.169,368.656 98.381,368.522 98.128,368.455 97.947,368.404 97.223,368.068 95.703,367.934 90.526,364.473 85.132,365.179 84.155,365.229 83.141,365.313 78.508,362.121 67.394,362.44 59.358,359.383 48.136,359.635 40.606,357.199 30.325,357.417 19.067,350.596 -4.101,353.721 -15.902,347.035 -35.305,345.22 -40.518,344.548 -53.333,345.506 -95.651,329.21 -143.652,341.692Z" test="Smoke_22" vector-effect="non-scaling-stroke" stroke-width="1"/>
      <path id="Layer1_0_1_STROKES" stroke="#FFF" stroke-width="1" stroke-linejoin="round" stroke-linecap="round" fill="none" d="M115.395,374.251 Q113.875,374.284 112.355,374.318 111.341,374.452 110.291,374.57 108.481,374.956 107.576,374.52 106.128,374.755 104.644,374.99 102.363,375.561 101.06,374.973 99.323,375.511 96.861,375.628 94.037,376.015 92.372,375.511 89.114,377.224 84.336,376.838 77.458,378.636 68.263,377.88 66.779,378.988 63.702,379.526 60.335,380.299 55.195,380.433 48.751,382.214 43.973,381.29 40.896,381.844 37.746,382.382 25.981,385.658 22.18,381.643 13.42,383.608 4.623,385.557 -10.11,390.58 -16.119,385.137 -25.314,389.774 -40.916,390.732 -59.632,394.108 -67.777,389.421 -83.487,404.407 -113.208,400.744 -151,416.402 -210.043,409.178 -217.536,429.103 -285.411,427.675 -335.62,443.215 -363.603,423.777 -363.603,359.047 -363.603,294.316 -269.555,297.374 -233.971,323.884 -156.937,318.727 -143.652,341.692 -95.651,329.21 -53.333,345.506 -40.518,344.548 -35.305,345.22 -15.902,347.035 -4.101,353.721 19.067,350.596 30.325,357.417 40.606,357.199 48.136,359.635 59.358,359.383 67.394,362.44 78.508,362.121 83.141,365.313 84.155,365.229 85.132,365.179 90.526,364.473 95.703,367.934 97.223,368.068 97.947,368.404 98.128,368.455 98.381,368.522 101.169,368.656 103.268,369.228 106.852,368.791 109.133,369.463 110.798,369.396 112.137,369.614 113.006,369.429 114.418,369.597 114.671,369.614 114.961,369.866 115.504,369.816 116.011,369.765 116.011,370.538 116.011,371.311 115.866,371.882 115.721,372.453 115.395,373.696 115.395,374.251Z" test="Smoke_22" vector-effect="non-scaling-stroke"/>
    </g>
    <g id="MotorBikePinkf2r1">
      <g id="RedBike-container">
        <path fill="#000" stroke="none" d="M101.603,338.24 Q102.898,343.835 107.252,346.622 111.606,349.409 138.664,351.618 165.711,353.769 183.175,347.129 182.996,344.034 182.664,340.414 L182.377,337.4 Q182.455,337.398 182.495,337.379 L182.45,336.774 150.304,336.995 Q140.862,336.64 124.341,331.956 114.419,329.233 103.811,325.405 103.791,326.329 102.347,328.913 100.952,331.428 100.955,331.795 101.18,336.537 101.603,338.24 M275.325,347.528 L274.374,346.654 267.44,354.254 281.188,361.635 283.535,364.163 Q288.218,359.955 291.357,357.08 L289.784,355.458 275.325,347.528 M236.932,311.335 Q236.104,316.017 218.132,314.226 L220.329,319.723 Q229.712,325.3 243.794,318.95 L243.454,309.386 237.679,304.459 Q237.193,304.484 236.766,304.498 L236.932,311.335 M218.132,314.226 Q236.104,316.017 236.932,311.335 L236.766,304.498 Q226.593,305.559 216.155,306.851 193.672,309.718 191.871,311.324 189.941,312.891 189.574,316.021 189.42,317.58 189.697,321.578 189.873,324.305 188.747,330.083 187.514,335.941 186.461,336.924 186.106,337.287 182.495,337.379 182.455,337.398 182.377,337.4 L182.664,340.414 Q182.996,344.034 183.175,347.129 165.711,353.769 138.664,351.618 111.606,349.409 107.252,346.622 102.898,343.835 101.603,338.24 101.18,336.537 100.955,331.795 100.952,331.428 102.347,328.913 103.791,326.329 103.811,325.405 103.821,325.285 103.769,325.168 103.641,323.822 99.727,325.882 94.156,328.705 72.891,336.384 62.218,340.169 52.682,343.447 54.366,357.495 53.95,357.569 53.534,357.642 74.444,361.49 94.088,365.806 94.406,365.872 111.987,370.308 116.67,374.262 120.563,377.559 123.788,380.545 124.159,380.909 124.589,381.262 126.577,383.134 128.286,384.839 128.392,384.97 128.447,385.056 129.083,385.671 129.64,386.255 133.7,390.504 136.688,394.574 137.562,395.707 138.318,396.861 140.059,399.435 141.354,401.904 147.129,413.083 152.899,433.95 152.956,434.273 161.096,432.808 161.176,432.825 161.215,432.787 172.562,430.781 199.207,425.403 201.131,425.017 203.05,424.602 224.165,420.381 245.298,415.975 244.43,413.492 243.916,409.537 242.827,401.637 244.403,394.247 246.084,386.41 252.419,375.421 256.793,367.905 261.751,361.267 261.888,360.998 262.094,360.777 263.985,358.297 267.44,354.254 L274.374,346.654 277.87,342.849 Q265.484,330.696 257.71,323.114 257.708,323.098 257.64,323.065 247.301,312.965 245.297,311.145 L243.824,309.749 243.454,309.386 243.794,318.95 Q229.712,325.3 220.329,319.723 L218.132,314.226 M180.743,382.992 Q191.137,386.306 196.006,393.048 200.805,399.741 201.835,409.735 202.349,414.733 201.99,418.597 L160.242,425.542 160.676,429.388 Q160.498,430.462 157.824,416.712 155.15,402.961 144.013,389.541 140.579,385.366 136.682,381.701 L133.86,379.257 140.312,380.386 Q150.167,381.343 160.263,380.54 170.289,379.689 180.743,382.992 M196.006,393.048 Q191.137,386.306 180.743,382.992 170.289,379.689 160.263,380.54 150.167,381.343 140.312,380.386 L133.86,379.257 136.682,381.701 Q140.579,385.366 144.013,389.541 155.15,402.961 157.824,416.712 160.498,430.462 160.676,429.388 L160.242,425.542 201.99,418.597 Q202.349,414.733 201.835,409.735 200.805,399.741 196.006,393.048 M264.968,287.501 Q242.26,275.205 233.296,274.091 226.34,273.235 224.508,275.704 224.068,276.334 223.264,278.376 222.519,280.408 221.568,281.618 222.726,286.44 225.51,289.014 227.553,290.86 235.097,296.087 236.127,296.831 240.931,301.003 241.001,301.034 241.001,301.052 247.766,306.833 261.721,319.095 282.192,337.12 284.934,337.371 289.554,337.842 297.383,335.663 306.332,333.224 307.112,329.653 307.929,325.953 305.316,321.571 303.389,318.295 295.425,308.605 288.555,300.255 264.968,287.501Z" test="RedBike container" stroke-width="1.207"/>
        <path id="Layer3_0_1_STROKES" stroke="#0FF" stroke-width="1.207" stroke-linejoin="round" stroke-linecap="round" fill="none" d="M221.568,281.618 Q222.519,280.408 223.264,278.376 224.068,276.334 224.508,275.704 226.34,273.235 233.296,274.091 242.26,275.205 264.968,287.501 288.555,300.255 295.425,308.605 303.389,318.295 305.316,321.571 307.929,325.953 307.112,329.653 306.332,333.224 297.383,335.663 289.554,337.842 284.934,337.371 282.192,337.12 261.721,319.095 247.766,306.833 241.036,301.077 241.001,301.034 240.961,300.998 236.127,296.831 235.097,296.087 227.553,290.86 225.51,289.014 222.726,286.44 221.568,281.618Z" test="RedBike container"/>
        <path id="Layer3_0_2_STROKES" stroke="#FFF" stroke-width="1.207" stroke-linejoin="round" stroke-linecap="round" fill="none" d="M243.454,309.386 L243.794,318.95 Q229.712,325.3 220.329,319.723 L218.132,314.226 Q236.104,316.017 236.932,311.335 L236.766,304.498 M243.824,309.749 L243.454,309.386 237.679,304.459 M236.766,304.498 L236.878,303.742 237.679,304.459 M289.784,355.458 L275.325,347.528 M267.44,354.254 L281.188,361.635" test="RedBike container"/>
        <path id="Layer3_0_3_STROKES" stroke="#FF0265" stroke-width="1.207" stroke-linejoin="round" stroke-linecap="round" fill="none" d="M236.766,304.498 Q226.593,305.559 216.155,306.851 193.672,309.718 191.871,311.324 189.941,312.891 189.574,316.021 189.42,317.58 189.697,321.578 189.873,324.305 188.747,330.083 187.514,335.941 186.461,336.924 186.106,337.287 182.53,337.403 182.455,337.398 182.377,337.4 L182.664,340.414 Q182.996,344.034 183.175,347.129 165.711,353.769 138.664,351.618 111.606,349.409 107.252,346.622 102.898,343.835 101.603,338.24 101.18,336.537 100.955,331.795 100.952,331.428 102.347,328.913 103.791,326.329 103.811,325.405 103.821,325.285 103.804,325.192 103.641,323.822 99.727,325.882 94.156,328.705 72.891,336.384 62.218,340.169 52.682,343.447 54.366,357.495 53.95,357.569 53.534,357.642 74.444,361.49 94.088,365.806 94.406,365.872 111.987,370.308 116.67,374.262 120.563,377.559 123.788,380.545 124.159,380.909 124.589,381.262 126.577,383.134 128.291,384.869 128.392,384.97 128.482,385.081 129.083,385.671 129.64,386.255 133.7,390.504 136.688,394.574 137.562,395.707 138.318,396.861 140.059,399.435 141.354,401.904 147.129,413.083 152.899,433.95 152.956,434.273 161.101,432.838 161.176,432.825 161.25,432.812 172.562,430.781 199.207,425.403 201.131,425.017 203.055,424.631 224.165,420.381 245.298,415.975 244.43,413.492 243.916,409.537 242.827,401.637 244.403,394.247 246.084,386.41 252.419,375.421 256.793,367.905 261.751,361.267 261.888,360.998 262.094,360.777 263.985,358.297 267.44,354.254 L274.374,346.654 277.87,342.849 Q265.484,330.696 257.745,323.138 257.708,323.098 257.67,323.059 247.301,312.965 245.297,311.145 L243.824,309.749 M236.766,304.498 Q237.193,304.484 237.679,304.459 237.917,304.417 238.214,304.365 L243.454,309.386 M103.811,325.405 Q114.419,329.233 124.341,331.956 140.862,336.64 150.304,336.995 L182.45,336.774 M136.682,381.701 Q140.579,385.366 144.013,389.541 155.15,402.961 157.824,416.712 160.498,430.462 160.676,429.388 L160.242,425.542 201.99,418.597 Q202.349,414.733 201.835,409.735 200.805,399.741 196.006,393.048 191.137,386.306 180.743,382.992 170.289,379.689 160.263,380.54 150.167,381.343 140.312,380.386 L133.889,379.252 136.682,381.701Z" test="RedBike container"/>
        <use xlink:href="#Bike-Wheel" transform="matrix(1.189 -.21 .21 1.189 318.1 389.3)"/>
        <use xlink:href="#Bike-Wheel" transform="matrix(1.189 -.21 .21 1.189 93.55 433.6)"/>
      </g>
    </g>
  </g>
</svg>