<?xml version="1.0" encoding="utf-8"?>
<svg id="EdithAnim11" image-rendering="inherit" baseProfile="basic" version="1.1" x="0px" y="0px" width="800" height="600" xmlns="http://www.w3.org/2000/svg" xmlns:xlink="http://www.w3.org/1999/xlink">
  <defs>
    <g id="Bike-Wheel" overflow="visible">
      <path id="Layer4_0_1_STROKES" stroke="#FFF" stroke-width="1" stroke-linejoin="round" stroke-linecap="round" fill="none" d="M2.05 -34.85Q-12.35 -34.85 -22.65 -26.45 -34 -17.2 -34.7 -1.55 -35.4 14.3 -26.6 24.6 -18.4 34.2 -5.6 34.85 7.15 35.5 19.2 29.8 31.25 24.1 34.05 7.25 36.85 -9.65 28.9 -21.15 19.4 -34.85 2.05 -34.85Z" test="Bike Wheel"/>
      <path id="Layer3_0_1_STROKES" stroke="#FFF" stroke-width="1" stroke-linejoin="round" stroke-linecap="round" fill="none" d="M.55 -26.55Q4.65 -26.85 7.1 -26.15 9.75 -25.4 12 -23.15 13.95 -21.25 8 -15.35 5.3 -12.6 2.25 -10.2 1.95 -10 1.7 -9.8M24.45 -8.9Q26.2 -5.15 26.45 -2.65 26.7 .1 25.4 3.05 24.35 5.5 16.7 2.1 13.2 .6 9.85 -1.4 9.5 -1.6 9.25 -1.75M18.45 20Q15.75 23.1 13.55 24.35 11.2 25.75 8 25.75 5.3 25.75 5.25 17.4 5.2 13.55 5.65 9.7 5.7 9.35 5.75 9M-25.15 -7.15Q-24.25 -11.2 -22.85 -13.3 -21.4 -15.6 -18.6 -17.1 -16.2 -18.45 -12.25 -11.05 -10.4 -7.65 -9 -4.1 -8.9 -3.7 -8.75 -3.4M-12.85 23.8Q-16.75 22.4 -18.7 20.8 -20.85 19.05 -22.05 16.1 -23.1 13.6 -15.3 10.55 -11.75 9.05 -8 8.05 -7.65 8 -7.3 7.95" test="Bike Wheel"/>
    </g>
  </defs>
  <g id="19_Motorbikesf8r1" overflow="visible">
    <g id="MotorBikeBluef0r1">
      <path fill="#000" stroke="none" d="M104.75,274.55 L104.1,273.7 97.35,278.9 107.5,286.9 109.05,289.3 Q113.475,286.543 116.45,284.65 L115.4,283.1 104.75,274.55 M78.65,239.5 Q77.3,243.2 62.9,239.15 L63.9,243.95 Q70.75,249.85 83.15,246.7 L84.25,238.85 80.25,234 Q79.85,233.95 79.5,233.9 L78.65,239.5 M104.95,224.1 Q88.2,210.8 81.05,208.6 75.5,206.9 73.65,208.65 73.2,209.1 72.25,210.65 71.35,212.2 70.4,213.05 70.65,217.15 72.55,219.65 73.95,221.45 79.35,226.8 80.083,227.555 83.4,231.65 83.453,231.685 83.45,231.7 88.135,237.389 97.75,249.4 111.85,267.05 114.05,267.65 117.75,268.7 124.45,268.05 132.1,267.35 133.25,264.55 134.45,261.65 132.95,257.7 131.85,254.75 126.75,245.7 122.35,237.9 104.95,224.1Z" test="BlueBikeContainer"/>
      <path id="Layer2_0_1_STROKES" stroke="#0FF" stroke-width="1" stroke-linejoin="round" stroke-linecap="round" fill="none" d="M70.4,213.05 Q71.35,212.2 72.25,210.65 73.2,209.1 73.65,208.65 75.5,206.9 81.05,208.6 88.2,210.8 104.95,224.1 122.35,237.9 126.75,245.7 131.85,254.75 132.95,257.7 134.45,261.65 133.25,264.55 132.1,267.35 124.45,268.05 117.75,268.7 114.05,267.65 111.85,267.05 97.75,249.4 88.135,237.389 83.475,231.725 83.453,231.685 83.425,231.65 80.083,227.555 79.35,226.8 73.95,221.45 72.55,219.65 70.65,217.15 70.4,213.05Z" test="BlueBikeContainer"/>
      <path id="Layer2_0_2_STROKES" stroke="#009EFF" stroke-width="1" stroke-linejoin="round" stroke-linecap="round" fill="none" d="M79.5,233.9 Q71.05,233.3 62.35,232.85 43.6,231.95 41.9,233 40.1,234 39.35,236.5 39,237.75 38.65,241.05 38.4,243.3 36.65,247.85 34.8,252.45 33.8,253.1 33.458,253.345 30.525,252.925 30.464,252.91 30.4,252.9 L30.2,255.4 Q29.95,258.4 29.65,260.95 14.45,263.85 -7.3,258.2 -29.05,252.5 -32.2,249.6 -35.35,246.7 -35.6,241.95 -35.7,240.5 -35.2,236.6 -35.15,236.3 -33.65,234.45 -32.1,232.55 -31.95,231.8 -31.925,231.703 -31.925,231.625 -31.861,230.484 -35.35,231.6 -40.3,233.1 -58.75,236.3 -68,237.85 -76.25,239.15 -76.9,250.85 -77.25,250.85 -77.6,250.85 -61.1,257 -45.7,263.35 -45.45,263.45 -31.75,269.6 -28.5,273.5 -25.8,276.75 -23.6,279.65 -23.35,280 -23.05,280.35 -21.15,282.9 -19.65,285.15 -16.95,289.2 -15.1,292.95 -14.55,294 -14.1,295.05 -13.05,297.4 -12.35,299.6 -9.25,309.55 -7.55,327.4 -7.55,328.05 31.45,327.1 50.9,326.65 70.4,326.05 70.05,323.9 70.2,320.6 70.45,314 72.8,308.2 75.3,302.05 82.05,294 86.7,288.5 91.7,283.8 91.85,283.6 92.05,283.45 93.95,281.7 97.35,278.9 L104.1,273.7 107.5,271.1 Q99.148,259.404 93.925,252.125 93.901,252.087 93.875,252.05 86.872,242.323 85.5,240.55 L84.5,239.2 M80.25,234 Q80.45,234 80.7,234 L84.25,238.85 M80.25,234 Q79.85,233.95 79.5,233.9 M-31.95,231.8 Q-23.85,236.45 -16.15,240.1 -3.35,246.3 4.3,247.95 L30.55,252.4 M-15.1,280.15 L-13.25,282.45 Q-10.6,286 -8.4,289.9 -1.25,302.45 -1.05,314.05 -.85,325.65 -.55,324.8 L-.35,321.6 34.7,321.95 Q35.55,318.85 35.85,314.7 36.45,306.4 33.5,300.25 30.5,294.05 22.5,289.85 14.45,285.65 6.15,284.9 -2.2,284.1 -10.1,281.9 L-15.1,280.15Z" test="BlueBikeContainer"/>
      <path id="Layer2_0_3_STROKES" stroke="#FFF" stroke-width="1" stroke-linejoin="round" stroke-linecap="round" fill="none" d="M84.5,239.2 L84.25,238.85 83.15,246.7 Q70.75,249.85 63.9,243.95 L62.9,239.15 Q77.3,243.2 78.65,239.5 L79.5,233.9 79.7,233.3 80.25,234 84.25,238.85 M115.4,283.1 L104.75,274.55 M97.35,278.9 L107.5,286.9" test="BlueBikeContainer"/>
      <use xlink:href="#Bike-Wheel" transform="translate(133.65 314.8)"/>
      <use xlink:href="#Bike-Wheel" transform="translate(-55.9 318.6)"/>
    </g>
    <g id="MotorBikePinkf0r1">
      <path fill="#000" stroke="none" d="M-141.446,341.261 Q-141.144,346 -137.339,350.502 -133.534,354.005 -107.26,360.891 -80.986,367.716 -62.624,364.213 -62.262,361.132 -61.96,357.508 L-61.718,354.488 Q-61.641,354.5 -61.597,354.488 L-61.537,353.884 -93.247,348.509 Q-102.488,346.516 -117.95,339.026 -127.252,334.617 -137.037,329 -137.218,329.906 -139.09,332.201 -140.902,334.436 -140.963,334.798 -141.567,339.509 -141.446,341.261 M28.097,380.642 L27.312,379.615 19.158,385.896 31.419,395.56 33.291,398.46 Q38.637,395.129 42.23,392.842 L40.962,390.97 28.097,380.642 M-3.432,338.301 Q-5.063,342.771 -22.458,337.878 L-21.25,343.677 Q-12.975,350.804 2.004,346 L3.333,337.516 -1.499,331.657 Q-1.982,331.597 -2.405,331.536 L-3.432,338.301 M-22.458,337.878 Q-5.063,342.771 -3.432,338.301 L-2.405,331.536 Q-12.613,330.812 -23.122,330.268 -45.772,329.181 -47.826,330.449 -50,331.657 -50.906,334.677 -51.329,336.187 -51.752,340.174 -52.054,342.892 -54.168,348.388 -56.403,353.945 -57.611,354.73 -58.024,355.026 -61.597,354.488 -61.641,354.5 -61.718,354.488 L-61.96,357.508 Q-62.262,361.132 -62.624,364.213 -80.986,367.716 -107.26,360.891 -133.534,354.005 -137.339,350.502 -141.144,346 -141.446,341.261 -141.567,339.509 -140.963,334.798 -140.902,334.436 -139.09,332.201 -137.218,329.906 -137.037,329 -137.007,328.882 -137.037,328.758 -136.929,327.41 -141.144,328.758 -147.124,330.57 -169.411,334.436 -180.585,336.308 -190.551,337.878 -191.336,352.012 -191.759,352.012 -192.182,352.012 -172.25,359.441 -153.647,367.112 -153.345,367.233 -136.795,374.662 -132.869,379.373 -129.608,383.299 -126.95,386.802 -126.648,387.225 -126.286,387.648 -124.652,389.838 -123.266,391.816 -123.183,391.963 -123.145,392.057 -122.625,392.774 -122.178,393.446 -118.917,398.339 -116.682,402.869 -116.018,404.137 -115.474,405.406 -114.206,408.244 -113.36,410.902 -109.615,422.922 -107.562,444.484 -107.562,444.813 -99.287,444.786 -99.211,444.817 -99.166,444.786 -87.637,444.784 -60.45,444.122 -58.487,444.076 -56.524,444.001 -34.986,443.517 -13.398,442.854 -13.821,440.256 -13.64,436.27 -13.338,428.297 -10.499,421.291 -7.479,413.862 .675,404.137 6.292,397.493 12.332,391.816 12.514,391.574 12.755,391.393 15.05,389.279 19.158,385.896 L27.312,379.615 31.419,376.474 Q21.33,362.345 14.99,353.522 14.991,353.506 14.93,353.462 6.5,341.711 4.843,339.57 L3.635,337.939 3.333,337.516 2.004,346 Q-12.975,350.804 -21.25,343.677 L-22.458,337.878 M-71.261,399.124 Q-61.597,404.198 -57.973,411.687 -54.41,419.116 -55.134,429.143 -55.497,434.156 -56.524,437.901 L-98.864,437.478 -99.106,441.344 Q-99.468,442.37 -99.71,428.358 -99.951,414.345 -108.588,399.184 -111.246,394.473 -114.447,390.185 L-116.803,387.286 -110.642,389.52 Q-101.099,392.178 -91.012,393.144 -80.986,394.05 -71.261,399.124 M-57.973,411.687 Q-61.597,404.198 -71.261,399.124 -80.986,394.05 -91.012,393.144 -101.099,392.178 -110.642,389.52 L-116.803,387.286 -114.447,390.185 Q-111.246,394.473 -108.588,399.184 -99.951,414.345 -99.71,428.358 -99.468,442.37 -99.106,441.344 L-98.864,437.478 -56.524,437.901 Q-55.497,434.156 -55.134,429.143 -54.41,419.116 -57.973,411.687 M28.338,319.698 Q8.104,303.632 -.533,300.974 -7.237,298.92 -9.472,301.034 -10.016,301.578 -11.163,303.45 -12.25,305.323 -13.398,306.35 -13.096,311.302 -10.801,314.322 -9.11,316.497 -2.586,322.96 -1.701,323.872 2.306,328.818 2.37,328.861 2.366,328.879 8.026,335.751 19.641,350.26 36.674,371.582 39.331,372.306 43.801,373.575 51.894,372.79 61.136,371.944 62.525,368.562 63.974,365.058 62.162,360.287 60.834,356.723 54.673,345.791 49.358,336.368 28.338,319.698Z" test="RedBike container" stroke-width="1.208"/>
      <path id="Layer1_0_1_STROKES" stroke="#0FF" stroke-width="1.208" stroke-linejoin="round" stroke-linecap="round" fill="none" d="M-13.398,306.35 Q-12.25,305.323 -11.163,303.45 -10.016,301.578 -9.472,301.034 -7.237,298.92 -.533,300.974 8.104,303.632 28.338,319.698 49.358,336.368 54.673,345.791 60.834,356.723 62.162,360.287 63.974,365.058 62.525,368.562 61.136,371.944 51.894,372.79 43.801,373.575 39.331,372.306 36.674,371.582 19.641,350.26 8.026,335.751 2.397,328.909 2.37,328.861 2.336,328.818 -1.701,323.872 -2.586,322.96 -9.11,316.497 -10.801,314.322 -13.096,311.302 -13.398,306.35Z" test="RedBike container"/>
      <path id="Layer1_0_2_STROKES" stroke="#FFF" stroke-width="1.208" stroke-linejoin="round" stroke-linecap="round" fill="none" d="M3.333,337.516 L2.004,346 Q-12.975,350.804 -21.25,343.677 L-22.458,337.878 Q-5.063,342.771 -3.432,338.301 L-2.405,331.536 M3.635,337.939 L3.333,337.516 -1.499,331.657 M-2.405,331.536 L-2.164,330.812 -1.499,331.657 M40.962,390.97 L28.097,380.642 M19.158,385.896 L31.419,395.56" test="RedBike container"/>
      <path id="Layer1_0_3_STROKES" stroke="#FF0265" stroke-width="1.208" stroke-linejoin="round" stroke-linecap="round" fill="none" d="M-2.405,331.536 Q-12.613,330.812 -23.122,330.268 -45.772,329.181 -47.826,330.449 -50,331.657 -50.906,334.677 -51.329,336.187 -51.752,340.174 -52.054,342.892 -54.168,348.388 -56.403,353.945 -57.611,354.73 -58.024,355.026 -61.567,354.519 -61.641,354.5 -61.718,354.488 L-61.96,357.508 Q-62.262,361.132 -62.624,364.213 -80.986,367.716 -107.26,360.891 -133.534,354.005 -137.339,350.502 -141.144,346 -141.446,341.261 -141.567,339.509 -140.963,334.798 -140.902,334.436 -139.09,332.201 -137.218,329.906 -137.037,329 -137.007,328.882 -137.007,328.788 -136.929,327.41 -141.144,328.758 -147.124,330.57 -169.411,334.436 -180.585,336.308 -190.551,337.878 -191.336,352.012 -191.759,352.012 -192.182,352.012 -172.25,359.441 -153.647,367.112 -153.345,367.233 -136.795,374.662 -132.869,379.373 -129.608,383.299 -126.95,386.802 -126.648,387.225 -126.286,387.648 -124.652,389.838 -123.266,391.846 -123.183,391.963 -123.115,392.087 -122.625,392.774 -122.178,393.446 -118.917,398.339 -116.682,402.869 -116.018,404.137 -115.474,405.406 -114.206,408.244 -113.36,410.902 -109.615,422.922 -107.562,444.484 -107.562,444.813 -99.287,444.817 -99.211,444.817 -99.136,444.817 -87.637,444.784 -60.45,444.122 -58.487,444.076 -56.524,444.031 -34.986,443.517 -13.398,442.854 -13.821,440.256 -13.64,436.27 -13.338,428.297 -10.499,421.291 -7.479,413.862 .675,404.137 6.292,397.493 12.332,391.816 12.514,391.574 12.755,391.393 15.05,389.279 19.158,385.896 L27.312,379.615 31.419,376.474 Q21.33,362.345 15.02,353.552 14.991,353.506 14.96,353.462 6.5,341.711 4.843,339.57 L3.635,337.939 M-2.405,331.536 Q-1.982,331.597 -1.499,331.657 -1.258,331.657 -.956,331.657 L3.333,337.516 M-137.037,329 Q-127.252,334.617 -117.95,339.026 -102.488,346.516 -93.247,348.509 L-61.537,353.884 M-114.447,390.185 Q-111.246,394.473 -108.588,399.184 -99.951,414.345 -99.71,428.358 -99.468,442.37 -99.106,441.344 L-98.864,437.478 -56.524,437.901 Q-55.497,434.156 -55.134,429.143 -54.41,419.116 -57.973,411.687 -61.597,404.198 -71.261,399.124 -80.986,394.05 -91.012,393.144 -101.099,392.178 -110.642,389.52 L-116.773,387.286 -114.447,390.185Z" test="RedBike container"/>
      <use xlink:href="#Bike-Wheel" transform="matrix(1.208 0 0 1.208 63 429.25)"/>
      <use xlink:href="#Bike-Wheel" transform="matrix(1.208 0 0 1.208 -165.95 433.85)"/>
    </g>
  </g>
</svg>