<?xml version="1.0" encoding="utf-8"?>
<svg id="EdithAnim11" image-rendering="inherit" baseProfile="basic" version="1.1" x="0px" y="0px" width="800" height="600" xmlns="http://www.w3.org/2000/svg" xmlns:xlink="http://www.w3.org/1999/xlink">
  <defs>
    <g id="Bike-Wheel" overflow="visible">
      <path id="Layer5_0_1_STROKES" stroke="#FFF" stroke-width="1" stroke-linejoin="round" stroke-linecap="round" fill="none" d="M2.05 -34.85Q-12.35 -34.85 -22.65 -26.45 -34 -17.2 -34.7 -1.55 -35.4 14.3 -26.6 24.6 -18.4 34.2 -5.6 34.85 7.15 35.5 19.2 29.8 31.25 24.1 34.05 7.25 36.85 -9.65 28.9 -21.15 19.4 -34.85 2.05 -34.85Z" test="Bike Wheel"/>
      <path id="Layer4_0_1_STROKES" stroke="#FFF" stroke-width="1" stroke-linejoin="round" stroke-linecap="round" fill="none" d="M.55 -26.55Q4.65 -26.85 7.1 -26.15 9.75 -25.4 12 -23.15 13.95 -21.25 8 -15.35 5.3 -12.6 2.25 -10.2 1.95 -10 1.7 -9.8M24.45 -8.9Q26.2 -5.15 26.45 -2.65 26.7 .1 25.4 3.05 24.35 5.5 16.7 2.1 13.2 .6 9.85 -1.4 9.5 -1.6 9.25 -1.75M18.45 20Q15.75 23.1 13.55 24.35 11.2 25.75 8 25.75 5.3 25.75 5.25 17.4 5.2 13.55 5.65 9.7 5.7 9.35 5.75 9M-25.15 -7.15Q-24.25 -11.2 -22.85 -13.3 -21.4 -15.6 -18.6 -17.1 -16.2 -18.45 -12.25 -11.05 -10.4 -7.65 -9 -4.1 -8.9 -3.7 -8.75 -3.4M-12.85 23.8Q-16.75 22.4 -18.7 20.8 -20.85 19.05 -22.05 16.1 -23.1 13.6 -15.3 10.55 -11.75 9.05 -8 8.05 -7.65 8 -7.3 7.95" test="Bike Wheel"/>
    </g>
  </defs>
  <g id="19_Motorbikesf80r1" overflow="visible">
    <g id="Smokef6r1">
      <path fill="#000" stroke="none" d="M375.235,102.215 Q349.093,19.571 203.967,38.04 135.789,-57.408 -41.645,-68.505 -41.645,230.488 -41.645,529.48 11.073,599.941 105.305,544.768 232.453,550.588 247.044,479.661 357.865,506.278 428.995,450.716 484.753,464.219 514.455,410.752 529.828,427.747 565.002,415.796 594.27,412.537 611.64,396.008 623.018,415.719 650.636,397.871 667.224,390.964 683.726,383.98 690.935,398.569 712.994,386.929 718.9,384.989 724.719,383.049 749.211,399.345 786.035,378.083 816.259,378.393 833.716,370.012 850.044,362.718 854.907,347.664 907.017,358.528 942.192,334.161 968.681,339.671 983.966,316.391 991.957,323.53 1008.284,318.253 1022.007,316.701 1030.692,309.484 1036.684,317.788 1049.712,309.95 1057.615,306.924 1065.519,303.82 1069.427,309.95 1079.762,304.828 1085.407,303.121 1090.966,301.414 1099.303,301.026 1107.554,300.716 1107.554,298.155 1108.336,292.412 1108.683,289.774 1109.03,287.136 1109.03,283.566 1109.03,279.996 1106.164,280.54 1103.298,281.005 1102.082,277.358 1101.04,277.125 1092.876,274.176 1088.708,276.427 1081.76,272.78 1072.64,273.323 1061.784,263.157 1041.374,268.279 1031.126,259.277 1015.927,256.484 1014.451,256.018 1013.061,255.63 1008.632,253.612 998.21,254.233 966.683,225.521 932.117,237.084 926.906,238.48 921.521,240.576 905.193,202.862 838.927,209.924 805.403,171.977 738.355,167.244 724.024,158.397 704.57,159.251 683.118,134.652 639.432,145.826 616.938,121.77 580.288,115.174 570.3,112.691 546.156,116.183 465.993,57.517 375.235,102.215Z" test="Smoke_1" stroke-width="1.644"/>
      <path id="Layer2_0_1_STROKES" stroke="#FFF" stroke-width="1.644" stroke-linejoin="round" stroke-linecap="round" fill="none" d="M1107.554,300.716 Q1099.303,301.026 1090.966,301.414 1085.407,303.121 1079.762,304.828 1069.427,309.95 1065.519,303.82 1057.615,306.924 1049.712,309.95 1036.684,317.788 1030.692,309.484 1022.007,316.701 1008.284,318.253 991.957,323.53 983.966,316.391 968.681,339.671 942.192,334.161 907.017,358.528 854.907,347.664 850.044,362.718 833.716,370.012 816.259,378.393 786.035,378.083 749.211,399.345 724.719,383.049 718.9,384.989 712.994,386.929 690.935,398.569 683.726,383.98 667.224,390.964 650.636,397.871 623.018,415.719 611.64,396.008 594.27,412.537 565.002,415.796 529.828,427.747 514.455,410.752 484.753,464.219 428.995,450.716 357.865,506.278 247.044,479.661 232.453,550.588 105.305,544.768 11.073,599.941 -41.645,529.48 -41.645,230.488 -41.645,-68.505 135.789,-57.408 203.967,38.04 349.093,19.571 375.235,102.215 465.993,57.517 546.156,116.183 570.3,112.691 580.288,115.174 616.938,121.77 639.432,145.826 683.118,134.652 704.57,159.251 724.024,158.397 738.355,167.244 805.403,171.977 838.927,209.924 905.193,202.862 921.521,240.576 926.906,238.48 932.117,237.084 966.683,225.521 998.21,254.233 1008.632,253.612 1013.061,255.63 1014.451,256.018 1015.927,256.484 1031.126,259.277 1041.374,268.279 1061.784,263.157 1072.64,273.323 1081.76,272.78 1088.708,276.427 1092.876,274.176 1101.04,277.125 1102.082,277.358 1103.298,281.005 1106.164,280.54 1109.03,279.996 1109.03,283.566 1109.03,287.136 1108.683,289.774 1108.336,292.412 1107.554,298.155 1107.554,300.716Z" test="Smoke_1"/>
    </g>
    <g id="Smokef3r1">
      <path fill="#000" stroke="none" d="M-139.219,337.088 Q-152.309,313.721 -227.67,318.952 -262.564,291.965 -354.531,288.851 -354.531,358.591 -354.531,428.33 -327.154,448.149 -278.123,432.366 -211.85,433.869 -204.482,413.633 -146.774,421.018 -109.86,405.126 -80.8,408.872 -65.466,393.65 -57.463,398.411 -39.174,394.99 -23.952,394.03 -14.939,389.324 -9.067,394.881 5.332,389.777 13.896,387.786 22.498,385.795 26.238,389.886 37.72,386.573 40.75,386.012 43.816,385.451 50.1,387.152 59.113,384.474 66.331,384.383 70.819,383.261 74.971,382.41 76.616,380.655 89.37,381.885 98.458,379.007 105.04,379.641 109.192,376.908 111.361,377.722 115.288,377.107 118.691,376.926 120.973,376.057 122.618,377.016 125.797,376.111 127.779,375.731 129.762,375.369 130.884,376.075 133.389,375.46 134.811,375.261 136.232,375.062 138.289,375.025 140.346,374.971 140.346,374.374 140.682,373.034 140.832,372.419 140.982,371.804 140.982,370.971 140.982,370.138 140.271,370.211 139.56,370.283 139.186,369.867 138.887,369.831 136.905,369.523 135.82,369.813 134.025,369.414 131.744,369.505 128.789,368.365 123.815,369.034 121.085,368.039 117.307,367.749 116.971,367.695 116.672,367.623 115.624,367.224 113.306,367.152 105.938,362.681 98.009,363.93 96.663,364.039 95.316,364.238 89.968,359.459 74.223,360.147 64.424,355.459 48.491,355.369 41.124,352.889 31.063,353.124 20.03,346.174 -2.634,349.36 -14.191,342.536 -33.19,340.708 -38.314,340.002 -50.843,340.979 -92.245,324.4 -139.219,337.088Z" test="Smoke_22" vector-effect="non-scaling-stroke" stroke-width="1"/>
      <path id="Layer1_0_1_STROKES" stroke="#FFF" stroke-width="1" stroke-linejoin="round" stroke-linecap="round" fill="none" d="M140.346,374.971 Q138.289,375.025 136.232,375.062 134.811,375.261 133.389,375.46 130.884,376.075 129.762,375.369 127.779,375.731 125.797,376.111 122.618,377.016 120.973,376.057 118.691,376.926 115.288,377.107 111.361,377.722 109.192,376.908 105.04,379.641 98.458,379.007 89.37,381.885 76.616,380.655 74.971,382.41 70.819,383.261 66.331,384.383 59.113,384.474 50.1,387.152 43.816,385.451 40.75,386.012 37.72,386.573 26.238,389.886 22.498,385.795 13.896,387.786 5.332,389.777 -9.067,394.881 -14.939,389.324 -23.952,394.03 -39.174,394.99 -57.463,398.411 -65.466,393.65 -80.8,408.872 -109.86,405.126 -146.774,421.018 -204.482,413.633 -211.85,433.869 -278.123,432.366 -327.154,448.149 -354.531,428.33 -354.531,358.591 -354.531,288.851 -262.564,291.965 -227.67,318.952 -152.309,313.721 -139.219,337.088 -92.245,324.4 -50.843,340.979 -38.314,340.002 -33.19,340.708 -14.191,342.536 -2.634,349.36 20.03,346.174 31.063,353.124 41.124,352.889 48.491,355.369 64.424,355.459 74.223,360.147 89.968,359.459 95.316,364.238 96.663,364.039 98.009,363.93 105.938,362.681 113.306,367.152 115.624,367.224 116.672,367.623 116.971,367.695 117.307,367.749 121.085,368.039 123.815,369.034 128.789,368.365 131.744,369.505 134.025,369.414 135.82,369.813 136.905,369.523 138.887,369.831 139.186,369.867 139.56,370.283 140.271,370.211 140.982,370.138 140.982,370.971 140.982,371.804 140.832,372.419 140.682,373.034 140.346,374.374 140.346,374.971Z" test="Smoke_22" vector-effect="non-scaling-stroke"/>
    </g>
    <g id="MotorBikePinkf3r1">
      <g id="RedBike-container">
        <path fill="#000" stroke="none" d="M116.486,337.903 Q118.264,343.363 122.844,345.758 127.425,348.154 154.57,347.992 181.699,347.772 198.514,339.633 198.066,336.566 197.418,332.99 L196.869,330.012 Q196.947,330.004 196.986,329.981 L196.887,329.382 164.887,332.41 Q155.451,332.88 138.585,329.658 128.465,327.812 117.565,324.925 117.624,325.847 116.412,328.547 115.242,331.174 115.277,331.539 115.915,336.243 116.486,337.903 M290.337,331.985 L289.314,331.197 283.071,339.373 297.41,345.524 299.968,347.837 Q304.265,343.238 307.141,340.099 L305.432,338.621 290.337,331.985 M248.934,299.286 Q248.518,304.022 230.46,303.807 L233.129,309.091 Q242.962,313.826 256.435,306.272 L255.26,296.775 249.078,292.372 Q248.596,292.439 248.172,292.49 L248.934,299.286 M230.46,303.807 Q248.518,304.022 248.934,299.286 L248.172,292.49 Q238.132,294.435 227.847,296.634 205.703,301.453 204.049,303.209 202.263,304.939 202.171,308.089 202.155,309.656 202.779,313.613 203.192,316.315 202.576,322.168 201.858,328.11 200.896,329.181 200.574,329.574 196.986,329.981 196.947,330.004 196.869,330.012 L197.418,332.99 Q198.066,336.566 198.514,339.633 181.699,347.772 154.57,347.992 127.425,348.154 122.844,345.758 118.264,343.363 116.486,337.903 115.915,336.243 115.277,331.539 115.242,331.174 116.412,328.547 117.624,325.847 117.565,324.925 117.563,324.804 117.502,324.692 117.256,323.363 113.538,325.756 108.235,329.055 87.724,338.561 77.424,343.263 68.211,347.361 71.115,361.207 70.707,361.316 70.299,361.426 91.463,363.432 111.407,366.016 111.73,366.055 129.629,368.937 134.639,372.468 138.805,375.412 142.278,378.105 142.679,378.435 143.138,378.749 145.282,380.44 147.133,381.989 147.25,382.11 147.312,382.191 147,382.748 148.605,383.281 153.021,387.159 156.352,390.952 157.322,392.004 158.175,393.088 160.135,395.499 161.64,397.845 168.368,408.477 175.938,428.758 176.023,429.075 184.003,426.905 184.084,426.915 184.12,426.874 195.247,423.884 221.318,416.201 223.201,415.648 225.076,415.067 245.739,409.019 266.405,402.785 265.324,400.388 264.466,396.493 262.692,388.719 263.616,381.221 264.606,373.268 269.957,361.768 273.657,353.9 278.016,346.855 278.129,346.575 278.315,346.337 279.983,343.702 283.071,339.373 L289.314,331.197 292.464,327.101 Q279.065,316.078 270.66,309.204 270.657,309.189 270.586,309.161 259.405,300.004 257.25,298.366 L255.661,297.105 255.26,296.775 256.435,306.272 Q242.962,313.826 233.129,309.091 L230.46,303.807 M199.223,375.569 Q209.865,377.962 215.304,384.252 220.669,390.5 222.567,400.365 223.516,405.298 223.495,409.179 L182.517,419.741 183.286,423.535 Q183.202,424.62 179.338,411.157 175.474,397.694 163.209,385.299 159.423,381.44 155.222,378.13 L152.197,375.942 158.723,376.503 Q168.623,376.595 178.609,374.915 188.522,373.191 199.223,375.569 M215.304,384.252 Q209.865,377.962 199.223,375.569 188.522,373.191 178.609,374.915 168.623,376.595 158.723,376.503 L152.197,375.942 155.222,378.13 Q159.423,381.44 163.209,385.299 175.474,397.694 179.338,411.157 183.202,424.62 183.286,423.535 L182.517,419.741 223.495,409.179 Q223.516,405.298 222.567,400.365 220.669,390.5 215.304,384.252 M274.78,273.097 Q251.086,262.832 242.061,262.505 235.057,262.26 233.448,264.88 233.064,265.545 232.442,267.65 231.878,269.739 231.036,271.027 232.611,275.73 235.609,278.05 237.804,279.71 245.775,284.258 246.866,284.909 252.016,288.646 252.088,288.67 252.09,288.688 259.333,293.855 274.304,304.851 296.269,321.017 299.022,321.028 303.664,321.095 311.273,318.24 319.974,315.029 320.438,311.404 320.93,307.647 317.945,303.511 315.739,300.416 306.959,291.46 299.388,283.742 274.78,273.097Z" test="RedBike container" stroke-width="1.207"/>
        <path id="Layer3_0_1_STROKES" stroke="#0FF" stroke-width="1.207" stroke-linejoin="round" stroke-linecap="round" fill="none" d="M231.036,271.027 Q231.878,269.739 232.442,267.65 233.064,265.545 233.448,264.88 235.057,262.26 242.061,262.505 251.086,262.832 274.78,273.097 299.388,283.742 306.959,291.46 315.739,300.416 317.945,303.511 320.93,307.647 320.438,311.404 319.974,315.029 311.273,318.24 303.664,321.095 299.022,321.028 296.269,321.017 274.304,304.851 259.333,293.855 252.127,288.71 252.088,288.67 252.045,288.638 246.866,284.909 245.775,284.258 237.804,279.71 235.609,278.05 232.611,275.73 231.036,271.027Z" test="RedBike container"/>
        <path id="Layer3_0_2_STROKES" stroke="#FFF" stroke-width="1.207" stroke-linejoin="round" stroke-linecap="round" fill="none" d="M255.26,296.775 L256.435,306.272 Q242.962,313.826 233.129,309.091 L230.46,303.807 Q248.518,304.022 248.934,299.286 L248.172,292.49 M255.661,297.105 L255.26,296.775 249.078,292.372 M248.172,292.49 L248.218,291.728 249.078,292.372 M305.432,338.621 L290.337,331.985 M283.071,339.373 L297.41,345.524" test="RedBike container"/>
        <path id="Layer3_0_3_STROKES" stroke="#FF0265" stroke-width="1.207" stroke-linejoin="round" stroke-linecap="round" fill="none" d="M248.172,292.49 Q238.132,294.435 227.847,296.634 205.703,301.453 204.049,303.209 202.263,304.939 202.171,308.089 202.155,309.656 202.779,313.613 203.192,316.315 202.576,322.168 201.858,328.11 200.896,329.181 200.574,329.574 197.022,330.002 196.947,330.004 196.869,330.012 L197.418,332.99 Q198.066,336.566 198.514,339.633 181.699,347.772 154.57,347.992 127.425,348.154 122.844,345.758 118.264,343.363 116.486,337.903 115.915,336.243 115.277,331.539 115.242,331.174 116.412,328.547 117.624,325.847 117.565,324.925 117.563,324.804 117.539,324.713 117.256,323.363 113.538,325.756 108.235,329.055 87.724,338.561 77.424,343.263 68.211,347.361 71.115,361.207 70.707,361.316 70.299,361.426 91.463,363.432 111.407,366.016 111.73,366.055 129.629,368.937 134.639,372.468 138.805,375.412 142.278,378.105 142.679,378.435 143.138,378.749 145.282,380.44 147.141,382.018 147.25,382.11 147.349,382.212 147,382.748 148.605,383.281 153.021,387.159 156.352,390.952 157.322,392.004 158.175,393.088 160.135,395.499 161.64,397.845 168.368,408.477 175.938,428.758 176.023,429.075 184.011,426.934 184.084,426.915 184.157,426.895 195.247,423.884 221.318,416.201 223.201,415.648 225.084,415.096 245.739,409.019 266.405,402.785 265.324,400.388 264.466,396.493 262.692,388.719 263.616,381.221 264.606,373.268 269.957,361.768 273.657,353.9 278.016,346.855 278.129,346.575 278.315,346.337 279.983,343.702 283.071,339.373 L289.314,331.197 292.464,327.101 Q279.065,316.078 270.696,309.225 270.657,309.189 270.615,309.154 259.405,300.004 257.25,298.366 L255.661,297.105 M248.172,292.49 Q248.596,292.439 249.078,292.372 249.311,292.309 249.603,292.231 L255.26,296.775 M117.565,324.925 Q128.465,327.812 138.585,329.658 155.451,332.88 164.887,332.41 L196.887,329.382 M155.222,378.13 Q159.423,381.44 163.209,385.299 175.474,397.694 179.338,411.157 183.202,424.62 183.286,423.535 L182.517,419.741 223.495,409.179 Q223.516,405.298 222.567,400.365 220.669,390.5 215.304,384.252 209.865,377.962 199.223,375.569 188.522,373.191 178.609,374.915 168.623,376.595 158.723,376.503 L152.226,375.934 155.222,378.13Z" test="RedBike container"/>
        <use xlink:href="#Bike-Wheel" transform="matrix(1.166 -.313 .313 1.166 336.6 369.85)"/>
        <use xlink:href="#Bike-Wheel" transform="matrix(1.166 -.313 .313 1.166 116.8 433.6)"/>
      </g>
    </g>
  </g>
</svg>