<?xml version="1.0" encoding="utf-8"?>
<svg id="EdithAnim11" image-rendering="inherit" baseProfile="basic" version="1.1" x="0px" y="0px" width="800" height="600" xmlns="http://www.w3.org/2000/svg" xmlns:xlink="http://www.w3.org/1999/xlink">
  <defs>
    <g id="Bike-Wheel" overflow="visible">
      <path id="Layer5_0_1_STROKES" stroke="#FFF" stroke-width="1" stroke-linejoin="round" stroke-linecap="round" fill="none" d="M2.05 -34.85Q-12.35 -34.85 -22.65 -26.45 -34 -17.2 -34.7 -1.55 -35.4 14.3 -26.6 24.6 -18.4 34.2 -5.6 34.85 7.15 35.5 19.2 29.8 31.25 24.1 34.05 7.25 36.85 -9.65 28.9 -21.15 19.4 -34.85 2.05 -34.85Z" test="Bike Wheel"/>
      <path id="Layer4_0_1_STROKES" stroke="#FFF" stroke-width="1" stroke-linejoin="round" stroke-linecap="round" fill="none" d="M.55 -26.55Q4.65 -26.85 7.1 -26.15 9.75 -25.4 12 -23.15 13.95 -21.25 8 -15.35 5.3 -12.6 2.25 -10.2 1.95 -10 1.7 -9.8M24.45 -8.9Q26.2 -5.15 26.45 -2.65 26.7 .1 25.4 3.05 24.35 5.5 16.7 2.1 13.2 .6 9.85 -1.4 9.5 -1.6 9.25 -1.75M18.45 20Q15.75 23.1 13.55 24.35 11.2 25.75 8 25.75 5.3 25.75 5.25 17.4 5.2 13.55 5.65 9.7 5.7 9.35 5.75 9M-25.15 -7.15Q-24.25 -11.2 -22.85 -13.3 -21.4 -15.6 -18.6 -17.1 -16.2 -18.45 -12.25 -11.05 -10.4 -7.65 -9 -4.1 -8.9 -3.7 -8.75 -3.4M-12.85 23.8Q-16.75 22.4 -18.7 20.8 -20.85 19.05 -22.05 16.1 -23.1 13.6 -15.3 10.55 -11.75 9.05 -8 8.05 -7.65 8 -7.3 7.95" test="Bike Wheel"/>
    </g>
  </defs>
  <g id="19_Motorbikesf81r1" overflow="visible">
    <g id="Smokef7r1">
      <path fill="#000" stroke="none" d="M527.355,94.369 Q449.779,36.583 361.932,80.56 336.253,-.818 196.057,17.348 129.744,-76.607 -41.807,-87.539 -41.807,229.177 -41.807,545.894 9.1,615.435 100.101,561.347 222.727,567.348 236.963,497.807 343.912,524.193 412.658,469.777 466.538,483.175 495.28,430.732 510.146,447.418 544.024,435.746 572.315,432.622 589.164,416.429 600.156,435.91 626.826,418.402 642.863,411.661 658.811,404.839 665.749,419.141 687.012,407.716 692.779,405.907 698.365,403.934 727.197,424.402 770.986,398.427 806.845,399.002 827.388,388.81 846.67,379.85 852.166,361.273 913.974,374.753 955.24,344.668 986.685,351.491 1004.435,322.803 1013.715,331.598 1033.177,325.105 1049.485,323.214 1059.666,314.336 1066.604,324.611 1082.011,314.912 1091.381,311.131 1100.752,307.349 1105.257,314.912 1117.51,308.582 1124.178,306.527 1130.845,304.39 1140.666,303.979 1150.397,303.568 1150.397,300.856 1151.208,294.773 1151.568,291.978 1151.928,289.183 1151.928,285.402 1151.928,281.621 1148.595,282.278 1145.171,282.854 1143.729,278.333 1142.558,278.004 1132.827,274.387 1128.052,277.018 1119.853,272.579 1109.041,273.154 1096.337,260.495 1072.1,266.743 1060.116,255.563 1042.187,252.029 1040.475,251.453 1038.673,251.042 1033.447,248.823 1020.833,249.809 983.171,215.943 941.725,230.41 935.598,232.219 929.291,234.849 910.911,188.817 831.983,197.859 793.421,151.334 713.412,144.676 699.536,136.045 680.796,136.784 659.892,112.618 617.725,123.55 595.921,99.877 560.422,93.465 550.691,90 527.355,94.369Z" test="Smoke_1" stroke-width="1.723"/>
      <path id="Layer2_0_1_STROKES" stroke="#FFF" stroke-width="1.723" stroke-linejoin="round" stroke-linecap="round" fill="none" d="M1150.397,303.568 Q1140.666,303.979 1130.845,304.39 1124.178,306.527 1117.51,308.582 1105.257,314.912 1100.752,307.349 1091.381,311.131 1082.011,314.912 1066.604,324.611 1059.666,314.336 1049.485,323.214 1033.177,325.105 1013.715,331.598 1004.435,322.803 986.685,351.491 955.24,344.668 913.974,374.753 852.166,361.273 846.67,379.85 827.388,388.81 806.845,399.002 770.986,398.427 727.197,424.402 698.365,403.934 692.779,405.907 687.012,407.716 665.749,419.141 658.811,404.839 642.863,411.661 626.826,418.402 600.156,435.91 589.164,416.429 572.315,432.622 544.024,435.746 510.146,447.418 495.28,430.732 466.538,483.175 412.658,469.777 343.912,524.193 236.963,497.807 222.727,567.348 100.101,561.347 9.1,615.435 -41.807,545.894 -41.807,229.177 -41.807,-87.539 129.744,-76.607 196.057,17.348 336.253,-.818 361.932,80.56 449.779,36.583 527.355,94.369 550.691,90 560.422,93.465 595.921,99.877 617.725,123.55 659.892,112.618 680.796,136.784 699.536,136.045 713.412,144.676 793.421,151.334 831.983,197.859 910.911,188.817 929.291,234.849 935.598,232.219 941.725,230.41 983.171,215.943 1020.833,249.809 1033.447,248.823 1038.673,251.042 1040.475,251.453 1042.187,252.029 1060.116,255.563 1072.1,266.743 1096.337,260.495 1109.041,273.154 1119.853,272.579 1128.052,277.018 1132.827,274.387 1142.558,278.004 1143.729,278.333 1145.171,282.854 1148.595,282.278 1151.928,281.621 1151.928,285.402 1151.928,289.183 1151.568,291.978 1151.208,294.773 1150.397,300.856 1150.397,303.568Z" test="Smoke_1"/>
    </g>
    <g id="Smokef4r1">
      <path fill="#000" stroke="none" d="M-132.74,331.651 Q-145.733,307.757 -219.643,313.101 -254.031,285.513 -344.278,282.329 -344.278,358.041 -344.278,433.752 -317.437,454.051 -269.357,437.957 -204.433,439.549 -197.12,418.917 -140.598,426.502 -104.343,410.31 -75.907,414.161 -60.814,398.638 -52.995,403.511 -35.024,400.033 -20.125,399.07 -11.256,394.256 -5.498,399.935 8.622,394.747 17.025,392.723 25.466,390.699 29.123,394.885 40.365,391.485 43.36,390.935 46.355,390.365 54.369,392.979 66.116,389.245 75.647,389.186 81.365,387.673 86.656,386.435 88.562,383.9 105.172,385.708 116.725,381.582 125.244,382.486 130.379,378.556 133.063,379.754 138.276,378.85 142.672,378.575 145.55,377.357 147.573,378.752 151.697,377.435 154.264,376.905 156.831,376.374 158.193,377.396 161.46,376.532 163.289,376.237 165.117,375.942 167.801,375.883 170.446,375.824 170.446,375.176 170.796,373.722 170.952,373.054 171.108,372.385 171.108,371.482 171.108,370.578 170.213,370.676 169.279,370.774 168.851,370.145 168.462,370.126 165.856,369.654 164.495,370.027 162.2,369.458 159.282,369.556 155.587,367.886 149.09,368.789 145.667,367.296 140.766,366.864 140.338,366.785 139.91,366.707 138.548,366.255 135.359,366.255 125.556,360.576 114.897,362.462 113.185,362.659 111.474,362.973 105.289,356.331 84.516,357.432 72.691,350.829 51.607,350.377 44.371,347.843 34.491,348.059 23.638,340.965 1.426,344.207 -9.972,337.251 -28.605,335.365 -33.662,334.657 -45.954,335.64 -86.644,318.682 -132.74,331.651Z" test="Smoke_22" vector-effect="non-scaling-stroke" stroke-width="1"/>
      <path id="Layer1_0_1_STROKES" stroke="#FFF" stroke-width="1" stroke-linejoin="round" stroke-linecap="round" fill="none" d="M170.446,375.824 Q167.801,375.883 165.117,375.942 163.289,376.237 161.46,376.532 158.193,377.396 156.831,376.374 154.264,376.905 151.697,377.435 147.573,378.752 145.55,377.357 142.672,378.575 138.276,378.85 133.063,379.754 130.379,378.556 125.244,382.486 116.725,381.582 105.172,385.708 88.562,383.9 86.656,386.435 81.365,387.673 75.647,389.186 66.116,389.245 54.369,392.979 46.355,390.365 43.36,390.935 40.365,391.485 29.123,394.885 25.466,390.699 17.025,392.723 8.622,394.747 -5.498,399.935 -11.256,394.256 -20.125,399.07 -35.024,400.033 -52.995,403.511 -60.814,398.638 -75.907,414.161 -104.343,410.31 -140.598,426.502 -197.12,418.917 -204.433,439.549 -269.357,437.957 -317.437,454.051 -344.278,433.752 -344.278,358.041 -344.278,282.329 -254.031,285.513 -219.643,313.101 -145.733,307.757 -132.74,331.651 -86.644,318.682 -45.954,335.64 -33.662,334.657 -28.605,335.365 -9.972,337.251 1.426,344.207 23.638,340.965 34.491,348.059 44.371,347.843 51.607,350.377 72.691,350.829 84.516,357.432 105.289,356.331 111.474,362.973 113.185,362.659 114.897,362.462 125.556,360.576 135.359,366.255 138.548,366.255 139.91,366.707 140.338,366.785 140.766,366.864 145.667,367.296 149.09,368.789 155.587,367.886 159.282,369.556 162.2,369.458 164.495,370.027 165.856,369.654 168.462,370.126 168.851,370.145 169.279,370.774 170.213,370.676 171.108,370.578 171.108,371.482 171.108,372.385 170.952,373.054 170.796,373.722 170.446,375.176 170.446,375.824Z" test="Smoke_22" vector-effect="non-scaling-stroke"/>
    </g>
    <g id="MotorBikePinkf4r1">
      <g id="RedBike-container">
        <path fill="#000" stroke="none" d="M135.79,338.303 Q138.04,343.581 142.81,345.562 147.579,347.544 174.582,344.998 201.564,342.395 217.585,332.816 216.869,329.803 215.91,326.3 L215.102,323.385 Q215.178,323.37 215.215,323.344 L215.065,322.756 183.481,328.582 Q174.131,329.88 157.061,328.154 146.826,327.207 135.724,325.292 135.864,326.203 134.895,328.998 133.961,331.715 134.029,332.075 135.077,336.701 135.79,338.303 M308.303,317.133 L307.215,316.44 301.72,325.126 316.532,329.988 319.282,332.065 Q323.154,327.109 325.741,323.733 L323.91,322.412 308.303,317.133 M264.221,288.227 Q264.224,292.978 246.232,294.351 L249.352,299.376 Q259.556,303.224 272.301,294.522 L270.297,285.172 263.757,281.333 Q263.283,281.442 262.866,281.53 L264.221,288.227 M246.232,294.351 Q264.224,292.978 264.221,288.227 L262.866,281.53 Q253.044,284.349 243,287.441 221.384,294.184 219.893,296.077 218.267,297.955 218.452,301.098 218.573,302.66 219.543,306.543 220.191,309.196 220.092,315.076 219.901,321.053 219.037,322.204 218.751,322.623 215.215,323.344 215.178,323.37 215.102,323.385 L215.91,326.3 Q216.869,329.803 217.585,332.816 201.564,342.395 174.582,344.998 147.579,347.544 142.81,345.562 138.04,343.581 135.79,338.303 135.077,336.701 134.029,332.075 133.961,331.715 134.895,328.998 135.864,326.203 135.724,325.292 135.712,325.171 135.641,325.065 135.28,323.764 131.789,326.472 126.801,330.221 107.222,341.485 97.384,347.071 88.575,351.959 92.682,365.484 92.286,365.629 91.889,365.774 113.13,365.911 133.207,366.73 133.531,366.74 151.6,368.036 156.896,371.109 161.301,373.674 164.994,376.049 165.422,376.342 165.907,376.614 168.19,378.108 170.168,379.488 170.296,379.598 170.364,379.673 171.097,380.167 171.747,380.645 176.482,384.116 180.131,387.599 181.189,388.561 182.133,389.564 184.296,391.792 186,393.995 193.631,403.984 202.947,423.505 203.06,423.813 210.812,420.952 210.894,420.954 210.925,420.911 221.738,416.957 247.01,407.019 248.836,406.303 250.651,405.56 270.685,397.724 290.706,389.704 289.419,387.413 288.223,383.612 285.774,376.031 286.035,368.486 286.322,360.483 290.637,348.568 293.628,340.412 297.347,333.016 297.434,332.728 297.599,332.475 299.027,329.706 301.72,325.126 L307.215,316.44 309.991,312.086 Q295.686,302.292 286.716,296.19 286.712,296.174 286.639,296.154 274.706,288.022 272.417,286.581 L270.725,285.465 270.297,285.172 272.301,294.522 Q259.556,303.224 249.352,299.376 L246.232,294.351 M221.448,368.52 Q232.251,369.966 238.217,375.749 244.105,381.496 246.862,391.148 248.24,395.974 248.56,399.838 L208.704,413.953 209.802,417.661 Q209.814,418.748 204.785,405.688 199.756,392.628 186.459,381.369 182.352,377.861 177.88,374.936 L174.677,373.024 181.221,373.009 Q191.083,372.231 200.874,369.68 210.589,367.094 221.448,368.52 M238.217,375.749 Q232.251,369.966 221.448,368.52 210.589,367.094 200.874,369.68 191.083,372.231 181.221,373.009 L174.677,373.024 177.88,374.936 Q182.352,377.861 186.459,381.369 199.756,392.628 204.785,405.688 209.814,418.748 209.802,417.661 L208.704,413.953 248.56,399.838 Q248.24,395.974 246.862,391.148 244.105,381.496 238.217,375.749 M287.644,259.891 Q263.16,251.756 254.148,252.224 247.156,252.596 245.784,255.344 245.461,256.04 245.026,258.19 244.648,260.318 243.924,261.675 245.904,266.217 249.092,268.263 251.424,269.722 259.757,273.548 260.9,274.1 266.353,277.367 266.428,277.384 266.431,277.403 274.094,281.909 289.96,291.537 313.243,305.697 315.984,305.466 320.61,305.123 327.932,301.613 336.31,297.653 336.454,294.004 336.613,290.222 333.278,286.368 330.81,283.481 321.285,275.338 313.071,268.323 287.644,259.891Z" test="RedBike container" stroke-width="1.206"/>
        <path id="Layer3_0_1_STROKES" stroke="#0FF" stroke-width="1.206" stroke-linejoin="round" stroke-linecap="round" fill="none" d="M243.924,261.675 Q244.648,260.318 245.026,258.19 245.461,256.04 245.784,255.344 247.156,252.596 254.148,252.224 263.16,251.756 287.644,259.891 313.071,268.323 321.285,275.338 330.81,283.481 333.278,286.368 336.613,290.222 336.454,294.004 336.31,297.653 327.932,301.613 320.61,305.123 315.984,305.466 313.243,305.697 289.96,291.537 274.094,281.909 266.469,277.421 266.428,277.384 266.382,277.356 260.9,274.1 259.757,273.548 251.424,269.722 249.092,268.263 245.904,266.217 243.924,261.675Z" test="RedBike container"/>
        <path id="Layer3_0_2_STROKES" stroke="#FFF" stroke-width="1.206" stroke-linejoin="round" stroke-linecap="round" fill="none" d="M270.297,285.172 L272.301,294.522 Q259.556,303.224 249.352,299.376 L246.232,294.351 Q264.224,292.978 264.221,288.227 L262.866,281.53 M270.725,285.465 L270.297,285.172 263.757,281.333 M262.866,281.53 L262.844,280.768 263.757,281.333 M323.91,322.412 L308.303,317.133 M301.72,325.126 L316.532,329.988" test="RedBike container"/>
        <path id="Layer3_0_3_STROKES" stroke="#FF0265" stroke-width="1.206" stroke-linejoin="round" stroke-linecap="round" fill="none" d="M262.866,281.53 Q253.044,284.349 243,287.441 221.384,294.184 219.893,296.077 218.267,297.955 218.452,301.098 218.573,302.66 219.543,306.543 220.191,309.196 220.092,315.076 219.901,321.053 219.037,322.204 218.751,322.623 215.254,323.361 215.178,323.37 215.102,323.385 L215.91,326.3 Q216.869,329.803 217.585,332.816 201.564,342.395 174.582,344.998 147.579,347.544 142.81,345.562 138.04,343.581 135.79,338.303 135.077,336.701 134.029,332.075 133.961,331.715 134.895,328.998 135.864,326.203 135.724,325.292 135.712,325.171 135.68,325.083 135.28,323.764 131.789,326.472 126.801,330.221 107.222,341.485 97.384,347.071 88.575,351.959 92.682,365.484 92.286,365.629 91.889,365.774 113.13,365.911 133.207,366.73 133.531,366.74 151.6,368.036 156.896,371.109 161.301,373.674 164.994,376.049 165.422,376.342 165.907,376.614 168.19,378.108 170.178,379.516 170.296,379.598 170.403,379.691 171.097,380.167 171.747,380.645 176.482,384.116 180.131,387.599 181.189,388.561 182.133,389.564 184.296,391.792 186,393.995 193.631,403.984 202.947,423.505 203.06,423.813 210.822,420.98 210.894,420.954 210.964,420.929 221.738,416.957 247.01,407.019 248.836,406.303 250.661,405.588 270.685,397.724 290.706,389.704 289.419,387.413 288.223,383.612 285.774,376.031 286.035,368.486 286.322,360.483 290.637,348.568 293.628,340.412 297.347,333.016 297.434,332.728 297.599,332.475 299.027,329.706 301.72,325.126 L307.215,316.44 309.991,312.086 Q295.686,302.292 286.755,296.207 286.712,296.174 286.667,296.143 274.706,288.022 272.417,286.581 L270.725,285.465 M262.866,281.53 Q263.283,281.442 263.757,281.333 263.984,281.251 264.267,281.147 L270.297,285.172 M135.724,325.292 Q146.826,327.207 157.061,328.154 174.131,329.88 183.481,328.582 L215.065,322.756 M177.88,374.936 Q182.352,377.861 186.459,381.369 199.756,392.628 204.785,405.688 209.814,418.748 209.802,417.661 L208.704,413.953 248.56,399.838 Q248.24,395.974 246.862,391.148 244.105,381.496 238.217,375.749 232.251,369.966 221.448,368.52 210.589,367.094 200.874,369.68 191.083,372.231 181.221,373.009 L174.705,373.014 177.88,374.936Z" test="RedBike container"/>
        <use xlink:href="#Bike-Wheel" transform="matrix(1.133 -.414 .414 1.133 357.7 350.75)"/>
        <use xlink:href="#Bike-Wheel" transform="matrix(1.133 -.414 .414 1.133 144.5 433.5)"/>
      </g>
    </g>
  </g>
</svg>