<?xml version="1.0" encoding="utf-8"?>
<svg id="EdithAnim11" image-rendering="inherit" baseProfile="basic" version="1.1" x="0px" y="0px" width="800" height="600" xmlns="http://www.w3.org/2000/svg" xmlns:xlink="http://www.w3.org/1999/xlink">
  <defs>
    <g id="Bike-Wheel" overflow="visible">
      <path id="Layer5_0_1_STROKES" stroke="#FFF" stroke-width="1" stroke-linejoin="round" stroke-linecap="round" fill="none" d="M2.05 -34.85Q-12.35 -34.85 -22.65 -26.45 -34 -17.2 -34.7 -1.55 -35.4 14.3 -26.6 24.6 -18.4 34.2 -5.6 34.85 7.15 35.5 19.2 29.8 31.25 24.1 34.05 7.25 36.85 -9.65 28.9 -21.15 19.4 -34.85 2.05 -34.85Z" test="Bike Wheel"/>
      <path id="Layer4_0_1_STROKES" stroke="#FFF" stroke-width="1" stroke-linejoin="round" stroke-linecap="round" fill="none" d="M.55 -26.55Q4.65 -26.85 7.1 -26.15 9.75 -25.4 12 -23.15 13.95 -21.25 8 -15.35 5.3 -12.6 2.25 -10.2 1.95 -10 1.7 -9.8M24.45 -8.9Q26.2 -5.15 26.45 -2.65 26.7 .1 25.4 3.05 24.35 5.5 16.7 2.1 13.2 .6 9.85 -1.4 9.5 -1.6 9.25 -1.75M18.45 20Q15.75 23.1 13.55 24.35 11.2 25.75 8 25.75 5.3 25.75 5.25 17.4 5.2 13.55 5.65 9.7 5.7 9.35 5.75 9M-25.15 -7.15Q-24.25 -11.2 -22.85 -13.3 -21.4 -15.6 -18.6 -17.1 -16.2 -18.45 -12.25 -11.05 -10.4 -7.65 -9 -4.1 -8.9 -3.7 -8.75 -3.4M-12.85 23.8Q-16.75 22.4 -18.7 20.8 -20.85 19.05 -22.05 16.1 -23.1 13.6 -15.3 10.55 -11.75 9.05 -8 8.05 -7.65 8 -7.3 7.95" test="Bike Wheel"/>
    </g>
  </defs>
  <g id="19_Motorbikesf82r1" overflow="visible">
    <g id="Smokef8r1">
      <path fill="#000" stroke="none" d="M537.456,70.101 Q528.121,67.671 505.717,70.969 431.037,14.636 346.555,57.428 321.537,-21.907 186.833,-4.286 122.795,-95.947 -41.968,-106.624 -41.968,227.817 -41.968,562.257 6.948,630.308 94.137,577.794 211.664,583.957 225.48,516.34 327.978,542.38 393.977,489.606 445.599,502.799 473.138,451.761 487.513,468.166 519,456.882 547.071,453.844 563.314,438.133 573.862,457.142 599.44,440.13 614.75,433.62 630.152,427.023 636.873,441.084 657.224,429.974 662.638,428.151 668.052,426.328 701.378,451.24 752.534,420.166 794.542,421.034 818.346,408.968 840.75,398.205 846.724,375.811 918.884,392.042 966.679,355.76 1003.179,364.006 1023.716,329.46 1034.358,340.049 1057.042,332.237 1076.085,329.98 1087.847,319.217 1095.782,331.63 1113.799,319.998 1124.627,315.485 1135.549,310.884 1140.683,319.998 1154.966,312.447 1162.714,309.843 1170.462,307.326 1181.851,306.805 1193.239,306.371 1193.239,303.506 1194.08,297.083 1194.453,294.132 1194.826,291.181 1194.826,287.188 1194.826,283.195 1190.906,283.976 1186.985,284.671 1185.305,279.202 1183.998,278.768 1172.609,274.342 1167.101,277.553 1157.58,272.085 1144.978,272.779 1130.415,257.416 1102.13,264.967 1088.407,251.34 1067.497,246.913 1065.443,246.392 1063.39,245.871 1057.229,243.354 1042.386,244.743 998.231,205.422 949.409,223.043 942.221,225.213 934.94,228.511 914.496,173.567 822.08,184.59 778.299,128.778 684.669,120.185 671.32,111.678 653.21,112.46 633.139,88.85 592.626,99.526 571.528,76.438 537.456,70.101Z" test="Smoke_1" stroke-width="1.801"/>
      <path id="Layer2_0_1_STROKES" stroke="#FFF" stroke-width="1.801" stroke-linejoin="round" stroke-linecap="round" fill="none" d="M1193.239,306.371 Q1181.851,306.805 1170.462,307.326 1162.714,309.843 1154.966,312.447 1140.683,319.998 1135.549,310.884 1124.627,315.485 1113.799,319.998 1095.782,331.63 1087.847,319.217 1076.085,329.98 1057.042,332.237 1034.358,340.049 1023.716,329.46 1003.179,364.006 966.679,355.76 918.884,392.042 846.724,375.811 840.75,398.205 818.346,408.968 794.542,421.034 752.534,420.166 701.378,451.24 668.052,426.328 662.638,428.151 657.224,429.974 636.873,441.084 630.152,427.023 614.75,433.62 599.44,440.13 573.862,457.142 563.314,438.133 547.071,453.844 519,456.882 487.513,468.166 473.138,451.761 445.599,502.799 393.977,489.606 327.978,542.38 225.48,516.34 211.664,583.957 94.137,577.794 6.948,630.308 -41.968,562.257 -41.968,227.817 -41.968,-106.624 122.795,-95.947 186.833,-4.286 321.537,-21.907 346.555,57.428 431.037,14.636 505.717,70.969 528.121,67.671 537.456,70.101 571.528,76.438 592.626,99.526 633.139,88.85 653.21,112.46 671.32,111.678 684.669,120.185 778.299,128.778 822.08,184.59 914.496,173.567 934.94,228.511 942.221,225.213 949.409,223.043 998.231,205.422 1042.386,244.743 1057.229,243.354 1063.39,245.871 1065.443,246.392 1067.497,246.913 1088.407,251.34 1102.13,264.967 1130.415,257.416 1144.978,272.779 1157.58,272.085 1167.101,277.553 1172.609,274.342 1183.998,278.768 1185.305,279.202 1186.985,284.671 1190.906,283.976 1194.826,283.195 1194.826,287.188 1194.826,291.181 1194.453,294.132 1194.08,297.083 1193.239,303.506 1193.239,306.371Z" test="Smoke_1"/>
    </g>
    <g id="Smokef5r1">
      <path fill="#000" stroke="none" d="M-123.608,325.152 Q-136.478,300.642 -208.989,306.125 -242.85,277.809 -331.439,274.52 -331.439,357.359 -331.439,440.198 -305.09,461.075 -257.994,444.628 -194.373,446.305 -187.187,425.17 -131.768,433.018 -96.243,416.463 -68.351,420.44 -53.532,404.53 -45.859,409.561 -28.279,405.992 -13.622,405.025 -4.934,400.101 .71,405.949 14.554,400.617 22.796,398.575 31.078,396.489 34.651,400.789 45.694,397.328 48.618,396.769 51.541,396.167 61.447,399.865 76.185,394.877 88.203,394.877 95.267,392.899 101.885,391.222 103.996,387.739 124.864,390.233 139.074,384.6 149.712,385.847 156.005,380.493 159.253,382.127 165.789,380.902 171.311,380.536 174.843,378.881 177.279,380.794 182.476,378.988 185.683,378.257 188.85,377.548 190.474,378.945 194.615,377.763 196.889,377.376 199.122,376.989 202.451,376.903 205.78,376.817 205.78,376.107 206.146,374.516 206.308,373.785 206.47,373.054 206.47,372.065 206.47,371.076 205.334,371.205 204.197,371.334 203.669,370.474 203.222,370.431 199.974,369.765 198.269,370.281 195.468,369.464 191.773,369.593 187.348,367.271 179.187,368.475 175.005,366.411 168.875,365.787 168.306,365.68 167.779,365.594 166.033,365.056 161.932,365.142 149.427,358.069 135.786,360.692 133.675,360.993 131.523,361.466 124.499,352.608 98.15,354.177 84.143,345.319 57.468,344.395 50.363,341.793 40.66,342.03 29.982,334.741 8.18,338.074 -3.026,330.914 -21.336,328.979 -26.289,328.248 -38.348,329.28 -78.339,311.865 -123.608,325.152Z" test="Smoke_22" vector-effect="non-scaling-stroke" stroke-width="1"/>
      <path id="Layer1_0_1_STROKES" stroke="#FFF" stroke-width="1" stroke-linejoin="round" stroke-linecap="round" fill="none" d="M205.78,376.817 Q202.451,376.903 199.122,376.989 196.889,377.376 194.615,377.763 190.474,378.945 188.85,377.548 185.683,378.257 182.476,378.988 177.279,380.794 174.843,378.881 171.311,380.536 165.789,380.902 159.253,382.127 156.005,380.493 149.712,385.847 139.074,384.6 124.864,390.233 103.996,387.739 101.885,391.222 95.267,392.899 88.203,394.877 76.185,394.877 61.447,399.865 51.541,396.167 48.618,396.769 45.694,397.328 34.651,400.789 31.078,396.489 22.796,398.575 14.554,400.617 .71,405.949 -4.934,400.101 -13.622,405.025 -28.279,405.992 -45.859,409.561 -53.532,404.53 -68.351,420.44 -96.243,416.463 -131.768,433.018 -187.187,425.17 -194.373,446.305 -257.994,444.628 -305.09,461.075 -331.439,440.198 -331.439,357.359 -331.439,274.52 -242.85,277.809 -208.989,306.125 -136.478,300.642 -123.608,325.152 -78.339,311.865 -38.348,329.28 -26.289,328.248 -21.336,328.979 -3.026,330.914 8.18,338.074 29.982,334.741 40.66,342.03 50.363,341.793 57.468,344.395 84.143,345.319 98.15,354.177 124.499,352.608 131.523,361.466 133.675,360.993 135.786,360.692 149.427,358.069 161.932,365.142 166.033,365.056 167.779,365.594 168.306,365.68 168.875,365.787 175.005,366.411 179.187,368.475 187.348,367.271 191.773,369.593 195.468,369.464 198.269,370.281 199.974,369.765 203.222,370.431 203.669,370.474 204.197,371.334 205.334,371.205 206.47,371.076 206.47,372.065 206.47,373.054 206.308,373.785 206.146,374.516 205.78,376.107 205.78,376.817Z" test="Smoke_22" vector-effect="non-scaling-stroke"/>
    </g>
    <g id="MotorBikePinkf5r1">
      <g id="RedBike-container">
        <path fill="#000" stroke="none" d="M159.521,339.425 Q162.222,344.489 167.147,346.049 172.072,347.609 198.757,342.725 225.417,337.786 240.549,326.849 239.573,323.909 238.314,320.502 L237.255,317.667 Q237.33,317.646 237.364,317.616 L237.163,317.044 206.198,325.594 Q196.993,327.7 179.835,327.464 169.554,327.409 158.324,326.466 158.543,327.362 157.82,330.231 157.126,333.02 157.225,333.373 158.671,337.891 159.521,339.425 M329.583,303.338 L328.438,302.741 323.717,311.874 338.899,315.431 341.82,317.262 Q345.247,311.988 347.532,308.399 L345.592,307.241 329.583,303.338 M283.145,278.365 Q283.56,283.099 265.751,286.031 L269.297,290.767 Q279.799,293.715 291.742,283.936 L288.933,274.793 282.083,271.536 Q281.62,271.686 281.212,271.81 L283.145,278.365 M265.751,286.031 Q283.56,283.099 283.145,278.365 L281.212,271.81 Q271.67,275.472 261.931,279.426 240.977,288.024 239.655,290.04 238.199,292.053 238.657,295.169 238.913,296.714 240.217,300.5 241.093,303.087 241.505,308.954 241.834,314.927 241.073,316.149 240.825,316.591 237.364,317.616 237.33,317.646 237.255,317.667 L238.314,320.502 Q239.573,323.909 240.549,326.849 225.417,337.786 198.757,342.725 172.072,347.609 167.147,346.049 162.222,344.489 159.521,339.425 158.671,337.891 157.225,333.373 157.126,333.02 157.82,330.231 158.543,327.362 158.324,326.466 158.302,326.347 158.222,326.247 157.749,324.982 154.506,327.985 149.862,332.154 131.331,345.079 122.013,351.5 113.66,357.137 118.928,370.257 118.546,370.436 118.163,370.615 139.34,368.905 159.417,367.976 159.742,367.958 177.859,367.679 183.404,370.281 188.016,372.454 191.902,374.499 192.354,374.754 192.861,374.983 195.265,376.274 197.356,377.477 197.493,377.575 197.568,377.644 198.341,378.072 199.03,378.492 204.051,381.539 207.989,384.693 209.127,385.559 210.155,386.477 212.503,388.509 214.393,390.556 222.866,399.847 233.845,418.488 233.984,418.786 241.46,415.261 241.541,415.256 241.569,415.21 252,410.331 276.319,398.231 278.075,397.36 279.82,396.461 299.102,386.912 318.354,377.18 316.873,375.009 315.351,371.326 312.252,363.984 311.856,356.444 311.446,348.444 314.71,336.197 316.982,327.809 320.046,320.117 320.107,319.822 320.249,319.555 321.432,316.672 323.717,311.874 L328.438,302.741 330.825,298.162 Q315.72,289.646 306.251,284.345 306.246,284.33 306.171,284.315 293.574,277.25 291.168,276.013 L289.385,275.048 288.933,274.793 291.742,283.936 Q279.799,293.715 269.297,290.767 L265.751,286.031 M247.502,362.091 Q258.392,362.593 264.839,367.837 271.206,373.051 274.791,382.43 276.584,387.119 277.239,390.942 L238.751,408.47 240.167,412.07 Q240.274,413.152 234.128,400.575 227.981,387 213.753,377.935 209.356,374.797 204.645,372.271 L201.288,370.644 207.807,370.06 Q217.566,368.428 227.102,365.035 236.557,361.614 247.502,362.091 M264.839,367.837 Q258.392,362.593 247.502,362.091 236.557,361.614 227.102,365.035 217.566,368.428 207.807,370.06 L201.288,370.644 204.645,372.271 Q209.356,374.797 213.753,377.935 227.981,387 234.128,400.575 240.274,413.152 240.167,412.07 L238.751,408.47 277.239,390.942 Q276.584,387.119 274.791,382.43 271.206,373.051 264.839,367.837 M304.021,248.094 Q278.917,242.116 269.978,243.365 263.043,244.343 261.915,247.201 261.653,247.923 261.407,250.103 261.215,252.257 260.611,253.671 262.98,258.025 266.334,259.787 268.784,261.039 277.42,264.127 278.607,264.577 284.325,267.358 284.401,267.369 284.405,267.387 292.433,271.211 309.08,279.426 333.51,291.512 336.222,291.044 340.802,290.301 347.793,286.167 355.797,281.493 355.623,277.845 355.453,274.062 351.795,270.511 349.085,267.849 338.886,260.563 330.091,254.286 304.021,248.094Z" test="RedBike container" stroke-width="1.207"/>
        <path id="Layer3_0_1_STROKES" stroke="#0FF" stroke-width="1.207" stroke-linejoin="round" stroke-linecap="round" fill="none" d="M260.611,253.671 Q261.215,252.257 261.407,250.103 261.653,247.923 261.915,247.201 263.043,244.343 269.978,243.365 278.917,242.116 304.021,248.094 330.091,254.286 338.886,260.563 349.085,267.849 351.795,270.511 355.453,274.062 355.623,277.845 355.797,281.493 347.793,286.167 340.802,290.301 336.222,291.044 333.51,291.512 309.08,279.426 292.433,271.211 284.445,267.402 284.401,267.369 284.352,267.345 278.607,264.577 277.42,264.127 268.784,261.039 266.334,259.787 262.98,258.025 260.611,253.671Z" test="RedBike container"/>
        <path id="Layer3_0_2_STROKES" stroke="#FFF" stroke-width="1.207" stroke-linejoin="round" stroke-linecap="round" fill="none" d="M288.933,274.793 L291.742,283.936 Q279.799,293.715 269.297,290.767 L265.751,286.031 Q283.56,283.099 283.145,278.365 L281.212,271.81 M289.385,275.048 L288.933,274.793 282.083,271.536 M281.212,271.81 L281.124,271.052 282.083,271.536 M345.592,307.241 L329.583,303.338 M323.717,311.874 L338.899,315.431" test="RedBike container"/>
        <path id="Layer3_0_3_STROKES" stroke="#FF0265" stroke-width="1.207" stroke-linejoin="round" stroke-linecap="round" fill="none" d="M281.212,271.81 Q271.67,275.472 261.931,279.426 240.977,288.024 239.655,290.04 238.199,292.053 238.657,295.169 238.913,296.714 240.217,300.5 241.093,303.087 241.505,308.954 241.834,314.927 241.073,316.149 240.825,316.591 237.404,317.631 237.33,317.646 237.255,317.667 L238.314,320.502 Q239.573,323.909 240.549,326.849 225.417,337.786 198.757,342.725 172.072,347.609 167.147,346.049 162.222,344.489 159.521,339.425 158.671,337.891 157.225,333.373 157.126,333.02 157.82,330.231 158.543,327.362 158.324,326.466 158.302,326.347 158.262,326.262 157.749,324.982 154.506,327.985 149.862,332.154 131.331,345.079 122.013,351.5 113.66,357.137 118.928,370.257 118.546,370.436 118.163,370.615 139.34,368.905 159.417,367.976 159.742,367.958 177.859,367.679 183.404,370.281 188.016,372.454 191.902,374.499 192.354,374.754 192.861,374.983 195.265,376.274 197.369,377.504 197.493,377.575 197.608,377.659 198.341,378.072 199.03,378.492 204.051,381.539 207.989,384.693 209.127,385.559 210.155,386.477 212.503,388.509 214.393,390.556 222.866,399.847 233.845,418.488 233.984,418.786 241.473,415.289 241.541,415.256 241.609,415.225 252,410.331 276.319,398.231 278.075,397.36 279.833,396.489 299.102,386.912 318.354,377.18 316.873,375.009 315.351,371.326 312.252,363.984 311.856,356.444 311.446,348.444 314.71,336.197 316.982,327.809 320.046,320.117 320.107,319.822 320.249,319.555 321.432,316.672 323.717,311.874 L328.438,302.741 330.825,298.162 Q315.72,289.646 306.292,284.359 306.246,284.33 306.199,284.303 293.574,277.25 291.168,276.013 L289.385,275.048 M281.212,271.81 Q281.62,271.686 282.083,271.536 282.302,271.434 282.575,271.306 L288.933,274.793 M158.324,326.466 Q169.554,327.409 179.835,327.464 196.993,327.7 206.198,325.594 L237.163,317.044 M204.645,372.271 Q209.356,374.797 213.753,377.935 227.981,387 234.128,400.575 240.274,413.152 240.167,412.07 L238.751,408.47 277.239,390.942 Q276.584,387.119 274.791,382.43 271.206,373.051 264.839,367.837 258.392,362.593 247.502,362.091 236.557,361.614 227.102,365.035 217.566,368.428 207.807,370.06 L201.315,370.631 204.645,372.271Z" test="RedBike container"/>
        <use xlink:href="#Bike-Wheel" transform="matrix(1.093 -.511 .511 1.093 381.7 332.55)"/>
        <use xlink:href="#Bike-Wheel" transform="matrix(1.093 -.511 .511 1.093 176.5 433.55)"/>
      </g>
    </g>
  </g>
</svg>