<?xml version="1.0" encoding="utf-8"?>
<svg id="EdithAnim11" image-rendering="inherit" baseProfile="basic" version="1.1" x="0px" y="0px" width="800" height="600" xmlns="http://www.w3.org/2000/svg" xmlns:xlink="http://www.w3.org/1999/xlink">
  <defs>
    <g id="Bike-Wheel" overflow="visible">
      <path id="Layer5_0_1_STROKES" stroke="#FFF" stroke-width="1" stroke-linejoin="round" stroke-linecap="round" fill="none" d="M2.05 -34.85Q-12.35 -34.85 -22.65 -26.45 -34 -17.2 -34.7 -1.55 -35.4 14.3 -26.6 24.6 -18.4 34.2 -5.6 34.85 7.15 35.5 19.2 29.8 31.25 24.1 34.05 7.25 36.85 -9.65 28.9 -21.15 19.4 -34.85 2.05 -34.85Z" test="Bike Wheel"/>
      <path id="Layer4_0_1_STROKES" stroke="#FFF" stroke-width="1" stroke-linejoin="round" stroke-linecap="round" fill="none" d="M.55 -26.55Q4.65 -26.85 7.1 -26.15 9.75 -25.4 12 -23.15 13.95 -21.25 8 -15.35 5.3 -12.6 2.25 -10.2 1.95 -10 1.7 -9.8M24.45 -8.9Q26.2 -5.15 26.45 -2.65 26.7 .1 25.4 3.05 24.35 5.5 16.7 2.1 13.2 .6 9.85 -1.4 9.5 -1.6 9.25 -1.75M18.45 20Q15.75 23.1 13.55 24.35 11.2 25.75 8 25.75 5.3 25.75 5.25 17.4 5.2 13.55 5.65 9.7 5.7 9.35 5.75 9M-25.15 -7.15Q-24.25 -11.2 -22.85 -13.3 -21.4 -15.6 -18.6 -17.1 -16.2 -18.45 -12.25 -11.05 -10.4 -7.65 -9 -4.1 -8.9 -3.7 -8.75 -3.4M-12.85 23.8Q-16.75 22.4 -18.7 20.8 -20.85 19.05 -22.05 16.1 -23.1 13.6 -15.3 10.55 -11.75 9.05 -8 8.05 -7.65 8 -7.3 7.95" test="Bike Wheel"/>
    </g>
  </defs>
  <g id="19_Motorbikesf83r1" overflow="visible">
    <g id="Smokef9r1">
      <path fill="#000" stroke="none" d="M511.806,45.26 Q502.827,42.975 481.489,46.083 410.235,-8.392 329.616,32.921 305.382,-43.672 177.067,-26.763 115.565,-115.238 -41.426,-125.658 -41.426,226.506 -41.426,578.671 5.208,644.661 88.048,594.3 199.66,600.424 212.983,535.53 310.402,560.939 373.256,510.303 422.4,523.191 448.662,474.109 462.372,490.013 493.268,479.136 519.047,476.303 534.398,461.222 544.536,479.684 568.867,463.324 583.446,457.017 598.025,450.802 604.494,464.329 623.9,453.635 629.017,451.899 634.135,450.162 672.272,479.959 731.071,443.399 779.539,444.587 806.766,430.511 832.448,417.715 839.014,391.209 921.95,410.495 976.501,367.537 1018.5,377.316 1041.769,336.369 1053.837,348.982 1080.003,339.751 1101.919,337.1 1115.34,324.304 1124.319,339.02 1144.981,325.31 1157.532,319.917 1169.987,314.525 1175.78,325.31 1192.29,316.353 1201.173,313.336 1209.959,310.32 1223.09,309.772 1236.124,309.223 1236.124,306.207 1236.993,299.444 1237.379,296.336 1237.765,293.228 1237.765,289.024 1237.765,284.82 1233.324,285.734 1228.786,286.556 1226.855,280.067 1225.407,279.518 1212.276,274.309 1206,277.965 1195.187,271.567 1180.704,272.298 1164.098,254.018 1131.657,262.884 1115.919,246.706 1091.975,241.405 1089.561,240.765 1087.244,240.216 1080.099,237.474 1062.817,239.302 1011.838,194.151 955.356,215.081 947.15,217.732 938.846,221.662 916.254,157.042 809.662,170.295 760.325,104.579 652.286,93.702 639.638,85.568 622.356,86.207 603.142,63.449 564.426,73.777 544.343,51.384 511.806,45.26Z" test="Smoke_1" stroke-width="1.879"/>
      <path id="Layer2_0_1_STROKES" stroke="#FFF" stroke-width="1.879" stroke-linejoin="round" stroke-linecap="round" fill="none" d="M1236.124,309.223 Q1223.09,309.772 1209.959,310.32 1201.173,313.336 1192.29,316.353 1175.78,325.31 1169.987,314.525 1157.532,319.917 1144.981,325.31 1124.319,339.02 1115.34,324.304 1101.919,337.1 1080.003,339.751 1053.837,348.982 1041.769,336.369 1018.5,377.316 976.501,367.537 921.95,410.495 839.014,391.209 832.448,417.715 806.766,430.511 779.539,444.587 731.071,443.399 672.272,479.959 634.135,450.162 629.017,451.899 623.9,453.635 604.494,464.329 598.025,450.802 583.446,457.017 568.867,463.324 544.536,479.684 534.398,461.222 519.047,476.303 493.268,479.136 462.372,490.013 448.662,474.109 422.4,523.191 373.256,510.303 310.402,560.939 212.983,535.53 199.66,600.424 88.048,594.3 5.208,644.661 -41.426,578.671 -41.426,226.506 -41.426,-125.658 115.565,-115.238 177.067,-26.763 305.382,-43.672 329.616,32.921 410.235,-8.392 481.489,46.083 502.827,42.975 511.806,45.26 544.343,51.384 564.426,73.777 603.142,63.449 622.356,86.207 639.638,85.568 652.286,93.702 760.325,104.579 809.662,170.295 916.254,157.042 938.846,221.662 947.15,217.732 955.356,215.081 1011.838,194.151 1062.817,239.302 1080.099,237.474 1087.244,240.216 1089.561,240.765 1091.975,241.405 1115.919,246.706 1131.657,262.884 1164.098,254.018 1180.704,272.298 1195.187,271.567 1206,277.965 1212.276,274.309 1225.407,279.518 1226.855,280.067 1228.786,286.556 1233.324,285.734 1237.765,284.82 1237.765,289.024 1237.765,293.228 1237.379,296.336 1236.993,299.444 1236.124,306.207 1236.124,309.223Z" test="Smoke_1"/>
    </g>
    <g id="Smokef6r1">
      <path fill="#000" stroke="none" d="M-112.989,317.623 Q-125.812,292.489 -196.996,298.106 -230.437,269.078 -317.469,265.703 -317.469,356.634 -317.469,447.564 -291.611,468.993 -245.39,452.214 -183.023,453.984 -175.867,432.413 -121.509,440.508 -86.62,423.61 -59.27,427.717 -44.701,411.456 -37.161,416.625 -19.908,412.99 -5.552,411 2.968,406.972 8.549,412.967 22.096,407.539 30.232,405.438 38.326,403.314 41.862,407.751 52.682,404.211 55.579,403.621 58.433,403.031 70.447,407.987 88.509,401.521 103.334,401.615 111.896,399.066 119.905,396.848 122.291,392.27 147.851,395.574 165.104,388.163 178.097,389.839 185.594,382.759 189.514,384.93 197.522,383.325 204.253,382.853 208.513,380.658 211.453,383.184 217.843,380.8 221.719,379.88 225.596,378.936 227.513,380.8 232.582,379.242 235.351,378.723 238.078,378.204 242.167,378.086 246.214,377.992 246.214,377.213 246.598,375.466 246.768,374.664 246.938,373.862 246.938,372.776 246.938,371.69 245.533,371.856 244.127,371.997 243.53,370.888 243.019,370.817 239.015,369.92 236.97,370.605 233.562,369.496 229.089,369.661 223.764,366.569 213.753,368.127 208.726,365.389 201.271,364.54 200.547,364.398 199.865,364.28 197.693,363.666 192.581,363.855 177.117,355.123 160.162,358.64 157.606,359.064 154.965,359.702 146.956,348.232 114.452,350.38 98.009,338.839 65.122,337.4 58.093,334.709 48.55,334.969 38.028,327.488 16.6,330.886 5.567,323.57 -12.41,321.564 -17.309,320.809 -29.152,321.871 -68.472,304.029 -112.989,317.623Z" test="Smoke_22" vector-effect="non-scaling-stroke" stroke-width="1"/>
      <path id="Layer1_0_1_STROKES" stroke="#FFF" stroke-width="1" stroke-linejoin="round" stroke-linecap="round" fill="none" d="M246.214,377.992 Q242.167,378.086 238.078,378.204 235.351,378.723 232.582,379.242 227.513,380.8 225.596,378.936 221.719,379.88 217.843,380.8 211.453,383.184 208.513,380.658 204.253,382.853 197.522,383.325 189.514,384.93 185.594,382.759 178.097,389.839 165.104,388.163 147.851,395.574 122.291,392.27 119.905,396.848 111.896,399.066 103.334,401.615 88.509,401.521 70.447,407.987 58.433,403.031 55.579,403.621 52.682,404.211 41.862,407.751 38.326,403.314 30.232,405.438 22.096,407.539 8.549,412.967 2.968,406.972 -5.552,411 -19.908,412.99 -37.161,416.625 -44.701,411.456 -59.27,427.717 -86.62,423.61 -121.509,440.508 -175.867,432.413 -183.023,453.984 -245.39,452.214 -291.611,468.993 -317.469,447.564 -317.469,356.634 -317.469,265.703 -230.437,269.078 -196.996,298.106 -125.812,292.489 -112.989,317.623 -68.472,304.029 -29.152,321.871 -17.309,320.809 -12.41,321.564 5.567,323.57 16.6,330.886 38.028,327.488 48.55,334.969 58.093,334.709 65.122,337.4 98.009,338.839 114.452,350.38 146.956,348.232 154.965,359.702 157.606,359.064 160.162,358.64 177.117,355.123 192.581,363.855 197.693,363.666 199.865,364.28 200.547,364.398 201.271,364.54 208.726,365.389 213.753,368.127 223.764,366.569 229.089,369.661 233.562,369.496 236.97,370.605 239.015,369.92 243.019,370.817 243.53,370.888 244.127,371.997 245.533,371.856 246.938,371.69 246.938,372.776 246.938,373.862 246.768,374.664 246.598,375.466 246.214,377.213 246.214,377.992Z" test="Smoke_22" vector-effect="non-scaling-stroke"/>
    </g>
    <g id="MotorBikePinkf6r1">
      <g id="RedBike-container">
        <path fill="#000" stroke="none" d="M187.623,341.145 Q190.772,345.952 195.824,347.065 200.875,348.177 227.048,340.904 253.19,333.579 267.296,321.309 266.059,318.465 264.496,315.181 L263.184,312.449 Q263.257,312.421 263.289,312.388 L263.037,311.836 232.926,323.15 Q223.937,326.079 206.804,327.388 196.546,328.259 185.262,328.33 185.562,329.204 185.099,332.13 184.657,334.973 184.788,335.317 186.637,339.692 187.623,341.145 M353.969,289.847 L352.774,289.355 348.888,298.888 364.349,301.068 367.426,302.632 Q370.37,297.063 372.325,293.278 L370.286,292.298 353.969,289.847 M305.41,269.124 Q306.25,273.807 288.754,278.334 L292.717,282.737 Q303.455,284.732 314.486,273.904 L310.861,265.04 303.737,262.409 Q303.289,262.6 302.893,262.76 L305.41,269.124 M288.754,278.334 Q306.25,273.807 305.41,269.124 L302.893,262.76 Q293.706,267.272 284.35,272.091 264.228,282.552 263.091,284.682 261.82,286.82 262.557,289.886 262.952,291.404 264.593,295.062 265.7,297.563 266.639,303.377 267.504,309.304 266.856,310.591 266.648,311.055 263.289,312.388 263.257,312.421 263.184,312.449 L264.496,315.181 Q266.059,318.465 267.296,321.309 253.19,333.579 227.048,340.904 200.875,348.177 195.824,347.065 190.772,345.952 187.623,341.145 186.637,339.692 184.788,335.317 184.657,334.973 185.099,332.13 185.562,329.204 185.262,328.33 185.229,328.213 185.141,328.121 184.555,326.902 181.591,330.188 177.335,334.764 160.019,349.322 151.304,356.564 143.482,362.937 149.917,375.547 149.551,375.76 149.186,375.973 170.151,372.362 190.09,369.628 190.411,369.58 208.453,367.671 214.218,369.767 219.012,371.518 223.072,373.208 223.546,373.422 224.072,373.605 226.586,374.675 228.78,375.686 228.925,375.772 229.006,375.834 229.815,376.192 230.54,376.549 235.821,379.135 240.033,381.925 241.245,382.687 242.354,383.51 244.879,385.325 246.947,387.196 256.233,395.699 268.861,413.301 269.026,413.585 276.164,409.397 276.245,409.385 276.268,409.336 286.231,403.531 309.394,389.276 311.068,388.248 312.726,387.195 331.096,375.937 349.42,364.498 347.747,362.466 345.897,358.93 342.145,351.887 341.072,344.403 339.943,336.463 342.096,323.954 343.606,315.385 345.969,307.438 346.004,307.138 346.121,306.86 347.041,303.878 348.888,298.888 L352.774,289.355 354.742,284.573 Q338.912,277.441 328.992,273.006 328.985,272.992 328.909,272.984 315.71,267.072 313.2,266.055 L311.335,265.254 310.861,265.04 314.486,273.904 Q303.455,284.732 292.717,282.737 L288.754,278.334 M277.402,355.828 Q288.308,355.349 295.21,359.998 302.029,364.625 306.449,373.655 308.659,378.17 309.656,381.923 L272.851,402.868 274.588,406.33 Q274.791,407.4 267.53,395.411 260.268,383.423 245.173,374.668 240.505,371.934 235.58,369.839 L232.085,368.519 238.534,367.349 Q248.12,364.843 257.323,360.601 266.445,356.338 277.402,355.828 M295.21,359.998 Q288.308,355.349 277.402,355.828 266.445,356.338 257.323,360.601 248.12,364.843 238.534,367.349 L232.085,368.519 235.58,369.839 Q240.505,371.934 245.173,374.668 260.268,383.423 267.53,395.411 274.791,407.4 274.588,406.33 L272.851,402.868 309.656,381.923 Q308.659,378.17 306.449,373.655 302.029,364.625 295.21,359.998 M323.504,237.056 Q297.931,233.354 289.129,235.405 282.301,237.004 281.433,239.956 281.237,240.7 281.188,242.895 281.191,245.061 280.716,246.526 283.469,250.654 286.973,252.109 289.529,253.137 298.419,255.439 299.644,255.782 305.596,258.04 305.673,258.045 305.679,258.062 314.029,261.153 331.37,267.846 356.821,277.7 359.483,276.989 363.984,275.836 370.584,271.083 378.145,265.701 377.643,262.079 377.133,258.322 373.165,255.11 370.223,252.699 359.396,246.352 350.06,240.884 323.504,237.056Z" test="RedBike container" stroke-width="1.208"/>
        <path id="Layer3_0_1_STROKES" stroke="#0FF" stroke-width="1.208" stroke-linejoin="round" stroke-linecap="round" fill="none" d="M280.716,246.526 Q281.191,245.061 281.188,242.895 281.237,240.7 281.433,239.956 282.301,237.004 289.129,235.405 297.931,233.354 323.504,237.056 350.06,240.884 359.396,246.352 370.223,252.699 373.165,255.11 377.133,258.322 377.643,262.079 378.145,265.701 370.584,271.083 363.984,275.836 359.483,276.989 356.821,277.7 331.37,267.846 314.029,261.153 305.72,258.073 305.673,258.045 305.622,258.025 299.644,255.782 298.419,255.439 289.529,253.137 286.973,252.109 283.469,250.654 280.716,246.526Z" test="RedBike container"/>
        <path id="Layer3_0_2_STROKES" stroke="#FFF" stroke-width="1.208" stroke-linejoin="round" stroke-linecap="round" fill="none" d="M310.861,265.04 L314.486,273.904 Q303.455,284.732 292.717,282.737 L288.754,278.334 Q306.25,273.807 305.41,269.124 L302.893,262.76 M311.335,265.254 L310.861,265.04 303.737,262.409 M302.893,262.76 L302.737,262.012 303.737,262.409 M370.286,292.298 L353.969,289.847 M348.888,298.888 L364.349,301.068" test="RedBike container"/>
        <path id="Layer3_0_3_STROKES" stroke="#FF0265" stroke-width="1.208" stroke-linejoin="round" stroke-linecap="round" fill="none" d="M302.893,262.76 Q293.706,267.272 284.35,272.091 264.228,282.552 263.091,284.682 261.82,286.82 262.557,289.886 262.952,291.404 264.593,295.062 265.7,297.563 266.639,303.377 267.504,309.304 266.856,310.591 266.648,311.055 263.33,312.399 263.257,312.421 263.184,312.449 L264.496,315.181 Q266.059,318.465 267.296,321.309 253.19,333.579 227.048,340.904 200.875,348.177 195.824,347.065 190.772,345.952 187.623,341.145 186.637,339.692 184.788,335.317 184.657,334.973 185.099,332.13 185.562,329.204 185.262,328.33 185.229,328.213 185.182,328.132 184.555,326.902 181.591,330.188 177.335,334.764 160.019,349.322 151.304,356.564 143.482,362.937 149.917,375.547 149.551,375.76 149.186,375.973 170.151,372.362 190.09,369.628 190.411,369.58 208.453,367.671 214.218,369.767 219.012,371.518 223.072,373.208 223.546,373.422 224.072,373.605 226.586,374.675 228.795,375.713 228.925,375.772 229.047,375.845 229.815,376.192 230.54,376.549 235.821,379.135 240.033,381.925 241.245,382.687 242.354,383.51 244.879,385.325 246.947,387.196 256.233,395.699 268.861,413.301 269.026,413.585 276.179,409.423 276.245,409.385 276.31,409.347 286.231,403.531 309.394,389.276 311.068,388.248 312.742,387.221 331.096,375.937 349.42,364.498 347.747,362.466 345.897,358.93 342.145,351.887 341.072,344.403 339.943,336.463 342.096,323.954 343.606,315.385 345.969,307.438 346.004,307.138 346.121,306.86 347.041,303.878 348.888,298.888 L352.774,289.355 354.742,284.573 Q338.912,277.441 329.033,273.017 328.985,272.992 328.936,272.969 315.71,267.072 313.2,266.055 L311.335,265.254 M302.893,262.76 Q303.289,262.6 303.737,262.409 303.945,262.287 304.206,262.135 L310.861,265.04 M185.262,328.33 Q196.546,328.259 206.804,327.388 223.937,326.079 232.926,323.15 L263.037,311.836 M235.58,369.839 Q240.505,371.934 245.173,374.668 260.268,383.423 267.53,395.411 274.791,407.4 274.588,406.33 L272.851,402.868 309.656,381.923 Q308.659,378.17 306.449,373.655 302.029,364.625 295.21,359.998 288.308,355.349 277.402,355.828 266.445,356.338 257.323,360.601 248.12,364.843 238.534,367.349 L232.111,368.503 235.58,369.839Z" test="RedBike container"/>
        <use xlink:href="#Bike-Wheel" transform="matrix(1.044 -.608 .608 1.044 408.6 314.25)"/>
        <use xlink:href="#Bike-Wheel" transform="matrix(1.044 -.608 .608 1.044 213 433.5)"/>
      </g>
    </g>
  </g>
</svg>