<?xml version="1.0" encoding="utf-8"?>
<svg id="EdithAnim11" image-rendering="inherit" baseProfile="basic" version="1.1" x="0px" y="0px" width="800" height="600" xmlns="http://www.w3.org/2000/svg" xmlns:xlink="http://www.w3.org/1999/xlink">
  <defs>
    <g id="Bike-Wheel" overflow="visible">
      <path id="Layer5_0_1_STROKES" stroke="#FFF" stroke-width="1" stroke-linejoin="round" stroke-linecap="round" fill="none" d="M2.05 -34.85Q-12.35 -34.85 -22.65 -26.45 -34 -17.2 -34.7 -1.55 -35.4 14.3 -26.6 24.6 -18.4 34.2 -5.6 34.85 7.15 35.5 19.2 29.8 31.25 24.1 34.05 7.25 36.85 -9.65 28.9 -21.15 19.4 -34.85 2.05 -34.85Z" test="Bike Wheel"/>
      <path id="Layer4_0_1_STROKES" stroke="#FFF" stroke-width="1" stroke-linejoin="round" stroke-linecap="round" fill="none" d="M.55 -26.55Q4.65 -26.85 7.1 -26.15 9.75 -25.4 12 -23.15 13.95 -21.25 8 -15.35 5.3 -12.6 2.25 -10.2 1.95 -10 1.7 -9.8M24.45 -8.9Q26.2 -5.15 26.45 -2.65 26.7 .1 25.4 3.05 24.35 5.5 16.7 2.1 13.2 .6 9.85 -1.4 9.5 -1.6 9.25 -1.75M18.45 20Q15.75 23.1 13.55 24.35 11.2 25.75 8 25.75 5.3 25.75 5.25 17.4 5.2 13.55 5.65 9.7 5.7 9.35 5.75 9M-25.15 -7.15Q-24.25 -11.2 -22.85 -13.3 -21.4 -15.6 -18.6 -17.1 -16.2 -18.45 -12.25 -11.05 -10.4 -7.65 -9 -4.1 -8.9 -3.7 -8.75 -3.4M-12.85 23.8Q-16.75 22.4 -18.7 20.8 -20.85 19.05 -22.05 16.1 -23.1 13.6 -15.3 10.55 -11.75 9.05 -8 8.05 -7.65 8 -7.3 7.95" test="Bike Wheel"/>
    </g>
  </defs>
  <g id="19_Motorbikesf84r1" overflow="visible">
    <g id="Smokef10r1">
      <path fill="#000" stroke="none" d="M532.512,46.156 Q513.451,24.844 482.612,18.988 474.129,16.684 453.97,19.66 386.405,-32.372 310.058,6.988 286.605,-66.26 165.448,-50.132 106.766,-134.708 -41.637,-144.692 -41.637,225.196 -41.637,595.084 2.375,658.444 80.518,610.636 185.707,616.876 198.482,555.244 290.298,579.916 349.679,531.82 395.986,544.3 420.836,497.644 433.81,512.908 462.952,502.636 487.203,500.044 501.774,485.74 511.355,503.404 534.309,487.852 548.081,481.9 561.854,475.948 567.941,489.004 586.205,478.828 591.095,477.196 595.985,475.564 639.099,510.604 706.065,468.172 761.254,469.708 792.092,453.388 821.134,438.508 828.32,407.5 922.73,430.06 984.507,380.044 1032.211,391.468 1058.458,343.66 1072.031,358.444 1101.871,347.596 1126.722,344.524 1141.891,329.644 1152.071,346.828 1175.524,330.796 1189.695,324.556 1203.867,318.22 1210.454,330.892 1229.116,320.428 1239.196,316.876 1249.276,313.324 1264.146,312.748 1278.917,312.076 1278.917,308.908 1279.815,301.804 1280.214,298.54 1280.613,295.276 1280.613,290.86 1280.613,286.444 1275.523,287.5 1270.434,288.46 1268.338,280.876 1266.641,280.3 1251.671,274.06 1244.685,278.38 1232.41,270.796 1215.943,271.66 1197.18,250.348 1160.254,260.524 1142.59,241.612 1115.344,235.372 1112.65,234.604 1109.855,234.028 1101.772,230.956 1082.011,233.26 1023.728,181.9 959.257,206.476 949.876,209.644 940.395,214.252 915.545,139.372 793.988,155.02 738,78.604 615.746,65.356 603.67,57.484 587.402,58.156 569.039,36.364 532.512,46.156Z" test="Smoke_1" stroke-width="1.958"/>
      <path id="Layer2_0_1_STROKES" stroke="#FFF" stroke-width="1.958" stroke-linejoin="round" stroke-linecap="round" fill="none" d="M1278.917,312.076 Q1264.146,312.748 1249.276,313.324 1239.196,316.876 1229.116,320.428 1210.454,330.892 1203.867,318.22 1189.695,324.556 1175.524,330.796 1152.071,346.828 1141.891,329.644 1126.722,344.524 1101.871,347.596 1072.031,358.444 1058.458,343.66 1032.211,391.468 984.507,380.044 922.73,430.06 828.32,407.5 821.134,438.508 792.092,453.388 761.254,469.708 706.065,468.172 639.099,510.604 595.985,475.564 591.095,477.196 586.205,478.828 567.941,489.004 561.854,475.948 548.081,481.9 534.309,487.852 511.355,503.404 501.774,485.74 487.203,500.044 462.952,502.636 433.81,512.908 420.836,497.644 395.986,544.3 349.679,531.82 290.298,579.916 198.482,555.244 185.707,616.876 80.518,610.636 2.375,658.444 -41.637,595.084 -41.637,225.196 -41.637,-144.692 106.766,-134.708 165.448,-50.132 286.605,-66.26 310.058,6.988 386.405,-32.372 453.97,19.66 474.129,16.684 482.612,18.988 513.451,24.844 532.512,46.156 569.039,36.364 587.402,58.156 603.67,57.484 615.746,65.356 738,78.604 793.988,155.02 915.545,139.372 940.395,214.252 949.876,209.644 959.257,206.476 1023.728,181.9 1082.011,233.26 1101.772,230.956 1109.855,234.028 1112.65,234.604 1115.344,235.372 1142.59,241.612 1160.254,260.524 1197.18,250.348 1215.943,271.66 1232.41,270.796 1244.685,278.38 1251.671,274.06 1266.641,280.3 1268.338,280.876 1270.434,288.46 1275.523,287.5 1280.613,286.444 1280.613,290.86 1280.613,295.276 1280.214,298.54 1279.815,301.804 1278.917,308.908 1278.917,312.076Z" test="Smoke_1"/>
    </g>
    <g id="Smokef7r1">
      <path fill="#000" stroke="none" d="M-18.01,313.257 Q-56.583,295.014 -100.263,308.897 -113.031,283.207 -182.74,288.942 -215.713,259.281 -301.012,255.829 -301.012,355.815 -301.012,455.8 -275.7,477.754 -230.452,460.679 -169.479,462.573 -162.401,440.619 -109.223,448.949 -75.041,431.77 -48.25,436 -33.959,419.444 -26.567,424.712 -9.722,421.027 4.345,420.041 12.722,414.929 18.188,421.079 31.449,415.552 39.423,413.424 47.353,411.27 50.802,415.785 61.375,412.178 64.242,411.607 67.02,410.984 81.356,417.446 103.129,409.246 120.959,409.427 131.174,406.21 140.761,403.381 143.494,397.516 174.226,401.772 194.745,392.274 210.38,394.428 219.206,385.372 223.82,388.148 233.497,386.098 241.606,385.501 246.668,382.699 250.118,385.943 257.778,382.881 262.438,381.687 267.097,380.493 269.337,382.881 275.43,380.882 278.745,380.234 282.06,379.559 286.943,379.429 291.782,379.299 291.782,378.443 292.185,376.523 292.364,375.641 292.543,374.758 292.543,373.564 292.543,372.371 290.886,372.578 289.183,372.76 288.466,371.333 287.884,371.229 283.046,370.087 280.671,370.918 276.594,369.516 271.218,369.698 264.902,365.702 252.85,367.674 246.892,364.145 237.977,363.029 237.126,362.847 236.23,362.717 233.631,362.017 227.359,362.328 208.633,351.637 188.025,356.204 184.978,356.775 181.842,357.605 172.703,343.073 133.458,345.928 114.284,331.24 74.502,329.138 67.602,326.413 58.284,326.647 47.89,319.018 26.924,322.469 16.082,314.995 -1.569,312.971 -6.407,312.193 -18.01,313.257Z" test="Smoke_22" vector-effect="non-scaling-stroke" stroke-width="1"/>
      <path id="Layer1_0_1_STROKES" stroke="#FFF" stroke-width="1" stroke-linejoin="round" stroke-linecap="round" fill="none" d="M291.782,379.299 Q286.943,379.429 282.06,379.559 278.745,380.234 275.43,380.882 269.337,382.881 267.097,380.493 262.438,381.687 257.778,382.881 250.118,385.943 246.668,382.699 241.606,385.501 233.497,386.098 223.82,388.148 219.206,385.372 210.38,394.428 194.745,392.274 174.226,401.772 143.494,397.516 140.761,403.381 131.174,406.21 120.959,409.427 103.129,409.246 81.356,417.446 67.02,410.984 64.242,411.607 61.375,412.178 50.802,415.785 47.353,411.27 39.423,413.424 31.449,415.552 18.188,421.079 12.722,414.929 4.345,420.041 -9.722,421.027 -26.567,424.712 -33.959,419.444 -48.25,436 -75.041,431.77 -109.223,448.949 -162.401,440.619 -169.479,462.573 -230.452,460.679 -275.7,477.754 -301.012,455.8 -301.012,355.815 -301.012,255.829 -215.713,259.281 -182.74,288.942 -113.031,283.207 -100.263,308.897 -56.583,295.014 -18.01,313.257 -6.407,312.193 -1.569,312.971 16.082,314.995 26.924,322.469 47.89,319.018 58.284,326.647 67.602,326.413 74.502,329.138 114.284,331.24 133.458,345.928 172.703,343.073 181.842,357.605 184.978,356.775 188.025,356.204 208.633,351.637 227.359,362.328 233.631,362.017 236.23,362.717 237.126,362.847 237.977,363.029 246.892,364.145 252.85,367.674 264.902,365.702 271.218,369.698 276.594,369.516 280.671,370.918 283.046,370.087 287.884,371.229 288.466,371.333 289.183,372.76 290.886,372.578 292.543,372.371 292.543,373.564 292.543,374.758 292.364,375.641 292.185,376.523 291.782,378.443 291.782,379.299Z" test="Smoke_22" vector-effect="non-scaling-stroke"/>
    </g>
    <g id="MotorBikePinkf6r1">
      <g id="RedBike-container">
        <path fill="#000" stroke="none" d="M228.773,341.145 Q231.922,345.952 236.974,347.065 242.025,348.177 268.198,340.904 294.34,333.579 308.446,321.309 307.209,318.465 305.646,315.181 L304.334,312.449 Q304.407,312.421 304.439,312.388 L304.187,311.836 274.076,323.15 Q265.087,326.079 247.954,327.388 237.696,328.259 226.412,328.33 226.712,329.204 226.249,332.13 225.807,334.973 225.938,335.317 227.787,339.692 228.773,341.145 M395.119,289.847 L393.924,289.355 390.038,298.888 405.499,301.068 408.576,302.632 Q411.52,297.063 413.475,293.278 L411.436,292.298 395.119,289.847 M346.56,269.124 Q347.4,273.807 329.904,278.334 L333.867,282.737 Q344.605,284.732 355.636,273.904 L352.011,265.04 344.887,262.409 Q344.439,262.6 344.043,262.76 L346.56,269.124 M329.904,278.334 Q347.4,273.807 346.56,269.124 L344.043,262.76 Q334.856,267.272 325.5,272.091 305.378,282.552 304.241,284.682 302.97,286.82 303.707,289.886 304.102,291.404 305.743,295.062 306.85,297.563 307.789,303.377 308.654,309.304 308.006,310.591 307.798,311.055 304.439,312.388 304.407,312.421 304.334,312.449 L305.646,315.181 Q307.209,318.465 308.446,321.309 294.34,333.579 268.198,340.904 242.025,348.177 236.974,347.065 231.922,345.952 228.773,341.145 227.787,339.692 225.938,335.317 225.807,334.973 226.249,332.13 226.712,329.204 226.412,328.33 226.379,328.213 226.291,328.121 225.705,326.902 222.741,330.188 218.485,334.764 201.169,349.322 192.454,356.564 184.632,362.937 191.067,375.547 190.701,375.76 190.336,375.973 211.301,372.362 231.24,369.628 231.561,369.58 249.603,367.671 255.368,369.767 260.162,371.518 264.222,373.208 264.696,373.422 265.222,373.605 267.736,374.675 269.93,375.686 270.075,375.772 270.156,375.834 270.965,376.192 271.69,376.549 276.971,379.135 281.183,381.925 282.395,382.687 283.504,383.51 286.029,385.325 288.097,387.196 297.383,395.699 310.011,413.301 310.176,413.585 317.314,409.397 317.395,409.385 317.418,409.336 327.381,403.531 350.544,389.276 352.218,388.248 353.876,387.195 372.246,375.937 390.57,364.498 388.897,362.466 387.047,358.93 383.295,351.887 382.222,344.403 381.093,336.463 383.246,323.954 384.756,315.385 387.119,307.438 387.154,307.138 387.271,306.86 388.191,303.878 390.038,298.888 L393.924,289.355 395.892,284.573 Q380.062,277.441 370.142,273.006 370.135,272.992 370.059,272.984 356.86,267.072 354.35,266.055 L352.485,265.254 352.011,265.04 355.636,273.904 Q344.605,284.732 333.867,282.737 L329.904,278.334 M318.552,355.828 Q329.458,355.349 336.36,359.998 343.179,364.625 347.599,373.655 349.809,378.17 350.806,381.923 L314.001,402.868 315.738,406.33 Q315.941,407.4 308.68,395.411 301.418,383.423 286.323,374.668 281.655,371.934 276.73,369.839 L273.235,368.519 279.684,367.349 Q289.27,364.843 298.473,360.601 307.595,356.338 318.552,355.828 M336.36,359.998 Q329.458,355.349 318.552,355.828 307.595,356.338 298.473,360.601 289.27,364.843 279.684,367.349 L273.235,368.519 276.73,369.839 Q281.655,371.934 286.323,374.668 301.418,383.423 308.68,395.411 315.941,407.4 315.738,406.33 L314.001,402.868 350.806,381.923 Q349.809,378.17 347.599,373.655 343.179,364.625 336.36,359.998 M364.654,237.056 Q339.081,233.354 330.279,235.405 323.451,237.004 322.583,239.956 322.387,240.7 322.338,242.895 322.341,245.061 321.866,246.526 324.619,250.654 328.123,252.109 330.679,253.137 339.569,255.439 340.794,255.782 346.746,258.04 346.823,258.045 346.829,258.062 355.179,261.153 372.52,267.846 397.971,277.7 400.633,276.989 405.134,275.836 411.734,271.083 419.295,265.701 418.793,262.079 418.283,258.322 414.315,255.11 411.373,252.699 400.546,246.352 391.21,240.884 364.654,237.056Z" test="RedBike container" stroke-width="1.208"/>
        <path id="Layer3_0_1_STROKES" stroke="#0FF" stroke-width="1.208" stroke-linejoin="round" stroke-linecap="round" fill="none" d="M321.866,246.526 Q322.341,245.061 322.338,242.895 322.387,240.7 322.583,239.956 323.451,237.004 330.279,235.405 339.081,233.354 364.654,237.056 391.21,240.884 400.546,246.352 411.373,252.699 414.315,255.11 418.283,258.322 418.793,262.079 419.295,265.701 411.734,271.083 405.134,275.836 400.633,276.989 397.971,277.7 372.52,267.846 355.179,261.153 346.87,258.073 346.823,258.045 346.773,258.025 340.794,255.782 339.569,255.439 330.679,253.137 328.123,252.109 324.619,250.654 321.866,246.526Z" test="RedBike container"/>
        <path id="Layer3_0_2_STROKES" stroke="#FFF" stroke-width="1.208" stroke-linejoin="round" stroke-linecap="round" fill="none" d="M352.011,265.04 L355.636,273.904 Q344.605,284.732 333.867,282.737 L329.904,278.334 Q347.4,273.807 346.56,269.124 L344.043,262.76 M352.485,265.254 L352.011,265.04 344.887,262.409 M344.043,262.76 L343.887,262.012 344.887,262.409 M411.436,292.298 L395.119,289.847 M390.038,298.888 L405.499,301.068" test="RedBike container"/>
        <path id="Layer3_0_3_STROKES" stroke="#FF0265" stroke-width="1.208" stroke-linejoin="round" stroke-linecap="round" fill="none" d="M344.043,262.76 Q334.856,267.272 325.5,272.091 305.378,282.552 304.241,284.682 302.97,286.82 303.707,289.886 304.102,291.404 305.743,295.062 306.85,297.563 307.789,303.377 308.654,309.304 308.006,310.591 307.798,311.055 304.48,312.399 304.407,312.421 304.334,312.449 L305.646,315.181 Q307.209,318.465 308.446,321.309 294.34,333.579 268.198,340.904 242.025,348.177 236.974,347.065 231.922,345.952 228.773,341.145 227.787,339.692 225.938,335.317 225.807,334.973 226.249,332.13 226.712,329.204 226.412,328.33 226.379,328.213 226.332,328.132 225.705,326.902 222.741,330.188 218.485,334.764 201.169,349.322 192.454,356.564 184.632,362.937 191.067,375.547 190.701,375.76 190.336,375.973 211.301,372.362 231.24,369.628 231.561,369.58 249.603,367.671 255.368,369.767 260.162,371.518 264.222,373.208 264.696,373.422 265.222,373.605 267.736,374.675 269.945,375.713 270.075,375.772 270.197,375.845 270.965,376.192 271.69,376.549 276.971,379.135 281.183,381.925 282.395,382.687 283.504,383.51 286.029,385.325 288.097,387.196 297.383,395.699 310.011,413.301 310.176,413.585 317.329,409.423 317.395,409.385 317.46,409.347 327.381,403.531 350.544,389.276 352.218,388.248 353.892,387.221 372.246,375.937 390.57,364.498 388.897,362.466 387.047,358.93 383.295,351.887 382.222,344.403 381.093,336.463 383.246,323.954 384.756,315.385 387.119,307.438 387.154,307.138 387.271,306.86 388.191,303.878 390.038,298.888 L393.924,289.355 395.892,284.573 Q380.062,277.441 370.183,273.017 370.135,272.992 370.086,272.969 356.86,267.072 354.35,266.055 L352.485,265.254 M344.043,262.76 Q344.439,262.6 344.887,262.409 345.095,262.287 345.356,262.135 L352.011,265.04 M226.412,328.33 Q237.696,328.259 247.954,327.388 265.087,326.079 274.076,323.15 L304.187,311.836 M276.73,369.839 Q281.655,371.934 286.323,374.668 301.418,383.423 308.68,395.411 315.941,407.4 315.738,406.33 L314.001,402.868 350.806,381.923 Q349.809,378.17 347.599,373.655 343.179,364.625 336.36,359.998 329.458,355.349 318.552,355.828 307.595,356.338 298.473,360.601 289.27,364.843 279.684,367.349 L273.261,368.503 276.73,369.839Z" test="RedBike container"/>
        <use xlink:href="#Bike-Wheel" transform="matrix(1.044 -.608 .608 1.044 449.75 314.25)"/>
        <use xlink:href="#Bike-Wheel" transform="matrix(1.044 -.608 .608 1.044 254.15 433.5)"/>
      </g>
    </g>
  </g>
</svg>