<?xml version="1.0" encoding="utf-8"?>
<svg id="EdithAnim11" image-rendering="inherit" baseProfile="basic" version="1.1" x="0px" y="0px" width="800" height="600" xmlns="http://www.w3.org/2000/svg" xmlns:xlink="http://www.w3.org/1999/xlink">
  <defs>
    <g id="Bike-Wheel" overflow="visible">
      <path id="Layer5_0_1_STROKES" stroke="#FFF" stroke-width="1" stroke-linejoin="round" stroke-linecap="round" fill="none" d="M2.05 -34.85Q-12.35 -34.85 -22.65 -26.45 -34 -17.2 -34.7 -1.55 -35.4 14.3 -26.6 24.6 -18.4 34.2 -5.6 34.85 7.15 35.5 19.2 29.8 31.25 24.1 34.05 7.25 36.85 -9.65 28.9 -21.15 19.4 -34.85 2.05 -34.85Z" test="Bike Wheel"/>
      <path id="Layer4_0_1_STROKES" stroke="#FFF" stroke-width="1" stroke-linejoin="round" stroke-linecap="round" fill="none" d="M.55 -26.55Q4.65 -26.85 7.1 -26.15 9.75 -25.4 12 -23.15 13.95 -21.25 8 -15.35 5.3 -12.6 2.25 -10.2 1.95 -10 1.7 -9.8M24.45 -8.9Q26.2 -5.15 26.45 -2.65 26.7 .1 25.4 3.05 24.35 5.5 16.7 2.1 13.2 .6 9.85 -1.4 9.5 -1.6 9.25 -1.75M18.45 20Q15.75 23.1 13.55 24.35 11.2 25.75 8 25.75 5.3 25.75 5.25 17.4 5.2 13.55 5.65 9.7 5.7 9.35 5.75 9M-25.15 -7.15Q-24.25 -11.2 -22.85 -13.3 -21.4 -15.6 -18.6 -17.1 -16.2 -18.45 -12.25 -11.05 -10.4 -7.65 -9 -4.1 -8.9 -3.7 -8.75 -3.4M-12.85 23.8Q-16.75 22.4 -18.7 20.8 -20.85 19.05 -22.05 16.1 -23.1 13.6 -15.3 10.55 -11.75 9.05 -8 8.05 -7.65 8 -7.3 7.95" test="Bike Wheel"/>
    </g>
  </defs>
  <g id="19_Motorbikesf85r1" overflow="visible">
    <g id="Smokef11r1">
      <path fill="#000" stroke="none" d="M288.527,-20.472 Q265.959,-89.584 152.707,-74.393 97.163,-154.27 -41.748,-163.726 -41.748,223.886 -41.748,611.497 -.631,671.656 72.225,626.889 170.329,633.227 182.489,575.382 268.226,599.124 323.667,554.055 366.845,566.127 390.237,522.265 402.294,536.752 429.499,527.195 452.17,524.881 465.876,511.501 474.841,528.201 496.276,513.614 509.157,508.181 522.038,502.548 527.706,514.921 544.709,505.465 549.347,503.956 553.881,502.346 602.314,542.989 677.747,494.298 739.989,496.21 774.614,477.498 807.281,460.396 815.113,424.683 921.46,450.739 990.813,393.095 1044.502,406.273 1073.871,351.245 1089.122,368.247 1122.717,355.772 1150.746,352.151 1167.75,335.149 1179.085,354.967 1205.569,336.457 1221.439,329.214 1237.411,321.87 1244.728,336.558 1265.75,324.486 1277.086,320.462 1288.421,316.337 1305.115,315.633 1321.809,314.929 1321.809,311.609 1322.737,304.164 1323.149,300.744 1323.561,297.324 1323.561,292.696 1323.561,288.068 1317.79,289.175 1312.02,290.382 1309.752,281.529 1307.795,280.926 1290.997,273.683 1283.166,278.713 1269.357,269.86 1250.808,270.866 1229.889,246.219 1188.257,257.888 1168.471,235.958 1137.762,228.815 1134.774,227.91 1131.579,227.205 1122.408,223.886 1100.046,226.702 1034.197,168.757 961.237,197.126 950.726,200.949 940.009,206.281 912.804,120.368 775.541,138.577 714.536,50.753 575.418,34.959 563.98,27.514 548.728,28.219 531.416,7.596 497.306,16.75 479.273,-3.37 450.419,-8.903 442.381,-11.116 423.522,-8.299 360.044,-57.392 288.527,-20.472Z" test="Smoke_1" stroke-width="2.036"/>
      <path id="Layer2_0_1_STROKES" stroke="#FFF" stroke-width="2.036" stroke-linejoin="round" stroke-linecap="round" fill="none" d="M1321.809,314.929 Q1305.115,315.633 1288.421,316.337 1277.086,320.462 1265.75,324.486 1244.728,336.558 1237.411,321.87 1221.439,329.214 1205.569,336.457 1179.085,354.967 1167.75,335.149 1150.746,352.151 1122.717,355.772 1089.122,368.247 1073.871,351.245 1044.502,406.273 990.813,393.095 921.46,450.739 815.113,424.683 807.281,460.396 774.614,477.498 739.989,496.21 677.747,494.298 602.314,542.989 553.881,502.346 549.347,503.956 544.709,505.465 527.706,514.921 522.038,502.548 509.157,508.181 496.276,513.614 474.841,528.201 465.876,511.501 452.17,524.881 429.499,527.195 402.294,536.752 390.237,522.265 366.845,566.127 323.667,554.055 268.226,599.124 182.489,575.382 170.329,633.227 72.225,626.889 -.631,671.656 -41.748,611.497 -41.748,223.886 -41.748,-163.726 97.163,-154.27 152.707,-74.393 265.959,-89.584 288.527,-20.472 360.044,-57.392 423.522,-8.299 442.381,-11.116 450.419,-8.903 479.273,-3.37 497.306,16.75 531.416,7.596 548.728,28.219 563.98,27.514 575.418,34.959 714.536,50.753 775.541,138.577 912.804,120.368 940.009,206.281 950.726,200.949 961.237,197.126 1034.197,168.757 1100.046,226.702 1122.408,223.886 1131.579,227.205 1134.774,227.91 1137.762,228.815 1168.471,235.958 1188.257,257.888 1229.889,246.219 1250.808,270.866 1269.357,269.86 1283.166,278.713 1290.997,273.683 1307.795,280.926 1309.752,281.529 1312.02,290.382 1317.79,289.175 1323.561,288.068 1323.561,292.696 1323.561,297.324 1323.149,300.744 1322.737,304.164 1321.809,311.609 1321.809,314.929Z" test="Smoke_1"/>
    </g>
    <g id="Smokef8r1">
      <path fill="#000" stroke="none" d="M10.267,302.897 Q5.537,302.097 -5.815,303.183 -43.655,284.622 -86.462,298.722 -99.138,272.581 -167.392,278.387 -199.84,248.186 -283.324,244.668 -283.324,354.864 -283.324,465.059 -258.539,487.482 -214.361,470.179 -154.81,472.209 -147.81,449.93 -95.875,458.51 -62.433,441.121 -36.277,445.468 -22.323,428.652 -15.039,434.057 1.421,430.339 15.139,429.338 23.369,424.161 28.714,430.425 41.674,424.819 49.431,422.674 57.236,420.501 60.641,425.134 70.952,421.473 73.696,420.872 76.439,420.272 93.325,428.48 119.246,418.241 140.531,418.527 152.592,414.552 163.944,411.005 166.972,403.627 203.534,408.975 227.752,397.02 246.246,399.737 256.652,388.354 262.044,391.843 273.538,389.269 283.188,388.526 289.147,384.979 293.168,389.069 302.297,385.237 307.784,383.75 313.318,382.234 315.919,385.237 323.156,382.749 327.082,381.891 331.008,381.061 336.778,380.89 342.549,380.747 342.549,379.803 342.975,377.686 343.164,376.714 343.353,375.742 343.353,374.426 343.353,373.11 341.367,373.368 339.38,373.597 338.529,371.795 337.866,371.652 332.096,370.193 329.305,371.251 324.481,369.45 318.095,369.678 310.716,364.616 296.384,367.104 289.431,362.614 278.836,361.156 277.795,360.984 276.755,360.812 273.633,359.983 266.112,360.441 243.739,347.485 219.001,353.291 215.359,354.006 211.67,355.092 201.311,336.989 154.484,340.621 132.301,322.231 84.859,319.4 78.095,316.597 68.919,316.854 58.749,309.075 38.221,312.593 27.531,304.985 10.267,302.897Z" test="Smoke_22" vector-effect="non-scaling-stroke" stroke-width="1"/>
      <path id="Layer1_0_1_STROKES" stroke="#FFF" stroke-width="1" stroke-linejoin="round" stroke-linecap="round" fill="none" d="M342.549,380.747 Q336.778,380.89 331.008,381.061 327.082,381.891 323.156,382.749 315.919,385.237 313.318,382.234 307.784,383.75 302.297,385.237 293.168,389.069 289.147,384.979 283.188,388.526 273.538,389.269 262.044,391.843 256.652,388.354 246.246,399.737 227.752,397.02 203.534,408.975 166.972,403.627 163.944,411.005 152.592,414.552 140.531,418.527 119.246,418.241 93.325,428.48 76.439,420.272 73.696,420.872 70.952,421.473 60.641,425.134 57.236,420.501 49.431,422.674 41.674,424.819 28.714,430.425 23.369,424.161 15.139,429.338 1.421,430.339 -15.039,434.057 -22.323,428.652 -36.277,445.468 -62.433,441.121 -95.875,458.51 -147.81,449.93 -154.81,472.209 -214.361,470.179 -258.539,487.482 -283.324,465.059 -283.324,354.864 -283.324,244.668 -199.84,248.186 -167.392,278.387 -99.138,272.581 -86.462,298.722 -43.655,284.622 -5.815,303.183 5.537,302.097 10.267,302.897 27.531,304.985 38.221,312.593 58.749,309.075 68.919,316.854 78.095,316.597 84.859,319.4 132.301,322.231 154.484,340.621 201.311,336.989 211.67,355.092 215.359,354.006 219.001,353.291 243.739,347.485 266.112,360.441 273.633,359.983 276.755,360.812 277.795,360.984 278.836,361.156 289.431,362.614 296.384,367.104 310.716,364.616 318.095,369.678 324.481,369.45 329.305,371.251 332.096,370.193 337.866,371.652 338.529,371.795 339.38,373.597 341.367,373.368 343.353,373.11 343.353,374.426 343.353,375.742 343.164,376.714 342.975,377.686 342.549,379.803 342.549,380.747Z" test="Smoke_22" vector-effect="non-scaling-stroke"/>
    </g>
    <g id="MotorBikePinkf6r1">
      <g id="RedBike-container">
        <path fill="#000" stroke="none" d="M274.423,341.145 Q277.572,345.952 282.624,347.065 287.675,348.177 313.848,340.904 339.99,333.579 354.096,321.309 352.859,318.465 351.296,315.181 L349.984,312.449 Q350.057,312.421 350.089,312.388 L349.837,311.836 319.726,323.15 Q310.737,326.079 293.604,327.388 283.346,328.259 272.062,328.33 272.362,329.204 271.899,332.13 271.457,334.973 271.588,335.317 273.437,339.692 274.423,341.145 M440.769,289.847 L439.574,289.355 435.688,298.888 451.149,301.068 454.226,302.632 Q457.17,297.063 459.125,293.278 L457.086,292.298 440.769,289.847 M392.21,269.124 Q393.05,273.807 375.554,278.334 L379.517,282.737 Q390.255,284.732 401.286,273.904 L397.661,265.04 390.537,262.409 Q390.089,262.6 389.693,262.76 L392.21,269.124 M375.554,278.334 Q393.05,273.807 392.21,269.124 L389.693,262.76 Q380.506,267.272 371.15,272.091 351.028,282.552 349.891,284.682 348.62,286.82 349.357,289.886 349.752,291.404 351.393,295.062 352.5,297.563 353.439,303.377 354.304,309.304 353.656,310.591 353.448,311.055 350.089,312.388 350.057,312.421 349.984,312.449 L351.296,315.181 Q352.859,318.465 354.096,321.309 339.99,333.579 313.848,340.904 287.675,348.177 282.624,347.065 277.572,345.952 274.423,341.145 273.437,339.692 271.588,335.317 271.457,334.973 271.899,332.13 272.362,329.204 272.062,328.33 272.029,328.213 271.941,328.121 271.355,326.902 268.391,330.188 264.135,334.764 246.819,349.322 238.104,356.564 230.282,362.937 236.717,375.547 236.351,375.76 235.986,375.973 256.951,372.362 276.89,369.628 277.211,369.58 295.253,367.671 301.018,369.767 305.812,371.518 309.872,373.208 310.346,373.422 310.872,373.605 313.386,374.675 315.58,375.686 315.725,375.772 315.806,375.834 316.615,376.192 317.34,376.549 322.621,379.135 326.833,381.925 328.045,382.687 329.154,383.51 331.679,385.325 333.747,387.196 343.033,395.699 355.661,413.301 355.826,413.585 362.964,409.397 363.045,409.385 363.068,409.336 373.031,403.531 396.194,389.276 397.868,388.248 399.526,387.195 417.896,375.937 436.22,364.498 434.547,362.466 432.697,358.93 428.945,351.887 427.872,344.403 426.743,336.463 428.896,323.954 430.406,315.385 432.769,307.438 432.804,307.138 432.921,306.86 433.841,303.878 435.688,298.888 L439.574,289.355 441.542,284.573 Q425.712,277.441 415.792,273.006 415.785,272.992 415.709,272.984 402.51,267.072 400,266.055 L398.135,265.254 397.661,265.04 401.286,273.904 Q390.255,284.732 379.517,282.737 L375.554,278.334 M364.202,355.828 Q375.108,355.349 382.01,359.998 388.829,364.625 393.249,373.655 395.459,378.17 396.456,381.923 L359.651,402.868 361.388,406.33 Q361.591,407.4 354.33,395.411 347.068,383.423 331.973,374.668 327.305,371.934 322.38,369.839 L318.885,368.519 325.334,367.349 Q334.92,364.843 344.123,360.601 353.245,356.338 364.202,355.828 M382.01,359.998 Q375.108,355.349 364.202,355.828 353.245,356.338 344.123,360.601 334.92,364.843 325.334,367.349 L318.885,368.519 322.38,369.839 Q327.305,371.934 331.973,374.668 347.068,383.423 354.33,395.411 361.591,407.4 361.388,406.33 L359.651,402.868 396.456,381.923 Q395.459,378.17 393.249,373.655 388.829,364.625 382.01,359.998 M410.304,237.056 Q384.731,233.354 375.929,235.405 369.101,237.004 368.233,239.956 368.037,240.7 367.988,242.895 367.991,245.061 367.516,246.526 370.269,250.654 373.773,252.109 376.329,253.137 385.219,255.439 386.444,255.782 392.396,258.04 392.473,258.045 392.479,258.062 400.829,261.153 418.17,267.846 443.621,277.7 446.283,276.989 450.784,275.836 457.384,271.083 464.945,265.701 464.443,262.079 463.933,258.322 459.965,255.11 457.023,252.699 446.196,246.352 436.86,240.884 410.304,237.056Z" test="RedBike container" stroke-width="1.208"/>
        <path id="Layer3_0_1_STROKES" stroke="#0FF" stroke-width="1.208" stroke-linejoin="round" stroke-linecap="round" fill="none" d="M367.516,246.526 Q367.991,245.061 367.988,242.895 368.037,240.7 368.233,239.956 369.101,237.004 375.929,235.405 384.731,233.354 410.304,237.056 436.86,240.884 446.196,246.352 457.023,252.699 459.965,255.11 463.933,258.322 464.443,262.079 464.945,265.701 457.384,271.083 450.784,275.836 446.283,276.989 443.621,277.7 418.17,267.846 400.829,261.153 392.52,258.073 392.473,258.045 392.423,258.025 386.444,255.782 385.219,255.439 376.329,253.137 373.773,252.109 370.269,250.654 367.516,246.526Z" test="RedBike container"/>
        <path id="Layer3_0_2_STROKES" stroke="#FFF" stroke-width="1.208" stroke-linejoin="round" stroke-linecap="round" fill="none" d="M397.661,265.04 L401.286,273.904 Q390.255,284.732 379.517,282.737 L375.554,278.334 Q393.05,273.807 392.21,269.124 L389.693,262.76 M398.135,265.254 L397.661,265.04 390.537,262.409 M389.693,262.76 L389.537,262.012 390.537,262.409 M457.086,292.298 L440.769,289.847 M435.688,298.888 L451.149,301.068" test="RedBike container"/>
        <path id="Layer3_0_3_STROKES" stroke="#FF0265" stroke-width="1.208" stroke-linejoin="round" stroke-linecap="round" fill="none" d="M389.693,262.76 Q380.506,267.272 371.15,272.091 351.028,282.552 349.891,284.682 348.62,286.82 349.357,289.886 349.752,291.404 351.393,295.062 352.5,297.563 353.439,303.377 354.304,309.304 353.656,310.591 353.448,311.055 350.13,312.399 350.057,312.421 349.984,312.449 L351.296,315.181 Q352.859,318.465 354.096,321.309 339.99,333.579 313.848,340.904 287.675,348.177 282.624,347.065 277.572,345.952 274.423,341.145 273.437,339.692 271.588,335.317 271.457,334.973 271.899,332.13 272.362,329.204 272.062,328.33 272.029,328.213 271.982,328.132 271.355,326.902 268.391,330.188 264.135,334.764 246.819,349.322 238.104,356.564 230.282,362.937 236.717,375.547 236.351,375.76 235.986,375.973 256.951,372.362 276.89,369.628 277.211,369.58 295.253,367.671 301.018,369.767 305.812,371.518 309.872,373.208 310.346,373.422 310.872,373.605 313.386,374.675 315.595,375.713 315.725,375.772 315.847,375.845 316.615,376.192 317.34,376.549 322.621,379.135 326.833,381.925 328.045,382.687 329.154,383.51 331.679,385.325 333.747,387.196 343.033,395.699 355.661,413.301 355.826,413.585 362.979,409.423 363.045,409.385 363.11,409.347 373.031,403.531 396.194,389.276 397.868,388.248 399.542,387.221 417.896,375.937 436.22,364.498 434.547,362.466 432.697,358.93 428.945,351.887 427.872,344.403 426.743,336.463 428.896,323.954 430.406,315.385 432.769,307.438 432.804,307.138 432.921,306.86 433.841,303.878 435.688,298.888 L439.574,289.355 441.542,284.573 Q425.712,277.441 415.833,273.017 415.785,272.992 415.736,272.969 402.51,267.072 400,266.055 L398.135,265.254 M389.693,262.76 Q390.089,262.6 390.537,262.409 390.745,262.287 391.006,262.135 L397.661,265.04 M272.062,328.33 Q283.346,328.259 293.604,327.388 310.737,326.079 319.726,323.15 L349.837,311.836 M322.38,369.839 Q327.305,371.934 331.973,374.668 347.068,383.423 354.33,395.411 361.591,407.4 361.388,406.33 L359.651,402.868 396.456,381.923 Q395.459,378.17 393.249,373.655 388.829,364.625 382.01,359.998 375.108,355.349 364.202,355.828 353.245,356.338 344.123,360.601 334.92,364.843 325.334,367.349 L318.911,368.503 322.38,369.839Z" test="RedBike container"/>
        <use xlink:href="#Bike-Wheel" transform="matrix(1.044 -.608 .608 1.044 495.4 314.25)"/>
        <use xlink:href="#Bike-Wheel" transform="matrix(1.044 -.608 .608 1.044 299.8 433.5)"/>
      </g>
    </g>
  </g>
</svg>