<?xml version="1.0" encoding="utf-8"?>
<svg id="EdithAnim11" image-rendering="inherit" baseProfile="basic" version="1.1" x="0px" y="0px" width="800" height="600" xmlns="http://www.w3.org/2000/svg" xmlns:xlink="http://www.w3.org/1999/xlink">
  <defs>
    <g id="Bike-Wheel" overflow="visible">
      <path id="Layer5_0_1_STROKES" stroke="#FFF" stroke-width="1" stroke-linejoin="round" stroke-linecap="round" fill="none" d="M2.05 -34.85Q-12.35 -34.85 -22.65 -26.45 -34 -17.2 -34.7 -1.55 -35.4 14.3 -26.6 24.6 -18.4 34.2 -5.6 34.85 7.15 35.5 19.2 29.8 31.25 24.1 34.05 7.25 36.85 -9.65 28.9 -21.15 19.4 -34.85 2.05 -34.85Z" test="Bike Wheel"/>
      <path id="Layer4_0_1_STROKES" stroke="#FFF" stroke-width="1" stroke-linejoin="round" stroke-linecap="round" fill="none" d="M.55 -26.55Q4.65 -26.85 7.1 -26.15 9.75 -25.4 12 -23.15 13.95 -21.25 8 -15.35 5.3 -12.6 2.25 -10.2 1.95 -10 1.7 -9.8M24.45 -8.9Q26.2 -5.15 26.45 -2.65 26.7 .1 25.4 3.05 24.35 5.5 16.7 2.1 13.2 .6 9.85 -1.4 9.5 -1.6 9.25 -1.75M18.45 20Q15.75 23.1 13.55 24.35 11.2 25.75 8 25.75 5.3 25.75 5.25 17.4 5.2 13.55 5.65 9.7 5.7 9.35 5.75 9M-25.15 -7.15Q-24.25 -11.2 -22.85 -13.3 -21.4 -15.6 -18.6 -17.1 -16.2 -18.45 -12.25 -11.05 -10.4 -7.65 -9 -4.1 -8.9 -3.7 -8.75 -3.4M-12.85 23.8Q-16.75 22.4 -18.7 20.8 -20.85 19.05 -22.05 16.1 -23.1 13.6 -15.3 10.55 -11.75 9.05 -8 8.05 -7.65 8 -7.3 7.95" test="Bike Wheel"/>
    </g>
  </defs>
  <g id="19_Motorbikesf86r1" overflow="visible">
    <g id="Smokef12r1">
      <path fill="#000" stroke="none" d="M264.822,-49.312 Q243.35,-113.589 138.644,-99.597 86.557,-173.868 -41.959,-182.81 -41.959,222.525 -41.959,627.861 -3.904,684.248 63.171,643.115 153.42,649.322 164.9,596.09 243.881,618.603 295.118,577.154 334.98,588.621 356.665,548.119 367.827,561.69 392.914,552.853 413.855,550.854 426.398,538.546 434.796,554.221 454.568,540.755 466.473,535.706 478.273,530.656 483.588,542.123 499.32,533.391 503.572,532.024 507.718,530.551 561.718,577.154 646.014,521.819 715.747,524.134 754.334,502.988 790.795,483.421 799.299,442.709 918.142,472.48 995.316,406.73 1055.375,421.774 1087.903,358.97 1104.805,378.432 1142.435,364.23 1173.794,360.127 1192.715,340.665 1205.258,363.283 1234.81,342.243 1252.668,333.932 1270.42,325.621 1278.499,342.348 1302.098,328.567 1314.747,324.043 1327.291,319.309 1346,318.573 1364.602,317.731 1364.602,314.26 1365.559,306.475 1365.984,302.898 1366.409,299.321 1366.409,294.482 1366.409,289.643 1360.031,290.905 1353.547,292.273 1350.996,282.174 1348.87,281.437 1330.055,273.232 1321.338,278.807 1306.031,268.813 1285.302,269.865 1262.023,241.672 1215.569,254.927 1193.459,229.889 1159.231,221.684 1155.829,220.632 1152.321,219.895 1142.01,216.318 1116.817,219.685 1043.045,154.776 961.194,187.178 949.501,191.596 937.595,197.698 907.937,100.072 754.228,121.007 686.833,21.172 530.998,2.552 520.474,-4.286 506.336,-3.76 490.178,-22.906 458.501,-14.385 441.812,-33.216 415.024,-38.371 407.477,-40.37 390.044,-37.845 331.154,-83.607 264.822,-49.312Z" test="Smoke_1" stroke-width="2.115"/>
      <path id="Layer2_0_1_STROKES" stroke="#FFF" stroke-width="2.115" stroke-linejoin="round" stroke-linecap="round" fill="none" d="M1364.602,317.731 Q1346,318.573 1327.291,319.309 1314.747,324.043 1302.098,328.567 1278.499,342.348 1270.42,325.621 1252.668,333.932 1234.81,342.243 1205.258,363.283 1192.715,340.665 1173.794,360.127 1142.435,364.23 1104.805,378.432 1087.903,358.97 1055.375,421.774 995.316,406.73 918.142,472.48 799.299,442.709 790.795,483.421 754.334,502.988 715.747,524.134 646.014,521.819 561.718,577.154 507.718,530.551 503.572,532.024 499.32,533.391 483.588,542.123 478.273,530.656 466.473,535.706 454.568,540.755 434.796,554.221 426.398,538.546 413.855,550.854 392.914,552.853 367.827,561.69 356.665,548.119 334.98,588.621 295.118,577.154 243.881,618.603 164.9,596.09 153.42,649.322 63.171,643.115 -3.904,684.248 -41.959,627.861 -41.959,222.525 -41.959,-182.81 86.557,-173.868 138.644,-99.597 243.35,-113.589 264.822,-49.312 331.154,-83.607 390.044,-37.845 407.477,-40.37 415.024,-38.371 441.812,-33.216 458.501,-14.385 490.178,-22.906 506.336,-3.76 520.474,-4.286 530.998,2.552 686.833,21.172 754.228,121.007 907.937,100.072 937.595,197.698 949.501,191.596 961.194,187.178 1043.045,154.776 1116.817,219.685 1142.01,216.318 1152.321,219.895 1155.829,220.632 1159.231,221.684 1193.459,229.889 1215.569,254.927 1262.023,241.672 1285.302,269.865 1306.031,268.813 1321.338,278.807 1330.055,273.232 1348.87,281.437 1350.996,282.174 1353.547,292.273 1360.031,290.905 1366.409,289.643 1366.409,294.482 1366.409,299.321 1365.984,302.898 1365.559,306.475 1364.602,314.26 1364.602,317.731Z" test="Smoke_1"/>
    </g>
    <g id="Smokef9r1">
      <path fill="#000" stroke="none" d="M23.4,291.355 Q18.75,290.567 7.7,291.638 -29.2,272.864 -70.95,287.102 -83.5,260.705 -149.95,266.532 -181.8,236.04 -263.1,232.45 -263.1,353.819 -263.1,475.189 -238.95,497.932 -196.05,480.575 -138.25,482.686 -131.35,460.321 -80.9,469.078 -48.35,451.626 -22.9,456.068 -9.3,439.153 -2.2,444.634 13.8,440.885 27.15,439.909 35.1,434.711 40.35,441.074 52.95,435.436 60.5,433.262 68.05,431.12 71.4,435.782 81.45,432.097 84.1,431.498 86.75,430.9 106.5,441.169 136.95,428.569 162.05,428.978 176.15,424.127 189.45,419.717 192.85,410.582 235.8,417.229 264.05,402.424 285.8,405.794 297.85,391.682 304.1,396.029 317.65,392.847 329,391.934 335.95,387.524 340.6,392.596 351.3,387.871 357.8,386.012 364.25,384.154 367.25,387.871 375.8,384.784 380.4,383.744 384.95,382.705 391.75,382.516 398.5,382.327 398.5,381.287 398.95,378.956 399.15,377.885 399.35,376.814 399.35,375.365 399.35,373.916 397.05,374.231 394.7,374.515 393.7,372.278 392.95,372.089 386.15,370.294 382.9,371.554 377.3,369.349 369.8,369.601 361.2,363.301 344.4,366.356 336.25,360.78 323.85,358.953 322.6,358.733 321.4,358.544 317.7,357.599 308.75,358.229 282.35,342.668 253.1,349.881 248.85,350.795 244.55,352.15 232.85,329.879 177.65,334.447 152.1,311.798 96.15,308.049 89.6,305.246 80.65,305.467 70.7,297.623 50.65,301.183 40.25,293.465 23.4,291.355Z" test="Smoke_22" vector-effect="non-scaling-stroke" stroke-width="1"/>
      <path id="Layer1_0_1_STROKES" stroke="#FFF" stroke-width="1" stroke-linejoin="round" stroke-linecap="round" fill="none" d="M398.5,382.327 Q391.75,382.516 384.95,382.705 380.4,383.744 375.8,384.784 367.25,387.871 364.25,384.154 357.8,386.012 351.3,387.871 340.6,392.596 335.95,387.524 329,391.934 317.65,392.847 304.1,396.029 297.85,391.682 285.8,405.794 264.05,402.424 235.8,417.229 192.85,410.582 189.45,419.717 176.15,424.127 162.05,428.978 136.95,428.569 106.5,441.169 86.75,430.9 84.1,431.498 81.45,432.097 71.4,435.782 68.05,431.12 60.5,433.262 52.95,435.436 40.35,441.074 35.1,434.711 27.15,439.909 13.8,440.885 -2.2,444.634 -9.3,439.153 -22.9,456.068 -48.35,451.626 -80.9,469.078 -131.35,460.321 -138.25,482.686 -196.05,480.575 -238.95,497.932 -263.1,475.189 -263.1,353.819 -263.1,232.45 -181.8,236.04 -149.95,266.532 -83.5,260.705 -70.95,287.102 -29.2,272.864 7.7,291.638 18.75,290.567 23.4,291.355 40.25,293.465 50.65,301.183 70.7,297.623 80.65,305.467 89.6,305.246 96.15,308.049 152.1,311.798 177.65,334.447 232.85,329.879 244.55,352.15 248.85,350.795 253.1,349.881 282.35,342.668 308.75,358.229 317.7,357.599 321.4,358.544 322.6,358.733 323.85,358.953 336.25,360.78 344.4,366.356 361.2,363.301 369.8,369.601 377.3,369.349 382.9,371.554 386.15,370.294 392.95,372.089 393.7,372.278 394.7,374.515 397.05,374.231 399.35,373.916 399.35,375.365 399.35,376.814 399.15,377.885 398.95,378.956 398.5,381.287 398.5,382.327Z" test="Smoke_22" vector-effect="non-scaling-stroke"/>
    </g>
    <g id="MotorBikePinkf6r1">
      <g id="RedBike-container">
        <path fill="#000" stroke="none" d="M324.423,341.145 Q327.572,345.952 332.624,347.065 337.675,348.177 363.848,340.904 389.99,333.579 404.096,321.309 402.859,318.465 401.296,315.181 L399.984,312.449 Q400.057,312.421 400.089,312.388 L399.837,311.836 369.726,323.15 Q360.737,326.079 343.604,327.388 333.346,328.259 322.062,328.33 322.362,329.204 321.899,332.13 321.457,334.973 321.588,335.317 323.437,339.692 324.423,341.145 M490.769,289.847 L489.574,289.355 485.688,298.888 501.149,301.068 504.226,302.632 Q507.17,297.063 509.125,293.278 L507.086,292.298 490.769,289.847 M442.21,269.124 Q443.05,273.807 425.554,278.334 L429.517,282.737 Q440.255,284.732 451.286,273.904 L447.661,265.04 440.537,262.409 Q440.089,262.6 439.693,262.76 L442.21,269.124 M425.554,278.334 Q443.05,273.807 442.21,269.124 L439.693,262.76 Q430.506,267.272 421.15,272.091 401.028,282.552 399.891,284.682 398.62,286.82 399.357,289.886 399.752,291.404 401.393,295.062 402.5,297.563 403.439,303.377 404.304,309.304 403.656,310.591 403.448,311.055 400.089,312.388 400.057,312.421 399.984,312.449 L401.296,315.181 Q402.859,318.465 404.096,321.309 389.99,333.579 363.848,340.904 337.675,348.177 332.624,347.065 327.572,345.952 324.423,341.145 323.437,339.692 321.588,335.317 321.457,334.973 321.899,332.13 322.362,329.204 322.062,328.33 322.029,328.213 321.941,328.121 321.355,326.902 318.391,330.188 314.135,334.764 296.819,349.322 288.104,356.564 280.282,362.937 286.717,375.547 286.351,375.76 285.986,375.973 306.951,372.362 326.89,369.628 327.211,369.58 345.253,367.671 351.018,369.767 355.812,371.518 359.872,373.208 360.346,373.422 360.872,373.605 363.386,374.675 365.58,375.686 365.725,375.772 365.806,375.834 366.615,376.192 367.34,376.549 372.621,379.135 376.833,381.925 378.045,382.687 379.154,383.51 381.679,385.325 383.747,387.196 393.033,395.699 405.661,413.301 405.826,413.585 412.964,409.397 413.045,409.385 413.068,409.336 423.031,403.531 446.194,389.276 447.868,388.248 449.526,387.195 467.896,375.937 486.22,364.498 484.547,362.466 482.697,358.93 478.945,351.887 477.872,344.403 476.743,336.463 478.896,323.954 480.406,315.385 482.769,307.438 482.804,307.138 482.921,306.86 483.841,303.878 485.688,298.888 L489.574,289.355 491.542,284.573 Q475.712,277.441 465.792,273.006 465.785,272.992 465.709,272.984 452.51,267.072 450,266.055 L448.135,265.254 447.661,265.04 451.286,273.904 Q440.255,284.732 429.517,282.737 L425.554,278.334 M414.202,355.828 Q425.108,355.349 432.01,359.998 438.829,364.625 443.249,373.655 445.459,378.17 446.456,381.923 L409.651,402.868 411.388,406.33 Q411.591,407.4 404.33,395.411 397.068,383.423 381.973,374.668 377.305,371.934 372.38,369.839 L368.885,368.519 375.334,367.349 Q384.92,364.843 394.123,360.601 403.245,356.338 414.202,355.828 M432.01,359.998 Q425.108,355.349 414.202,355.828 403.245,356.338 394.123,360.601 384.92,364.843 375.334,367.349 L368.885,368.519 372.38,369.839 Q377.305,371.934 381.973,374.668 397.068,383.423 404.33,395.411 411.591,407.4 411.388,406.33 L409.651,402.868 446.456,381.923 Q445.459,378.17 443.249,373.655 438.829,364.625 432.01,359.998 M460.304,237.056 Q434.731,233.354 425.929,235.405 419.101,237.004 418.233,239.956 418.037,240.7 417.988,242.895 417.991,245.061 417.516,246.526 420.269,250.654 423.773,252.109 426.329,253.137 435.219,255.439 436.444,255.782 442.396,258.04 442.473,258.045 442.479,258.062 450.829,261.153 468.17,267.846 493.621,277.7 496.283,276.989 500.784,275.836 507.384,271.083 514.945,265.701 514.443,262.079 513.933,258.322 509.965,255.11 507.023,252.699 496.196,246.352 486.86,240.884 460.304,237.056Z" test="RedBike container" stroke-width="1.208"/>
        <path id="Layer3_0_1_STROKES" stroke="#0FF" stroke-width="1.208" stroke-linejoin="round" stroke-linecap="round" fill="none" d="M417.516,246.526 Q417.991,245.061 417.988,242.895 418.037,240.7 418.233,239.956 419.101,237.004 425.929,235.405 434.731,233.354 460.304,237.056 486.86,240.884 496.196,246.352 507.023,252.699 509.965,255.11 513.933,258.322 514.443,262.079 514.945,265.701 507.384,271.083 500.784,275.836 496.283,276.989 493.621,277.7 468.17,267.846 450.829,261.153 442.52,258.073 442.473,258.045 442.423,258.025 436.444,255.782 435.219,255.439 426.329,253.137 423.773,252.109 420.269,250.654 417.516,246.526Z" test="RedBike container"/>
        <path id="Layer3_0_2_STROKES" stroke="#FFF" stroke-width="1.208" stroke-linejoin="round" stroke-linecap="round" fill="none" d="M447.661,265.04 L451.286,273.904 Q440.255,284.732 429.517,282.737 L425.554,278.334 Q443.05,273.807 442.21,269.124 L439.693,262.76 M448.135,265.254 L447.661,265.04 440.537,262.409 M439.693,262.76 L439.537,262.012 440.537,262.409 M507.086,292.298 L490.769,289.847 M485.688,298.888 L501.149,301.068" test="RedBike container"/>
        <path id="Layer3_0_3_STROKES" stroke="#FF0265" stroke-width="1.208" stroke-linejoin="round" stroke-linecap="round" fill="none" d="M439.693,262.76 Q430.506,267.272 421.15,272.091 401.028,282.552 399.891,284.682 398.62,286.82 399.357,289.886 399.752,291.404 401.393,295.062 402.5,297.563 403.439,303.377 404.304,309.304 403.656,310.591 403.448,311.055 400.13,312.399 400.057,312.421 399.984,312.449 L401.296,315.181 Q402.859,318.465 404.096,321.309 389.99,333.579 363.848,340.904 337.675,348.177 332.624,347.065 327.572,345.952 324.423,341.145 323.437,339.692 321.588,335.317 321.457,334.973 321.899,332.13 322.362,329.204 322.062,328.33 322.029,328.213 321.982,328.132 321.355,326.902 318.391,330.188 314.135,334.764 296.819,349.322 288.104,356.564 280.282,362.937 286.717,375.547 286.351,375.76 285.986,375.973 306.951,372.362 326.89,369.628 327.211,369.58 345.253,367.671 351.018,369.767 355.812,371.518 359.872,373.208 360.346,373.422 360.872,373.605 363.386,374.675 365.595,375.713 365.725,375.772 365.847,375.845 366.615,376.192 367.34,376.549 372.621,379.135 376.833,381.925 378.045,382.687 379.154,383.51 381.679,385.325 383.747,387.196 393.033,395.699 405.661,413.301 405.826,413.585 412.979,409.423 413.045,409.385 413.11,409.347 423.031,403.531 446.194,389.276 447.868,388.248 449.542,387.221 467.896,375.937 486.22,364.498 484.547,362.466 482.697,358.93 478.945,351.887 477.872,344.403 476.743,336.463 478.896,323.954 480.406,315.385 482.769,307.438 482.804,307.138 482.921,306.86 483.841,303.878 485.688,298.888 L489.574,289.355 491.542,284.573 Q475.712,277.441 465.833,273.017 465.785,272.992 465.736,272.969 452.51,267.072 450,266.055 L448.135,265.254 M439.693,262.76 Q440.089,262.6 440.537,262.409 440.745,262.287 441.006,262.135 L447.661,265.04 M322.062,328.33 Q333.346,328.259 343.604,327.388 360.737,326.079 369.726,323.15 L399.837,311.836 M372.38,369.839 Q377.305,371.934 381.973,374.668 397.068,383.423 404.33,395.411 411.591,407.4 411.388,406.33 L409.651,402.868 446.456,381.923 Q445.459,378.17 443.249,373.655 438.829,364.625 432.01,359.998 425.108,355.349 414.202,355.828 403.245,356.338 394.123,360.601 384.92,364.843 375.334,367.349 L368.911,368.503 372.38,369.839Z" test="RedBike container"/>
        <use xlink:href="#Bike-Wheel" transform="matrix(1.044 -.608 .608 1.044 545.4 314.25)"/>
        <use xlink:href="#Bike-Wheel" transform="matrix(1.044 -.608 .608 1.044 349.8 433.5)"/>
      </g>
    </g>
  </g>
</svg>