<?xml version="1.0" encoding="utf-8"?>
<svg id="EdithAnim11" image-rendering="inherit" baseProfile="basic" version="1.1" x="0px" y="0px" width="800" height="600" xmlns="http://www.w3.org/2000/svg" xmlns:xlink="http://www.w3.org/1999/xlink">
  <defs>
    <g id="Bike-Wheel" overflow="visible">
      <path id="Layer5_0_1_STROKES" stroke="#FFF" stroke-width="1" stroke-linejoin="round" stroke-linecap="round" fill="none" d="M2.05 -34.85Q-12.35 -34.85 -22.65 -26.45 -34 -17.2 -34.7 -1.55 -35.4 14.3 -26.6 24.6 -18.4 34.2 -5.6 34.85 7.15 35.5 19.2 29.8 31.25 24.1 34.05 7.25 36.85 -9.65 28.9 -21.15 19.4 -34.85 2.05 -34.85Z" test="Bike Wheel"/>
      <path id="Layer4_0_1_STROKES" stroke="#FFF" stroke-width="1" stroke-linejoin="round" stroke-linecap="round" fill="none" d="M.55 -26.55Q4.65 -26.85 7.1 -26.15 9.75 -25.4 12 -23.15 13.95 -21.25 8 -15.35 5.3 -12.6 2.25 -10.2 1.95 -10 1.7 -9.8M24.45 -8.9Q26.2 -5.15 26.45 -2.65 26.7 .1 25.4 3.05 24.35 5.5 16.7 2.1 13.2 .6 9.85 -1.4 9.5 -1.6 9.25 -1.75M18.45 20Q15.75 23.1 13.55 24.35 11.2 25.75 8 25.75 5.3 25.75 5.25 17.4 5.2 13.55 5.65 9.7 5.7 9.35 5.75 9M-25.15 -7.15Q-24.25 -11.2 -22.85 -13.3 -21.4 -15.6 -18.6 -17.1 -16.2 -18.45 -12.25 -11.05 -10.4 -7.65 -9 -4.1 -8.9 -3.7 -8.75 -3.4M-12.85 23.8Q-16.75 22.4 -18.7 20.8 -20.85 19.05 -22.05 16.1 -23.1 13.6 -15.3 10.55 -11.75 9.05 -8 8.05 -7.65 8 -7.3 7.95" test="Bike Wheel"/>
    </g>
  </defs>
  <g id="19_Motorbikesf87r1" overflow="visible">
    <g id="Smokef13r1">
      <path fill="#000" stroke="none" d="M239.669,-79.527 Q219.412,-138.27 123.928,-125.643 75.748,-193.61 -41.418,-201.845 -41.418,221.215 -41.418,644.274 -6.706,696.319 54.067,659.207 135.863,665.466 146.594,617.263 218.207,638.455 264.854,601.123 300.989,611.883 320.699,575.1 330.992,587.727 353.768,579.822 372.712,578.065 384.209,566.975 391.874,581.359 409.832,569.171 420.563,564.669 431.404,560.167 436.331,570.818 450.566,562.912 454.289,561.595 458.122,560.387 517.799,613.201 611.422,550.834 688.948,553.579 731.653,529.863 772.058,507.793 781.147,461.787 913.094,495.385 998.504,421.051 1064.971,438.07 1100.996,367.139 1119.611,389.099 1161.331,373.068 1196.152,368.457 1217.066,346.387 1230.863,371.97 1263.713,348.253 1283.423,338.92 1303.133,329.478 1312.003,348.363 1338.173,332.881 1352.189,327.611 1366.096,322.341 1386.791,321.462 1407.487,320.584 1407.487,316.96 1408.472,308.835 1408.91,305.102 1409.348,301.369 1409.348,296.318 1409.348,291.267 1402.231,292.695 1395.113,294.232 1392.266,282.813 1389.967,281.934 1369.052,272.601 1359.416,278.97 1342.444,267.55 1319.449,268.758 1293.826,236.806 1242.251,251.849 1217.942,223.411 1179.946,213.968 1176.113,212.98 1172.281,212.101 1160.783,208.149 1132.751,212.101 1050.736,139.853 959.522,176.636 946.492,181.577 933.352,188.604 901.159,78.694 730.339,102.411 656.426,-10.244 483.307,-31.655 473.671,-38.023 460.64,-37.474 445.858,-55.042 416.95,-47.246 401.51,-64.485 377.092,-69.316 370.193,-71.183 354.316,-68.877 300.332,-110.711 239.669,-79.527Z" test="Smoke_1" stroke-width="2.193"/>
      <path id="Layer2_0_1_STROKES" stroke="#FFF" stroke-width="2.193" stroke-linejoin="round" stroke-linecap="round" fill="none" d="M1407.487,320.584 Q1386.791,321.462 1366.096,322.341 1352.189,327.611 1338.173,332.881 1312.003,348.363 1303.133,329.478 1283.423,338.92 1263.713,348.253 1230.863,371.97 1217.066,346.387 1196.152,368.457 1161.331,373.068 1119.611,389.099 1100.996,367.139 1064.971,438.07 998.504,421.051 913.094,495.385 781.147,461.787 772.058,507.793 731.653,529.863 688.948,553.579 611.422,550.834 517.799,613.201 458.122,560.387 454.289,561.595 450.566,562.912 436.331,570.818 431.404,560.167 420.563,564.669 409.832,569.171 391.874,581.359 384.209,566.975 372.712,578.065 353.768,579.822 330.992,587.727 320.699,575.1 300.989,611.883 264.854,601.123 218.207,638.455 146.594,617.263 135.863,665.466 54.067,659.207 -6.706,696.319 -41.418,644.274 -41.418,221.215 -41.418,-201.845 75.748,-193.61 123.928,-125.643 219.412,-138.27 239.669,-79.527 300.332,-110.711 354.316,-68.877 370.193,-71.183 377.092,-69.316 401.51,-64.485 416.95,-47.246 445.858,-55.042 460.64,-37.474 473.671,-38.023 483.307,-31.655 656.426,-10.244 730.339,102.411 901.159,78.694 933.352,188.604 946.492,181.577 959.522,176.636 1050.736,139.853 1132.751,212.101 1160.783,208.149 1172.281,212.101 1176.113,212.98 1179.946,213.968 1217.942,223.411 1242.251,251.849 1293.826,236.806 1319.449,268.758 1342.444,267.55 1359.416,278.97 1369.052,272.601 1389.967,281.934 1392.266,282.813 1395.113,294.232 1402.231,292.695 1409.348,291.267 1409.348,296.318 1409.348,301.369 1408.91,305.102 1408.472,308.835 1407.487,316.96 1407.487,320.584Z" test="Smoke_1"/>
    </g>
    <g id="Smokef10r1">
      <path fill="#000" stroke="none" d="M63.214,288.109 Q53.091,280.416 36.714,278.303 32.209,277.471 21.503,278.545 -14.378,259.765 -54.923,273.971 -67.378,247.534 -131.72,253.355 -162.884,222.828 -241.695,219.224 -241.695,352.731 -241.695,486.237 -218.322,509.106 -176.823,491.851 -120.961,494.103 -114.177,471.858 -65.417,480.763 -33.882,463.403 -9.29,467.908 3.907,451.068 10.797,456.577 26.273,452.869 39.152,451.934 46.89,446.771 51.978,453.147 64.168,447.533 71.482,445.385 78.796,443.237 82.029,447.949 91.728,444.276 94.325,443.687 96.922,443.098 119.818,455.745 155.381,440.43 184.69,440.984 201.067,435.094 216.49,429.723 220.306,418.531 270.444,426.674 303.251,408.621 328.585,412.745 342.524,395.489 349.732,400.825 365.579,396.91 378.776,395.801 386.832,390.43 392.238,396.632 404.693,390.846 412.219,388.594 419.745,386.307 423.243,390.881 433.154,387.104 438.507,385.822 443.86,384.54 451.757,384.332 459.601,384.089 459.601,382.946 460.078,380.382 460.29,379.204 460.502,378.025 460.502,376.432 460.502,374.838 457.799,375.219 455.096,375.565 453.983,372.828 453.082,372.62 445.132,370.368 441.422,371.927 434.903,369.19 426.158,369.502 416.194,361.809 396.584,365.482 387.203,358.656 372.734,356.404 371.303,356.127 369.819,355.919 365.526,354.81 355.032,355.642 324.08,337.104 289.842,345.974 284.86,347.118 279.825,348.781 266.628,321.754 202.074,327.402 172.871,299.82 107.416,295.039 101.003,292.197 92.364,292.44 82.612,284.574 63.214,288.109Z" test="Smoke_22" vector-effect="non-scaling-stroke" stroke-width="1"/>
      <path id="Layer1_0_1_STROKES" stroke="#FFF" stroke-width="1" stroke-linejoin="round" stroke-linecap="round" fill="none" d="M459.601,384.089 Q451.757,384.332 443.86,384.54 438.507,385.822 433.154,387.104 423.243,390.881 419.745,386.307 412.219,388.594 404.693,390.846 392.238,396.632 386.832,390.43 378.776,395.801 365.579,396.91 349.732,400.825 342.524,395.489 328.585,412.745 303.251,408.621 270.444,426.674 220.306,418.531 216.49,429.723 201.067,435.094 184.69,440.984 155.381,440.43 119.818,455.745 96.922,443.098 94.325,443.687 91.728,444.276 82.029,447.949 78.796,443.237 71.482,445.385 64.168,447.533 51.978,453.147 46.89,446.771 39.152,451.934 26.273,452.869 10.797,456.577 3.907,451.068 -9.29,467.908 -33.882,463.403 -65.417,480.763 -114.177,471.858 -120.961,494.103 -176.823,491.851 -218.322,509.106 -241.695,486.237 -241.695,352.731 -241.695,219.224 -162.884,222.828 -131.72,253.355 -67.378,247.534 -54.923,273.971 -14.378,259.765 21.503,278.545 32.209,277.471 36.714,278.303 53.091,280.416 63.214,288.109 82.612,284.574 92.364,292.44 101.003,292.197 107.416,295.039 172.871,299.82 202.074,327.402 266.628,321.754 279.825,348.781 284.86,347.118 289.842,345.974 324.08,337.104 355.032,355.642 365.526,354.81 369.819,355.919 371.303,356.127 372.734,356.404 387.203,358.656 396.584,365.482 416.194,361.809 426.158,369.502 434.903,369.19 441.422,371.927 445.132,370.368 453.082,372.62 453.983,372.828 455.096,375.565 457.799,375.219 460.502,374.838 460.502,376.432 460.502,378.025 460.29,379.204 460.078,380.382 459.601,382.946 459.601,384.089Z" test="Smoke_22" vector-effect="non-scaling-stroke"/>
    </g>
    <g id="MotorBikePinkf6r1">
      <g id="RedBike-container">
        <path fill="#000" stroke="none" d="M378.823,341.145 Q381.972,345.952 387.024,347.065 392.075,348.177 418.248,340.904 444.39,333.579 458.496,321.309 457.259,318.465 455.696,315.181 L454.384,312.449 Q454.457,312.421 454.489,312.388 L454.237,311.836 424.126,323.15 Q415.137,326.079 398.004,327.388 387.746,328.259 376.462,328.33 376.762,329.204 376.299,332.13 375.857,334.973 375.988,335.317 377.837,339.692 378.823,341.145 M545.169,289.847 L543.974,289.355 540.088,298.888 555.549,301.068 558.626,302.632 Q561.57,297.063 563.525,293.278 L561.486,292.298 545.169,289.847 M496.61,269.124 Q497.45,273.807 479.954,278.334 L483.917,282.737 Q494.655,284.732 505.686,273.904 L502.061,265.04 494.937,262.409 Q494.489,262.6 494.093,262.76 L496.61,269.124 M479.954,278.334 Q497.45,273.807 496.61,269.124 L494.093,262.76 Q484.906,267.272 475.55,272.091 455.428,282.552 454.291,284.682 453.02,286.82 453.757,289.886 454.152,291.404 455.793,295.062 456.9,297.563 457.839,303.377 458.704,309.304 458.056,310.591 457.848,311.055 454.489,312.388 454.457,312.421 454.384,312.449 L455.696,315.181 Q457.259,318.465 458.496,321.309 444.39,333.579 418.248,340.904 392.075,348.177 387.024,347.065 381.972,345.952 378.823,341.145 377.837,339.692 375.988,335.317 375.857,334.973 376.299,332.13 376.762,329.204 376.462,328.33 376.429,328.213 376.341,328.121 375.755,326.902 372.791,330.188 368.535,334.764 351.219,349.322 342.504,356.564 334.682,362.937 341.117,375.547 340.751,375.76 340.386,375.973 361.351,372.362 381.29,369.628 381.611,369.58 399.653,367.671 405.418,369.767 410.212,371.518 414.272,373.208 414.746,373.422 415.272,373.605 417.786,374.675 419.98,375.686 420.125,375.772 420.206,375.834 421.015,376.192 421.74,376.549 427.021,379.135 431.233,381.925 432.445,382.687 433.554,383.51 436.079,385.325 438.147,387.196 447.433,395.699 460.061,413.301 460.226,413.585 467.364,409.397 467.445,409.385 467.468,409.336 477.431,403.531 500.594,389.276 502.268,388.248 503.926,387.195 522.296,375.937 540.62,364.498 538.947,362.466 537.097,358.93 533.345,351.887 532.272,344.403 531.143,336.463 533.296,323.954 534.806,315.385 537.169,307.438 537.204,307.138 537.321,306.86 538.241,303.878 540.088,298.888 L543.974,289.355 545.942,284.573 Q530.112,277.441 520.192,273.006 520.185,272.992 520.109,272.984 506.91,267.072 504.4,266.055 L502.535,265.254 502.061,265.04 505.686,273.904 Q494.655,284.732 483.917,282.737 L479.954,278.334 M468.602,355.828 Q479.508,355.349 486.41,359.998 493.229,364.625 497.649,373.655 499.859,378.17 500.856,381.923 L464.051,402.868 465.788,406.33 Q465.991,407.4 458.73,395.411 451.468,383.423 436.373,374.668 431.705,371.934 426.78,369.839 L423.285,368.519 429.734,367.349 Q439.32,364.843 448.523,360.601 457.645,356.338 468.602,355.828 M486.41,359.998 Q479.508,355.349 468.602,355.828 457.645,356.338 448.523,360.601 439.32,364.843 429.734,367.349 L423.285,368.519 426.78,369.839 Q431.705,371.934 436.373,374.668 451.468,383.423 458.73,395.411 465.991,407.4 465.788,406.33 L464.051,402.868 500.856,381.923 Q499.859,378.17 497.649,373.655 493.229,364.625 486.41,359.998 M514.704,237.056 Q489.131,233.354 480.329,235.405 473.501,237.004 472.633,239.956 472.437,240.7 472.388,242.895 472.391,245.061 471.916,246.526 474.669,250.654 478.173,252.109 480.729,253.137 489.619,255.439 490.844,255.782 496.796,258.04 496.873,258.045 496.879,258.062 505.229,261.153 522.57,267.846 548.021,277.7 550.683,276.989 555.184,275.836 561.784,271.083 569.345,265.701 568.843,262.079 568.333,258.322 564.365,255.11 561.423,252.699 550.596,246.352 541.26,240.884 514.704,237.056Z" test="RedBike container" stroke-width="1.208"/>
        <path id="Layer3_0_1_STROKES" stroke="#0FF" stroke-width="1.208" stroke-linejoin="round" stroke-linecap="round" fill="none" d="M471.916,246.526 Q472.391,245.061 472.388,242.895 472.437,240.7 472.633,239.956 473.501,237.004 480.329,235.405 489.131,233.354 514.704,237.056 541.26,240.884 550.596,246.352 561.423,252.699 564.365,255.11 568.333,258.322 568.843,262.079 569.345,265.701 561.784,271.083 555.184,275.836 550.683,276.989 548.021,277.7 522.57,267.846 505.229,261.153 496.92,258.073 496.873,258.045 496.823,258.025 490.844,255.782 489.619,255.439 480.729,253.137 478.173,252.109 474.669,250.654 471.916,246.526Z" test="RedBike container"/>
        <path id="Layer3_0_2_STROKES" stroke="#FFF" stroke-width="1.208" stroke-linejoin="round" stroke-linecap="round" fill="none" d="M502.061,265.04 L505.686,273.904 Q494.655,284.732 483.917,282.737 L479.954,278.334 Q497.45,273.807 496.61,269.124 L494.093,262.76 M502.535,265.254 L502.061,265.04 494.937,262.409 M494.093,262.76 L493.937,262.012 494.937,262.409 M561.486,292.298 L545.169,289.847 M540.088,298.888 L555.549,301.068" test="RedBike container"/>
        <path id="Layer3_0_3_STROKES" stroke="#FF0265" stroke-width="1.208" stroke-linejoin="round" stroke-linecap="round" fill="none" d="M494.093,262.76 Q484.906,267.272 475.55,272.091 455.428,282.552 454.291,284.682 453.02,286.82 453.757,289.886 454.152,291.404 455.793,295.062 456.9,297.563 457.839,303.377 458.704,309.304 458.056,310.591 457.848,311.055 454.53,312.399 454.457,312.421 454.384,312.449 L455.696,315.181 Q457.259,318.465 458.496,321.309 444.39,333.579 418.248,340.904 392.075,348.177 387.024,347.065 381.972,345.952 378.823,341.145 377.837,339.692 375.988,335.317 375.857,334.973 376.299,332.13 376.762,329.204 376.462,328.33 376.429,328.213 376.382,328.132 375.755,326.902 372.791,330.188 368.535,334.764 351.219,349.322 342.504,356.564 334.682,362.937 341.117,375.547 340.751,375.76 340.386,375.973 361.351,372.362 381.29,369.628 381.611,369.58 399.653,367.671 405.418,369.767 410.212,371.518 414.272,373.208 414.746,373.422 415.272,373.605 417.786,374.675 419.995,375.713 420.125,375.772 420.247,375.845 421.015,376.192 421.74,376.549 427.021,379.135 431.233,381.925 432.445,382.687 433.554,383.51 436.079,385.325 438.147,387.196 447.433,395.699 460.061,413.301 460.226,413.585 467.379,409.423 467.445,409.385 467.51,409.347 477.431,403.531 500.594,389.276 502.268,388.248 503.942,387.221 522.296,375.937 540.62,364.498 538.947,362.466 537.097,358.93 533.345,351.887 532.272,344.403 531.143,336.463 533.296,323.954 534.806,315.385 537.169,307.438 537.204,307.138 537.321,306.86 538.241,303.878 540.088,298.888 L543.974,289.355 545.942,284.573 Q530.112,277.441 520.233,273.017 520.185,272.992 520.136,272.969 506.91,267.072 504.4,266.055 L502.535,265.254 M494.093,262.76 Q494.489,262.6 494.937,262.409 495.145,262.287 495.406,262.135 L502.061,265.04 M376.462,328.33 Q387.746,328.259 398.004,327.388 415.137,326.079 424.126,323.15 L454.237,311.836 M426.78,369.839 Q431.705,371.934 436.373,374.668 451.468,383.423 458.73,395.411 465.991,407.4 465.788,406.33 L464.051,402.868 500.856,381.923 Q499.859,378.17 497.649,373.655 493.229,364.625 486.41,359.998 479.508,355.349 468.602,355.828 457.645,356.338 448.523,360.601 439.32,364.843 429.734,367.349 L423.311,368.503 426.78,369.839Z" test="RedBike container"/>
        <use xlink:href="#Bike-Wheel" transform="matrix(1.044 -.608 .608 1.044 599.8 314.25)"/>
        <use xlink:href="#Bike-Wheel" transform="matrix(1.044 -.608 .608 1.044 404.2 433.5)"/>
      </g>
    </g>
  </g>
</svg>