<?xml version="1.0" encoding="utf-8"?>
<svg id="EdithAnim11" image-rendering="inherit" baseProfile="basic" version="1.1" x="0px" y="0px" width="800" height="600" xmlns="http://www.w3.org/2000/svg" xmlns:xlink="http://www.w3.org/1999/xlink">
  <defs>
    <g id="Bike-Wheel" overflow="visible">
      <path id="Layer5_0_1_STROKES" stroke="#FFF" stroke-width="1" stroke-linejoin="round" stroke-linecap="round" fill="none" d="M2.05 -34.85Q-12.35 -34.85 -22.65 -26.45 -34 -17.2 -34.7 -1.55 -35.4 14.3 -26.6 24.6 -18.4 34.2 -5.6 34.85 7.15 35.5 19.2 29.8 31.25 24.1 34.05 7.25 36.85 -9.65 28.9 -21.15 19.4 -34.85 2.05 -34.85Z" test="Bike Wheel"/>
      <path id="Layer4_0_1_STROKES" stroke="#FFF" stroke-width="1" stroke-linejoin="round" stroke-linecap="round" fill="none" d="M.55 -26.55Q4.65 -26.85 7.1 -26.15 9.75 -25.4 12 -23.15 13.95 -21.25 8 -15.35 5.3 -12.6 2.25 -10.2 1.95 -10 1.7 -9.8M24.45 -8.9Q26.2 -5.15 26.45 -2.65 26.7 .1 25.4 3.05 24.35 5.5 16.7 2.1 13.2 .6 9.85 -1.4 9.5 -1.6 9.25 -1.75M18.45 20Q15.75 23.1 13.55 24.35 11.2 25.75 8 25.75 5.3 25.75 5.25 17.4 5.2 13.55 5.65 9.7 5.7 9.35 5.75 9M-25.15 -7.15Q-24.25 -11.2 -22.85 -13.3 -21.4 -15.6 -18.6 -17.1 -16.2 -18.45 -12.25 -11.05 -10.4 -7.65 -9 -4.1 -8.9 -3.7 -8.75 -3.4M-12.85 23.8Q-16.75 22.4 -18.7 20.8 -20.85 19.05 -22.05 16.1 -23.1 13.6 -15.3 10.55 -11.75 9.05 -8 8.05 -7.65 8 -7.3 7.95" test="Bike Wheel"/>
    </g>
  </defs>
  <g id="19_Motorbikesf88r1" overflow="visible">
    <g id="Smokef14r1">
      <path fill="#000" stroke="none" d="M315.05,-101.445 Q266.454,-138.968 211.883,-111.169 192.829,-163.793 107.477,-152.582 63.391,-213.443 -41.579,-220.879 -41.579,219.904 -41.579,660.688 -10.572,707.82 43.548,675.216 116.159,681.508 126.081,639.066 189.784,658.628 231.502,625.91 263.748,635.863 281.45,603.373 290.696,614.699 310.878,607.835 327.79,606.462 338.163,596.738 345.041,609.78 361.052,599.026 370.635,595.136 380.332,591.247 384.729,600.742 397.357,593.764 400.739,592.734 404.122,591.59 469.855,651.078 573.247,581.294 658.712,584.497 705.728,557.956 750.265,533.246 760.187,481.652 905.747,519.404 999.668,436.006 1073.068,455.111 1112.53,375.603 1132.938,400.199 1179.053,382.238 1217.501,377.09 1240.502,352.38 1255.61,381.094 1291.803,354.439 1313.564,343.914 1335.324,333.389 1345.021,354.553 1373.885,337.164 1389.332,331.33 1404.778,325.381 1427.554,324.466 1450.329,323.436 1450.329,319.661 1451.344,311.196 1451.795,307.306 1452.246,303.416 1452.246,298.154 1452.246,292.892 1444.466,294.493 1436.574,296.209 1433.417,283.396 1430.936,282.367 1407.823,271.956 1397.337,278.935 1378.62,266.236 1353.252,267.495 1325.064,231.573 1268.125,248.39 1241.404,216.472 1199.573,205.833 1195.402,204.689 1191.004,203.774 1178.376,199.541 1147.257,204.117 1056.606,124.037 955.695,165.45 941.376,171.056 926.944,178.949 891.991,55.969 703.361,82.853 622.519,-43.33 431.182,-67.926 422.5,-73.532 410.887,-73.188 397.357,-88.861 371.537,-81.997 357.556,-97.441 335.57,-101.674 329.256,-103.39 315.05,-101.445Z" test="Smoke" stroke-width="2.271"/>
      <path id="Layer2_0_1_STROKES" stroke="#FFF" stroke-width="2.271" stroke-linejoin="round" stroke-linecap="round" fill="none" d="M1450.329,323.436 Q1427.554,324.466 1404.778,325.381 1389.332,331.33 1373.885,337.164 1345.021,354.553 1335.324,333.389 1313.564,343.914 1291.803,354.439 1255.61,381.094 1240.502,352.38 1217.501,377.09 1179.053,382.238 1132.938,400.199 1112.53,375.603 1073.068,455.111 999.668,436.006 905.747,519.404 760.187,481.652 750.265,533.246 705.728,557.956 658.712,584.497 573.247,581.294 469.855,651.078 404.122,591.59 400.739,592.734 397.357,593.764 384.729,600.742 380.332,591.247 370.635,595.136 361.052,599.026 345.041,609.78 338.163,596.738 327.79,606.462 310.878,607.835 290.696,614.699 281.45,603.373 263.748,635.863 231.502,625.91 189.784,658.628 126.081,639.066 116.159,681.508 43.548,675.216 -10.572,707.82 -41.579,660.688 -41.579,219.904 -41.579,-220.879 63.391,-213.443 107.477,-152.582 192.829,-163.793 211.883,-111.169 266.454,-138.968 315.05,-101.445 329.256,-103.39 335.57,-101.674 357.556,-97.441 371.537,-81.997 397.357,-88.861 410.887,-73.188 422.5,-73.532 431.182,-67.926 622.519,-43.33 703.361,82.853 891.991,55.969 926.944,178.949 941.376,171.056 955.695,165.45 1056.606,124.037 1147.257,204.117 1178.376,199.541 1191.004,203.774 1195.402,204.689 1199.573,205.833 1241.404,216.472 1268.125,248.39 1325.064,231.573 1353.252,267.495 1378.62,266.236 1397.337,278.935 1407.823,271.956 1430.936,282.367 1433.417,283.396 1436.574,296.209 1444.466,294.493 1452.246,292.892 1452.246,298.154 1452.246,303.416 1451.795,307.306 1451.344,311.196 1450.329,319.661 1450.329,323.436Z" test="Smoke"/>
    </g>
    <g id="Smokef11r1">
      <path fill="#000" stroke="none" d="M-38.125,258.916 Q-50.444,232.741 -112.262,238.494 -142.581,208.243 -218.406,204.661 -218.406,351.461 -218.406,498.26 -195.962,521.044 -156.194,504.089 -102.644,506.49 -96.006,484.582 -49.206,493.574 -18.944,476.505 4.625,481.077 17.394,464.465 23.975,469.952 38.825,466.332 51.2,465.456 58.681,460.389 63.575,466.713 75.275,461.189 82.306,459.131 89.338,456.998 92.431,461.684 101.713,458.102 104.244,457.531 106.719,456.921 133.156,472.314 174.331,453.873 208.306,454.597 227.206,447.511 245.037,441.034 249.313,427.508 307.362,437.376 345.219,415.545 374.525,420.536 390.556,399.695 398.881,406.134 417.219,401.41 432.519,400.038 441.8,393.599 447.988,401.105 462.444,394.095 471.106,391.351 479.825,388.57 483.819,394.133 495.294,389.561 501.481,388.037 507.669,386.475 516.781,386.208 525.894,385.941 525.894,384.684 526.4,381.864 526.625,380.569 526.85,379.274 526.85,377.521 526.85,375.768 523.7,376.188 520.55,376.645 519.313,373.292 518.244,373.063 509.075,370.32 504.8,372.225 497.263,368.872 487.138,369.253 475.719,359.919 452.994,364.338 442.194,356.033 425.431,353.328 423.8,352.985 422.056,352.718 417.05,351.461 404.844,352.527 368.9,330.582 329.075,341.326 323.338,342.774 317.487,344.793 302.638,312.256 227.713,319.152 194.412,285.891 118.475,279.909 112.231,277.089 103.906,277.356 94.456,269.546 75.838,273.013 65.994,265.393 50.244,263.297 45.856,262.459 35.563,263.526 .913,244.933 -38.125,258.916Z" test="Smoke_22" vector-effect="non-scaling-stroke" stroke-width="1"/>
      <path id="Layer1_0_1_STROKES" stroke="#FFF" stroke-width="1" stroke-linejoin="round" stroke-linecap="round" fill="none" d="M525.894,385.941 Q516.781,386.208 507.669,386.475 501.481,388.037 495.294,389.561 483.819,394.133 479.825,388.57 471.106,391.351 462.444,394.095 447.988,401.105 441.8,393.599 432.519,400.038 417.219,401.41 398.881,406.134 390.556,399.695 374.525,420.536 345.219,415.545 307.362,437.376 249.313,427.508 245.037,441.034 227.206,447.511 208.306,454.597 174.331,453.873 133.156,472.314 106.719,456.921 104.244,457.531 101.713,458.102 92.431,461.684 89.338,456.998 82.306,459.131 75.275,461.189 63.575,466.713 58.681,460.389 51.2,465.456 38.825,466.332 23.975,469.952 17.394,464.465 4.625,481.077 -18.944,476.505 -49.206,493.574 -96.006,484.582 -102.644,506.49 -156.194,504.089 -195.962,521.044 -218.406,498.26 -218.406,351.461 -218.406,204.661 -142.581,208.243 -112.262,238.494 -50.444,232.741 -38.125,258.916 .913,244.933 35.563,263.526 45.856,262.459 50.244,263.297 65.994,265.393 75.838,273.013 94.456,269.546 103.906,277.356 112.231,277.089 118.475,279.909 194.412,285.891 227.713,319.152 302.638,312.256 317.487,344.793 323.338,342.774 329.075,341.326 368.9,330.582 404.844,352.527 417.05,351.461 422.056,352.718 423.8,352.985 425.431,353.328 442.194,356.033 452.994,364.338 475.719,359.919 487.138,369.253 497.263,368.872 504.8,372.225 509.075,370.32 518.244,373.063 519.313,373.292 520.55,376.645 523.7,376.188 526.85,375.768 526.85,377.521 526.85,379.274 526.625,380.569 526.4,381.864 525.894,384.684 525.894,385.941Z" test="Smoke_22" vector-effect="non-scaling-stroke"/>
    </g>
    <g id="MotorBikePinkf6r1">
      <g id="RedBike-container">
        <path fill="#000" stroke="none" d="M437.673,341.145 Q440.822,345.952 445.874,347.065 450.925,348.177 477.098,340.904 503.24,333.579 517.346,321.309 516.109,318.465 514.546,315.181 L513.234,312.449 Q513.307,312.421 513.339,312.388 L513.087,311.836 482.976,323.15 Q473.987,326.079 456.854,327.388 446.596,328.259 435.312,328.33 435.612,329.204 435.149,332.13 434.707,334.973 434.838,335.317 436.687,339.692 437.673,341.145 M604.019,289.847 L602.824,289.355 598.938,298.888 614.399,301.068 617.476,302.632 Q620.42,297.063 622.375,293.278 L620.336,292.298 604.019,289.847 M555.46,269.124 Q556.3,273.807 538.804,278.334 L542.767,282.737 Q553.505,284.732 564.536,273.904 L560.911,265.04 553.787,262.409 Q553.339,262.6 552.943,262.76 L555.46,269.124 M538.804,278.334 Q556.3,273.807 555.46,269.124 L552.943,262.76 Q543.756,267.272 534.4,272.091 514.278,282.552 513.141,284.682 511.87,286.82 512.607,289.886 513.002,291.404 514.643,295.062 515.75,297.563 516.689,303.377 517.554,309.304 516.906,310.591 516.698,311.055 513.339,312.388 513.307,312.421 513.234,312.449 L514.546,315.181 Q516.109,318.465 517.346,321.309 503.24,333.579 477.098,340.904 450.925,348.177 445.874,347.065 440.822,345.952 437.673,341.145 436.687,339.692 434.838,335.317 434.707,334.973 435.149,332.13 435.612,329.204 435.312,328.33 435.279,328.213 435.191,328.121 434.605,326.902 431.641,330.188 427.385,334.764 410.069,349.322 401.354,356.564 393.532,362.937 399.967,375.547 399.601,375.76 399.236,375.973 420.201,372.362 440.14,369.628 440.461,369.58 458.503,367.671 464.268,369.767 469.062,371.518 473.122,373.208 473.596,373.422 474.122,373.605 476.636,374.675 478.83,375.686 478.975,375.772 479.056,375.834 479.865,376.192 480.59,376.549 485.871,379.135 490.083,381.925 491.295,382.687 492.404,383.51 494.929,385.325 496.997,387.196 506.283,395.699 518.911,413.301 519.076,413.585 526.214,409.397 526.295,409.385 526.318,409.336 536.281,403.531 559.444,389.276 561.118,388.248 562.776,387.195 581.146,375.937 599.47,364.498 597.797,362.466 595.947,358.93 592.195,351.887 591.122,344.403 589.993,336.463 592.146,323.954 593.656,315.385 596.019,307.438 596.054,307.138 596.171,306.86 597.091,303.878 598.938,298.888 L602.824,289.355 604.792,284.573 Q588.962,277.441 579.042,273.006 579.035,272.992 578.959,272.984 565.76,267.072 563.25,266.055 L561.385,265.254 560.911,265.04 564.536,273.904 Q553.505,284.732 542.767,282.737 L538.804,278.334 M527.452,355.828 Q538.358,355.349 545.26,359.998 552.079,364.625 556.499,373.655 558.709,378.17 559.706,381.923 L522.901,402.868 524.638,406.33 Q524.841,407.4 517.58,395.411 510.318,383.423 495.223,374.668 490.555,371.934 485.63,369.839 L482.135,368.519 488.584,367.349 Q498.17,364.843 507.373,360.601 516.495,356.338 527.452,355.828 M545.26,359.998 Q538.358,355.349 527.452,355.828 516.495,356.338 507.373,360.601 498.17,364.843 488.584,367.349 L482.135,368.519 485.63,369.839 Q490.555,371.934 495.223,374.668 510.318,383.423 517.58,395.411 524.841,407.4 524.638,406.33 L522.901,402.868 559.706,381.923 Q558.709,378.17 556.499,373.655 552.079,364.625 545.26,359.998 M573.554,237.056 Q547.981,233.354 539.179,235.405 532.351,237.004 531.483,239.956 531.287,240.7 531.238,242.895 531.241,245.061 530.766,246.526 533.519,250.654 537.023,252.109 539.579,253.137 548.469,255.439 549.694,255.782 555.646,258.04 555.723,258.045 555.729,258.062 564.079,261.153 581.42,267.846 606.871,277.7 609.533,276.989 614.034,275.836 620.634,271.083 628.195,265.701 627.693,262.079 627.183,258.322 623.215,255.11 620.273,252.699 609.446,246.352 600.11,240.884 573.554,237.056Z" test="RedBike container" stroke-width="1.208"/>
        <path id="Layer3_0_1_STROKES" stroke="#0FF" stroke-width="1.208" stroke-linejoin="round" stroke-linecap="round" fill="none" d="M530.766,246.526 Q531.241,245.061 531.238,242.895 531.287,240.7 531.483,239.956 532.351,237.004 539.179,235.405 547.981,233.354 573.554,237.056 600.11,240.884 609.446,246.352 620.273,252.699 623.215,255.11 627.183,258.322 627.693,262.079 628.195,265.701 620.634,271.083 614.034,275.836 609.533,276.989 606.871,277.7 581.42,267.846 564.079,261.153 555.77,258.073 555.723,258.045 555.673,258.025 549.694,255.782 548.469,255.439 539.579,253.137 537.023,252.109 533.519,250.654 530.766,246.526Z" test="RedBike container"/>
        <path id="Layer3_0_2_STROKES" stroke="#FFF" stroke-width="1.208" stroke-linejoin="round" stroke-linecap="round" fill="none" d="M560.911,265.04 L564.536,273.904 Q553.505,284.732 542.767,282.737 L538.804,278.334 Q556.3,273.807 555.46,269.124 L552.943,262.76 M561.385,265.254 L560.911,265.04 553.787,262.409 M552.943,262.76 L552.787,262.012 553.787,262.409 M620.336,292.298 L604.019,289.847 M598.938,298.888 L614.399,301.068" test="RedBike container"/>
        <path id="Layer3_0_3_STROKES" stroke="#FF0265" stroke-width="1.208" stroke-linejoin="round" stroke-linecap="round" fill="none" d="M552.943,262.76 Q543.756,267.272 534.4,272.091 514.278,282.552 513.141,284.682 511.87,286.82 512.607,289.886 513.002,291.404 514.643,295.062 515.75,297.563 516.689,303.377 517.554,309.304 516.906,310.591 516.698,311.055 513.38,312.399 513.307,312.421 513.234,312.449 L514.546,315.181 Q516.109,318.465 517.346,321.309 503.24,333.579 477.098,340.904 450.925,348.177 445.874,347.065 440.822,345.952 437.673,341.145 436.687,339.692 434.838,335.317 434.707,334.973 435.149,332.13 435.612,329.204 435.312,328.33 435.279,328.213 435.232,328.132 434.605,326.902 431.641,330.188 427.385,334.764 410.069,349.322 401.354,356.564 393.532,362.937 399.967,375.547 399.601,375.76 399.236,375.973 420.201,372.362 440.14,369.628 440.461,369.58 458.503,367.671 464.268,369.767 469.062,371.518 473.122,373.208 473.596,373.422 474.122,373.605 476.636,374.675 478.845,375.713 478.975,375.772 479.097,375.845 479.865,376.192 480.59,376.549 485.871,379.135 490.083,381.925 491.295,382.687 492.404,383.51 494.929,385.325 496.997,387.196 506.283,395.699 518.911,413.301 519.076,413.585 526.229,409.423 526.295,409.385 526.36,409.347 536.281,403.531 559.444,389.276 561.118,388.248 562.792,387.221 581.146,375.937 599.47,364.498 597.797,362.466 595.947,358.93 592.195,351.887 591.122,344.403 589.993,336.463 592.146,323.954 593.656,315.385 596.019,307.438 596.054,307.138 596.171,306.86 597.091,303.878 598.938,298.888 L602.824,289.355 604.792,284.573 Q588.962,277.441 579.083,273.017 579.035,272.992 578.986,272.969 565.76,267.072 563.25,266.055 L561.385,265.254 M552.943,262.76 Q553.339,262.6 553.787,262.409 553.995,262.287 554.256,262.135 L560.911,265.04 M435.312,328.33 Q446.596,328.259 456.854,327.388 473.987,326.079 482.976,323.15 L513.087,311.836 M485.63,369.839 Q490.555,371.934 495.223,374.668 510.318,383.423 517.58,395.411 524.841,407.4 524.638,406.33 L522.901,402.868 559.706,381.923 Q558.709,378.17 556.499,373.655 552.079,364.625 545.26,359.998 538.358,355.349 527.452,355.828 516.495,356.338 507.373,360.601 498.17,364.843 488.584,367.349 L482.161,368.503 485.63,369.839Z" test="RedBike container"/>
        <use xlink:href="#Bike-Wheel" transform="matrix(1.044 -.608 .608 1.044 658.65 314.25)"/>
        <use xlink:href="#Bike-Wheel" transform="matrix(1.044 -.608 .608 1.044 463.05 433.5)"/>
      </g>
    </g>
  </g>
</svg>