<?xml version="1.0" encoding="utf-8"?>
<svg id="EdithAnim11" image-rendering="inherit" baseProfile="basic" version="1.1" x="0px" y="0px" width="800" height="600" xmlns="http://www.w3.org/2000/svg" xmlns:xlink="http://www.w3.org/1999/xlink">
  <defs>
    <g id="Bike-Wheel" overflow="visible">
      <path id="Layer5_0_1_STROKES" stroke="#FFF" stroke-width="1" stroke-linejoin="round" stroke-linecap="round" fill="none" d="M2.05 -34.85Q-12.35 -34.85 -22.65 -26.45 -34 -17.2 -34.7 -1.55 -35.4 14.3 -26.6 24.6 -18.4 34.2 -5.6 34.85 7.15 35.5 19.2 29.8 31.25 24.1 34.05 7.25 36.85 -9.65 28.9 -21.15 19.4 -34.85 2.05 -34.85Z" test="Bike Wheel"/>
      <path id="Layer4_0_1_STROKES" stroke="#FFF" stroke-width="1" stroke-linejoin="round" stroke-linecap="round" fill="none" d="M.55 -26.55Q4.65 -26.85 7.1 -26.15 9.75 -25.4 12 -23.15 13.95 -21.25 8 -15.35 5.3 -12.6 2.25 -10.2 1.95 -10 1.7 -9.8M24.45 -8.9Q26.2 -5.15 26.45 -2.65 26.7 .1 25.4 3.05 24.35 5.5 16.7 2.1 13.2 .6 9.85 -1.4 9.5 -1.6 9.25 -1.75M18.45 20Q15.75 23.1 13.55 24.35 11.2 25.75 8 25.75 5.3 25.75 5.25 17.4 5.2 13.55 5.65 9.7 5.7 9.35 5.75 9M-25.15 -7.15Q-24.25 -11.2 -22.85 -13.3 -21.4 -15.6 -18.6 -17.1 -16.2 -18.45 -12.25 -11.05 -10.4 -7.65 -9 -4.1 -8.9 -3.7 -8.75 -3.4M-12.85 23.8Q-16.75 22.4 -18.7 20.8 -20.85 19.05 -22.05 16.1 -23.1 13.6 -15.3 10.55 -11.75 9.05 -8 8.05 -7.65 8 -7.3 7.95" test="Bike Wheel"/>
    </g>
  </defs>
  <g id="19_Motorbikesf89r1" overflow="visible">
    <g id="Smokef15r1">
      <path fill="#000" stroke="none" d="M322.732,-118.414 Q310.204,-131.861 290.948,-135.669 285.264,-137.216 272.852,-135.431 230.048,-168.156 182.024,-144.237 164.392,-189.933 89.804,-180.294 50.248,-233.249 -41.74,-239.913 -41.74,218.594 -41.74,677.101 -14.596,718.751 32.268,691.262 95.024,697.45 104.188,661.393 159.404,679.124 195.828,651.516 223.784,660.56 239.328,632.833 247.448,642.829 264.964,637.117 279.696,636.046 288.744,627.835 294.776,639.259 308.696,630.215 317.048,627.002 325.516,623.67 329.344,632.119 340.364,626.169 343.264,625.336 346.164,624.384 418.2,690.786 531.648,613.198 625.608,617.006 677.112,587.494 725.948,559.886 736.504,502.409 896.236,544.535 999.244,451.596 1079.748,473.016 1122.784,384.361 1145.172,411.731 1195.748,391.739 1237.972,386.027 1263.144,358.538 1279.616,390.549 1319.404,360.799 1343.3,349.137 1367.08,337.356 1377.636,361.037 1409.42,341.64 1426.356,335.095 1443.176,328.55 1468.232,327.36 1493.172,326.289 1493.172,322.362 1494.216,313.556 1494.68,309.51 1495.144,305.464 1495.144,299.99 1495.144,294.516 1486.56,296.301 1477.86,298.205 1474.496,283.925 1471.828,282.735 1446.54,271.073 1434.94,278.927 1414.408,264.647 1386.684,266.075 1355.944,225.972 1293.42,244.655 1264.072,209.074 1218.252,197.174 1213.612,195.865 1208.856,194.794 1194.82,190.272 1160.6,195.508 1060.956,107.448 949.944,153.62 934.284,159.927 918.392,168.852 880.808,32.002 673.4,62.109 585.472,-78.311 375.28,-106.038 367.624,-111.036 357.3,-110.679 345.352,-124.364 322.732,-118.414Z" test="Smoke" stroke-width="2.35"/>
      <path id="Layer2_0_1_STROKES" stroke="#FFF" stroke-width="2.35" stroke-linejoin="round" stroke-linecap="round" fill="none" d="M1493.172,326.289 Q1468.232,327.36 1443.176,328.55 1426.356,335.095 1409.42,341.64 1377.636,361.037 1367.08,337.356 1343.3,349.137 1319.404,360.799 1279.616,390.549 1263.144,358.538 1237.972,386.027 1195.748,391.739 1145.172,411.731 1122.784,384.361 1079.748,473.016 999.244,451.596 896.236,544.535 736.504,502.409 725.948,559.886 677.112,587.494 625.608,617.006 531.648,613.198 418.2,690.786 346.164,624.384 343.264,625.336 340.364,626.169 329.344,632.119 325.516,623.67 317.048,627.002 308.696,630.215 294.776,639.259 288.744,627.835 279.696,636.046 264.964,637.117 247.448,642.829 239.328,632.833 223.784,660.56 195.828,651.516 159.404,679.124 104.188,661.393 95.024,697.45 32.268,691.262 -14.596,718.751 -41.74,677.101 -41.74,218.594 -41.74,-239.913 50.248,-233.249 89.804,-180.294 164.392,-189.933 182.024,-144.237 230.048,-168.156 272.852,-135.431 285.264,-137.216 290.948,-135.669 310.204,-131.861 322.732,-118.414 345.352,-124.364 357.3,-110.679 367.624,-111.036 375.28,-106.038 585.472,-78.311 673.4,62.109 880.808,32.002 918.392,168.852 934.284,159.927 949.944,153.62 1060.956,107.448 1160.6,195.508 1194.82,190.272 1208.856,194.794 1213.612,195.865 1218.252,197.174 1264.072,209.074 1293.42,244.655 1355.944,225.972 1386.684,266.075 1414.408,264.647 1434.94,278.927 1446.54,271.073 1471.828,282.735 1474.496,283.925 1477.86,298.205 1486.56,296.301 1495.144,294.516 1495.144,299.99 1495.144,305.464 1494.68,309.51 1494.216,313.556 1493.172,322.362 1493.172,326.289Z" test="Smoke"/>
    </g>
    <g id="Smokef12r1">
      <path fill="#000" stroke="none" d="M-20.286,242.186 Q-32.346,216.646 -91.15,222.205 -120.403,192.694 -192.581,189.141 -192.581,350.197 -192.581,511.252 -171.208,533.657 -133.537,517.313 -82.852,519.779 -76.404,498.629 -32.047,507.574 -3.272,491.105 19.116,495.661 31.294,479.568 37.563,484.96 51.652,481.449 63.413,480.655 70.458,475.764 75.174,481.992 86.278,476.642 92.965,474.635 99.591,472.629 102.576,477.185 111.412,473.716 113.8,473.172 116.128,472.587 146.456,491.105 193.798,469.118 232.961,470.037 254.632,461.636 275.109,453.861 279.885,437.684 346.63,449.514 389.972,423.389 423.703,429.366 441.971,404.411 451.463,412.144 472.597,406.501 490.208,404.871 500.835,397.138 507.88,406.125 524.476,397.765 534.506,394.463 544.476,391.161 549.013,397.807 562.266,392.331 569.371,390.534 576.415,388.653 586.922,388.36 597.37,388.026 597.37,386.646 597.907,383.553 598.146,382.132 598.385,380.711 598.385,378.788 598.385,376.865 594.803,377.367 591.161,377.91 589.728,373.897 588.534,373.605 577.967,370.344 573.072,372.56 564.475,368.589 552.834,369.007 539.759,357.804 513.67,363.071 501.253,353.123 482.03,349.862 480.119,349.444 478.149,349.152 472.358,347.731 458.209,349.068 416.777,323.278 370.808,336.152 364.241,337.908 357.555,340.332 340.899,301.542 254.573,309.86 216.723,270.192 129.202,262.793 123.292,260.076 115.352,260.285 106.278,252.677 88.487,256.063 79.114,248.581 64.07,246.533 59.831,245.739 50.04,246.742 16.966,228.559 -20.286,242.186Z" test="Smoke_22" stroke-width="1.015"/>
      <path id="Layer1_0_1_STROKES" stroke="#FFF" stroke-width="1.015" stroke-linejoin="round" stroke-linecap="round" fill="none" d="M597.37,388.026 Q586.922,388.36 576.415,388.653 569.371,390.534 562.266,392.331 549.013,397.807 544.476,391.161 534.506,394.463 524.476,397.765 507.88,406.125 500.835,397.138 490.208,404.871 472.597,406.501 451.463,412.144 441.971,404.411 423.703,429.366 389.972,423.389 346.63,449.514 279.885,437.684 275.109,453.861 254.632,461.636 232.961,470.037 193.798,469.118 146.456,491.105 116.128,472.587 113.8,473.172 111.412,473.716 102.576,477.185 99.591,472.629 92.965,474.635 86.278,476.642 75.174,481.992 70.458,475.764 63.413,480.655 51.652,481.449 37.563,484.96 31.294,479.568 19.116,495.661 -3.272,491.105 -32.047,507.574 -76.404,498.629 -82.852,519.779 -133.537,517.313 -171.208,533.657 -192.581,511.252 -192.581,350.197 -192.581,189.141 -120.403,192.694 -91.15,222.205 -32.346,216.646 -20.286,242.186 16.966,228.559 50.04,246.742 59.831,245.739 64.07,246.533 79.114,248.581 88.487,256.063 106.278,252.677 115.352,260.285 123.292,260.076 129.202,262.793 216.723,270.192 254.573,309.86 340.899,301.542 357.555,340.332 364.241,337.908 370.808,336.152 416.777,323.278 458.209,349.068 472.358,347.731 478.149,349.152 480.119,349.444 482.03,349.862 501.253,353.123 513.67,363.071 539.759,357.804 552.834,369.007 564.475,368.589 573.072,372.56 577.967,370.344 588.534,373.605 589.728,373.897 591.161,377.91 594.803,377.367 598.385,376.865 598.385,378.788 598.385,380.711 598.146,382.132 597.907,383.553 597.37,386.646 597.37,388.026Z" test="Smoke_22"/>
    </g>
    <g id="MotorBikePinkf6r1">
      <g id="RedBike-container">
        <path fill="#000" stroke="none" d="M500.923,341.145 Q504.072,345.952 509.124,347.065 514.175,348.177 540.348,340.904 566.49,333.579 580.596,321.309 579.359,318.465 577.796,315.181 L576.484,312.449 Q576.557,312.421 576.589,312.388 L576.337,311.836 546.226,323.15 Q537.237,326.079 520.104,327.388 509.846,328.259 498.562,328.33 498.862,329.204 498.399,332.13 497.957,334.973 498.088,335.317 499.937,339.692 500.923,341.145 M667.269,289.847 L666.074,289.355 662.188,298.888 677.649,301.068 680.726,302.632 Q683.67,297.063 685.625,293.278 L683.586,292.298 667.269,289.847 M618.71,269.124 Q619.55,273.807 602.054,278.334 L606.017,282.737 Q616.755,284.732 627.786,273.904 L624.161,265.04 617.037,262.409 Q616.589,262.6 616.193,262.76 L618.71,269.124 M602.054,278.334 Q619.55,273.807 618.71,269.124 L616.193,262.76 Q607.006,267.272 597.65,272.091 577.528,282.552 576.391,284.682 575.12,286.82 575.857,289.886 576.252,291.404 577.893,295.062 579,297.563 579.939,303.377 580.804,309.304 580.156,310.591 579.948,311.055 576.589,312.388 576.557,312.421 576.484,312.449 L577.796,315.181 Q579.359,318.465 580.596,321.309 566.49,333.579 540.348,340.904 514.175,348.177 509.124,347.065 504.072,345.952 500.923,341.145 499.937,339.692 498.088,335.317 497.957,334.973 498.399,332.13 498.862,329.204 498.562,328.33 498.529,328.213 498.441,328.121 497.855,326.902 494.891,330.188 490.635,334.764 473.319,349.322 464.604,356.564 456.782,362.937 463.217,375.547 462.851,375.76 462.486,375.973 483.451,372.362 503.39,369.628 503.711,369.58 521.753,367.671 527.518,369.767 532.312,371.518 536.372,373.208 536.846,373.422 537.372,373.605 539.886,374.675 542.08,375.686 542.225,375.772 542.306,375.834 543.115,376.192 543.84,376.549 549.121,379.135 553.333,381.925 554.545,382.687 555.654,383.51 558.179,385.325 560.247,387.196 569.533,395.699 582.161,413.301 582.326,413.585 589.464,409.397 589.545,409.385 589.568,409.336 599.531,403.531 622.694,389.276 624.368,388.248 626.026,387.195 644.396,375.937 662.72,364.498 661.047,362.466 659.197,358.93 655.445,351.887 654.372,344.403 653.243,336.463 655.396,323.954 656.906,315.385 659.269,307.438 659.304,307.138 659.421,306.86 660.341,303.878 662.188,298.888 L666.074,289.355 668.042,284.573 Q652.212,277.441 642.292,273.006 642.285,272.992 642.209,272.984 629.01,267.072 626.5,266.055 L624.635,265.254 624.161,265.04 627.786,273.904 Q616.755,284.732 606.017,282.737 L602.054,278.334 M590.702,355.828 Q601.608,355.349 608.51,359.998 615.329,364.625 619.749,373.655 621.959,378.17 622.956,381.923 L586.151,402.868 587.888,406.33 Q588.091,407.4 580.83,395.411 573.568,383.423 558.473,374.668 553.805,371.934 548.88,369.839 L545.385,368.519 551.834,367.349 Q561.42,364.843 570.623,360.601 579.745,356.338 590.702,355.828 M608.51,359.998 Q601.608,355.349 590.702,355.828 579.745,356.338 570.623,360.601 561.42,364.843 551.834,367.349 L545.385,368.519 548.88,369.839 Q553.805,371.934 558.473,374.668 573.568,383.423 580.83,395.411 588.091,407.4 587.888,406.33 L586.151,402.868 622.956,381.923 Q621.959,378.17 619.749,373.655 615.329,364.625 608.51,359.998 M636.804,237.056 Q611.231,233.354 602.429,235.405 595.601,237.004 594.733,239.956 594.537,240.7 594.488,242.895 594.491,245.061 594.016,246.526 596.769,250.654 600.273,252.109 602.829,253.137 611.719,255.439 612.944,255.782 618.896,258.04 618.973,258.045 618.979,258.062 627.329,261.153 644.67,267.846 670.121,277.7 672.783,276.989 677.284,275.836 683.884,271.083 691.445,265.701 690.943,262.079 690.433,258.322 686.465,255.11 683.523,252.699 672.696,246.352 663.36,240.884 636.804,237.056Z" test="RedBike container" stroke-width="1.208"/>
        <path id="Layer3_0_1_STROKES" stroke="#0FF" stroke-width="1.208" stroke-linejoin="round" stroke-linecap="round" fill="none" d="M594.016,246.526 Q594.491,245.061 594.488,242.895 594.537,240.7 594.733,239.956 595.601,237.004 602.429,235.405 611.231,233.354 636.804,237.056 663.36,240.884 672.696,246.352 683.523,252.699 686.465,255.11 690.433,258.322 690.943,262.079 691.445,265.701 683.884,271.083 677.284,275.836 672.783,276.989 670.121,277.7 644.67,267.846 627.329,261.153 619.02,258.073 618.973,258.045 618.923,258.025 612.944,255.782 611.719,255.439 602.829,253.137 600.273,252.109 596.769,250.654 594.016,246.526Z" test="RedBike container"/>
        <path id="Layer3_0_2_STROKES" stroke="#FFF" stroke-width="1.208" stroke-linejoin="round" stroke-linecap="round" fill="none" d="M624.161,265.04 L627.786,273.904 Q616.755,284.732 606.017,282.737 L602.054,278.334 Q619.55,273.807 618.71,269.124 L616.193,262.76 M624.635,265.254 L624.161,265.04 617.037,262.409 M616.193,262.76 L616.037,262.012 617.037,262.409 M683.586,292.298 L667.269,289.847 M662.188,298.888 L677.649,301.068" test="RedBike container"/>
        <path id="Layer3_0_3_STROKES" stroke="#FF0265" stroke-width="1.208" stroke-linejoin="round" stroke-linecap="round" fill="none" d="M616.193,262.76 Q607.006,267.272 597.65,272.091 577.528,282.552 576.391,284.682 575.12,286.82 575.857,289.886 576.252,291.404 577.893,295.062 579,297.563 579.939,303.377 580.804,309.304 580.156,310.591 579.948,311.055 576.63,312.399 576.557,312.421 576.484,312.449 L577.796,315.181 Q579.359,318.465 580.596,321.309 566.49,333.579 540.348,340.904 514.175,348.177 509.124,347.065 504.072,345.952 500.923,341.145 499.937,339.692 498.088,335.317 497.957,334.973 498.399,332.13 498.862,329.204 498.562,328.33 498.529,328.213 498.482,328.132 497.855,326.902 494.891,330.188 490.635,334.764 473.319,349.322 464.604,356.564 456.782,362.937 463.217,375.547 462.851,375.76 462.486,375.973 483.451,372.362 503.39,369.628 503.711,369.58 521.753,367.671 527.518,369.767 532.312,371.518 536.372,373.208 536.846,373.422 537.372,373.605 539.886,374.675 542.095,375.713 542.225,375.772 542.347,375.845 543.115,376.192 543.84,376.549 549.121,379.135 553.333,381.925 554.545,382.687 555.654,383.51 558.179,385.325 560.247,387.196 569.533,395.699 582.161,413.301 582.326,413.585 589.479,409.423 589.545,409.385 589.61,409.347 599.531,403.531 622.694,389.276 624.368,388.248 626.042,387.221 644.396,375.937 662.72,364.498 661.047,362.466 659.197,358.93 655.445,351.887 654.372,344.403 653.243,336.463 655.396,323.954 656.906,315.385 659.269,307.438 659.304,307.138 659.421,306.86 660.341,303.878 662.188,298.888 L666.074,289.355 668.042,284.573 Q652.212,277.441 642.333,273.017 642.285,272.992 642.236,272.969 629.01,267.072 626.5,266.055 L624.635,265.254 M616.193,262.76 Q616.589,262.6 617.037,262.409 617.245,262.287 617.506,262.135 L624.161,265.04 M498.562,328.33 Q509.846,328.259 520.104,327.388 537.237,326.079 546.226,323.15 L576.337,311.836 M548.88,369.839 Q553.805,371.934 558.473,374.668 573.568,383.423 580.83,395.411 588.091,407.4 587.888,406.33 L586.151,402.868 622.956,381.923 Q621.959,378.17 619.749,373.655 615.329,364.625 608.51,359.998 601.608,355.349 590.702,355.828 579.745,356.338 570.623,360.601 561.42,364.843 551.834,367.349 L545.411,368.503 548.88,369.839Z" test="RedBike container"/>
        <use xlink:href="#Bike-Wheel" transform="matrix(1.044 -.608 .608 1.044 721.9 314.25)"/>
        <use xlink:href="#Bike-Wheel" transform="matrix(1.044 -.608 .608 1.044 526.3 433.5)"/>
      </g>
    </g>
  </g>
</svg>