<?xml version="1.0" encoding="utf-8"?>
<svg id="EdithAnim11" image-rendering="inherit" baseProfile="basic" version="1.1" x="0px" y="0px" width="800" height="600" xmlns="http://www.w3.org/2000/svg" xmlns:xlink="http://www.w3.org/1999/xlink">
  <defs>
    <g id="Bike-Wheel" overflow="visible">
      <path id="Layer4_0_1_STROKES" stroke="#FFF" stroke-width="1" stroke-linejoin="round" stroke-linecap="round" fill="none" d="M2.05 -34.85Q-12.35 -34.85 -22.65 -26.45 -34 -17.2 -34.7 -1.55 -35.4 14.3 -26.6 24.6 -18.4 34.2 -5.6 34.85 7.15 35.5 19.2 29.8 31.25 24.1 34.05 7.25 36.85 -9.65 28.9 -21.15 19.4 -34.85 2.05 -34.85Z" test="Bike Wheel"/>
      <path id="Layer3_0_1_STROKES" stroke="#FFF" stroke-width="1" stroke-linejoin="round" stroke-linecap="round" fill="none" d="M.55 -26.55Q4.65 -26.85 7.1 -26.15 9.75 -25.4 12 -23.15 13.95 -21.25 8 -15.35 5.3 -12.6 2.25 -10.2 1.95 -10 1.7 -9.8M24.45 -8.9Q26.2 -5.15 26.45 -2.65 26.7 .1 25.4 3.05 24.35 5.5 16.7 2.1 13.2 .6 9.85 -1.4 9.5 -1.6 9.25 -1.75M18.45 20Q15.75 23.1 13.55 24.35 11.2 25.75 8 25.75 5.3 25.75 5.25 17.4 5.2 13.55 5.65 9.7 5.7 9.35 5.75 9M-25.15 -7.15Q-24.25 -11.2 -22.85 -13.3 -21.4 -15.6 -18.6 -17.1 -16.2 -18.45 -12.25 -11.05 -10.4 -7.65 -9 -4.1 -8.9 -3.7 -8.75 -3.4M-12.85 23.8Q-16.75 22.4 -18.7 20.8 -20.85 19.05 -22.05 16.1 -23.1 13.6 -15.3 10.55 -11.75 9.05 -8 8.05 -7.65 8 -7.3 7.95" test="Bike Wheel"/>
    </g>
  </defs>
  <g id="19_Motorbikesf9r1" overflow="visible">
    <g id="MotorBikeBluef0r1">
      <path fill="#000" stroke="none" d="M122.25,274.55 L121.6,273.7 114.85,278.9 125,286.9 126.55,289.3 Q130.975,286.543 133.95,284.65 L132.9,283.1 122.25,274.55 M96.15,239.5 Q94.8,243.2 80.4,239.15 L81.4,243.95 Q88.25,249.85 100.65,246.7 L101.75,238.85 97.75,234 Q97.35,233.95 97,233.9 L96.15,239.5 M122.45,224.1 Q105.7,210.8 98.55,208.6 93,206.9 91.15,208.65 90.7,209.1 89.75,210.65 88.85,212.2 87.9,213.05 88.15,217.15 90.05,219.65 91.45,221.45 96.85,226.8 97.583,227.555 100.9,231.65 100.953,231.685 100.95,231.7 105.635,237.389 115.25,249.4 129.35,267.05 131.55,267.65 135.25,268.7 141.95,268.05 149.6,267.35 150.75,264.55 151.95,261.65 150.45,257.7 149.35,254.75 144.25,245.7 139.85,237.9 122.45,224.1Z" test="BlueBikeContainer"/>
      <path id="Layer2_0_1_STROKES" stroke="#0FF" stroke-width="1" stroke-linejoin="round" stroke-linecap="round" fill="none" d="M87.9,213.05 Q88.85,212.2 89.75,210.65 90.7,209.1 91.15,208.65 93,206.9 98.55,208.6 105.7,210.8 122.45,224.1 139.85,237.9 144.25,245.7 149.35,254.75 150.45,257.7 151.95,261.65 150.75,264.55 149.6,267.35 141.95,268.05 135.25,268.7 131.55,267.65 129.35,267.05 115.25,249.4 105.635,237.389 100.975,231.725 100.953,231.685 100.925,231.65 97.583,227.555 96.85,226.8 91.45,221.45 90.05,219.65 88.15,217.15 87.9,213.05Z" test="BlueBikeContainer"/>
      <path id="Layer2_0_2_STROKES" stroke="#009EFF" stroke-width="1" stroke-linejoin="round" stroke-linecap="round" fill="none" d="M97,233.9 Q88.55,233.3 79.85,232.85 61.1,231.95 59.4,233 57.6,234 56.85,236.5 56.5,237.75 56.15,241.05 55.9,243.3 54.15,247.85 52.3,252.45 51.3,253.1 50.958,253.345 48.025,252.925 47.964,252.91 47.9,252.9 L47.7,255.4 Q47.45,258.4 47.15,260.95 31.95,263.85 10.2,258.2 -11.55,252.5 -14.7,249.6 -17.85,246.7 -18.1,241.95 -18.2,240.5 -17.7,236.6 -17.65,236.3 -16.15,234.45 -14.6,232.55 -14.45,231.8 -14.425,231.703 -14.425,231.625 -14.361,230.484 -17.85,231.6 -22.8,233.1 -41.25,236.3 -50.5,237.85 -58.75,239.15 -59.4,250.85 -59.75,250.85 -60.1,250.85 -43.6,257 -28.2,263.35 -27.95,263.45 -14.25,269.6 -11,273.5 -8.3,276.75 -6.1,279.65 -5.85,280 -5.55,280.35 -3.65,282.9 -2.15,285.15 .55,289.2 2.4,292.95 2.95,294 3.4,295.05 4.45,297.4 5.15,299.6 8.25,309.55 9.95,327.4 9.95,328.05 48.95,327.1 68.4,326.65 87.9,326.05 87.55,323.9 87.7,320.6 87.95,314 90.3,308.2 92.8,302.05 99.55,294 104.2,288.5 109.2,283.8 109.35,283.6 109.55,283.45 111.45,281.7 114.85,278.9 L121.6,273.7 125,271.1 Q116.648,259.404 111.425,252.125 111.401,252.087 111.375,252.05 104.372,242.323 103,240.55 L102,239.2 M97.75,234 Q97.95,234 98.2,234 L101.75,238.85 M97.75,234 Q97.35,233.95 97,233.9 M-14.45,231.8 Q-6.35,236.45 1.35,240.1 14.15,246.3 21.8,247.95 L48.05,252.4 M2.4,280.15 L4.25,282.45 Q6.9,286 9.1,289.9 16.25,302.45 16.45,314.05 16.65,325.65 16.95,324.8 L17.15,321.6 52.2,321.95 Q53.05,318.85 53.35,314.7 53.95,306.4 51,300.25 48,294.05 40,289.85 31.95,285.65 23.65,284.9 15.3,284.1 7.4,281.9 L2.4,280.15Z" test="BlueBikeContainer"/>
      <path id="Layer2_0_3_STROKES" stroke="#FFF" stroke-width="1" stroke-linejoin="round" stroke-linecap="round" fill="none" d="M102,239.2 L101.75,238.85 100.65,246.7 Q88.25,249.85 81.4,243.95 L80.4,239.15 Q94.8,243.2 96.15,239.5 L97,233.9 97.2,233.3 97.75,234 101.75,238.85 M132.9,283.1 L122.25,274.55 M114.85,278.9 L125,286.9" test="BlueBikeContainer"/>
      <use xlink:href="#Bike-Wheel" transform="translate(151.15 314.8)"/>
      <use xlink:href="#Bike-Wheel" transform="translate(-38.4 318.6)"/>
    </g>
    <g id="MotorBikePinkf0r1">
      <path fill="#000" stroke="none" d="M-120.546,341.261 Q-120.244,346 -116.439,350.502 -112.634,354.005 -86.36,360.891 -60.086,367.716 -41.724,364.213 -41.362,361.132 -41.06,357.508 L-40.818,354.488 Q-40.741,354.5 -40.697,354.488 L-40.637,353.884 -72.347,348.509 Q-81.588,346.516 -97.05,339.026 -106.352,334.617 -116.137,329 -116.318,329.906 -118.19,332.201 -120.002,334.436 -120.063,334.798 -120.667,339.509 -120.546,341.261 M48.997,380.642 L48.212,379.615 40.058,385.896 52.319,395.56 54.191,398.46 Q59.537,395.129 63.13,392.842 L61.862,390.97 48.997,380.642 M17.468,338.301 Q15.837,342.771 -1.558,337.878 L-.35,343.677 Q7.925,350.804 22.904,346 L24.233,337.516 19.401,331.657 Q18.918,331.597 18.495,331.536 L17.468,338.301 M-1.558,337.878 Q15.837,342.771 17.468,338.301 L18.495,331.536 Q8.287,330.812 -2.222,330.268 -24.872,329.181 -26.926,330.449 -29.1,331.657 -30.006,334.677 -30.429,336.187 -30.852,340.174 -31.154,342.892 -33.268,348.388 -35.503,353.945 -36.711,354.73 -37.124,355.026 -40.697,354.488 -40.741,354.5 -40.818,354.488 L-41.06,357.508 Q-41.362,361.132 -41.724,364.213 -60.086,367.716 -86.36,360.891 -112.634,354.005 -116.439,350.502 -120.244,346 -120.546,341.261 -120.667,339.509 -120.063,334.798 -120.002,334.436 -118.19,332.201 -116.318,329.906 -116.137,329 -116.107,328.882 -116.137,328.758 -116.029,327.41 -120.244,328.758 -126.224,330.57 -148.511,334.436 -159.685,336.308 -169.651,337.878 -170.436,352.012 -170.859,352.012 -171.282,352.012 -151.35,359.441 -132.747,367.112 -132.445,367.233 -115.895,374.662 -111.969,379.373 -108.708,383.299 -106.05,386.802 -105.748,387.225 -105.386,387.648 -103.752,389.838 -102.366,391.816 -102.283,391.963 -102.245,392.057 -101.725,392.774 -101.278,393.446 -98.017,398.339 -95.782,402.869 -95.118,404.137 -94.574,405.406 -93.306,408.244 -92.46,410.902 -88.715,422.922 -86.662,444.484 -86.662,444.813 -78.387,444.786 -78.311,444.817 -78.266,444.786 -66.737,444.784 -39.55,444.122 -37.587,444.076 -35.624,444.001 -14.086,443.517 7.502,442.854 7.079,440.256 7.26,436.27 7.562,428.297 10.401,421.291 13.421,413.862 21.575,404.137 27.192,397.493 33.232,391.816 33.414,391.574 33.655,391.393 35.95,389.279 40.058,385.896 L48.212,379.615 52.319,376.474 Q42.23,362.345 35.89,353.522 35.891,353.506 35.83,353.462 27.4,341.711 25.743,339.57 L24.535,337.939 24.233,337.516 22.904,346 Q7.925,350.804 -.35,343.677 L-1.558,337.878 M-50.361,399.124 Q-40.697,404.198 -37.073,411.687 -33.51,419.116 -34.234,429.143 -34.597,434.156 -35.624,437.901 L-77.964,437.478 -78.206,441.344 Q-78.568,442.37 -78.81,428.358 -79.051,414.345 -87.688,399.184 -90.346,394.473 -93.547,390.185 L-95.903,387.286 -89.742,389.52 Q-80.199,392.178 -70.112,393.144 -60.086,394.05 -50.361,399.124 M-37.073,411.687 Q-40.697,404.198 -50.361,399.124 -60.086,394.05 -70.112,393.144 -80.199,392.178 -89.742,389.52 L-95.903,387.286 -93.547,390.185 Q-90.346,394.473 -87.688,399.184 -79.051,414.345 -78.81,428.358 -78.568,442.37 -78.206,441.344 L-77.964,437.478 -35.624,437.901 Q-34.597,434.156 -34.234,429.143 -33.51,419.116 -37.073,411.687 M49.238,319.698 Q29.004,303.632 20.367,300.974 13.663,298.92 11.428,301.034 10.884,301.578 9.737,303.45 8.65,305.323 7.502,306.35 7.804,311.302 10.099,314.322 11.79,316.497 18.314,322.96 19.199,323.872 23.206,328.818 23.27,328.861 23.266,328.879 28.926,335.751 40.541,350.26 57.574,371.582 60.231,372.306 64.701,373.575 72.794,372.79 82.036,371.944 83.425,368.562 84.874,365.058 83.062,360.287 81.734,356.723 75.573,345.791 70.258,336.368 49.238,319.698Z" test="RedBike container" stroke-width="1.208"/>
      <path id="Layer1_0_1_STROKES" stroke="#0FF" stroke-width="1.208" stroke-linejoin="round" stroke-linecap="round" fill="none" d="M7.502,306.35 Q8.65,305.323 9.737,303.45 10.884,301.578 11.428,301.034 13.663,298.92 20.367,300.974 29.004,303.632 49.238,319.698 70.258,336.368 75.573,345.791 81.734,356.723 83.062,360.287 84.874,365.058 83.425,368.562 82.036,371.944 72.794,372.79 64.701,373.575 60.231,372.306 57.574,371.582 40.541,350.26 28.926,335.751 23.297,328.909 23.27,328.861 23.236,328.818 19.199,323.872 18.314,322.96 11.79,316.497 10.099,314.322 7.804,311.302 7.502,306.35Z" test="RedBike container"/>
      <path id="Layer1_0_2_STROKES" stroke="#FFF" stroke-width="1.208" stroke-linejoin="round" stroke-linecap="round" fill="none" d="M24.233,337.516 L22.904,346 Q7.925,350.804 -.35,343.677 L-1.558,337.878 Q15.837,342.771 17.468,338.301 L18.495,331.536 M24.535,337.939 L24.233,337.516 19.401,331.657 M18.495,331.536 L18.736,330.812 19.401,331.657 M61.862,390.97 L48.997,380.642 M40.058,385.896 L52.319,395.56" test="RedBike container"/>
      <path id="Layer1_0_3_STROKES" stroke="#FF0265" stroke-width="1.208" stroke-linejoin="round" stroke-linecap="round" fill="none" d="M18.495,331.536 Q8.287,330.812 -2.222,330.268 -24.872,329.181 -26.926,330.449 -29.1,331.657 -30.006,334.677 -30.429,336.187 -30.852,340.174 -31.154,342.892 -33.268,348.388 -35.503,353.945 -36.711,354.73 -37.124,355.026 -40.667,354.519 -40.741,354.5 -40.818,354.488 L-41.06,357.508 Q-41.362,361.132 -41.724,364.213 -60.086,367.716 -86.36,360.891 -112.634,354.005 -116.439,350.502 -120.244,346 -120.546,341.261 -120.667,339.509 -120.063,334.798 -120.002,334.436 -118.19,332.201 -116.318,329.906 -116.137,329 -116.107,328.882 -116.107,328.788 -116.029,327.41 -120.244,328.758 -126.224,330.57 -148.511,334.436 -159.685,336.308 -169.651,337.878 -170.436,352.012 -170.859,352.012 -171.282,352.012 -151.35,359.441 -132.747,367.112 -132.445,367.233 -115.895,374.662 -111.969,379.373 -108.708,383.299 -106.05,386.802 -105.748,387.225 -105.386,387.648 -103.752,389.838 -102.366,391.846 -102.283,391.963 -102.215,392.087 -101.725,392.774 -101.278,393.446 -98.017,398.339 -95.782,402.869 -95.118,404.137 -94.574,405.406 -93.306,408.244 -92.46,410.902 -88.715,422.922 -86.662,444.484 -86.662,444.813 -78.387,444.817 -78.311,444.817 -78.236,444.817 -66.737,444.784 -39.55,444.122 -37.587,444.076 -35.624,444.031 -14.086,443.517 7.502,442.854 7.079,440.256 7.26,436.27 7.562,428.297 10.401,421.291 13.421,413.862 21.575,404.137 27.192,397.493 33.232,391.816 33.414,391.574 33.655,391.393 35.95,389.279 40.058,385.896 L48.212,379.615 52.319,376.474 Q42.23,362.345 35.92,353.552 35.891,353.506 35.86,353.462 27.4,341.711 25.743,339.57 L24.535,337.939 M18.495,331.536 Q18.918,331.597 19.401,331.657 19.642,331.657 19.944,331.657 L24.233,337.516 M-116.137,329 Q-106.352,334.617 -97.05,339.026 -81.588,346.516 -72.347,348.509 L-40.637,353.884 M-93.547,390.185 Q-90.346,394.473 -87.688,399.184 -79.051,414.345 -78.81,428.358 -78.568,442.37 -78.206,441.344 L-77.964,437.478 -35.624,437.901 Q-34.597,434.156 -34.234,429.143 -33.51,419.116 -37.073,411.687 -40.697,404.198 -50.361,399.124 -60.086,394.05 -70.112,393.144 -80.199,392.178 -89.742,389.52 L-95.873,387.286 -93.547,390.185Z" test="RedBike container"/>
      <use xlink:href="#Bike-Wheel" transform="matrix(1.208 0 0 1.208 83.9 429.25)"/>
      <use xlink:href="#Bike-Wheel" transform="matrix(1.208 0 0 1.208 -145.05 433.85)"/>
    </g>
  </g>
</svg>