<?xml version="1.0" encoding="utf-8"?>
<svg id="EdithAnim11" image-rendering="inherit" baseProfile="basic" version="1.1" x="0px" y="0px" width="800" height="600" xmlns="http://www.w3.org/2000/svg" xmlns:xlink="http://www.w3.org/1999/xlink">
  <defs>
    <g id="Bike-Wheel" overflow="visible">
      <path id="Layer5_0_1_STROKES" stroke="#FFF" stroke-width="1" stroke-linejoin="round" stroke-linecap="round" fill="none" d="M2.05 -34.85Q-12.35 -34.85 -22.65 -26.45 -34 -17.2 -34.7 -1.55 -35.4 14.3 -26.6 24.6 -18.4 34.2 -5.6 34.85 7.15 35.5 19.2 29.8 31.25 24.1 34.05 7.25 36.85 -9.65 28.9 -21.15 19.4 -34.85 2.05 -34.85Z" test="Bike Wheel"/>
      <path id="Layer4_0_1_STROKES" stroke="#FFF" stroke-width="1" stroke-linejoin="round" stroke-linecap="round" fill="none" d="M.55 -26.55Q4.65 -26.85 7.1 -26.15 9.75 -25.4 12 -23.15 13.95 -21.25 8 -15.35 5.3 -12.6 2.25 -10.2 1.95 -10 1.7 -9.8M24.45 -8.9Q26.2 -5.15 26.45 -2.65 26.7 .1 25.4 3.05 24.35 5.5 16.7 2.1 13.2 .6 9.85 -1.4 9.5 -1.6 9.25 -1.75M18.45 20Q15.75 23.1 13.55 24.35 11.2 25.75 8 25.75 5.3 25.75 5.25 17.4 5.2 13.55 5.65 9.7 5.7 9.35 5.75 9M-25.15 -7.15Q-24.25 -11.2 -22.85 -13.3 -21.4 -15.6 -18.6 -17.1 -16.2 -18.45 -12.25 -11.05 -10.4 -7.65 -9 -4.1 -8.9 -3.7 -8.75 -3.4M-12.85 23.8Q-16.75 22.4 -18.7 20.8 -20.85 19.05 -22.05 16.1 -23.1 13.6 -15.3 10.55 -11.75 9.05 -8 8.05 -7.65 8 -7.3 7.95" test="Bike Wheel"/>
    </g>
  </defs>
  <g id="19_Motorbikesf90r1" overflow="visible">
    <g id="Smokef16r1">
      <path fill="#000" stroke="none" d="M150.141,-178.781 Q133.923,-216.973 70.959,-209.063 36.138,-253.312 -41.851,-258.997 -41.851,217.234 -41.851,693.464 -18.955,728.938 20.278,707.06 72.629,713.117 80.738,684.071 127.007,699.892 157.654,677.891 181.146,685.925 194.383,663.306 201.3,671.958 215.848,667.385 228.25,666.767 235.882,660.216 241.129,669.98 252.696,662.564 259.851,660.092 266.887,657.497 270.226,664.666 279.408,659.969 281.913,659.227 284.298,658.486 362.883,732.275 486.784,646.496 589.458,650.822 645.625,618.316 698.93,587.786 710.259,524.009 884.841,570.73 997.055,467.771 1084.942,491.502 1131.927,393.24 1156.254,423.646 1211.466,401.521 1257.497,395.218 1284.924,364.688 1302.931,400.162 1346.457,367.16 1372.454,354.306 1398.45,341.328 1409.898,367.531 1444.6,346.025 1463.084,338.856 1481.448,331.564 1508.757,330.328 1536.065,329.092 1536.065,325.013 1537.138,315.866 1537.615,311.664 1538.092,307.462 1538.092,301.776 1538.092,296.09 1528.671,298.068 1519.251,300.046 1515.554,284.348 1512.692,282.989 1485.026,270.011 1472.385,278.786 1450.086,262.842 1419.677,264.449 1386.287,219.953 1317.957,240.594 1286.117,201.166 1236.032,187.94 1230.904,186.457 1225.657,185.345 1210.393,180.401 1172.949,186.334 1063.835,89.802 942.319,141.096 925.266,148.141 907.856,158.029 867.43,6.866 640.617,40.238 545.336,-115.003 315.541,-146.274 308.863,-150.476 300.158,-150.106 289.664,-161.6 270.465,-156.78 259.732,-168.028 243.276,-171.241 238.386,-172.601 227.892,-171.118 191.163,-198.433 150.141,-178.781Z" test="Smoke" stroke-width="2.428"/>
      <path id="Layer2_0_1_STROKES" stroke="#FFF" stroke-width="2.428" stroke-linejoin="round" stroke-linecap="round" fill="none" d="M1536.065,329.092 Q1508.757,330.328 1481.448,331.564 1463.084,338.856 1444.6,346.025 1409.898,367.531 1398.45,341.328 1372.454,354.306 1346.457,367.16 1302.931,400.162 1284.924,364.688 1257.497,395.218 1211.466,401.521 1156.254,423.646 1131.927,393.24 1084.942,491.502 997.055,467.771 884.841,570.73 710.259,524.009 698.93,587.786 645.625,618.316 589.458,650.822 486.784,646.496 362.883,732.275 284.298,658.486 281.913,659.227 279.408,659.969 270.226,664.666 266.887,657.497 259.851,660.092 252.696,662.564 241.129,669.98 235.882,660.216 228.25,666.767 215.848,667.385 201.3,671.958 194.383,663.306 181.146,685.925 157.654,677.891 127.007,699.892 80.738,684.071 72.629,713.117 20.278,707.06 -18.955,728.938 -41.851,693.464 -41.851,217.234 -41.851,-258.997 36.138,-253.312 70.959,-209.063 133.923,-216.973 150.141,-178.781 191.163,-198.433 227.892,-171.118 238.386,-172.601 243.276,-171.241 259.732,-168.028 270.465,-156.78 289.664,-161.6 300.158,-150.106 308.863,-150.476 315.541,-146.274 545.336,-115.003 640.617,40.238 867.43,6.866 907.856,158.029 925.266,148.141 942.319,141.096 1063.835,89.802 1172.949,186.334 1210.393,180.401 1225.657,185.345 1230.904,186.457 1236.032,187.94 1286.117,201.166 1317.957,240.594 1386.287,219.953 1419.677,264.449 1450.086,262.842 1472.385,278.786 1485.026,270.011 1512.692,282.989 1515.554,284.348 1519.251,300.046 1528.671,298.068 1538.092,296.09 1538.092,301.776 1538.092,307.462 1537.615,311.664 1537.138,315.866 1536.065,325.013 1536.065,329.092Z" test="Smoke"/>
    </g>
    <g id="Smokef13r1">
      <path fill="#000" stroke="none" d="M-2.748,223.43 Q-14.486,198.954 -69.815,204.215 -97.733,175.896 -165.624,172.465 -165.624,348.739 -165.624,525.014 -145.511,546.7 -110.296,531.236 -62.899,533.844 -56.681,513.76 -15.184,522.59 11.845,507.035 32.784,511.518 44.205,496.192 50.169,501.453 63.367,498.159 74.344,497.427 81.006,492.806 85.447,498.799 95.853,493.721 102.071,491.846 108.353,489.97 111.208,494.407 119.457,491.114 121.614,490.564 123.835,490.061 158.415,512.067 212.665,486.081 257.587,487.225 282.333,477.343 305.746,468.147 311.012,448.978 387.469,462.977 436.96,432.005 475.475,439.096 496.35,409.541 507.136,418.691 531.311,412.012 551.488,410.09 563.607,400.895 571.601,411.554 590.636,401.672 602.057,397.784 613.478,393.849 618.618,401.718 633.782,395.267 641.904,393.071 649.962,390.875 661.954,390.509 673.946,390.143 673.946,388.633 674.517,385.248 674.771,383.693 675.025,382.137 675.025,380.032 675.025,377.928 670.901,378.523 666.776,379.163 665.127,374.405 663.794,374.039 651.675,370.15 646.092,372.804 636.257,368.046 622.932,368.549 608.085,355.236 578.2,361.504 564.114,349.655 542.097,345.72 539.876,345.308 537.656,344.942 530.993,343.295 514.75,344.942 467.226,314.839 414.372,330.165 406.822,332.224 399.208,335.152 380.553,289.356 281.571,299.238 238.743,252.299 138.428,243.377 132.845,240.724 125.294,240.952 116.728,233.632 99.977,236.881 91.031,229.698 76.882,227.685 72.884,226.907 63.684,227.868 32.403,210.437 -2.748,223.43Z" test="Smoke_22" stroke-width="1.092"/>
      <path id="Layer1_0_1_STROKES" stroke="#FFF" stroke-width="1.092" stroke-linejoin="round" stroke-linecap="round" fill="none" d="M673.946,390.143 Q661.954,390.509 649.962,390.875 641.904,393.071 633.782,395.267 618.618,401.718 613.478,393.849 602.057,397.784 590.636,401.672 571.601,411.554 563.607,400.895 551.488,410.09 531.311,412.012 507.136,418.691 496.35,409.541 475.475,439.096 436.96,432.005 387.469,462.977 311.012,448.978 305.746,468.147 282.333,477.343 257.587,487.225 212.665,486.081 158.415,512.067 123.835,490.061 121.614,490.564 119.457,491.114 111.208,494.407 108.353,489.97 102.071,491.846 95.853,493.721 85.447,498.799 81.006,492.806 74.344,497.427 63.367,498.159 50.169,501.453 44.205,496.192 32.784,511.518 11.845,507.035 -15.184,522.59 -56.681,513.76 -62.899,533.844 -110.296,531.236 -145.511,546.7 -165.624,525.014 -165.624,348.739 -165.624,172.465 -97.733,175.896 -69.815,204.215 -14.486,198.954 -2.748,223.43 32.403,210.437 63.684,227.868 72.884,226.907 76.882,227.685 91.031,229.698 99.977,236.881 116.728,233.632 125.294,240.952 132.845,240.724 138.428,243.377 238.743,252.299 281.571,299.238 380.553,289.356 399.208,335.152 406.822,332.224 414.372,330.165 467.226,314.839 514.75,344.942 530.993,343.295 537.656,344.942 539.876,345.308 542.097,345.72 564.114,349.655 578.2,361.504 608.085,355.236 622.932,368.549 636.257,368.046 646.092,372.804 651.675,370.15 663.794,374.039 665.127,374.405 666.776,379.163 670.901,378.523 675.025,377.928 675.025,380.032 675.025,382.137 674.771,383.693 674.517,385.248 673.946,388.633 673.946,390.143Z" test="Smoke_22"/>
    </g>
    <g id="MotorBikePinkf6r1">
      <g id="RedBike-container">
        <path fill="#000" stroke="none" d="M568.623,341.145 Q571.772,345.952 576.824,347.065 581.875,348.177 608.048,340.904 634.19,333.579 648.296,321.309 647.059,318.465 645.496,315.181 L644.184,312.449 Q644.257,312.421 644.289,312.388 L644.037,311.836 613.926,323.15 Q604.937,326.079 587.804,327.388 577.546,328.259 566.262,328.33 566.562,329.204 566.099,332.13 565.657,334.973 565.788,335.317 567.637,339.692 568.623,341.145 M734.969,289.847 L733.774,289.355 729.888,298.888 745.349,301.068 748.426,302.632 Q751.37,297.063 753.325,293.278 L751.286,292.298 734.969,289.847 M686.41,269.124 Q687.25,273.807 669.754,278.334 L673.717,282.737 Q684.455,284.732 695.486,273.904 L691.861,265.04 684.737,262.409 Q684.289,262.6 683.893,262.76 L686.41,269.124 M669.754,278.334 Q687.25,273.807 686.41,269.124 L683.893,262.76 Q674.706,267.272 665.35,272.091 645.228,282.552 644.091,284.682 642.82,286.82 643.557,289.886 643.952,291.404 645.593,295.062 646.7,297.563 647.639,303.377 648.504,309.304 647.856,310.591 647.648,311.055 644.289,312.388 644.257,312.421 644.184,312.449 L645.496,315.181 Q647.059,318.465 648.296,321.309 634.19,333.579 608.048,340.904 581.875,348.177 576.824,347.065 571.772,345.952 568.623,341.145 567.637,339.692 565.788,335.317 565.657,334.973 566.099,332.13 566.562,329.204 566.262,328.33 566.229,328.213 566.141,328.121 565.555,326.902 562.591,330.188 558.335,334.764 541.019,349.322 532.304,356.564 524.482,362.937 530.917,375.547 530.551,375.76 530.186,375.973 551.151,372.362 571.09,369.628 571.411,369.58 589.453,367.671 595.218,369.767 600.012,371.518 604.072,373.208 604.546,373.422 605.072,373.605 607.586,374.675 609.78,375.686 609.925,375.772 610.006,375.834 610.815,376.192 611.54,376.549 616.821,379.135 621.033,381.925 622.245,382.687 623.354,383.51 625.879,385.325 627.947,387.196 637.233,395.699 649.861,413.301 650.026,413.585 657.164,409.397 657.245,409.385 657.268,409.336 667.231,403.531 690.394,389.276 692.068,388.248 693.726,387.195 712.096,375.937 730.42,364.498 728.747,362.466 726.897,358.93 723.145,351.887 722.072,344.403 720.943,336.463 723.096,323.954 724.606,315.385 726.969,307.438 727.004,307.138 727.121,306.86 728.041,303.878 729.888,298.888 L733.774,289.355 735.742,284.573 Q719.912,277.441 709.992,273.006 709.985,272.992 709.909,272.984 696.71,267.072 694.2,266.055 L692.335,265.254 691.861,265.04 695.486,273.904 Q684.455,284.732 673.717,282.737 L669.754,278.334 M658.402,355.828 Q669.308,355.349 676.21,359.998 683.029,364.625 687.449,373.655 689.659,378.17 690.656,381.923 L653.851,402.868 655.588,406.33 Q655.791,407.4 648.53,395.411 641.268,383.423 626.173,374.668 621.505,371.934 616.58,369.839 L613.085,368.519 619.534,367.349 Q629.12,364.843 638.323,360.601 647.445,356.338 658.402,355.828 M676.21,359.998 Q669.308,355.349 658.402,355.828 647.445,356.338 638.323,360.601 629.12,364.843 619.534,367.349 L613.085,368.519 616.58,369.839 Q621.505,371.934 626.173,374.668 641.268,383.423 648.53,395.411 655.791,407.4 655.588,406.33 L653.851,402.868 690.656,381.923 Q689.659,378.17 687.449,373.655 683.029,364.625 676.21,359.998 M704.504,237.056 Q678.931,233.354 670.129,235.405 663.301,237.004 662.433,239.956 662.237,240.7 662.188,242.895 662.191,245.061 661.716,246.526 664.469,250.654 667.973,252.109 670.529,253.137 679.419,255.439 680.644,255.782 686.596,258.04 686.673,258.045 686.679,258.062 695.029,261.153 712.37,267.846 737.821,277.7 740.483,276.989 744.984,275.836 751.584,271.083 759.145,265.701 758.643,262.079 758.133,258.322 754.165,255.11 751.223,252.699 740.396,246.352 731.06,240.884 704.504,237.056Z" test="RedBike container" stroke-width="1.208"/>
        <path id="Layer3_0_1_STROKES" stroke="#0FF" stroke-width="1.208" stroke-linejoin="round" stroke-linecap="round" fill="none" d="M661.716,246.526 Q662.191,245.061 662.188,242.895 662.237,240.7 662.433,239.956 663.301,237.004 670.129,235.405 678.931,233.354 704.504,237.056 731.06,240.884 740.396,246.352 751.223,252.699 754.165,255.11 758.133,258.322 758.643,262.079 759.145,265.701 751.584,271.083 744.984,275.836 740.483,276.989 737.821,277.7 712.37,267.846 695.029,261.153 686.72,258.073 686.673,258.045 686.623,258.025 680.644,255.782 679.419,255.439 670.529,253.137 667.973,252.109 664.469,250.654 661.716,246.526Z" test="RedBike container"/>
        <path id="Layer3_0_2_STROKES" stroke="#FFF" stroke-width="1.208" stroke-linejoin="round" stroke-linecap="round" fill="none" d="M691.861,265.04 L695.486,273.904 Q684.455,284.732 673.717,282.737 L669.754,278.334 Q687.25,273.807 686.41,269.124 L683.893,262.76 M692.335,265.254 L691.861,265.04 684.737,262.409 M683.893,262.76 L683.737,262.012 684.737,262.409 M751.286,292.298 L734.969,289.847 M729.888,298.888 L745.349,301.068" test="RedBike container"/>
        <path id="Layer3_0_3_STROKES" stroke="#FF0265" stroke-width="1.208" stroke-linejoin="round" stroke-linecap="round" fill="none" d="M683.893,262.76 Q674.706,267.272 665.35,272.091 645.228,282.552 644.091,284.682 642.82,286.82 643.557,289.886 643.952,291.404 645.593,295.062 646.7,297.563 647.639,303.377 648.504,309.304 647.856,310.591 647.648,311.055 644.33,312.399 644.257,312.421 644.184,312.449 L645.496,315.181 Q647.059,318.465 648.296,321.309 634.19,333.579 608.048,340.904 581.875,348.177 576.824,347.065 571.772,345.952 568.623,341.145 567.637,339.692 565.788,335.317 565.657,334.973 566.099,332.13 566.562,329.204 566.262,328.33 566.229,328.213 566.182,328.132 565.555,326.902 562.591,330.188 558.335,334.764 541.019,349.322 532.304,356.564 524.482,362.937 530.917,375.547 530.551,375.76 530.186,375.973 551.151,372.362 571.09,369.628 571.411,369.58 589.453,367.671 595.218,369.767 600.012,371.518 604.072,373.208 604.546,373.422 605.072,373.605 607.586,374.675 609.795,375.713 609.925,375.772 610.047,375.845 610.815,376.192 611.54,376.549 616.821,379.135 621.033,381.925 622.245,382.687 623.354,383.51 625.879,385.325 627.947,387.196 637.233,395.699 649.861,413.301 650.026,413.585 657.179,409.423 657.245,409.385 657.31,409.347 667.231,403.531 690.394,389.276 692.068,388.248 693.742,387.221 712.096,375.937 730.42,364.498 728.747,362.466 726.897,358.93 723.145,351.887 722.072,344.403 720.943,336.463 723.096,323.954 724.606,315.385 726.969,307.438 727.004,307.138 727.121,306.86 728.041,303.878 729.888,298.888 L733.774,289.355 735.742,284.573 Q719.912,277.441 710.033,273.017 709.985,272.992 709.935,272.969 696.71,267.072 694.2,266.055 L692.335,265.254 M683.893,262.76 Q684.289,262.6 684.737,262.409 684.945,262.287 685.206,262.135 L691.861,265.04 M566.262,328.33 Q577.546,328.259 587.804,327.388 604.937,326.079 613.926,323.15 L644.037,311.836 M616.58,369.839 Q621.505,371.934 626.173,374.668 641.268,383.423 648.53,395.411 655.791,407.4 655.588,406.33 L653.851,402.868 690.656,381.923 Q689.659,378.17 687.449,373.655 683.029,364.625 676.21,359.998 669.308,355.349 658.402,355.828 647.445,356.338 638.323,360.601 629.12,364.843 619.534,367.349 L613.111,368.503 616.58,369.839Z" test="RedBike container"/>
        <use xlink:href="#Bike-Wheel" transform="matrix(1.044 -.608 .608 1.044 789.6 314.25)"/>
        <use xlink:href="#Bike-Wheel" transform="matrix(1.044 -.608 .608 1.044 594 433.5)"/>
      </g>
    </g>
  </g>
</svg>