<?xml version="1.0" encoding="utf-8"?>
<svg id="EdithAnim11" image-rendering="inherit" baseProfile="basic" version="1.1" x="0px" y="0px" width="800" height="600" xmlns="http://www.w3.org/2000/svg" xmlns:xlink="http://www.w3.org/1999/xlink">
  <defs>
    <g id="Bike-Wheel" overflow="visible">
      <path id="Layer5_0_1_STROKES" stroke="#FFF" stroke-width="1" stroke-linejoin="round" stroke-linecap="round" fill="none" d="M2.05 -34.85Q-12.35 -34.85 -22.65 -26.45 -34 -17.2 -34.7 -1.55 -35.4 14.3 -26.6 24.6 -18.4 34.2 -5.6 34.85 7.15 35.5 19.2 29.8 31.25 24.1 34.05 7.25 36.85 -9.65 28.9 -21.15 19.4 -34.85 2.05 -34.85Z" test="Bike Wheel"/>
      <path id="Layer4_0_1_STROKES" stroke="#FFF" stroke-width="1" stroke-linejoin="round" stroke-linecap="round" fill="none" d="M.55 -26.55Q4.65 -26.85 7.1 -26.15 9.75 -25.4 12 -23.15 13.95 -21.25 8 -15.35 5.3 -12.6 2.25 -10.2 1.95 -10 1.7 -9.8M24.45 -8.9Q26.2 -5.15 26.45 -2.65 26.7 .1 25.4 3.05 24.35 5.5 16.7 2.1 13.2 .6 9.85 -1.4 9.5 -1.6 9.25 -1.75M18.45 20Q15.75 23.1 13.55 24.35 11.2 25.75 8 25.75 5.3 25.75 5.25 17.4 5.2 13.55 5.65 9.7 5.7 9.35 5.75 9M-25.15 -7.15Q-24.25 -11.2 -22.85 -13.3 -21.4 -15.6 -18.6 -17.1 -16.2 -18.45 -12.25 -11.05 -10.4 -7.65 -9 -4.1 -8.9 -3.7 -8.75 -3.4M-12.85 23.8Q-16.75 22.4 -18.7 20.8 -20.85 19.05 -22.05 16.1 -23.1 13.6 -15.3 10.55 -11.75 9.05 -8 8.05 -7.65 8 -7.3 7.95" test="Bike Wheel"/>
    </g>
  </defs>
  <g id="19_Motorbikesf91r1" overflow="visible">
    <g id="Smokef17r1">
      <path fill="#000" stroke="none" d="M116.724,-214.701 Q102.03,-244.699 51.458,-238.674 21.703,-273.416 -41.359,-278.031 -41.359,215.923 -41.359,709.878 -22.992,738.723 8.111,722.826 49.254,728.851 56.478,707.442 92.968,721.031 117.703,705.134 136.193,712.057 147.091,695.135 152.602,702.186 164.234,698.981 174.03,698.853 180.275,693.981 184.561,701.801 193.745,696.417 199.5,694.75 205.133,692.955 207.827,698.724 215.051,695.135 217.133,694.75 218.969,694.237 304.317,775.773 439.012,681.417 550.809,686.161 611.789,650.521 669.585,616.805 681.83,546.551 871.628,598.087 993.466,484.759 1088.977,510.783 1139.793,402.582 1166.12,436.171 1226.366,411.685 1276.325,404.634 1306.081,371.173 1325.55,410.274 1372.816,373.866 1401.102,359.764 1429.388,345.405 1441.755,374.25 1479.47,350.661 1499.552,342.713 1519.511,334.636 1549.266,333.226 1578.899,331.944 1578.899,327.714 1580.001,318.227 1580.491,313.868 1580.981,309.509 1580.981,303.612 1580.981,297.715 1570.817,299.894 1560.532,302.074 1556.613,284.638 1553.43,283.356 1523.307,268.998 1509.592,278.485 1485.347,261.05 1452.408,262.716 1416.163,213.744 1341.836,236.307 1307.305,192.719 1252.815,178.232 1247.305,176.566 1241.549,175.412 1225.019,170.156 1184.12,176.822 1065.344,71.314 932.975,127.978 914.485,135.798 895.628,146.695 852.158,-19.58 605.422,17.341 502.441,-153.549 252.276,-188.291 246.766,-191.625 239.664,-191.496 230.847,-200.47 215.418,-196.881 206.357,-205.598 193.01,-208.291 188.847,-209.316 180.398,-208.291 150.153,-229.828 116.724,-214.701Z" test="Smoke" stroke-width="2.506"/>
      <path id="Layer2_0_1_STROKES" stroke="#FFF" stroke-width="2.506" stroke-linejoin="round" stroke-linecap="round" fill="none" d="M1578.899,331.944 Q1549.266,333.226 1519.511,334.636 1499.552,342.713 1479.47,350.661 1441.755,374.25 1429.388,345.405 1401.102,359.764 1372.816,373.866 1325.55,410.274 1306.081,371.173 1276.325,404.634 1226.366,411.685 1166.12,436.171 1139.793,402.582 1088.977,510.783 993.466,484.759 871.628,598.087 681.83,546.551 669.585,616.805 611.789,650.521 550.809,686.161 439.012,681.417 304.317,775.773 218.969,694.237 217.133,694.75 215.051,695.135 207.827,698.724 205.133,692.955 199.5,694.75 193.745,696.417 184.561,701.801 180.275,693.981 174.03,698.853 164.234,698.981 152.602,702.186 147.091,695.135 136.193,712.057 117.703,705.134 92.968,721.031 56.478,707.442 49.254,728.851 8.111,722.826 -22.992,738.723 -41.359,709.878 -41.359,215.923 -41.359,-278.031 21.703,-273.416 51.458,-238.674 102.03,-244.699 116.724,-214.701 150.153,-229.828 180.398,-208.291 188.847,-209.316 193.01,-208.291 206.357,-205.598 215.418,-196.881 230.847,-200.47 239.664,-191.496 246.766,-191.625 252.276,-188.291 502.441,-153.549 605.422,17.341 852.158,-19.58 895.628,146.695 914.485,135.798 932.975,127.978 1065.344,71.314 1184.12,176.822 1225.019,170.156 1241.549,175.412 1247.305,176.566 1252.815,178.232 1307.305,192.719 1341.836,236.307 1416.163,213.744 1452.408,262.716 1485.347,261.05 1509.592,278.485 1523.307,268.998 1553.43,283.356 1556.613,284.638 1560.532,302.074 1570.817,299.894 1580.981,297.715 1580.981,303.612 1580.981,309.509 1580.491,313.868 1580.001,318.227 1578.899,327.714 1578.899,331.944Z" test="Smoke"/>
    </g>
    <g id="Smokef0r1">
      <path fill="#000" stroke="none" d="M756.911,383.8 L756.911,379.2 743.758,381.2 Q741.262,373.2 739.306,372.55 719.881,365.95 711.18,370.3 695.666,362.25 674.487,363 651.352,340.45 603.597,350.8 579.315,328.7 539.317,322.75 528.593,320.5 502.152,323.7 415,269.87 316.125,311.15 289.169,235.236 130.165,252.35 57.252,164.7 -136.734,154.65 L-136.734,539.95 Q-78.97,604.006 24.741,552.4 165.037,556.968 180.348,490.85 302.365,514.504 380.337,462.5 441.717,474.5 474.093,424.85 490.888,440.25 529.604,429.05 561.778,425.85 580.799,410.45 593.142,428.4 623.562,411.75 L659.85,398.7 Q667.674,411.95 691.956,401.1 L717.655,393.75 755.764,392.55 Q755.764,390.9 756.371,387.2 L756.911,383.8Z" test="Smoke_2323" stroke-width="1.174"/>
      <path id="Layer1_0_1_STROKES" stroke="#FFF" stroke-width="1.174" stroke-linejoin="round" stroke-linecap="round" fill="none" d="M739.306,372.55 Q719.881,365.95 711.18,370.3 695.666,362.25 674.487,363 651.352,340.45 603.597,350.8 579.315,328.7 539.317,322.75 528.593,320.5 502.152,323.7 415,269.87 316.125,311.15 289.169,235.236 130.165,252.35 57.252,164.7 -136.734,154.65 L-136.734,539.95 Q-78.97,604.006 24.741,552.4 165.037,556.968 180.348,490.85 302.365,514.504 380.337,462.5 441.717,474.5 474.093,424.85 490.888,440.25 529.604,429.05 561.778,425.85 580.799,410.45 593.142,428.4 623.562,411.75 L659.85,398.7 Q667.674,411.95 691.956,401.1 L717.655,393.75 755.764,392.55 Q755.764,390.9 756.371,387.2 L756.911,383.8 756.911,379.2 743.758,381.2 Q741.262,373.2 739.306,372.55Z" test="Smoke_2323"/>
    </g>
    <g id="MotorBikePinkf6r1">
      <g id="RedBike-container">
        <path fill="#000" stroke="none" d="M640.673,341.145 Q643.822,345.952 648.874,347.065 653.925,348.177 680.098,340.904 706.24,333.579 720.346,321.309 719.109,318.465 717.546,315.181 L716.234,312.449 Q716.307,312.421 716.339,312.388 L716.087,311.836 685.976,323.15 Q676.987,326.079 659.854,327.388 649.596,328.259 638.312,328.33 638.612,329.204 638.149,332.13 637.707,334.973 637.838,335.317 639.687,339.692 640.673,341.145 M807.019,289.847 L805.824,289.355 801.938,298.888 817.399,301.068 820.476,302.632 Q823.42,297.063 825.375,293.278 L823.336,292.298 807.019,289.847 M758.46,269.124 Q759.3,273.807 741.804,278.334 L745.767,282.737 Q756.505,284.732 767.536,273.904 L763.911,265.04 756.787,262.409 Q756.339,262.6 755.943,262.76 L758.46,269.124 M741.804,278.334 Q759.3,273.807 758.46,269.124 L755.943,262.76 Q746.756,267.272 737.4,272.091 717.278,282.552 716.141,284.682 714.87,286.82 715.607,289.886 716.002,291.404 717.643,295.062 718.75,297.563 719.689,303.377 720.554,309.304 719.906,310.591 719.698,311.055 716.339,312.388 716.307,312.421 716.234,312.449 L717.546,315.181 Q719.109,318.465 720.346,321.309 706.24,333.579 680.098,340.904 653.925,348.177 648.874,347.065 643.822,345.952 640.673,341.145 639.687,339.692 637.838,335.317 637.707,334.973 638.149,332.13 638.612,329.204 638.312,328.33 638.279,328.213 638.191,328.121 637.605,326.902 634.641,330.188 630.385,334.764 613.069,349.322 604.354,356.564 596.532,362.937 602.967,375.547 602.601,375.76 602.236,375.973 623.201,372.362 643.14,369.628 643.461,369.58 661.503,367.671 667.268,369.767 672.062,371.518 676.122,373.208 676.596,373.422 677.122,373.605 679.636,374.675 681.83,375.686 681.975,375.772 682.056,375.834 682.865,376.192 683.59,376.549 688.871,379.135 693.083,381.925 694.295,382.687 695.404,383.51 697.929,385.325 699.997,387.196 709.283,395.699 721.911,413.301 722.076,413.585 729.214,409.397 729.295,409.385 729.318,409.336 739.281,403.531 762.444,389.276 764.118,388.248 765.776,387.195 784.146,375.937 802.47,364.498 800.797,362.466 798.947,358.93 795.195,351.887 794.122,344.403 792.993,336.463 795.146,323.954 796.656,315.385 799.019,307.438 799.054,307.138 799.171,306.86 800.091,303.878 801.938,298.888 L805.824,289.355 807.792,284.573 Q791.962,277.441 782.042,273.006 782.035,272.992 781.959,272.984 768.76,267.072 766.25,266.055 L764.385,265.254 763.911,265.04 767.536,273.904 Q756.505,284.732 745.767,282.737 L741.804,278.334 M730.452,355.828 Q741.358,355.349 748.26,359.998 755.079,364.625 759.499,373.655 761.709,378.17 762.706,381.923 L725.901,402.868 727.638,406.33 Q727.841,407.4 720.58,395.411 713.318,383.423 698.223,374.668 693.555,371.934 688.63,369.839 L685.135,368.519 691.584,367.349 Q701.17,364.843 710.373,360.601 719.495,356.338 730.452,355.828 M748.26,359.998 Q741.358,355.349 730.452,355.828 719.495,356.338 710.373,360.601 701.17,364.843 691.584,367.349 L685.135,368.519 688.63,369.839 Q693.555,371.934 698.223,374.668 713.318,383.423 720.58,395.411 727.841,407.4 727.638,406.33 L725.901,402.868 762.706,381.923 Q761.709,378.17 759.499,373.655 755.079,364.625 748.26,359.998 M776.554,237.056 Q750.981,233.354 742.179,235.405 735.351,237.004 734.483,239.956 734.287,240.7 734.238,242.895 734.241,245.061 733.766,246.526 736.519,250.654 740.023,252.109 742.579,253.137 751.469,255.439 752.694,255.782 758.646,258.04 758.723,258.045 758.729,258.062 767.079,261.153 784.42,267.846 809.871,277.7 812.533,276.989 817.034,275.836 823.634,271.083 831.195,265.701 830.693,262.079 830.183,258.322 826.215,255.11 823.273,252.699 812.446,246.352 803.11,240.884 776.554,237.056Z" test="RedBike container" stroke-width="1.208"/>
        <path id="Layer3_0_1_STROKES" stroke="#0FF" stroke-width="1.208" stroke-linejoin="round" stroke-linecap="round" fill="none" d="M733.766,246.526 Q734.241,245.061 734.238,242.895 734.287,240.7 734.483,239.956 735.351,237.004 742.179,235.405 750.981,233.354 776.554,237.056 803.11,240.884 812.446,246.352 823.273,252.699 826.215,255.11 830.183,258.322 830.693,262.079 831.195,265.701 823.634,271.083 817.034,275.836 812.533,276.989 809.871,277.7 784.42,267.846 767.079,261.153 758.77,258.073 758.723,258.045 758.673,258.025 752.694,255.782 751.469,255.439 742.579,253.137 740.023,252.109 736.519,250.654 733.766,246.526Z" test="RedBike container"/>
        <path id="Layer3_0_2_STROKES" stroke="#FFF" stroke-width="1.208" stroke-linejoin="round" stroke-linecap="round" fill="none" d="M763.911,265.04 L767.536,273.904 Q756.505,284.732 745.767,282.737 L741.804,278.334 Q759.3,273.807 758.46,269.124 L755.943,262.76 M764.385,265.254 L763.911,265.04 756.787,262.409 M755.943,262.76 L755.787,262.012 756.787,262.409 M823.336,292.298 L807.019,289.847 M801.938,298.888 L817.399,301.068" test="RedBike container"/>
        <path id="Layer3_0_3_STROKES" stroke="#FF0265" stroke-width="1.208" stroke-linejoin="round" stroke-linecap="round" fill="none" d="M755.943,262.76 Q746.756,267.272 737.4,272.091 717.278,282.552 716.141,284.682 714.87,286.82 715.607,289.886 716.002,291.404 717.643,295.062 718.75,297.563 719.689,303.377 720.554,309.304 719.906,310.591 719.698,311.055 716.38,312.399 716.307,312.421 716.234,312.449 L717.546,315.181 Q719.109,318.465 720.346,321.309 706.24,333.579 680.098,340.904 653.925,348.177 648.874,347.065 643.822,345.952 640.673,341.145 639.687,339.692 637.838,335.317 637.707,334.973 638.149,332.13 638.612,329.204 638.312,328.33 638.279,328.213 638.232,328.132 637.605,326.902 634.641,330.188 630.385,334.764 613.069,349.322 604.354,356.564 596.532,362.937 602.967,375.547 602.601,375.76 602.236,375.973 623.201,372.362 643.14,369.628 643.461,369.58 661.503,367.671 667.268,369.767 672.062,371.518 676.122,373.208 676.596,373.422 677.122,373.605 679.636,374.675 681.845,375.713 681.975,375.772 682.097,375.845 682.865,376.192 683.59,376.549 688.871,379.135 693.083,381.925 694.295,382.687 695.404,383.51 697.929,385.325 699.997,387.196 709.283,395.699 721.911,413.301 722.076,413.585 729.229,409.423 729.295,409.385 729.36,409.347 739.281,403.531 762.444,389.276 764.118,388.248 765.792,387.221 784.146,375.937 802.47,364.498 800.797,362.466 798.947,358.93 795.195,351.887 794.122,344.403 792.993,336.463 795.146,323.954 796.656,315.385 799.019,307.438 799.054,307.138 799.171,306.86 800.091,303.878 801.938,298.888 L805.824,289.355 807.792,284.573 Q791.962,277.441 782.083,273.017 782.035,272.992 781.986,272.969 768.76,267.072 766.25,266.055 L764.385,265.254 M755.943,262.76 Q756.339,262.6 756.787,262.409 756.995,262.287 757.256,262.135 L763.911,265.04 M638.312,328.33 Q649.596,328.259 659.854,327.388 676.987,326.079 685.976,323.15 L716.087,311.836 M688.63,369.839 Q693.555,371.934 698.223,374.668 713.318,383.423 720.58,395.411 727.841,407.4 727.638,406.33 L725.901,402.868 762.706,381.923 Q761.709,378.17 759.499,373.655 755.079,364.625 748.26,359.998 741.358,355.349 730.452,355.828 719.495,356.338 710.373,360.601 701.17,364.843 691.584,367.349 L685.161,368.503 688.63,369.839Z" test="RedBike container"/>
        <use xlink:href="#Bike-Wheel" transform="matrix(1.044 -.608 .608 1.044 861.65 314.25)"/>
        <use xlink:href="#Bike-Wheel" transform="matrix(1.044 -.608 .608 1.044 666.05 433.5)"/>
      </g>
    </g>
  </g>
</svg>