<?xml version="1.0" encoding="utf-8"?>
<svg id="EdithAnim11" image-rendering="inherit" baseProfile="basic" version="1.1" x="0px" y="0px" width="800" height="600" xmlns="http://www.w3.org/2000/svg" xmlns:xlink="http://www.w3.org/1999/xlink">
  <defs>
    <g id="Bike-Wheel" overflow="visible">
      <path id="Layer5_0_1_STROKES" stroke="#FFF" stroke-width="1" stroke-linejoin="round" stroke-linecap="round" fill="none" d="M2.05 -34.85Q-12.35 -34.85 -22.65 -26.45 -34 -17.2 -34.7 -1.55 -35.4 14.3 -26.6 24.6 -18.4 34.2 -5.6 34.85 7.15 35.5 19.2 29.8 31.25 24.1 34.05 7.25 36.85 -9.65 28.9 -21.15 19.4 -34.85 2.05 -34.85Z" test="Bike Wheel"/>
      <path id="Layer4_0_1_STROKES" stroke="#FFF" stroke-width="1" stroke-linejoin="round" stroke-linecap="round" fill="none" d="M.55 -26.55Q4.65 -26.85 7.1 -26.15 9.75 -25.4 12 -23.15 13.95 -21.25 8 -15.35 5.3 -12.6 2.25 -10.2 1.95 -10 1.7 -9.8M24.45 -8.9Q26.2 -5.15 26.45 -2.65 26.7 .1 25.4 3.05 24.35 5.5 16.7 2.1 13.2 .6 9.85 -1.4 9.5 -1.6 9.25 -1.75M18.45 20Q15.75 23.1 13.55 24.35 11.2 25.75 8 25.75 5.3 25.75 5.25 17.4 5.2 13.55 5.65 9.7 5.7 9.35 5.75 9M-25.15 -7.15Q-24.25 -11.2 -22.85 -13.3 -21.4 -15.6 -18.6 -17.1 -16.2 -18.45 -12.25 -11.05 -10.4 -7.65 -9 -4.1 -8.9 -3.7 -8.75 -3.4M-12.85 23.8Q-16.75 22.4 -18.7 20.8 -20.85 19.05 -22.05 16.1 -23.1 13.6 -15.3 10.55 -11.75 9.05 -8 8.05 -7.65 8 -7.3 7.95" test="Bike Wheel"/>
    </g>
  </defs>
  <g id="19_Motorbikesf92r1" overflow="visible">
    <g id="Smokef18r1">
      <path fill="#000" stroke="none" d="M175.061,-234.65 Q168.021,-241.024 156.457,-238.634 149.292,-244.875 139.11,-246.734 135.717,-247.664 129.432,-247 106.177,-262.139 80.66,-252.046 67.713,-273.029 30.003,-269.178 5.743,-293.613 -41.52,-297.066 -41.52,214.613 -41.52,726.291 -27.819,747.938 -5.445,738.509 23.844,744.485 30.003,731.338 56.4,742.493 74.626,733.197 88.076,738.907 96.247,728.15 100.521,733.33 108.942,731.603 115.982,732.002 120.758,729.08 124.026,734.923 130.689,731.603 134.837,730.674 139.11,729.744 141.247,733.994 146.401,731.869 147.784,731.603 149.292,731.338 241.43,820.978 387.619,717.659 508.794,722.971 574.787,683.928 637.385,647.01 650.332,570.118 856.103,626.558 987.837,502.258 1091.414,530.81 1146.219,412.219 1174.753,449.005 1239.991,422.179 1294.168,414.477 1326.347,377.691 1347.339,420.586 1398.624,380.746 1429.17,365.208 1459.84,349.538 1473.165,381.144 1514.017,355.248 1535.763,346.483 1557.509,337.718 1589.688,336.258 1621.742,334.797 1621.742,330.414 1622.873,320.587 1623.376,316.072 1623.879,311.557 1623.879,305.448 1623.879,299.339 1612.817,301.73 1601.756,304.12 1597.482,284.997 1594.088,283.536 1561.406,267.733 1546.699,278.224 1520.428,258.968 1484.729,260.827 1445.511,207.043 1364.937,231.877 1327.604,183.936 1268.651,167.867 1262.743,166.274 1256.458,164.946 1238.483,159.235 1193.985,166.672 1065.268,51.933 921.467,114.216 901.355,122.715 880.992,134.8 834.483,-47.269 566.868,-6.499 456.126,-193.747 184.74,-232.392 180.466,-234.782 175.061,-234.65Z" test="Smoke" stroke-width="2.585"/>
      <path id="Layer2_0_1_STROKES" stroke="#FFF" stroke-width="2.585" stroke-linejoin="round" stroke-linecap="round" fill="none" d="M1621.742,334.797 Q1589.688,336.258 1557.509,337.718 1535.763,346.483 1514.017,355.248 1473.165,381.144 1459.84,349.538 1429.17,365.208 1398.624,380.746 1347.339,420.586 1326.347,377.691 1294.168,414.477 1239.991,422.179 1174.753,449.005 1146.219,412.219 1091.414,530.81 987.837,502.258 856.103,626.558 650.332,570.118 637.385,647.01 574.787,683.928 508.794,722.971 387.619,717.659 241.43,820.978 149.292,731.338 147.784,731.603 146.401,731.869 141.247,733.994 139.11,729.744 134.837,730.674 130.689,731.603 124.026,734.923 120.758,729.08 115.982,732.002 108.942,731.603 100.521,733.33 96.247,728.15 88.076,738.907 74.626,733.197 56.4,742.493 30.003,731.338 23.844,744.485 -5.445,738.509 -27.819,747.938 -41.52,726.291 -41.52,214.613 -41.52,-297.066 5.743,-293.613 30.003,-269.178 67.713,-273.029 80.66,-252.046 106.177,-262.139 129.432,-247 135.717,-247.664 139.11,-246.734 149.292,-244.875 156.457,-238.634 168.021,-241.024 175.061,-234.65 180.466,-234.782 184.74,-232.392 456.126,-193.747 566.868,-6.499 834.483,-47.269 880.992,134.8 901.355,122.715 921.467,114.216 1065.268,51.933 1193.985,166.672 1238.483,159.235 1256.458,164.946 1262.743,166.274 1268.651,167.867 1327.604,183.936 1364.937,231.877 1445.511,207.043 1484.729,260.827 1520.428,258.968 1546.699,278.224 1561.406,267.733 1594.088,283.536 1597.482,284.997 1601.756,304.12 1612.817,301.73 1623.879,299.339 1623.879,305.448 1623.879,311.557 1623.376,316.072 1622.873,320.587 1621.742,330.414 1621.742,334.797Z" test="Smoke"/>
    </g>
    <g id="Smokef1r1">
      <path fill="#000" stroke="none" d="M318.396,291.801 Q291.055,211.354 131.425,229.472 57.946,136.593 -136.928,125.945 -136.928,340.749 -136.928,555.554 -78.971,623.514 25.194,568.934 165.957,573.896 181.407,503.986 303.942,529.129 382.191,474.159 443.85,486.926 476.389,434.41 493.263,450.744 532.138,438.869 564.392,435.525 583.545,419.246 595.934,438.312 626.478,420.695 644.706,413.838 662.933,406.869 670.765,420.918 695.115,409.489 701.666,407.594 708.074,405.587 714.766,406.535 723.097,402.967 729.576,402.297 734.275,400.625 738.405,399.677 741.039,397.838 753.072,399.008 762.684,395.942 769.092,396.499 773.862,393.656 776.426,394.437 779.986,393.768 783.19,393.545 785.682,392.653 787.675,393.6 790.666,392.597 792.588,392.151 794.582,391.761 796.006,392.43 798.284,391.761 799.708,391.593 801.132,391.371 803.197,391.315 805.19,391.203 805.19,389.364 805.831,385.238 806.116,383.343 806.401,381.447 806.401,378.883 806.401,376.318 805.689,376.429 805.048,376.541 804.55,376.151 804.122,376.151 802.342,375.928 801.061,376.374 799.21,376.039 797.002,376.262 793.585,375.314 788.886,376.207 785.824,375.426 782.122,375.37 781.837,375.203 781.623,375.092 780.84,373.977 779.131,373.308 772.937,364.109 766.742,365.001 765.39,364.945 763.966,364.945 755.92,358.422 742.178,358.534 729.362,352.68 715.55,354.52 699.886,345.99 678.668,346.826 655.314,322.91 607.397,333.837 582.975,310.422 542.747,304.122 531.925,301.725 505.367,305.125 417.791,248.093 318.396,291.801Z" test="Smoke_2323" stroke-width="1.269"/>
      <path id="Layer1_0_1_STROKES" stroke="#FFF" stroke-width="1.269" stroke-linejoin="round" stroke-linecap="round" fill="none" d="M805.19,391.203 Q803.197,391.315 801.132,391.371 799.708,391.593 798.284,391.761 796.006,392.43 794.582,391.761 792.588,392.151 790.666,392.597 787.675,393.6 785.682,392.653 783.19,393.545 779.986,393.768 776.426,394.437 773.862,393.656 769.092,396.499 762.684,395.942 753.072,399.008 741.039,397.838 738.405,399.677 734.275,400.625 729.576,402.297 723.097,402.967 714.766,406.535 708.074,405.587 701.666,407.594 695.115,409.489 670.765,420.918 662.933,406.869 644.706,413.838 626.478,420.695 595.934,438.312 583.545,419.246 564.392,435.525 532.138,438.869 493.263,450.744 476.389,434.41 443.85,486.926 382.191,474.159 303.942,529.129 181.407,503.986 165.957,573.896 25.194,568.934 -78.971,623.514 -136.928,555.554 -136.928,340.749 -136.928,125.945 57.946,136.593 131.425,229.472 291.055,211.354 318.396,291.801 417.791,248.093 505.367,305.125 531.925,301.725 542.747,304.122 582.975,310.422 607.397,333.837 655.314,322.91 678.668,346.826 699.886,345.99 715.55,354.52 729.362,352.68 742.178,358.534 755.92,358.422 763.966,364.945 765.39,364.945 766.742,365.001 772.937,364.109 779.131,373.308 780.84,373.977 781.623,375.092 781.837,375.203 782.122,375.37 785.824,375.426 788.886,376.207 793.585,375.314 797.002,376.262 799.21,376.039 801.061,376.374 802.342,375.928 804.122,376.151 804.55,376.151 805.048,376.541 805.689,376.429 806.401,376.318 806.401,378.883 806.401,381.447 806.116,383.343 805.831,385.238 805.19,389.364 805.19,391.203Z" test="Smoke_2323"/>
    </g>
    <g id="MotorBikePinkf6r1">
      <g id="RedBike-container">
        <path fill="#000" stroke="none" d="M717.123,341.145 Q720.272,345.952 725.324,347.065 730.375,348.177 756.548,340.904 782.69,333.579 796.796,321.309 795.559,318.465 793.996,315.181 L792.684,312.449 Q792.757,312.421 792.789,312.388 L792.537,311.836 762.426,323.15 Q753.437,326.079 736.304,327.388 726.046,328.259 714.762,328.33 715.062,329.204 714.599,332.13 714.157,334.973 714.288,335.317 716.137,339.692 717.123,341.145 M883.469,289.847 L882.274,289.355 878.388,298.888 893.849,301.068 896.926,302.632 Q899.87,297.063 901.825,293.278 L899.786,292.298 883.469,289.847 M834.91,269.124 Q835.75,273.807 818.254,278.334 L822.217,282.737 Q832.955,284.732 843.986,273.904 L840.361,265.04 833.237,262.409 Q832.789,262.6 832.393,262.76 L834.91,269.124 M818.254,278.334 Q835.75,273.807 834.91,269.124 L832.393,262.76 Q823.206,267.272 813.85,272.091 793.728,282.552 792.591,284.682 791.32,286.82 792.057,289.886 792.452,291.404 794.093,295.062 795.2,297.563 796.139,303.377 797.004,309.304 796.356,310.591 796.148,311.055 792.789,312.388 792.757,312.421 792.684,312.449 L793.996,315.181 Q795.559,318.465 796.796,321.309 782.69,333.579 756.548,340.904 730.375,348.177 725.324,347.065 720.272,345.952 717.123,341.145 716.137,339.692 714.288,335.317 714.157,334.973 714.599,332.13 715.062,329.204 714.762,328.33 714.729,328.213 714.641,328.121 714.055,326.902 711.091,330.188 706.835,334.764 689.519,349.322 680.804,356.564 672.982,362.937 679.417,375.547 679.051,375.76 678.686,375.973 699.651,372.362 719.59,369.628 719.911,369.58 737.953,367.671 743.718,369.767 748.512,371.518 752.572,373.208 753.046,373.422 753.572,373.605 756.086,374.675 758.28,375.686 758.425,375.772 758.506,375.834 759.315,376.192 760.04,376.549 765.321,379.135 769.533,381.925 770.745,382.687 771.854,383.51 774.379,385.325 776.447,387.196 785.733,395.699 798.361,413.301 798.526,413.585 805.664,409.397 805.745,409.385 805.768,409.336 815.731,403.531 838.894,389.276 840.568,388.248 842.226,387.195 860.596,375.937 878.92,364.498 877.247,362.466 875.397,358.93 871.645,351.887 870.572,344.403 869.443,336.463 871.596,323.954 873.106,315.385 875.469,307.438 875.504,307.138 875.621,306.86 876.541,303.878 878.388,298.888 L882.274,289.355 884.242,284.573 Q868.412,277.441 858.492,273.006 858.485,272.992 858.409,272.984 845.21,267.072 842.7,266.055 L840.835,265.254 840.361,265.04 843.986,273.904 Q832.955,284.732 822.217,282.737 L818.254,278.334 M806.902,355.828 Q817.808,355.349 824.71,359.998 831.529,364.625 835.949,373.655 838.159,378.17 839.156,381.923 L802.351,402.868 804.088,406.33 Q804.291,407.4 797.03,395.411 789.768,383.423 774.673,374.668 770.005,371.934 765.08,369.839 L761.585,368.519 768.034,367.349 Q777.62,364.843 786.823,360.601 795.945,356.338 806.902,355.828 M824.71,359.998 Q817.808,355.349 806.902,355.828 795.945,356.338 786.823,360.601 777.62,364.843 768.034,367.349 L761.585,368.519 765.08,369.839 Q770.005,371.934 774.673,374.668 789.768,383.423 797.03,395.411 804.291,407.4 804.088,406.33 L802.351,402.868 839.156,381.923 Q838.159,378.17 835.949,373.655 831.529,364.625 824.71,359.998 M853.004,237.056 Q827.431,233.354 818.629,235.405 811.801,237.004 810.933,239.956 810.737,240.7 810.688,242.895 810.691,245.061 810.216,246.526 812.969,250.654 816.473,252.109 819.029,253.137 827.919,255.439 829.144,255.782 835.096,258.04 835.173,258.045 835.179,258.062 843.529,261.153 860.87,267.846 886.321,277.7 888.983,276.989 893.484,275.836 900.084,271.083 907.645,265.701 907.143,262.079 906.633,258.322 902.665,255.11 899.723,252.699 888.896,246.352 879.56,240.884 853.004,237.056Z" test="RedBike container" stroke-width="1.208"/>
        <path id="Layer3_0_1_STROKES" stroke="#0FF" stroke-width="1.208" stroke-linejoin="round" stroke-linecap="round" fill="none" d="M810.216,246.526 Q810.691,245.061 810.688,242.895 810.737,240.7 810.933,239.956 811.801,237.004 818.629,235.405 827.431,233.354 853.004,237.056 879.56,240.884 888.896,246.352 899.723,252.699 902.665,255.11 906.633,258.322 907.143,262.079 907.645,265.701 900.084,271.083 893.484,275.836 888.983,276.989 886.321,277.7 860.87,267.846 843.529,261.153 835.22,258.073 835.173,258.045 835.123,258.025 829.144,255.782 827.919,255.439 819.029,253.137 816.473,252.109 812.969,250.654 810.216,246.526Z" test="RedBike container"/>
        <path id="Layer3_0_2_STROKES" stroke="#FFF" stroke-width="1.208" stroke-linejoin="round" stroke-linecap="round" fill="none" d="M840.361,265.04 L843.986,273.904 Q832.955,284.732 822.217,282.737 L818.254,278.334 Q835.75,273.807 834.91,269.124 L832.393,262.76 M840.835,265.254 L840.361,265.04 833.237,262.409 M832.393,262.76 L832.237,262.012 833.237,262.409 M899.786,292.298 L883.469,289.847 M878.388,298.888 L893.849,301.068" test="RedBike container"/>
        <path id="Layer3_0_3_STROKES" stroke="#FF0265" stroke-width="1.208" stroke-linejoin="round" stroke-linecap="round" fill="none" d="M832.393,262.76 Q823.206,267.272 813.85,272.091 793.728,282.552 792.591,284.682 791.32,286.82 792.057,289.886 792.452,291.404 794.093,295.062 795.2,297.563 796.139,303.377 797.004,309.304 796.356,310.591 796.148,311.055 792.83,312.399 792.757,312.421 792.684,312.449 L793.996,315.181 Q795.559,318.465 796.796,321.309 782.69,333.579 756.548,340.904 730.375,348.177 725.324,347.065 720.272,345.952 717.123,341.145 716.137,339.692 714.288,335.317 714.157,334.973 714.599,332.13 715.062,329.204 714.762,328.33 714.729,328.213 714.682,328.132 714.055,326.902 711.091,330.188 706.835,334.764 689.519,349.322 680.804,356.564 672.982,362.937 679.417,375.547 679.051,375.76 678.686,375.973 699.651,372.362 719.59,369.628 719.911,369.58 737.953,367.671 743.718,369.767 748.512,371.518 752.572,373.208 753.046,373.422 753.572,373.605 756.086,374.675 758.295,375.713 758.425,375.772 758.547,375.845 759.315,376.192 760.04,376.549 765.321,379.135 769.533,381.925 770.745,382.687 771.854,383.51 774.379,385.325 776.447,387.196 785.733,395.699 798.361,413.301 798.526,413.585 805.679,409.423 805.745,409.385 805.81,409.347 815.731,403.531 838.894,389.276 840.568,388.248 842.242,387.221 860.596,375.937 878.92,364.498 877.247,362.466 875.397,358.93 871.645,351.887 870.572,344.403 869.443,336.463 871.596,323.954 873.106,315.385 875.469,307.438 875.504,307.138 875.621,306.86 876.541,303.878 878.388,298.888 L882.274,289.355 884.242,284.573 Q868.412,277.441 858.533,273.017 858.485,272.992 858.435,272.969 845.21,267.072 842.7,266.055 L840.835,265.254 M832.393,262.76 Q832.789,262.6 833.237,262.409 833.445,262.287 833.706,262.135 L840.361,265.04 M714.762,328.33 Q726.046,328.259 736.304,327.388 753.437,326.079 762.426,323.15 L792.537,311.836 M765.08,369.839 Q770.005,371.934 774.673,374.668 789.768,383.423 797.03,395.411 804.291,407.4 804.088,406.33 L802.351,402.868 839.156,381.923 Q838.159,378.17 835.949,373.655 831.529,364.625 824.71,359.998 817.808,355.349 806.902,355.828 795.945,356.338 786.823,360.601 777.62,364.843 768.034,367.349 L761.611,368.503 765.08,369.839Z" test="RedBike container"/>
        <use xlink:href="#Bike-Wheel" transform="matrix(1.044 -.608 .608 1.044 938.1 314.25)"/>
        <use xlink:href="#Bike-Wheel" transform="matrix(1.044 -.608 .608 1.044 742.5 433.5)"/>
      </g>
    </g>
  </g>
</svg>