<?xml version="1.0" encoding="utf-8"?>
<svg id="EdithAnim11" image-rendering="inherit" baseProfile="basic" version="1.1" x="0px" y="0px" width="800" height="600" xmlns="http://www.w3.org/2000/svg" xmlns:xlink="http://www.w3.org/1999/xlink">
  <defs>
    <g id="Bike-Wheel" overflow="visible">
      <path id="Layer5_0_1_STROKES" stroke="#FFF" stroke-width="1" stroke-linejoin="round" stroke-linecap="round" fill="none" d="M2.05 -34.85Q-12.35 -34.85 -22.65 -26.45 -34 -17.2 -34.7 -1.55 -35.4 14.3 -26.6 24.6 -18.4 34.2 -5.6 34.85 7.15 35.5 19.2 29.8 31.25 24.1 34.05 7.25 36.85 -9.65 28.9 -21.15 19.4 -34.85 2.05 -34.85Z" test="Bike Wheel"/>
      <path id="Layer4_0_1_STROKES" stroke="#FFF" stroke-width="1" stroke-linejoin="round" stroke-linecap="round" fill="none" d="M.55 -26.55Q4.65 -26.85 7.1 -26.15 9.75 -25.4 12 -23.15 13.95 -21.25 8 -15.35 5.3 -12.6 2.25 -10.2 1.95 -10 1.7 -9.8M24.45 -8.9Q26.2 -5.15 26.45 -2.65 26.7 .1 25.4 3.05 24.35 5.5 16.7 2.1 13.2 .6 9.85 -1.4 9.5 -1.6 9.25 -1.75M18.45 20Q15.75 23.1 13.55 24.35 11.2 25.75 8 25.75 5.3 25.75 5.25 17.4 5.2 13.55 5.65 9.7 5.7 9.35 5.75 9M-25.15 -7.15Q-24.25 -11.2 -22.85 -13.3 -21.4 -15.6 -18.6 -17.1 -16.2 -18.45 -12.25 -11.05 -10.4 -7.65 -9 -4.1 -8.9 -3.7 -8.75 -3.4M-12.85 23.8Q-16.75 22.4 -18.7 20.8 -20.85 19.05 -22.05 16.1 -23.1 13.6 -15.3 10.55 -11.75 9.05 -8 8.05 -7.65 8 -7.3 7.95" test="Bike Wheel"/>
    </g>
  </defs>
  <g id="19_Motorbikesf93r1" overflow="visible">
    <g id="Smokef19r1">
      <path fill="#000" stroke="none" d="M75.663,-287.296 Q59.673,-295.677 42.523,-290.868 31.433,-302.135 7.448,-300.624 -11.121,-313.814 -41.682,-316.15 -41.682,213.252 -41.682,742.655 -32.913,756.532 -19.76,754.196 -2.868,759.83 2.161,755.57 17.635,764.226 29.241,762.028 37.236,766.425 42.652,762.165 45.488,765.6 50.389,765.463 54.773,766.287 57.739,765.463 60.06,769.035 64.057,767.936 66.636,767.936 69.215,768.074 70.763,770.684 73.857,769.86 74.631,769.86 75.534,769.997 174.954,867.963 332.789,755.295 463.673,761.341 534.854,718.747 602.552,678.489 616.35,594.4 838.402,656.093 980.634,520.341 1092.305,551.669 1151.493,421.963 1182.054,462.221 1252.589,432.955 1311.133,424.574 1345.82,384.315 1368.387,431.169 1423.706,387.75 1456.846,370.85 1489.857,353.675 1504.171,388.3 1548.401,359.996 1571.87,350.378 1595.21,340.76 1629.897,339.111 1664.585,337.599 1664.585,333.065 1665.745,322.898 1666.261,318.226 1666.777,313.554 1666.777,307.234 1666.777,300.914 1654.913,303.524 1642.792,306.135 1638.279,285.25 1634.668,283.601 1599.336,266.426 1583.475,277.693 1555.106,256.808 1516.55,258.732 1474.383,199.925 1387.471,226.992 1347.239,174.643 1283.537,157.056 1277.09,155.27 1270.385,153.758 1250.784,147.85 1202.815,156.094 1063.549,31.747 908.035,99.76 886.371,109.103 864.45,122.294 814.804,-76.112 525.569,-31.594 406.548,-235.908 113.187,-278.365 110.35,-279.739 106.611,-279.876 101.582,-283.311 93.974,-282.212 88.816,-285.647 82.11,-286.884 79.66,-287.433 75.663,-287.296Z" test="Smoke" stroke-width="2.663"/>
      <path id="Layer2_0_1_STROKES" stroke="#FFF" stroke-width="2.663" stroke-linejoin="round" stroke-linecap="round" fill="none" d="M1664.585,337.599 Q1629.897,339.111 1595.21,340.76 1571.87,350.378 1548.401,359.996 1504.171,388.3 1489.857,353.675 1456.846,370.85 1423.706,387.75 1368.387,431.169 1345.82,384.315 1311.133,424.574 1252.589,432.955 1182.054,462.221 1151.493,421.963 1092.305,551.669 980.634,520.341 838.402,656.093 616.35,594.4 602.552,678.489 534.854,718.747 463.673,761.341 332.789,755.295 174.954,867.963 75.534,769.997 74.631,769.86 73.857,769.86 70.763,770.684 69.215,768.074 66.636,767.936 64.057,767.936 60.06,769.035 57.739,765.463 54.773,766.287 50.389,765.463 45.488,765.6 42.652,762.165 37.236,766.425 29.241,762.028 17.635,764.226 2.161,755.57 -2.868,759.83 -19.76,754.196 -32.913,756.532 -41.682,742.655 -41.682,213.252 -41.682,-316.15 -11.121,-313.814 7.448,-300.624 31.433,-302.135 42.523,-290.868 59.673,-295.677 75.663,-287.296 79.66,-287.433 82.11,-286.884 88.816,-285.647 93.974,-282.212 101.582,-283.311 106.611,-279.876 110.35,-279.739 113.187,-278.365 406.548,-235.908 525.569,-31.594 814.804,-76.112 864.45,122.294 886.371,109.103 908.035,99.76 1063.549,31.747 1202.815,156.094 1250.784,147.85 1270.385,153.758 1277.09,155.27 1283.537,157.056 1347.239,174.643 1387.471,226.992 1474.383,199.925 1516.55,258.732 1555.106,256.808 1583.475,277.693 1599.336,266.426 1634.668,283.601 1638.279,285.25 1642.792,306.135 1654.913,303.524 1666.777,300.914 1666.777,307.234 1666.777,313.554 1666.261,318.226 1665.745,322.898 1664.585,333.065 1664.585,337.599Z" test="Smoke"/>
    </g>
    <g id="Smokef2r1">
      <path fill="#000" stroke="none" d="M318.674,270.67 Q291.186,186.599 131.798,205.48 58.172,108.433 -136.418,97.24 -136.418,334.199 -136.418,571.159 -78.521,642.314 25.365,585.427 165.803,590.654 181.307,517.715 303.469,544.16 381.665,486.842 443.158,500.249 475.664,445.391 492.517,462.55 531.24,450.188 563.522,446.683 582.547,429.709 594.98,449.635 625.464,431.246 643.665,424.112 661.791,416.917 669.655,431.615 693.998,419.623 700.514,417.655 706.881,415.625 716.767,419.008 730.1,412.489 740.735,411.997 747.701,409.168 754.068,407.2 757.139,403.141 776.163,405.908 790.394,399.328 800.281,400.742 807.022,394.469 810.467,396.314 816.31,394.9 821.403,394.469 824.998,392.501 827.694,394.654 832.413,392.563 835.484,391.702 838.48,390.841 840.352,392.44 844.097,391.025 846.27,390.595 848.367,390.103 851.512,389.98 854.658,389.857 854.658,387.827 855.332,383.276 855.632,381.185 855.932,379.094 855.932,376.265 855.932,373.436 854.883,373.621 853.76,373.805 853.16,372.883 852.636,372.821 849.715,372.206 847.917,372.883 845.146,372.083 841.701,372.329 836.982,369.869 829.567,371.468 825.223,369.377 819.455,368.885 818.931,368.639 818.557,368.455 817.059,367.225 813.913,366.733 803.202,354.064 792.042,356.647 790.02,356.831 787.922,357.139 778.335,345.454 755.341,346.622 738.713,335.429 715.494,336.352 699.915,327.434 678.643,328.234 655.349,303.265 607.413,314.704 582.996,290.227 542.85,283.585 532.064,281.125 505.549,284.63 417.991,224.975 318.674,270.67Z" test="Smoke_2323" stroke-width="1.364"/>
      <path id="Layer1_0_1_STROKES" stroke="#FFF" stroke-width="1.364" stroke-linejoin="round" stroke-linecap="round" fill="none" d="M854.658,389.857 Q851.512,389.98 848.367,390.103 846.27,390.595 844.097,391.025 840.352,392.44 838.48,390.841 835.484,391.702 832.413,392.563 827.694,394.654 824.998,392.501 821.403,394.469 816.31,394.9 810.467,396.314 807.022,394.469 800.281,400.742 790.394,399.328 776.163,405.908 757.139,403.141 754.068,407.2 747.701,409.168 740.735,411.997 730.1,412.489 716.767,419.008 706.881,415.625 700.514,417.655 693.998,419.623 669.655,431.615 661.791,416.917 643.665,424.112 625.464,431.246 594.98,449.635 582.547,429.709 563.522,446.683 531.24,450.188 492.517,462.55 475.664,445.391 443.158,500.249 381.665,486.842 303.469,544.16 181.307,517.715 165.803,590.654 25.365,585.427 -78.521,642.314 -136.418,571.159 -136.418,334.199 -136.418,97.24 58.172,108.433 131.798,205.48 291.186,186.599 318.674,270.67 417.991,224.975 505.549,284.63 532.064,281.125 542.85,283.585 582.996,290.227 607.413,314.704 655.349,303.265 678.643,328.234 699.915,327.434 715.494,336.352 738.713,335.429 755.341,346.622 778.335,345.454 787.922,357.139 790.02,356.831 792.042,356.647 803.202,354.064 813.913,366.733 817.059,367.225 818.557,368.455 818.931,368.639 819.455,368.885 825.223,369.377 829.567,371.468 836.982,369.869 841.701,372.329 845.146,372.083 847.917,372.883 849.715,372.206 852.636,372.821 853.16,372.883 853.76,373.805 854.883,373.621 855.932,373.436 855.932,376.265 855.932,379.094 855.632,381.185 855.332,383.276 854.658,387.827 854.658,389.857Z" test="Smoke_2323"/>
    </g>
    <g id="MotorBikePinkf6r1">
      <g id="RedBike-container">
        <path fill="#000" stroke="none" d="M798.023,341.145 Q801.172,345.952 806.224,347.065 811.275,348.177 837.448,340.904 863.59,333.579 877.696,321.309 876.459,318.465 874.896,315.181 L873.584,312.449 Q873.657,312.421 873.689,312.388 L873.437,311.836 843.326,323.15 Q834.337,326.079 817.204,327.388 806.946,328.259 795.662,328.33 795.962,329.204 795.499,332.13 795.057,334.973 795.188,335.317 797.037,339.692 798.023,341.145 M964.369,289.847 L963.174,289.355 959.288,298.888 974.749,301.068 977.826,302.632 Q980.77,297.063 982.725,293.278 L980.686,292.298 964.369,289.847 M915.81,269.124 Q916.65,273.807 899.154,278.334 L903.117,282.737 Q913.855,284.732 924.886,273.904 L921.261,265.04 914.137,262.409 Q913.689,262.6 913.293,262.76 L915.81,269.124 M899.154,278.334 Q916.65,273.807 915.81,269.124 L913.293,262.76 Q904.106,267.272 894.75,272.091 874.628,282.552 873.491,284.682 872.22,286.82 872.957,289.886 873.352,291.404 874.993,295.062 876.1,297.563 877.039,303.377 877.904,309.304 877.256,310.591 877.048,311.055 873.689,312.388 873.657,312.421 873.584,312.449 L874.896,315.181 Q876.459,318.465 877.696,321.309 863.59,333.579 837.448,340.904 811.275,348.177 806.224,347.065 801.172,345.952 798.023,341.145 797.037,339.692 795.188,335.317 795.057,334.973 795.499,332.13 795.962,329.204 795.662,328.33 795.629,328.213 795.541,328.121 794.955,326.902 791.991,330.188 787.735,334.764 770.419,349.322 761.704,356.564 753.882,362.937 760.317,375.547 759.951,375.76 759.586,375.973 780.551,372.362 800.49,369.628 800.811,369.58 818.853,367.671 824.618,369.767 829.412,371.518 833.472,373.208 833.946,373.422 834.472,373.605 836.986,374.675 839.18,375.686 839.325,375.772 839.406,375.834 840.215,376.192 840.94,376.549 846.221,379.135 850.433,381.925 851.645,382.687 852.754,383.51 855.279,385.325 857.347,387.196 866.633,395.699 879.261,413.301 879.426,413.585 886.564,409.397 886.645,409.385 886.668,409.336 896.631,403.531 919.794,389.276 921.468,388.248 923.126,387.195 941.496,375.937 959.82,364.498 958.147,362.466 956.297,358.93 952.545,351.887 951.472,344.403 950.343,336.463 952.496,323.954 954.006,315.385 956.369,307.438 956.404,307.138 956.521,306.86 957.441,303.878 959.288,298.888 L963.174,289.355 965.142,284.573 Q949.312,277.441 939.392,273.006 939.385,272.992 939.309,272.984 926.11,267.072 923.6,266.055 L921.735,265.254 921.261,265.04 924.886,273.904 Q913.855,284.732 903.117,282.737 L899.154,278.334 M887.802,355.828 Q898.708,355.349 905.61,359.998 912.429,364.625 916.849,373.655 919.059,378.17 920.056,381.923 L883.251,402.868 884.988,406.33 Q885.191,407.4 877.93,395.411 870.668,383.423 855.573,374.668 850.905,371.934 845.98,369.839 L842.485,368.519 848.934,367.349 Q858.52,364.843 867.723,360.601 876.845,356.338 887.802,355.828 M905.61,359.998 Q898.708,355.349 887.802,355.828 876.845,356.338 867.723,360.601 858.52,364.843 848.934,367.349 L842.485,368.519 845.98,369.839 Q850.905,371.934 855.573,374.668 870.668,383.423 877.93,395.411 885.191,407.4 884.988,406.33 L883.251,402.868 920.056,381.923 Q919.059,378.17 916.849,373.655 912.429,364.625 905.61,359.998 M933.904,237.056 Q908.331,233.354 899.529,235.405 892.701,237.004 891.833,239.956 891.637,240.7 891.588,242.895 891.591,245.061 891.116,246.526 893.869,250.654 897.373,252.109 899.929,253.137 908.819,255.439 910.044,255.782 915.996,258.04 916.073,258.045 916.079,258.062 924.429,261.153 941.77,267.846 967.221,277.7 969.883,276.989 974.384,275.836 980.984,271.083 988.545,265.701 988.043,262.079 987.533,258.322 983.565,255.11 980.623,252.699 969.796,246.352 960.46,240.884 933.904,237.056Z" test="RedBike container" stroke-width="1.208"/>
        <path id="Layer3_0_1_STROKES" stroke="#0FF" stroke-width="1.208" stroke-linejoin="round" stroke-linecap="round" fill="none" d="M891.116,246.526 Q891.591,245.061 891.588,242.895 891.637,240.7 891.833,239.956 892.701,237.004 899.529,235.405 908.331,233.354 933.904,237.056 960.46,240.884 969.796,246.352 980.623,252.699 983.565,255.11 987.533,258.322 988.043,262.079 988.545,265.701 980.984,271.083 974.384,275.836 969.883,276.989 967.221,277.7 941.77,267.846 924.429,261.153 916.12,258.073 916.073,258.045 916.022,258.025 910.044,255.782 908.819,255.439 899.929,253.137 897.373,252.109 893.869,250.654 891.116,246.526Z" test="RedBike container"/>
        <path id="Layer3_0_2_STROKES" stroke="#FFF" stroke-width="1.208" stroke-linejoin="round" stroke-linecap="round" fill="none" d="M921.261,265.04 L924.886,273.904 Q913.855,284.732 903.117,282.737 L899.154,278.334 Q916.65,273.807 915.81,269.124 L913.293,262.76 M921.735,265.254 L921.261,265.04 914.137,262.409 M913.293,262.76 L913.137,262.012 914.137,262.409 M980.686,292.298 L964.369,289.847 M959.288,298.888 L974.749,301.068" test="RedBike container"/>
        <path id="Layer3_0_3_STROKES" stroke="#FF0265" stroke-width="1.208" stroke-linejoin="round" stroke-linecap="round" fill="none" d="M913.293,262.76 Q904.106,267.272 894.75,272.091 874.628,282.552 873.491,284.682 872.22,286.82 872.957,289.886 873.352,291.404 874.993,295.062 876.1,297.563 877.039,303.377 877.904,309.304 877.256,310.591 877.048,311.055 873.73,312.399 873.657,312.421 873.584,312.449 L874.896,315.181 Q876.459,318.465 877.696,321.309 863.59,333.579 837.448,340.904 811.275,348.177 806.224,347.065 801.172,345.952 798.023,341.145 797.037,339.692 795.188,335.317 795.057,334.973 795.499,332.13 795.962,329.204 795.662,328.33 795.629,328.213 795.582,328.132 794.955,326.902 791.991,330.188 787.735,334.764 770.419,349.322 761.704,356.564 753.882,362.937 760.317,375.547 759.951,375.76 759.586,375.973 780.551,372.362 800.49,369.628 800.811,369.58 818.853,367.671 824.618,369.767 829.412,371.518 833.472,373.208 833.946,373.422 834.472,373.605 836.986,374.675 839.195,375.713 839.325,375.772 839.447,375.845 840.215,376.192 840.94,376.549 846.221,379.135 850.433,381.925 851.645,382.687 852.754,383.51 855.279,385.325 857.347,387.196 866.633,395.699 879.261,413.301 879.426,413.585 886.579,409.423 886.645,409.385 886.71,409.347 896.631,403.531 919.794,389.276 921.468,388.248 923.142,387.221 941.496,375.937 959.82,364.498 958.147,362.466 956.297,358.93 952.545,351.887 951.472,344.403 950.343,336.463 952.496,323.954 954.006,315.385 956.369,307.438 956.404,307.138 956.521,306.86 957.441,303.878 959.288,298.888 L963.174,289.355 965.142,284.573 Q949.312,277.441 939.433,273.017 939.385,272.992 939.335,272.969 926.11,267.072 923.6,266.055 L921.735,265.254 M913.293,262.76 Q913.689,262.6 914.137,262.409 914.345,262.287 914.606,262.135 L921.261,265.04 M795.662,328.33 Q806.946,328.259 817.204,327.388 834.337,326.079 843.326,323.15 L873.437,311.836 M845.98,369.839 Q850.905,371.934 855.573,374.668 870.668,383.423 877.93,395.411 885.191,407.4 884.988,406.33 L883.251,402.868 920.056,381.923 Q919.059,378.17 916.849,373.655 912.429,364.625 905.61,359.998 898.708,355.349 887.802,355.828 876.845,356.338 867.723,360.601 858.52,364.843 848.934,367.349 L842.511,368.503 845.98,369.839Z" test="RedBike container"/>
        <use xlink:href="#Bike-Wheel" transform="matrix(1.044 -.608 .608 1.044 1019 314.25)"/>
        <use xlink:href="#Bike-Wheel" transform="matrix(1.044 -.608 .608 1.044 823.4 433.5)"/>
      </g>
    </g>
  </g>
</svg>