<?xml version="1.0" encoding="utf-8"?>
<svg id="EdithAnim11" image-rendering="inherit" baseProfile="basic" version="1.1" x="0px" y="0px" width="800" height="600" xmlns="http://www.w3.org/2000/svg" xmlns:xlink="http://www.w3.org/1999/xlink">
  <defs>
    <g id="Bike-Wheel" overflow="visible">
      <path id="Layer5_0_1_STROKES" stroke="#FFF" stroke-width="1" stroke-linejoin="round" stroke-linecap="round" fill="none" d="M2.05 -34.85Q-12.35 -34.85 -22.65 -26.45 -34 -17.2 -34.7 -1.55 -35.4 14.3 -26.6 24.6 -18.4 34.2 -5.6 34.85 7.15 35.5 19.2 29.8 31.25 24.1 34.05 7.25 36.85 -9.65 28.9 -21.15 19.4 -34.85 2.05 -34.85Z" test="Bike Wheel"/>
      <path id="Layer4_0_1_STROKES" stroke="#FFF" stroke-width="1" stroke-linejoin="round" stroke-linecap="round" fill="none" d="M.55 -26.55Q4.65 -26.85 7.1 -26.15 9.75 -25.4 12 -23.15 13.95 -21.25 8 -15.35 5.3 -12.6 2.25 -10.2 1.95 -10 1.7 -9.8M24.45 -8.9Q26.2 -5.15 26.45 -2.65 26.7 .1 25.4 3.05 24.35 5.5 16.7 2.1 13.2 .6 9.85 -1.4 9.5 -1.6 9.25 -1.75M18.45 20Q15.75 23.1 13.55 24.35 11.2 25.75 8 25.75 5.3 25.75 5.25 17.4 5.2 13.55 5.65 9.7 5.7 9.35 5.75 9M-25.15 -7.15Q-24.25 -11.2 -22.85 -13.3 -21.4 -15.6 -18.6 -17.1 -16.2 -18.45 -12.25 -11.05 -10.4 -7.65 -9 -4.1 -8.9 -3.7 -8.75 -3.4M-12.85 23.8Q-16.75 22.4 -18.7 20.8 -20.85 19.05 -22.05 16.1 -23.1 13.6 -15.3 10.55 -11.75 9.05 -8 8.05 -7.65 8 -7.3 7.95" test="Bike Wheel"/>
    </g>
  </defs>
  <g id="19_Motorbikesf94r1" overflow="visible">
    <g id="Smokef20r1">
      <path fill="#000" stroke="none" d="M1709.666,315.602 L1709.666,302.538 1683.896,308.218 Q1679.007,285.498 1675.174,283.652 1637.115,264.908 1620.068,277.262 1589.673,254.4 1548.178,256.53 1502.851,192.488 1409.289,221.882 1361.715,159.118 1283.35,142.22 1262.338,135.83 1210.535,144.918 1039.784,-7.959 846.065,109.276 793.253,-106.32 481.728,-57.716 338.874,-306.642 -41.19,-335.184 L-41.19,759.068 Q71.984,940.987 275.177,794.426 550.049,807.399 580.047,619.624 819.107,686.801 971.872,539.11 1092.129,573.19 1155.561,432.184 1188.466,475.92 1264.32,444.112 1327.356,435.024 1364.622,391.288 1388.805,442.266 1448.405,394.98 L1519.502,357.918 Q1534.831,395.548 1582.405,364.734 L1632.754,343.86 1707.419,340.452 Q1707.419,335.766 1708.608,325.258 L1709.666,315.602Z" test="Smoke" stroke-width="2.741"/>
      <path id="Layer2_0_1_STROKES" stroke="#FFF" stroke-width="2.741" stroke-linejoin="round" stroke-linecap="round" fill="none" d="M1675.174,283.652 Q1637.115,264.908 1620.068,277.262 1589.673,254.4 1548.178,256.53 1502.851,192.488 1409.289,221.882 1361.715,159.118 1283.35,142.22 1262.338,135.83 1210.535,144.918 1039.784,-7.959 846.065,109.276 793.253,-106.32 481.728,-57.716 338.874,-306.642 -41.19,-335.184 L-41.19,759.068 Q71.984,940.987 275.177,794.426 550.049,807.399 580.047,619.624 819.107,686.801 971.872,539.11 1092.129,573.19 1155.561,432.184 1188.466,475.92 1264.32,444.112 1327.356,435.024 1364.622,391.288 1388.805,442.266 1448.405,394.98 L1519.502,357.918 Q1534.831,395.548 1582.405,364.734 L1632.754,343.86 1707.419,340.452 Q1707.419,335.766 1708.608,325.258 L1709.666,315.602 1709.666,302.538 1683.896,308.218 Q1679.007,285.498 1675.174,283.652Z" test="Smoke"/>
    </g>
    <g id="Smokef3r1">
      <path fill="#000" stroke="none" d="M316.126,247.706 Q288.598,160.886 130.119,180.321 56.738,80.051 -136.662,68.484 -136.662,327.598 -136.662,586.713 -79.09,660.352 24.02,601.709 163.388,607.291 178.882,532.106 300.239,559.544 377.866,500.498 438.977,514.419 471.224,457.862 488.055,475.549 526.515,462.838 558.525,459.274 577.48,441.789 589.828,462.435 620.108,443.47 638.119,436.073 656.208,428.675 664.073,443.874 688.219,431.567 694.59,429.482 701.039,427.398 714.252,433.719 733.207,423.766 748.386,423.43 757.824,419.26 766.554,416.1 770.015,409.576 796.835,414.149 815.947,403.457 829.789,405.81 838.519,395.655 843.081,398.682 851.339,396.395 858.496,395.723 863.294,392.495 866.754,396.059 873.44,392.696 877.608,391.284 881.777,389.939 884.136,392.562 889.406,390.275 892.394,389.536 895.383,388.796 899.709,388.662 904.035,388.46 904.035,386.241 904.742,381.264 905.057,378.977 905.372,376.691 905.372,373.597 905.372,370.504 903.877,370.773 902.383,371.042 901.596,369.495 900.967,369.361 896.799,368.218 894.518,369.294 890.743,367.814 885.945,368.15 879.732,363.914 869.271,366.402 863.53,362.703 855.586,361.627 854.878,361.425 854.249,361.156 852.047,359.677 847.171,359.408 831.677,342.797 815.003,347.437 812.171,347.841 809.34,348.581 798.093,330.827 764.981,333.382 744.375,315.964 710.87,315.628 695.376,306.415 674.219,307.289 651.017,281.465 603.356,293.301 579.053,267.948 539.099,261.155 528.324,258.533 501.976,262.164 414.91,200.563 316.126,247.706Z" test="Smoke_2323" stroke-width="1.459"/>
      <path id="Layer1_0_1_STROKES" stroke="#FFF" stroke-width="1.459" stroke-linejoin="round" stroke-linecap="round" fill="none" d="M904.035,388.46 Q899.709,388.662 895.383,388.796 892.394,389.536 889.406,390.275 884.136,392.562 881.777,389.939 877.608,391.284 873.44,392.696 866.754,396.059 863.294,392.495 858.496,395.723 851.339,396.395 843.081,398.682 838.519,395.655 829.789,405.81 815.947,403.457 796.835,414.149 770.015,409.576 766.554,416.1 757.824,419.26 748.386,423.43 733.207,423.766 714.252,433.719 701.039,427.398 694.59,429.482 688.219,431.567 664.073,443.874 656.208,428.675 638.119,436.073 620.108,443.47 589.828,462.435 577.48,441.789 558.525,459.274 526.515,462.838 488.055,475.549 471.224,457.862 438.977,514.419 377.866,500.498 300.239,559.544 178.882,532.106 163.388,607.291 24.02,601.709 -79.09,660.352 -136.662,586.713 -136.662,327.598 -136.662,68.484 56.738,80.051 130.119,180.321 288.598,160.886 316.126,247.706 414.91,200.563 501.976,262.164 528.324,258.533 539.099,261.155 579.053,267.948 603.356,293.301 651.017,281.465 674.219,307.289 695.376,306.415 710.87,315.628 744.375,315.964 764.981,333.382 798.093,330.827 809.34,348.581 812.171,347.841 815.003,347.437 831.677,342.797 847.171,359.408 852.047,359.677 854.249,361.156 854.878,361.425 855.586,361.627 863.53,362.703 869.271,366.402 879.732,363.914 885.945,368.15 890.743,367.814 894.518,369.294 896.799,368.218 900.967,369.361 901.596,369.495 902.383,371.042 903.877,370.773 905.372,370.504 905.372,373.597 905.372,376.691 905.057,378.977 904.742,381.264 904.035,386.241 904.035,388.46Z" test="Smoke_2323"/>
    </g>
    <g id="MotorBikePinkf6r1">
      <g id="RedBike-container">
        <path fill="#000" stroke="none" d="M883.323,341.145 Q886.472,345.952 891.524,347.065 896.575,348.177 922.748,340.904 948.89,333.579 962.996,321.309 961.759,318.465 960.196,315.181 L958.884,312.449 Q958.957,312.421 958.989,312.388 L958.737,311.836 928.626,323.15 Q919.637,326.079 902.504,327.388 892.246,328.259 880.962,328.33 881.262,329.204 880.799,332.13 880.357,334.973 880.488,335.317 882.337,339.692 883.323,341.145 M1049.669,289.847 L1048.474,289.355 1044.588,298.888 1060.049,301.068 1063.126,302.632 Q1066.07,297.063 1068.025,293.278 L1065.986,292.298 1049.669,289.847 M1001.11,269.124 Q1001.95,273.807 984.454,278.334 L988.417,282.737 Q999.155,284.732 1010.186,273.904 L1006.561,265.04 999.437,262.409 Q998.989,262.6 998.593,262.76 L1001.11,269.124 M984.454,278.334 Q1001.95,273.807 1001.11,269.124 L998.593,262.76 Q989.406,267.272 980.05,272.091 959.928,282.552 958.791,284.682 957.52,286.82 958.257,289.886 958.652,291.404 960.293,295.062 961.4,297.563 962.339,303.377 963.204,309.304 962.556,310.591 962.348,311.055 958.989,312.388 958.957,312.421 958.884,312.449 L960.196,315.181 Q961.759,318.465 962.996,321.309 948.89,333.579 922.748,340.904 896.575,348.177 891.524,347.065 886.472,345.952 883.323,341.145 882.337,339.692 880.488,335.317 880.357,334.973 880.799,332.13 881.262,329.204 880.962,328.33 880.929,328.213 880.841,328.121 880.255,326.902 877.291,330.188 873.035,334.764 855.719,349.322 847.004,356.564 839.182,362.937 845.617,375.547 845.251,375.76 844.886,375.973 865.851,372.362 885.79,369.628 886.111,369.58 904.153,367.671 909.918,369.767 914.712,371.518 918.772,373.208 919.246,373.422 919.772,373.605 922.286,374.675 924.48,375.686 924.625,375.772 924.706,375.834 925.515,376.192 926.24,376.549 931.521,379.135 935.733,381.925 936.945,382.687 938.054,383.51 940.579,385.325 942.647,387.196 951.933,395.699 964.561,413.301 964.726,413.585 971.864,409.397 971.945,409.385 971.968,409.336 981.931,403.531 1005.094,389.276 1006.768,388.248 1008.426,387.195 1026.796,375.937 1045.12,364.498 1043.447,362.466 1041.597,358.93 1037.845,351.887 1036.772,344.403 1035.643,336.463 1037.796,323.954 1039.306,315.385 1041.669,307.438 1041.704,307.138 1041.821,306.86 1042.741,303.878 1044.588,298.888 L1048.474,289.355 1050.442,284.573 Q1034.612,277.441 1024.692,273.006 1024.685,272.992 1024.609,272.984 1011.41,267.072 1008.9,266.055 L1007.035,265.254 1006.561,265.04 1010.186,273.904 Q999.155,284.732 988.417,282.737 L984.454,278.334 M973.102,355.828 Q984.008,355.349 990.91,359.998 997.729,364.625 1002.149,373.655 1004.359,378.17 1005.356,381.923 L968.551,402.868 970.288,406.33 Q970.491,407.4 963.23,395.411 955.968,383.423 940.873,374.668 936.205,371.934 931.28,369.839 L927.785,368.519 934.234,367.349 Q943.82,364.843 953.023,360.601 962.145,356.338 973.102,355.828 M990.91,359.998 Q984.008,355.349 973.102,355.828 962.145,356.338 953.023,360.601 943.82,364.843 934.234,367.349 L927.785,368.519 931.28,369.839 Q936.205,371.934 940.873,374.668 955.968,383.423 963.23,395.411 970.491,407.4 970.288,406.33 L968.551,402.868 1005.356,381.923 Q1004.359,378.17 1002.149,373.655 997.729,364.625 990.91,359.998 M1019.204,237.056 Q993.631,233.354 984.829,235.405 978.001,237.004 977.133,239.956 976.937,240.7 976.888,242.895 976.891,245.061 976.416,246.526 979.169,250.654 982.673,252.109 985.229,253.137 994.119,255.439 995.344,255.782 1001.296,258.04 1001.373,258.045 1001.379,258.062 1009.729,261.153 1027.07,267.846 1052.521,277.7 1055.183,276.989 1059.684,275.836 1066.284,271.083 1073.845,265.701 1073.343,262.079 1072.833,258.322 1068.865,255.11 1065.923,252.699 1055.096,246.352 1045.76,240.884 1019.204,237.056Z" test="RedBike container" stroke-width="1.208"/>
        <path id="Layer3_0_1_STROKES" stroke="#0FF" stroke-width="1.208" stroke-linejoin="round" stroke-linecap="round" fill="none" d="M976.416,246.526 Q976.891,245.061 976.888,242.895 976.937,240.7 977.133,239.956 978.001,237.004 984.829,235.405 993.631,233.354 1019.204,237.056 1045.76,240.884 1055.096,246.352 1065.923,252.699 1068.865,255.11 1072.833,258.322 1073.343,262.079 1073.845,265.701 1066.284,271.083 1059.684,275.836 1055.183,276.989 1052.521,277.7 1027.07,267.846 1009.729,261.153 1001.42,258.073 1001.373,258.045 1001.323,258.025 995.344,255.782 994.119,255.439 985.229,253.137 982.673,252.109 979.169,250.654 976.416,246.526Z" test="RedBike container"/>
        <path id="Layer3_0_2_STROKES" stroke="#FFF" stroke-width="1.208" stroke-linejoin="round" stroke-linecap="round" fill="none" d="M1006.561,265.04 L1010.186,273.904 Q999.155,284.732 988.417,282.737 L984.454,278.334 Q1001.95,273.807 1001.11,269.124 L998.593,262.76 M1007.035,265.254 L1006.561,265.04 999.437,262.409 M998.593,262.76 L998.437,262.012 999.437,262.409 M1065.986,292.298 L1049.669,289.847 M1044.588,298.888 L1060.049,301.068" test="RedBike container"/>
        <path id="Layer3_0_3_STROKES" stroke="#FF0265" stroke-width="1.208" stroke-linejoin="round" stroke-linecap="round" fill="none" d="M998.593,262.76 Q989.406,267.272 980.05,272.091 959.928,282.552 958.791,284.682 957.52,286.82 958.257,289.886 958.652,291.404 960.293,295.062 961.4,297.563 962.339,303.377 963.204,309.304 962.556,310.591 962.348,311.055 959.03,312.399 958.957,312.421 958.884,312.449 L960.196,315.181 Q961.759,318.465 962.996,321.309 948.89,333.579 922.748,340.904 896.575,348.177 891.524,347.065 886.472,345.952 883.323,341.145 882.337,339.692 880.488,335.317 880.357,334.973 880.799,332.13 881.262,329.204 880.962,328.33 880.929,328.213 880.882,328.132 880.255,326.902 877.291,330.188 873.035,334.764 855.719,349.322 847.004,356.564 839.182,362.937 845.617,375.547 845.251,375.76 844.886,375.973 865.851,372.362 885.79,369.628 886.111,369.58 904.153,367.671 909.918,369.767 914.712,371.518 918.772,373.208 919.246,373.422 919.772,373.605 922.286,374.675 924.495,375.713 924.625,375.772 924.747,375.845 925.515,376.192 926.24,376.549 931.521,379.135 935.733,381.925 936.945,382.687 938.054,383.51 940.579,385.325 942.647,387.196 951.933,395.699 964.561,413.301 964.726,413.585 971.879,409.423 971.945,409.385 972.01,409.347 981.931,403.531 1005.094,389.276 1006.768,388.248 1008.442,387.221 1026.796,375.937 1045.12,364.498 1043.447,362.466 1041.597,358.93 1037.845,351.887 1036.772,344.403 1035.643,336.463 1037.796,323.954 1039.306,315.385 1041.669,307.438 1041.704,307.138 1041.821,306.86 1042.741,303.878 1044.588,298.888 L1048.474,289.355 1050.442,284.573 Q1034.612,277.441 1024.733,273.017 1024.685,272.992 1024.636,272.969 1011.41,267.072 1008.9,266.055 L1007.035,265.254 M998.593,262.76 Q998.989,262.6 999.437,262.409 999.645,262.287 999.906,262.135 L1006.561,265.04 M880.962,328.33 Q892.246,328.259 902.504,327.388 919.637,326.079 928.626,323.15 L958.737,311.836 M931.28,369.839 Q936.205,371.934 940.873,374.668 955.968,383.423 963.23,395.411 970.491,407.4 970.288,406.33 L968.551,402.868 1005.356,381.923 Q1004.359,378.17 1002.149,373.655 997.729,364.625 990.91,359.998 984.008,355.349 973.102,355.828 962.145,356.338 953.023,360.601 943.82,364.843 934.234,367.349 L927.811,368.503 931.28,369.839Z" test="RedBike container"/>
        <use xlink:href="#Bike-Wheel" transform="matrix(1.044 -.608 .608 1.044 1104.3 314.25)"/>
        <use xlink:href="#Bike-Wheel" transform="matrix(1.044 -.608 .608 1.044 908.7 433.5)"/>
      </g>
    </g>
  </g>
</svg>