<?xml version="1.0" encoding="utf-8"?>
<svg id="EdithAnim11" image-rendering="inherit" baseProfile="basic" version="1.1" x="0px" y="0px" width="800" height="600" xmlns="http://www.w3.org/2000/svg" xmlns:xlink="http://www.w3.org/1999/xlink">
  <defs>
    <g id="Bike-Wheel" overflow="visible">
      <path id="Layer5_0_1_STROKES" stroke="#FFF" stroke-width="1" stroke-linejoin="round" stroke-linecap="round" fill="none" d="M2.05 -34.85Q-12.35 -34.85 -22.65 -26.45 -34 -17.2 -34.7 -1.55 -35.4 14.3 -26.6 24.6 -18.4 34.2 -5.6 34.85 7.15 35.5 19.2 29.8 31.25 24.1 34.05 7.25 36.85 -9.65 28.9 -21.15 19.4 -34.85 2.05 -34.85Z" test="Bike Wheel"/>
      <path id="Layer4_0_1_STROKES" stroke="#FFF" stroke-width="1" stroke-linejoin="round" stroke-linecap="round" fill="none" d="M.55 -26.55Q4.65 -26.85 7.1 -26.15 9.75 -25.4 12 -23.15 13.95 -21.25 8 -15.35 5.3 -12.6 2.25 -10.2 1.95 -10 1.7 -9.8M24.45 -8.9Q26.2 -5.15 26.45 -2.65 26.7 .1 25.4 3.05 24.35 5.5 16.7 2.1 13.2 .6 9.85 -1.4 9.5 -1.6 9.25 -1.75M18.45 20Q15.75 23.1 13.55 24.35 11.2 25.75 8 25.75 5.3 25.75 5.25 17.4 5.2 13.55 5.65 9.7 5.7 9.35 5.75 9M-25.15 -7.15Q-24.25 -11.2 -22.85 -13.3 -21.4 -15.6 -18.6 -17.1 -16.2 -18.45 -12.25 -11.05 -10.4 -7.65 -9 -4.1 -8.9 -3.7 -8.75 -3.4M-12.85 23.8Q-16.75 22.4 -18.7 20.8 -20.85 19.05 -22.05 16.1 -23.1 13.6 -15.3 10.55 -11.75 9.05 -8 8.05 -7.65 8 -7.3 7.95" test="Bike Wheel"/>
    </g>
  </defs>
  <g id="19_Motorbikesf95r1" overflow="visible">
    <g id="Smokef0r1">
      <path fill="#000" stroke="none" d="M1752.064,317.2 L1752.064,303.712 1725.661,309.576 Q1720.651,286.12 1716.724,284.215 1677.729,264.863 1660.262,277.618 1629.12,254.015 1586.605,256.214 1540.163,190.097 1444.299,220.444 1395.555,155.646 1315.263,138.201 1293.735,131.604 1240.658,140.986 1065.707,-16.843 867.225,104.19 813.113,-118.39 493.927,-68.212 347.559,-325.202 -41.851,-354.668 L-41.851,775.031 Q74.106,962.844 282.297,811.535 563.929,824.928 594.664,631.07 839.603,700.424 996.125,547.948 1119.339,583.132 1184.331,437.558 1218.046,482.711 1295.766,449.873 1360.351,440.49 1398.534,395.337 1423.312,447.967 1484.378,399.149 L1557.223,360.886 Q1572.929,399.735 1621.673,367.923 L1673.261,346.373 1749.762,342.855 Q1749.762,338.017 1750.98,327.168 L1752.064,317.2Z" test="Smoke_23242324" stroke-width="2.82"/>
      <path id="Layer2_0_1_STROKES" stroke="#FFF" stroke-width="2.82" stroke-linejoin="round" stroke-linecap="round" fill="none" d="M1716.724,284.215 Q1677.729,264.863 1660.262,277.618 1629.12,254.015 1586.605,256.214 1540.163,190.097 1444.299,220.444 1395.555,155.646 1315.263,138.201 1293.735,131.604 1240.658,140.986 1065.707,-16.843 867.225,104.19 813.113,-118.39 493.927,-68.212 347.559,-325.202 -41.851,-354.668 L-41.851,775.031 Q74.106,962.844 282.297,811.535 563.929,824.928 594.664,631.07 839.603,700.424 996.125,547.948 1119.339,583.132 1184.331,437.558 1218.046,482.711 1295.766,449.873 1360.351,440.49 1398.534,395.337 1423.312,447.967 1484.378,399.149 L1557.223,360.886 Q1572.929,399.735 1621.673,367.923 L1673.261,346.373 1749.762,342.855 Q1749.762,338.017 1750.98,327.168 L1752.064,317.2 1752.064,303.712 1725.661,309.576 Q1720.651,286.12 1716.724,284.215Z" test="Smoke_23242324"/>
    </g>
    <g id="Smokef4r1">
      <path fill="#000" stroke="none" d="M311.335,223.009 Q283.814,134.241 127.254,154.097 54.412,51.605 -136.756,39.779 -136.756,321.048 -136.756,602.317 -79.9,677.726 21.946,617.939 159.472,623.852 174.963,547.202 294.69,575.38 371.487,515.228 431.722,529.536 463.693,471.866 480.255,489.97 518.324,477.049 549.883,473.472 568.67,455.587 580.866,476.684 610.777,457.412 628.575,449.893 646.456,442.374 654.202,457.923 678.015,445.294 684.36,443.25 690.705,441.133 707.679,450.842 732.564,436.972 752.752,436.753 764.865,431.132 776.071,426.533 780.109,417.116 815.294,423.832 839.766,408.502 857.812,411.86 868.689,397.26 874.374,401.713 885.416,398.355 894.727,397.333 900.825,392.807 905.11,397.99 913.844,393.099 919.282,391.128 924.721,389.157 927.605,392.953 934.526,389.741 938.399,388.646 942.272,387.551 947.958,387.332 953.561,387.113 953.561,384.704 954.302,379.302 954.632,376.82 954.962,374.338 954.962,370.98 954.962,367.622 953.066,367.987 951.089,368.352 950.182,366.016 949.358,365.943 943.838,364.191 940.954,365.578 936.092,363.461 929.912,363.826 922.084,357.621 908.323,360.979 901.072,355.431 890.69,353.825 889.783,353.533 888.877,353.241 885.993,351.562 879.236,351.562 858.471,330.465 835.894,337.473 832.268,338.203 828.642,339.371 815.541,314.697 771.539,318.785 746.49,294.257 701.829,292.578 686.502,283.161 665.573,283.964 642.583,257.611 595.533,269.656 571.39,243.814 531.92,236.806 521.208,234.178 495.17,237.828 408.979,174.829 311.335,223.009Z" test="Smoke_2323" stroke-width="1.554"/>
      <path id="Layer1_0_1_STROKES" stroke="#FFF" stroke-width="1.554" stroke-linejoin="round" stroke-linecap="round" fill="none" d="M953.561,387.113 Q947.958,387.332 942.272,387.551 938.399,388.646 934.526,389.741 927.605,392.953 924.721,389.157 919.282,391.128 913.844,393.099 905.11,397.99 900.825,392.807 894.727,397.333 885.416,398.355 874.374,401.713 868.689,397.26 857.812,411.86 839.766,408.502 815.294,423.832 780.109,417.116 776.071,426.533 764.865,431.132 752.752,436.753 732.564,436.972 707.679,450.842 690.705,441.133 684.36,443.25 678.015,445.294 654.202,457.923 646.456,442.374 628.575,449.893 610.777,457.412 580.866,476.684 568.67,455.587 549.883,473.472 518.324,477.049 480.255,489.97 463.693,471.866 431.722,529.536 371.487,515.228 294.69,575.38 174.963,547.202 159.472,623.852 21.946,617.939 -79.9,677.726 -136.756,602.317 -136.756,321.048 -136.756,39.779 54.412,51.605 127.254,154.097 283.814,134.241 311.335,223.009 408.979,174.829 495.17,237.828 521.208,234.178 531.92,236.806 571.39,243.814 595.533,269.656 642.583,257.611 665.573,283.964 686.502,283.161 701.829,292.578 746.49,294.257 771.539,318.785 815.541,314.697 828.642,339.371 832.268,338.203 835.894,337.473 858.471,330.465 879.236,351.562 885.993,351.562 888.877,353.241 889.783,353.533 890.69,353.825 901.072,355.431 908.323,360.979 922.084,357.621 929.912,363.826 936.092,363.461 940.954,365.578 943.838,364.191 949.358,365.943 950.182,366.016 951.089,368.352 953.066,367.987 954.962,367.622 954.962,370.98 954.962,374.338 954.632,376.82 954.302,379.302 953.561,384.704 953.561,387.113Z" test="Smoke_2323"/>
    </g>
    <g id="MotorBikePinkf0r1">
      <path fill="#000" stroke="none" d="M1024.854,341.311 Q1025.156,347.049 1028.961,350.552 1032.766,354.055 1059.04,360.941 1085.314,367.766 1103.676,364.263 1104.038,361.182 1104.34,357.558 L1104.582,354.538 Q1104.659,354.55 1104.703,354.538 L1104.763,353.934 1073.053,348.559 Q1063.812,346.566 1048.35,339.076 1039.048,334.667 1029.263,329.05 1029.082,329.956 1027.21,332.251 1025.398,334.486 1025.337,334.848 1024.733,339.559 1024.854,341.311 M1194.397,380.692 L1193.612,379.665 1185.458,385.946 1197.719,395.61 1199.591,398.51 Q1204.937,395.179 1208.53,392.892 L1207.262,391.02 1194.397,380.692 M1162.868,338.351 Q1161.237,342.821 1143.842,337.928 L1145.05,343.727 Q1153.325,350.854 1168.304,347.049 L1169.633,337.566 1164.801,331.707 Q1164.318,331.647 1163.895,331.586 L1162.868,338.351 M1143.842,337.928 Q1161.237,342.821 1162.868,338.351 L1163.895,331.586 Q1153.687,330.862 1143.178,330.318 1120.528,329.231 1118.474,330.499 1116.3,331.707 1115.394,334.727 1114.971,336.237 1114.548,340.224 1114.246,342.942 1112.132,348.438 1109.897,353.995 1108.689,354.78 1108.276,355.076 1104.703,354.538 1104.659,354.55 1104.582,354.538 L1104.34,357.558 Q1104.038,361.182 1103.676,364.263 1085.314,367.766 1059.04,360.941 1032.766,354.055 1028.961,350.552 1025.156,347.049 1024.854,341.311 1024.733,339.559 1025.337,334.848 1025.398,334.486 1027.21,332.251 1029.082,329.956 1029.263,329.05 1029.293,328.932 1029.263,328.808 1029.371,327.46 1025.156,328.808 1019.176,330.62 996.889,334.486 985.715,336.358 975.749,337.928 974.964,352.062 974.541,352.062 974.118,352.062 994.05,359.491 1012.653,367.162 1012.955,367.283 1029.505,374.712 1033.431,379.423 1036.692,383.349 1039.35,386.852 1039.652,387.275 1040.014,387.698 1041.648,389.888 1043.034,391.866 1043.117,392.013 1043.155,392.107 1043.675,392.824 1044.122,393.496 1047.383,398.389 1049.618,402.919 1050.282,404.187 1050.826,405.456 1052.094,408.294 1052.94,410.952 1056.685,422.972 1058.738,444.534 1058.738,444.863 1067.013,444.836 1067.089,444.867 1067.134,444.836 1078.663,444.834 1105.85,444.172 1107.813,444.126 1109.776,444.051 1131.314,443.567 1152.902,442.904 1152.479,440.306 1152.66,436.32 1152.962,428.347 1155.801,421.341 1158.821,413.912 1166.975,404.187 1172.592,397.543 1178.632,391.866 1178.814,391.624 1179.055,391.443 1181.35,389.329 1185.458,385.946 L1193.612,379.665 1197.719,376.524 Q1187.63,362.395 1181.29,353.572 1181.291,353.556 1181.23,353.512 1172.8,341.761 1171.143,339.62 L1169.935,337.989 1169.633,337.566 1168.304,347.049 Q1153.325,350.854 1145.05,343.727 L1143.842,337.928 M1095.039,399.174 Q1104.703,404.248 1108.327,411.737 1111.89,419.166 1111.166,429.193 1110.803,434.206 1109.776,437.951 L1067.436,437.528 1067.194,441.394 Q1066.832,442.42 1066.59,428.408 1066.349,414.395 1057.712,399.234 1055.054,394.523 1051.853,390.235 L1049.497,387.336 1055.658,389.57 Q1065.201,392.228 1075.288,393.194 1085.314,394.1 1095.039,399.174 M1108.327,411.737 Q1104.703,404.248 1095.039,399.174 1085.314,394.1 1075.288,393.194 1065.201,392.228 1055.658,389.57 L1049.497,387.336 1051.853,390.235 Q1055.054,394.523 1057.712,399.234 1066.349,414.395 1066.59,428.408 1066.832,442.42 1067.194,441.394 L1067.436,437.528 1109.776,437.951 Q1110.803,434.206 1111.166,429.193 1111.89,419.166 1108.327,411.737 M1194.638,319.748 Q1174.404,303.682 1165.767,301.024 1159.063,298.97 1156.828,301.084 1156.284,301.628 1155.137,303.5 1154.05,305.373 1152.902,306.4 1153.204,311.352 1155.499,314.372 1157.19,316.547 1163.714,323.01 1164.599,323.922 1168.606,328.868 1168.67,328.911 1168.666,328.929 1174.326,335.801 1185.941,350.31 1202.974,371.632 1205.631,372.356 1210.101,373.625 1218.194,372.84 1227.436,371.994 1228.825,368.612 1230.274,365.108 1228.462,360.337 1227.134,356.773 1220.973,345.841 1215.658,336.418 1194.638,319.748Z" test="RedBike container" stroke-width="1.208"/>
      <path id="Layer3_0_1_STROKES" stroke="#0FF" stroke-width="1.208" stroke-linejoin="round" stroke-linecap="round" fill="none" d="M1152.902,306.4 Q1154.05,305.373 1155.137,303.5 1156.284,301.628 1156.828,301.084 1159.063,298.97 1165.767,301.024 1174.404,303.682 1194.638,319.748 1215.658,336.418 1220.973,345.841 1227.134,356.773 1228.462,360.337 1230.274,365.108 1228.825,368.612 1227.436,371.994 1218.194,372.84 1210.101,373.625 1205.631,372.356 1202.974,371.632 1185.941,350.31 1174.326,335.801 1168.697,328.959 1168.67,328.911 1168.636,328.868 1164.599,323.922 1163.714,323.01 1157.19,316.547 1155.499,314.372 1153.204,311.352 1152.902,306.4Z" test="RedBike container"/>
      <path id="Layer3_0_2_STROKES" stroke="#FFF" stroke-width="1.208" stroke-linejoin="round" stroke-linecap="round" fill="none" d="M1169.633,337.566 L1168.304,347.049 Q1153.325,350.854 1145.05,343.727 L1143.842,337.928 Q1161.237,342.821 1162.868,338.351 L1163.895,331.586 M1169.935,337.989 L1169.633,337.566 1164.801,331.707 M1163.895,331.586 L1164.136,330.862 1164.801,331.707 M1207.262,391.02 L1194.397,380.692 M1185.458,385.946 L1197.719,395.61" test="RedBike container"/>
      <path id="Layer3_0_3_STROKES" stroke="#FF0265" stroke-width="1.208" stroke-linejoin="round" stroke-linecap="round" fill="none" d="M1163.895,331.586 Q1153.687,330.862 1143.178,330.318 1120.528,329.231 1118.474,330.499 1116.3,331.707 1115.394,334.727 1114.971,336.237 1114.548,340.224 1114.246,342.942 1112.132,348.438 1109.897,353.995 1108.689,354.78 1108.276,355.076 1104.733,354.569 1104.659,354.55 1104.582,354.538 L1104.34,357.558 Q1104.038,361.182 1103.676,364.263 1085.314,367.766 1059.04,360.941 1032.766,354.055 1028.961,350.552 1025.156,347.049 1024.854,341.311 1024.733,339.559 1025.337,334.848 1025.398,334.486 1027.21,332.251 1029.082,329.956 1029.263,329.05 1029.293,328.932 1029.293,328.838 1029.371,327.46 1025.156,328.808 1019.176,330.62 996.889,334.486 985.715,336.358 975.749,337.928 974.964,352.062 974.541,352.062 974.118,352.062 994.05,359.491 1012.653,367.162 1012.955,367.283 1029.505,374.712 1033.431,379.423 1036.692,383.349 1039.35,386.852 1039.652,387.275 1040.014,387.698 1041.648,389.888 1043.034,391.896 1043.117,392.013 1043.185,392.137 1043.675,392.824 1044.122,393.496 1047.383,398.389 1049.618,402.919 1050.282,404.187 1050.826,405.456 1052.094,408.294 1052.94,410.952 1056.685,422.972 1058.738,444.534 1058.738,444.863 1067.013,444.867 1067.089,444.867 1067.164,444.867 1078.663,444.834 1105.85,444.172 1107.813,444.126 1109.776,444.081 1131.314,443.567 1152.902,442.904 1152.479,440.306 1152.66,436.32 1152.962,428.347 1155.801,421.341 1158.821,413.912 1166.975,404.187 1172.592,397.543 1178.632,391.866 1178.814,391.624 1179.055,391.443 1181.35,389.329 1185.458,385.946 L1193.612,379.665 1197.719,376.524 Q1187.63,362.395 1181.32,353.602 1181.291,353.556 1181.26,353.512 1172.8,341.761 1171.143,339.62 L1169.935,337.989 M1163.895,331.586 Q1164.318,331.647 1164.801,331.707 1165.042,331.707 1165.344,331.707 L1169.633,337.566 M1029.263,329.05 Q1039.048,334.667 1048.35,339.076 1063.812,346.566 1073.053,348.559 L1104.763,353.934 M1051.853,390.235 Q1055.054,394.523 1057.712,399.234 1066.349,414.395 1066.59,428.408 1066.832,442.42 1067.194,441.394 L1067.436,437.528 1109.776,437.951 Q1110.803,434.206 1111.166,429.193 1111.89,419.166 1108.327,411.737 1104.703,404.248 1095.039,399.174 1085.314,394.1 1075.288,393.194 1065.201,392.228 1055.658,389.57 L1049.527,387.336 1051.853,390.235Z" test="RedBike container"/>
      <use xlink:href="#Bike-Wheel" transform="matrix(1.208 0 0 1.208 1229.3 429.3)"/>
      <use xlink:href="#Bike-Wheel" transform="matrix(1.208 0 0 1.208 1000.3 433.9)"/>
    </g>
  </g>
</svg>