<?xml version="1.0" encoding="utf-8"?>
<svg id="EdithAnim11" image-rendering="inherit" baseProfile="basic" version="1.1" x="0px" y="0px" width="800" height="600" xmlns="http://www.w3.org/2000/svg" xmlns:xlink="http://www.w3.org/1999/xlink">
  <g id="19_Motorbikesf96r1" overflow="visible">
    <g id="Smokef5r1">
      <path fill="#000" stroke="none" d="M304.449,196.48 Q277.156,106.705 123.381,126.786 51.574,23.072 -136.297,11.024 -136.297,314.448 -136.297,617.871 -80.418,694.338 19.458,634.094 154.377,640.236 169.617,562.825 287.143,591.569 362.481,530.931 421.632,545.5 453.058,487.225 469.331,505.653 506.612,492.58 537.694,489.036 556.12,471.003 568.088,492.422 597.448,472.893 614.926,465.411 632.49,457.773 640.067,473.523 663.486,460.844 669.686,458.796 675.885,456.591 696.893,470.136 728.148,451.866 753.633,451.866 768.615,444.621 782.649,438.479 787.126,425.721 831.381,434.856 861.516,414.224 884.075,418.791 897.42,399.183 904.308,405.167 918.17,400.679 929.88,399.34 937.371,393.276 942.537,400.285 953.557,393.67 960.359,390.992 967.075,388.394 970.519,393.513 979.301,389.181 984.123,387.764 988.858,386.346 995.919,386.031 1002.979,385.716 1002.979,383.117 1003.754,377.29 1004.098,374.612 1004.442,371.935 1004.442,368.313 1004.442,364.69 1002.032,365.162 999.621,365.635 998.502,362.485 997.554,362.328 990.666,359.886 987.05,361.776 981.109,358.784 973.274,359.256 963.889,350.751 946.583,355.161 937.715,347.601 924.714,345.318 923.508,344.924 922.389,344.609 918.687,342.64 909.991,342.955 883.472,317.046 854.542,326.654 850.065,327.756 845.502,329.489 830.607,297.044 774.728,302.792 745.023,270.347 688.455,266.961 673.388,257.433 652.81,258.299 630.166,231.603 583.93,243.809 560.166,217.585 521.335,210.497 510.831,207.82 485.259,211.6 400.451,147.812 304.449,196.48Z" test="Smoke_2323" stroke-width="1.648"/>
      <path id="Layer1_0_1_STROKES" stroke="#FFF" stroke-width="1.648" stroke-linejoin="round" stroke-linecap="round" fill="none" d="M1002.979,385.716 Q995.919,386.031 988.858,386.346 984.123,387.764 979.301,389.181 970.519,393.513 967.075,388.394 960.359,390.992 953.557,393.67 942.537,400.285 937.371,393.276 929.88,399.34 918.17,400.679 904.308,405.167 897.42,399.183 884.075,418.791 861.516,414.224 831.381,434.856 787.126,425.721 782.649,438.479 768.615,444.621 753.633,451.866 728.148,451.866 696.893,470.136 675.885,456.591 669.686,458.796 663.486,460.844 640.067,473.523 632.49,457.773 614.926,465.411 597.448,472.893 568.088,492.422 556.12,471.003 537.694,489.036 506.612,492.58 469.331,505.653 453.058,487.225 421.632,545.5 362.481,530.931 287.143,591.569 169.617,562.825 154.377,640.236 19.458,634.094 -80.418,694.338 -136.297,617.871 -136.297,314.448 -136.297,11.024 51.574,23.072 123.381,126.786 277.156,106.705 304.449,196.48 400.451,147.812 485.259,211.6 510.831,207.82 521.335,210.497 560.166,217.585 583.93,243.809 630.166,231.603 652.81,258.299 673.388,257.433 688.455,266.961 745.023,270.347 774.728,302.792 830.607,297.044 845.502,329.489 850.065,327.756 854.542,326.654 883.472,317.046 909.991,342.955 918.687,342.64 922.389,344.609 923.508,344.924 924.714,345.318 937.715,347.601 946.583,355.161 963.889,350.751 973.274,359.256 981.109,358.784 987.05,361.776 990.666,359.886 997.554,362.328 998.502,362.485 999.621,365.635 1002.032,365.162 1004.442,364.69 1004.442,368.313 1004.442,371.935 1004.098,374.612 1003.754,377.29 1002.979,383.117 1002.979,385.716Z" test="Smoke_2323"/>
    </g>
  </g>
</svg>