<?xml version="1.0" encoding="utf-8"?>
<svg id="EdithAnim11" image-rendering="inherit" baseProfile="basic" version="1.1" x="0px" y="0px" width="800" height="600" xmlns="http://www.w3.org/2000/svg" xmlns:xlink="http://www.w3.org/1999/xlink">
  <g id="19_Motorbikesf97r1" overflow="visible">
    <g id="Smokef6r1">
      <path fill="#000" stroke="none" d="M294.89,168.219 Q267.845,78.226 117.706,98.337 47.173,-5.598 -136.39,-17.681 -136.39,307.897 -136.39,633.476 -81.851,710.202 15.636,650.122 147.176,656.46 162.271,579.227 276.92,608.21 350.507,547.708 408.191,562.411 438.919,504.191 454.823,522.696 491.212,509.683 521.491,506.134 539.461,488.136 551.232,509.599 579.804,490.164 596.965,482.643 614.037,475.038 621.495,490.924 644.316,478.249 650.426,476.137 656.446,474.024 681.784,491.769 719.88,468.616 751.148,468.954 769.208,459.828 786.1,451.885 791.131,435.492 845.041,447.322 881.431,420.789 908.835,426.789 924.648,401.439 932.915,409.213 949.806,403.467 964.003,401.777 972.988,393.918 979.187,402.96 992.665,394.425 1000.841,391.13 1009.018,387.75 1013.061,394.425 1023.753,388.848 1029.593,386.989 1035.344,385.13 1043.969,384.708 1052.505,384.37 1052.505,381.581 1053.314,375.328 1053.673,372.455 1054.032,369.582 1054.032,365.695 1054.032,361.808 1051.067,362.4 1048.102,362.907 1046.844,358.935 1045.766,358.682 1037.32,355.471 1033.007,357.921 1025.82,353.95 1016.385,354.541 1005.154,343.472 984.039,349.049 973.437,339.247 957.713,336.205 956.186,335.698 954.748,335.275 950.166,333.078 939.384,333.754 906.768,302.489 871.008,315.08 865.617,316.601 860.046,318.882 843.154,277.815 774.599,285.505 739.917,244.184 670.553,239.03 655.727,229.397 635.601,230.326 613.408,203.54 568.213,215.708 544.942,189.513 507.026,182.33 496.693,179.626 471.715,183.429 388.783,119.547 294.89,168.219Z" test="Smoke_2323" stroke-width="1.743"/>
      <path id="Layer1_0_1_STROKES" stroke="#FFF" stroke-width="1.743" stroke-linejoin="round" stroke-linecap="round" fill="none" d="M1052.505,384.37 Q1043.969,384.708 1035.344,385.13 1029.593,386.989 1023.753,388.848 1013.061,394.425 1009.018,387.75 1000.841,391.13 992.665,394.425 979.187,402.96 972.988,393.918 964.003,401.777 949.806,403.467 932.915,409.213 924.648,401.439 908.835,426.789 881.431,420.789 845.041,447.322 791.131,435.492 786.1,451.885 769.208,459.828 751.148,468.954 719.88,468.616 681.784,491.769 656.446,474.024 650.426,476.137 644.316,478.249 621.495,490.924 614.037,475.038 596.965,482.643 579.804,490.164 551.232,509.599 539.461,488.136 521.491,506.134 491.212,509.683 454.823,522.696 438.919,504.191 408.191,562.411 350.507,547.708 276.92,608.21 162.271,579.227 147.176,656.46 15.636,650.122 -81.851,710.202 -136.39,633.476 -136.39,307.897 -136.39,-17.681 47.173,-5.598 117.706,98.337 267.845,78.226 294.89,168.219 388.783,119.547 471.715,183.429 496.693,179.626 507.026,182.33 544.942,189.513 568.213,215.708 613.408,203.54 635.601,230.326 655.727,229.397 670.553,239.03 739.917,244.184 774.599,285.505 843.154,277.815 860.046,318.882 865.617,316.601 871.008,315.08 906.768,302.489 939.384,333.754 950.166,333.078 954.748,335.275 956.186,335.698 957.713,336.205 973.437,339.247 984.039,349.049 1005.154,343.472 1016.385,354.541 1025.82,353.95 1033.007,357.921 1037.32,355.471 1045.766,358.682 1046.844,358.935 1048.102,362.907 1051.067,362.4 1054.032,361.808 1054.032,365.695 1054.032,369.582 1053.673,372.455 1053.314,375.328 1052.505,381.581 1052.505,384.37Z" test="Smoke_2323"/>
    </g>
  </g>
</svg>