<?xml version="1.0" encoding="utf-8"?>
<svg id="EdithAnim11" image-rendering="inherit" baseProfile="basic" version="1.1" x="0px" y="0px" width="800" height="600" xmlns="http://www.w3.org/2000/svg" xmlns:xlink="http://www.w3.org/1999/xlink">
  <g id="19_Motorbikesf98r1" overflow="visible">
    <g id="Smokef7r1">
      <path fill="#000" stroke="none" d="M454.637,153.287 Q374.048,89.841 282.788,138.124 256.112,48.777 110.47,68.722 41.58,-34.433 -136.634,-46.437 -136.634,301.297 -136.634,649.03 -83.75,725.381 10.786,665.997 138.176,672.585 152.964,596.233 264.068,625.204 335.484,565.458 391.457,580.169 421.316,522.59 436.76,540.91 471.953,528.095 501.344,524.665 518.847,506.886 530.266,528.275 557.972,509.052 574.632,501.651 591.2,494.161 598.407,509.864 620.496,497.319 626.487,495.334 632.29,493.168 662.242,515.64 707.732,487.121 744.984,487.753 766.325,476.562 786.356,466.725 792.065,446.328 856.275,461.129 899.144,428.098 931.81,435.588 950.249,404.091 959.89,413.748 980.108,406.618 997.049,404.542 1007.626,394.795 1014.833,406.077 1030.839,395.427 1040.573,391.276 1050.308,387.124 1054.988,395.427 1067.717,388.478 1074.644,386.222 1081.57,383.875 1091.772,383.424 1101.881,382.973 1101.881,379.994 1102.724,373.316 1103.098,370.248 1103.472,367.179 1103.472,363.028 1103.472,358.876 1100.009,359.598 1096.452,360.23 1094.955,355.266 1093.738,354.905 1083.629,350.934 1078.668,353.822 1070.151,348.948 1058.919,349.58 1045.721,335.682 1020.543,342.541 1008.094,330.267 989.468,326.386 987.689,325.754 985.817,325.303 980.388,322.866 967.284,323.949 928.16,286.766 885.104,302.65 878.739,304.636 872.187,307.524 853.092,256.984 771.099,266.911 731.038,215.83 647.921,208.52 633.507,199.043 614.038,199.855 592.323,173.322 548.518,185.325 525.867,159.333 488.988,152.294 478.88,149.586 454.637,153.287Z" test="Smoke_2323" stroke-width="1.838"/>
      <path id="Layer1_0_1_STROKES" stroke="#FFF" stroke-width="1.838" stroke-linejoin="round" stroke-linecap="round" fill="none" d="M1101.881,382.973 Q1091.772,383.424 1081.57,383.875 1074.644,386.222 1067.717,388.478 1054.988,395.427 1050.308,387.124 1040.573,391.276 1030.839,395.427 1014.833,406.077 1007.626,394.795 997.049,404.542 980.108,406.618 959.89,413.748 950.249,404.091 931.81,435.588 899.144,428.098 856.275,461.129 792.065,446.328 786.356,466.725 766.325,476.562 744.984,487.753 707.732,487.121 662.242,515.64 632.29,493.168 626.487,495.334 620.496,497.319 598.407,509.864 591.2,494.161 574.632,501.651 557.972,509.052 530.266,528.275 518.847,506.886 501.344,524.665 471.953,528.095 436.76,540.91 421.316,522.59 391.457,580.169 335.484,565.458 264.068,625.204 152.964,596.233 138.176,672.585 10.786,665.997 -83.75,725.381 -136.634,649.03 -136.634,301.297 -136.634,-46.437 41.58,-34.433 110.47,68.722 256.112,48.777 282.788,138.124 374.048,89.841 454.637,153.287 478.88,149.586 488.988,152.294 525.867,159.333 548.518,185.325 592.323,173.322 614.038,199.855 633.507,199.043 647.921,208.52 731.038,215.83 771.099,266.911 853.092,256.984 872.187,307.524 878.739,304.636 885.104,302.65 928.16,286.766 967.284,323.949 980.388,322.866 985.817,325.303 987.689,325.754 989.468,326.386 1008.094,330.267 1020.543,342.541 1045.721,335.682 1058.919,349.58 1070.151,348.948 1078.668,353.822 1083.629,350.934 1093.738,354.905 1094.955,355.266 1096.452,360.23 1100.009,359.598 1103.472,358.876 1103.472,363.028 1103.472,367.179 1103.098,370.248 1102.724,373.316 1101.881,379.994 1101.881,382.973Z" test="Smoke_2323"/>
    </g>
  </g>
</svg>