<?xml version="1.0" encoding="utf-8"?>
<svg id="EdithAnim11" image-rendering="inherit" baseProfile="basic" version="1.1" x="0px" y="0px" width="800" height="600" xmlns="http://www.w3.org/2000/svg" xmlns:xlink="http://www.w3.org/1999/xlink">
  <g id="19_Motorbikesf99r1" overflow="visible">
    <g id="Smokef8r1">
      <path fill="#000" stroke="none" d="M467.767,120.314 Q458.037,117.626 434.685,121.274 356.845,58.97 268.788,106.298 242.712,18.554 102.308,38.042 35.56,-63.334 -136.175,-75.142 -136.175,294.746 -136.175,664.634 -85.189,739.898 5.689,681.818 128.19,688.634 142.59,613.85 249.425,642.65 318.217,584.282 372.023,598.874 400.727,542.426 415.711,560.57 449.572,548.09 477.789,544.73 494.719,527.354 505.714,548.378 532.374,529.562 548.331,522.362 564.386,515.066 571.391,530.618 592.603,518.33 598.246,516.314 603.889,514.298 638.625,541.85 691.946,507.482 735.731,508.442 760.542,495.098 783.894,483.194 790.122,458.426 865.334,476.378 915.152,436.25 953.196,445.37 974.602,407.162 985.695,418.874 1009.338,410.234 1029.188,407.738 1041.447,395.834 1049.718,409.562 1068.497,396.698 1079.784,391.706 1091.168,386.618 1096.519,396.698 1111.406,388.346 1119.482,385.466 1127.558,382.682 1139.429,382.106 1151.299,381.626 1151.299,378.458 1152.175,371.354 1152.564,368.09 1152.953,364.826 1152.953,360.41 1152.953,355.994 1148.867,356.858 1144.78,357.626 1143.029,351.578 1141.666,351.098 1129.796,346.202 1124.055,349.754 1114.131,343.706 1100.995,344.474 1085.816,327.482 1056.334,335.834 1042.031,320.762 1020.236,315.866 1018.095,315.29 1015.955,314.714 1009.533,311.93 994.062,313.466 948.039,269.978 897.152,289.466 889.659,291.866 882.07,295.514 860.761,234.746 764.434,246.938 718.801,185.21 621.209,175.706 607.295,166.298 588.419,167.162 567.499,141.05 525.271,152.858 503.281,127.322 467.767,120.314Z" test="Smoke_2323" stroke-width="1.933"/>
      <path id="Layer1_0_1_STROKES" stroke="#FFF" stroke-width="1.933" stroke-linejoin="round" stroke-linecap="round" fill="none" d="M1151.299,381.626 Q1139.429,382.106 1127.558,382.682 1119.482,385.466 1111.406,388.346 1096.519,396.698 1091.168,386.618 1079.784,391.706 1068.497,396.698 1049.718,409.562 1041.447,395.834 1029.188,407.738 1009.338,410.234 985.695,418.874 974.602,407.162 953.196,445.37 915.152,436.25 865.334,476.378 790.122,458.426 783.894,483.194 760.542,495.098 735.731,508.442 691.946,507.482 638.625,541.85 603.889,514.298 598.246,516.314 592.603,518.33 571.391,530.618 564.386,515.066 548.331,522.362 532.374,529.562 505.714,548.378 494.719,527.354 477.789,544.73 449.572,548.09 415.711,560.57 400.727,542.426 372.023,598.874 318.217,584.282 249.425,642.65 142.59,613.85 128.19,688.634 5.689,681.818 -85.189,739.898 -136.175,664.634 -136.175,294.746 -136.175,-75.142 35.56,-63.334 102.308,38.042 242.712,18.554 268.788,106.298 356.845,58.97 434.685,121.274 458.037,117.626 467.767,120.314 503.281,127.322 525.271,152.858 567.499,141.05 588.419,167.162 607.295,166.298 621.209,175.706 718.801,185.21 764.434,246.938 860.761,234.746 882.07,295.514 889.659,291.866 897.152,289.466 948.039,269.978 994.062,313.466 1009.533,311.93 1015.955,314.714 1018.095,315.29 1020.236,315.866 1042.031,320.762 1056.334,335.834 1085.816,327.482 1100.995,344.474 1114.131,343.706 1124.055,349.754 1129.796,346.202 1141.666,351.098 1143.029,351.578 1144.78,357.626 1148.867,356.858 1152.953,355.994 1152.953,360.41 1152.953,364.826 1152.564,368.09 1152.175,371.354 1151.299,378.458 1151.299,381.626Z" test="Smoke_2323"/>
    </g>
  </g>
</svg>