<?xml version="1.0" encoding="utf-8"?>
<!-- Generator: Adobe Illustrator 15.1.0, SVG Export Plug-In . SVG Version: 6.00 Build 0)  -->
<!DOCTYPE svg PUBLIC "-//W3C//DTD SVG 1.1//EN" "http://www.w3.org/Graphics/SVG/1.1/DTD/svg11.dtd">
<svg version="1.1" id="Layer_1" xmlns="http://www.w3.org/2000/svg" xmlns:xlink="http://www.w3.org/1999/xlink" x="0px" y="0px"
	 width="841.891px" height="595.279px" viewBox="0 0 841.891 595.279" enable-background="new 0 0 841.891 595.279"
	 xml:space="preserve">
<g>
	<path fill="none" stroke="#FFFFFF" stroke-miterlimit="10" d="M450.569,258.81l-5.396,0.084v5.229l5.223-0.075
		c0,0,0.529,0.008,0.695-0.253c0.234-0.362,0.209-1.062,0.209-1.062l0.029-2.982c0.001-0.001,0.067-0.471-0.199-0.749
		C450.939,258.808,450.569,258.81,450.569,258.81z"/>
	<path fill="none" stroke="#FFFFFF" stroke-miterlimit="10" d="M367.609,237.324v88.679l18.036,18.035h88.262V237.324H367.609z
		 M402.286,328.79h-8.384v-9.198h8.384V328.79z M405.635,286.606c0.019,0.643-0.215,1.746-1.614,3.539
		c-2.013,2.574-6.638,2.99-6.638,2.99l-17.214,2.459l0.007-11.879l11.846-0.874c0,0,1.882-0.552,1.882-3.802
		c0-2.687-1.729-3.278-1.729-3.278l-5.787-0.33c0,0-1.849,0.078-4.057-1.515c-2.39-1.721-2.154-3.385-2.154-3.385v-13.767
		c0,0-0.013-2.242,1.998-4.461c1.953-2.154,4.617-2.154,4.617-2.154h18.69v9.539h-9.923c0,0-2.655,0.101-2.655,3.289
		c0,3.562,1.579,3.557,1.579,3.557l5.385,0.191c0,0,3.577-0.076,4.818,2.08c0.927,1.611,0.949,4.342,0.949,4.342
		S405.615,285.968,405.635,286.606z M430.403,328.792h-8.582h-10.043v-8.379v-22.222l10.041-1.461l-0.002,22.356
		c0,0-0.053,0.679,0.209,0.89c0.229,0.185,0.916,0.185,0.916,0.185l7.461,0.008V328.792z M426.774,265.315v7.834h-5.389v6.266
		l10.018-0.755l-0.025,9.656l-19.982,2.814v-13.912v-0.732v-5.127v-8.371v-4.602v-1.675v-6.561h19.982l0.024,9.49h-10.015v5.676
		H426.774z M462.121,323.835c-0.076,1.203-0.717,2.267-1.391,3.009c-1.18,1.299-2.467,1.733-4.82,1.926
		c-0.697,0.052-19.523,0-19.523,0l-0.025-8.543l14.195,0.024c0,0,1.027-0.43,1.027-2.772c0-2.03-1.021-2.217-1.021-2.217
		s-8.162-0.035-9.058-0.043c-1.207-0.062-2.522-0.804-3.543-1.69c-1.15-1.003-1.74-2.154-1.845-3.419
		c-0.006-0.463-0.162-15.434-0.161-15.435l10.658-1.551l-0.062,12.311c0,0,0.018,0.661,0.287,0.977
		c0.405,0.471,1.061,0.396,1.061,0.396h2.918c0,0,0.365,0.039,0.68-0.434c0.213-0.318,0.156-0.939,0.156-0.939l-0.143-13.021
		l10.617-1.543C462.131,290.87,462.145,322.265,462.121,323.835z M462.475,281.213c-0.098,1.194-0.895,1.909-2.316,2.687
		c-1.787,0.973-4.008,1.262-4.979,1.367l-19.221,2.571v-37.688c0,0,17.78,0,19.459,0c2.104-0.004,3.258,0.793,3.94,1.33
		c1.364,1.07,0.993,2.533,1.06,3.404c0.004,1.043,0.01,9.319,0.01,9.319c-0.002,0.733-0.289,1.334-0.896,1.961
		c-0.66,0.683-1.693,1.396-1.693,1.396s2.361,0.438,3.229,1.063c0.779,0.568,1.219,1.188,1.41,2.164
		C462.536,271.099,462.473,280.431,462.475,281.213z"/>
	<path fill="none" stroke="#FFFFFF" stroke-miterlimit="10" d="M450.569,271.426h-5.396v6.067l5.223-0.412
		c0,0,0.529,0.009,0.695-0.25c0.234-0.364,0.209-1.899,0.209-1.899l0.029-2.566c0.001-0.001,0.067-0.47-0.199-0.747
		C450.939,271.424,450.569,271.426,450.569,271.426z"/>
</g>
</svg>
