<?xml version="1.0" encoding="iso-8859-1"?>
<!-- Generator: Adobe Illustrator 15.1.0, SVG Export Plug-In . SVG Version: 6.00 Build 0)  -->
<!DOCTYPE svg PUBLIC "-//W3C//DTD SVG 1.1//EN" "http://www.w3.org/Graphics/SVG/1.1/DTD/svg11.dtd">
<svg version="1.1" xmlns="http://www.w3.org/2000/svg" xmlns:xlink="http://www.w3.org/1999/xlink" x="0px" y="0px"
	 width="841.891px" height="595.279px" viewBox="0 0 841.891 595.279" style="enable-background:new 0 0 841.891 595.279;"
	 xml:space="preserve">
<g id="DogSmelled">
	<path style="fill:none;stroke:#51FF00;stroke-width:0.5;stroke-linecap:round;stroke-linejoin:bevel;" d="M391.744,316.776
		c4.024,0.444,8.075,0.07,12.106-0.05c4.138-0.124,8.292,0.019,12.432,0.058c4.136,0.04,8.274,0.13,12.41,0.021
		c4.053-0.107,8.174,0.158,12.212-0.139"/>
	<path style="fill:none;stroke:#FFFFFF;stroke-width:0.5;stroke-linecap:round;stroke-linejoin:bevel;" d="M424.763,301.507
		c-2.367-3.522-4.125-8.319-2.532-11.83"/>
	<path style="fill:none;stroke:#FF3000;stroke-width:0.5;stroke-linecap:round;stroke-linejoin:bevel;" d="M402.945,305.608
		c0.581,1.261,1.623,2.21,1.994,3.611c0.317,1.194,0.229,2.496,0.371,3.722c0.105,0.907,0.444,1.776,1.471,1.879
		c1.406,0.139,2.758,0.578,4.166,0.704c1.089,0.097,1.791,0.385,1.625-1.092c-0.138-1.236-0.702-1.751-1.72-2.348
		c-1.054-0.618-2.21-1.187-2.966-2.198c-0.528-0.706-0.117-0.973,0.396-1.402c0.621-0.52,0.548-1.093,0.788-1.782"/>
	<path style="fill:none;stroke:#FF3000;stroke-width:0.5;stroke-linecap:round;stroke-linejoin:bevel;" d="M406.82,304.083
		c2.506,1.875,3.932,5.338,7.458,5.338c-0.164,0.64-0.15,1.117-0.195,1.774c-0.048,0.691-0.557,2.771,0.139,3.228
		c0.586,0.386,1.384,0.13,2.031,0.257c1.2,0.235,2.528,1.267,3.785,0.929"/>
	<path style="fill:none;stroke:#FF7F00;stroke-width:0.5;stroke-linecap:round;stroke-linejoin:bevel;" d="M408.258,300.671
		c-0.912,1.159-1.692,2.292-2.918,3.162c-1.317,0.936-2.937,1.352-4.315,2.194c-0.678,0.415-2.54,1.716-3.354,1.46
		c-0.097,1.635,0.183,3.503-0.337,5.077c-0.312,0.947-1.056,2.3-1.905,2.865c-0.496,0.33-2.58,1.004-2.909,0.073
		c-0.165-0.465-0.017-1.235-0.062-1.726c-0.074-0.782-0.128-1.573,0.021-2.352c0.112-0.59,0.456-0.387,0.887-0.69
		c0.465-0.329,0.275-1.096,0.325-1.566c0.18-1.707,0.098-3.456,0.255-5.186c0.064-0.706,0.136-1.214,0.875-1.503
		c1.14-0.447,1.686-0.539,2.4-1.588c1.464-2.149-0.704-4.486-0.449-6.868c0.283-2.654,2.385-5.169,4.241-6.947
		c0.034,0.049,0.068,0.097,0.102,0.146c0-3.351,0.094-6.727,0.243-10.074c0.051-1.141-0.282-2.852,0.22-3.896
		c0.326-0.678,1.366-1.028,1.679-0.134c0.341,0.976,0.144,2.314,0.1,3.324c-0.065,1.487-0.187,2.972-0.229,4.46
		c-0.047,1.671-0.911,5.005,0.676,6.185c0.938,0.697,2.342,0.488,3.391,1.037c1.13,0.591,2.339,1.532,3.274,2.399
		c1.983,1.837,4.001,3.477,6.831,2.602c3.643-1.126,6.771-4.239,6.068-8.318"/>
	<path style="fill:none;stroke:#FF3000;stroke-width:0.5;stroke-linecap:round;stroke-linejoin:bevel;" d="M426.529,278.807
		c-0.86-2.126-2.134-4.559-0.549-6.683c1.16-1.552,3.991-2.72,5.652-1.255c1.627,1.434,1.297,3.672-1.055,3.777
		c-0.823,0.037-1.856-0.203-2.587,0.294c-1.135,0.772-0.361,1.931,0.288,2.699"/>
	<path style="fill:none;stroke:#FF3000;stroke-width:0.5;stroke-linecap:round;stroke-linejoin:bevel;" d="M424.612,284.64
		c-0.635,0.637-3.149-0.805-3.698-1.284c-1.375-1.202-1.943-2.866-2.478-4.538c-0.639-1.997-0.749-3.604,0.065-5.601
		c0.692-1.7,1.712-3.357,3.507-4.04c2.009-0.764,3.027,1.099,2.515,2.875c-0.517,1.792-2.413,2.563-2.83,4.395
		c-0.488,2.142,0.276,3.353,2.176,4.26c0.815,0.389,1.698,0.836,1.813,1.838c0.108,0.944-0.532,1.852-1.403,2.179"/>
	<path style="fill:none;stroke:#FF7F00;stroke-width:0.5;stroke-linecap:round;stroke-linejoin:bevel;" d="M413.883,307.171
		c0.226,1.014,1.149,1.663,1.651,2.525c0.614,1.055,1.229,2.052,2.085,2.931c0.809,0.831,1.66,1.646,2.646,2.268
		c0.999,0.628,2.098,0.48,3.068,0.969c0.504,0.254,0.71,0.604,1.324,0.629c0.589,0.022,1.182,0.005,1.771,0.022
		c1.157,0.035,2.296-0.077,3.448-0.082c0.4-0.002,1.703,0.102,1.673-0.572c-0.042-0.918-0.585-1.918-1.142-2.626
		c-1.402-1.785-3.629-1.688-5.684-1.688c-1.895,0-2.212-2.048-2.606-3.484c-0.562-2.054-1.062-3.938,0.896-5.387
		c1.461-1.079,3.376-2.76,5.273-2.76"/>
	<path style="fill:none;stroke:#FF7F00;stroke-width:0.5;stroke-linecap:round;stroke-linejoin:bevel;" d="M425.779,281.14
		c0.374-1.44,1.832-2.792,3.21-3.283c0.969-0.345,2.833-0.579,2.79,0.95"/>
	<path style="fill:none;stroke:#FFFFFF;stroke-width:0.5;stroke-linecap:round;stroke-linejoin:bevel;" d="M430.362,290.807
		c-0.907-1.107-1.358-3.26-1.407-4.656c-0.066-1.886,0.383-3.892,1.411-5.487c0.338-0.523,0.931-1.43,1.684-1.235
		c0.847,0.218,1.342,1.369,1.624,2.094c0.769,1.979,0.814,4.147,0.827,6.242"/>
	<path style="fill:none;stroke:#FFFFFF;stroke-width:0.5;stroke-linecap:round;stroke-linejoin:bevel;" d="M432.757,282.375
		c-1.376,0.427-1.573,2.714-0.11,3.204C434.212,286.102,434.446,282.22,432.757,282.375"/>
	<path style="fill:none;stroke:#FFFFFF;stroke-width:0.5;stroke-linecap:round;stroke-linejoin:bevel;" d="M428.778,293.744
		c1.567-2.619,3.525-4.558,6.296-5.894c1.312-0.632,2.968-0.976,4.422-0.844c1.548,0.141,2.728,1.48,4.3,1.537
		c0.968,0.035,1.987-0.723,1.737-1.767c-0.235-0.977-1.212-1.715-2.111-2.039c-0.982-0.353-2.083-0.23-2.821,0.555
		c-1.382,1.469,0.464,2.241,1.681,2.648c1.013,0.339,2.155,0.777,2.392,1.946c0.283,1.394-0.216,3.159-1.037,4.295
		c-1.604,2.222-4.938,2.42-7.403,1.875c-1.344-0.297-3.998-2.216-5.313-1.174c-0.928,0.734-0.326,2.672-0.187,3.595
		c0.138,0.907,0.332,1.806,0.809,2.602c0.462,0.772,1.124,1.544,1.214,2.476c0.113,1.171-0.699,1.646-1.68,1.113
		c-1.051-0.569-1.474-1.38-1.905-2.441C428.115,299.631,427.012,296.346,428.778,293.744
		C430.8,290.366,428.32,294.418,428.778,293.744z"/>
	<path style="fill:none;stroke:#FF0000;stroke-width:0.5;stroke-linecap:round;stroke-linejoin:bevel;" d="M432.362,300.952
		c2.209,0,3.884,1.283,4.586,3.379c0.552,1.649,0.508,4.084-1.505,4.655c-0.896,0.255-2.3,0.337-2.667-0.748
		c-0.295-0.872-0.041-1.987,0.124-2.865c0.186-0.984,0.385-1.951-0.196-2.835c-0.208-0.315-1.085-1.603-0.175-1.606"/>
	<path style="fill:none;stroke:#FFFFFF;stroke-width:0.5;stroke-linecap:round;stroke-linejoin:bevel;" d="M433.32,300.723
		c-0.752-1.71,0.092-4.131,1.958-4.667"/>
	
		<line style="fill:none;stroke:#FFFFFF;stroke-width:0.5;stroke-linecap:round;stroke-linejoin:bevel;" x1="437.82" y1="288.89" x2="437.945" y2="289.265"/>
	
		<line style="fill:none;stroke:#FFFFFF;stroke-width:0.5;stroke-linecap:round;stroke-linejoin:bevel;" x1="441.695" y1="291.14" x2="441.82" y2="291.515"/>
	
		<line style="fill:none;stroke:#FFFFFF;stroke-width:0.5;stroke-linecap:round;stroke-linejoin:bevel;" x1="437.445" y1="292.64" x2="437.445" y2="293.015"/>
	<g id="Layer_3">
	</g>
</g>
<g id="Layer_1">
</g>
</svg>
