<?xml version="1.0" encoding="iso-8859-1"?>
<!-- Generator: Adobe Illustrator 15.1.0, SVG Export Plug-In . SVG Version: 6.00 Build 0)  -->
<!DOCTYPE svg PUBLIC "-//W3C//DTD SVG 1.1//EN" "http://www.w3.org/Graphics/SVG/1.1/DTD/svg11.dtd">
<svg version="1.1" xmlns="http://www.w3.org/2000/svg" xmlns:xlink="http://www.w3.org/1999/xlink" x="0px" y="0px"
	 width="841.891px" height="595.279px" viewBox="0 0 841.891 595.279" style="enable-background:new 0 0 841.891 595.279;"
	 xml:space="preserve">
<g id="DogDuck2">
	<g id="Layer_3_11_" style="display:none;">
	</g>
	<g id="Layer_49_copy">
		
			<path style="fill:none;stroke:#FC725D;stroke-width:0.5669;stroke-linecap:round;stroke-linejoin:round;stroke-miterlimit:10;" d="
			M445.33,297.619"/>
		
			<path style="fill:none;stroke:#FF00FF;stroke-width:0.5669;stroke-linecap:round;stroke-linejoin:round;stroke-miterlimit:10;" d="
			M438.331,280.619c-0.644-1.368-1.231-1.983-1.511-3.5c-0.138-0.748,0.405-2.908,2.578-3.771c1.578-0.627,3.029-0.024,3.932,1.271"
			/>
		
			<path style="fill:none;stroke:#FF00FF;stroke-width:0.5669;stroke-linecap:round;stroke-linejoin:round;stroke-miterlimit:10;" d="
			M444.33,277.619c0.307,2.306-2.889,1.111-3,3"/>
		
			<path style="fill:none;stroke:#0000FF;stroke-width:0.5669;stroke-linecap:round;stroke-linejoin:round;stroke-miterlimit:10;" d="
			M438.057,288.136c-1.375,4.46-3.763,10.594-5.302,13.921c-1.101,2.38,4.744-2.603,5.358-2.242
			c1.434,0.844-2.688,3.577,0.218,3.805c0.009-1.984,2.544,1.25,1.999-2"/>
		
			<path style="fill:none;stroke:#FFFFFF;stroke-width:0.5669;stroke-linecap:round;stroke-linejoin:round;stroke-miterlimit:10;" d="
			M445.679,294.924c-0.95-1.849-1.015-4.836-2.349-6.503c-0.616-0.516-1.817-1.589-1.854-0.149
			c-0.045,1.734,0.145,1.617-0.146,3.348c-0.34,2.023-1.248,3.888-1.818,5.846c-0.42,1.442-0.706,3.264,0.818,4.154
			c0.891-0.443,1.789-0.878,2-2"/>
		
			<path style="fill:none;stroke:#FC725D;stroke-width:0.5669;stroke-linecap:round;stroke-linejoin:round;stroke-miterlimit:10;" d="
			M444.39,298.296c0.065,2.213-0.177,3.18-2.06,1.323c-3.262-1.584,1.656-8.329,2-3c0.021,0.382,0.01,0.024,0.021,0.382
			l-0.021,0.319c0.334,0,1.83,0.151,2-0.137c0.5-0.849-0.498-4.105,0-4.563c0.657-0.604,2.042,1.518,2.053,2.796
			c0.006,0.708-0.112,1.428-0.365,2.09c-0.371,0.972-0.448,1.28-1.486,1.28"/>
		
			<path style="fill:none;stroke:#FC725D;stroke-width:0.5669;stroke-linecap:round;stroke-linejoin:round;stroke-miterlimit:10;" d="
			M443.33,274.619c1.166,0.168,1.086,1.581,1,3c0.777,0.183,2.716,1.651,3.162,0.911c0.495-0.82-1.76-2.107-0.75-2.812
			c0.901-0.63,2.595-1.145,1.922-2.116C447.715,272.233,444.997,274.619,443.33,274.619"/>
		<path style="fill:none;stroke:#FFFFFF;stroke-width:0.5;stroke-linecap:round;stroke-linejoin:bevel;stroke-miterlimit:10;" d="
			M438.852,276.494c0,2.696,4.479,1.877,3.989-1.386c-1.32-0.044-1.222,0.56-1.551,0.672c0.348,0.434-0.735,1.024-0.986,0.749
			c-0.072-0.079-0.086-0.288-0.159-0.478c-0.203,0.026-0.666,0.163-0.967,0.182"/>
		
			<path style="fill:none;stroke:#FC725D;stroke-width:0.5669;stroke-linecap:round;stroke-linejoin:round;stroke-miterlimit:10;" d="
			M395.008,297.619"/>
		
			<path style="fill:none;stroke:#FF00FF;stroke-width:0.5669;stroke-linecap:round;stroke-linejoin:round;stroke-miterlimit:10;" d="
			M396.008,277.619c-0.307,2.306,2.889,1.111,3,3"/>
		
			<path style="fill:none;stroke:#0000FF;stroke-width:0.5669;stroke-linecap:round;stroke-linejoin:round;stroke-miterlimit:10;" d="
			M402.282,288.136c1.375,4.46,3.763,10.594,5.302,13.921c1.101,2.38-4.744-2.603-5.358-2.242c-1.434,0.844,2.688,3.577-0.218,3.805
			c-0.009-1.984-2.544,1.25-1.999-2"/>
		
			<path style="fill:none;stroke:#FFFFFF;stroke-width:0.5669;stroke-linecap:round;stroke-linejoin:round;stroke-miterlimit:10;" d="
			M394.66,294.924c0.95-1.849,1.015-4.836,2.349-6.503c0.616-0.516,1.817-1.589,1.854-0.149c0.045,1.734-0.145,1.617,0.146,3.348
			c0.34,2.023,1.248,3.888,1.818,5.846c0.42,1.442,0.706,3.264-0.818,4.154c-0.891-0.443-1.789-0.878-2-2"/>
		
			<path style="fill:none;stroke:#FC725D;stroke-width:0.5669;stroke-linecap:round;stroke-linejoin:round;stroke-miterlimit:10;" d="
			M395.949,298.296c-0.065,2.213,0.177,3.18,2.06,1.323c3.262-1.584-1.656-8.329-2-3c-0.021,0.382-0.01,0.024-0.021,0.382
			l0.021,0.319c-0.334,0-1.83,0.151-2-0.137c-0.5-0.849,0.498-4.105,0-4.563c-0.657-0.604-2.042,1.518-2.053,2.796
			c-0.006,0.708,0.112,1.428,0.365,2.09c0.371,0.972,0.448,1.28,1.486,1.28"/>
		
			<path style="fill:none;stroke:#FC725D;stroke-width:0.5669;stroke-linecap:round;stroke-linejoin:round;stroke-miterlimit:10;" d="
			M397.008,274.619c-1.166,0.168-1.086,1.581-1,3c-0.777,0.183-2.716,1.651-3.162,0.911c-0.495-0.82,1.76-2.107,0.75-2.812
			c-0.901-0.63-2.595-1.145-1.922-2.116C392.624,272.233,395.341,274.619,397.008,274.619"/>
		
			<path style="fill:none;stroke:#FF00FF;stroke-width:0.5669;stroke-linecap:round;stroke-linejoin:round;stroke-miterlimit:10;" d="
			M402.007,280.619c0.644-1.368,1.231-1.983,1.511-3.5c0.138-0.748-0.405-2.908-2.578-3.771c-1.578-0.627-3.029-0.024-3.932,1.271"
			/>
		<path style="fill:none;stroke:#FFFFFF;stroke-width:0.5;stroke-linecap:round;stroke-linejoin:bevel;stroke-miterlimit:10;" d="
			M401.487,276.494c0,2.696-4.479,1.877-3.989-1.386c1.32-0.044,1.222,0.56,1.551,0.672c-0.348,0.434,0.735,1.024,0.986,0.749
			c0.072-0.079,0.086-0.288,0.159-0.478c0.203,0.026,0.666,0.163,0.967,0.182"/>
	</g>
	<g id="Layer_45_copy_2">
		<path style="fill:none;stroke:#FFFFFF;stroke-width:0.5;stroke-linecap:round;stroke-linejoin:bevel;stroke-miterlimit:10;" d="
			M427.133,290.629"/>
		<path style="fill:none;stroke:#FFFFFF;stroke-width:0.5;stroke-linecap:round;stroke-linejoin:bevel;stroke-miterlimit:10;" d="
			M424.047,289.51c-0.857,0.127-1.576-0.023-2.194-0.647c-0.438-0.443-0.829-0.972-1.516-0.971c-0.557,0-0.974,0.521-1.356,0.855
			c-0.618,0.54-1.327,0.873-2.159,0.893c-2.277,0.057-3.072-1.489-3.79-3.292c-0.5-1.255-0.019-3.467,1.127-3.922
			c2.131-0.846,4.049,1.343,6.086,1.513c2.059,0.172,3.624-1.762,5.684-1.611c1.842,0.135,2.736,2.413,2.332,3.857
			C427.683,288.256,425.993,289.221,424.047,289.51z"/>
		<path style="fill:none;stroke:#FFFFFF;stroke-width:0.5;stroke-linecap:round;stroke-linejoin:bevel;stroke-miterlimit:10;" d="
			M413.977,284.265c0.07,0.093,0.159,0.139,0.25,0.219"/>
		<path style="fill:none;stroke:#FFFFFF;stroke-width:0.5;stroke-linecap:round;stroke-linejoin:bevel;stroke-miterlimit:10;" d="
			M417.07,284.452c0.055,0.063,0.121,0.129,0.188,0.188"/>
		<path style="fill:none;stroke:#FFFFFF;stroke-width:0.5;stroke-linecap:round;stroke-linejoin:bevel;stroke-miterlimit:10;" d="
			M416.32,287.171c-0.235,0.006-0.433,0.142-0.656,0.156"/>
		<path style="fill:none;stroke:#FFFFFF;stroke-width:0.5;stroke-linecap:round;stroke-linejoin:bevel;stroke-miterlimit:10;" d="
			M424.32,287.265c0.108,0.091,0.246,0.151,0.375,0.188"/>
		<path style="fill:none;stroke:#FFFFFF;stroke-width:0.5;stroke-linecap:round;stroke-linejoin:bevel;stroke-miterlimit:10;" d="
			M423.977,284.265c-0.122,0.06-0.266,0.129-0.375,0.188"/>
		<path style="fill:none;stroke:#FFFFFF;stroke-width:0.5;stroke-linecap:round;stroke-linejoin:bevel;stroke-miterlimit:10;" d="
			M426.445,284.296c-0.005-0.01,0.128,0.14,0.188,0.188"/>
		<path style="fill:none;stroke:#FFFFFF;stroke-width:0.5;stroke-linecap:round;stroke-linejoin:bevel;stroke-miterlimit:10;" d="
			M423.664,281.39"/>
		<path style="fill:none;stroke:#FF7F00;stroke-width:0.5;stroke-linecap:round;stroke-linejoin:bevel;stroke-miterlimit:10;" d="
			M426.664,281.702c0.006-1.306,0.655-4-0.375-5.062c0.829-0.855,1.94-1.857,2.581-0.333c0.517,1.229,1.312,2.083,2.536,2.65
			c1.15,0.535,2.535,0.593,3.546-0.291c1.032-0.902,0.789-2.467,0.72-3.688c-0.106-1.862-1.739-1.052-2.75-0.517
			c-1.099,0.583-2.017,0.168-2.879-0.587c-0.946-0.828-1.85-1.577-3.192-1.167c-0.483,0.148-2.424,0.908-2.296,1.573
			c-0.488-0.733-1.339-1.435-2.241-1.391c-0.748,0.037-1.234,0.998-1.934,0.888c-0.824-0.129-1.09-1.156-2.019-1.113
			c-1.12,0.052-1.352,1.027-2.182,1.443c-1.008-0.964-1.907-1.487-3.41-1.373c-1.41,0.107-2.652,0.706-3.682,1.662
			c-2.223,2.063-2.845,5.01-1.756,7.84c0.398,1.037,1.956,1.889,3.074,1.774c1.076-0.11,0.286-2.427,0.281-3.083
			c-0.012-1.496,0.361-2.989,1.135-4.273c0.588-0.976,2.687-1.413,2.999,0.234c0.062,1.442-0.729,3.18-0.312,4.656"/>
		<path style="fill:none;stroke:#FF3000;stroke-width:0.5;stroke-linecap:round;stroke-linejoin:bevel;stroke-miterlimit:10;" d="
			M420.944,292.627c-2.745-4.003-5.766,0.96-1.224,1.656c6.057,0.928,3.257-4.824,0.725-3.281"/>
		<path style="fill:none;stroke:#FF7F00;stroke-width:0.5;stroke-linecap:round;stroke-linejoin:bevel;stroke-miterlimit:10;" d="
			M413.977,311.765c-0.594-3.688-1.896-9.906-0.458-14.5c-1.255-0.902-2.191-2.416-3.244-3.544
			c-1.177-1.263-2.552-2.218-3.932-3.254c-0.947-0.71-1.79-1.389-2.544-2.299c-0.454-0.547-1.148-0.345-1.819-0.319
			c-0.685,0.027-1.327,0.214-2.011,0.208c-0.737-0.006-1.05-0.357-1.565-0.843c-0.782-0.736-0.562-2.062-1.004-3.033
			c-0.207-0.454-0.625-1.304-0.434-1.832c0.12-0.333,0.842-0.395,1.134-0.515c0.353-0.145,0.293-0.456,0.644-0.569
			c0.629-0.204,1.156-0.25,1.825-0.25c1.212,0,2.355-0.08,2.917,1.083c0.135,0.279,0.156,0.567,0.29,0.834
			c0.224,0.446,0.035,0.618,0.431,0.87c0.657,0.42,1.076,1.067,1.755,1.463c1.097,0.639,1.973,1.131,2.995,1.906
			c0.668,0.506,1.772,1.295,2.375,1.844c0.369,0.335,1.055,1.097,1.534,1.25"/>
		<path style="fill:none;stroke:#FFFFFF;stroke-width:0.5;stroke-linecap:round;stroke-linejoin:bevel;stroke-miterlimit:10;" d="
			M421.537,278.082c0,0,0.426-0.167,0.844,0.121c0.229,0.16,0.312,0.354,0.305,1.145s-0.576,0.959-1.431,0.376
			c-0.17-0.628-0.057-1.35,0.033-2.195c0.148-1.387,0.468-1.794,0.468-1.794c0.205-0.572,1.007-0.285,1.36-0.054
			c0.825,0.54,1.245,1.496,1.335,2.434c0.117,1.214,0.117,2.11-0.217,2.902c-0.332,0.792-0.916,1.217-0.916,1.217l-0.247,0.22
			c-0.009-1.437-1.95-1.823-3.013-1.74c-1.22,0.095-1.612,0.692-2.121,1.74l-0.367-0.22c0,0-0.583-0.426-0.917-1.217
			s-0.333-1.688-0.216-2.902c0.09-0.938,0.509-1.894,1.335-2.434c0.354-0.231,1.155-0.518,1.36,0.054c0,0,0.319,0.408,0.467,1.794
			c0.09,0.845,0.204,1.567,0.033,2.195c-0.854,0.583-1.422,0.414-1.43-0.376s0.076-0.984,0.305-1.145
			c0.417-0.287,0.844-0.121,0.844-0.121"/>
		<path style="fill:none;stroke:#FFFFFF;stroke-width:0.5;stroke-linecap:round;stroke-linejoin:bevel;stroke-miterlimit:10;" d="
			M414.57,290.629c0.49,1.125,1.094,5.135,5.151,5.135c4.537,0,6.128-2.152,6.725-5.027"/>
		
			<path style="fill:none;stroke:#FF7F00;stroke-width:0.5669;stroke-linecap:round;stroke-linejoin:round;stroke-miterlimit:10;" d="
			M426.82,311.765c1.719-3.75,0.867-12.338,0.398-14.4c1.255-0.902,1.793-2.516,2.846-3.645c1.177-1.263,2.552-2.218,3.932-3.254
			c0.947-0.71,1.79-1.389,2.544-2.299c0.454-0.547,1.148-0.345,1.819-0.319c0.685,0.027,1.327,0.214,2.011,0.208
			c0.737-0.006,0.825,0.038,1.341-0.449c0.782-0.736,0.787-2.457,1.229-3.427c0.207-0.454,0.625-1.304,0.434-1.832
			c-0.12-0.333-0.842-0.395-1.134-0.515c-0.353-0.145-0.293-0.456-0.644-0.569c-0.629-0.204-1.156-0.25-1.825-0.25
			c-1.212,0-2.355-0.08-2.917,1.083c-0.135,0.279-0.156,0.567-0.29,0.834c-0.224,0.446-0.035,0.618-0.431,0.87
			c-0.657,0.42-1.076,1.067-1.755,1.463c-1.097,0.639-1.973,1.131-2.995,1.906c-0.668,0.506-1.772,1.295-2.375,1.844
			c-0.369,0.335-1.055,1.097-1.534,1.25"/>
	</g>
</g>
<g id="Layer_1">
</g>
</svg>
