<?xml version="1.0" encoding="utf-8"?>
<!-- Generator: Adobe Illustrator 16.0.4, SVG Export Plug-In . SVG Version: 6.00 Build 0)  -->
<!DOCTYPE svg PUBLIC "-//W3C//DTD SVG 1.1//EN" "http://www.w3.org/Graphics/SVG/1.1/DTD/svg11.dtd">
<svg version="1.1" id="Layer_1" xmlns="http://www.w3.org/2000/svg" xmlns:xlink="http://www.w3.org/1999/xlink" x="0px" y="0px"
	 width="77.548px" height="47.444px" viewBox="0 0 77.548 47.444" enable-background="new 0 0 77.548 47.444" xml:space="preserve">
<path fill="none" stroke="#FFBB00" stroke-width="3" stroke-miterlimit="10" d="M16.29,14.853
	c5.309-4.876,13.568-8.369,22.845-8.369c3.379,0,6.622,0.394,9.638,1.116"/>
<path fill="none" stroke="#FFBB00" stroke-width="3" stroke-miterlimit="10" d="M16.29,14.853"/>
<path fill="none" stroke="#FFBB00" stroke-width="3" stroke-miterlimit="10" d="M12.037,20.112"/>
<path fill="none" stroke="#FFBB00" stroke-width="3" stroke-miterlimit="10" d="M64.284,36.046
	c-5.008,5.915-14.395,9.897-25.149,9.897c-11.461,0-25.051-2.032-27.098-17.082"/>
<path fill="none" stroke="#FFBB00" stroke-width="3" stroke-miterlimit="10" d="M64.284,36.046"/>
<path fill="none" stroke="#FFBB00" stroke-width="3" stroke-miterlimit="10" d="M67.559,30.153"/>
<path fill="none" stroke="#FFBB00" stroke-width="3" stroke-miterlimit="10" d="M65.812,18.461c1.496,2.38,2.324,5.001,2.324,7.753
	c0,1.349-0.199,2.666-0.578,3.938"/>
<path fill="none" stroke="#FFBB00" stroke-width="3" stroke-miterlimit="10" d="M65.812,18.461"/>
<path fill="none" stroke="#FFBB00" stroke-width="3" stroke-miterlimit="10" d="M48.772,7.6"/>
<ellipse transform="matrix(0.9821 -0.1884 0.1884 0.9821 -1.325 10.9976)" fill="none" stroke="#FFFFFF" stroke-width="3" stroke-miterlimit="10" cx="57.191" cy="12.469" rx="10.062" ry="10.999"/>
<path fill="none" stroke="#FFFFFF" stroke-width="3" stroke-miterlimit="10" d="M26.928,34.086
	C17.381,33.301-5.694,21.104,3.708,15.227c3.635-2.272,27.802-0.454,32.98,6.97C40.766,28.039,34.817,34.736,26.928,34.086z"/>
<path fill="none" stroke="#FF00A9" stroke-width="3" stroke-linecap="round" stroke-miterlimit="10" d="M63.804,35.711
	c3.92,0,8.119,0,8.119,0"/>
<path fill="none" stroke="#FF00A9" stroke-width="3" stroke-linecap="round" stroke-miterlimit="10" d="M76.048,30.153
	c0,0-17.81,0-18.681,0s-3.625,0.123-3.625,2.779c0,2.282,2.562,2.779,3.625,2.779c0.771,0,3.527,0,6.437,0"/>
<line fill="none" stroke="#FFFFFF" stroke-width="4" stroke-linecap="round" stroke-miterlimit="10" x1="61.383" y1="3.589" x2="61.012" y2="10.64"/>
</svg>
