<?xml version="1.0" encoding="utf-8"?>
<!-- Generator: Adobe Illustrator 16.0.4, SVG Export Plug-In . SVG Version: 6.00 Build 0)  -->
<!DOCTYPE svg PUBLIC "-//W3C//DTD SVG 1.1//EN" "http://www.w3.org/Graphics/SVG/1.1/DTD/svg11.dtd">
<svg version="1.1" id="Layer_1" xmlns="http://www.w3.org/2000/svg" xmlns:xlink="http://www.w3.org/1999/xlink" x="0px" y="0px"
	 width="78.935px" height="47.444px" viewBox="0 0 78.935 47.444" enable-background="new 0 0 78.935 47.444" xml:space="preserve">
<path fill="none" stroke="#FFBB00" stroke-width="3" stroke-miterlimit="10" d="M13.424,20.112
	c4.168-7.419,14.729-13.628,27.098-13.628c3.379,0,6.622,0.394,9.638,1.116"/>
<path fill="none" stroke="#FFBB00" stroke-width="3" stroke-miterlimit="10" d="M65.671,36.046
	c-5.008,5.915-14.395,9.897-25.149,9.897c-11.461,0-20.713-3.667-25.422-10.232"/>
<path fill="none" stroke="#FFBB00" stroke-width="3" stroke-miterlimit="10" d="M65.671,36.046"/>
<path fill="none" stroke="#FFBB00" stroke-width="3" stroke-miterlimit="10" d="M68.946,30.153"/>
<path fill="none" stroke="#FFBB00" stroke-width="3" stroke-miterlimit="10" d="M67.2,18.461c1.496,2.38,2.324,5.001,2.324,7.753
	c0,1.349-0.199,2.666-0.578,3.938"/>
<path fill="none" stroke="#FFBB00" stroke-width="3" stroke-miterlimit="10" d="M67.2,18.461"/>
<path fill="none" stroke="#FFBB00" stroke-width="3" stroke-miterlimit="10" d="M50.16,7.6"/>
<ellipse transform="matrix(0.9821 -0.1884 0.1884 0.9821 -1.3002 11.2589)" fill="none" stroke="#FFFFFF" stroke-width="3" stroke-miterlimit="10" cx="58.578" cy="12.469" rx="10.062" ry="10.999"/>
<path fill="none" stroke="#FFFFFF" stroke-width="3" stroke-miterlimit="10" d="M30.524,35.711c-9.353,2.066-35-2.779-27.75-11.169
	c2.802-3.243,26.431-8.637,33.568-3.072C41.961,25.849,38.253,34.003,30.524,35.711z"/>
<path fill="none" stroke="#FF00A9" stroke-width="3" stroke-linecap="round" stroke-miterlimit="10" d="M65.191,35.711
	c3.92,0,8.119,0,8.119,0"/>
<path fill="none" stroke="#FF00A9" stroke-width="3" stroke-linecap="round" stroke-miterlimit="10" d="M77.435,30.153
	c0,0-17.81,0-18.681,0s-3.625,0.123-3.625,2.779c0,2.282,2.562,2.779,3.625,2.779c0.771,0,3.527,0,6.437,0"/>
<line fill="none" stroke="#FFFFFF" stroke-width="4" stroke-linecap="round" stroke-miterlimit="10" x1="62.77" y1="3.589" x2="62.399" y2="10.64"/>
</svg>
