<?xml version="1.0" encoding="utf-8"?>
<!-- Generator: Adobe Illustrator 16.0.4, SVG Export Plug-In . SVG Version: 6.00 Build 0)  -->
<!DOCTYPE svg PUBLIC "-//W3C//DTD SVG 1.1//EN" "http://www.w3.org/Graphics/SVG/1.1/DTD/svg11.dtd">
<svg version="1.1" id="Layer_1" xmlns="http://www.w3.org/2000/svg" xmlns:xlink="http://www.w3.org/1999/xlink" x="0px" y="0px"
	 width="77.788px" height="47.444px" viewBox="0 0 77.788 47.444" enable-background="new 0 0 77.788 47.444" xml:space="preserve">
<path fill="none" stroke="#FFBB00" stroke-width="3" stroke-miterlimit="10" d="M12.011,25.787c0-12.5,14.994-19.303,27.363-19.303
	c3.379,0,6.623,0.394,9.639,1.116"/>
<path fill="none" stroke="#FFBB00" stroke-width="3" stroke-miterlimit="10" d="M64.524,36.046
	c-5.008,5.915-14.395,9.897-25.15,9.897c-8.596,0-15.949-2.062-21.074-5.864"/>
<path fill="none" stroke="#FFBB00" stroke-width="3" stroke-miterlimit="10" d="M64.524,36.046"/>
<path fill="none" stroke="#FFBB00" stroke-width="3" stroke-miterlimit="10" d="M67.798,30.153"/>
<path fill="none" stroke="#FFBB00" stroke-width="3" stroke-miterlimit="10" d="M66.052,18.461c1.496,2.38,2.324,5.001,2.324,7.753
	c0,1.349-0.199,2.666-0.578,3.938"/>
<path fill="none" stroke="#FFBB00" stroke-width="3" stroke-miterlimit="10" d="M66.052,18.461"/>
<path fill="none" stroke="#FFBB00" stroke-width="3" stroke-miterlimit="10" d="M49.013,7.6"/>
<ellipse transform="matrix(0.9821 -0.1884 0.1884 0.9821 -1.3208 11.0433)" fill="none" stroke="#FFFFFF" stroke-width="3" stroke-miterlimit="10" cx="57.431" cy="12.469" rx="10.061" ry="10.999"/>
<path fill="none" stroke="#FFFFFF" stroke-width="3" stroke-miterlimit="10" d="M31.79,36.349c-8.494,4.428-34.518,6.42-29.7-3.566
	c1.862-3.861,23.274-15.215,31.613-11.699C40.269,23.851,38.81,32.689,31.79,36.349z"/>
<path fill="none" stroke="#FF00A9" stroke-width="3" stroke-linecap="round" stroke-miterlimit="10" d="M64.044,35.711
	c3.92,0,8.119,0,8.119,0"/>
<path fill="none" stroke="#FF00A9" stroke-width="3" stroke-linecap="round" stroke-miterlimit="10" d="M76.288,30.153
	c0,0-17.811,0-18.682,0s-3.625,0.123-3.625,2.779c0,2.282,2.562,2.779,3.625,2.779c0.771,0,3.527,0,6.438,0"/>
<line fill="none" stroke="#FFFFFF" stroke-width="4" stroke-linecap="round" stroke-miterlimit="10" x1="61.622" y1="3.589" x2="61.251" y2="10.64"/>
</svg>
