<?xml version="1.0" encoding="utf-8"?>
<!-- Generator: Adobe Illustrator 22.1.0, SVG Export Plug-In . SVG Version: 6.00 Build 0)  -->
<svg version="1.2" baseProfile="tiny" xmlns="http://www.w3.org/2000/svg" xmlns:xlink="http://www.w3.org/1999/xlink" x="0px"
	 y="0px" width="595.3px" height="841.9px" viewBox="0 0 595.3 841.9" xml:space="preserve">
<g id="Layer_1">
	<g id="Layer_1_2_" display="none">
		<g id="Layer_1_1_" display="inline">
			
				<path fill="none" stroke="#0092FF" stroke-width="9.9213" stroke-linecap="round" stroke-linejoin="round" stroke-miterlimit="10" d="
				M537,471V76.6c0-10.8-8.8-19.6-19.6-19.6H60.6C49.8,57,41,65.8,41,76.6v462.8c0,10.8,8.8,19.6,19.6,19.6H449l0,0L537,471"/>
			<g id="Layer_2_1_" display="none">
				
					<path display="inline" fill="none" stroke="#0092FF" stroke-width="9.9213" stroke-linecap="round" stroke-linejoin="round" stroke-miterlimit="10" d="
					M187.5,160.2c0-9.5-6.8-27.8-29.3-28.1c-1,0-6.9,0-8.3,0c-17.1,0-28.5,15.9-28.7,27.6c0,0.4,0,4.4,0.1,4.8
					c0.4,18.9,13.1,28.4,33.2,37.5c24.2,10.9,33.3,21.4,33.4,36.1c0,1.1,0,5.1,0,7.4c0,10.6-10.5,26.5-29.7,26.5c-0.2,0-8.2,0-8.4,0
					c-19.2,0-28.7-17.9-28.7-27.5"/>
				<g display="inline">
					
						<polyline fill="none" stroke="#0092FF" stroke-width="9.9213" stroke-linecap="round" stroke-linejoin="round" stroke-miterlimit="10" points="
						321.1,132.4 254.2,132.4 254.2,271.5 321.1,271.5 					"/>
					
						<line fill="none" stroke="#0092FF" stroke-width="9.9213" stroke-linecap="round" stroke-linejoin="round" stroke-miterlimit="10" x1="254.2" y1="200.3" x2="296.6" y2="200.3"/>
				</g>
				<g display="inline">
					
						<polyline fill="none" stroke="#0092FF" stroke-width="9.9213" stroke-linecap="round" stroke-linejoin="round" stroke-miterlimit="10" points="
						320.1,342 253.2,342 253.2,481.1 320.1,481.1 					"/>
					
						<line fill="none" stroke="#0092FF" stroke-width="9.9213" stroke-linecap="round" stroke-linejoin="round" stroke-miterlimit="10" x1="253.2" y1="409.9" x2="295.6" y2="409.9"/>
				</g>
				<g display="inline">
					
						<polyline fill="none" stroke="#0092FF" stroke-width="9.9213" stroke-linecap="round" stroke-linejoin="round" stroke-miterlimit="10" points="
						453.1,342 386.2,342 386.2,481.1 453.1,481.1 					"/>
					
						<line fill="none" stroke="#0092FF" stroke-width="9.9213" stroke-linecap="round" stroke-linejoin="round" stroke-miterlimit="10" x1="386.2" y1="409.9" x2="428.6" y2="409.9"/>
				</g>
				
					<polyline display="inline" fill="none" stroke="#0092FF" stroke-width="9.9213" stroke-linecap="round" stroke-linejoin="round" stroke-miterlimit="10" points="
					130.2,342 130.2,481.1 197.1,481.1 				"/>
				<g display="inline">
					
						<path fill="none" stroke="#0092FF" stroke-width="9.9213" stroke-linecap="round" stroke-linejoin="round" stroke-miterlimit="10" d="
						M423.6,200.3c1.9,0,2.6,0,4.6,0c15.7,0,25.8,10.4,25.8,30.9c0,11.9,0,5.3,0,16.8s-13.5,23.5-27.9,23.5h-38.9V132.4h37.9
						c13.3,0,20.5,15.3,20.5,22.1s0,11.8,0,18.9C445.7,185.2,439.5,200.3,423.6,200.3h-36.4"/>
				</g>
			</g>
		</g>
	</g>
</g>
<g id="Layer_2">
	<g>
		<path fill="none" stroke="#FFFFFF" stroke-miterlimit="10" d="M148.5,275.8l7.9,0c0,0,0,0,0,0c12.1,0,20.1-5.5,24.7-10
			c5.9-5.9,9.6-14.1,9.6-21.2c0-1.2,0-3,0-4.5c0-1.1,0-2.1,0-2.5c0-16.8-10.6-28.7-35.2-39.8c-20.2-9.1-27.5-16.9-27.8-29.9
			c0-0.4-0.1-3.9-0.1-4.3c0.2-8.2,8.4-20,21-20c0,0,0,0,0,0l2,0c2.1,0,5.1,0,5.8,0c17.7,0.3,21.6,14.8,21.6,20.4
			c0,3.4,2.8,6.2,6.2,6.2s6.2-2.8,6.2-6.2c0-12.5-9.2-32.5-33.8-32.8c-0.7,0-3.8,0-6,0l-1.9,0c0,0,0,0,0,0
			c-9.1,0-17.6,3.9-24.1,10.9c-5.6,6.1-9.1,14.1-9.2,21.3c0,0.6,0,4.5,0.1,4.8c0.5,21.1,14.4,31.6,35.1,40.9
			c23.1,10.4,27.9,18.9,27.9,28.5c0,0.4,0,1.3,0,2.4c0,1.5,0,3.3,0,4.6c0,3-1.6,8.1-5.9,12.5c-2.9,2.9-8,6.4-15.9,6.4c0,0,0,0,0,0
			l-7.9,0c-14.7,0-20.9-14.1-20.9-19.8c0-3.4-2.8-6.2-6.2-6.2s-6.2,2.8-6.2,6.2c0,6.5,3.1,14.3,8.2,20.4
			C129.8,271.6,138.7,275.8,148.5,275.8z"/>
		<path fill="none" stroke="#FFFFFF" stroke-miterlimit="10" d="M310.6,143.7c3.4,0,6.2-2.8,6.2-6.2s-2.8-6.2-6.2-6.2h-63.3
			c-3.4,0-6.2,2.8-6.2,6.2v131.6c0,3.4,2.8,6.2,6.2,6.2h63.3c3.4,0,6.2-2.8,6.2-6.2s-2.8-6.2-6.2-6.2h-57.1v-55h33.9
			c3.4,0,6.2-2.8,6.2-6.2s-2.8-6.2-6.2-6.2h-33.9v-51.8H310.6z"/>
		<path fill="none" stroke="#FFFFFF" stroke-miterlimit="10" d="M309.7,342c3.4,0,6.2-2.8,6.2-6.2s-2.8-6.2-6.2-6.2h-63.3
			c-3.4,0-6.2,2.8-6.2,6.2v131.6c0,3.4,2.8,6.2,6.2,6.2h63.3c3.4,0,6.2-2.8,6.2-6.2s-2.8-6.2-6.2-6.2h-57.1v-55h33.9
			c3.4,0,6.2-2.8,6.2-6.2s-2.8-6.2-6.2-6.2h-33.9V342H309.7z"/>
		<path fill="none" stroke="#FFFFFF" stroke-miterlimit="10" d="M435.5,342c3.4,0,6.2-2.8,6.2-6.2s-2.8-6.2-6.2-6.2h-63.3
			c-3.4,0-6.2,2.8-6.2,6.2v131.6c0,3.4,2.8,6.2,6.2,6.2h63.3c3.4,0,6.2-2.8,6.2-6.2s-2.8-6.2-6.2-6.2h-57.1v-55h33.9
			c3.4,0,6.2-2.8,6.2-6.2s-2.8-6.2-6.2-6.2h-33.9V342H435.5z"/>
		<path fill="none" stroke="#FFFFFF" stroke-miterlimit="10" d="M193.3,461.2h-57.1V335.8c0-3.4-2.8-6.2-6.2-6.2s-6.2,2.8-6.2,6.2
			v131.6c0,3.4,2.8,6.2,6.2,6.2h63.3c3.4,0,6.2-2.8,6.2-6.2S196.8,461.2,193.3,461.2z"/>
		<path fill="none" stroke="#FFFFFF" stroke-miterlimit="10" d="M426.9,199.1c5.1-6,7.7-14.4,7.7-22.7v-17.9c0-9.2-9-27.1-25.6-27.1
			h-35.9c-3.4,0-6.2,2.8-6.2,6.2v131.6c0,3.4,2.8,6.2,6.2,6.2h36.8c16.8,0,32.6-13.8,32.6-28.5V231
			C442.5,215.7,436.8,204.5,426.9,199.1z M379.3,143.7H409c8.4,0,13.2,11.2,13.2,14.7v17.9c0,4.9-1.4,10-3.7,13.4
			c-2.6,3.9-6.2,5.8-10.9,5.8h-28.2V143.7z M430.2,246.9c0,8.3-11.4,16.1-20.2,16.1h-30.6v-55h32.6c8.3,0,18.2,4,18.2,23.1V246.9z"
			/>
	</g>
</g>
</svg>
