<?xml version="1.0" encoding="utf-8"?>
<!-- Generator: Adobe Illustrator 22.1.0, SVG Export Plug-In . SVG Version: 6.00 Build 0)  -->
<svg version="1.2" baseProfile="tiny" xmlns="http://www.w3.org/2000/svg" xmlns:xlink="http://www.w3.org/1999/xlink" x="0px"
	 y="0px" width="595.3px" height="841.9px" viewBox="0 0 595.3 841.9" xml:space="preserve">
<g id="Layer_1">
	<g id="Layer_2_1_" display="none">
		
			<path display="inline" fill="none" stroke="#FFFFFF" stroke-width="26" stroke-linecap="round" stroke-linejoin="round" stroke-miterlimit="10" d="
			M187.5,160.2c0-9.5-6.8-27.8-29.3-28.1c-1,0-6.9,0-8.3,0c-17.1,0-28.5,15.9-28.7,27.6c0,0.4,0,4.4,0.1,4.8
			c0.4,18.9,13.1,28.4,33.2,37.5c24.2,10.9,33.3,21.4,33.4,36.1c0,1.1,0,5.1,0,7.4c0,10.6-10.5,26.5-29.7,26.5c-0.2,0-8.2,0-8.4,0
			c-19.2,0-28.7-17.9-28.7-27.5"/>
		<g display="inline">
			
				<polyline fill="none" stroke="#FFFFFF" stroke-width="26" stroke-linecap="round" stroke-linejoin="round" stroke-miterlimit="10" points="
				321.1,132.4 254.2,132.4 254.2,271.5 321.1,271.5 			"/>
			
				<line fill="none" stroke="#FFFFFF" stroke-width="26" stroke-linecap="round" stroke-linejoin="round" stroke-miterlimit="10" x1="254.2" y1="200.3" x2="296.6" y2="200.3"/>
		</g>
		<g display="inline">
			
				<polyline fill="none" stroke="#FFFFFF" stroke-width="26" stroke-linecap="round" stroke-linejoin="round" stroke-miterlimit="10" points="
				320.1,342 253.2,342 253.2,481.1 320.1,481.1 			"/>
			
				<line fill="none" stroke="#FFFFFF" stroke-width="26" stroke-linecap="round" stroke-linejoin="round" stroke-miterlimit="10" x1="253.2" y1="409.9" x2="295.6" y2="409.9"/>
		</g>
		<g display="inline">
			
				<polyline fill="none" stroke="#FFFFFF" stroke-width="26" stroke-linecap="round" stroke-linejoin="round" stroke-miterlimit="10" points="
				453.1,342 386.2,342 386.2,481.1 453.1,481.1 			"/>
			
				<line fill="none" stroke="#FFFFFF" stroke-width="26" stroke-linecap="round" stroke-linejoin="round" stroke-miterlimit="10" x1="386.2" y1="409.9" x2="428.6" y2="409.9"/>
		</g>
		
			<polyline display="inline" fill="none" stroke="#FFFFFF" stroke-width="26" stroke-linecap="round" stroke-linejoin="round" stroke-miterlimit="10" points="
			130.2,342 130.2,481.1 197.1,481.1 		"/>
		<g display="inline">
			
				<path fill="none" stroke="#FFFFFF" stroke-width="26" stroke-linecap="round" stroke-linejoin="round" stroke-miterlimit="10" d="
				M423.6,200.3c1.9,0,2.6,0,4.6,0c15.7,0,25.8,10.4,25.8,30.9c0,11.9,0,5.3,0,16.8s-13.5,23.5-27.9,23.5h-38.9V132.4h37.9
				c13.3,0,20.5,15.3,20.5,22.1s0,11.8,0,18.9C445.7,185.2,439.5,200.3,423.6,200.3h-36.4"/>
		</g>
	</g>
</g>
<g id="Layer_2">
	<g id="Airport_2">
		<g id="Telephone">
			<g>
				<path fill="none" stroke="#00FF00" stroke-miterlimit="10" d="M500.2,422.5c0,34.6-28.1,62.7-62.7,62.7H165.1
					c-34.6,0-62.7-28.1-62.7-62.7V150.2c0-34.7,28.1-62.7,62.7-62.7h272.4c34.6,0,62.7,28,62.7,62.7V422.5z"/>
				<g>
					<path fill="none" stroke="#00FF00" stroke-miterlimit="10" d="M197.8,172.7c0,0-18.7,142.7,96,265.4l69.5,1.4l7.9-6.7l-44-65.5
						l-22.9,7.3l-58.5-153.2l22.9-15.2l-8.4-78.5h-10.3L197.8,172.7z"/>
					<polygon fill="none" stroke="#00FF00" stroke-miterlimit="10" points="276.2,127.1 283.8,202.2 299.7,197.6 295.3,129 					"/>
					<polygon fill="none" stroke="#00FF00" stroke-miterlimit="10" points="338.9,360.5 385.4,425 397,413.3 356.5,352.9 					"/>
				</g>
			</g>
		</g>
	</g>
</g>
</svg>
