<?xml version="1.0" encoding="utf-8"?>
<!-- Generator: Adobe Illustrator 24.1.2, SVG Export Plug-In . SVG Version: 6.00 Build 0)  -->
<svg version="1.1" baseProfile="basic" id="Layer_1"
	 xmlns="http://www.w3.org/2000/svg" xmlns:xlink="http://www.w3.org/1999/xlink" x="0px" y="0px" width="1600px" height="1600px"
	 viewBox="0 0 1600 1600" xml:space="preserve">
<g id="Layer_4">
	
		<circle fill="none" stroke="#FF0000" stroke-width="2" stroke-linecap="round" stroke-linejoin="round" stroke-miterlimit="10" cx="800.84" cy="799.16" r="171.24"/>
</g>
<g id="Layer_2_1_">
	<g>
		<path fill="none" stroke="#FF0000" stroke-width="2" stroke-linecap="round" stroke-linejoin="round" stroke-miterlimit="10" d="
			M835.44,704.2c-0.37,1.6-0.72,3.2-1.1,4.8c-2.01,8.55-4.03,17.1-6.03,25.65c-1.12,4.8-2.18,9.61-3.31,14.4
			c-0.15,0.62-0.47,1.24-0.82,1.78c-0.6,0.91-1.53,1.39-2.59,1.21c-1.12-0.19-1.65-1.16-1.91-2.17c-1.18-4.61-2.28-9.24-3.45-13.85
			c-1.31-5.17-2.63-10.34-3.98-15.5c-0.48-1.84-1.06-2.37-2.32-2.33s-2.39,1.02-2.74,2.47c-0.67,2.78-1.28,5.58-1.93,8.37
			c-1.6,6.91-3.2,13.81-4.8,20.71c-0.31,1.33-0.63,2.65-0.96,3.98c-0.12,0.46-0.16,1-0.43,1.36c-0.67,0.88-1.54,1.63-2.72,1.5
			c-1.36-0.16-1.76-1.3-2.06-2.44c-1.05-4.07-2.14-8.13-3.15-12.21c-2.17-8.73-4.31-17.46-6.44-26.2c-0.17-0.71-0.15-1.46-0.22-2.19
			"/>
		<path fill="none" stroke="#FF0000" stroke-width="2" stroke-linecap="round" stroke-linejoin="round" stroke-miterlimit="10" d="
			M812.81,811.61c-0.09-0.73-0.06-1.51-0.3-2.19c-0.71-1.99-1.49-3.96-2.32-5.9c-0.95-2.25-2.05-2.71-4.38-2.22
			c-2.96,0.62-5.94,1.12-8.91,1.66c-1.05,0.19-2.11,0.33-3.15,0.56c-1,0.22-1.79,0.11-2.2-0.97c-0.36-0.95-0.04-2.22,0.98-2.7
			c1.06-0.5,2.25-0.75,3.41-0.99c2.96-0.59,5.96-1.02,8.91-1.69c1.96-0.45,2.62-2.05,1.93-3.95c-2.61-7.18-5.22-14.36-7.82-21.54
			c-0.43-1.18-0.98-2.19-2.47-2.2c-1.45-0.01-2.18,0.85-2.6,2.07c-1.17,3.38-2.33,6.75-3.43,10.15c-1.59,4.88-3.1,9.79-4.68,14.67
			c-2.14,6.63-4.3,13.26-6.44,19.89c-0.19,0.58-0.28,1.19-0.42,1.78"/>
		<path fill="none" stroke="#FF0000" stroke-width="2" stroke-linecap="round" stroke-linejoin="round" stroke-miterlimit="10" d="
			M913.08,811.47c-3.09-3.25-6.91-3.68-11.12-3.06c-2.65,0.39-5.09,1.22-7.4,2.51c-3.75,2.1-5.82,5.35-6.15,9.6
			c-0.29,3.66,1.47,6.77,5.48,7.9c3.82,1.08,7.75,1.72,11.65,2.52c2.67,0.55,5.1,1.4,7.03,3.55c2.36,2.63,2.67,8.28-0.17,11.82
			c-2.77,3.45-6.29,5.66-10.69,6.47c-3.09,0.57-6.09,0.53-9.06-0.56c-1.86-0.69-3.2-2.05-4.51-3.45c-0.11-0.12-0.02-0.44-0.02-0.67"
			/>
		<path fill="none" stroke="#FF0000" stroke-width="2" stroke-linecap="round" stroke-linejoin="round" stroke-miterlimit="10" d="
			M842.09,817.79c-0.07,6.54-0.17,13.08-0.2,19.62c-0.03,7.41,0,14.82-0.02,22.22c0,0.73-0.05,1.51-0.29,2.18
			c-0.36,1.02-1.17,1.48-2.3,1.55c-1.03,0.06-1.51-0.54-1.91-1.27c-2.76-4.98-5.46-9.98-8.25-14.94
			c-2.89-5.14-5.85-10.24-8.77-15.37c-1.03-1.81-2.01-3.66-3.02-5.48c-0.89-1.61-1.38-1.93-2.47-1.65
			c-1.47,0.38-2.05,1.17-2.05,2.88c-0.01,12.76-0.01,41.02-0.01,41.02"/>
		<path fill="none" stroke="#FF0000" stroke-width="2" stroke-linecap="round" stroke-linejoin="round" stroke-miterlimit="10" d="
			M865.35,859.62c0.05-0.64,0.13-1.28,0.13-1.92c0.01-11.61,0-23.23,0.01-34.84c0-0.73-0.02-1.49,0.15-2.19
			c0.43-1.74,1.86-2.32,3.41-2.6c2.83-0.5,5.67-0.89,8.5-1.41c0.85-0.16,1.89-0.34,2.17-1.36c0.18-0.64,0.28-1.54-0.04-2
			c-0.31-0.45-1.24-0.75-1.84-0.69c-1.71,0.18-3.39,0.61-5.08,0.91c-3.98,0.7-7.96,1.37-11.93,2.06c-3.3,0.58-6.6,1.18-10.01,1.79"
			/>
		<path fill="none" stroke="#FF0000" stroke-width="2" stroke-linecap="round" stroke-linejoin="round" stroke-miterlimit="10" d="
			M769.87,819.02c0.05-0.5,0.13-1.01,0.13-1.51c0.01-13.4,0.01-26.8,0.01-40.19c0-0.99,0.11-2.02-1.23-2.34
			c-1.09-0.26-2.1,0.03-2.72,1.26c-0.93,1.86-1.71,3.81-2.49,5.75c-3.13,7.77-6.22,15.55-9.34,23.32c-0.63,1.56-1.31,3.1-1.91,4.67
			c-0.74,1.95-1.56,2.54-3.39,2.32c-1.63-1.2-2.08-3.21-2.9-4.94c-3.9-8.2-7.7-16.45-11.55-24.68c-0.61-1.31-1.52-1.86-2.6-1.65
			c-1.03,0.2-2.05,1.51-2.05,2.74c-0.06,13.21-0.1,26.43-0.14,39.64c0,0.73,0,1.46,0,2.19"/>
		<path fill="none" stroke="#FF0000" stroke-width="2" stroke-linecap="round" stroke-linejoin="round" stroke-miterlimit="10" d="
			M870.7,720.52c-4.16,0.78-8.32,1.58-12.48,2.32c-3.79,0.68-7.59,1.26-11.38,1.94c-1.43,0.26-2.45,1.49-2.6,3.01
			c-0.09,0.86-0.14,1.74-0.14,2.61c-0.01,4.76-0.02,9.51,0,14.27c0.01,2.56,0.74,3.27,3.28,2.86c4.08-0.65,8.14-1.46,12.21-2.17
			c2.83-0.49,5.67-0.9,8.5-1.39c0.88-0.15,1.74-0.45,2.61-0.67"/>
		<path fill="none" stroke="#FF0000" stroke-width="2" stroke-linecap="round" stroke-linejoin="round" stroke-miterlimit="10" d="
			M803.75,847c-1.92,0.41-3.83,0.88-5.76,1.22c-2.83,0.51-5.67,0.9-8.5,1.39c-2.93,0.51-5.84,1.15-8.78,1.62
			c-2.74,0.44-3.51,1.51-3.54,3.86c-0.07,5.58-0.11,11.16,0.03,16.73c0.05,2.08,1.05,2.57,2.69,2.31c3.81-0.61,7.59-1.37,11.39-2.03
			c2.83-0.49,5.67-0.9,8.5-1.39c1.33-0.23,2.65-0.54,3.98-0.82"/>
		<path fill="none" stroke="#FF0000" stroke-width="2" stroke-linecap="round" stroke-linejoin="round" stroke-miterlimit="10" d="
			M883.86,775.47c-2.19,0.48-4.38,1.02-6.59,1.43c-2.78,0.52-5.58,0.92-8.36,1.39c-2.88,0.49-5.78,0.93-8.64,1.53
			c-2.35,0.49-3.22,1.31-3.26,3.82c-0.1,5.62-0.07,11.25-0.01,16.87c0.02,1.99,1.57,2.73,3.96,2.21c2.5-0.54,5.02-0.94,7.54-1.39
			c2.15-0.38,4.3-0.71,6.45-1.11c2.38-0.43,4.76-0.9,7.13-1.37c0.51-0.1,1.01-0.27,1.51-0.41"/>
		<path fill="none" stroke="#FF0000" stroke-width="2" stroke-linecap="round" stroke-linejoin="round" stroke-miterlimit="10" d="
			M768.5,830.68c-0.46,1.51-0.89,3.03-1.38,4.53c-3.38,10.47-6.77,20.94-10.15,31.42c-1.06,3.29-2.1,6.59-3.16,9.87
			c-0.17,0.52-0.44,1.01-0.68,1.51c-0.5,1.03-1.51,1.41-2.46,1.31c-0.86-0.09-1.59-0.72-1.95-1.71c-1.18-3.36-2.47-6.68-3.68-10.02
			c-3.39-9.33-6.78-18.65-10.13-27.99c-0.29-0.81-0.25-1.73-0.37-2.6"/>
		<path fill="none" stroke="#FF0000" stroke-width="2" stroke-linecap="round" stroke-linejoin="round" stroke-miterlimit="10" d="
			M725.01,861c-5.76,1.05-11.52,2.11-17.28,3.15c-2.06,0.37-4.11,0.75-6.17,1.09c-1.55,0.25-2.69,1.27-2.72,3.44
			c-0.07,5.49-0.08,10.97,0,16.46c0.04,2.62,0.92,3.2,3.4,2.86c2.44-0.34,4.85-0.89,7.27-1.35c3.38-0.64,6.76-1.3,10.15-1.91
			c2.28-0.41,4.57-0.74,6.86-1.11"/>
		<path fill="none" stroke="#FF0000" stroke-width="2" stroke-linecap="round" stroke-linejoin="round" stroke-miterlimit="10" d="
			M822.34,764.56c-0.07,14.63-0.22,45.7-0.22,45.7"/>
		<path fill="none" stroke="#FF0000" stroke-width="2" stroke-linecap="round" stroke-linejoin="round" stroke-miterlimit="10" d="
			M726.52,839.19c-2.06,0.41-4.11,0.84-6.17,1.23c-2.33,0.44-4.66,0.84-7,1.24c-2.28,0.38-4.58,0.7-6.86,1.11
			c-1.66,0.3-3.31,0.65-4.94,1.1c-2.16,0.6-2.74,1.39-2.74,3.55c-0.01,4.21,0,8.41-0.01,12.62c0,0.41-0.09,0.82-0.13,1.23"/>
		<path fill="none" stroke="#FF0000" stroke-width="2" stroke-linecap="round" stroke-linejoin="round" stroke-miterlimit="10" d="
			M883.45,754.27c-3.89,0.69-7.78,1.36-11.66,2.06c-3.39,0.62-6.77,1.28-10.15,1.91c-0.45,0.08-0.92,0.06-1.37,0.15
			c-3.21,0.67-3.22,2.08-3.27,4.38c-0.09,3.88-0.01,7.77-0.04,11.66c-0.01,1.01-0.17,2.01-0.26,3.02"/>
		<path fill="none" stroke="#FF0000" stroke-width="2" stroke-linecap="round" stroke-linejoin="round" stroke-miterlimit="10" d="
			M804.03,825.47c-1.69,0.37-3.38,0.76-5.08,1.09c-2.33,0.44-4.66,0.83-6.99,1.24c-2.38,0.42-4.76,0.82-7.13,1.24
			c-1.74,0.31-3.5,0.55-5.21,0.98c-1.79,0.45-2.46,1.66-2.47,4.09c-0.02,3.75,0.01,7.5-0.02,11.25c-0.01,0.92-0.17,1.83-0.26,2.74"
			/>
		<path fill="none" stroke="#FF0000" stroke-width="2" stroke-linecap="round" stroke-linejoin="round" stroke-miterlimit="10" d="
			M870.97,698.99c-1.74,0.37-3.47,0.76-5.21,1.09c-3.47,0.66-6.95,1.3-10.43,1.92c-2.65,0.48-5.32,0.86-7.95,1.39
			c-2.56,0.52-3.28,1.5-3.29,4.24c-0.02,4.07,0.01,8.14-0.02,12.21c0,0.59-0.17,1.19-0.26,1.78"/>
		<path fill="none" stroke="#FF0000" stroke-width="2" stroke-linecap="round" stroke-linejoin="round" stroke-miterlimit="10" d="
			M826.11,790.62c5.81-9.28,11.61-18.57,17.42-27.85c0.21-0.33,0.42-0.67,0.69-0.96c0.8-0.87,1.87-1.09,2.6-0.55
			c0.81,0.59,0.93,1.66,0.27,2.74c-1.87,3.07-3.72,6.15-5.63,9.19c-1.93,3.08-4.03,6.07-5.85,9.22c-1.32,2.28-1.13,3.31,0.22,5.2
			c3.92,5.46,7.79,10.96,11.67,16.45c0.15,0.22,0.28,0.46,0.41,0.68"/>
	</g>
</g>
<g id="Layer_3">
	
		<polyline fill="none" stroke="#FF0000" stroke-width="2" stroke-linecap="round" stroke-linejoin="round" stroke-miterlimit="10" points="
		764.02,762.82 766.8,744.03 770.87,716.52 	"/>
	
		<polyline fill="none" stroke="#FF0000" stroke-width="2" stroke-linecap="round" stroke-linejoin="round" stroke-miterlimit="10" points="
		756.3,718.52 753.23,740.27 749.73,765.11 	"/>
	
		<polyline fill="none" stroke="#FF0000" stroke-width="2" stroke-linecap="round" stroke-linejoin="round" stroke-miterlimit="10" points="
		744.01,737.1 763.41,733.62 777.45,731.1 	"/>
	
		<polyline fill="none" stroke="#FF0000" stroke-width="2" stroke-linecap="round" stroke-linejoin="round" stroke-miterlimit="10" points="
		742.58,751.96 759.73,748.91 776.3,745.96 	"/>
</g>
</svg>
