<?xml version="1.0" encoding="utf-8"?>
<!-- Generator: Adobe Illustrator 15.1.0, SVG Export Plug-In . SVG Version: 6.00 Build 0)  -->
<!DOCTYPE svg PUBLIC "-//W3C//DTD SVG 1.1//EN" "http://www.w3.org/Graphics/SVG/1.1/DTD/svg11.dtd">
<svg version="1.1" id="Layer_1" xmlns="http://www.w3.org/2000/svg" xmlns:xlink="http://www.w3.org/1999/xlink" x="0px" y="0px"
	 width="595.3px" height="841.9px" viewBox="0 0 595.3 841.9" enable-background="new 0 0 595.3 841.9" xml:space="preserve">
<path fill-rule="evenodd" clip-rule="evenodd" fill="none" stroke="#FFFF00" stroke-width="3" stroke-miterlimit="10" d="
	M204.172,187.54c-0.27-0.04-0.69-0.17-1.24-0.37c-7.35-2.71-37.39-18.68-40.94-21.67"/>
<path fill-rule="evenodd" clip-rule="evenodd" fill="none" stroke="#FFFF00" stroke-width="3" stroke-miterlimit="10" d="
	M259.882,161.05c-0.51-12.42,1.63-36.8,9.71-46.28"/>
<path fill-rule="evenodd" clip-rule="evenodd" fill="none" stroke="#FF00FF" stroke-width="3" stroke-miterlimit="10" d="
	M260.322,165.9"/>
<path fill-rule="evenodd" clip-rule="evenodd" fill="none" stroke="#FFFF00" stroke-width="3" stroke-miterlimit="10" d="
	M290.232,174.95c0.2-0.54,0.44-1.06,0.681-1.58c5.62-12.34,18.76-25.72,26.62-37.59"/>
<path fill-rule="evenodd" clip-rule="evenodd" fill="none" stroke="#FFFF00" stroke-width="3" stroke-miterlimit="10" d="
	M192.802,219.311c-10.71,1.02-35.55-5.58-51.17-6.141"/>
<path fill-rule="evenodd" clip-rule="evenodd" fill="none" stroke="#FFFF00" stroke-width="3" stroke-miterlimit="10" d="
	M203.902,131.13c6.64,1.75,22.76,24.68,23.52,31.93"/>
<path fill-rule="evenodd" clip-rule="evenodd" fill="none" stroke="#FFFF00" stroke-width="3" stroke-miterlimit="10" d="
	M195.862,251.851c-0.81,0.02-1.63,0.08-2.43,0.109c-20.18,0.98-37.33,3.2-57.82,8.931"/>
<path fill-rule="evenodd" clip-rule="evenodd" fill="none" stroke="#FFFF00" stroke-width="3" stroke-miterlimit="10" d="
	M313.512,189.02c11.99-10.24,27.5-15.49,40.17-25.76"/>
<g>
	<g>
		<path fill="none" stroke="#FF9D00" stroke-width="3" stroke-miterlimit="10" d="M284.672,332.28c0-6.521-2.43-13.99-7.29-22.38
			l-12.15-20.681c-1.24-2.14-1.859-4.39-1.859-6.739c0-3.17,0.949-4.851,2.859-5.04c2.57-0.26,3.851,3.51,3.851,11.3v3.4
			l13.439-1.33c0-10.061-0.619-16.79-1.859-20.2c-2.391-6.92-7.62-9.98-15.73-9.18c-5.71,0.569-10.19,2.96-13.43,7.17
			c-2.86,3.819-4.29,8.54-4.29,14.149c0,7.34,1.62,13.75,4.859,19.23l13.44,22.85c2.38,3.94,3.57,7.311,3.57,10.11
			c0,3.08-1.28,4.75-3.86,5.01c-2.67,0.26-4.199-1.67-4.58-5.8v-8.83l-13.43,1.33c0,9.689,0.72,16.41,2.141,20.17
			c2.579,6.72,7.959,9.67,16.159,8.86c6.29-0.62,11.01-3.261,14.15-7.921C283.333,343.87,284.672,338.71,284.672,332.28z"/>
	</g>
</g>
<path fill-rule="evenodd" clip-rule="evenodd" fill="none" stroke="#FFFF00" stroke-width="3" stroke-miterlimit="10" d="
	M316.022,221.521c10.021-2.75,28.771-4.25,38.91-3.78"/>
<path fill="none" stroke="#FFFF00" stroke-width="3" stroke-miterlimit="10" d="M227.275,340.45
	c-0.627-0.85-2.134-3.505-2.912-5.815c-19.247-44.729,35.739-139.145,14.01-153.274c9.279,4.38,107.778,143.09,29.778,174.451
	c-1.363,0.548-17.698,0.278-22.559-1.481c-5.169-1.901-9.394-4.487-12.817-7.635C231.243,345.417,229.146,342.684,227.275,340.45z"
	/>
<path fill="none" stroke="#FFA300" stroke-width="3" stroke-miterlimit="10" d="M224.363,334.635
	c-34.918-15.567-96.788-38.147-147.75-59.234c-0.21,3.33-0.47,6.66-0.76,9.97c52.189,21.364,116.517,44.507,156.923,61.325"/>
</svg>
